<?xml version="1.0" encoding="UTF-8"?>
<!DOCTYPE svg PUBLIC "-//W3C//DTD SVG 1.0//EN" "http://www.w3.org/TR/2001/REC-SVG-20010904/DTD/svg10.dtd" [
<!ATTLIST g
xmlns:kvg CDATA #FIXED "http://kanjivg.tagaini.net"
kvg:element CDATA #IMPLIED
kvg:variant CDATA #IMPLIED
kvg:partial CDATA #IMPLIED
kvg:original CDATA #IMPLIED
kvg:part CDATA #IMPLIED
kvg:number CDATA #IMPLIED
kvg:tradForm CDATA #IMPLIED
kvg:radicalForm CDATA #IMPLIED
kvg:position CDATA #IMPLIED
kvg:radical CDATA #IMPLIED
kvg:phon CDATA #IMPLIED >
<!ATTLIST path
xmlns:kvg CDATA #FIXED "http://kanjivg.tagaini.net"
kvg:type CDATA #IMPLIED >
]><svg style="width: 300px; height: 100px;" xmlns="http://www.w3.org/2000/svg" xmlns:xlink="http://www.w3.org/1999/xlink"><style>
.stroke_order_diagram--outer_container {
  width: 100%;
  overflow-x: auto;
  overflow-y: hidden;
}

.stroke_order_diagram--guide_line {
  fill: none;
  stroke: #ddd;
  stroke-width: 3;
  stroke-linecap: square;
  stroke-linejoin: square;
  stroke-dasharray:8, 8;
}

.stroke_order_diagram--bounding_box {
  fill: none;
  stroke: #ddd;
  stroke-width: 4;
  stroke-linecap: square;
  stroke-linejoin: square;
}

.stroke_order_diagram--current_path {
  fill: none;
  stroke: #000;
  stroke-width: 6;
  stroke-linecap: round;
  stroke-linejoin: round;
}

.stroke_order_diagram--existing_path {
  fill: none;
  stroke: #aaa;
  stroke-width: 6;
  stroke-linecap: round;
  stroke-linejoin:round;
}

.stroke_order_diagram--path_start {
  fill: rgba(255, 0, 0, 0.7);
  stroke:none
}</style><desc>Created with Snap</desc><defs></defs><line x1="1" x2="299" y1="1" y2="1" class="stroke_order_diagram--bounding_box"></line><line x1="1" x2="1" y1="1" y2="99" class="stroke_order_diagram--bounding_box"></line><line x1="1" x2="299" y1="99" y2="99" class="stroke_order_diagram--bounding_box"></line><line x1="0" x2="300" y1="50" y2="50" class="stroke_order_diagram--guide_line"></line><line x1="50" x2="50" y1="1" y2="99" class="stroke_order_diagram--guide_line"></line><line x1="99" x2="99" y1="1" y2="99" class="stroke_order_diagram--bounding_box"></line><path id="kvg:0590a-s1" kvg:type="㇒" d="M52.54,13.75c0.09,1.14,0.19,2.93-0.18,4.57c-2.2,9.63-14.33,31.25-31.61,44.18" transform="matrix(1,0,0,1,-4,-4)" class="stroke_order_diagram--current_path"></path><path id="pathSk93xdzq0gd" kvg:type="㇒" d="M52.54,13.75c0.09,1.14,0.19,2.93-0.18,4.57c-2.2,9.63-14.33,31.25-31.61,44.18" transform="matrix(1,0,0,1,-4,-4)" class="stroke_order_diagram--current_path"></path><circle cx="52.54" cy="13.75" r="8" class="stroke_order_diagram--path_start" transform="matrix(1,0,0,1,-4,-4)"></circle><line x1="150" x2="150" y1="1" y2="99" class="stroke_order_diagram--guide_line"></line><line x1="199" x2="199" y1="1" y2="99" class="stroke_order_diagram--bounding_box"></line><path id="pathSk93xdzq0gg" kvg:type="㇒" d="M52.54,13.75c0.09,1.14,0.19,2.93-0.18,4.57c-2.2,9.63-14.33,31.25-31.61,44.18" transform="matrix(1,0,0,1,96,-4)" class="stroke_order_diagram--existing_path"></path><path id="kvg:0590a-s2" kvg:type="㇇" d="M48.14,35.78c0.46,0.05,2.9,0.45,4.19,0.32c5.79-0.58,16.07-2.7,22.14-4.16c4.17-1,5.35,1.14,4.29,3.86C72.92,50.68,43.51,87.09,17.5,94.75" transform="matrix(1,0,0,1,96,-4)" class="stroke_order_diagram--current_path"></path><path id="pathSk93xdzq0gi" kvg:type="㇇" d="M48.14,35.78c0.46,0.05,2.9,0.45,4.19,0.32c5.79-0.58,16.07-2.7,22.14-4.16c4.17-1,5.35,1.14,4.29,3.86C72.92,50.68,43.51,87.09,17.5,94.75" transform="matrix(1,0,0,1,96,-4)" class="stroke_order_diagram--current_path"></path><circle cx="48.14" cy="35.78" r="8" class="stroke_order_diagram--path_start" transform="matrix(1,0,0,1,96,-4)"></circle><line x1="250" x2="250" y1="1" y2="99" class="stroke_order_diagram--guide_line"></line><line x1="299" x2="299" y1="1" y2="99" class="stroke_order_diagram--bounding_box"></line><path id="pathSk93xdzq0gl" kvg:type="㇒" d="M52.54,13.75c0.09,1.14,0.19,2.93-0.18,4.57c-2.2,9.63-14.33,31.25-31.61,44.18" transform="matrix(1,0,0,1,196,-4)" class="stroke_order_diagram--existing_path"></path><path id="pathSk93xdzq0gm" kvg:type="㇇" d="M48.14,35.78c0.46,0.05,2.9,0.45,4.19,0.32c5.79-0.58,16.07-2.7,22.14-4.16c4.17-1,5.35,1.14,4.29,3.86C72.92,50.68,43.51,87.09,17.5,94.75" transform="matrix(1,0,0,1,196,-4)" class="stroke_order_diagram--existing_path"></path><path id="kvg:0590a-s3" kvg:type="㇏" d="M24.25,30.5c2.25,0,4.41,1.74,4.99,2.73C42,55,66.5,79.75,83.33,89.86c3.99,2.4,6.61,4.28,10.17,5.14" transform="matrix(1,0,0,1,196,-4)" class="stroke_order_diagram--current_path"></path><path id="pathSk93xdzq0go" kvg:type="㇏" d="M24.25,30.5c2.25,0,4.41,1.74,4.99,2.73C42,55,66.5,79.75,83.33,89.86c3.99,2.4,6.61,4.28,10.17,5.14" transform="matrix(1,0,0,1,196,-4)" class="stroke_order_diagram--current_path"></path><circle cx="24.25" cy="30.5" r="8" class="stroke_order_diagram--path_start" transform="matrix(1,0,0,1,196,-4)"></circle></svg>