<?xml version="1.0" encoding="UTF-8"?>
<!DOCTYPE svg PUBLIC "-//W3C//DTD SVG 1.0//EN" "http://www.w3.org/TR/2001/REC-SVG-20010904/DTD/svg10.dtd" [
<!ATTLIST g
xmlns:kvg CDATA #FIXED "http://kanjivg.tagaini.net"
kvg:element CDATA #IMPLIED
kvg:variant CDATA #IMPLIED
kvg:partial CDATA #IMPLIED
kvg:original CDATA #IMPLIED
kvg:part CDATA #IMPLIED
kvg:number CDATA #IMPLIED
kvg:tradForm CDATA #IMPLIED
kvg:radicalForm CDATA #IMPLIED
kvg:position CDATA #IMPLIED
kvg:radical CDATA #IMPLIED
kvg:phon CDATA #IMPLIED >
<!ATTLIST path
xmlns:kvg CDATA #FIXED "http://kanjivg.tagaini.net"
kvg:type CDATA #IMPLIED >
]><svg style="width: 300px; height: 100px;" xmlns="http://www.w3.org/2000/svg" xmlns:xlink="http://www.w3.org/1999/xlink" width="300px" height="100px"><style>
.stroke_order_diagram--outer_container {
  width: 100%;
  overflow-x: auto;
  overflow-y: hidden;
}

.stroke_order_diagram--guide_line {
  fill: none;
  stroke: #ddd;
  stroke-width: 3;
  stroke-linecap: square;
  stroke-linejoin: square;
  stroke-dasharray:8, 8;
}

.stroke_order_diagram--bounding_box {
  fill: none;
  stroke: #ddd;
  stroke-width: 4;
  stroke-linecap: square;
  stroke-linejoin: square;
}

.stroke_order_diagram--current_path {
  fill: none;
  stroke: #000;
  stroke-width: 6;
  stroke-linecap: round;
  stroke-linejoin: round;
}

.stroke_order_diagram--existing_path {
  fill: none;
  stroke: #aaa;
  stroke-width: 6;
  stroke-linecap: round;
  stroke-linejoin:round;
}

.stroke_order_diagram--path_start {
  fill: rgba(255, 0, 0, 0.7);
  stroke:none
}</style><desc>Created with Snap</desc><defs></defs><line x1="1" x2="299" y1="1" y2="1" class="stroke_order_diagram--bounding_box"></line><line x1="1" x2="1" y1="1" y2="99" class="stroke_order_diagram--bounding_box"></line><line x1="1" x2="299" y1="99" y2="99" class="stroke_order_diagram--bounding_box"></line><line x1="0" x2="300" y1="50" y2="50" class="stroke_order_diagram--guide_line"></line><line x1="50" x2="50" y1="1" y2="99" class="stroke_order_diagram--guide_line"></line><line x1="99" x2="99" y1="1" y2="99" class="stroke_order_diagram--bounding_box"></line><path id="kvg:05902-s1" kvg:type="㇒" d="M43.56,11.75c0.08,1.09,0.16,2.81-0.15,4.38C41.56,25.35,30.98,45.6,16.5,58" transform="matrix(1,0,0,1,-4,-4)" class="stroke_order_diagram--current_path"></path><path id="pathSk940yk7kfp" kvg:type="㇒" d="M43.56,11.75c0.08,1.09,0.16,2.81-0.15,4.38C41.56,25.35,30.98,45.6,16.5,58" transform="matrix(1,0,0,1,-4,-4)" class="stroke_order_diagram--current_path"></path><circle cx="43.56" cy="11.75" r="8" class="stroke_order_diagram--path_start" transform="matrix(1,0,0,1,-4,-4)"></circle><line x1="150" x2="150" y1="1" y2="99" class="stroke_order_diagram--guide_line"></line><line x1="199" x2="199" y1="1" y2="99" class="stroke_order_diagram--bounding_box"></line><path id="pathSk940yk7kfs" kvg:type="㇒" d="M43.56,11.75c0.08,1.09,0.16,2.81-0.15,4.38C41.56,25.35,30.98,45.6,16.5,58" transform="matrix(1,0,0,1,96,-4)" class="stroke_order_diagram--existing_path"></path><path id="kvg:05902-s2" kvg:type="㇇" d="M38.84,34.02c0.44,0.05,2.81,0.48,4.06,0.34c5.6-0.61,21.35-2.86,27.23-4.41c4.03-1.06,5.18,1.21,4.15,4.09C68.63,49.81,40.17,88.38,15,96.5" transform="matrix(1,0,0,1,96,-4)" class="stroke_order_diagram--current_path"></path><path id="pathSk940yk7kfu" kvg:type="㇇" d="M38.84,34.02c0.44,0.05,2.81,0.48,4.06,0.34c5.6-0.61,21.35-2.86,27.23-4.41c4.03-1.06,5.18,1.21,4.15,4.09C68.63,49.81,40.17,88.38,15,96.5" transform="matrix(1,0,0,1,96,-4)" class="stroke_order_diagram--current_path"></path><circle cx="38.84" cy="34.02" r="8" class="stroke_order_diagram--path_start" transform="matrix(1,0,0,1,96,-4)"></circle><line x1="250" x2="250" y1="1" y2="99" class="stroke_order_diagram--guide_line"></line><line x1="299" x2="299" y1="1" y2="99" class="stroke_order_diagram--bounding_box"></line><path id="pathSk940yk7kfx" kvg:type="㇒" d="M43.56,11.75c0.08,1.09,0.16,2.81-0.15,4.38C41.56,25.35,30.98,45.6,16.5,58" transform="matrix(1,0,0,1,196,-4)" class="stroke_order_diagram--existing_path"></path><path id="pathSk940yk7kfy" kvg:type="㇇" d="M38.84,34.02c0.44,0.05,2.81,0.48,4.06,0.34c5.6-0.61,21.35-2.86,27.23-4.41c4.03-1.06,5.18,1.21,4.15,4.09C68.63,49.81,40.17,88.38,15,96.5" transform="matrix(1,0,0,1,196,-4)" class="stroke_order_diagram--existing_path"></path><path id="kvg:05902-s3" kvg:type="㇏" d="M33.5,40.75c7.5,8.75,41.5,42,51.61,50c3.02,2.39,5.46,3.54,8.39,4.25" transform="matrix(1,0,0,1,196,-4)" class="stroke_order_diagram--current_path"></path><path id="pathSk940yk7kg0" kvg:type="㇏" d="M33.5,40.75c7.5,8.75,41.5,42,51.61,50c3.02,2.39,5.46,3.54,8.39,4.25" transform="matrix(1,0,0,1,196,-4)" class="stroke_order_diagram--current_path"></path><circle cx="33.5" cy="40.75" r="8" class="stroke_order_diagram--path_start" transform="matrix(1,0,0,1,196,-4)"></circle></svg>