<?xml version="1.0" encoding="UTF-8"?>
<!DOCTYPE svg PUBLIC "-//W3C//DTD SVG 1.0//EN" "http://www.w3.org/TR/2001/REC-SVG-20010904/DTD/svg10.dtd" [
<!ATTLIST g
xmlns:kvg CDATA #FIXED "http://kanjivg.tagaini.net"
kvg:element CDATA #IMPLIED
kvg:variant CDATA #IMPLIED
kvg:partial CDATA #IMPLIED
kvg:original CDATA #IMPLIED
kvg:part CDATA #IMPLIED
kvg:number CDATA #IMPLIED
kvg:tradForm CDATA #IMPLIED
kvg:radicalForm CDATA #IMPLIED
kvg:position CDATA #IMPLIED
kvg:radical CDATA #IMPLIED
kvg:phon CDATA #IMPLIED >
<!ATTLIST path
xmlns:kvg CDATA #FIXED "http://kanjivg.tagaini.net"
kvg:type CDATA #IMPLIED >
]><svg style="width: 300px; height: 100px;" xmlns="http://www.w3.org/2000/svg" xmlns:xlink="http://www.w3.org/1999/xlink"><style>
.stroke_order_diagram--outer_container {
  width: 100%;
  overflow-x: auto;
  overflow-y: hidden;
}

.stroke_order_diagram--guide_line {
  fill: none;
  stroke: #ddd;
  stroke-width: 3;
  stroke-linecap: square;
  stroke-linejoin: square;
  stroke-dasharray:8, 8;
}

.stroke_order_diagram--bounding_box {
  fill: none;
  stroke: #ddd;
  stroke-width: 4;
  stroke-linecap: square;
  stroke-linejoin: square;
}

.stroke_order_diagram--current_path {
  fill: none;
  stroke: #000;
  stroke-width: 6;
  stroke-linecap: round;
  stroke-linejoin: round;
}

.stroke_order_diagram--existing_path {
  fill: none;
  stroke: #aaa;
  stroke-width: 6;
  stroke-linecap: round;
  stroke-linejoin:round;
}

.stroke_order_diagram--path_start {
  fill: rgba(255, 0, 0, 0.7);
  stroke:none
}</style><desc>Created with Snap</desc><defs></defs><line x1="1" x2="299" y1="1" y2="1" class="stroke_order_diagram--bounding_box"></line><line x1="1" x2="1" y1="1" y2="99" class="stroke_order_diagram--bounding_box"></line><line x1="1" x2="299" y1="99" y2="99" class="stroke_order_diagram--bounding_box"></line><line x1="0" x2="300" y1="50" y2="50" class="stroke_order_diagram--guide_line"></line><line x1="50" x2="50" y1="1" y2="99" class="stroke_order_diagram--guide_line"></line><line x1="99" x2="99" y1="1" y2="99" class="stroke_order_diagram--bounding_box"></line><path id="kvg:05c0f-s1" kvg:type="㇚" d="M54.71,18.37c1.4,1.4,2.26,3.13,2.26,5.77c0,14.56-0.26,54.91-0.26,59.87c0,11.25-7.21,1.5-8.71,0.25" transform="matrix(1,0,0,1,-4,-4)" class="stroke_order_diagram--current_path"></path><path id="pathSk93xdzq0l1" kvg:type="㇚" d="M54.71,18.37c1.4,1.4,2.26,3.13,2.26,5.77c0,14.56-0.26,54.91-0.26,59.87c0,11.25-7.21,1.5-8.71,0.25" transform="matrix(1,0,0,1,-4,-4)" class="stroke_order_diagram--current_path"></path><circle cx="54.71" cy="18.37" r="8" class="stroke_order_diagram--path_start" transform="matrix(1,0,0,1,-4,-4)"></circle><line x1="150" x2="150" y1="1" y2="99" class="stroke_order_diagram--guide_line"></line><line x1="199" x2="199" y1="1" y2="99" class="stroke_order_diagram--bounding_box"></line><path id="pathSk93xdzq0l4" kvg:type="㇚" d="M54.71,18.37c1.4,1.4,2.26,3.13,2.26,5.77c0,14.56-0.26,54.91-0.26,59.87c0,11.25-7.21,1.5-8.71,0.25" transform="matrix(1,0,0,1,96,-4)" class="stroke_order_diagram--existing_path"></path><path id="kvg:05c0f-s2" kvg:type="㇒" d="M31.95,47.68c0.17,0.82,0.1,1.72-0.34,2.9C29.5,56.38,24.38,66.25,16.75,73" transform="matrix(1,0,0,1,96,-4)" class="stroke_order_diagram--current_path"></path><path id="pathSk93xdzq0l6" kvg:type="㇒" d="M31.95,47.68c0.17,0.82,0.1,1.72-0.34,2.9C29.5,56.38,24.38,66.25,16.75,73" transform="matrix(1,0,0,1,96,-4)" class="stroke_order_diagram--current_path"></path><circle cx="31.95" cy="47.68" r="8" class="stroke_order_diagram--path_start" transform="matrix(1,0,0,1,96,-4)"></circle><line x1="250" x2="250" y1="1" y2="99" class="stroke_order_diagram--guide_line"></line><line x1="299" x2="299" y1="1" y2="99" class="stroke_order_diagram--bounding_box"></line><path id="pathSk93xdzq0l9" kvg:type="㇚" d="M54.71,18.37c1.4,1.4,2.26,3.13,2.26,5.77c0,14.56-0.26,54.91-0.26,59.87c0,11.25-7.21,1.5-8.71,0.25" transform="matrix(1,0,0,1,196,-4)" class="stroke_order_diagram--existing_path"></path><path id="pathSk93xdzq0la" kvg:type="㇒" d="M31.95,47.68c0.17,0.82,0.1,1.72-0.34,2.9C29.5,56.38,24.38,66.25,16.75,73" transform="matrix(1,0,0,1,196,-4)" class="stroke_order_diagram--existing_path"></path><path id="kvg:05c0f-s3" kvg:type="㇔" d="M80.96,47.12C86.62,52,95.25,64.62,97,72" transform="matrix(1,0,0,1,196,-4)" class="stroke_order_diagram--current_path"></path><path id="pathSk93xdzq0lc" kvg:type="㇔" d="M80.96,47.12C86.62,52,95.25,64.62,97,72" transform="matrix(1,0,0,1,196,-4)" class="stroke_order_diagram--current_path"></path><circle cx="80.96" cy="47.12" r="8" class="stroke_order_diagram--path_start" transform="matrix(1,0,0,1,196,-4)"></circle></svg>