<?xml version="1.0" encoding="UTF-8"?>
<!DOCTYPE svg PUBLIC "-//W3C//DTD SVG 1.0//EN" "http://www.w3.org/TR/2001/REC-SVG-20010904/DTD/svg10.dtd" [
<!ATTLIST g
xmlns:kvg CDATA #FIXED "http://kanjivg.tagaini.net"
kvg:element CDATA #IMPLIED
kvg:variant CDATA #IMPLIED
kvg:partial CDATA #IMPLIED
kvg:original CDATA #IMPLIED
kvg:part CDATA #IMPLIED
kvg:number CDATA #IMPLIED
kvg:tradForm CDATA #IMPLIED
kvg:radicalForm CDATA #IMPLIED
kvg:position CDATA #IMPLIED
kvg:radical CDATA #IMPLIED
kvg:phon CDATA #IMPLIED >
<!ATTLIST path
xmlns:kvg CDATA #FIXED "http://kanjivg.tagaini.net"
kvg:type CDATA #IMPLIED >
]><svg style="width: 300px; height: 100px;" xmlns="http://www.w3.org/2000/svg" xmlns:xlink="http://www.w3.org/1999/xlink" width="300px" height="100px"><style>
.stroke_order_diagram--outer_container {
  width: 100%;
  overflow-x: auto;
  overflow-y: hidden;
}

.stroke_order_diagram--guide_line {
  fill: none;
  stroke: #ddd;
  stroke-width: 3;
  stroke-linecap: square;
  stroke-linejoin: square;
  stroke-dasharray:8, 8;
}

.stroke_order_diagram--bounding_box {
  fill: none;
  stroke: #ddd;
  stroke-width: 4;
  stroke-linecap: square;
  stroke-linejoin: square;
}

.stroke_order_diagram--current_path {
  fill: none;
  stroke: #000;
  stroke-width: 6;
  stroke-linecap: round;
  stroke-linejoin: round;
}

.stroke_order_diagram--existing_path {
  fill: none;
  stroke: #aaa;
  stroke-width: 6;
  stroke-linecap: round;
  stroke-linejoin:round;
}

.stroke_order_diagram--path_start {
  fill: rgba(255, 0, 0, 0.7);
  stroke:none
}</style><desc>Created with Snap</desc><defs></defs><line x1="1" x2="299" y1="1" y2="1" class="stroke_order_diagram--bounding_box"></line><line x1="1" x2="1" y1="1" y2="99" class="stroke_order_diagram--bounding_box"></line><line x1="1" x2="299" y1="99" y2="99" class="stroke_order_diagram--bounding_box"></line><line x1="0" x2="300" y1="50" y2="50" class="stroke_order_diagram--guide_line"></line><line x1="50" x2="50" y1="1" y2="99" class="stroke_order_diagram--guide_line"></line><line x1="99" x2="99" y1="1" y2="99" class="stroke_order_diagram--bounding_box"></line><path id="kvg:05c6e-s1" kvg:type="㇗a" d="M22.6,33.16c0.9,0.46,2.3,1.71,2.3,4.41c0,3.13-1.15,17.8-1.65,23.3c-0.26,2.84-1,4.5,3.31,4.16c12.59-0.99,48.44-5.16,59.7-6.42" transform="matrix(1,0,0,1,-4,-4)" class="stroke_order_diagram--current_path"></path><path id="pathSk940yk7kn1" kvg:type="㇗a" d="M22.6,33.16c0.9,0.46,2.3,1.71,2.3,4.41c0,3.13-1.15,17.8-1.65,23.3c-0.26,2.84-1,4.5,3.31,4.16c12.59-0.99,48.44-5.16,59.7-6.42" transform="matrix(1,0,0,1,-4,-4)" class="stroke_order_diagram--current_path"></path><circle cx="22.6" cy="33.16" r="8" class="stroke_order_diagram--path_start" transform="matrix(1,0,0,1,-4,-4)"></circle><line x1="150" x2="150" y1="1" y2="99" class="stroke_order_diagram--guide_line"></line><line x1="199" x2="199" y1="1" y2="99" class="stroke_order_diagram--bounding_box"></line><path id="pathSk940yk7kn4" kvg:type="㇗a" d="M22.6,33.16c0.9,0.46,2.3,1.71,2.3,4.41c0,3.13-1.15,17.8-1.65,23.3c-0.26,2.84-1,4.5,3.31,4.16c12.59-0.99,48.44-5.16,59.7-6.42" transform="matrix(1,0,0,1,96,-4)" class="stroke_order_diagram--existing_path"></path><path id="kvg:05c6e-s2" kvg:type="㇑" d="M86.48,27.75c0.77,0.62,2.42,2.62,2.3,3.91c-0.54,5.96-1.79,21.71-2.73,32.08" transform="matrix(1,0,0,1,96,-4)" class="stroke_order_diagram--current_path"></path><path id="pathSk940yk7kn6" kvg:type="㇑" d="M86.48,27.75c0.77,0.62,2.42,2.62,2.3,3.91c-0.54,5.96-1.79,21.71-2.73,32.08" transform="matrix(1,0,0,1,96,-4)" class="stroke_order_diagram--current_path"></path><circle cx="86.48" cy="27.75" r="8" class="stroke_order_diagram--path_start" transform="matrix(1,0,0,1,96,-4)"></circle><line x1="250" x2="250" y1="1" y2="99" class="stroke_order_diagram--guide_line"></line><line x1="299" x2="299" y1="1" y2="99" class="stroke_order_diagram--bounding_box"></line><path id="pathSk940yk7kn9" kvg:type="㇗a" d="M22.6,33.16c0.9,0.46,2.3,1.71,2.3,4.41c0,3.13-1.15,17.8-1.65,23.3c-0.26,2.84-1,4.5,3.31,4.16c12.59-0.99,48.44-5.16,59.7-6.42" transform="matrix(1,0,0,1,196,-4)" class="stroke_order_diagram--existing_path"></path><path id="pathSk940yk7kna" kvg:type="㇑" d="M86.48,27.75c0.77,0.62,2.42,2.62,2.3,3.91c-0.54,5.96-1.79,21.71-2.73,32.08" transform="matrix(1,0,0,1,196,-4)" class="stroke_order_diagram--existing_path"></path><path id="kvg:05c6e-s3" kvg:type="㇒" d="M53.07,10.12c1.18,1,2.25,3,2.25,4.63c0,13.95,0.05,22.37-0.18,35.38c-0.4,23.24-7.4,40.99-27.59,51.46" transform="matrix(1,0,0,1,196,-4)" class="stroke_order_diagram--current_path"></path><path id="pathSk940yk7knc" kvg:type="㇒" d="M53.07,10.12c1.18,1,2.25,3,2.25,4.63c0,13.95,0.05,22.37-0.18,35.38c-0.4,23.24-7.4,40.99-27.59,51.46" transform="matrix(1,0,0,1,196,-4)" class="stroke_order_diagram--current_path"></path><circle cx="53.07" cy="10.12" r="8" class="stroke_order_diagram--path_start" transform="matrix(1,0,0,1,196,-4)"></circle></svg>