<?xml version="1.0" encoding="UTF-8"?>
<!DOCTYPE svg PUBLIC "-//W3C//DTD SVG 1.0//EN" "http://www.w3.org/TR/2001/REC-SVG-20010904/DTD/svg10.dtd" [
<!ATTLIST g
xmlns:kvg CDATA #FIXED "http://kanjivg.tagaini.net"
kvg:element CDATA #IMPLIED
kvg:variant CDATA #IMPLIED
kvg:partial CDATA #IMPLIED
kvg:original CDATA #IMPLIED
kvg:part CDATA #IMPLIED
kvg:number CDATA #IMPLIED
kvg:tradForm CDATA #IMPLIED
kvg:radicalForm CDATA #IMPLIED
kvg:position CDATA #IMPLIED
kvg:radical CDATA #IMPLIED
kvg:phon CDATA #IMPLIED >
<!ATTLIST path
xmlns:kvg CDATA #FIXED "http://kanjivg.tagaini.net"
kvg:type CDATA #IMPLIED >
]><svg style="width: 300px; height: 100px;" xmlns="http://www.w3.org/2000/svg" xmlns:xlink="http://www.w3.org/1999/xlink"><style>
.stroke_order_diagram--outer_container {
  width: 100%;
  overflow-x: auto;
  overflow-y: hidden;
}

.stroke_order_diagram--guide_line {
  fill: none;
  stroke: #ddd;
  stroke-width: 3;
  stroke-linecap: square;
  stroke-linejoin: square;
  stroke-dasharray:8, 8;
}

.stroke_order_diagram--bounding_box {
  fill: none;
  stroke: #ddd;
  stroke-width: 4;
  stroke-linecap: square;
  stroke-linejoin: square;
}

.stroke_order_diagram--current_path {
  fill: none;
  stroke: #000;
  stroke-width: 6;
  stroke-linecap: round;
  stroke-linejoin: round;
}

.stroke_order_diagram--existing_path {
  fill: none;
  stroke: #aaa;
  stroke-width: 6;
  stroke-linecap: round;
  stroke-linejoin:round;
}

.stroke_order_diagram--path_start {
  fill: rgba(255, 0, 0, 0.7);
  stroke:none
}</style><desc>Created with Snap</desc><defs></defs><line x1="1" x2="299" y1="1" y2="1" class="stroke_order_diagram--bounding_box"></line><line x1="1" x2="1" y1="1" y2="99" class="stroke_order_diagram--bounding_box"></line><line x1="1" x2="299" y1="99" y2="99" class="stroke_order_diagram--bounding_box"></line><line x1="0" x2="300" y1="50" y2="50" class="stroke_order_diagram--guide_line"></line><line x1="50" x2="50" y1="1" y2="99" class="stroke_order_diagram--guide_line"></line><line x1="99" x2="99" y1="1" y2="99" class="stroke_order_diagram--bounding_box"></line><path id="kvg:05e7a-s1" kvg:type="㇜" d="M52.38,14.87c0.6,1.81,0.67,3.04-0.3,5.12C48,28.75,39.75,38.5,33.18,44.49c-1.11,1.02-0.69,3.18,0.5,3.52c6.33,1.81,13.57,2.74,22.18,6.13" transform="matrix(1,0,0,1,-4,-4)" class="stroke_order_diagram--current_path"></path><path id="pathSk93xdzq0rp" kvg:type="㇜" d="M52.38,14.87c0.6,1.81,0.67,3.04-0.3,5.12C48,28.75,39.75,38.5,33.18,44.49c-1.11,1.02-0.69,3.18,0.5,3.52c6.33,1.81,13.57,2.74,22.18,6.13" transform="matrix(1,0,0,1,-4,-4)" class="stroke_order_diagram--current_path"></path><circle cx="52.38" cy="14.87" r="8" class="stroke_order_diagram--path_start" transform="matrix(1,0,0,1,-4,-4)"></circle><line x1="150" x2="150" y1="1" y2="99" class="stroke_order_diagram--guide_line"></line><line x1="199" x2="199" y1="1" y2="99" class="stroke_order_diagram--bounding_box"></line><path id="pathSk93xdzq0rs" kvg:type="㇜" d="M52.38,14.87c0.6,1.81,0.67,3.04-0.3,5.12C48,28.75,39.75,38.5,33.18,44.49c-1.11,1.02-0.69,3.18,0.5,3.52c6.33,1.81,13.57,2.74,22.18,6.13" transform="matrix(1,0,0,1,96,-4)" class="stroke_order_diagram--existing_path"></path><path id="kvg:05e7a-s2" kvg:type="㇜" d="M74.98,27.31c0.6,0.9,0.21,4.26-0.5,5.32c-8.73,13.11-32.83,40.03-47.29,54.79c-1.94,1.98-1.23,4.39,1.21,3.91c13.11-2.59,36.25-6.83,49.21-9.24" transform="matrix(1,0,0,1,96,-4)" class="stroke_order_diagram--current_path"></path><path id="pathSk93xdzq0ru" kvg:type="㇜" d="M74.98,27.31c0.6,0.9,0.21,4.26-0.5,5.32c-8.73,13.11-32.83,40.03-47.29,54.79c-1.94,1.98-1.23,4.39,1.21,3.91c13.11-2.59,36.25-6.83,49.21-9.24" transform="matrix(1,0,0,1,96,-4)" class="stroke_order_diagram--current_path"></path><circle cx="74.98" cy="27.31" r="8" class="stroke_order_diagram--path_start" transform="matrix(1,0,0,1,96,-4)"></circle><line x1="250" x2="250" y1="1" y2="99" class="stroke_order_diagram--guide_line"></line><line x1="299" x2="299" y1="1" y2="99" class="stroke_order_diagram--bounding_box"></line><path id="pathSk93xdzq0rx" kvg:type="㇜" d="M52.38,14.87c0.6,1.81,0.67,3.04-0.3,5.12C48,28.75,39.75,38.5,33.18,44.49c-1.11,1.02-0.69,3.18,0.5,3.52c6.33,1.81,13.57,2.74,22.18,6.13" transform="matrix(1,0,0,1,196,-4)" class="stroke_order_diagram--existing_path"></path><path id="pathSk93xdzq0ry" kvg:type="㇜" d="M74.98,27.31c0.6,0.9,0.21,4.26-0.5,5.32c-8.73,13.11-32.83,40.03-47.29,54.79c-1.94,1.98-1.23,4.39,1.21,3.91c13.11-2.59,36.25-6.83,49.21-9.24" transform="matrix(1,0,0,1,196,-4)" class="stroke_order_diagram--existing_path"></path><path id="kvg:05e7a-s3" kvg:type="㇔" d="M68.39,67.96c5.73,4.65,14.81,19.13,16.24,26.37" transform="matrix(1,0,0,1,196,-4)" class="stroke_order_diagram--current_path"></path><path id="pathSk93xdzq0s0" kvg:type="㇔" d="M68.39,67.96c5.73,4.65,14.81,19.13,16.24,26.37" transform="matrix(1,0,0,1,196,-4)" class="stroke_order_diagram--current_path"></path><circle cx="68.39" cy="67.96" r="8" class="stroke_order_diagram--path_start" transform="matrix(1,0,0,1,196,-4)"></circle></svg>