<?xml version="1.0" encoding="UTF-8"?>
<!DOCTYPE svg PUBLIC "-//W3C//DTD SVG 1.0//EN" "http://www.w3.org/TR/2001/REC-SVG-20010904/DTD/svg10.dtd" [
<!ATTLIST g
xmlns:kvg CDATA #FIXED "http://kanjivg.tagaini.net"
kvg:element CDATA #IMPLIED
kvg:variant CDATA #IMPLIED
kvg:partial CDATA #IMPLIED
kvg:original CDATA #IMPLIED
kvg:part CDATA #IMPLIED
kvg:number CDATA #IMPLIED
kvg:tradForm CDATA #IMPLIED
kvg:radicalForm CDATA #IMPLIED
kvg:position CDATA #IMPLIED
kvg:radical CDATA #IMPLIED
kvg:phon CDATA #IMPLIED >
<!ATTLIST path
xmlns:kvg CDATA #FIXED "http://kanjivg.tagaini.net"
kvg:type CDATA #IMPLIED >
]><svg style="width: 400px; height: 100px;" xmlns="http://www.w3.org/2000/svg" xmlns:xlink="http://www.w3.org/1999/xlink" width="400px" height="100px"><style>
.stroke_order_diagram--outer_container {
  width: 100%;
  overflow-x: auto;
  overflow-y: hidden;
}

.stroke_order_diagram--guide_line {
  fill: none;
  stroke: #ddd;
  stroke-width: 3;
  stroke-linecap: square;
  stroke-linejoin: square;
  stroke-dasharray:8, 8;
}

.stroke_order_diagram--bounding_box {
  fill: none;
  stroke: #ddd;
  stroke-width: 4;
  stroke-linecap: square;
  stroke-linejoin: square;
}

.stroke_order_diagram--current_path {
  fill: none;
  stroke: #000;
  stroke-width: 6;
  stroke-linecap: round;
  stroke-linejoin: round;
}

.stroke_order_diagram--existing_path {
  fill: none;
  stroke: #aaa;
  stroke-width: 6;
  stroke-linecap: round;
  stroke-linejoin:round;
}

.stroke_order_diagram--path_start {
  fill: rgba(255, 0, 0, 0.7);
  stroke:none
}</style><desc>Created with Snap</desc><defs></defs><line x1="1" x2="399" y1="1" y2="1" class="stroke_order_diagram--bounding_box"></line><line x1="1" x2="1" y1="1" y2="99" class="stroke_order_diagram--bounding_box"></line><line x1="1" x2="399" y1="99" y2="99" class="stroke_order_diagram--bounding_box"></line><line x1="0" x2="400" y1="50" y2="50" class="stroke_order_diagram--guide_line"></line><line x1="50" x2="50" y1="1" y2="99" class="stroke_order_diagram--guide_line"></line><line x1="99" x2="99" y1="1" y2="99" class="stroke_order_diagram--bounding_box"></line><path id="kvg:06208-s1" kvg:type="㇐" d="M15.75,39.45c2.85,0.72,5.68,0.77,8.5,0.16c13.53-1.89,45.83-5.57,59.76-6.49c2.34-0.23,4.67-0.09,6.99,0.43" transform="matrix(1,0,0,1,-4,-4)" class="stroke_order_diagram--current_path"></path><path id="pathSk940yk7kym" kvg:type="㇐" d="M15.75,39.45c2.85,0.72,5.68,0.77,8.5,0.16c13.53-1.89,45.83-5.57,59.76-6.49c2.34-0.23,4.67-0.09,6.99,0.43" transform="matrix(1,0,0,1,-4,-4)" class="stroke_order_diagram--current_path"></path><circle cx="15.75" cy="39.45" r="8" class="stroke_order_diagram--path_start" transform="matrix(1,0,0,1,-4,-4)"></circle><line x1="150" x2="150" y1="1" y2="99" class="stroke_order_diagram--guide_line"></line><line x1="199" x2="199" y1="1" y2="99" class="stroke_order_diagram--bounding_box"></line><path id="pathSk940yk7kyp" kvg:type="㇐" d="M15.75,39.45c2.85,0.72,5.68,0.77,8.5,0.16c13.53-1.89,45.83-5.57,59.76-6.49c2.34-0.23,4.67-0.09,6.99,0.43" transform="matrix(1,0,0,1,96,-4)" class="stroke_order_diagram--existing_path"></path><path id="kvg:06208-s2" kvg:type="㇂" d="M45.5,11.75c2,1.75,2.58,3.49,3,7.25C52,50.5,64.25,80.25,88.75,92c7.86,3.77,6.75,0.75,5.75-7" transform="matrix(1,0,0,1,96,-4)" class="stroke_order_diagram--current_path"></path><path id="pathSk940yk7kyr" kvg:type="㇂" d="M45.5,11.75c2,1.75,2.58,3.49,3,7.25C52,50.5,64.25,80.25,88.75,92c7.86,3.77,6.75,0.75,5.75-7" transform="matrix(1,0,0,1,96,-4)" class="stroke_order_diagram--current_path"></path><circle cx="45.5" cy="11.75" r="8" class="stroke_order_diagram--path_start" transform="matrix(1,0,0,1,96,-4)"></circle><line x1="250" x2="250" y1="1" y2="99" class="stroke_order_diagram--guide_line"></line><line x1="299" x2="299" y1="1" y2="99" class="stroke_order_diagram--bounding_box"></line><path id="pathSk940yk7kyu" kvg:type="㇐" d="M15.75,39.45c2.85,0.72,5.68,0.77,8.5,0.16c13.53-1.89,45.83-5.57,59.76-6.49c2.34-0.23,4.67-0.09,6.99,0.43" transform="matrix(1,0,0,1,196,-4)" class="stroke_order_diagram--existing_path"></path><path id="pathSk940yk7kyv" kvg:type="㇂" d="M45.5,11.75c2,1.75,2.58,3.49,3,7.25C52,50.5,64.25,80.25,88.75,92c7.86,3.77,6.75,0.75,5.75-7" transform="matrix(1,0,0,1,196,-4)" class="stroke_order_diagram--existing_path"></path><path id="kvg:06208-s3" kvg:type="㇒" d="M77.68,42.89c0.34,2,0.09,3.87-0.8,5.58c-5.16,9.94-22.48,29.14-46.82,40.74" transform="matrix(1,0,0,1,196,-4)" class="stroke_order_diagram--current_path"></path><path id="pathSk940yk7kyx" kvg:type="㇒" d="M77.68,42.89c0.34,2,0.09,3.87-0.8,5.58c-5.16,9.94-22.48,29.14-46.82,40.74" transform="matrix(1,0,0,1,196,-4)" class="stroke_order_diagram--current_path"></path><circle cx="77.68" cy="42.89" r="8" class="stroke_order_diagram--path_start" transform="matrix(1,0,0,1,196,-4)"></circle><line x1="350" x2="350" y1="1" y2="99" class="stroke_order_diagram--guide_line"></line><line x1="399" x2="399" y1="1" y2="99" class="stroke_order_diagram--bounding_box"></line><path id="pathSk940yk7kz0" kvg:type="㇐" d="M15.75,39.45c2.85,0.72,5.68,0.77,8.5,0.16c13.53-1.89,45.83-5.57,59.76-6.49c2.34-0.23,4.67-0.09,6.99,0.43" transform="matrix(1,0,0,1,296,-4)" class="stroke_order_diagram--existing_path"></path><path id="pathSk940yk7kz1" kvg:type="㇂" d="M45.5,11.75c2,1.75,2.58,3.49,3,7.25C52,50.5,64.25,80.25,88.75,92c7.86,3.77,6.75,0.75,5.75-7" transform="matrix(1,0,0,1,296,-4)" class="stroke_order_diagram--existing_path"></path><path id="pathSk940yk7kz2" kvg:type="㇒" d="M77.68,42.89c0.34,2,0.09,3.87-0.8,5.58c-5.16,9.94-22.48,29.14-46.82,40.74" transform="matrix(1,0,0,1,296,-4)" class="stroke_order_diagram--existing_path"></path><path id="kvg:06208-s4" kvg:type="㇔" d="M67.25,12.5c3.18,2,8.27,6.57,9.75,10" transform="matrix(1,0,0,1,296,-4)" class="stroke_order_diagram--current_path"></path><path id="pathSk940yk7kz4" kvg:type="㇔" d="M67.25,12.5c3.18,2,8.27,6.57,9.75,10" transform="matrix(1,0,0,1,296,-4)" class="stroke_order_diagram--current_path"></path><circle cx="67.25" cy="12.5" r="8" class="stroke_order_diagram--path_start" transform="matrix(1,0,0,1,296,-4)"></circle></svg>