<?xml version="1.0" encoding="UTF-8"?>
<!DOCTYPE svg PUBLIC "-//W3C//DTD SVG 1.0//EN" "http://www.w3.org/TR/2001/REC-SVG-20010904/DTD/svg10.dtd" [
<!ATTLIST g
xmlns:kvg CDATA #FIXED "http://kanjivg.tagaini.net"
kvg:element CDATA #IMPLIED
kvg:variant CDATA #IMPLIED
kvg:partial CDATA #IMPLIED
kvg:original CDATA #IMPLIED
kvg:part CDATA #IMPLIED
kvg:number CDATA #IMPLIED
kvg:tradForm CDATA #IMPLIED
kvg:radicalForm CDATA #IMPLIED
kvg:position CDATA #IMPLIED
kvg:radical CDATA #IMPLIED
kvg:phon CDATA #IMPLIED >
<!ATTLIST path
xmlns:kvg CDATA #FIXED "http://kanjivg.tagaini.net"
kvg:type CDATA #IMPLIED >
]><svg style="width: 400px; height: 100px;" xmlns="http://www.w3.org/2000/svg" xmlns:xlink="http://www.w3.org/1999/xlink"><style>
.stroke_order_diagram--outer_container {
  width: 100%;
  overflow-x: auto;
  overflow-y: hidden;
}

.stroke_order_diagram--guide_line {
  fill: none;
  stroke: #ddd;
  stroke-width: 3;
  stroke-linecap: square;
  stroke-linejoin: square;
  stroke-dasharray:8, 8;
}

.stroke_order_diagram--bounding_box {
  fill: none;
  stroke: #ddd;
  stroke-width: 4;
  stroke-linecap: square;
  stroke-linejoin: square;
}

.stroke_order_diagram--current_path {
  fill: none;
  stroke: #000;
  stroke-width: 6;
  stroke-linecap: round;
  stroke-linejoin: round;
}

.stroke_order_diagram--existing_path {
  fill: none;
  stroke: #aaa;
  stroke-width: 6;
  stroke-linecap: round;
  stroke-linejoin:round;
}

.stroke_order_diagram--path_start {
  fill: rgba(255, 0, 0, 0.7);
  stroke:none
}</style><desc>Created with Snap</desc><defs></defs><line x1="1" x2="399" y1="1" y2="1" class="stroke_order_diagram--bounding_box"></line><line x1="1" x2="1" y1="1" y2="99" class="stroke_order_diagram--bounding_box"></line><line x1="1" x2="399" y1="99" y2="99" class="stroke_order_diagram--bounding_box"></line><line x1="0" x2="400" y1="50" y2="50" class="stroke_order_diagram--guide_line"></line><line x1="50" x2="50" y1="1" y2="99" class="stroke_order_diagram--guide_line"></line><line x1="99" x2="99" y1="1" y2="99" class="stroke_order_diagram--bounding_box"></line><path id="kvg:06534-s1" kvg:type="㇑" d="M52.28,10.88c0.48,0.31,1.5,2.32,1.6,2.93c0.1,0.62-0.06,25.7-0.16,29.57" transform="matrix(1,0,0,1,-4,-4)" class="stroke_order_diagram--current_path"></path><path id="pathSk93xdzq0126" kvg:type="㇑" d="M52.28,10.88c0.48,0.31,1.5,2.32,1.6,2.93c0.1,0.62-0.06,25.7-0.16,29.57" transform="matrix(1,0,0,1,-4,-4)" class="stroke_order_diagram--current_path"></path><circle cx="52.28" cy="10.88" r="8" class="stroke_order_diagram--path_start" transform="matrix(1,0,0,1,-4,-4)"></circle><line x1="150" x2="150" y1="1" y2="99" class="stroke_order_diagram--guide_line"></line><line x1="199" x2="199" y1="1" y2="99" class="stroke_order_diagram--bounding_box"></line><path id="pathSk93xdzq0129" kvg:type="㇑" d="M52.28,10.88c0.48,0.31,1.5,2.32,1.6,2.93c0.1,0.62-0.06,25.7-0.16,29.57" transform="matrix(1,0,0,1,96,-4)" class="stroke_order_diagram--existing_path"></path><path id="kvg:06534-s2" kvg:type="㇔" d="M54,26.75c2.75-0.25,24.25-3,25.75-3s3.52,0,4.75,0.25" transform="matrix(1,0,0,1,96,-4)" class="stroke_order_diagram--current_path"></path><path id="pathSk93xdzq012b" kvg:type="㇔" d="M54,26.75c2.75-0.25,24.25-3,25.75-3s3.52,0,4.75,0.25" transform="matrix(1,0,0,1,96,-4)" class="stroke_order_diagram--current_path"></path><circle cx="54" cy="26.75" r="8" class="stroke_order_diagram--path_start" transform="matrix(1,0,0,1,96,-4)"></circle><line x1="250" x2="250" y1="1" y2="99" class="stroke_order_diagram--guide_line"></line><line x1="299" x2="299" y1="1" y2="99" class="stroke_order_diagram--bounding_box"></line><path id="pathSk93xdzq012e" kvg:type="㇑" d="M52.28,10.88c0.48,0.31,1.5,2.32,1.6,2.93c0.1,0.62-0.06,25.7-0.16,29.57" transform="matrix(1,0,0,1,196,-4)" class="stroke_order_diagram--existing_path"></path><path id="pathSk93xdzq012f" kvg:type="㇔" d="M54,26.75c2.75-0.25,24.25-3,25.75-3s3.52,0,4.75,0.25" transform="matrix(1,0,0,1,196,-4)" class="stroke_order_diagram--existing_path"></path><path id="kvg:06534-s3" kvg:type="㇇" d="M33.5,45.23c2,0.38,2.25,0.96,6.25,0.38s29.25-4.06,32-4.64s4.88,2.18,3.75,4.22C62.25,69,40.5,89.75,16,97.5" transform="matrix(1,0,0,1,196,-4)" class="stroke_order_diagram--current_path"></path><path id="pathSk93xdzq012h" kvg:type="㇇" d="M33.5,45.23c2,0.38,2.25,0.96,6.25,0.38s29.25-4.06,32-4.64s4.88,2.18,3.75,4.22C62.25,69,40.5,89.75,16,97.5" transform="matrix(1,0,0,1,196,-4)" class="stroke_order_diagram--current_path"></path><circle cx="33.5" cy="45.23" r="8" class="stroke_order_diagram--path_start" transform="matrix(1,0,0,1,196,-4)"></circle><line x1="350" x2="350" y1="1" y2="99" class="stroke_order_diagram--guide_line"></line><line x1="399" x2="399" y1="1" y2="99" class="stroke_order_diagram--bounding_box"></line><path id="pathSk93xdzq012k" kvg:type="㇑" d="M52.28,10.88c0.48,0.31,1.5,2.32,1.6,2.93c0.1,0.62-0.06,25.7-0.16,29.57" transform="matrix(1,0,0,1,296,-4)" class="stroke_order_diagram--existing_path"></path><path id="pathSk93xdzq012l" kvg:type="㇔" d="M54,26.75c2.75-0.25,24.25-3,25.75-3s3.52,0,4.75,0.25" transform="matrix(1,0,0,1,296,-4)" class="stroke_order_diagram--existing_path"></path><path id="pathSk93xdzq012m" kvg:type="㇇" d="M33.5,45.23c2,0.38,2.25,0.96,6.25,0.38s29.25-4.06,32-4.64s4.88,2.18,3.75,4.22C62.25,69,40.5,89.75,16,97.5" transform="matrix(1,0,0,1,296,-4)" class="stroke_order_diagram--existing_path"></path><path id="kvg:06534-s4" kvg:type="㇏" d="M34.5,52.7c5.27,1.03,31.04,28.63,49.4,39.94c2.86,1.76,4.94,2.93,7.6,3.52" transform="matrix(1,0,0,1,296,-4)" class="stroke_order_diagram--current_path"></path><path id="pathSk93xdzq012o" kvg:type="㇏" d="M34.5,52.7c5.27,1.03,31.04,28.63,49.4,39.94c2.86,1.76,4.94,2.93,7.6,3.52" transform="matrix(1,0,0,1,296,-4)" class="stroke_order_diagram--current_path"></path><circle cx="34.5" cy="52.7" r="8" class="stroke_order_diagram--path_start" transform="matrix(1,0,0,1,296,-4)"></circle></svg>