<?xml version="1.0" encoding="UTF-8"?>
<!DOCTYPE svg PUBLIC "-//W3C//DTD SVG 1.0//EN" "http://www.w3.org/TR/2001/REC-SVG-20010904/DTD/svg10.dtd" [
<!ATTLIST g
xmlns:kvg CDATA #FIXED "http://kanjivg.tagaini.net"
kvg:element CDATA #IMPLIED
kvg:variant CDATA #IMPLIED
kvg:partial CDATA #IMPLIED
kvg:original CDATA #IMPLIED
kvg:part CDATA #IMPLIED
kvg:number CDATA #IMPLIED
kvg:tradForm CDATA #IMPLIED
kvg:radicalForm CDATA #IMPLIED
kvg:position CDATA #IMPLIED
kvg:radical CDATA #IMPLIED
kvg:phon CDATA #IMPLIED >
<!ATTLIST path
xmlns:kvg CDATA #FIXED "http://kanjivg.tagaini.net"
kvg:type CDATA #IMPLIED >
]><svg style="width: 400px; height: 100px;" xmlns="http://www.w3.org/2000/svg" xmlns:xlink="http://www.w3.org/1999/xlink" width="400px" height="100px"><style>
.stroke_order_diagram--outer_container {
  width: 100%;
  overflow-x: auto;
  overflow-y: hidden;
}

.stroke_order_diagram--guide_line {
  fill: none;
  stroke: #ddd;
  stroke-width: 3;
  stroke-linecap: square;
  stroke-linejoin: square;
  stroke-dasharray:8, 8;
}

.stroke_order_diagram--bounding_box {
  fill: none;
  stroke: #ddd;
  stroke-width: 4;
  stroke-linecap: square;
  stroke-linejoin: square;
}

.stroke_order_diagram--current_path {
  fill: none;
  stroke: #000;
  stroke-width: 6;
  stroke-linecap: round;
  stroke-linejoin: round;
}

.stroke_order_diagram--existing_path {
  fill: none;
  stroke: #aaa;
  stroke-width: 6;
  stroke-linecap: round;
  stroke-linejoin:round;
}

.stroke_order_diagram--path_start {
  fill: rgba(255, 0, 0, 0.7);
  stroke:none
}</style><desc>Created with Snap</desc><defs></defs><line x1="1" x2="399" y1="1" y2="1" class="stroke_order_diagram--bounding_box"></line><line x1="1" x2="1" y1="1" y2="99" class="stroke_order_diagram--bounding_box"></line><line x1="1" x2="399" y1="99" y2="99" class="stroke_order_diagram--bounding_box"></line><line x1="0" x2="400" y1="50" y2="50" class="stroke_order_diagram--guide_line"></line><line x1="50" x2="50" y1="1" y2="99" class="stroke_order_diagram--guide_line"></line><line x1="99" x2="99" y1="1" y2="99" class="stroke_order_diagram--bounding_box"></line><path id="kvg:06587-s1" kvg:type="㇑a" d="M51.62,12.75c1.06,1.06,1.73,2.5,1.73,4.01c0,4.32-0.11,7.61-0.11,12.15" transform="matrix(1,0,0,1,-4,-4)" class="stroke_order_diagram--current_path"></path><path id="pathSk940yk7k132" kvg:type="㇑a" d="M51.62,12.75c1.06,1.06,1.73,2.5,1.73,4.01c0,4.32-0.11,7.61-0.11,12.15" transform="matrix(1,0,0,1,-4,-4)" class="stroke_order_diagram--current_path"></path><circle cx="51.62" cy="12.75" r="8" class="stroke_order_diagram--path_start" transform="matrix(1,0,0,1,-4,-4)"></circle><line x1="150" x2="150" y1="1" y2="99" class="stroke_order_diagram--guide_line"></line><line x1="199" x2="199" y1="1" y2="99" class="stroke_order_diagram--bounding_box"></line><path id="pathSk940yk7k135" kvg:type="㇑a" d="M51.62,12.75c1.06,1.06,1.73,2.5,1.73,4.01c0,4.32-0.11,7.61-0.11,12.15" transform="matrix(1,0,0,1,96,-4)" class="stroke_order_diagram--existing_path"></path><path id="kvg:06587-s2" kvg:type="㇐" d="M16.88,32.72c2.7,0.66,5.71,0.86,8.6,0.54c15.77-1.76,40.15-5.01,56.42-6.1c3.67-0.25,6.15,0.05,8.88,0.69" transform="matrix(1,0,0,1,96,-4)" class="stroke_order_diagram--current_path"></path><path id="pathSk940yk7k137" kvg:type="㇐" d="M16.88,32.72c2.7,0.66,5.71,0.86,8.6,0.54c15.77-1.76,40.15-5.01,56.42-6.1c3.67-0.25,6.15,0.05,8.88,0.69" transform="matrix(1,0,0,1,96,-4)" class="stroke_order_diagram--current_path"></path><circle cx="16.88" cy="32.72" r="8" class="stroke_order_diagram--path_start" transform="matrix(1,0,0,1,96,-4)"></circle><line x1="250" x2="250" y1="1" y2="99" class="stroke_order_diagram--guide_line"></line><line x1="299" x2="299" y1="1" y2="99" class="stroke_order_diagram--bounding_box"></line><path id="pathSk940yk7k13a" kvg:type="㇑a" d="M51.62,12.75c1.06,1.06,1.73,2.5,1.73,4.01c0,4.32-0.11,7.61-0.11,12.15" transform="matrix(1,0,0,1,196,-4)" class="stroke_order_diagram--existing_path"></path><path id="pathSk940yk7k13b" kvg:type="㇐" d="M16.88,32.72c2.7,0.66,5.71,0.86,8.6,0.54c15.77-1.76,40.15-5.01,56.42-6.1c3.67-0.25,6.15,0.05,8.88,0.69" transform="matrix(1,0,0,1,196,-4)" class="stroke_order_diagram--existing_path"></path><path id="kvg:06587-s3" kvg:type="㇒" d="M69.89,32.5c0.36,2.12,0.06,3.82-0.93,6.27C61.62,57,43.75,80.25,18.75,93.75" transform="matrix(1,0,0,1,196,-4)" class="stroke_order_diagram--current_path"></path><path id="pathSk940yk7k13d" kvg:type="㇒" d="M69.89,32.5c0.36,2.12,0.06,3.82-0.93,6.27C61.62,57,43.75,80.25,18.75,93.75" transform="matrix(1,0,0,1,196,-4)" class="stroke_order_diagram--current_path"></path><circle cx="69.89" cy="32.5" r="8" class="stroke_order_diagram--path_start" transform="matrix(1,0,0,1,196,-4)"></circle><line x1="350" x2="350" y1="1" y2="99" class="stroke_order_diagram--guide_line"></line><line x1="399" x2="399" y1="1" y2="99" class="stroke_order_diagram--bounding_box"></line><path id="pathSk940yk7k13g" kvg:type="㇑a" d="M51.62,12.75c1.06,1.06,1.73,2.5,1.73,4.01c0,4.32-0.11,7.61-0.11,12.15" transform="matrix(1,0,0,1,296,-4)" class="stroke_order_diagram--existing_path"></path><path id="pathSk940yk7k13h" kvg:type="㇐" d="M16.88,32.72c2.7,0.66,5.71,0.86,8.6,0.54c15.77-1.76,40.15-5.01,56.42-6.1c3.67-0.25,6.15,0.05,8.88,0.69" transform="matrix(1,0,0,1,296,-4)" class="stroke_order_diagram--existing_path"></path><path id="pathSk940yk7k13i" kvg:type="㇒" d="M69.89,32.5c0.36,2.12,0.06,3.82-0.93,6.27C61.62,57,43.75,80.25,18.75,93.75" transform="matrix(1,0,0,1,296,-4)" class="stroke_order_diagram--existing_path"></path><path id="kvg:06587-s4" kvg:type="㇏" d="M31,43.75c6,0,27.27,26.79,49.26,42.1c4.13,2.87,7.49,4.77,11.49,6.04" transform="matrix(1,0,0,1,296,-4)" class="stroke_order_diagram--current_path"></path><path id="pathSk940yk7k13k" kvg:type="㇏" d="M31,43.75c6,0,27.27,26.79,49.26,42.1c4.13,2.87,7.49,4.77,11.49,6.04" transform="matrix(1,0,0,1,296,-4)" class="stroke_order_diagram--current_path"></path><circle cx="31" cy="43.75" r="8" class="stroke_order_diagram--path_start" transform="matrix(1,0,0,1,296,-4)"></circle></svg>