<?xml version="1.0" encoding="UTF-8"?>
<!DOCTYPE svg PUBLIC "-//W3C//DTD SVG 1.0//EN" "http://www.w3.org/TR/2001/REC-SVG-20010904/DTD/svg10.dtd" [
<!ATTLIST g
xmlns:kvg CDATA #FIXED "http://kanjivg.tagaini.net"
kvg:element CDATA #IMPLIED
kvg:variant CDATA #IMPLIED
kvg:partial CDATA #IMPLIED
kvg:original CDATA #IMPLIED
kvg:part CDATA #IMPLIED
kvg:number CDATA #IMPLIED
kvg:tradForm CDATA #IMPLIED
kvg:radicalForm CDATA #IMPLIED
kvg:position CDATA #IMPLIED
kvg:radical CDATA #IMPLIED
kvg:phon CDATA #IMPLIED >
<!ATTLIST path
xmlns:kvg CDATA #FIXED "http://kanjivg.tagaini.net"
kvg:type CDATA #IMPLIED >
]><svg style="width: 400px; height: 100px;" xmlns="http://www.w3.org/2000/svg" xmlns:xlink="http://www.w3.org/1999/xlink"><style>
.stroke_order_diagram--outer_container {
  width: 100%;
  overflow-x: auto;
  overflow-y: hidden;
}

.stroke_order_diagram--guide_line {
  fill: none;
  stroke: #ddd;
  stroke-width: 3;
  stroke-linecap: square;
  stroke-linejoin: square;
  stroke-dasharray:8, 8;
}

.stroke_order_diagram--bounding_box {
  fill: none;
  stroke: #ddd;
  stroke-width: 4;
  stroke-linecap: square;
  stroke-linejoin: square;
}

.stroke_order_diagram--current_path {
  fill: none;
  stroke: #000;
  stroke-width: 6;
  stroke-linecap: round;
  stroke-linejoin: round;
}

.stroke_order_diagram--existing_path {
  fill: none;
  stroke: #aaa;
  stroke-width: 6;
  stroke-linecap: round;
  stroke-linejoin:round;
}

.stroke_order_diagram--path_start {
  fill: rgba(255, 0, 0, 0.7);
  stroke:none
}</style><desc>Created with Snap</desc><defs></defs><line x1="1" x2="399" y1="1" y2="1" class="stroke_order_diagram--bounding_box"></line><line x1="1" x2="1" y1="1" y2="99" class="stroke_order_diagram--bounding_box"></line><line x1="1" x2="399" y1="99" y2="99" class="stroke_order_diagram--bounding_box"></line><line x1="0" x2="400" y1="50" y2="50" class="stroke_order_diagram--guide_line"></line><line x1="50" x2="50" y1="1" y2="99" class="stroke_order_diagram--guide_line"></line><line x1="99" x2="99" y1="1" y2="99" class="stroke_order_diagram--bounding_box"></line><path id="kvg:065a4-s1" kvg:type="㇒" d="M65.51,10.5c0,1.25-1.14,2.34-1.95,2.96C57.75,18,45.12,25.38,30.5,30.75" transform="matrix(1,0,0,1,-4,-4)" class="stroke_order_diagram--current_path"></path><path id="pathSk93xdzq014u" kvg:type="㇒" d="M65.51,10.5c0,1.25-1.14,2.34-1.95,2.96C57.75,18,45.12,25.38,30.5,30.75" transform="matrix(1,0,0,1,-4,-4)" class="stroke_order_diagram--current_path"></path><circle cx="65.51" cy="10.5" r="8" class="stroke_order_diagram--path_start" transform="matrix(1,0,0,1,-4,-4)"></circle><line x1="150" x2="150" y1="1" y2="99" class="stroke_order_diagram--guide_line"></line><line x1="199" x2="199" y1="1" y2="99" class="stroke_order_diagram--bounding_box"></line><path id="pathSk93xdzq014x" kvg:type="㇒" d="M65.51,10.5c0,1.25-1.14,2.34-1.95,2.96C57.75,18,45.12,25.38,30.5,30.75" transform="matrix(1,0,0,1,96,-4)" class="stroke_order_diagram--existing_path"></path><path id="kvg:065a4-s2" kvg:type="㇒" d="M27.43,30.38c1.22,1.22,1.51,2.88,1.52,4.9c0.18,28.1-2.2,41.6-12.39,54.83" transform="matrix(1,0,0,1,96,-4)" class="stroke_order_diagram--current_path"></path><path id="pathSk93xdzq014z" kvg:type="㇒" d="M27.43,30.38c1.22,1.22,1.51,2.88,1.52,4.9c0.18,28.1-2.2,41.6-12.39,54.83" transform="matrix(1,0,0,1,96,-4)" class="stroke_order_diagram--current_path"></path><circle cx="27.43" cy="30.38" r="8" class="stroke_order_diagram--path_start" transform="matrix(1,0,0,1,96,-4)"></circle><line x1="250" x2="250" y1="1" y2="99" class="stroke_order_diagram--guide_line"></line><line x1="299" x2="299" y1="1" y2="99" class="stroke_order_diagram--bounding_box"></line><path id="pathSk93xdzq0152" kvg:type="㇒" d="M65.51,10.5c0,1.25-1.14,2.34-1.95,2.96C57.75,18,45.12,25.38,30.5,30.75" transform="matrix(1,0,0,1,196,-4)" class="stroke_order_diagram--existing_path"></path><path id="pathSk93xdzq0153" kvg:type="㇒" d="M27.43,30.38c1.22,1.22,1.51,2.88,1.52,4.9c0.18,28.1-2.2,41.6-12.39,54.83" transform="matrix(1,0,0,1,196,-4)" class="stroke_order_diagram--existing_path"></path><path id="kvg:065a4-s3" kvg:type="㇐" d="M32.25,44.19c2.79,0.87,6.84,0.13,9.66-0.3c10.42-1.56,28.97-4.39,39.59-5.48c3.06-0.31,6.43-0.64,9.5-0.07" transform="matrix(1,0,0,1,196,-4)" class="stroke_order_diagram--current_path"></path><path id="pathSk93xdzq0155" kvg:type="㇐" d="M32.25,44.19c2.79,0.87,6.84,0.13,9.66-0.3c10.42-1.56,28.97-4.39,39.59-5.48c3.06-0.31,6.43-0.64,9.5-0.07" transform="matrix(1,0,0,1,196,-4)" class="stroke_order_diagram--current_path"></path><circle cx="32.25" cy="44.19" r="8" class="stroke_order_diagram--path_start" transform="matrix(1,0,0,1,196,-4)"></circle><line x1="350" x2="350" y1="1" y2="99" class="stroke_order_diagram--guide_line"></line><line x1="399" x2="399" y1="1" y2="99" class="stroke_order_diagram--bounding_box"></line><path id="pathSk93xdzq0158" kvg:type="㇒" d="M65.51,10.5c0,1.25-1.14,2.34-1.95,2.96C57.75,18,45.12,25.38,30.5,30.75" transform="matrix(1,0,0,1,296,-4)" class="stroke_order_diagram--existing_path"></path><path id="pathSk93xdzq0159" kvg:type="㇒" d="M27.43,30.38c1.22,1.22,1.51,2.88,1.52,4.9c0.18,28.1-2.2,41.6-12.39,54.83" transform="matrix(1,0,0,1,296,-4)" class="stroke_order_diagram--existing_path"></path><path id="pathSk93xdzq015a" kvg:type="㇐" d="M32.25,44.19c2.79,0.87,6.84,0.13,9.66-0.3c10.42-1.56,28.97-4.39,39.59-5.48c3.06-0.31,6.43-0.64,9.5-0.07" transform="matrix(1,0,0,1,296,-4)" class="stroke_order_diagram--existing_path"></path><path id="kvg:065a4-s4" kvg:type="㇑" d="M60.87,44.8c1.04,1.04,1.57,2.33,1.57,4.26c0,6.42-0.05,28.89-0.07,44.56c0,2.8,0,5.39,0,7.62" transform="matrix(1,0,0,1,296,-4)" class="stroke_order_diagram--current_path"></path><path id="pathSk93xdzq015c" kvg:type="㇑" d="M60.87,44.8c1.04,1.04,1.57,2.33,1.57,4.26c0,6.42-0.05,28.89-0.07,44.56c0,2.8,0,5.39,0,7.62" transform="matrix(1,0,0,1,296,-4)" class="stroke_order_diagram--current_path"></path><circle cx="60.87" cy="44.8" r="8" class="stroke_order_diagram--path_start" transform="matrix(1,0,0,1,296,-4)"></circle></svg>