<?xml version="1.0" encoding="UTF-8"?>
<!DOCTYPE svg PUBLIC "-//W3C//DTD SVG 1.0//EN" "http://www.w3.org/TR/2001/REC-SVG-20010904/DTD/svg10.dtd" [
<!ATTLIST g
xmlns:kvg CDATA #FIXED "http://kanjivg.tagaini.net"
kvg:element CDATA #IMPLIED
kvg:variant CDATA #IMPLIED
kvg:partial CDATA #IMPLIED
kvg:original CDATA #IMPLIED
kvg:part CDATA #IMPLIED
kvg:number CDATA #IMPLIED
kvg:tradForm CDATA #IMPLIED
kvg:radicalForm CDATA #IMPLIED
kvg:position CDATA #IMPLIED
kvg:radical CDATA #IMPLIED
kvg:phon CDATA #IMPLIED >
<!ATTLIST path
xmlns:kvg CDATA #FIXED "http://kanjivg.tagaini.net"
kvg:type CDATA #IMPLIED >
]><svg style="width: 400px; height: 100px;" xmlns="http://www.w3.org/2000/svg" xmlns:xlink="http://www.w3.org/1999/xlink" width="400px" height="100px"><style>
.stroke_order_diagram--outer_container {
  width: 100%;
  overflow-x: auto;
  overflow-y: hidden;
}

.stroke_order_diagram--guide_line {
  fill: none;
  stroke: #ddd;
  stroke-width: 3;
  stroke-linecap: square;
  stroke-linejoin: square;
  stroke-dasharray:8, 8;
}

.stroke_order_diagram--bounding_box {
  fill: none;
  stroke: #ddd;
  stroke-width: 4;
  stroke-linecap: square;
  stroke-linejoin: square;
}

.stroke_order_diagram--current_path {
  fill: none;
  stroke: #000;
  stroke-width: 6;
  stroke-linecap: round;
  stroke-linejoin: round;
}

.stroke_order_diagram--existing_path {
  fill: none;
  stroke: #aaa;
  stroke-width: 6;
  stroke-linecap: round;
  stroke-linejoin:round;
}

.stroke_order_diagram--path_start {
  fill: rgba(255, 0, 0, 0.7);
  stroke:none
}</style><desc>Created with Snap</desc><defs></defs><line x1="1" x2="399" y1="1" y2="1" class="stroke_order_diagram--bounding_box"></line><line x1="1" x2="1" y1="1" y2="99" class="stroke_order_diagram--bounding_box"></line><line x1="1" x2="399" y1="99" y2="99" class="stroke_order_diagram--bounding_box"></line><line x1="0" x2="400" y1="50" y2="50" class="stroke_order_diagram--guide_line"></line><line x1="50" x2="50" y1="1" y2="99" class="stroke_order_diagram--guide_line"></line><line x1="99" x2="99" y1="1" y2="99" class="stroke_order_diagram--bounding_box"></line><path id="kvg:065e0-s1" kvg:type="㇐" d="M26.75,18.9c1.44,0.36,4.1,0.49,5.54,0.36c7.54-0.67,37.51-3.18,48.15-3.51c2.41-0.07,3.85,0.17,5.06,0.36" transform="matrix(1,0,0,1,-4,-4)" class="stroke_order_diagram--current_path"></path><path id="pathSk940yk7k16m" kvg:type="㇐" d="M26.75,18.9c1.44,0.36,4.1,0.49,5.54,0.36c7.54-0.67,37.51-3.18,48.15-3.51c2.41-0.07,3.85,0.17,5.06,0.36" transform="matrix(1,0,0,1,-4,-4)" class="stroke_order_diagram--current_path"></path><circle cx="26.75" cy="18.9" r="8" class="stroke_order_diagram--path_start" transform="matrix(1,0,0,1,-4,-4)"></circle><line x1="150" x2="150" y1="1" y2="99" class="stroke_order_diagram--guide_line"></line><line x1="199" x2="199" y1="1" y2="99" class="stroke_order_diagram--bounding_box"></line><path id="pathSk940yk7k16p" kvg:type="㇐" d="M26.75,18.9c1.44,0.36,4.1,0.49,5.54,0.36c7.54-0.67,37.51-3.18,48.15-3.51c2.41-0.07,3.85,0.17,5.06,0.36" transform="matrix(1,0,0,1,96,-4)" class="stroke_order_diagram--existing_path"></path><path id="kvg:065e0-s2" kvg:type="㇐" d="M15.82,47.38c2.03,0.37,3.23,0.94,6.77,0.74c15.07-0.87,53.86-4.18,68.39-4.43c2.12-0.04,3.44,0.31,5.1,0.69" transform="matrix(1,0,0,1,96,-4)" class="stroke_order_diagram--current_path"></path><path id="pathSk940yk7k16r" kvg:type="㇐" d="M15.82,47.38c2.03,0.37,3.23,0.94,6.77,0.74c15.07-0.87,53.86-4.18,68.39-4.43c2.12-0.04,3.44,0.31,5.1,0.69" transform="matrix(1,0,0,1,96,-4)" class="stroke_order_diagram--current_path"></path><circle cx="15.82" cy="47.38" r="8" class="stroke_order_diagram--path_start" transform="matrix(1,0,0,1,96,-4)"></circle><line x1="250" x2="250" y1="1" y2="99" class="stroke_order_diagram--guide_line"></line><line x1="299" x2="299" y1="1" y2="99" class="stroke_order_diagram--bounding_box"></line><path id="pathSk940yk7k16u" kvg:type="㇐" d="M26.75,18.9c1.44,0.36,4.1,0.49,5.54,0.36c7.54-0.67,37.51-3.18,48.15-3.51c2.41-0.07,3.85,0.17,5.06,0.36" transform="matrix(1,0,0,1,196,-4)" class="stroke_order_diagram--existing_path"></path><path id="pathSk940yk7k16v" kvg:type="㇐" d="M15.82,47.38c2.03,0.37,3.23,0.94,6.77,0.74c15.07-0.87,53.86-4.18,68.39-4.43c2.12-0.04,3.44,0.31,5.1,0.69" transform="matrix(1,0,0,1,196,-4)" class="stroke_order_diagram--existing_path"></path><path id="kvg:065e0-s3" kvg:type="㇒" d="M53.88,20.68c0.62,1.05,0.9,3.05,0.77,5.62c-1.16,23.43-8.2,56.06-41.9,69.21" transform="matrix(1,0,0,1,196,-4)" class="stroke_order_diagram--current_path"></path><path id="pathSk940yk7k16x" kvg:type="㇒" d="M53.88,20.68c0.62,1.05,0.9,3.05,0.77,5.62c-1.16,23.43-8.2,56.06-41.9,69.21" transform="matrix(1,0,0,1,196,-4)" class="stroke_order_diagram--current_path"></path><circle cx="53.88" cy="20.68" r="8" class="stroke_order_diagram--path_start" transform="matrix(1,0,0,1,196,-4)"></circle><line x1="350" x2="350" y1="1" y2="99" class="stroke_order_diagram--guide_line"></line><line x1="399" x2="399" y1="1" y2="99" class="stroke_order_diagram--bounding_box"></line><path id="pathSk940yk7k170" kvg:type="㇐" d="M26.75,18.9c1.44,0.36,4.1,0.49,5.54,0.36c7.54-0.67,37.51-3.18,48.15-3.51c2.41-0.07,3.85,0.17,5.06,0.36" transform="matrix(1,0,0,1,296,-4)" class="stroke_order_diagram--existing_path"></path><path id="pathSk940yk7k171" kvg:type="㇐" d="M15.82,47.38c2.03,0.37,3.23,0.94,6.77,0.74c15.07-0.87,53.86-4.18,68.39-4.43c2.12-0.04,3.44,0.31,5.1,0.69" transform="matrix(1,0,0,1,296,-4)" class="stroke_order_diagram--existing_path"></path><path id="pathSk940yk7k172" kvg:type="㇒" d="M53.88,20.68c0.62,1.05,0.9,3.05,0.77,5.62c-1.16,23.43-8.2,56.06-41.9,69.21" transform="matrix(1,0,0,1,296,-4)" class="stroke_order_diagram--existing_path"></path><path id="kvg:065e0-s4" kvg:type="㇟" d="M55.49,52.87c0.74,1.19,1.33,2.59,1.38,4.43c0.2,8.19-0.07,21.14-0.07,26.7c0,10.75,3.46,12.53,18.78,12.53c12.93,0,18.93-1.78,18.93-12.12" transform="matrix(1,0,0,1,296,-4)" class="stroke_order_diagram--current_path"></path><path id="pathSk940yk7k174" kvg:type="㇟" d="M55.49,52.87c0.74,1.19,1.33,2.59,1.38,4.43c0.2,8.19-0.07,21.14-0.07,26.7c0,10.75,3.46,12.53,18.78,12.53c12.93,0,18.93-1.78,18.93-12.12" transform="matrix(1,0,0,1,296,-4)" class="stroke_order_diagram--current_path"></path><circle cx="55.49" cy="52.87" r="8" class="stroke_order_diagram--path_start" transform="matrix(1,0,0,1,296,-4)"></circle></svg>