<?xml version="1.0" encoding="UTF-8"?>
<!DOCTYPE svg PUBLIC "-//W3C//DTD SVG 1.0//EN" "http://www.w3.org/TR/2001/REC-SVG-20010904/DTD/svg10.dtd" [
<!ATTLIST g
xmlns:kvg CDATA #FIXED "http://kanjivg.tagaini.net"
kvg:element CDATA #IMPLIED
kvg:variant CDATA #IMPLIED
kvg:partial CDATA #IMPLIED
kvg:original CDATA #IMPLIED
kvg:part CDATA #IMPLIED
kvg:number CDATA #IMPLIED
kvg:tradForm CDATA #IMPLIED
kvg:radicalForm CDATA #IMPLIED
kvg:position CDATA #IMPLIED
kvg:radical CDATA #IMPLIED
kvg:phon CDATA #IMPLIED >
<!ATTLIST path
xmlns:kvg CDATA #FIXED "http://kanjivg.tagaini.net"
kvg:type CDATA #IMPLIED >
]><svg style="width: 400px; height: 100px;" xmlns="http://www.w3.org/2000/svg" xmlns:xlink="http://www.w3.org/1999/xlink"><style>
.stroke_order_diagram--outer_container {
  width: 100%;
  overflow-x: auto;
  overflow-y: hidden;
}

.stroke_order_diagram--guide_line {
  fill: none;
  stroke: #ddd;
  stroke-width: 3;
  stroke-linecap: square;
  stroke-linejoin: square;
  stroke-dasharray:8, 8;
}

.stroke_order_diagram--bounding_box {
  fill: none;
  stroke: #ddd;
  stroke-width: 4;
  stroke-linecap: square;
  stroke-linejoin: square;
}

.stroke_order_diagram--current_path {
  fill: none;
  stroke: #000;
  stroke-width: 6;
  stroke-linecap: round;
  stroke-linejoin: round;
}

.stroke_order_diagram--existing_path {
  fill: none;
  stroke: #aaa;
  stroke-width: 6;
  stroke-linecap: round;
  stroke-linejoin:round;
}

.stroke_order_diagram--path_start {
  fill: rgba(255, 0, 0, 0.7);
  stroke:none
}</style><desc>Created with Snap</desc><defs></defs><line x1="1" x2="399" y1="1" y2="1" class="stroke_order_diagram--bounding_box"></line><line x1="1" x2="1" y1="1" y2="99" class="stroke_order_diagram--bounding_box"></line><line x1="1" x2="399" y1="99" y2="99" class="stroke_order_diagram--bounding_box"></line><line x1="0" x2="400" y1="50" y2="50" class="stroke_order_diagram--guide_line"></line><line x1="50" x2="50" y1="1" y2="99" class="stroke_order_diagram--guide_line"></line><line x1="99" x2="99" y1="1" y2="99" class="stroke_order_diagram--bounding_box"></line><path id="kvg:066f0-s1" kvg:type="㇑" d="M21.44,30.04c0.44,0.82,0.45,1.39,0.7,2.43c2,8.53,2.87,36.08,4.11,51.99" transform="matrix(1,0,0,1,-4,-4)" class="stroke_order_diagram--current_path"></path><path id="pathSk93xdzq018e" kvg:type="㇑" d="M21.44,30.04c0.44,0.82,0.45,1.39,0.7,2.43c2,8.53,2.87,36.08,4.11,51.99" transform="matrix(1,0,0,1,-4,-4)" class="stroke_order_diagram--current_path"></path><circle cx="21.44" cy="30.04" r="8" class="stroke_order_diagram--path_start" transform="matrix(1,0,0,1,-4,-4)"></circle><line x1="150" x2="150" y1="1" y2="99" class="stroke_order_diagram--guide_line"></line><line x1="199" x2="199" y1="1" y2="99" class="stroke_order_diagram--bounding_box"></line><path id="pathSk93xdzq018h" kvg:type="㇑" d="M21.44,30.04c0.44,0.82,0.45,1.39,0.7,2.43c2,8.53,2.87,36.08,4.11,51.99" transform="matrix(1,0,0,1,96,-4)" class="stroke_order_diagram--existing_path"></path><path id="kvg:066f0-s2" kvg:type="㇕" d="M24,32.69c17.25-1.69,42.25-3.44,57.49-4.1c4.29-0.18,6.41,1.68,6.19,4.03c-0.8,8.6-4.44,35.13-8.21,49.39" transform="matrix(1,0,0,1,96,-4)" class="stroke_order_diagram--current_path"></path><path id="pathSk93xdzq018j" kvg:type="㇕" d="M24,32.69c17.25-1.69,42.25-3.44,57.49-4.1c4.29-0.18,6.41,1.68,6.19,4.03c-0.8,8.6-4.44,35.13-8.21,49.39" transform="matrix(1,0,0,1,96,-4)" class="stroke_order_diagram--current_path"></path><circle cx="24" cy="32.69" r="8" class="stroke_order_diagram--path_start" transform="matrix(1,0,0,1,96,-4)"></circle><line x1="250" x2="250" y1="1" y2="99" class="stroke_order_diagram--guide_line"></line><line x1="299" x2="299" y1="1" y2="99" class="stroke_order_diagram--bounding_box"></line><path id="pathSk93xdzq018m" kvg:type="㇑" d="M21.44,30.04c0.44,0.82,0.45,1.39,0.7,2.43c2,8.53,2.87,36.08,4.11,51.99" transform="matrix(1,0,0,1,196,-4)" class="stroke_order_diagram--existing_path"></path><path id="pathSk93xdzq018n" kvg:type="㇕" d="M24,32.69c17.25-1.69,42.25-3.44,57.49-4.1c4.29-0.18,6.41,1.68,6.19,4.03c-0.8,8.6-4.44,35.13-8.21,49.39" transform="matrix(1,0,0,1,196,-4)" class="stroke_order_diagram--existing_path"></path><path id="kvg:066f0-s3" kvg:type="㇐" d="M24.89,55.75c6.11-0.75,31.86-2.5,46.38-3.6c3.09-0.24,5.27,0.33,6.05,0.27" transform="matrix(1,0,0,1,196,-4)" class="stroke_order_diagram--current_path"></path><path id="pathSk93xdzq018p" kvg:type="㇐" d="M24.89,55.75c6.11-0.75,31.86-2.5,46.38-3.6c3.09-0.24,5.27,0.33,6.05,0.27" transform="matrix(1,0,0,1,196,-4)" class="stroke_order_diagram--current_path"></path><circle cx="24.89" cy="55.75" r="8" class="stroke_order_diagram--path_start" transform="matrix(1,0,0,1,196,-4)"></circle><line x1="350" x2="350" y1="1" y2="99" class="stroke_order_diagram--guide_line"></line><line x1="399" x2="399" y1="1" y2="99" class="stroke_order_diagram--bounding_box"></line><path id="pathSk93xdzq018s" kvg:type="㇑" d="M21.44,30.04c0.44,0.82,0.45,1.39,0.7,2.43c2,8.53,2.87,36.08,4.11,51.99" transform="matrix(1,0,0,1,296,-4)" class="stroke_order_diagram--existing_path"></path><path id="pathSk93xdzq018t" kvg:type="㇕" d="M24,32.69c17.25-1.69,42.25-3.44,57.49-4.1c4.29-0.18,6.41,1.68,6.19,4.03c-0.8,8.6-4.44,35.13-8.21,49.39" transform="matrix(1,0,0,1,296,-4)" class="stroke_order_diagram--existing_path"></path><path id="pathSk93xdzq018u" kvg:type="㇐" d="M24.89,55.75c6.11-0.75,31.86-2.5,46.38-3.6c3.09-0.24,5.27,0.33,6.05,0.27" transform="matrix(1,0,0,1,296,-4)" class="stroke_order_diagram--existing_path"></path><path id="kvg:066f0-s4" kvg:type="㇐" d="M26.54,81.14C39,80.75,63.75,79,79.48,78.41" transform="matrix(1,0,0,1,296,-4)" class="stroke_order_diagram--current_path"></path><path id="pathSk93xdzq018w" kvg:type="㇐" d="M26.54,81.14C39,80.75,63.75,79,79.48,78.41" transform="matrix(1,0,0,1,296,-4)" class="stroke_order_diagram--current_path"></path><circle cx="26.54" cy="81.14" r="8" class="stroke_order_diagram--path_start" transform="matrix(1,0,0,1,296,-4)"></circle></svg>