<?xml version="1.0" encoding="UTF-8"?>
<!DOCTYPE svg PUBLIC "-//W3C//DTD SVG 1.0//EN" "http://www.w3.org/TR/2001/REC-SVG-20010904/DTD/svg10.dtd" [
<!ATTLIST g
xmlns:kvg CDATA #FIXED "http://kanjivg.tagaini.net"
kvg:element CDATA #IMPLIED
kvg:variant CDATA #IMPLIED
kvg:partial CDATA #IMPLIED
kvg:original CDATA #IMPLIED
kvg:part CDATA #IMPLIED
kvg:number CDATA #IMPLIED
kvg:tradForm CDATA #IMPLIED
kvg:radicalForm CDATA #IMPLIED
kvg:position CDATA #IMPLIED
kvg:radical CDATA #IMPLIED
kvg:phon CDATA #IMPLIED >
<!ATTLIST path
xmlns:kvg CDATA #FIXED "http://kanjivg.tagaini.net"
kvg:type CDATA #IMPLIED >
]><svg style="width: 400px; height: 100px;" xmlns="http://www.w3.org/2000/svg" xmlns:xlink="http://www.w3.org/1999/xlink" width="400px" height="100px"><style>
.stroke_order_diagram--outer_container {
  width: 100%;
  overflow-x: auto;
  overflow-y: hidden;
}

.stroke_order_diagram--guide_line {
  fill: none;
  stroke: #ddd;
  stroke-width: 3;
  stroke-linecap: square;
  stroke-linejoin: square;
  stroke-dasharray:8, 8;
}

.stroke_order_diagram--bounding_box {
  fill: none;
  stroke: #ddd;
  stroke-width: 4;
  stroke-linecap: square;
  stroke-linejoin: square;
}

.stroke_order_diagram--current_path {
  fill: none;
  stroke: #000;
  stroke-width: 6;
  stroke-linecap: round;
  stroke-linejoin: round;
}

.stroke_order_diagram--existing_path {
  fill: none;
  stroke: #aaa;
  stroke-width: 6;
  stroke-linecap: round;
  stroke-linejoin:round;
}

.stroke_order_diagram--path_start {
  fill: rgba(255, 0, 0, 0.7);
  stroke:none
}</style><desc>Created with Snap</desc><defs></defs><line x1="1" x2="399" y1="1" y2="1" class="stroke_order_diagram--bounding_box"></line><line x1="1" x2="1" y1="1" y2="99" class="stroke_order_diagram--bounding_box"></line><line x1="1" x2="399" y1="99" y2="99" class="stroke_order_diagram--bounding_box"></line><line x1="0" x2="400" y1="50" y2="50" class="stroke_order_diagram--guide_line"></line><line x1="50" x2="50" y1="1" y2="99" class="stroke_order_diagram--guide_line"></line><line x1="99" x2="99" y1="1" y2="99" class="stroke_order_diagram--bounding_box"></line><path id="kvg:06b79-s1" kvg:type="㇐" d="M13.75,23.2c1.52,0.54,4.31,0.72,5.82,0.54c12.68-1.49,55.93-4.99,70.11-5.23c2.53-0.04,4.05,0.26,5.31,0.53" transform="matrix(1,0,0,1,-4,-4)" class="stroke_order_diagram--current_path"></path><path id="pathSk940yk7k1cu" kvg:type="㇐" d="M13.75,23.2c1.52,0.54,4.31,0.72,5.82,0.54c12.68-1.49,55.93-4.99,70.11-5.23c2.53-0.04,4.05,0.26,5.31,0.53" transform="matrix(1,0,0,1,-4,-4)" class="stroke_order_diagram--current_path"></path><circle cx="13.75" cy="23.2" r="8" class="stroke_order_diagram--path_start" transform="matrix(1,0,0,1,-4,-4)"></circle><line x1="150" x2="150" y1="1" y2="99" class="stroke_order_diagram--guide_line"></line><line x1="199" x2="199" y1="1" y2="99" class="stroke_order_diagram--bounding_box"></line><path id="pathSk940yk7k1cx" kvg:type="㇐" d="M13.75,23.2c1.52,0.54,4.31,0.72,5.82,0.54c12.68-1.49,55.93-4.99,70.11-5.23c2.53-0.04,4.05,0.26,5.31,0.53" transform="matrix(1,0,0,1,96,-4)" class="stroke_order_diagram--existing_path"></path><path id="kvg:06b79-s2" kvg:type="㇒" d="M50.4,23.64c0.3,0.7,0.6,2.85,0.08,4.19C47,37,37.23,53.89,22.06,64.97" transform="matrix(1,0,0,1,96,-4)" class="stroke_order_diagram--current_path"></path><path id="pathSk940yk7k1cz" kvg:type="㇒" d="M50.4,23.64c0.3,0.7,0.6,2.85,0.08,4.19C47,37,37.23,53.89,22.06,64.97" transform="matrix(1,0,0,1,96,-4)" class="stroke_order_diagram--current_path"></path><circle cx="50.4" cy="23.64" r="8" class="stroke_order_diagram--path_start" transform="matrix(1,0,0,1,96,-4)"></circle><line x1="250" x2="250" y1="1" y2="99" class="stroke_order_diagram--guide_line"></line><line x1="299" x2="299" y1="1" y2="99" class="stroke_order_diagram--bounding_box"></line><path id="pathSk940yk7k1d2" kvg:type="㇐" d="M13.75,23.2c1.52,0.54,4.31,0.72,5.82,0.54c12.68-1.49,55.93-4.99,70.11-5.23c2.53-0.04,4.05,0.26,5.31,0.53" transform="matrix(1,0,0,1,196,-4)" class="stroke_order_diagram--existing_path"></path><path id="pathSk940yk7k1d3" kvg:type="㇒" d="M50.4,23.64c0.3,0.7,0.6,2.85,0.08,4.19C47,37,37.23,53.89,22.06,64.97" transform="matrix(1,0,0,1,196,-4)" class="stroke_order_diagram--existing_path"></path><path id="kvg:06b79-s3" kvg:type="㇇" d="M49.6,39.02c0.41,0.05,2.62,0,3.78-0.15c3.79-0.47,14.37-1.87,20.85-2.69c3.82-0.48,4.46,2.35,3.52,5.06C72.55,56.13,46.66,91.33,23.5,99" transform="matrix(1,0,0,1,196,-4)" class="stroke_order_diagram--current_path"></path><path id="pathSk940yk7k1d5" kvg:type="㇇" d="M49.6,39.02c0.41,0.05,2.62,0,3.78-0.15c3.79-0.47,14.37-1.87,20.85-2.69c3.82-0.48,4.46,2.35,3.52,5.06C72.55,56.13,46.66,91.33,23.5,99" transform="matrix(1,0,0,1,196,-4)" class="stroke_order_diagram--current_path"></path><circle cx="49.6" cy="39.02" r="8" class="stroke_order_diagram--path_start" transform="matrix(1,0,0,1,196,-4)"></circle><line x1="350" x2="350" y1="1" y2="99" class="stroke_order_diagram--guide_line"></line><line x1="399" x2="399" y1="1" y2="99" class="stroke_order_diagram--bounding_box"></line><path id="pathSk940yk7k1d8" kvg:type="㇐" d="M13.75,23.2c1.52,0.54,4.31,0.72,5.82,0.54c12.68-1.49,55.93-4.99,70.11-5.23c2.53-0.04,4.05,0.26,5.31,0.53" transform="matrix(1,0,0,1,296,-4)" class="stroke_order_diagram--existing_path"></path><path id="pathSk940yk7k1d9" kvg:type="㇒" d="M50.4,23.64c0.3,0.7,0.6,2.85,0.08,4.19C47,37,37.23,53.89,22.06,64.97" transform="matrix(1,0,0,1,296,-4)" class="stroke_order_diagram--existing_path"></path><path id="pathSk940yk7k1da" kvg:type="㇇" d="M49.6,39.02c0.41,0.05,2.62,0,3.78-0.15c3.79-0.47,14.37-1.87,20.85-2.69c3.82-0.48,4.46,2.35,3.52,5.06C72.55,56.13,46.66,91.33,23.5,99" transform="matrix(1,0,0,1,296,-4)" class="stroke_order_diagram--existing_path"></path><path id="kvg:06b79-s4" kvg:type="㇔" d="M39.52,55.33c5.31,2.58,13.72,10.62,15.04,14.63" transform="matrix(1,0,0,1,296,-4)" class="stroke_order_diagram--current_path"></path><path id="pathSk940yk7k1dc" kvg:type="㇔" d="M39.52,55.33c5.31,2.58,13.72,10.62,15.04,14.63" transform="matrix(1,0,0,1,296,-4)" class="stroke_order_diagram--current_path"></path><circle cx="39.52" cy="55.33" r="8" class="stroke_order_diagram--path_start" transform="matrix(1,0,0,1,296,-4)"></circle></svg>