<?xml version="1.0" encoding="UTF-8"?>
<!DOCTYPE svg PUBLIC "-//W3C//DTD SVG 1.0//EN" "http://www.w3.org/TR/2001/REC-SVG-20010904/DTD/svg10.dtd" [
<!ATTLIST g
xmlns:kvg CDATA #FIXED "http://kanjivg.tagaini.net"
kvg:element CDATA #IMPLIED
kvg:variant CDATA #IMPLIED
kvg:partial CDATA #IMPLIED
kvg:original CDATA #IMPLIED
kvg:part CDATA #IMPLIED
kvg:number CDATA #IMPLIED
kvg:tradForm CDATA #IMPLIED
kvg:radicalForm CDATA #IMPLIED
kvg:position CDATA #IMPLIED
kvg:radical CDATA #IMPLIED
kvg:phon CDATA #IMPLIED >
<!ATTLIST path
xmlns:kvg CDATA #FIXED "http://kanjivg.tagaini.net"
kvg:type CDATA #IMPLIED >
]><svg style="width: 400px; height: 100px;" xmlns="http://www.w3.org/2000/svg" xmlns:xlink="http://www.w3.org/1999/xlink" width="400px" height="100px"><style>
.stroke_order_diagram--outer_container {
  width: 100%;
  overflow-x: auto;
  overflow-y: hidden;
}

.stroke_order_diagram--guide_line {
  fill: none;
  stroke: #ddd;
  stroke-width: 3;
  stroke-linecap: square;
  stroke-linejoin: square;
  stroke-dasharray:8, 8;
}

.stroke_order_diagram--bounding_box {
  fill: none;
  stroke: #ddd;
  stroke-width: 4;
  stroke-linecap: square;
  stroke-linejoin: square;
}

.stroke_order_diagram--current_path {
  fill: none;
  stroke: #000;
  stroke-width: 6;
  stroke-linecap: round;
  stroke-linejoin: round;
}

.stroke_order_diagram--existing_path {
  fill: none;
  stroke: #aaa;
  stroke-width: 6;
  stroke-linecap: round;
  stroke-linejoin:round;
}

.stroke_order_diagram--path_start {
  fill: rgba(255, 0, 0, 0.7);
  stroke:none
}</style><desc>Created with Snap</desc><defs></defs><line x1="1" x2="399" y1="1" y2="1" class="stroke_order_diagram--bounding_box"></line><line x1="1" x2="1" y1="1" y2="99" class="stroke_order_diagram--bounding_box"></line><line x1="1" x2="399" y1="99" y2="99" class="stroke_order_diagram--bounding_box"></line><line x1="0" x2="400" y1="50" y2="50" class="stroke_order_diagram--guide_line"></line><line x1="50" x2="50" y1="1" y2="99" class="stroke_order_diagram--guide_line"></line><line x1="99" x2="99" y1="1" y2="99" class="stroke_order_diagram--bounding_box"></line><path id="kvg:06bb3-s1" kvg:type="㇒" d="M37.77,13.64c0.48,0.86,0.96,2.74,0.92,4c-0.35,13.02-4.02,28.02-14.8,33.49" transform="matrix(1,0,0,1,-4,-4)" class="stroke_order_diagram--current_path"></path><path id="pathSk940yk7k1dq" kvg:type="㇒" d="M37.77,13.64c0.48,0.86,0.96,2.74,0.92,4c-0.35,13.02-4.02,28.02-14.8,33.49" transform="matrix(1,0,0,1,-4,-4)" class="stroke_order_diagram--current_path"></path><circle cx="37.77" cy="13.64" r="8" class="stroke_order_diagram--path_start" transform="matrix(1,0,0,1,-4,-4)"></circle><line x1="150" x2="150" y1="1" y2="99" class="stroke_order_diagram--guide_line"></line><line x1="199" x2="199" y1="1" y2="99" class="stroke_order_diagram--bounding_box"></line><path id="pathSk940yk7k1dt" kvg:type="㇒" d="M37.77,13.64c0.48,0.86,0.96,2.74,0.92,4c-0.35,13.02-4.02,28.02-14.8,33.49" transform="matrix(1,0,0,1,96,-4)" class="stroke_order_diagram--existing_path"></path><path id="kvg:06bb3-s2" kvg:type="㇈b" d="M39.67,16c3.33,0.33,20.77-1.66,23-2.33c3.33-1,5.01,2.12,4.67,4.33c-0.67,4.33-1,11.67-1,16c0,6,1.67,10.33,12.67,10.33c13,0,12.67-0.67,12.67-13" transform="matrix(1,0,0,1,96,-4)" class="stroke_order_diagram--current_path"></path><path id="pathSk940yk7k1dv" kvg:type="㇈b" d="M39.67,16c3.33,0.33,20.77-1.66,23-2.33c3.33-1,5.01,2.12,4.67,4.33c-0.67,4.33-1,11.67-1,16c0,6,1.67,10.33,12.67,10.33c13,0,12.67-0.67,12.67-13" transform="matrix(1,0,0,1,96,-4)" class="stroke_order_diagram--current_path"></path><circle cx="39.67" cy="16" r="8" class="stroke_order_diagram--path_start" transform="matrix(1,0,0,1,96,-4)"></circle><line x1="250" x2="250" y1="1" y2="99" class="stroke_order_diagram--guide_line"></line><line x1="299" x2="299" y1="1" y2="99" class="stroke_order_diagram--bounding_box"></line><path id="pathSk940yk7k1dy" kvg:type="㇒" d="M37.77,13.64c0.48,0.86,0.96,2.74,0.92,4c-0.35,13.02-4.02,28.02-14.8,33.49" transform="matrix(1,0,0,1,196,-4)" class="stroke_order_diagram--existing_path"></path><path id="pathSk940yk7k1dz" kvg:type="㇈b" d="M39.67,16c3.33,0.33,20.77-1.66,23-2.33c3.33-1,5.01,2.12,4.67,4.33c-0.67,4.33-1,11.67-1,16c0,6,1.67,10.33,12.67,10.33c13,0,12.67-0.67,12.67-13" transform="matrix(1,0,0,1,196,-4)" class="stroke_order_diagram--existing_path"></path><path id="kvg:06bb3-s3" kvg:type="㇇" d="M33,55.25c2,0.4,2.25,0.99,6.25,0.4s24.25-3.24,27-3.83c2.75-0.59,4.98,2.3,3.75,4.35c-12.67,21.17-29,33.17-53,43" transform="matrix(1,0,0,1,196,-4)" class="stroke_order_diagram--current_path"></path><path id="pathSk940yk7k1e1" kvg:type="㇇" d="M33,55.25c2,0.4,2.25,0.99,6.25,0.4s24.25-3.24,27-3.83c2.75-0.59,4.98,2.3,3.75,4.35c-12.67,21.17-29,33.17-53,43" transform="matrix(1,0,0,1,196,-4)" class="stroke_order_diagram--current_path"></path><circle cx="33" cy="55.25" r="8" class="stroke_order_diagram--path_start" transform="matrix(1,0,0,1,196,-4)"></circle><line x1="350" x2="350" y1="1" y2="99" class="stroke_order_diagram--guide_line"></line><line x1="399" x2="399" y1="1" y2="99" class="stroke_order_diagram--bounding_box"></line><path id="pathSk940yk7k1e4" kvg:type="㇒" d="M37.77,13.64c0.48,0.86,0.96,2.74,0.92,4c-0.35,13.02-4.02,28.02-14.8,33.49" transform="matrix(1,0,0,1,296,-4)" class="stroke_order_diagram--existing_path"></path><path id="pathSk940yk7k1e5" kvg:type="㇈b" d="M39.67,16c3.33,0.33,20.77-1.66,23-2.33c3.33-1,5.01,2.12,4.67,4.33c-0.67,4.33-1,11.67-1,16c0,6,1.67,10.33,12.67,10.33c13,0,12.67-0.67,12.67-13" transform="matrix(1,0,0,1,296,-4)" class="stroke_order_diagram--existing_path"></path><path id="pathSk940yk7k1e6" kvg:type="㇇" d="M33,55.25c2,0.4,2.25,0.99,6.25,0.4s24.25-3.24,27-3.83c2.75-0.59,4.98,2.3,3.75,4.35c-12.67,21.17-29,33.17-53,43" transform="matrix(1,0,0,1,296,-4)" class="stroke_order_diagram--existing_path"></path><path id="kvg:06bb3-s4" kvg:type="㇏" d="M35.92,61.37c5.08,0.87,29.9,24.21,47.59,33.77c2.75,1.49,4.76,2.48,7.33,2.98" transform="matrix(1,0,0,1,296,-4)" class="stroke_order_diagram--current_path"></path><path id="pathSk940yk7k1e8" kvg:type="㇏" d="M35.92,61.37c5.08,0.87,29.9,24.21,47.59,33.77c2.75,1.49,4.76,2.48,7.33,2.98" transform="matrix(1,0,0,1,296,-4)" class="stroke_order_diagram--current_path"></path><circle cx="35.92" cy="61.37" r="8" class="stroke_order_diagram--path_start" transform="matrix(1,0,0,1,296,-4)"></circle></svg>