<?xml version="1.0" encoding="UTF-8"?>
<!DOCTYPE svg PUBLIC "-//W3C//DTD SVG 1.0//EN" "http://www.w3.org/TR/2001/REC-SVG-20010904/DTD/svg10.dtd" [
<!ATTLIST g
xmlns:kvg CDATA #FIXED "http://kanjivg.tagaini.net"
kvg:element CDATA #IMPLIED
kvg:variant CDATA #IMPLIED
kvg:partial CDATA #IMPLIED
kvg:original CDATA #IMPLIED
kvg:part CDATA #IMPLIED
kvg:number CDATA #IMPLIED
kvg:tradForm CDATA #IMPLIED
kvg:radicalForm CDATA #IMPLIED
kvg:position CDATA #IMPLIED
kvg:radical CDATA #IMPLIED
kvg:phon CDATA #IMPLIED >
<!ATTLIST path
xmlns:kvg CDATA #FIXED "http://kanjivg.tagaini.net"
kvg:type CDATA #IMPLIED >
]><svg style="width: 400px; height: 100px;" xmlns="http://www.w3.org/2000/svg" xmlns:xlink="http://www.w3.org/1999/xlink"><style>
.stroke_order_diagram--outer_container {
  width: 100%;
  overflow-x: auto;
  overflow-y: hidden;
}

.stroke_order_diagram--guide_line {
  fill: none;
  stroke: #ddd;
  stroke-width: 3;
  stroke-linecap: square;
  stroke-linejoin: square;
  stroke-dasharray:8, 8;
}

.stroke_order_diagram--bounding_box {
  fill: none;
  stroke: #ddd;
  stroke-width: 4;
  stroke-linecap: square;
  stroke-linejoin: square;
}

.stroke_order_diagram--current_path {
  fill: none;
  stroke: #000;
  stroke-width: 6;
  stroke-linecap: round;
  stroke-linejoin: round;
}

.stroke_order_diagram--existing_path {
  fill: none;
  stroke: #aaa;
  stroke-width: 6;
  stroke-linecap: round;
  stroke-linejoin:round;
}

.stroke_order_diagram--path_start {
  fill: rgba(255, 0, 0, 0.7);
  stroke:none
}</style><desc>Created with Snap</desc><defs></defs><line x1="1" x2="399" y1="1" y2="1" class="stroke_order_diagram--bounding_box"></line><line x1="1" x2="1" y1="1" y2="99" class="stroke_order_diagram--bounding_box"></line><line x1="1" x2="399" y1="99" y2="99" class="stroke_order_diagram--bounding_box"></line><line x1="0" x2="400" y1="50" y2="50" class="stroke_order_diagram--guide_line"></line><line x1="50" x2="50" y1="1" y2="99" class="stroke_order_diagram--guide_line"></line><line x1="99" x2="99" y1="1" y2="99" class="stroke_order_diagram--bounding_box"></line><path id="kvg:06c0f-s1" kvg:type="㇒" d="M66.12,12.62c0,0.88-0.35,1.83-0.96,2.31C58,20.62,46.88,26.25,27,32.75" transform="matrix(1,0,0,1,-4,-4)" class="stroke_order_diagram--current_path"></path><path id="pathSk93xdzq01ha" kvg:type="㇒" d="M66.12,12.62c0,0.88-0.35,1.83-0.96,2.31C58,20.62,46.88,26.25,27,32.75" transform="matrix(1,0,0,1,-4,-4)" class="stroke_order_diagram--current_path"></path><circle cx="66.12" cy="12.62" r="8" class="stroke_order_diagram--path_start" transform="matrix(1,0,0,1,-4,-4)"></circle><line x1="150" x2="150" y1="1" y2="99" class="stroke_order_diagram--guide_line"></line><line x1="199" x2="199" y1="1" y2="99" class="stroke_order_diagram--bounding_box"></line><path id="pathSk93xdzq01hd" kvg:type="㇒" d="M66.12,12.62c0,0.88-0.35,1.83-0.96,2.31C58,20.62,46.88,26.25,27,32.75" transform="matrix(1,0,0,1,96,-4)" class="stroke_order_diagram--existing_path"></path><path id="kvg:06c0f-s2" kvg:type="㇙" d="M23.5,30c1.19,1.19,1.5,3,1.5,5.25c0,6-0.75,40.88-0.75,48.5c0,3.5,0.25,4.5,3.5,2S39.5,77,41.5,75.5" transform="matrix(1,0,0,1,96,-4)" class="stroke_order_diagram--current_path"></path><path id="pathSk93xdzq01hf" kvg:type="㇙" d="M23.5,30c1.19,1.19,1.5,3,1.5,5.25c0,6-0.75,40.88-0.75,48.5c0,3.5,0.25,4.5,3.5,2S39.5,77,41.5,75.5" transform="matrix(1,0,0,1,96,-4)" class="stroke_order_diagram--current_path"></path><circle cx="23.5" cy="30" r="8" class="stroke_order_diagram--path_start" transform="matrix(1,0,0,1,96,-4)"></circle><line x1="250" x2="250" y1="1" y2="99" class="stroke_order_diagram--guide_line"></line><line x1="299" x2="299" y1="1" y2="99" class="stroke_order_diagram--bounding_box"></line><path id="pathSk93xdzq01hi" kvg:type="㇒" d="M66.12,12.62c0,0.88-0.35,1.83-0.96,2.31C58,20.62,46.88,26.25,27,32.75" transform="matrix(1,0,0,1,196,-4)" class="stroke_order_diagram--existing_path"></path><path id="pathSk93xdzq01hj" kvg:type="㇙" d="M23.5,30c1.19,1.19,1.5,3,1.5,5.25c0,6-0.75,40.88-0.75,48.5c0,3.5,0.25,4.5,3.5,2S39.5,77,41.5,75.5" transform="matrix(1,0,0,1,196,-4)" class="stroke_order_diagram--existing_path"></path><path id="kvg:06c0f-s3" kvg:type="㇐" d="M27.88,51.13c2.5,0.62,5.64,0.41,8.01-0.01c10.74-1.87,26.47-4.84,37.72-5.69c2.53-0.19,5.19-0.44,7.67,0.22" transform="matrix(1,0,0,1,196,-4)" class="stroke_order_diagram--current_path"></path><path id="pathSk93xdzq01hl" kvg:type="㇐" d="M27.88,51.13c2.5,0.62,5.64,0.41,8.01-0.01c10.74-1.87,26.47-4.84,37.72-5.69c2.53-0.19,5.19-0.44,7.67,0.22" transform="matrix(1,0,0,1,196,-4)" class="stroke_order_diagram--current_path"></path><circle cx="27.88" cy="51.13" r="8" class="stroke_order_diagram--path_start" transform="matrix(1,0,0,1,196,-4)"></circle><line x1="350" x2="350" y1="1" y2="99" class="stroke_order_diagram--guide_line"></line><line x1="399" x2="399" y1="1" y2="99" class="stroke_order_diagram--bounding_box"></line><path id="pathSk93xdzq01ho" kvg:type="㇒" d="M66.12,12.62c0,0.88-0.35,1.83-0.96,2.31C58,20.62,46.88,26.25,27,32.75" transform="matrix(1,0,0,1,296,-4)" class="stroke_order_diagram--existing_path"></path><path id="pathSk93xdzq01hp" kvg:type="㇙" d="M23.5,30c1.19,1.19,1.5,3,1.5,5.25c0,6-0.75,40.88-0.75,48.5c0,3.5,0.25,4.5,3.5,2S39.5,77,41.5,75.5" transform="matrix(1,0,0,1,296,-4)" class="stroke_order_diagram--existing_path"></path><path id="pathSk93xdzq01hq" kvg:type="㇐" d="M27.88,51.13c2.5,0.62,5.64,0.41,8.01-0.01c10.74-1.87,26.47-4.84,37.72-5.69c2.53-0.19,5.19-0.44,7.67,0.22" transform="matrix(1,0,0,1,296,-4)" class="stroke_order_diagram--existing_path"></path><path id="kvg:06c0f-s4" kvg:type="㇂" d="M46.5,28.5c1,1.12,2,2.87,2.47,4.47C54.26,50.81,67.02,81.53,86.75,93c8.75,5.09,6.5-4,6.5-7" transform="matrix(1,0,0,1,296,-4)" class="stroke_order_diagram--current_path"></path><path id="pathSk93xdzq01hs" kvg:type="㇂" d="M46.5,28.5c1,1.12,2,2.87,2.47,4.47C54.26,50.81,67.02,81.53,86.75,93c8.75,5.09,6.5-4,6.5-7" transform="matrix(1,0,0,1,296,-4)" class="stroke_order_diagram--current_path"></path><circle cx="46.5" cy="28.5" r="8" class="stroke_order_diagram--path_start" transform="matrix(1,0,0,1,296,-4)"></circle></svg>