<?xml version="1.0" encoding="UTF-8"?>
<!DOCTYPE svg PUBLIC "-//W3C//DTD SVG 1.0//EN" "http://www.w3.org/TR/2001/REC-SVG-20010904/DTD/svg10.dtd" [
<!ATTLIST g
xmlns:kvg CDATA #FIXED "http://kanjivg.tagaini.net"
kvg:element CDATA #IMPLIED
kvg:variant CDATA #IMPLIED
kvg:partial CDATA #IMPLIED
kvg:original CDATA #IMPLIED
kvg:part CDATA #IMPLIED
kvg:number CDATA #IMPLIED
kvg:tradForm CDATA #IMPLIED
kvg:radicalForm CDATA #IMPLIED
kvg:position CDATA #IMPLIED
kvg:radical CDATA #IMPLIED
kvg:phon CDATA #IMPLIED >
<!ATTLIST path
xmlns:kvg CDATA #FIXED "http://kanjivg.tagaini.net"
kvg:type CDATA #IMPLIED >
]><svg style="width: 400px; height: 100px;" xmlns="http://www.w3.org/2000/svg" xmlns:xlink="http://www.w3.org/1999/xlink"><style>
.stroke_order_diagram--outer_container {
  width: 100%;
  overflow-x: auto;
  overflow-y: hidden;
}

.stroke_order_diagram--guide_line {
  fill: none;
  stroke: #ddd;
  stroke-width: 3;
  stroke-linecap: square;
  stroke-linejoin: square;
  stroke-dasharray:8, 8;
}

.stroke_order_diagram--bounding_box {
  fill: none;
  stroke: #ddd;
  stroke-width: 4;
  stroke-linecap: square;
  stroke-linejoin: square;
}

.stroke_order_diagram--current_path {
  fill: none;
  stroke: #000;
  stroke-width: 6;
  stroke-linecap: round;
  stroke-linejoin: round;
}

.stroke_order_diagram--existing_path {
  fill: none;
  stroke: #aaa;
  stroke-width: 6;
  stroke-linecap: round;
  stroke-linejoin:round;
}

.stroke_order_diagram--path_start {
  fill: rgba(255, 0, 0, 0.7);
  stroke:none
}</style><desc>Created with Snap</desc><defs></defs><line x1="1" x2="399" y1="1" y2="1" class="stroke_order_diagram--bounding_box"></line><line x1="1" x2="1" y1="1" y2="99" class="stroke_order_diagram--bounding_box"></line><line x1="1" x2="399" y1="99" y2="99" class="stroke_order_diagram--bounding_box"></line><line x1="0" x2="400" y1="50" y2="50" class="stroke_order_diagram--guide_line"></line><line x1="50" x2="50" y1="1" y2="99" class="stroke_order_diagram--guide_line"></line><line x1="99" x2="99" y1="1" y2="99" class="stroke_order_diagram--bounding_box"></line><path id="kvg:06c14-s1" kvg:type="㇒" d="M39.17,8.69c0.33,1.81,0.15,4.16-0.65,5.42C36.3,17.6,26,34,18.25,41" transform="matrix(1,0,0,1,-4,-4)" class="stroke_order_diagram--current_path"></path><path id="pathSk93xdzq01jy" kvg:type="㇒" d="M39.17,8.69c0.33,1.81,0.15,4.16-0.65,5.42C36.3,17.6,26,34,18.25,41" transform="matrix(1,0,0,1,-4,-4)" class="stroke_order_diagram--current_path"></path><circle cx="39.17" cy="8.69" r="8" class="stroke_order_diagram--path_start" transform="matrix(1,0,0,1,-4,-4)"></circle><line x1="150" x2="150" y1="1" y2="99" class="stroke_order_diagram--guide_line"></line><line x1="199" x2="199" y1="1" y2="99" class="stroke_order_diagram--bounding_box"></line><path id="pathSk93xdzq01k1" kvg:type="㇒" d="M39.17,8.69c0.33,1.81,0.15,4.16-0.65,5.42C36.3,17.6,26,34,18.25,41" transform="matrix(1,0,0,1,96,-4)" class="stroke_order_diagram--existing_path"></path><path id="kvg:06c14-s2" kvg:type="㇐" d="M38.5,23.25c0.97-0.09,3.07-0.2,4.28-0.34c8.54-0.97,22.45-3.04,32.73-3.74c1.04-0.07,3.04-0.13,3.99-0.17" transform="matrix(1,0,0,1,96,-4)" class="stroke_order_diagram--current_path"></path><path id="pathSk93xdzq01k3" kvg:type="㇐" d="M38.5,23.25c0.97-0.09,3.07-0.2,4.28-0.34c8.54-0.97,22.45-3.04,32.73-3.74c1.04-0.07,3.04-0.13,3.99-0.17" transform="matrix(1,0,0,1,96,-4)" class="stroke_order_diagram--current_path"></path><circle cx="38.5" cy="23.25" r="8" class="stroke_order_diagram--path_start" transform="matrix(1,0,0,1,96,-4)"></circle><line x1="250" x2="250" y1="1" y2="99" class="stroke_order_diagram--guide_line"></line><line x1="299" x2="299" y1="1" y2="99" class="stroke_order_diagram--bounding_box"></line><path id="pathSk93xdzq01k6" kvg:type="㇒" d="M39.17,8.69c0.33,1.81,0.15,4.16-0.65,5.42C36.3,17.6,26,34,18.25,41" transform="matrix(1,0,0,1,196,-4)" class="stroke_order_diagram--existing_path"></path><path id="pathSk93xdzq01k7" kvg:type="㇐" d="M38.5,23.25c0.97-0.09,3.07-0.2,4.28-0.34c8.54-0.97,22.45-3.04,32.73-3.74c1.04-0.07,3.04-0.13,3.99-0.17" transform="matrix(1,0,0,1,196,-4)" class="stroke_order_diagram--existing_path"></path><path id="kvg:06c14-s3" kvg:type="㇐" d="M38,36.5c0.93,0.03,2.04,0.02,3.28-0.1c7.22-0.65,20.19-2.8,27.47-3.62c1.34-0.15,3.53-0.25,4.5-0.29" transform="matrix(1,0,0,1,196,-4)" class="stroke_order_diagram--current_path"></path><path id="pathSk93xdzq01k9" kvg:type="㇐" d="M38,36.5c0.93,0.03,2.04,0.02,3.28-0.1c7.22-0.65,20.19-2.8,27.47-3.62c1.34-0.15,3.53-0.25,4.5-0.29" transform="matrix(1,0,0,1,196,-4)" class="stroke_order_diagram--current_path"></path><circle cx="38" cy="36.5" r="8" class="stroke_order_diagram--path_start" transform="matrix(1,0,0,1,196,-4)"></circle><line x1="350" x2="350" y1="1" y2="99" class="stroke_order_diagram--guide_line"></line><line x1="399" x2="399" y1="1" y2="99" class="stroke_order_diagram--bounding_box"></line><path id="pathSk93xdzq01kc" kvg:type="㇒" d="M39.17,8.69c0.33,1.81,0.15,4.16-0.65,5.42C36.3,17.6,26,34,18.25,41" transform="matrix(1,0,0,1,296,-4)" class="stroke_order_diagram--existing_path"></path><path id="pathSk93xdzq01kd" kvg:type="㇐" d="M38.5,23.25c0.97-0.09,3.07-0.2,4.28-0.34c8.54-0.97,22.45-3.04,32.73-3.74c1.04-0.07,3.04-0.13,3.99-0.17" transform="matrix(1,0,0,1,296,-4)" class="stroke_order_diagram--existing_path"></path><path id="pathSk93xdzq01ke" kvg:type="㇐" d="M38,36.5c0.93,0.03,2.04,0.02,3.28-0.1c7.22-0.65,20.19-2.8,27.47-3.62c1.34-0.15,3.53-0.25,4.5-0.29" transform="matrix(1,0,0,1,296,-4)" class="stroke_order_diagram--existing_path"></path><path id="kvg:06c14-s4" kvg:type="㇈a" d="M27.5,51.73c1.15,0.45,3.4,0.71,5,0.52c12.93-1.58,31.49-3.9,42.35-5.26c2.98-0.37,3.18,1.05,2.7,2.81C72.25,69,80,86,91.21,95.16c7.7,6.29,7.29,1.59,6.04-7.25" transform="matrix(1,0,0,1,296,-4)" class="stroke_order_diagram--current_path"></path><path id="pathSk93xdzq01kg" kvg:type="㇈a" d="M27.5,51.73c1.15,0.45,3.4,0.71,5,0.52c12.93-1.58,31.49-3.9,42.35-5.26c2.98-0.37,3.18,1.05,2.7,2.81C72.25,69,80,86,91.21,95.16c7.7,6.29,7.29,1.59,6.04-7.25" transform="matrix(1,0,0,1,296,-4)" class="stroke_order_diagram--current_path"></path><circle cx="27.5" cy="51.73" r="8" class="stroke_order_diagram--path_start" transform="matrix(1,0,0,1,296,-4)"></circle></svg>