<?xml version="1.0" encoding="UTF-8"?>
<!DOCTYPE svg PUBLIC "-//W3C//DTD SVG 1.0//EN" "http://www.w3.org/TR/2001/REC-SVG-20010904/DTD/svg10.dtd" [
<!ATTLIST g
xmlns:kvg CDATA #FIXED "http://kanjivg.tagaini.net"
kvg:element CDATA #IMPLIED
kvg:variant CDATA #IMPLIED
kvg:partial CDATA #IMPLIED
kvg:original CDATA #IMPLIED
kvg:part CDATA #IMPLIED
kvg:number CDATA #IMPLIED
kvg:tradForm CDATA #IMPLIED
kvg:radicalForm CDATA #IMPLIED
kvg:position CDATA #IMPLIED
kvg:radical CDATA #IMPLIED
kvg:phon CDATA #IMPLIED >
<!ATTLIST path
xmlns:kvg CDATA #FIXED "http://kanjivg.tagaini.net"
kvg:type CDATA #IMPLIED >
]><svg style="width: 400px; height: 100px;" xmlns="http://www.w3.org/2000/svg" xmlns:xlink="http://www.w3.org/1999/xlink" width="400px" height="100px"><style>
.stroke_order_diagram--outer_container {
  width: 100%;
  overflow-x: auto;
  overflow-y: hidden;
}

.stroke_order_diagram--guide_line {
  fill: none;
  stroke: #ddd;
  stroke-width: 3;
  stroke-linecap: square;
  stroke-linejoin: square;
  stroke-dasharray:8, 8;
}

.stroke_order_diagram--bounding_box {
  fill: none;
  stroke: #ddd;
  stroke-width: 4;
  stroke-linecap: square;
  stroke-linejoin: square;
}

.stroke_order_diagram--current_path {
  fill: none;
  stroke: #000;
  stroke-width: 6;
  stroke-linecap: round;
  stroke-linejoin: round;
}

.stroke_order_diagram--existing_path {
  fill: none;
  stroke: #aaa;
  stroke-width: 6;
  stroke-linecap: round;
  stroke-linejoin:round;
}

.stroke_order_diagram--path_start {
  fill: rgba(255, 0, 0, 0.7);
  stroke:none
}</style><desc>Created with Snap</desc><defs></defs><line x1="1" x2="399" y1="1" y2="1" class="stroke_order_diagram--bounding_box"></line><line x1="1" x2="1" y1="1" y2="99" class="stroke_order_diagram--bounding_box"></line><line x1="1" x2="399" y1="99" y2="99" class="stroke_order_diagram--bounding_box"></line><line x1="0" x2="400" y1="50" y2="50" class="stroke_order_diagram--guide_line"></line><line x1="50" x2="50" y1="1" y2="99" class="stroke_order_diagram--guide_line"></line><line x1="99" x2="99" y1="1" y2="99" class="stroke_order_diagram--bounding_box"></line><path id="kvg:0723f-s1" kvg:type="㇄" d="M66.96,8.29c1.29,1.46,2.11,3.96,2.11,5.68c0,16.51-0.04,81.46-0.04,87.08" transform="matrix(1,0,0,1,-4,-4)" class="stroke_order_diagram--current_path"></path><path id="pathSk940yk7k1ni" kvg:type="㇄" d="M66.96,8.29c1.29,1.46,2.11,3.96,2.11,5.68c0,16.51-0.04,81.46-0.04,87.08" transform="matrix(1,0,0,1,-4,-4)" class="stroke_order_diagram--current_path"></path><circle cx="66.96" cy="8.29" r="8" class="stroke_order_diagram--path_start" transform="matrix(1,0,0,1,-4,-4)"></circle><line x1="150" x2="150" y1="1" y2="99" class="stroke_order_diagram--guide_line"></line><line x1="199" x2="199" y1="1" y2="99" class="stroke_order_diagram--bounding_box"></line><path id="pathSk940yk7k1nl" kvg:type="㇄" d="M66.96,8.29c1.29,1.46,2.11,3.96,2.11,5.68c0,16.51-0.04,81.46-0.04,87.08" transform="matrix(1,0,0,1,96,-4)" class="stroke_order_diagram--existing_path"></path><path id="kvg:0723f-s2" kvg:type="㇐" d="M37.24,13.43c1.57,0.73,2.17,1.58,2.3,3.99c0.2,3.61-0.85,18.91-1.33,22.7c-0.16,1.21,0.27,3.01,2.61,2.82c8.24-0.66,18.16-2.42,27.7-2.95" transform="matrix(1,0,0,1,96,-4)" class="stroke_order_diagram--current_path"></path><path id="pathSk940yk7k1nn" kvg:type="㇐" d="M37.24,13.43c1.57,0.73,2.17,1.58,2.3,3.99c0.2,3.61-0.85,18.91-1.33,22.7c-0.16,1.21,0.27,3.01,2.61,2.82c8.24-0.66,18.16-2.42,27.7-2.95" transform="matrix(1,0,0,1,96,-4)" class="stroke_order_diagram--current_path"></path><circle cx="37.24" cy="13.43" r="8" class="stroke_order_diagram--path_start" transform="matrix(1,0,0,1,96,-4)"></circle><line x1="250" x2="250" y1="1" y2="99" class="stroke_order_diagram--guide_line"></line><line x1="299" x2="299" y1="1" y2="99" class="stroke_order_diagram--bounding_box"></line><path id="pathSk940yk7k1nq" kvg:type="㇄" d="M66.96,8.29c1.29,1.46,2.11,3.96,2.11,5.68c0,16.51-0.04,81.46-0.04,87.08" transform="matrix(1,0,0,1,196,-4)" class="stroke_order_diagram--existing_path"></path><path id="pathSk940yk7k1nr" kvg:type="㇐" d="M37.24,13.43c1.57,0.73,2.17,1.58,2.3,3.99c0.2,3.61-0.85,18.91-1.33,22.7c-0.16,1.21,0.27,3.01,2.61,2.82c8.24-0.66,18.16-2.42,27.7-2.95" transform="matrix(1,0,0,1,196,-4)" class="stroke_order_diagram--existing_path"></path><path id="kvg:0723f-s3" kvg:type="㇒" d="M25.55,63.43c2.23,0.2,2.69,0.8,5.3,0.67c11.15-0.6,29.62-2.74,37.41-3.07" transform="matrix(1,0,0,1,196,-4)" class="stroke_order_diagram--current_path"></path><path id="pathSk940yk7k1nt" kvg:type="㇒" d="M25.55,63.43c2.23,0.2,2.69,0.8,5.3,0.67c11.15-0.6,29.62-2.74,37.41-3.07" transform="matrix(1,0,0,1,196,-4)" class="stroke_order_diagram--current_path"></path><circle cx="25.55" cy="63.43" r="8" class="stroke_order_diagram--path_start" transform="matrix(1,0,0,1,196,-4)"></circle><line x1="350" x2="350" y1="1" y2="99" class="stroke_order_diagram--guide_line"></line><line x1="399" x2="399" y1="1" y2="99" class="stroke_order_diagram--bounding_box"></line><path id="pathSk940yk7k1nw" kvg:type="㇄" d="M66.96,8.29c1.29,1.46,2.11,3.96,2.11,5.68c0,16.51-0.04,81.46-0.04,87.08" transform="matrix(1,0,0,1,296,-4)" class="stroke_order_diagram--existing_path"></path><path id="pathSk940yk7k1nx" kvg:type="㇐" d="M37.24,13.43c1.57,0.73,2.17,1.58,2.3,3.99c0.2,3.61-0.85,18.91-1.33,22.7c-0.16,1.21,0.27,3.01,2.61,2.82c8.24-0.66,18.16-2.42,27.7-2.95" transform="matrix(1,0,0,1,296,-4)" class="stroke_order_diagram--existing_path"></path><path id="pathSk940yk7k1ny" kvg:type="㇒" d="M25.55,63.43c2.23,0.2,2.69,0.8,5.3,0.67c11.15-0.6,29.62-2.74,37.41-3.07" transform="matrix(1,0,0,1,296,-4)" class="stroke_order_diagram--existing_path"></path><path id="kvg:0723f-s4" kvg:type="㇑" d="M45.75,66.64c0.06,0.79,0.05,2.03-0.11,3.18C44.5,78,41.25,92,26.31,100.22" transform="matrix(1,0,0,1,296,-4)" class="stroke_order_diagram--current_path"></path><path id="pathSk940yk7k1o0" kvg:type="㇑" d="M45.75,66.64c0.06,0.79,0.05,2.03-0.11,3.18C44.5,78,41.25,92,26.31,100.22" transform="matrix(1,0,0,1,296,-4)" class="stroke_order_diagram--current_path"></path><circle cx="45.75" cy="66.64" r="8" class="stroke_order_diagram--path_start" transform="matrix(1,0,0,1,296,-4)"></circle></svg>