<?xml version="1.0" encoding="UTF-8"?>
<!DOCTYPE svg PUBLIC "-//W3C//DTD SVG 1.0//EN" "http://www.w3.org/TR/2001/REC-SVG-20010904/DTD/svg10.dtd" [
<!ATTLIST g
xmlns:kvg CDATA #FIXED "http://kanjivg.tagaini.net"
kvg:element CDATA #IMPLIED
kvg:variant CDATA #IMPLIED
kvg:partial CDATA #IMPLIED
kvg:original CDATA #IMPLIED
kvg:part CDATA #IMPLIED
kvg:number CDATA #IMPLIED
kvg:tradForm CDATA #IMPLIED
kvg:radicalForm CDATA #IMPLIED
kvg:position CDATA #IMPLIED
kvg:radical CDATA #IMPLIED
kvg:phon CDATA #IMPLIED >
<!ATTLIST path
xmlns:kvg CDATA #FIXED "http://kanjivg.tagaini.net"
kvg:type CDATA #IMPLIED >
]><svg style="width: 400px; height: 100px;" xmlns="http://www.w3.org/2000/svg" xmlns:xlink="http://www.w3.org/1999/xlink" width="400px" height="100px"><style>
.stroke_order_diagram--outer_container {
  width: 100%;
  overflow-x: auto;
  overflow-y: hidden;
}

.stroke_order_diagram--guide_line {
  fill: none;
  stroke: #ddd;
  stroke-width: 3;
  stroke-linecap: square;
  stroke-linejoin: square;
  stroke-dasharray:8, 8;
}

.stroke_order_diagram--bounding_box {
  fill: none;
  stroke: #ddd;
  stroke-width: 4;
  stroke-linecap: square;
  stroke-linejoin: square;
}

.stroke_order_diagram--current_path {
  fill: none;
  stroke: #000;
  stroke-width: 6;
  stroke-linecap: round;
  stroke-linejoin: round;
}

.stroke_order_diagram--existing_path {
  fill: none;
  stroke: #aaa;
  stroke-width: 6;
  stroke-linecap: round;
  stroke-linejoin:round;
}

.stroke_order_diagram--path_start {
  fill: rgba(255, 0, 0, 0.7);
  stroke:none
}</style><desc>Created with Snap</desc><defs></defs><line x1="1" x2="399" y1="1" y2="1" class="stroke_order_diagram--bounding_box"></line><line x1="1" x2="1" y1="1" y2="99" class="stroke_order_diagram--bounding_box"></line><line x1="1" x2="399" y1="99" y2="99" class="stroke_order_diagram--bounding_box"></line><line x1="0" x2="400" y1="50" y2="50" class="stroke_order_diagram--guide_line"></line><line x1="50" x2="50" y1="1" y2="99" class="stroke_order_diagram--guide_line"></line><line x1="99" x2="99" y1="1" y2="99" class="stroke_order_diagram--bounding_box"></line><path id="kvg:07247-s1" kvg:type="㇒" d="M32.9,17.47c1.07,1.07,1.5,2.75,1.5,4.34c0,50.45-8.15,60.7-19.9,71.45" transform="matrix(1,0,0,1,-4,-4)" class="stroke_order_diagram--current_path"></path><path id="pathSk940yk7k1oe" kvg:type="㇒" d="M32.9,17.47c1.07,1.07,1.5,2.75,1.5,4.34c0,50.45-8.15,60.7-19.9,71.45" transform="matrix(1,0,0,1,-4,-4)" class="stroke_order_diagram--current_path"></path><circle cx="32.9" cy="17.47" r="8" class="stroke_order_diagram--path_start" transform="matrix(1,0,0,1,-4,-4)"></circle><line x1="150" x2="150" y1="1" y2="99" class="stroke_order_diagram--guide_line"></line><line x1="199" x2="199" y1="1" y2="99" class="stroke_order_diagram--bounding_box"></line><path id="pathSk940yk7k1oh" kvg:type="㇒" d="M32.9,17.47c1.07,1.07,1.5,2.75,1.5,4.34c0,50.45-8.15,60.7-19.9,71.45" transform="matrix(1,0,0,1,96,-4)" class="stroke_order_diagram--existing_path"></path><path id="kvg:07247-s2" kvg:type="㇑a" d="M62.54,12.75c0.92,0.92,1.37,2.12,1.37,4.02c0,3.9-0.04,16.18-0.04,19.73" transform="matrix(1,0,0,1,96,-4)" class="stroke_order_diagram--current_path"></path><path id="pathSk940yk7k1oj" kvg:type="㇑a" d="M62.54,12.75c0.92,0.92,1.37,2.12,1.37,4.02c0,3.9-0.04,16.18-0.04,19.73" transform="matrix(1,0,0,1,96,-4)" class="stroke_order_diagram--current_path"></path><circle cx="62.54" cy="12.75" r="8" class="stroke_order_diagram--path_start" transform="matrix(1,0,0,1,96,-4)"></circle><line x1="250" x2="250" y1="1" y2="99" class="stroke_order_diagram--guide_line"></line><line x1="299" x2="299" y1="1" y2="99" class="stroke_order_diagram--bounding_box"></line><path id="pathSk940yk7k1om" kvg:type="㇒" d="M32.9,17.47c1.07,1.07,1.5,2.75,1.5,4.34c0,50.45-8.15,60.7-19.9,71.45" transform="matrix(1,0,0,1,196,-4)" class="stroke_order_diagram--existing_path"></path><path id="pathSk940yk7k1on" kvg:type="㇑a" d="M62.54,12.75c0.92,0.92,1.37,2.12,1.37,4.02c0,3.9-0.04,16.18-0.04,19.73" transform="matrix(1,0,0,1,196,-4)" class="stroke_order_diagram--existing_path"></path><path id="kvg:07247-s3" kvg:type="㇐b" d="M35.35,41.27c10.77-1.02,30.16-3.55,42.52-5.43c2.69-0.41,5.75-0.84,8.13-0.59" transform="matrix(1,0,0,1,196,-4)" class="stroke_order_diagram--current_path"></path><path id="pathSk940yk7k1op" kvg:type="㇐b" d="M35.35,41.27c10.77-1.02,30.16-3.55,42.52-5.43c2.69-0.41,5.75-0.84,8.13-0.59" transform="matrix(1,0,0,1,196,-4)" class="stroke_order_diagram--current_path"></path><circle cx="35.35" cy="41.27" r="8" class="stroke_order_diagram--path_start" transform="matrix(1,0,0,1,196,-4)"></circle><line x1="350" x2="350" y1="1" y2="99" class="stroke_order_diagram--guide_line"></line><line x1="399" x2="399" y1="1" y2="99" class="stroke_order_diagram--bounding_box"></line><path id="pathSk940yk7k1os" kvg:type="㇒" d="M32.9,17.47c1.07,1.07,1.5,2.75,1.5,4.34c0,50.45-8.15,60.7-19.9,71.45" transform="matrix(1,0,0,1,296,-4)" class="stroke_order_diagram--existing_path"></path><path id="pathSk940yk7k1ot" kvg:type="㇑a" d="M62.54,12.75c0.92,0.92,1.37,2.12,1.37,4.02c0,3.9-0.04,16.18-0.04,19.73" transform="matrix(1,0,0,1,296,-4)" class="stroke_order_diagram--existing_path"></path><path id="pathSk940yk7k1ou" kvg:type="㇐b" d="M35.35,41.27c10.77-1.02,30.16-3.55,42.52-5.43c2.69-0.41,5.75-0.84,8.13-0.59" transform="matrix(1,0,0,1,296,-4)" class="stroke_order_diagram--existing_path"></path><path id="kvg:07247-s4" kvg:type="㇕" d="M34.94,62.07c2.68,0.18,4.85,0.19,7.41-0.2c10-1.54,22.53-3.81,26.5-4.63c2.39-0.49,4.61,0.76,4.61,3.22c0,5.54-0.15,23.54-0.15,28.29c0,4.48-0.07,5.65-0.07,8.5" transform="matrix(1,0,0,1,296,-4)" class="stroke_order_diagram--current_path"></path><path id="pathSk940yk7k1ow" kvg:type="㇕" d="M34.94,62.07c2.68,0.18,4.85,0.19,7.41-0.2c10-1.54,22.53-3.81,26.5-4.63c2.39-0.49,4.61,0.76,4.61,3.22c0,5.54-0.15,23.54-0.15,28.29c0,4.48-0.07,5.65-0.07,8.5" transform="matrix(1,0,0,1,296,-4)" class="stroke_order_diagram--current_path"></path><circle cx="34.94" cy="62.07" r="8" class="stroke_order_diagram--path_start" transform="matrix(1,0,0,1,296,-4)"></circle></svg>