<?xml version="1.0" encoding="UTF-8"?>
<!DOCTYPE svg PUBLIC "-//W3C//DTD SVG 1.0//EN" "http://www.w3.org/TR/2001/REC-SVG-20010904/DTD/svg10.dtd" [
<!ATTLIST g
xmlns:kvg CDATA #FIXED "http://kanjivg.tagaini.net"
kvg:element CDATA #IMPLIED
kvg:variant CDATA #IMPLIED
kvg:partial CDATA #IMPLIED
kvg:original CDATA #IMPLIED
kvg:part CDATA #IMPLIED
kvg:number CDATA #IMPLIED
kvg:tradForm CDATA #IMPLIED
kvg:radicalForm CDATA #IMPLIED
kvg:position CDATA #IMPLIED
kvg:radical CDATA #IMPLIED
kvg:phon CDATA #IMPLIED >
<!ATTLIST path
xmlns:kvg CDATA #FIXED "http://kanjivg.tagaini.net"
kvg:type CDATA #IMPLIED >
]><svg style="width: 400px; height: 100px;" xmlns="http://www.w3.org/2000/svg" xmlns:xlink="http://www.w3.org/1999/xlink" width="400px" height="100px"><style>
.stroke_order_diagram--outer_container {
  width: 100%;
  overflow-x: auto;
  overflow-y: hidden;
}

.stroke_order_diagram--guide_line {
  fill: none;
  stroke: #ddd;
  stroke-width: 3;
  stroke-linecap: square;
  stroke-linejoin: square;
  stroke-dasharray:8, 8;
}

.stroke_order_diagram--bounding_box {
  fill: none;
  stroke: #ddd;
  stroke-width: 4;
  stroke-linecap: square;
  stroke-linejoin: square;
}

.stroke_order_diagram--current_path {
  fill: none;
  stroke: #000;
  stroke-width: 6;
  stroke-linecap: round;
  stroke-linejoin: round;
}

.stroke_order_diagram--existing_path {
  fill: none;
  stroke: #aaa;
  stroke-width: 6;
  stroke-linecap: round;
  stroke-linejoin:round;
}

.stroke_order_diagram--path_start {
  fill: rgba(255, 0, 0, 0.7);
  stroke:none
}</style><desc>Created with Snap</desc><defs></defs><line x1="1" x2="399" y1="1" y2="1" class="stroke_order_diagram--bounding_box"></line><line x1="1" x2="1" y1="1" y2="99" class="stroke_order_diagram--bounding_box"></line><line x1="1" x2="399" y1="99" y2="99" class="stroke_order_diagram--bounding_box"></line><line x1="0" x2="400" y1="50" y2="50" class="stroke_order_diagram--guide_line"></line><line x1="50" x2="50" y1="1" y2="99" class="stroke_order_diagram--guide_line"></line><line x1="99" x2="99" y1="1" y2="99" class="stroke_order_diagram--bounding_box"></line><path id="kvg:07259-s1" kvg:type="㇐" d="M27.97,20.19C30.76,20.76,33.57,20.83,36.39,20.42C46.98,19.65,68.43,17.92,79.88,17.33C82.38,17.04,84.86,17.15,87.33,17.66" transform="matrix(1,0,0,1,-4,-4)" class="stroke_order_diagram--current_path"></path><path id="pathSk940yk7k1pa" kvg:type="㇐" d="M27.97,20.19C30.76,20.76,33.57,20.83,36.39,20.42C46.98,19.65,68.43,17.92,79.88,17.33C82.38,17.04,84.86,17.15,87.33,17.66" transform="matrix(1,0,0,1,-4,-4)" class="stroke_order_diagram--current_path"></path><circle cx="27.97" cy="20.19" r="8" class="stroke_order_diagram--path_start" transform="matrix(1,0,0,1,-4,-4)"></circle><line x1="150" x2="150" y1="1" y2="99" class="stroke_order_diagram--guide_line"></line><line x1="199" x2="199" y1="1" y2="99" class="stroke_order_diagram--bounding_box"></line><path id="pathSk940yk7k1pd" kvg:type="㇐" d="M27.97,20.19C30.76,20.76,33.57,20.83,36.39,20.42C46.98,19.65,68.43,17.92,79.88,17.33C82.38,17.04,84.86,17.15,87.33,17.66" transform="matrix(1,0,0,1,96,-4)" class="stroke_order_diagram--existing_path"></path><path id="kvg:07259-s2" kvg:type="㇗" d="M36.027035,29.002327C36.63294,29.740801,36.617442,30.948089,36.202703,31.897194C33.8193,37.443339,28.818986,48.888158,27.971296,50.896405C29.526062,51.996416,32.83576,51.913128,36.128742,51.475862C52.000248,49.383234,67.988763,47.686228,85.439898,46.905397C88.766311,46.759641,92.084367,46.593064,95.410781,47.03033" transform="matrix(1,0,0,1,96,-4)" class="stroke_order_diagram--current_path"></path><path id="pathSk940yk7k1pf" kvg:type="㇗" d="M36.027035,29.002327C36.63294,29.740801,36.617442,30.948089,36.202703,31.897194C33.8193,37.443339,28.818986,48.888158,27.971296,50.896405C29.526062,51.996416,32.83576,51.913128,36.128742,51.475862C52.000248,49.383234,67.988763,47.686228,85.439898,46.905397C88.766311,46.759641,92.084367,46.593064,95.410781,47.03033" transform="matrix(1,0,0,1,96,-4)" class="stroke_order_diagram--current_path"></path><circle cx="36.027035" cy="29.002327" r="8" class="stroke_order_diagram--path_start" transform="matrix(1,0,0,1,96,-4)"></circle><line x1="250" x2="250" y1="1" y2="99" class="stroke_order_diagram--guide_line"></line><line x1="299" x2="299" y1="1" y2="99" class="stroke_order_diagram--bounding_box"></line><path id="pathSk940yk7k1pi" kvg:type="㇐" d="M27.97,20.19C30.76,20.76,33.57,20.83,36.39,20.42C46.98,19.65,68.43,17.92,79.88,17.33C82.38,17.04,84.86,17.15,87.33,17.66" transform="matrix(1,0,0,1,196,-4)" class="stroke_order_diagram--existing_path"></path><path id="pathSk940yk7k1pj" kvg:type="㇗" d="M36.027035,29.002327C36.63294,29.740801,36.617442,30.948089,36.202703,31.897194C33.8193,37.443339,28.818986,48.888158,27.971296,50.896405C29.526062,51.996416,32.83576,51.913128,36.128742,51.475862C52.000248,49.383234,67.988763,47.686228,85.439898,46.905397C88.766311,46.759641,92.084367,46.593064,95.410781,47.03033" transform="matrix(1,0,0,1,196,-4)" class="stroke_order_diagram--existing_path"></path><path id="kvg:07259-s3" kvg:type="㇚" d="M65.42,21.38C66.58,22.54,66.82,24.12,66.82,26.37C66.82,45.46,66.78,82.25,66.78,88.75C66.78,101.75,58.73,90.72,57.06,89.08" transform="matrix(1,0,0,1,196,-4)" class="stroke_order_diagram--current_path"></path><path id="pathSk940yk7k1pl" kvg:type="㇚" d="M65.42,21.38C66.58,22.54,66.82,24.12,66.82,26.37C66.82,45.46,66.78,82.25,66.78,88.75C66.78,101.75,58.73,90.72,57.06,89.08" transform="matrix(1,0,0,1,196,-4)" class="stroke_order_diagram--current_path"></path><circle cx="65.42" cy="21.38" r="8" class="stroke_order_diagram--path_start" transform="matrix(1,0,0,1,196,-4)"></circle><line x1="350" x2="350" y1="1" y2="99" class="stroke_order_diagram--guide_line"></line><line x1="399" x2="399" y1="1" y2="99" class="stroke_order_diagram--bounding_box"></line><path id="pathSk940yk7k1po" kvg:type="㇐" d="M27.97,20.19C30.76,20.76,33.57,20.83,36.39,20.42C46.98,19.65,68.43,17.92,79.88,17.33C82.38,17.04,84.86,17.15,87.33,17.66" transform="matrix(1,0,0,1,296,-4)" class="stroke_order_diagram--existing_path"></path><path id="pathSk940yk7k1pp" kvg:type="㇗" d="M36.027035,29.002327C36.63294,29.740801,36.617442,30.948089,36.202703,31.897194C33.8193,37.443339,28.818986,48.888158,27.971296,50.896405C29.526062,51.996416,32.83576,51.913128,36.128742,51.475862C52.000248,49.383234,67.988763,47.686228,85.439898,46.905397C88.766311,46.759641,92.084367,46.593064,95.410781,47.03033" transform="matrix(1,0,0,1,296,-4)" class="stroke_order_diagram--existing_path"></path><path id="pathSk940yk7k1pq" kvg:type="㇚" d="M65.42,21.38C66.58,22.54,66.82,24.12,66.82,26.37C66.82,45.46,66.78,82.25,66.78,88.75C66.78,101.75,58.73,90.72,57.06,89.08" transform="matrix(1,0,0,1,296,-4)" class="stroke_order_diagram--existing_path"></path><path id="kvg:07259-s4" kvg:type="㇒" d="M63.97,48.73C63.68,50.34,63.08,51.8,62.15,53.1C55.58,63.23,37.77,79.16,13.25,90" transform="matrix(1,0,0,1,296,-4)" class="stroke_order_diagram--current_path"></path><path id="pathSk940yk7k1ps" kvg:type="㇒" d="M63.97,48.73C63.68,50.34,63.08,51.8,62.15,53.1C55.58,63.23,37.77,79.16,13.25,90" transform="matrix(1,0,0,1,296,-4)" class="stroke_order_diagram--current_path"></path><circle cx="63.97" cy="48.73" r="8" class="stroke_order_diagram--path_start" transform="matrix(1,0,0,1,296,-4)"></circle></svg>