<?xml version="1.0" encoding="UTF-8"?>
<!DOCTYPE svg PUBLIC "-//W3C//DTD SVG 1.0//EN" "http://www.w3.org/TR/2001/REC-SVG-20010904/DTD/svg10.dtd" [
<!ATTLIST g
xmlns:kvg CDATA #FIXED "http://kanjivg.tagaini.net"
kvg:element CDATA #IMPLIED
kvg:variant CDATA #IMPLIED
kvg:partial CDATA #IMPLIED
kvg:original CDATA #IMPLIED
kvg:part CDATA #IMPLIED
kvg:number CDATA #IMPLIED
kvg:tradForm CDATA #IMPLIED
kvg:radicalForm CDATA #IMPLIED
kvg:position CDATA #IMPLIED
kvg:radical CDATA #IMPLIED
kvg:phon CDATA #IMPLIED >
<!ATTLIST path
xmlns:kvg CDATA #FIXED "http://kanjivg.tagaini.net"
kvg:type CDATA #IMPLIED >
]><svg style="width: 500px; height: 100px;" xmlns="http://www.w3.org/2000/svg" xmlns:xlink="http://www.w3.org/1999/xlink"><style>
.stroke_order_diagram--outer_container {
  width: 100%;
  overflow-x: auto;
  overflow-y: hidden;
}

.stroke_order_diagram--guide_line {
  fill: none;
  stroke: #ddd;
  stroke-width: 3;
  stroke-linecap: square;
  stroke-linejoin: square;
  stroke-dasharray:8, 8;
}

.stroke_order_diagram--bounding_box {
  fill: none;
  stroke: #ddd;
  stroke-width: 4;
  stroke-linecap: square;
  stroke-linejoin: square;
}

.stroke_order_diagram--current_path {
  fill: none;
  stroke: #000;
  stroke-width: 6;
  stroke-linecap: round;
  stroke-linejoin: round;
}

.stroke_order_diagram--existing_path {
  fill: none;
  stroke: #aaa;
  stroke-width: 6;
  stroke-linecap: round;
  stroke-linejoin:round;
}

.stroke_order_diagram--path_start {
  fill: rgba(255, 0, 0, 0.7);
  stroke:none
}</style><desc>Created with Snap</desc><defs></defs><line x1="1" x2="499" y1="1" y2="1" class="stroke_order_diagram--bounding_box"></line><line x1="1" x2="1" y1="1" y2="99" class="stroke_order_diagram--bounding_box"></line><line x1="1" x2="499" y1="99" y2="99" class="stroke_order_diagram--bounding_box"></line><line x1="0" x2="500" y1="50" y2="50" class="stroke_order_diagram--guide_line"></line><line x1="50" x2="50" y1="1" y2="99" class="stroke_order_diagram--guide_line"></line><line x1="99" x2="99" y1="1" y2="99" class="stroke_order_diagram--bounding_box"></line><path id="kvg:07384-s1" kvg:type="㇑a" d="M52.11,13c1.51,1.51,1.98,3.25,1.98,5.16c0,4.45-0.09,8.02-0.09,12.34" transform="matrix(1,0,0,1,-4,-4)" class="stroke_order_diagram--current_path"></path><path id="pathSk93xdzq01sv" kvg:type="㇑a" d="M52.11,13c1.51,1.51,1.98,3.25,1.98,5.16c0,4.45-0.09,8.02-0.09,12.34" transform="matrix(1,0,0,1,-4,-4)" class="stroke_order_diagram--current_path"></path><circle cx="52.11" cy="13" r="8" class="stroke_order_diagram--path_start" transform="matrix(1,0,0,1,-4,-4)"></circle><line x1="150" x2="150" y1="1" y2="99" class="stroke_order_diagram--guide_line"></line><line x1="199" x2="199" y1="1" y2="99" class="stroke_order_diagram--bounding_box"></line><path id="pathSk93xdzq01sy" kvg:type="㇑a" d="M52.11,13c1.51,1.51,1.98,3.25,1.98,5.16c0,4.45-0.09,8.02-0.09,12.34" transform="matrix(1,0,0,1,96,-4)" class="stroke_order_diagram--existing_path"></path><path id="kvg:07384-s2" kvg:type="㇐" d="M15,33.86c3.27,0.24,6.08,0.54,9.37,0.22c13.33-1.3,44.68-3.68,60.99-4.66c3.07-0.18,6.26,0.08,9.14,0.74" transform="matrix(1,0,0,1,96,-4)" class="stroke_order_diagram--current_path"></path><path id="pathSk93xdzq01t0" kvg:type="㇐" d="M15,33.86c3.27,0.24,6.08,0.54,9.37,0.22c13.33-1.3,44.68-3.68,60.99-4.66c3.07-0.18,6.26,0.08,9.14,0.74" transform="matrix(1,0,0,1,96,-4)" class="stroke_order_diagram--current_path"></path><circle cx="15" cy="33.86" r="8" class="stroke_order_diagram--path_start" transform="matrix(1,0,0,1,96,-4)"></circle><line x1="250" x2="250" y1="1" y2="99" class="stroke_order_diagram--guide_line"></line><line x1="299" x2="299" y1="1" y2="99" class="stroke_order_diagram--bounding_box"></line><path id="pathSk93xdzq01t3" kvg:type="㇑a" d="M52.11,13c1.51,1.51,1.98,3.25,1.98,5.16c0,4.45-0.09,8.02-0.09,12.34" transform="matrix(1,0,0,1,196,-4)" class="stroke_order_diagram--existing_path"></path><path id="pathSk93xdzq01t4" kvg:type="㇐" d="M15,33.86c3.27,0.24,6.08,0.54,9.37,0.22c13.33-1.3,44.68-3.68,60.99-4.66c3.07-0.18,6.26,0.08,9.14,0.74" transform="matrix(1,0,0,1,196,-4)" class="stroke_order_diagram--existing_path"></path><path id="kvg:07384-s3" kvg:type="㇜" d="M51.59,35.12c0.37,1.31,0.35,2.62-0.43,3.97C47.75,45,42.88,51.12,37.51,56.92c-1.07,1.15-0.88,2.96,0.5,3.29c3.95,0.94,12.2,5.14,15.49,7.55" transform="matrix(1,0,0,1,196,-4)" class="stroke_order_diagram--current_path"></path><path id="pathSk93xdzq01t6" kvg:type="㇜" d="M51.59,35.12c0.37,1.31,0.35,2.62-0.43,3.97C47.75,45,42.88,51.12,37.51,56.92c-1.07,1.15-0.88,2.96,0.5,3.29c3.95,0.94,12.2,5.14,15.49,7.55" transform="matrix(1,0,0,1,196,-4)" class="stroke_order_diagram--current_path"></path><circle cx="51.59" cy="35.12" r="8" class="stroke_order_diagram--path_start" transform="matrix(1,0,0,1,196,-4)"></circle><line x1="350" x2="350" y1="1" y2="99" class="stroke_order_diagram--guide_line"></line><line x1="399" x2="399" y1="1" y2="99" class="stroke_order_diagram--bounding_box"></line><path id="pathSk93xdzq01t9" kvg:type="㇑a" d="M52.11,13c1.51,1.51,1.98,3.25,1.98,5.16c0,4.45-0.09,8.02-0.09,12.34" transform="matrix(1,0,0,1,296,-4)" class="stroke_order_diagram--existing_path"></path><path id="pathSk93xdzq01ta" kvg:type="㇐" d="M15,33.86c3.27,0.24,6.08,0.54,9.37,0.22c13.33-1.3,44.68-3.68,60.99-4.66c3.07-0.18,6.26,0.08,9.14,0.74" transform="matrix(1,0,0,1,296,-4)" class="stroke_order_diagram--existing_path"></path><path id="pathSk93xdzq01tb" kvg:type="㇜" d="M51.59,35.12c0.37,1.31,0.35,2.62-0.43,3.97C47.75,45,42.88,51.12,37.51,56.92c-1.07,1.15-0.88,2.96,0.5,3.29c3.95,0.94,12.2,5.14,15.49,7.55" transform="matrix(1,0,0,1,296,-4)" class="stroke_order_diagram--existing_path"></path><path id="kvg:07384-s4" kvg:type="㇜" d="M69.46,48.87c0.54,1.38,0.42,3.26-0.75,4.75C59.72,65.08,46.5,76,31.96,89.87c-1.67,1.59-1.03,3.1,1,2.75c12.29-2.12,29.04-4.87,42-7.25" transform="matrix(1,0,0,1,296,-4)" class="stroke_order_diagram--current_path"></path><path id="pathSk93xdzq01td" kvg:type="㇜" d="M69.46,48.87c0.54,1.38,0.42,3.26-0.75,4.75C59.72,65.08,46.5,76,31.96,89.87c-1.67,1.59-1.03,3.1,1,2.75c12.29-2.12,29.04-4.87,42-7.25" transform="matrix(1,0,0,1,296,-4)" class="stroke_order_diagram--current_path"></path><circle cx="69.46" cy="48.87" r="8" class="stroke_order_diagram--path_start" transform="matrix(1,0,0,1,296,-4)"></circle><line x1="450" x2="450" y1="1" y2="99" class="stroke_order_diagram--guide_line"></line><line x1="499" x2="499" y1="1" y2="99" class="stroke_order_diagram--bounding_box"></line><path id="pathSk93xdzq01tg" kvg:type="㇑a" d="M52.11,13c1.51,1.51,1.98,3.25,1.98,5.16c0,4.45-0.09,8.02-0.09,12.34" transform="matrix(1,0,0,1,396,-4)" class="stroke_order_diagram--existing_path"></path><path id="pathSk93xdzq01th" kvg:type="㇐" d="M15,33.86c3.27,0.24,6.08,0.54,9.37,0.22c13.33-1.3,44.68-3.68,60.99-4.66c3.07-0.18,6.26,0.08,9.14,0.74" transform="matrix(1,0,0,1,396,-4)" class="stroke_order_diagram--existing_path"></path><path id="pathSk93xdzq01ti" kvg:type="㇜" d="M51.59,35.12c0.37,1.31,0.35,2.62-0.43,3.97C47.75,45,42.88,51.12,37.51,56.92c-1.07,1.15-0.88,2.96,0.5,3.29c3.95,0.94,12.2,5.14,15.49,7.55" transform="matrix(1,0,0,1,396,-4)" class="stroke_order_diagram--existing_path"></path><path id="pathSk93xdzq01tj" kvg:type="㇜" d="M69.46,48.87c0.54,1.38,0.42,3.26-0.75,4.75C59.72,65.08,46.5,76,31.96,89.87c-1.67,1.59-1.03,3.1,1,2.75c12.29-2.12,29.04-4.87,42-7.25" transform="matrix(1,0,0,1,396,-4)" class="stroke_order_diagram--existing_path"></path><path id="kvg:07384-s5" kvg:type="㇔" d="M68.71,75.12c4.15,3.66,10.71,15.05,11.75,20.75" transform="matrix(1,0,0,1,396,-4)" class="stroke_order_diagram--current_path"></path><path id="pathSk93xdzq01tl" kvg:type="㇔" d="M68.71,75.12c4.15,3.66,10.71,15.05,11.75,20.75" transform="matrix(1,0,0,1,396,-4)" class="stroke_order_diagram--current_path"></path><circle cx="68.71" cy="75.12" r="8" class="stroke_order_diagram--path_start" transform="matrix(1,0,0,1,396,-4)"></circle></svg>