<?xml version="1.0" encoding="UTF-8"?>
<!DOCTYPE svg PUBLIC "-//W3C//DTD SVG 1.0//EN" "http://www.w3.org/TR/2001/REC-SVG-20010904/DTD/svg10.dtd" [
<!ATTLIST g
xmlns:kvg CDATA #FIXED "http://kanjivg.tagaini.net"
kvg:element CDATA #IMPLIED
kvg:variant CDATA #IMPLIED
kvg:partial CDATA #IMPLIED
kvg:original CDATA #IMPLIED
kvg:part CDATA #IMPLIED
kvg:number CDATA #IMPLIED
kvg:tradForm CDATA #IMPLIED
kvg:radicalForm CDATA #IMPLIED
kvg:position CDATA #IMPLIED
kvg:radical CDATA #IMPLIED
kvg:phon CDATA #IMPLIED >
<!ATTLIST path
xmlns:kvg CDATA #FIXED "http://kanjivg.tagaini.net"
kvg:type CDATA #IMPLIED >
]><svg style="width: 500px; height: 100px;" xmlns="http://www.w3.org/2000/svg" xmlns:xlink="http://www.w3.org/1999/xlink"><style>
.stroke_order_diagram--outer_container {
  width: 100%;
  overflow-x: auto;
  overflow-y: hidden;
}

.stroke_order_diagram--guide_line {
  fill: none;
  stroke: #ddd;
  stroke-width: 3;
  stroke-linecap: square;
  stroke-linejoin: square;
  stroke-dasharray:8, 8;
}

.stroke_order_diagram--bounding_box {
  fill: none;
  stroke: #ddd;
  stroke-width: 4;
  stroke-linecap: square;
  stroke-linejoin: square;
}

.stroke_order_diagram--current_path {
  fill: none;
  stroke: #000;
  stroke-width: 6;
  stroke-linecap: round;
  stroke-linejoin: round;
}

.stroke_order_diagram--existing_path {
  fill: none;
  stroke: #aaa;
  stroke-width: 6;
  stroke-linecap: round;
  stroke-linejoin:round;
}

.stroke_order_diagram--path_start {
  fill: rgba(255, 0, 0, 0.7);
  stroke:none
}</style><desc>Created with Snap</desc><defs></defs><line x1="1" x2="499" y1="1" y2="1" class="stroke_order_diagram--bounding_box"></line><line x1="1" x2="1" y1="1" y2="99" class="stroke_order_diagram--bounding_box"></line><line x1="1" x2="499" y1="99" y2="99" class="stroke_order_diagram--bounding_box"></line><line x1="0" x2="500" y1="50" y2="50" class="stroke_order_diagram--guide_line"></line><line x1="50" x2="50" y1="1" y2="99" class="stroke_order_diagram--guide_line"></line><line x1="99" x2="99" y1="1" y2="99" class="stroke_order_diagram--bounding_box"></line><path id="kvg:074e6-s1" kvg:type="㇐" d="M18.75,18.95c3.87,0.68,7.75,0.72,11.64,0.14c12.65-1.51,31.48-3.21,46.61-4.17c3.6-0.33,7.18-0.2,10.75,0.38" transform="matrix(1,0,0,1,-4,-4)" class="stroke_order_diagram--current_path"></path><path id="pathSk93xdzq01wk" kvg:type="㇐" d="M18.75,18.95c3.87,0.68,7.75,0.72,11.64,0.14c12.65-1.51,31.48-3.21,46.61-4.17c3.6-0.33,7.18-0.2,10.75,0.38" transform="matrix(1,0,0,1,-4,-4)" class="stroke_order_diagram--current_path"></path><circle cx="18.75" cy="18.95" r="8" class="stroke_order_diagram--path_start" transform="matrix(1,0,0,1,-4,-4)"></circle><line x1="150" x2="150" y1="1" y2="99" class="stroke_order_diagram--guide_line"></line><line x1="199" x2="199" y1="1" y2="99" class="stroke_order_diagram--bounding_box"></line><path id="pathSk93xdzq01wn" kvg:type="㇐" d="M18.75,18.95c3.87,0.68,7.75,0.72,11.64,0.14c12.65-1.51,31.48-3.21,46.61-4.17c3.6-0.33,7.18-0.2,10.75,0.38" transform="matrix(1,0,0,1,96,-4)" class="stroke_order_diagram--existing_path"></path><path id="kvg:074e6-s2" kvg:type="㇑" d="M39.37,22.75c1.06,1.06,0.95,3.25,0.71,4.25C35.88,44.5,27.5,76.88,24.5,87" transform="matrix(1,0,0,1,96,-4)" class="stroke_order_diagram--current_path"></path><path id="pathSk93xdzq01wp" kvg:type="㇑" d="M39.37,22.75c1.06,1.06,0.95,3.25,0.71,4.25C35.88,44.5,27.5,76.88,24.5,87" transform="matrix(1,0,0,1,96,-4)" class="stroke_order_diagram--current_path"></path><circle cx="39.37" cy="22.75" r="8" class="stroke_order_diagram--path_start" transform="matrix(1,0,0,1,96,-4)"></circle><line x1="250" x2="250" y1="1" y2="99" class="stroke_order_diagram--guide_line"></line><line x1="299" x2="299" y1="1" y2="99" class="stroke_order_diagram--bounding_box"></line><path id="pathSk93xdzq01ws" kvg:type="㇐" d="M18.75,18.95c3.87,0.68,7.75,0.72,11.64,0.14c12.65-1.51,31.48-3.21,46.61-4.17c3.6-0.33,7.18-0.2,10.75,0.38" transform="matrix(1,0,0,1,196,-4)" class="stroke_order_diagram--existing_path"></path><path id="pathSk93xdzq01wt" kvg:type="㇑" d="M39.37,22.75c1.06,1.06,0.95,3.25,0.71,4.25C35.88,44.5,27.5,76.88,24.5,87" transform="matrix(1,0,0,1,196,-4)" class="stroke_order_diagram--existing_path"></path><path id="kvg:074e6-s3" kvg:type="㇀" d="M14.25,89.48c0.98,0.77,2.75,1.27,4.85,0.42c7.97-3.23,23.52-8.58,31.65-11.4" transform="matrix(1,0,0,1,196,-4)" class="stroke_order_diagram--current_path"></path><path id="pathSk93xdzq01wv" kvg:type="㇀" d="M14.25,89.48c0.98,0.77,2.75,1.27,4.85,0.42c7.97-3.23,23.52-8.58,31.65-11.4" transform="matrix(1,0,0,1,196,-4)" class="stroke_order_diagram--current_path"></path><circle cx="14.25" cy="89.48" r="8" class="stroke_order_diagram--path_start" transform="matrix(1,0,0,1,196,-4)"></circle><line x1="350" x2="350" y1="1" y2="99" class="stroke_order_diagram--guide_line"></line><line x1="399" x2="399" y1="1" y2="99" class="stroke_order_diagram--bounding_box"></line><path id="pathSk93xdzq01wy" kvg:type="㇐" d="M18.75,18.95c3.87,0.68,7.75,0.72,11.64,0.14c12.65-1.51,31.48-3.21,46.61-4.17c3.6-0.33,7.18-0.2,10.75,0.38" transform="matrix(1,0,0,1,296,-4)" class="stroke_order_diagram--existing_path"></path><path id="pathSk93xdzq01wz" kvg:type="㇑" d="M39.37,22.75c1.06,1.06,0.95,3.25,0.71,4.25C35.88,44.5,27.5,76.88,24.5,87" transform="matrix(1,0,0,1,296,-4)" class="stroke_order_diagram--existing_path"></path><path id="pathSk93xdzq01x0" kvg:type="㇀" d="M14.25,89.48c0.98,0.77,2.75,1.27,4.85,0.42c7.97-3.23,23.52-8.58,31.65-11.4" transform="matrix(1,0,0,1,296,-4)" class="stroke_order_diagram--existing_path"></path><path id="kvg:074e6-s4" kvg:type="㇈" d="M41,37.79c2.16,0.43,4.29,0.37,6.4-0.18c4.63-0.8,13.07-2.55,16.89-3.32c3.02-0.61,4.84,1.06,4.15,4.14c-1.45,6.48-6.84,25.84-8.23,35.88C57.75,92,63,95,76.33,95.12c8.98,0.08,15.9-0.61,16.15-10.35" transform="matrix(1,0,0,1,296,-4)" class="stroke_order_diagram--current_path"></path><path id="pathSk93xdzq01x2" kvg:type="㇈" d="M41,37.79c2.16,0.43,4.29,0.37,6.4-0.18c4.63-0.8,13.07-2.55,16.89-3.32c3.02-0.61,4.84,1.06,4.15,4.14c-1.45,6.48-6.84,25.84-8.23,35.88C57.75,92,63,95,76.33,95.12c8.98,0.08,15.9-0.61,16.15-10.35" transform="matrix(1,0,0,1,296,-4)" class="stroke_order_diagram--current_path"></path><circle cx="41" cy="37.79" r="8" class="stroke_order_diagram--path_start" transform="matrix(1,0,0,1,296,-4)"></circle><line x1="450" x2="450" y1="1" y2="99" class="stroke_order_diagram--guide_line"></line><line x1="499" x2="499" y1="1" y2="99" class="stroke_order_diagram--bounding_box"></line><path id="pathSk93xdzq01x5" kvg:type="㇐" d="M18.75,18.95c3.87,0.68,7.75,0.72,11.64,0.14c12.65-1.51,31.48-3.21,46.61-4.17c3.6-0.33,7.18-0.2,10.75,0.38" transform="matrix(1,0,0,1,396,-4)" class="stroke_order_diagram--existing_path"></path><path id="pathSk93xdzq01x6" kvg:type="㇑" d="M39.37,22.75c1.06,1.06,0.95,3.25,0.71,4.25C35.88,44.5,27.5,76.88,24.5,87" transform="matrix(1,0,0,1,396,-4)" class="stroke_order_diagram--existing_path"></path><path id="pathSk93xdzq01x7" kvg:type="㇀" d="M14.25,89.48c0.98,0.77,2.75,1.27,4.85,0.42c7.97-3.23,23.52-8.58,31.65-11.4" transform="matrix(1,0,0,1,396,-4)" class="stroke_order_diagram--existing_path"></path><path id="pathSk93xdzq01x8" kvg:type="㇈" d="M41,37.79c2.16,0.43,4.29,0.37,6.4-0.18c4.63-0.8,13.07-2.55,16.89-3.32c3.02-0.61,4.84,1.06,4.15,4.14c-1.45,6.48-6.84,25.84-8.23,35.88C57.75,92,63,95,76.33,95.12c8.98,0.08,15.9-0.61,16.15-10.35" transform="matrix(1,0,0,1,396,-4)" class="stroke_order_diagram--existing_path"></path><path id="kvg:074e6-s5" kvg:type="㇔" d="M41.52,53.58c4.16,2.05,10.23,7.79,11.79,11.88" transform="matrix(1,0,0,1,396,-4)" class="stroke_order_diagram--current_path"></path><path id="pathSk93xdzq01xa" kvg:type="㇔" d="M41.52,53.58c4.16,2.05,10.23,7.79,11.79,11.88" transform="matrix(1,0,0,1,396,-4)" class="stroke_order_diagram--current_path"></path><circle cx="41.52" cy="53.58" r="8" class="stroke_order_diagram--path_start" transform="matrix(1,0,0,1,396,-4)"></circle></svg>