<?xml version="1.0" encoding="UTF-8"?>
<!DOCTYPE svg PUBLIC "-//W3C//DTD SVG 1.0//EN" "http://www.w3.org/TR/2001/REC-SVG-20010904/DTD/svg10.dtd" [
<!ATTLIST g
xmlns:kvg CDATA #FIXED "http://kanjivg.tagaini.net"
kvg:element CDATA #IMPLIED
kvg:variant CDATA #IMPLIED
kvg:partial CDATA #IMPLIED
kvg:original CDATA #IMPLIED
kvg:part CDATA #IMPLIED
kvg:number CDATA #IMPLIED
kvg:tradForm CDATA #IMPLIED
kvg:radicalForm CDATA #IMPLIED
kvg:position CDATA #IMPLIED
kvg:radical CDATA #IMPLIED
kvg:phon CDATA #IMPLIED >
<!ATTLIST path
xmlns:kvg CDATA #FIXED "http://kanjivg.tagaini.net"
kvg:type CDATA #IMPLIED >
]><svg style="width: 500px; height: 100px;" xmlns="http://www.w3.org/2000/svg" xmlns:xlink="http://www.w3.org/1999/xlink" width="500px" height="100px"><style>
.stroke_order_diagram--outer_container {
  width: 100%;
  overflow-x: auto;
  overflow-y: hidden;
}

.stroke_order_diagram--guide_line {
  fill: none;
  stroke: #ddd;
  stroke-width: 3;
  stroke-linecap: square;
  stroke-linejoin: square;
  stroke-dasharray:8, 8;
}

.stroke_order_diagram--bounding_box {
  fill: none;
  stroke: #ddd;
  stroke-width: 4;
  stroke-linecap: square;
  stroke-linejoin: square;
}

.stroke_order_diagram--current_path {
  fill: none;
  stroke: #000;
  stroke-width: 6;
  stroke-linecap: round;
  stroke-linejoin: round;
}

.stroke_order_diagram--existing_path {
  fill: none;
  stroke: #aaa;
  stroke-width: 6;
  stroke-linecap: round;
  stroke-linejoin:round;
}

.stroke_order_diagram--path_start {
  fill: rgba(255, 0, 0, 0.7);
  stroke:none
}</style><desc>Created with Snap</desc><defs></defs><line x1="1" x2="499" y1="1" y2="1" class="stroke_order_diagram--bounding_box"></line><line x1="1" x2="1" y1="1" y2="99" class="stroke_order_diagram--bounding_box"></line><line x1="1" x2="499" y1="99" y2="99" class="stroke_order_diagram--bounding_box"></line><line x1="0" x2="500" y1="50" y2="50" class="stroke_order_diagram--guide_line"></line><line x1="50" x2="50" y1="1" y2="99" class="stroke_order_diagram--guide_line"></line><line x1="99" x2="99" y1="1" y2="99" class="stroke_order_diagram--bounding_box"></line><path id="kvg:07528-s1" kvg:type="㇒" d="M25.44,16.14c0.83,1.04,1.1,2.36,1.15,3.86C28.12,65.5,24.5,82,13.75,95" transform="matrix(1,0,0,1,-4,-4)" class="stroke_order_diagram--current_path"></path><path id="pathSk940yk7k1zz" kvg:type="㇒" d="M25.44,16.14c0.83,1.04,1.1,2.36,1.15,3.86C28.12,65.5,24.5,82,13.75,95" transform="matrix(1,0,0,1,-4,-4)" class="stroke_order_diagram--current_path"></path><circle cx="25.44" cy="16.14" r="8" class="stroke_order_diagram--path_start" transform="matrix(1,0,0,1,-4,-4)"></circle><line x1="150" x2="150" y1="1" y2="99" class="stroke_order_diagram--guide_line"></line><line x1="199" x2="199" y1="1" y2="99" class="stroke_order_diagram--bounding_box"></line><path id="pathSk940yk7k202" kvg:type="㇒" d="M25.44,16.14c0.83,1.04,1.1,2.36,1.15,3.86C28.12,65.5,24.5,82,13.75,95" transform="matrix(1,0,0,1,96,-4)" class="stroke_order_diagram--existing_path"></path><path id="kvg:07528-s2" kvg:type="㇆a" d="M27.8,18.84C43.75,17,71.5,14,81.92,13.47c4.07-0.21,5.75,2.03,5.75,5.18c0,6.1-0.32,50.35-0.32,71.37c0,14.98-8.09,2.23-9.84,1.34" transform="matrix(1,0,0,1,96,-4)" class="stroke_order_diagram--current_path"></path><path id="pathSk940yk7k204" kvg:type="㇆a" d="M27.8,18.84C43.75,17,71.5,14,81.92,13.47c4.07-0.21,5.75,2.03,5.75,5.18c0,6.1-0.32,50.35-0.32,71.37c0,14.98-8.09,2.23-9.84,1.34" transform="matrix(1,0,0,1,96,-4)" class="stroke_order_diagram--current_path"></path><circle cx="27.8" cy="18.84" r="8" class="stroke_order_diagram--path_start" transform="matrix(1,0,0,1,96,-4)"></circle><line x1="250" x2="250" y1="1" y2="99" class="stroke_order_diagram--guide_line"></line><line x1="299" x2="299" y1="1" y2="99" class="stroke_order_diagram--bounding_box"></line><path id="pathSk940yk7k207" kvg:type="㇒" d="M25.44,16.14c0.83,1.04,1.1,2.36,1.15,3.86C28.12,65.5,24.5,82,13.75,95" transform="matrix(1,0,0,1,196,-4)" class="stroke_order_diagram--existing_path"></path><path id="pathSk940yk7k208" kvg:type="㇆a" d="M27.8,18.84C43.75,17,71.5,14,81.92,13.47c4.07-0.21,5.75,2.03,5.75,5.18c0,6.1-0.32,50.35-0.32,71.37c0,14.98-8.09,2.23-9.84,1.34" transform="matrix(1,0,0,1,196,-4)" class="stroke_order_diagram--existing_path"></path><path id="kvg:07528-s3" kvg:type="㇐a" d="M27.99,40.91c16.26-1.66,41.51-3.66,58.25-4.7" transform="matrix(1,0,0,1,196,-4)" class="stroke_order_diagram--current_path"></path><path id="pathSk940yk7k20a" kvg:type="㇐a" d="M27.99,40.91c16.26-1.66,41.51-3.66,58.25-4.7" transform="matrix(1,0,0,1,196,-4)" class="stroke_order_diagram--current_path"></path><circle cx="27.99" cy="40.91" r="8" class="stroke_order_diagram--path_start" transform="matrix(1,0,0,1,196,-4)"></circle><line x1="350" x2="350" y1="1" y2="99" class="stroke_order_diagram--guide_line"></line><line x1="399" x2="399" y1="1" y2="99" class="stroke_order_diagram--bounding_box"></line><path id="pathSk940yk7k20d" kvg:type="㇒" d="M25.44,16.14c0.83,1.04,1.1,2.36,1.15,3.86C28.12,65.5,24.5,82,13.75,95" transform="matrix(1,0,0,1,296,-4)" class="stroke_order_diagram--existing_path"></path><path id="pathSk940yk7k20e" kvg:type="㇆a" d="M27.8,18.84C43.75,17,71.5,14,81.92,13.47c4.07-0.21,5.75,2.03,5.75,5.18c0,6.1-0.32,50.35-0.32,71.37c0,14.98-8.09,2.23-9.84,1.34" transform="matrix(1,0,0,1,296,-4)" class="stroke_order_diagram--existing_path"></path><path id="pathSk940yk7k20f" kvg:type="㇐a" d="M27.99,40.91c16.26-1.66,41.51-3.66,58.25-4.7" transform="matrix(1,0,0,1,296,-4)" class="stroke_order_diagram--existing_path"></path><path id="kvg:07528-s4" kvg:type="㇐a" d="M27.25,62c14.88-1.38,43-3.25,59-4.25" transform="matrix(1,0,0,1,296,-4)" class="stroke_order_diagram--current_path"></path><path id="pathSk940yk7k20h" kvg:type="㇐a" d="M27.25,62c14.88-1.38,43-3.25,59-4.25" transform="matrix(1,0,0,1,296,-4)" class="stroke_order_diagram--current_path"></path><circle cx="27.25" cy="62" r="8" class="stroke_order_diagram--path_start" transform="matrix(1,0,0,1,296,-4)"></circle><line x1="450" x2="450" y1="1" y2="99" class="stroke_order_diagram--guide_line"></line><line x1="499" x2="499" y1="1" y2="99" class="stroke_order_diagram--bounding_box"></line><path id="pathSk940yk7k20k" kvg:type="㇒" d="M25.44,16.14c0.83,1.04,1.1,2.36,1.15,3.86C28.12,65.5,24.5,82,13.75,95" transform="matrix(1,0,0,1,396,-4)" class="stroke_order_diagram--existing_path"></path><path id="pathSk940yk7k20l" kvg:type="㇆a" d="M27.8,18.84C43.75,17,71.5,14,81.92,13.47c4.07-0.21,5.75,2.03,5.75,5.18c0,6.1-0.32,50.35-0.32,71.37c0,14.98-8.09,2.23-9.84,1.34" transform="matrix(1,0,0,1,396,-4)" class="stroke_order_diagram--existing_path"></path><path id="pathSk940yk7k20m" kvg:type="㇐a" d="M27.99,40.91c16.26-1.66,41.51-3.66,58.25-4.7" transform="matrix(1,0,0,1,396,-4)" class="stroke_order_diagram--existing_path"></path><path id="pathSk940yk7k20n" kvg:type="㇐a" d="M27.25,62c14.88-1.38,43-3.25,59-4.25" transform="matrix(1,0,0,1,396,-4)" class="stroke_order_diagram--existing_path"></path><path id="kvg:07528-s5" kvg:type="㇑" d="M53.62,19.5c1.13,1,1.96,2.5,1.96,4.25c0,3.66,0,42.87-0.12,60.75c-0.03,4.11-0.06,7.09-0.1,8.25" transform="matrix(1,0,0,1,396,-4)" class="stroke_order_diagram--current_path"></path><path id="pathSk940yk7k20p" kvg:type="㇑" d="M53.62,19.5c1.13,1,1.96,2.5,1.96,4.25c0,3.66,0,42.87-0.12,60.75c-0.03,4.11-0.06,7.09-0.1,8.25" transform="matrix(1,0,0,1,396,-4)" class="stroke_order_diagram--current_path"></path><circle cx="53.62" cy="19.5" r="8" class="stroke_order_diagram--path_start" transform="matrix(1,0,0,1,396,-4)"></circle></svg>