<?xml version="1.0" encoding="UTF-8"?>
<!DOCTYPE svg PUBLIC "-//W3C//DTD SVG 1.0//EN" "http://www.w3.org/TR/2001/REC-SVG-20010904/DTD/svg10.dtd" [
<!ATTLIST g
xmlns:kvg CDATA #FIXED "http://kanjivg.tagaini.net"
kvg:element CDATA #IMPLIED
kvg:variant CDATA #IMPLIED
kvg:partial CDATA #IMPLIED
kvg:original CDATA #IMPLIED
kvg:part CDATA #IMPLIED
kvg:number CDATA #IMPLIED
kvg:tradForm CDATA #IMPLIED
kvg:radicalForm CDATA #IMPLIED
kvg:position CDATA #IMPLIED
kvg:radical CDATA #IMPLIED
kvg:phon CDATA #IMPLIED >
<!ATTLIST path
xmlns:kvg CDATA #FIXED "http://kanjivg.tagaini.net"
kvg:type CDATA #IMPLIED >
]><svg style="width: 700px; height: 100px;" xmlns="http://www.w3.org/2000/svg" xmlns:xlink="http://www.w3.org/1999/xlink"><style>
.stroke_order_diagram--outer_container {
  width: 100%;
  overflow-x: auto;
  overflow-y: hidden;
}

.stroke_order_diagram--guide_line {
  fill: none;
  stroke: #ddd;
  stroke-width: 3;
  stroke-linecap: square;
  stroke-linejoin: square;
  stroke-dasharray:8, 8;
}

.stroke_order_diagram--bounding_box {
  fill: none;
  stroke: #ddd;
  stroke-width: 4;
  stroke-linecap: square;
  stroke-linejoin: square;
}

.stroke_order_diagram--current_path {
  fill: none;
  stroke: #000;
  stroke-width: 6;
  stroke-linecap: round;
  stroke-linejoin: round;
}

.stroke_order_diagram--existing_path {
  fill: none;
  stroke: #aaa;
  stroke-width: 6;
  stroke-linecap: round;
  stroke-linejoin:round;
}

.stroke_order_diagram--path_start {
  fill: rgba(255, 0, 0, 0.7);
  stroke:none
}</style><desc>Created with Snap</desc><defs></defs><line x1="1" x2="699" y1="1" y2="1" class="stroke_order_diagram--bounding_box"></line><line x1="1" x2="1" y1="1" y2="99" class="stroke_order_diagram--bounding_box"></line><line x1="1" x2="699" y1="99" y2="99" class="stroke_order_diagram--bounding_box"></line><line x1="0" x2="700" y1="50" y2="50" class="stroke_order_diagram--guide_line"></line><line x1="50" x2="50" y1="1" y2="99" class="stroke_order_diagram--guide_line"></line><line x1="99" x2="99" y1="1" y2="99" class="stroke_order_diagram--bounding_box"></line><path id="kvg:07594-s1" kvg:type="㇑a" d="M54.88,10.38c0.71,0.36,2.23,2.72,2.37,3.44c0.14,0.73,0.07,4.39-0.07,8.92" transform="matrix(1,0,0,1,-4,-4)" class="stroke_order_diagram--current_path"></path><path id="pathSk93xdzq023g" kvg:type="㇑a" d="M54.88,10.38c0.71,0.36,2.23,2.72,2.37,3.44c0.14,0.73,0.07,4.39-0.07,8.92" transform="matrix(1,0,0,1,-4,-4)" class="stroke_order_diagram--current_path"></path><circle cx="54.88" cy="10.38" r="8" class="stroke_order_diagram--path_start" transform="matrix(1,0,0,1,-4,-4)"></circle><line x1="150" x2="150" y1="1" y2="99" class="stroke_order_diagram--guide_line"></line><line x1="199" x2="199" y1="1" y2="99" class="stroke_order_diagram--bounding_box"></line><path id="pathSk93xdzq023j" kvg:type="㇑a" d="M54.88,10.38c0.71,0.36,2.23,2.72,2.37,3.44c0.14,0.73,0.07,4.39-0.07,8.92" transform="matrix(1,0,0,1,96,-4)" class="stroke_order_diagram--existing_path"></path><path id="kvg:07594-s2" kvg:type="㇐" d="M24.38,24.64c1.73,0.39,4.89,0.45,6.61,0.39c17.95-0.65,38.12-3.24,54.1-3.74c2.87-0.09,4.6,0.19,6.04,0.38" transform="matrix(1,0,0,1,96,-4)" class="stroke_order_diagram--current_path"></path><path id="pathSk93xdzq023l" kvg:type="㇐" d="M24.38,24.64c1.73,0.39,4.89,0.45,6.61,0.39c17.95-0.65,38.12-3.24,54.1-3.74c2.87-0.09,4.6,0.19,6.04,0.38" transform="matrix(1,0,0,1,96,-4)" class="stroke_order_diagram--current_path"></path><circle cx="24.38" cy="24.64" r="8" class="stroke_order_diagram--path_start" transform="matrix(1,0,0,1,96,-4)"></circle><line x1="250" x2="250" y1="1" y2="99" class="stroke_order_diagram--guide_line"></line><line x1="299" x2="299" y1="1" y2="99" class="stroke_order_diagram--bounding_box"></line><path id="pathSk93xdzq023o" kvg:type="㇑a" d="M54.88,10.38c0.71,0.36,2.23,2.72,2.37,3.44c0.14,0.73,0.07,4.39-0.07,8.92" transform="matrix(1,0,0,1,196,-4)" class="stroke_order_diagram--existing_path"></path><path id="pathSk93xdzq023p" kvg:type="㇐" d="M24.38,24.64c1.73,0.39,4.89,0.45,6.61,0.39c17.95-0.65,38.12-3.24,54.1-3.74c2.87-0.09,4.6,0.19,6.04,0.38" transform="matrix(1,0,0,1,196,-4)" class="stroke_order_diagram--existing_path"></path><path id="kvg:07594-s3" kvg:type="㇒" d="M31.99,25.5c0,1.18,0,2.35-0.01,3.5c-0.27,32.91-4.43,51.74-17.42,65.72" transform="matrix(1,0,0,1,196,-4)" class="stroke_order_diagram--current_path"></path><path id="pathSk93xdzq023r" kvg:type="㇒" d="M31.99,25.5c0,1.18,0,2.35-0.01,3.5c-0.27,32.91-4.43,51.74-17.42,65.72" transform="matrix(1,0,0,1,196,-4)" class="stroke_order_diagram--current_path"></path><circle cx="31.99" cy="25.5" r="8" class="stroke_order_diagram--path_start" transform="matrix(1,0,0,1,196,-4)"></circle><line x1="350" x2="350" y1="1" y2="99" class="stroke_order_diagram--guide_line"></line><line x1="399" x2="399" y1="1" y2="99" class="stroke_order_diagram--bounding_box"></line><path id="pathSk93xdzq023u" kvg:type="㇑a" d="M54.88,10.38c0.71,0.36,2.23,2.72,2.37,3.44c0.14,0.73,0.07,4.39-0.07,8.92" transform="matrix(1,0,0,1,296,-4)" class="stroke_order_diagram--existing_path"></path><path id="pathSk93xdzq023v" kvg:type="㇐" d="M24.38,24.64c1.73,0.39,4.89,0.45,6.61,0.39c17.95-0.65,38.12-3.24,54.1-3.74c2.87-0.09,4.6,0.19,6.04,0.38" transform="matrix(1,0,0,1,296,-4)" class="stroke_order_diagram--existing_path"></path><path id="pathSk93xdzq023w" kvg:type="㇒" d="M31.99,25.5c0,1.18,0,2.35-0.01,3.5c-0.27,32.91-4.43,51.74-17.42,65.72" transform="matrix(1,0,0,1,296,-4)" class="stroke_order_diagram--existing_path"></path><path id="kvg:07594-s4" kvg:type="㇔" d="M14.75,38c2.74,1.63,7.07,6.71,7.75,9.25" transform="matrix(1,0,0,1,296,-4)" class="stroke_order_diagram--current_path"></path><path id="pathSk93xdzq023y" kvg:type="㇔" d="M14.75,38c2.74,1.63,7.07,6.71,7.75,9.25" transform="matrix(1,0,0,1,296,-4)" class="stroke_order_diagram--current_path"></path><circle cx="14.75" cy="38" r="8" class="stroke_order_diagram--path_start" transform="matrix(1,0,0,1,296,-4)"></circle><line x1="450" x2="450" y1="1" y2="99" class="stroke_order_diagram--guide_line"></line><line x1="499" x2="499" y1="1" y2="99" class="stroke_order_diagram--bounding_box"></line><path id="pathSk93xdzq0241" kvg:type="㇑a" d="M54.88,10.38c0.71,0.36,2.23,2.72,2.37,3.44c0.14,0.73,0.07,4.39-0.07,8.92" transform="matrix(1,0,0,1,396,-4)" class="stroke_order_diagram--existing_path"></path><path id="pathSk93xdzq0242" kvg:type="㇐" d="M24.38,24.64c1.73,0.39,4.89,0.45,6.61,0.39c17.95-0.65,38.12-3.24,54.1-3.74c2.87-0.09,4.6,0.19,6.04,0.38" transform="matrix(1,0,0,1,396,-4)" class="stroke_order_diagram--existing_path"></path><path id="pathSk93xdzq0243" kvg:type="㇒" d="M31.99,25.5c0,1.18,0,2.35-0.01,3.5c-0.27,32.91-4.43,51.74-17.42,65.72" transform="matrix(1,0,0,1,396,-4)" class="stroke_order_diagram--existing_path"></path><path id="pathSk93xdzq0244" kvg:type="㇔" d="M14.75,38c2.74,1.63,7.07,6.71,7.75,9.25" transform="matrix(1,0,0,1,396,-4)" class="stroke_order_diagram--existing_path"></path><path id="kvg:07594-s5" kvg:type="㇀" d="M11.17,66.01c1.46,0.72,1.91,0.51,3.2-0.37c5.2-3.55,8.2-5.82,12.13-8.89" transform="matrix(1,0,0,1,396,-4)" class="stroke_order_diagram--current_path"></path><path id="pathSk93xdzq0246" kvg:type="㇀" d="M11.17,66.01c1.46,0.72,1.91,0.51,3.2-0.37c5.2-3.55,8.2-5.82,12.13-8.89" transform="matrix(1,0,0,1,396,-4)" class="stroke_order_diagram--current_path"></path><circle cx="11.17" cy="66.01" r="8" class="stroke_order_diagram--path_start" transform="matrix(1,0,0,1,396,-4)"></circle><line x1="550" x2="550" y1="1" y2="99" class="stroke_order_diagram--guide_line"></line><line x1="599" x2="599" y1="1" y2="99" class="stroke_order_diagram--bounding_box"></line><path id="pathSk93xdzq0249" kvg:type="㇑a" d="M54.88,10.38c0.71,0.36,2.23,2.72,2.37,3.44c0.14,0.73,0.07,4.39-0.07,8.92" transform="matrix(1,0,0,1,496,-4)" class="stroke_order_diagram--existing_path"></path><path id="pathSk93xdzq024a" kvg:type="㇐" d="M24.38,24.64c1.73,0.39,4.89,0.45,6.61,0.39c17.95-0.65,38.12-3.24,54.1-3.74c2.87-0.09,4.6,0.19,6.04,0.38" transform="matrix(1,0,0,1,496,-4)" class="stroke_order_diagram--existing_path"></path><path id="pathSk93xdzq024b" kvg:type="㇒" d="M31.99,25.5c0,1.18,0,2.35-0.01,3.5c-0.27,32.91-4.43,51.74-17.42,65.72" transform="matrix(1,0,0,1,496,-4)" class="stroke_order_diagram--existing_path"></path><path id="pathSk93xdzq024c" kvg:type="㇔" d="M14.75,38c2.74,1.63,7.07,6.71,7.75,9.25" transform="matrix(1,0,0,1,496,-4)" class="stroke_order_diagram--existing_path"></path><path id="pathSk93xdzq024d" kvg:type="㇀" d="M11.17,66.01c1.46,0.72,1.91,0.51,3.2-0.37c5.2-3.55,8.2-5.82,12.13-8.89" transform="matrix(1,0,0,1,496,-4)" class="stroke_order_diagram--existing_path"></path><path id="kvg:07594-s6" kvg:type="㇐" d="M38.75,44.08c1.76,0.56,5,0.75,6.76,0.56c9.48-0.99,31-2.49,41.07-3.48c2.92-0.29,4.7,0.27,6.17,0.55" transform="matrix(1,0,0,1,496,-4)" class="stroke_order_diagram--current_path"></path><path id="pathSk93xdzq024f" kvg:type="㇐" d="M38.75,44.08c1.76,0.56,5,0.75,6.76,0.56c9.48-0.99,31-2.49,41.07-3.48c2.92-0.29,4.7,0.27,6.17,0.55" transform="matrix(1,0,0,1,496,-4)" class="stroke_order_diagram--current_path"></path><circle cx="38.75" cy="44.08" r="8" class="stroke_order_diagram--path_start" transform="matrix(1,0,0,1,496,-4)"></circle><line x1="650" x2="650" y1="1" y2="99" class="stroke_order_diagram--guide_line"></line><line x1="699" x2="699" y1="1" y2="99" class="stroke_order_diagram--bounding_box"></line><path id="pathSk93xdzq024i" kvg:type="㇑a" d="M54.88,10.38c0.71,0.36,2.23,2.72,2.37,3.44c0.14,0.73,0.07,4.39-0.07,8.92" transform="matrix(1,0,0,1,596,-4)" class="stroke_order_diagram--existing_path"></path><path id="pathSk93xdzq024j" kvg:type="㇐" d="M24.38,24.64c1.73,0.39,4.89,0.45,6.61,0.39c17.95-0.65,38.12-3.24,54.1-3.74c2.87-0.09,4.6,0.19,6.04,0.38" transform="matrix(1,0,0,1,596,-4)" class="stroke_order_diagram--existing_path"></path><path id="pathSk93xdzq024k" kvg:type="㇒" d="M31.99,25.5c0,1.18,0,2.35-0.01,3.5c-0.27,32.91-4.43,51.74-17.42,65.72" transform="matrix(1,0,0,1,596,-4)" class="stroke_order_diagram--existing_path"></path><path id="pathSk93xdzq024l" kvg:type="㇔" d="M14.75,38c2.74,1.63,7.07,6.71,7.75,9.25" transform="matrix(1,0,0,1,596,-4)" class="stroke_order_diagram--existing_path"></path><path id="pathSk93xdzq024m" kvg:type="㇀" d="M11.17,66.01c1.46,0.72,1.91,0.51,3.2-0.37c5.2-3.55,8.2-5.82,12.13-8.89" transform="matrix(1,0,0,1,596,-4)" class="stroke_order_diagram--existing_path"></path><path id="pathSk93xdzq024n" kvg:type="㇐" d="M38.75,44.08c1.76,0.56,5,0.75,6.76,0.56c9.48-0.99,31-2.49,41.07-3.48c2.92-0.29,4.7,0.27,6.17,0.55" transform="matrix(1,0,0,1,596,-4)" class="stroke_order_diagram--existing_path"></path><path id="kvg:07594-s7" kvg:type="㇚" d="M65.52,45.49c0.73,0.92,1.75,2.5,1.75,5.56c0,21.45-0.25,35.05-0.25,40.05c0,10.15-6.06,2.43-7.46,1.25" transform="matrix(1,0,0,1,596,-4)" class="stroke_order_diagram--current_path"></path><path id="pathSk93xdzq024p" kvg:type="㇚" d="M65.52,45.49c0.73,0.92,1.75,2.5,1.75,5.56c0,21.45-0.25,35.05-0.25,40.05c0,10.15-6.06,2.43-7.46,1.25" transform="matrix(1,0,0,1,596,-4)" class="stroke_order_diagram--current_path"></path><circle cx="65.52" cy="45.49" r="8" class="stroke_order_diagram--path_start" transform="matrix(1,0,0,1,596,-4)"></circle></svg>