<?xml version="1.0" encoding="UTF-8"?>
<!DOCTYPE svg PUBLIC "-//W3C//DTD SVG 1.0//EN" "http://www.w3.org/TR/2001/REC-SVG-20010904/DTD/svg10.dtd" [
<!ATTLIST g
xmlns:kvg CDATA #FIXED "http://kanjivg.tagaini.net"
kvg:element CDATA #IMPLIED
kvg:variant CDATA #IMPLIED
kvg:partial CDATA #IMPLIED
kvg:original CDATA #IMPLIED
kvg:part CDATA #IMPLIED
kvg:number CDATA #IMPLIED
kvg:tradForm CDATA #IMPLIED
kvg:radicalForm CDATA #IMPLIED
kvg:position CDATA #IMPLIED
kvg:radical CDATA #IMPLIED
kvg:phon CDATA #IMPLIED >
<!ATTLIST path
xmlns:kvg CDATA #FIXED "http://kanjivg.tagaini.net"
kvg:type CDATA #IMPLIED >
]><svg style="width: 500px; height: 100px;" xmlns="http://www.w3.org/2000/svg" xmlns:xlink="http://www.w3.org/1999/xlink"><style>
.stroke_order_diagram--outer_container {
  width: 100%;
  overflow-x: auto;
  overflow-y: hidden;
}

.stroke_order_diagram--guide_line {
  fill: none;
  stroke: #ddd;
  stroke-width: 3;
  stroke-linecap: square;
  stroke-linejoin: square;
  stroke-dasharray:8, 8;
}

.stroke_order_diagram--bounding_box {
  fill: none;
  stroke: #ddd;
  stroke-width: 4;
  stroke-linecap: square;
  stroke-linejoin: square;
}

.stroke_order_diagram--current_path {
  fill: none;
  stroke: #000;
  stroke-width: 6;
  stroke-linecap: round;
  stroke-linejoin: round;
}

.stroke_order_diagram--existing_path {
  fill: none;
  stroke: #aaa;
  stroke-width: 6;
  stroke-linecap: round;
  stroke-linejoin:round;
}

.stroke_order_diagram--path_start {
  fill: rgba(255, 0, 0, 0.7);
  stroke:none
}</style><desc>Created with Snap</desc><defs></defs><line x1="1" x2="499" y1="1" y2="1" class="stroke_order_diagram--bounding_box"></line><line x1="1" x2="1" y1="1" y2="99" class="stroke_order_diagram--bounding_box"></line><line x1="1" x2="499" y1="99" y2="99" class="stroke_order_diagram--bounding_box"></line><line x1="0" x2="500" y1="50" y2="50" class="stroke_order_diagram--guide_line"></line><line x1="50" x2="50" y1="1" y2="99" class="stroke_order_diagram--guide_line"></line><line x1="99" x2="99" y1="1" y2="99" class="stroke_order_diagram--bounding_box"></line><path id="kvg:0767d-s1" kvg:type="㇒" d="M55,13c0.38,1.5,0,3.25-0.57,4.29C51.32,22.93,46,31.12,36.81,40.22" transform="matrix(1,0,0,1,-4,-4)" class="stroke_order_diagram--current_path"></path><path id="pathSk93xdzq0269" kvg:type="㇒" d="M55,13c0.38,1.5,0,3.25-0.57,4.29C51.32,22.93,46,31.12,36.81,40.22" transform="matrix(1,0,0,1,-4,-4)" class="stroke_order_diagram--current_path"></path><circle cx="55" cy="13" r="8" class="stroke_order_diagram--path_start" transform="matrix(1,0,0,1,-4,-4)"></circle><line x1="150" x2="150" y1="1" y2="99" class="stroke_order_diagram--guide_line"></line><line x1="199" x2="199" y1="1" y2="99" class="stroke_order_diagram--bounding_box"></line><path id="pathSk93xdzq026c" kvg:type="㇒" d="M55,13c0.38,1.5,0,3.25-0.57,4.29C51.32,22.93,46,31.12,36.81,40.22" transform="matrix(1,0,0,1,96,-4)" class="stroke_order_diagram--existing_path"></path><path id="kvg:0767d-s2" kvg:type="㇑" d="M25.5,40.47c1.14,1.14,1.63,2.81,1.63,4.63c0,1.55,0.95,32.47,1.32,47.14c0.06,2.58,0.13,4.66,0.18,6" transform="matrix(1,0,0,1,96,-4)" class="stroke_order_diagram--current_path"></path><path id="pathSk93xdzq026e" kvg:type="㇑" d="M25.5,40.47c1.14,1.14,1.63,2.81,1.63,4.63c0,1.55,0.95,32.47,1.32,47.14c0.06,2.58,0.13,4.66,0.18,6" transform="matrix(1,0,0,1,96,-4)" class="stroke_order_diagram--current_path"></path><circle cx="25.5" cy="40.47" r="8" class="stroke_order_diagram--path_start" transform="matrix(1,0,0,1,96,-4)"></circle><line x1="250" x2="250" y1="1" y2="99" class="stroke_order_diagram--guide_line"></line><line x1="299" x2="299" y1="1" y2="99" class="stroke_order_diagram--bounding_box"></line><path id="pathSk93xdzq026h" kvg:type="㇒" d="M55,13c0.38,1.5,0,3.25-0.57,4.29C51.32,22.93,46,31.12,36.81,40.22" transform="matrix(1,0,0,1,196,-4)" class="stroke_order_diagram--existing_path"></path><path id="pathSk93xdzq026i" kvg:type="㇑" d="M25.5,40.47c1.14,1.14,1.63,2.81,1.63,4.63c0,1.55,0.95,32.47,1.32,47.14c0.06,2.58,0.13,4.66,0.18,6" transform="matrix(1,0,0,1,196,-4)" class="stroke_order_diagram--existing_path"></path><path id="kvg:0767d-s3" kvg:type="㇕a" d="M28.27,43.98c13.98-1.73,39.08-4.47,49.67-5.48c5.19-0.5,7.37,0.76,7.06,5.38c-0.62,9.12-2.09,30.3-3.29,46.88c-0.17,2.42-0.33,4.65-0.46,6.57" transform="matrix(1,0,0,1,196,-4)" class="stroke_order_diagram--current_path"></path><path id="pathSk93xdzq026k" kvg:type="㇕a" d="M28.27,43.98c13.98-1.73,39.08-4.47,49.67-5.48c5.19-0.5,7.37,0.76,7.06,5.38c-0.62,9.12-2.09,30.3-3.29,46.88c-0.17,2.42-0.33,4.65-0.46,6.57" transform="matrix(1,0,0,1,196,-4)" class="stroke_order_diagram--current_path"></path><circle cx="28.27" cy="43.98" r="8" class="stroke_order_diagram--path_start" transform="matrix(1,0,0,1,196,-4)"></circle><line x1="350" x2="350" y1="1" y2="99" class="stroke_order_diagram--guide_line"></line><line x1="399" x2="399" y1="1" y2="99" class="stroke_order_diagram--bounding_box"></line><path id="pathSk93xdzq026n" kvg:type="㇒" d="M55,13c0.38,1.5,0,3.25-0.57,4.29C51.32,22.93,46,31.12,36.81,40.22" transform="matrix(1,0,0,1,296,-4)" class="stroke_order_diagram--existing_path"></path><path id="pathSk93xdzq026o" kvg:type="㇑" d="M25.5,40.47c1.14,1.14,1.63,2.81,1.63,4.63c0,1.55,0.95,32.47,1.32,47.14c0.06,2.58,0.13,4.66,0.18,6" transform="matrix(1,0,0,1,296,-4)" class="stroke_order_diagram--existing_path"></path><path id="pathSk93xdzq026p" kvg:type="㇕a" d="M28.27,43.98c13.98-1.73,39.08-4.47,49.67-5.48c5.19-0.5,7.37,0.76,7.06,5.38c-0.62,9.12-2.09,30.3-3.29,46.88c-0.17,2.42-0.33,4.65-0.46,6.57" transform="matrix(1,0,0,1,296,-4)" class="stroke_order_diagram--existing_path"></path><path id="kvg:0767d-s4" kvg:type="㇐a" d="M29.13,67.44C42.25,66,72.38,63.62,82.57,63.4" transform="matrix(1,0,0,1,296,-4)" class="stroke_order_diagram--current_path"></path><path id="pathSk93xdzq026r" kvg:type="㇐a" d="M29.13,67.44C42.25,66,72.38,63.62,82.57,63.4" transform="matrix(1,0,0,1,296,-4)" class="stroke_order_diagram--current_path"></path><circle cx="29.13" cy="67.44" r="8" class="stroke_order_diagram--path_start" transform="matrix(1,0,0,1,296,-4)"></circle><line x1="450" x2="450" y1="1" y2="99" class="stroke_order_diagram--guide_line"></line><line x1="499" x2="499" y1="1" y2="99" class="stroke_order_diagram--bounding_box"></line><path id="pathSk93xdzq026u" kvg:type="㇒" d="M55,13c0.38,1.5,0,3.25-0.57,4.29C51.32,22.93,46,31.12,36.81,40.22" transform="matrix(1,0,0,1,396,-4)" class="stroke_order_diagram--existing_path"></path><path id="pathSk93xdzq026v" kvg:type="㇑" d="M25.5,40.47c1.14,1.14,1.63,2.81,1.63,4.63c0,1.55,0.95,32.47,1.32,47.14c0.06,2.58,0.13,4.66,0.18,6" transform="matrix(1,0,0,1,396,-4)" class="stroke_order_diagram--existing_path"></path><path id="pathSk93xdzq026w" kvg:type="㇕a" d="M28.27,43.98c13.98-1.73,39.08-4.47,49.67-5.48c5.19-0.5,7.37,0.76,7.06,5.38c-0.62,9.12-2.09,30.3-3.29,46.88c-0.17,2.42-0.33,4.65-0.46,6.57" transform="matrix(1,0,0,1,396,-4)" class="stroke_order_diagram--existing_path"></path><path id="pathSk93xdzq026x" kvg:type="㇐a" d="M29.13,67.44C42.25,66,72.38,63.62,82.57,63.4" transform="matrix(1,0,0,1,396,-4)" class="stroke_order_diagram--existing_path"></path><path id="kvg:0767d-s5" kvg:type="㇐a" d="M29.69,94.49C43,93.75,66.62,92,80.19,91.41" transform="matrix(1,0,0,1,396,-4)" class="stroke_order_diagram--current_path"></path><path id="pathSk93xdzq026z" kvg:type="㇐a" d="M29.69,94.49C43,93.75,66.62,92,80.19,91.41" transform="matrix(1,0,0,1,396,-4)" class="stroke_order_diagram--current_path"></path><circle cx="29.69" cy="94.49" r="8" class="stroke_order_diagram--path_start" transform="matrix(1,0,0,1,396,-4)"></circle></svg>