<?xml version="1.0" encoding="UTF-8"?>
<!DOCTYPE svg PUBLIC "-//W3C//DTD SVG 1.0//EN" "http://www.w3.org/TR/2001/REC-SVG-20010904/DTD/svg10.dtd" [
<!ATTLIST g
xmlns:kvg CDATA #FIXED "http://kanjivg.tagaini.net"
kvg:element CDATA #IMPLIED
kvg:variant CDATA #IMPLIED
kvg:partial CDATA #IMPLIED
kvg:original CDATA #IMPLIED
kvg:part CDATA #IMPLIED
kvg:number CDATA #IMPLIED
kvg:tradForm CDATA #IMPLIED
kvg:radicalForm CDATA #IMPLIED
kvg:position CDATA #IMPLIED
kvg:radical CDATA #IMPLIED
kvg:phon CDATA #IMPLIED >
<!ATTLIST path
xmlns:kvg CDATA #FIXED "http://kanjivg.tagaini.net"
kvg:type CDATA #IMPLIED >
]><svg style="width: 500px; height: 100px;" xmlns="http://www.w3.org/2000/svg" xmlns:xlink="http://www.w3.org/1999/xlink"><style>
.stroke_order_diagram--outer_container {
  width: 100%;
  overflow-x: auto;
  overflow-y: hidden;
}

.stroke_order_diagram--guide_line {
  fill: none;
  stroke: #ddd;
  stroke-width: 3;
  stroke-linecap: square;
  stroke-linejoin: square;
  stroke-dasharray:8, 8;
}

.stroke_order_diagram--bounding_box {
  fill: none;
  stroke: #ddd;
  stroke-width: 4;
  stroke-linecap: square;
  stroke-linejoin: square;
}

.stroke_order_diagram--current_path {
  fill: none;
  stroke: #000;
  stroke-width: 6;
  stroke-linecap: round;
  stroke-linejoin: round;
}

.stroke_order_diagram--existing_path {
  fill: none;
  stroke: #aaa;
  stroke-width: 6;
  stroke-linecap: round;
  stroke-linejoin:round;
}

.stroke_order_diagram--path_start {
  fill: rgba(255, 0, 0, 0.7);
  stroke:none
}</style><desc>Created with Snap</desc><defs></defs><line x1="1" x2="499" y1="1" y2="1" class="stroke_order_diagram--bounding_box"></line><line x1="1" x2="1" y1="1" y2="99" class="stroke_order_diagram--bounding_box"></line><line x1="1" x2="499" y1="99" y2="99" class="stroke_order_diagram--bounding_box"></line><line x1="0" x2="500" y1="50" y2="50" class="stroke_order_diagram--guide_line"></line><line x1="50" x2="50" y1="1" y2="99" class="stroke_order_diagram--guide_line"></line><line x1="99" x2="99" y1="1" y2="99" class="stroke_order_diagram--bounding_box"></line><path id="kvg:076bf-s1" kvg:type="㇑a" d="M22.82,32.31c1.06,1.06,1.81,2.48,1.91,3.5c1.02,9.81,2.57,27.99,3.45,42.44" transform="matrix(1,0,0,1,-4,-4)" class="stroke_order_diagram--current_path"></path><path id="pathSk93xdzq028j" kvg:type="㇑a" d="M22.82,32.31c1.06,1.06,1.81,2.48,1.91,3.5c1.02,9.81,2.57,27.99,3.45,42.44" transform="matrix(1,0,0,1,-4,-4)" class="stroke_order_diagram--current_path"></path><circle cx="22.82" cy="32.31" r="8" class="stroke_order_diagram--path_start" transform="matrix(1,0,0,1,-4,-4)"></circle><line x1="150" x2="150" y1="1" y2="99" class="stroke_order_diagram--guide_line"></line><line x1="199" x2="199" y1="1" y2="99" class="stroke_order_diagram--bounding_box"></line><path id="pathSk93xdzq028m" kvg:type="㇑a" d="M22.82,32.31c1.06,1.06,1.81,2.48,1.91,3.5c1.02,9.81,2.57,27.99,3.45,42.44" transform="matrix(1,0,0,1,96,-4)" class="stroke_order_diagram--existing_path"></path><path id="kvg:076bf-s2" kvg:type="㇕b" d="M25.92,34.83c11.91-1.45,43.51-3.98,54.7-4.6C84.75,30,87.5,31.38,86.77,36c-1.51,9.6-5.02,33.87-6.11,40.42" transform="matrix(1,0,0,1,96,-4)" class="stroke_order_diagram--current_path"></path><path id="pathSk93xdzq028o" kvg:type="㇕b" d="M25.92,34.83c11.91-1.45,43.51-3.98,54.7-4.6C84.75,30,87.5,31.38,86.77,36c-1.51,9.6-5.02,33.87-6.11,40.42" transform="matrix(1,0,0,1,96,-4)" class="stroke_order_diagram--current_path"></path><circle cx="25.92" cy="34.83" r="8" class="stroke_order_diagram--path_start" transform="matrix(1,0,0,1,96,-4)"></circle><line x1="250" x2="250" y1="1" y2="99" class="stroke_order_diagram--guide_line"></line><line x1="299" x2="299" y1="1" y2="99" class="stroke_order_diagram--bounding_box"></line><path id="pathSk93xdzq028r" kvg:type="㇑a" d="M22.82,32.31c1.06,1.06,1.81,2.48,1.91,3.5c1.02,9.81,2.57,27.99,3.45,42.44" transform="matrix(1,0,0,1,196,-4)" class="stroke_order_diagram--existing_path"></path><path id="pathSk93xdzq028s" kvg:type="㇕b" d="M25.92,34.83c11.91-1.45,43.51-3.98,54.7-4.6C84.75,30,87.5,31.38,86.77,36c-1.51,9.6-5.02,33.87-6.11,40.42" transform="matrix(1,0,0,1,196,-4)" class="stroke_order_diagram--existing_path"></path><path id="kvg:076bf-s3" kvg:type="㇑a" d="M42.66,35.06c0.77,0.77,1.2,1.9,1.28,2.86c0.69,8.96,1.66,26.03,2.41,39.66" transform="matrix(1,0,0,1,196,-4)" class="stroke_order_diagram--current_path"></path><path id="pathSk93xdzq028u" kvg:type="㇑a" d="M42.66,35.06c0.77,0.77,1.2,1.9,1.28,2.86c0.69,8.96,1.66,26.03,2.41,39.66" transform="matrix(1,0,0,1,196,-4)" class="stroke_order_diagram--current_path"></path><circle cx="42.66" cy="35.06" r="8" class="stroke_order_diagram--path_start" transform="matrix(1,0,0,1,196,-4)"></circle><line x1="350" x2="350" y1="1" y2="99" class="stroke_order_diagram--guide_line"></line><line x1="399" x2="399" y1="1" y2="99" class="stroke_order_diagram--bounding_box"></line><path id="pathSk93xdzq028x" kvg:type="㇑a" d="M22.82,32.31c1.06,1.06,1.81,2.48,1.91,3.5c1.02,9.81,2.57,27.99,3.45,42.44" transform="matrix(1,0,0,1,296,-4)" class="stroke_order_diagram--existing_path"></path><path id="pathSk93xdzq028y" kvg:type="㇕b" d="M25.92,34.83c11.91-1.45,43.51-3.98,54.7-4.6C84.75,30,87.5,31.38,86.77,36c-1.51,9.6-5.02,33.87-6.11,40.42" transform="matrix(1,0,0,1,296,-4)" class="stroke_order_diagram--existing_path"></path><path id="pathSk93xdzq028z" kvg:type="㇑a" d="M42.66,35.06c0.77,0.77,1.2,1.9,1.28,2.86c0.69,8.96,1.66,26.03,2.41,39.66" transform="matrix(1,0,0,1,296,-4)" class="stroke_order_diagram--existing_path"></path><path id="kvg:076bf-s4" kvg:type="㇑a" d="M63.92,33.33c0.58,0.92,0.89,2.48,0.79,3.67c-0.96,11.75-2.03,24.78-3.21,39.83" transform="matrix(1,0,0,1,296,-4)" class="stroke_order_diagram--current_path"></path><path id="pathSk93xdzq0291" kvg:type="㇑a" d="M63.92,33.33c0.58,0.92,0.89,2.48,0.79,3.67c-0.96,11.75-2.03,24.78-3.21,39.83" transform="matrix(1,0,0,1,296,-4)" class="stroke_order_diagram--current_path"></path><circle cx="63.92" cy="33.33" r="8" class="stroke_order_diagram--path_start" transform="matrix(1,0,0,1,296,-4)"></circle><line x1="450" x2="450" y1="1" y2="99" class="stroke_order_diagram--guide_line"></line><line x1="499" x2="499" y1="1" y2="99" class="stroke_order_diagram--bounding_box"></line><path id="pathSk93xdzq0294" kvg:type="㇑a" d="M22.82,32.31c1.06,1.06,1.81,2.48,1.91,3.5c1.02,9.81,2.57,27.99,3.45,42.44" transform="matrix(1,0,0,1,396,-4)" class="stroke_order_diagram--existing_path"></path><path id="pathSk93xdzq0295" kvg:type="㇕b" d="M25.92,34.83c11.91-1.45,43.51-3.98,54.7-4.6C84.75,30,87.5,31.38,86.77,36c-1.51,9.6-5.02,33.87-6.11,40.42" transform="matrix(1,0,0,1,396,-4)" class="stroke_order_diagram--existing_path"></path><path id="pathSk93xdzq0296" kvg:type="㇑a" d="M42.66,35.06c0.77,0.77,1.2,1.9,1.28,2.86c0.69,8.96,1.66,26.03,2.41,39.66" transform="matrix(1,0,0,1,396,-4)" class="stroke_order_diagram--existing_path"></path><path id="pathSk93xdzq0297" kvg:type="㇑a" d="M63.92,33.33c0.58,0.92,0.89,2.48,0.79,3.67c-0.96,11.75-2.03,24.78-3.21,39.83" transform="matrix(1,0,0,1,396,-4)" class="stroke_order_diagram--existing_path"></path><path id="kvg:076bf-s5" kvg:type="㇐" d="M10.13,79.32c2.81,0.92,7.95,1.09,10.76,0.92c24.86-1.49,46.49-2.49,66.92-2.69c4.67-0.05,7.48,0.44,9.82,0.9" transform="matrix(1,0,0,1,396,-4)" class="stroke_order_diagram--current_path"></path><path id="pathSk93xdzq0299" kvg:type="㇐" d="M10.13,79.32c2.81,0.92,7.95,1.09,10.76,0.92c24.86-1.49,46.49-2.49,66.92-2.69c4.67-0.05,7.48,0.44,9.82,0.9" transform="matrix(1,0,0,1,396,-4)" class="stroke_order_diagram--current_path"></path><circle cx="10.13" cy="79.32" r="8" class="stroke_order_diagram--path_start" transform="matrix(1,0,0,1,396,-4)"></circle></svg>