<?xml version="1.0" encoding="UTF-8"?>
<!DOCTYPE svg PUBLIC "-//W3C//DTD SVG 1.0//EN" "http://www.w3.org/TR/2001/REC-SVG-20010904/DTD/svg10.dtd" [
<!ATTLIST g
xmlns:kvg CDATA #FIXED "http://kanjivg.tagaini.net"
kvg:element CDATA #IMPLIED
kvg:variant CDATA #IMPLIED
kvg:partial CDATA #IMPLIED
kvg:original CDATA #IMPLIED
kvg:part CDATA #IMPLIED
kvg:number CDATA #IMPLIED
kvg:tradForm CDATA #IMPLIED
kvg:radicalForm CDATA #IMPLIED
kvg:position CDATA #IMPLIED
kvg:radical CDATA #IMPLIED
kvg:phon CDATA #IMPLIED >
<!ATTLIST path
xmlns:kvg CDATA #FIXED "http://kanjivg.tagaini.net"
kvg:type CDATA #IMPLIED >
]><svg style="width: 500px; height: 100px;" xmlns="http://www.w3.org/2000/svg" xmlns:xlink="http://www.w3.org/1999/xlink"><style>
.stroke_order_diagram--outer_container {
  width: 100%;
  overflow-x: auto;
  overflow-y: hidden;
}

.stroke_order_diagram--guide_line {
  fill: none;
  stroke: #ddd;
  stroke-width: 3;
  stroke-linecap: square;
  stroke-linejoin: square;
  stroke-dasharray:8, 8;
}

.stroke_order_diagram--bounding_box {
  fill: none;
  stroke: #ddd;
  stroke-width: 4;
  stroke-linecap: square;
  stroke-linejoin: square;
}

.stroke_order_diagram--current_path {
  fill: none;
  stroke: #000;
  stroke-width: 6;
  stroke-linecap: round;
  stroke-linejoin: round;
}

.stroke_order_diagram--existing_path {
  fill: none;
  stroke: #aaa;
  stroke-width: 6;
  stroke-linecap: round;
  stroke-linejoin:round;
}

.stroke_order_diagram--path_start {
  fill: rgba(255, 0, 0, 0.7);
  stroke:none
}</style><desc>Created with Snap</desc><defs></defs><line x1="1" x2="499" y1="1" y2="1" class="stroke_order_diagram--bounding_box"></line><line x1="1" x2="1" y1="1" y2="99" class="stroke_order_diagram--bounding_box"></line><line x1="1" x2="499" y1="99" y2="99" class="stroke_order_diagram--bounding_box"></line><line x1="0" x2="500" y1="50" y2="50" class="stroke_order_diagram--guide_line"></line><line x1="50" x2="50" y1="1" y2="99" class="stroke_order_diagram--guide_line"></line><line x1="99" x2="99" y1="1" y2="99" class="stroke_order_diagram--bounding_box"></line><path id="kvg:076ee-s1" kvg:type="㇑" d="M29.75,19.05c1.35,1.35,1.86,3.21,1.86,5.47c0,1.77,0.19,42.37,0.06,60.23c-0.04,4.91-0.06,8.11-0.06,8.36" transform="matrix(1,0,0,1,-4,-4)" class="stroke_order_diagram--current_path"></path><path id="pathSk93xdzq029o" kvg:type="㇑" d="M29.75,19.05c1.35,1.35,1.86,3.21,1.86,5.47c0,1.77,0.19,42.37,0.06,60.23c-0.04,4.91-0.06,8.11-0.06,8.36" transform="matrix(1,0,0,1,-4,-4)" class="stroke_order_diagram--current_path"></path><circle cx="29.75" cy="19.05" r="8" class="stroke_order_diagram--path_start" transform="matrix(1,0,0,1,-4,-4)"></circle><line x1="150" x2="150" y1="1" y2="99" class="stroke_order_diagram--guide_line"></line><line x1="199" x2="199" y1="1" y2="99" class="stroke_order_diagram--bounding_box"></line><path id="pathSk93xdzq029r" kvg:type="㇑" d="M29.75,19.05c1.35,1.35,1.86,3.21,1.86,5.47c0,1.77,0.19,42.37,0.06,60.23c-0.04,4.91-0.06,8.11-0.06,8.36" transform="matrix(1,0,0,1,96,-4)" class="stroke_order_diagram--existing_path"></path><path id="kvg:076ee-s2" kvg:type="㇕a" d="M32.54,21.39c10.92-1.23,38.33-4.11,41.42-4.38c3.25-0.28,5.54,1.25,5.54,4.18c0,8.95-0.26,39.93-0.26,64.82c0,3,0.01,3.75,0.01,6" transform="matrix(1,0,0,1,96,-4)" class="stroke_order_diagram--current_path"></path><path id="pathSk93xdzq029t" kvg:type="㇕a" d="M32.54,21.39c10.92-1.23,38.33-4.11,41.42-4.38c3.25-0.28,5.54,1.25,5.54,4.18c0,8.95-0.26,39.93-0.26,64.82c0,3,0.01,3.75,0.01,6" transform="matrix(1,0,0,1,96,-4)" class="stroke_order_diagram--current_path"></path><circle cx="32.54" cy="21.39" r="8" class="stroke_order_diagram--path_start" transform="matrix(1,0,0,1,96,-4)"></circle><line x1="250" x2="250" y1="1" y2="99" class="stroke_order_diagram--guide_line"></line><line x1="299" x2="299" y1="1" y2="99" class="stroke_order_diagram--bounding_box"></line><path id="pathSk93xdzq029w" kvg:type="㇑" d="M29.75,19.05c1.35,1.35,1.86,3.21,1.86,5.47c0,1.77,0.19,42.37,0.06,60.23c-0.04,4.91-0.06,8.11-0.06,8.36" transform="matrix(1,0,0,1,196,-4)" class="stroke_order_diagram--existing_path"></path><path id="pathSk93xdzq029x" kvg:type="㇕a" d="M32.54,21.39c10.92-1.23,38.33-4.11,41.42-4.38c3.25-0.28,5.54,1.25,5.54,4.18c0,8.95-0.26,39.93-0.26,64.82c0,3,0.01,3.75,0.01,6" transform="matrix(1,0,0,1,196,-4)" class="stroke_order_diagram--existing_path"></path><path id="kvg:076ee-s3" kvg:type="㇐a" d="M33.05,43.64c12.45-1.51,34.83-3.51,45.18-4.09" transform="matrix(1,0,0,1,196,-4)" class="stroke_order_diagram--current_path"></path><path id="pathSk93xdzq029z" kvg:type="㇐a" d="M33.05,43.64c12.45-1.51,34.83-3.51,45.18-4.09" transform="matrix(1,0,0,1,196,-4)" class="stroke_order_diagram--current_path"></path><circle cx="33.05" cy="43.64" r="8" class="stroke_order_diagram--path_start" transform="matrix(1,0,0,1,196,-4)"></circle><line x1="350" x2="350" y1="1" y2="99" class="stroke_order_diagram--guide_line"></line><line x1="399" x2="399" y1="1" y2="99" class="stroke_order_diagram--bounding_box"></line><path id="pathSk93xdzq02a2" kvg:type="㇑" d="M29.75,19.05c1.35,1.35,1.86,3.21,1.86,5.47c0,1.77,0.19,42.37,0.06,60.23c-0.04,4.91-0.06,8.11-0.06,8.36" transform="matrix(1,0,0,1,296,-4)" class="stroke_order_diagram--existing_path"></path><path id="pathSk93xdzq02a3" kvg:type="㇕a" d="M32.54,21.39c10.92-1.23,38.33-4.11,41.42-4.38c3.25-0.28,5.54,1.25,5.54,4.18c0,8.95-0.26,39.93-0.26,64.82c0,3,0.01,3.75,0.01,6" transform="matrix(1,0,0,1,296,-4)" class="stroke_order_diagram--existing_path"></path><path id="pathSk93xdzq02a4" kvg:type="㇐a" d="M33.05,43.64c12.45-1.51,34.83-3.51,45.18-4.09" transform="matrix(1,0,0,1,296,-4)" class="stroke_order_diagram--existing_path"></path><path id="kvg:076ee-s4" kvg:type="㇐a" d="M32.9,65.95C44.25,65,66,62.88,77.72,62.56" transform="matrix(1,0,0,1,296,-4)" class="stroke_order_diagram--current_path"></path><path id="pathSk93xdzq02a6" kvg:type="㇐a" d="M32.9,65.95C44.25,65,66,62.88,77.72,62.56" transform="matrix(1,0,0,1,296,-4)" class="stroke_order_diagram--current_path"></path><circle cx="32.9" cy="65.95" r="8" class="stroke_order_diagram--path_start" transform="matrix(1,0,0,1,296,-4)"></circle><line x1="450" x2="450" y1="1" y2="99" class="stroke_order_diagram--guide_line"></line><line x1="499" x2="499" y1="1" y2="99" class="stroke_order_diagram--bounding_box"></line><path id="pathSk93xdzq02a9" kvg:type="㇑" d="M29.75,19.05c1.35,1.35,1.86,3.21,1.86,5.47c0,1.77,0.19,42.37,0.06,60.23c-0.04,4.91-0.06,8.11-0.06,8.36" transform="matrix(1,0,0,1,396,-4)" class="stroke_order_diagram--existing_path"></path><path id="pathSk93xdzq02aa" kvg:type="㇕a" d="M32.54,21.39c10.92-1.23,38.33-4.11,41.42-4.38c3.25-0.28,5.54,1.25,5.54,4.18c0,8.95-0.26,39.93-0.26,64.82c0,3,0.01,3.75,0.01,6" transform="matrix(1,0,0,1,396,-4)" class="stroke_order_diagram--existing_path"></path><path id="pathSk93xdzq02ab" kvg:type="㇐a" d="M33.05,43.64c12.45-1.51,34.83-3.51,45.18-4.09" transform="matrix(1,0,0,1,396,-4)" class="stroke_order_diagram--existing_path"></path><path id="pathSk93xdzq02ac" kvg:type="㇐a" d="M32.9,65.95C44.25,65,66,62.88,77.72,62.56" transform="matrix(1,0,0,1,396,-4)" class="stroke_order_diagram--existing_path"></path><path id="kvg:076ee-s5" kvg:type="㇐a" d="M33,90.5c9.75-0.5,33.25-2.5,44.79-2.53" transform="matrix(1,0,0,1,396,-4)" class="stroke_order_diagram--current_path"></path><path id="pathSk93xdzq02ae" kvg:type="㇐a" d="M33,90.5c9.75-0.5,33.25-2.5,44.79-2.53" transform="matrix(1,0,0,1,396,-4)" class="stroke_order_diagram--current_path"></path><circle cx="33" cy="90.5" r="8" class="stroke_order_diagram--path_start" transform="matrix(1,0,0,1,396,-4)"></circle></svg>