<?xml version="1.0" encoding="UTF-8"?>
<!DOCTYPE svg PUBLIC "-//W3C//DTD SVG 1.0//EN" "http://www.w3.org/TR/2001/REC-SVG-20010904/DTD/svg10.dtd" [
<!ATTLIST g
xmlns:kvg CDATA #FIXED "http://kanjivg.tagaini.net"
kvg:element CDATA #IMPLIED
kvg:variant CDATA #IMPLIED
kvg:partial CDATA #IMPLIED
kvg:original CDATA #IMPLIED
kvg:part CDATA #IMPLIED
kvg:number CDATA #IMPLIED
kvg:tradForm CDATA #IMPLIED
kvg:radicalForm CDATA #IMPLIED
kvg:position CDATA #IMPLIED
kvg:radical CDATA #IMPLIED
kvg:phon CDATA #IMPLIED >
<!ATTLIST path
xmlns:kvg CDATA #FIXED "http://kanjivg.tagaini.net"
kvg:type CDATA #IMPLIED >
]><svg style="width: 500px; height: 100px;" xmlns="http://www.w3.org/2000/svg" xmlns:xlink="http://www.w3.org/1999/xlink"><style>
.stroke_order_diagram--outer_container {
  width: 100%;
  overflow-x: auto;
  overflow-y: hidden;
}

.stroke_order_diagram--guide_line {
  fill: none;
  stroke: #ddd;
  stroke-width: 3;
  stroke-linecap: square;
  stroke-linejoin: square;
  stroke-dasharray:8, 8;
}

.stroke_order_diagram--bounding_box {
  fill: none;
  stroke: #ddd;
  stroke-width: 4;
  stroke-linecap: square;
  stroke-linejoin: square;
}

.stroke_order_diagram--current_path {
  fill: none;
  stroke: #000;
  stroke-width: 6;
  stroke-linecap: round;
  stroke-linejoin: round;
}

.stroke_order_diagram--existing_path {
  fill: none;
  stroke: #aaa;
  stroke-width: 6;
  stroke-linecap: round;
  stroke-linejoin:round;
}

.stroke_order_diagram--path_start {
  fill: rgba(255, 0, 0, 0.7);
  stroke:none
}</style><desc>Created with Snap</desc><defs></defs><line x1="1" x2="499" y1="1" y2="1" class="stroke_order_diagram--bounding_box"></line><line x1="1" x2="1" y1="1" y2="99" class="stroke_order_diagram--bounding_box"></line><line x1="1" x2="499" y1="99" y2="99" class="stroke_order_diagram--bounding_box"></line><line x1="0" x2="500" y1="50" y2="50" class="stroke_order_diagram--guide_line"></line><line x1="50" x2="50" y1="1" y2="99" class="stroke_order_diagram--guide_line"></line><line x1="99" x2="99" y1="1" y2="99" class="stroke_order_diagram--bounding_box"></line><path id="kvg:077e2-s1" kvg:type="㇒" d="M39.55,11.75c0.11,1.35,0.01,2.63-0.39,3.92c-2.04,6.63-10.37,20.42-18.66,25.7" transform="matrix(1,0,0,1,-4,-4)" class="stroke_order_diagram--current_path"></path><path id="pathSk93xdzq02by" kvg:type="㇒" d="M39.55,11.75c0.11,1.35,0.01,2.63-0.39,3.92c-2.04,6.63-10.37,20.42-18.66,25.7" transform="matrix(1,0,0,1,-4,-4)" class="stroke_order_diagram--current_path"></path><circle cx="39.55" cy="11.75" r="8" class="stroke_order_diagram--path_start" transform="matrix(1,0,0,1,-4,-4)"></circle><line x1="150" x2="150" y1="1" y2="99" class="stroke_order_diagram--guide_line"></line><line x1="199" x2="199" y1="1" y2="99" class="stroke_order_diagram--bounding_box"></line><path id="pathSk93xdzq02c1" kvg:type="㇒" d="M39.55,11.75c0.11,1.35,0.01,2.63-0.39,3.92c-2.04,6.63-10.37,20.42-18.66,25.7" transform="matrix(1,0,0,1,96,-4)" class="stroke_order_diagram--existing_path"></path><path id="kvg:077e2-s2" kvg:type="㇐" d="M34.92,31.39c1.83,0.11,3.39-0.16,4.66-0.31c6.04-0.71,20.92-3.33,29.16-5.29c2.08-0.49,3.63-0.54,5.26-0.29" transform="matrix(1,0,0,1,96,-4)" class="stroke_order_diagram--current_path"></path><path id="pathSk93xdzq02c3" kvg:type="㇐" d="M34.92,31.39c1.83,0.11,3.39-0.16,4.66-0.31c6.04-0.71,20.92-3.33,29.16-5.29c2.08-0.49,3.63-0.54,5.26-0.29" transform="matrix(1,0,0,1,96,-4)" class="stroke_order_diagram--current_path"></path><circle cx="34.92" cy="31.39" r="8" class="stroke_order_diagram--path_start" transform="matrix(1,0,0,1,96,-4)"></circle><line x1="250" x2="250" y1="1" y2="99" class="stroke_order_diagram--guide_line"></line><line x1="299" x2="299" y1="1" y2="99" class="stroke_order_diagram--bounding_box"></line><path id="pathSk93xdzq02c6" kvg:type="㇒" d="M39.55,11.75c0.11,1.35,0.01,2.63-0.39,3.92c-2.04,6.63-10.37,20.42-18.66,25.7" transform="matrix(1,0,0,1,196,-4)" class="stroke_order_diagram--existing_path"></path><path id="pathSk93xdzq02c7" kvg:type="㇐" d="M34.92,31.39c1.83,0.11,3.39-0.16,4.66-0.31c6.04-0.71,20.92-3.33,29.16-5.29c2.08-0.49,3.63-0.54,5.26-0.29" transform="matrix(1,0,0,1,196,-4)" class="stroke_order_diagram--existing_path"></path><path id="kvg:077e2-s3" kvg:type="㇐" d="M18.95,54.02c2.2,0.48,5.05,0.73,7.46,0.46c20.43-2.24,38.35-4.61,54.2-5.3c1.83-0.08,5.47,0.07,7.68,0.7" transform="matrix(1,0,0,1,196,-4)" class="stroke_order_diagram--current_path"></path><path id="pathSk93xdzq02c9" kvg:type="㇐" d="M18.95,54.02c2.2,0.48,5.05,0.73,7.46,0.46c20.43-2.24,38.35-4.61,54.2-5.3c1.83-0.08,5.47,0.07,7.68,0.7" transform="matrix(1,0,0,1,196,-4)" class="stroke_order_diagram--current_path"></path><circle cx="18.95" cy="54.02" r="8" class="stroke_order_diagram--path_start" transform="matrix(1,0,0,1,196,-4)"></circle><line x1="350" x2="350" y1="1" y2="99" class="stroke_order_diagram--guide_line"></line><line x1="399" x2="399" y1="1" y2="99" class="stroke_order_diagram--bounding_box"></line><path id="pathSk93xdzq02cc" kvg:type="㇒" d="M39.55,11.75c0.11,1.35,0.01,2.63-0.39,3.92c-2.04,6.63-10.37,20.42-18.66,25.7" transform="matrix(1,0,0,1,296,-4)" class="stroke_order_diagram--existing_path"></path><path id="pathSk93xdzq02cd" kvg:type="㇐" d="M34.92,31.39c1.83,0.11,3.39-0.16,4.66-0.31c6.04-0.71,20.92-3.33,29.16-5.29c2.08-0.49,3.63-0.54,5.26-0.29" transform="matrix(1,0,0,1,296,-4)" class="stroke_order_diagram--existing_path"></path><path id="pathSk93xdzq02ce" kvg:type="㇐" d="M18.95,54.02c2.2,0.48,5.05,0.73,7.46,0.46c20.43-2.24,38.35-4.61,54.2-5.3c1.83-0.08,5.47,0.07,7.68,0.7" transform="matrix(1,0,0,1,296,-4)" class="stroke_order_diagram--existing_path"></path><path id="kvg:077e2-s4" kvg:type="㇒" d="M52.32,32.29c0.43,0.96,0.9,1.86,0.85,3.72c-0.92,32.5-14.54,48.87-36.42,59.12" transform="matrix(1,0,0,1,296,-4)" class="stroke_order_diagram--current_path"></path><path id="pathSk93xdzq02cg" kvg:type="㇒" d="M52.32,32.29c0.43,0.96,0.9,1.86,0.85,3.72c-0.92,32.5-14.54,48.87-36.42,59.12" transform="matrix(1,0,0,1,296,-4)" class="stroke_order_diagram--current_path"></path><circle cx="52.32" cy="32.29" r="8" class="stroke_order_diagram--path_start" transform="matrix(1,0,0,1,296,-4)"></circle><line x1="450" x2="450" y1="1" y2="99" class="stroke_order_diagram--guide_line"></line><line x1="499" x2="499" y1="1" y2="99" class="stroke_order_diagram--bounding_box"></line><path id="pathSk93xdzq02cj" kvg:type="㇒" d="M39.55,11.75c0.11,1.35,0.01,2.63-0.39,3.92c-2.04,6.63-10.37,20.42-18.66,25.7" transform="matrix(1,0,0,1,396,-4)" class="stroke_order_diagram--existing_path"></path><path id="pathSk93xdzq02ck" kvg:type="㇐" d="M34.92,31.39c1.83,0.11,3.39-0.16,4.66-0.31c6.04-0.71,20.92-3.33,29.16-5.29c2.08-0.49,3.63-0.54,5.26-0.29" transform="matrix(1,0,0,1,396,-4)" class="stroke_order_diagram--existing_path"></path><path id="pathSk93xdzq02cl" kvg:type="㇐" d="M18.95,54.02c2.2,0.48,5.05,0.73,7.46,0.46c20.43-2.24,38.35-4.61,54.2-5.3c1.83-0.08,5.47,0.07,7.68,0.7" transform="matrix(1,0,0,1,396,-4)" class="stroke_order_diagram--existing_path"></path><path id="pathSk93xdzq02cm" kvg:type="㇒" d="M52.32,32.29c0.43,0.96,0.9,1.86,0.85,3.72c-0.92,32.5-14.54,48.87-36.42,59.12" transform="matrix(1,0,0,1,396,-4)" class="stroke_order_diagram--existing_path"></path><path id="kvg:077e2-s5" kvg:type="㇏" d="M53.25,53c9.5,12.25,21.9,27.44,30.96,35.6c2.33,2.09,5.17,4.4,8.67,5.78" transform="matrix(1,0,0,1,396,-4)" class="stroke_order_diagram--current_path"></path><path id="pathSk93xdzq02co" kvg:type="㇏" d="M53.25,53c9.5,12.25,21.9,27.44,30.96,35.6c2.33,2.09,5.17,4.4,8.67,5.78" transform="matrix(1,0,0,1,396,-4)" class="stroke_order_diagram--current_path"></path><circle cx="53.25" cy="53" r="8" class="stroke_order_diagram--path_start" transform="matrix(1,0,0,1,396,-4)"></circle></svg>