<?xml version="1.0" encoding="UTF-8"?>
<!DOCTYPE svg PUBLIC "-//W3C//DTD SVG 1.0//EN" "http://www.w3.org/TR/2001/REC-SVG-20010904/DTD/svg10.dtd" [
<!ATTLIST g
xmlns:kvg CDATA #FIXED "http://kanjivg.tagaini.net"
kvg:element CDATA #IMPLIED
kvg:variant CDATA #IMPLIED
kvg:partial CDATA #IMPLIED
kvg:original CDATA #IMPLIED
kvg:part CDATA #IMPLIED
kvg:number CDATA #IMPLIED
kvg:tradForm CDATA #IMPLIED
kvg:radicalForm CDATA #IMPLIED
kvg:position CDATA #IMPLIED
kvg:radical CDATA #IMPLIED
kvg:phon CDATA #IMPLIED >
<!ATTLIST path
xmlns:kvg CDATA #FIXED "http://kanjivg.tagaini.net"
kvg:type CDATA #IMPLIED >
]><svg style="width: 500px; height: 100px;" xmlns="http://www.w3.org/2000/svg" xmlns:xlink="http://www.w3.org/1999/xlink"><style>
.stroke_order_diagram--outer_container {
  width: 100%;
  overflow-x: auto;
  overflow-y: hidden;
}

.stroke_order_diagram--guide_line {
  fill: none;
  stroke: #ddd;
  stroke-width: 3;
  stroke-linecap: square;
  stroke-linejoin: square;
  stroke-dasharray:8, 8;
}

.stroke_order_diagram--bounding_box {
  fill: none;
  stroke: #ddd;
  stroke-width: 4;
  stroke-linecap: square;
  stroke-linejoin: square;
}

.stroke_order_diagram--current_path {
  fill: none;
  stroke: #000;
  stroke-width: 6;
  stroke-linecap: round;
  stroke-linejoin: round;
}

.stroke_order_diagram--existing_path {
  fill: none;
  stroke: #aaa;
  stroke-width: 6;
  stroke-linecap: round;
  stroke-linejoin:round;
}

.stroke_order_diagram--path_start {
  fill: rgba(255, 0, 0, 0.7);
  stroke:none
}</style><desc>Created with Snap</desc><defs></defs><line x1="1" x2="499" y1="1" y2="1" class="stroke_order_diagram--bounding_box"></line><line x1="1" x2="1" y1="1" y2="99" class="stroke_order_diagram--bounding_box"></line><line x1="1" x2="499" y1="99" y2="99" class="stroke_order_diagram--bounding_box"></line><line x1="0" x2="500" y1="50" y2="50" class="stroke_order_diagram--guide_line"></line><line x1="50" x2="50" y1="1" y2="99" class="stroke_order_diagram--guide_line"></line><line x1="99" x2="99" y1="1" y2="99" class="stroke_order_diagram--bounding_box"></line><path id="kvg:0793a-s1" kvg:type="㇐" d="M29.53,20.89c2.34,0.49,4.67,0.27,6.74,0.09c7.65-0.7,24.51-2.27,32.6-2.73c2.32-0.13,4.84-0.29,7.12,0.27" transform="matrix(1,0,0,1,-4,-4)" class="stroke_order_diagram--current_path"></path><path id="pathSk93xdzq02e8" kvg:type="㇐" d="M29.53,20.89c2.34,0.49,4.67,0.27,6.74,0.09c7.65-0.7,24.51-2.27,32.6-2.73c2.32-0.13,4.84-0.29,7.12,0.27" transform="matrix(1,0,0,1,-4,-4)" class="stroke_order_diagram--current_path"></path><circle cx="29.53" cy="20.89" r="8" class="stroke_order_diagram--path_start" transform="matrix(1,0,0,1,-4,-4)"></circle><line x1="150" x2="150" y1="1" y2="99" class="stroke_order_diagram--guide_line"></line><line x1="199" x2="199" y1="1" y2="99" class="stroke_order_diagram--bounding_box"></line><path id="pathSk93xdzq02eb" kvg:type="㇐" d="M29.53,20.89c2.34,0.49,4.67,0.27,6.74,0.09c7.65-0.7,24.51-2.27,32.6-2.73c2.32-0.13,4.84-0.29,7.12,0.27" transform="matrix(1,0,0,1,96,-4)" class="stroke_order_diagram--existing_path"></path><path id="kvg:0793a-s2" kvg:type="㇐" d="M17.53,44.97c2.95,1.05,6.46,0.68,9.49,0.39c12.45-1.17,38.73-3.73,54.23-4.52c2.86-0.15,5.89-0.05,8.72,0.56" transform="matrix(1,0,0,1,96,-4)" class="stroke_order_diagram--current_path"></path><path id="pathSk93xdzq02ed" kvg:type="㇐" d="M17.53,44.97c2.95,1.05,6.46,0.68,9.49,0.39c12.45-1.17,38.73-3.73,54.23-4.52c2.86-0.15,5.89-0.05,8.72,0.56" transform="matrix(1,0,0,1,96,-4)" class="stroke_order_diagram--current_path"></path><circle cx="17.53" cy="44.97" r="8" class="stroke_order_diagram--path_start" transform="matrix(1,0,0,1,96,-4)"></circle><line x1="250" x2="250" y1="1" y2="99" class="stroke_order_diagram--guide_line"></line><line x1="299" x2="299" y1="1" y2="99" class="stroke_order_diagram--bounding_box"></line><path id="pathSk93xdzq02eg" kvg:type="㇐" d="M29.53,20.89c2.34,0.49,4.67,0.27,6.74,0.09c7.65-0.7,24.51-2.27,32.6-2.73c2.32-0.13,4.84-0.29,7.12,0.27" transform="matrix(1,0,0,1,196,-4)" class="stroke_order_diagram--existing_path"></path><path id="pathSk93xdzq02eh" kvg:type="㇐" d="M17.53,44.97c2.95,1.05,6.46,0.68,9.49,0.39c12.45-1.17,38.73-3.73,54.23-4.52c2.86-0.15,5.89-0.05,8.72,0.56" transform="matrix(1,0,0,1,196,-4)" class="stroke_order_diagram--existing_path"></path><path id="kvg:0793a-s3" kvg:type="㇚" d="M53.52,46.83c1.2,1.2,2.01,2.79,2.01,5.02c0,14.56-0.01,33.66-0.01,38.62c0,10.53-4.52,3.78-8.71,0.25" transform="matrix(1,0,0,1,196,-4)" class="stroke_order_diagram--current_path"></path><path id="pathSk93xdzq02ej" kvg:type="㇚" d="M53.52,46.83c1.2,1.2,2.01,2.79,2.01,5.02c0,14.56-0.01,33.66-0.01,38.62c0,10.53-4.52,3.78-8.71,0.25" transform="matrix(1,0,0,1,196,-4)" class="stroke_order_diagram--current_path"></path><circle cx="53.52" cy="46.83" r="8" class="stroke_order_diagram--path_start" transform="matrix(1,0,0,1,196,-4)"></circle><line x1="350" x2="350" y1="1" y2="99" class="stroke_order_diagram--guide_line"></line><line x1="399" x2="399" y1="1" y2="99" class="stroke_order_diagram--bounding_box"></line><path id="pathSk93xdzq02em" kvg:type="㇐" d="M29.53,20.89c2.34,0.49,4.67,0.27,6.74,0.09c7.65-0.7,24.51-2.27,32.6-2.73c2.32-0.13,4.84-0.29,7.12,0.27" transform="matrix(1,0,0,1,296,-4)" class="stroke_order_diagram--existing_path"></path><path id="pathSk93xdzq02en" kvg:type="㇐" d="M17.53,44.97c2.95,1.05,6.46,0.68,9.49,0.39c12.45-1.17,38.73-3.73,54.23-4.52c2.86-0.15,5.89-0.05,8.72,0.56" transform="matrix(1,0,0,1,296,-4)" class="stroke_order_diagram--existing_path"></path><path id="pathSk93xdzq02eo" kvg:type="㇚" d="M53.52,46.83c1.2,1.2,2.01,2.79,2.01,5.02c0,14.56-0.01,33.66-0.01,38.62c0,10.53-4.52,3.78-8.71,0.25" transform="matrix(1,0,0,1,296,-4)" class="stroke_order_diagram--existing_path"></path><path id="kvg:0793a-s4" kvg:type="㇒" d="M32.26,62.39c0.04,0.6,0.24,1.58-0.09,2.4C30,70.25,23.62,78.75,15.5,86.5" transform="matrix(1,0,0,1,296,-4)" class="stroke_order_diagram--current_path"></path><path id="pathSk93xdzq02eq" kvg:type="㇒" d="M32.26,62.39c0.04,0.6,0.24,1.58-0.09,2.4C30,70.25,23.62,78.75,15.5,86.5" transform="matrix(1,0,0,1,296,-4)" class="stroke_order_diagram--current_path"></path><circle cx="32.26" cy="62.39" r="8" class="stroke_order_diagram--path_start" transform="matrix(1,0,0,1,296,-4)"></circle><line x1="450" x2="450" y1="1" y2="99" class="stroke_order_diagram--guide_line"></line><line x1="499" x2="499" y1="1" y2="99" class="stroke_order_diagram--bounding_box"></line><path id="pathSk93xdzq02et" kvg:type="㇐" d="M29.53,20.89c2.34,0.49,4.67,0.27,6.74,0.09c7.65-0.7,24.51-2.27,32.6-2.73c2.32-0.13,4.84-0.29,7.12,0.27" transform="matrix(1,0,0,1,396,-4)" class="stroke_order_diagram--existing_path"></path><path id="pathSk93xdzq02eu" kvg:type="㇐" d="M17.53,44.97c2.95,1.05,6.46,0.68,9.49,0.39c12.45-1.17,38.73-3.73,54.23-4.52c2.86-0.15,5.89-0.05,8.72,0.56" transform="matrix(1,0,0,1,396,-4)" class="stroke_order_diagram--existing_path"></path><path id="pathSk93xdzq02ev" kvg:type="㇚" d="M53.52,46.83c1.2,1.2,2.01,2.79,2.01,5.02c0,14.56-0.01,33.66-0.01,38.62c0,10.53-4.52,3.78-8.71,0.25" transform="matrix(1,0,0,1,396,-4)" class="stroke_order_diagram--existing_path"></path><path id="pathSk93xdzq02ew" kvg:type="㇒" d="M32.26,62.39c0.04,0.6,0.24,1.58-0.09,2.4C30,70.25,23.62,78.75,15.5,86.5" transform="matrix(1,0,0,1,396,-4)" class="stroke_order_diagram--existing_path"></path><path id="kvg:0793a-s5" kvg:type="㇔" d="M82.25,63.5c4.16,3.38,10.96,13.5,12,18.75" transform="matrix(1,0,0,1,396,-4)" class="stroke_order_diagram--current_path"></path><path id="pathSk93xdzq02ey" kvg:type="㇔" d="M82.25,63.5c4.16,3.38,10.96,13.5,12,18.75" transform="matrix(1,0,0,1,396,-4)" class="stroke_order_diagram--current_path"></path><circle cx="82.25" cy="63.5" r="8" class="stroke_order_diagram--path_start" transform="matrix(1,0,0,1,396,-4)"></circle></svg>