<?xml version="1.0" encoding="UTF-8"?>
<!DOCTYPE svg PUBLIC "-//W3C//DTD SVG 1.0//EN" "http://www.w3.org/TR/2001/REC-SVG-20010904/DTD/svg10.dtd" [
<!ATTLIST g
xmlns:kvg CDATA #FIXED "http://kanjivg.tagaini.net"
kvg:element CDATA #IMPLIED
kvg:variant CDATA #IMPLIED
kvg:partial CDATA #IMPLIED
kvg:original CDATA #IMPLIED
kvg:part CDATA #IMPLIED
kvg:number CDATA #IMPLIED
kvg:tradForm CDATA #IMPLIED
kvg:radicalForm CDATA #IMPLIED
kvg:position CDATA #IMPLIED
kvg:radical CDATA #IMPLIED
kvg:phon CDATA #IMPLIED >
<!ATTLIST path
xmlns:kvg CDATA #FIXED "http://kanjivg.tagaini.net"
kvg:type CDATA #IMPLIED >
]><svg style="width: 900px; height: 100px;" xmlns="http://www.w3.org/2000/svg" xmlns:xlink="http://www.w3.org/1999/xlink"><style>
.stroke_order_diagram--outer_container {
  width: 100%;
  overflow-x: auto;
  overflow-y: hidden;
}

.stroke_order_diagram--guide_line {
  fill: none;
  stroke: #ddd;
  stroke-width: 3;
  stroke-linecap: square;
  stroke-linejoin: square;
  stroke-dasharray:8, 8;
}

.stroke_order_diagram--bounding_box {
  fill: none;
  stroke: #ddd;
  stroke-width: 4;
  stroke-linecap: square;
  stroke-linejoin: square;
}

.stroke_order_diagram--current_path {
  fill: none;
  stroke: #000;
  stroke-width: 6;
  stroke-linecap: round;
  stroke-linejoin: round;
}

.stroke_order_diagram--existing_path {
  fill: none;
  stroke: #aaa;
  stroke-width: 6;
  stroke-linecap: round;
  stroke-linejoin:round;
}

.stroke_order_diagram--path_start {
  fill: rgba(255, 0, 0, 0.7);
  stroke:none
}</style><desc>Created with Snap</desc><defs></defs><line x1="1" x2="899" y1="1" y2="1" class="stroke_order_diagram--bounding_box"></line><line x1="1" x2="1" y1="1" y2="99" class="stroke_order_diagram--bounding_box"></line><line x1="1" x2="899" y1="99" y2="99" class="stroke_order_diagram--bounding_box"></line><line x1="0" x2="900" y1="50" y2="50" class="stroke_order_diagram--guide_line"></line><line x1="50" x2="50" y1="1" y2="99" class="stroke_order_diagram--guide_line"></line><line x1="99" x2="99" y1="1" y2="99" class="stroke_order_diagram--bounding_box"></line><path id="kvg:079b9-s1" kvg:type="㇒" d="M74.21,9.5c0.12,0.37,0.49,1.07-0.25,1.49c-9.13,5.25-23.64,9.07-47.45,13.3" transform="matrix(1,0,0,1,-4,-4)" class="stroke_order_diagram--current_path"></path><path id="pathSk93xdzq02fh" kvg:type="㇒" d="M74.21,9.5c0.12,0.37,0.49,1.07-0.25,1.49c-9.13,5.25-23.64,9.07-47.45,13.3" transform="matrix(1,0,0,1,-4,-4)" class="stroke_order_diagram--current_path"></path><circle cx="74.21" cy="9.5" r="8" class="stroke_order_diagram--path_start" transform="matrix(1,0,0,1,-4,-4)"></circle><line x1="150" x2="150" y1="1" y2="99" class="stroke_order_diagram--guide_line"></line><line x1="199" x2="199" y1="1" y2="99" class="stroke_order_diagram--bounding_box"></line><path id="pathSk93xdzq02fk" kvg:type="㇒" d="M74.21,9.5c0.12,0.37,0.49,1.07-0.25,1.49c-9.13,5.25-23.64,9.07-47.45,13.3" transform="matrix(1,0,0,1,96,-4)" class="stroke_order_diagram--existing_path"></path><path id="kvg:079b9-s2" kvg:type="㇑" d="M26.32,35.24c0.81,0.52,1.84,0.91,1.99,1.6c1.1,4.96,2.22,11.49,3.76,20.88" transform="matrix(1,0,0,1,96,-4)" class="stroke_order_diagram--current_path"></path><path id="pathSk93xdzq02fm" kvg:type="㇑" d="M26.32,35.24c0.81,0.52,1.84,0.91,1.99,1.6c1.1,4.96,2.22,11.49,3.76,20.88" transform="matrix(1,0,0,1,96,-4)" class="stroke_order_diagram--current_path"></path><circle cx="26.32" cy="35.24" r="8" class="stroke_order_diagram--path_start" transform="matrix(1,0,0,1,96,-4)"></circle><line x1="250" x2="250" y1="1" y2="99" class="stroke_order_diagram--guide_line"></line><line x1="299" x2="299" y1="1" y2="99" class="stroke_order_diagram--bounding_box"></line><path id="pathSk93xdzq02fp" kvg:type="㇒" d="M74.21,9.5c0.12,0.37,0.49,1.07-0.25,1.49c-9.13,5.25-23.64,9.07-47.45,13.3" transform="matrix(1,0,0,1,196,-4)" class="stroke_order_diagram--existing_path"></path><path id="pathSk93xdzq02fq" kvg:type="㇑" d="M26.32,35.24c0.81,0.52,1.84,0.91,1.99,1.6c1.1,4.96,2.22,11.49,3.76,20.88" transform="matrix(1,0,0,1,196,-4)" class="stroke_order_diagram--existing_path"></path><path id="kvg:079b9-s3" kvg:type="㇕" d="M28.91,36.35c12.3-0.99,38.83-3.41,47.73-3.79c3.47-0.15,5.11,1.19,4.64,3.9c-0.97,5.61-1.74,7.53-4.13,15.98" transform="matrix(1,0,0,1,196,-4)" class="stroke_order_diagram--current_path"></path><path id="pathSk93xdzq02fs" kvg:type="㇕" d="M28.91,36.35c12.3-0.99,38.83-3.41,47.73-3.79c3.47-0.15,5.11,1.19,4.64,3.9c-0.97,5.61-1.74,7.53-4.13,15.98" transform="matrix(1,0,0,1,196,-4)" class="stroke_order_diagram--current_path"></path><circle cx="28.91" cy="36.35" r="8" class="stroke_order_diagram--path_start" transform="matrix(1,0,0,1,196,-4)"></circle><line x1="350" x2="350" y1="1" y2="99" class="stroke_order_diagram--guide_line"></line><line x1="399" x2="399" y1="1" y2="99" class="stroke_order_diagram--bounding_box"></line><path id="pathSk93xdzq02fv" kvg:type="㇒" d="M74.21,9.5c0.12,0.37,0.49,1.07-0.25,1.49c-9.13,5.25-23.64,9.07-47.45,13.3" transform="matrix(1,0,0,1,296,-4)" class="stroke_order_diagram--existing_path"></path><path id="pathSk93xdzq02fw" kvg:type="㇑" d="M26.32,35.24c0.81,0.52,1.84,0.91,1.99,1.6c1.1,4.96,2.22,11.49,3.76,20.88" transform="matrix(1,0,0,1,296,-4)" class="stroke_order_diagram--existing_path"></path><path id="pathSk93xdzq02fx" kvg:type="㇕" d="M28.91,36.35c12.3-0.99,38.83-3.41,47.73-3.79c3.47-0.15,5.11,1.19,4.64,3.9c-0.97,5.61-1.74,7.53-4.13,15.98" transform="matrix(1,0,0,1,296,-4)" class="stroke_order_diagram--existing_path"></path><path id="kvg:079b9-s4" kvg:type="㇐" d="M32.52,55.72c9.9-1,32.36-2.53,46.21-3.46" transform="matrix(1,0,0,1,296,-4)" class="stroke_order_diagram--current_path"></path><path id="pathSk93xdzq02fz" kvg:type="㇐" d="M32.52,55.72c9.9-1,32.36-2.53,46.21-3.46" transform="matrix(1,0,0,1,296,-4)" class="stroke_order_diagram--current_path"></path><circle cx="32.52" cy="55.72" r="8" class="stroke_order_diagram--path_start" transform="matrix(1,0,0,1,296,-4)"></circle><line x1="450" x2="450" y1="1" y2="99" class="stroke_order_diagram--guide_line"></line><line x1="499" x2="499" y1="1" y2="99" class="stroke_order_diagram--bounding_box"></line><path id="pathSk93xdzq02g2" kvg:type="㇒" d="M74.21,9.5c0.12,0.37,0.49,1.07-0.25,1.49c-9.13,5.25-23.64,9.07-47.45,13.3" transform="matrix(1,0,0,1,396,-4)" class="stroke_order_diagram--existing_path"></path><path id="pathSk93xdzq02g3" kvg:type="㇑" d="M26.32,35.24c0.81,0.52,1.84,0.91,1.99,1.6c1.1,4.96,2.22,11.49,3.76,20.88" transform="matrix(1,0,0,1,396,-4)" class="stroke_order_diagram--existing_path"></path><path id="pathSk93xdzq02g4" kvg:type="㇕" d="M28.91,36.35c12.3-0.99,38.83-3.41,47.73-3.79c3.47-0.15,5.11,1.19,4.64,3.9c-0.97,5.61-1.74,7.53-4.13,15.98" transform="matrix(1,0,0,1,396,-4)" class="stroke_order_diagram--existing_path"></path><path id="pathSk93xdzq02g5" kvg:type="㇐" d="M32.52,55.72c9.9-1,32.36-2.53,46.21-3.46" transform="matrix(1,0,0,1,396,-4)" class="stroke_order_diagram--existing_path"></path><path id="kvg:079b9-s5" kvg:type="㇑" d="M21.25,65.91c0.72,0.61,1.32,1.58,1.46,2.69c0.79,6.65,3.24,30.06,3.24,31.9" transform="matrix(1,0,0,1,396,-4)" class="stroke_order_diagram--current_path"></path><path id="pathSk93xdzq02g7" kvg:type="㇑" d="M21.25,65.91c0.72,0.61,1.32,1.58,1.46,2.69c0.79,6.65,3.24,30.06,3.24,31.9" transform="matrix(1,0,0,1,396,-4)" class="stroke_order_diagram--current_path"></path><circle cx="21.25" cy="65.91" r="8" class="stroke_order_diagram--path_start" transform="matrix(1,0,0,1,396,-4)"></circle><line x1="550" x2="550" y1="1" y2="99" class="stroke_order_diagram--guide_line"></line><line x1="599" x2="599" y1="1" y2="99" class="stroke_order_diagram--bounding_box"></line><path id="pathSk93xdzq02ga" kvg:type="㇒" d="M74.21,9.5c0.12,0.37,0.49,1.07-0.25,1.49c-9.13,5.25-23.64,9.07-47.45,13.3" transform="matrix(1,0,0,1,496,-4)" class="stroke_order_diagram--existing_path"></path><path id="pathSk93xdzq02gb" kvg:type="㇑" d="M26.32,35.24c0.81,0.52,1.84,0.91,1.99,1.6c1.1,4.96,2.22,11.49,3.76,20.88" transform="matrix(1,0,0,1,496,-4)" class="stroke_order_diagram--existing_path"></path><path id="pathSk93xdzq02gc" kvg:type="㇕" d="M28.91,36.35c12.3-0.99,38.83-3.41,47.73-3.79c3.47-0.15,5.11,1.19,4.64,3.9c-0.97,5.61-1.74,7.53-4.13,15.98" transform="matrix(1,0,0,1,496,-4)" class="stroke_order_diagram--existing_path"></path><path id="pathSk93xdzq02gd" kvg:type="㇐" d="M32.52,55.72c9.9-1,32.36-2.53,46.21-3.46" transform="matrix(1,0,0,1,496,-4)" class="stroke_order_diagram--existing_path"></path><path id="pathSk93xdzq02ge" kvg:type="㇑" d="M21.25,65.91c0.72,0.61,1.32,1.58,1.46,2.69c0.79,6.65,3.24,30.06,3.24,31.9" transform="matrix(1,0,0,1,496,-4)" class="stroke_order_diagram--existing_path"></path><path id="kvg:079b9-s6" kvg:type="㇆a" d="M22.21,67.63c9.1-0.49,62.53-3.71,64.32-3.95c3.22-0.43,3.95,1.07,3.73,3.47C89.25,78,87,87,84.03,94.94c-1.59,4.24-4.07,2.33-6.94,0.73" transform="matrix(1,0,0,1,496,-4)" class="stroke_order_diagram--current_path"></path><path id="pathSk93xdzq02gg" kvg:type="㇆a" d="M22.21,67.63c9.1-0.49,62.53-3.71,64.32-3.95c3.22-0.43,3.95,1.07,3.73,3.47C89.25,78,87,87,84.03,94.94c-1.59,4.24-4.07,2.33-6.94,0.73" transform="matrix(1,0,0,1,496,-4)" class="stroke_order_diagram--current_path"></path><circle cx="22.21" cy="67.63" r="8" class="stroke_order_diagram--path_start" transform="matrix(1,0,0,1,496,-4)"></circle><line x1="650" x2="650" y1="1" y2="99" class="stroke_order_diagram--guide_line"></line><line x1="699" x2="699" y1="1" y2="99" class="stroke_order_diagram--bounding_box"></line><path id="pathSk93xdzq02gj" kvg:type="㇒" d="M74.21,9.5c0.12,0.37,0.49,1.07-0.25,1.49c-9.13,5.25-23.64,9.07-47.45,13.3" transform="matrix(1,0,0,1,596,-4)" class="stroke_order_diagram--existing_path"></path><path id="pathSk93xdzq02gk" kvg:type="㇑" d="M26.32,35.24c0.81,0.52,1.84,0.91,1.99,1.6c1.1,4.96,2.22,11.49,3.76,20.88" transform="matrix(1,0,0,1,596,-4)" class="stroke_order_diagram--existing_path"></path><path id="pathSk93xdzq02gl" kvg:type="㇕" d="M28.91,36.35c12.3-0.99,38.83-3.41,47.73-3.79c3.47-0.15,5.11,1.19,4.64,3.9c-0.97,5.61-1.74,7.53-4.13,15.98" transform="matrix(1,0,0,1,596,-4)" class="stroke_order_diagram--existing_path"></path><path id="pathSk93xdzq02gm" kvg:type="㇐" d="M32.52,55.72c9.9-1,32.36-2.53,46.21-3.46" transform="matrix(1,0,0,1,596,-4)" class="stroke_order_diagram--existing_path"></path><path id="pathSk93xdzq02gn" kvg:type="㇑" d="M21.25,65.91c0.72,0.61,1.32,1.58,1.46,2.69c0.79,6.65,3.24,30.06,3.24,31.9" transform="matrix(1,0,0,1,596,-4)" class="stroke_order_diagram--existing_path"></path><path id="pathSk93xdzq02go" kvg:type="㇆a" d="M22.21,67.63c9.1-0.49,62.53-3.71,64.32-3.95c3.22-0.43,3.95,1.07,3.73,3.47C89.25,78,87,87,84.03,94.94c-1.59,4.24-4.07,2.33-6.94,0.73" transform="matrix(1,0,0,1,596,-4)" class="stroke_order_diagram--existing_path"></path><path id="kvg:079b9-s7" kvg:type="㇑" d="M52.52,22.25c0.99,0.38,1.78,2.18,1.78,2.96c0,5.04,0.5,49.72,0.3,54.44" transform="matrix(1,0,0,1,596,-4)" class="stroke_order_diagram--current_path"></path><path id="pathSk93xdzq02gq" kvg:type="㇑" d="M52.52,22.25c0.99,0.38,1.78,2.18,1.78,2.96c0,5.04,0.5,49.72,0.3,54.44" transform="matrix(1,0,0,1,596,-4)" class="stroke_order_diagram--current_path"></path><circle cx="52.52" cy="22.25" r="8" class="stroke_order_diagram--path_start" transform="matrix(1,0,0,1,596,-4)"></circle><line x1="750" x2="750" y1="1" y2="99" class="stroke_order_diagram--guide_line"></line><line x1="799" x2="799" y1="1" y2="99" class="stroke_order_diagram--bounding_box"></line><path id="pathSk93xdzq02gt" kvg:type="㇒" d="M74.21,9.5c0.12,0.37,0.49,1.07-0.25,1.49c-9.13,5.25-23.64,9.07-47.45,13.3" transform="matrix(1,0,0,1,696,-4)" class="stroke_order_diagram--existing_path"></path><path id="pathSk93xdzq02gu" kvg:type="㇑" d="M26.32,35.24c0.81,0.52,1.84,0.91,1.99,1.6c1.1,4.96,2.22,11.49,3.76,20.88" transform="matrix(1,0,0,1,696,-4)" class="stroke_order_diagram--existing_path"></path><path id="pathSk93xdzq02gv" kvg:type="㇕" d="M28.91,36.35c12.3-0.99,38.83-3.41,47.73-3.79c3.47-0.15,5.11,1.19,4.64,3.9c-0.97,5.61-1.74,7.53-4.13,15.98" transform="matrix(1,0,0,1,696,-4)" class="stroke_order_diagram--existing_path"></path><path id="pathSk93xdzq02gw" kvg:type="㇐" d="M32.52,55.72c9.9-1,32.36-2.53,46.21-3.46" transform="matrix(1,0,0,1,696,-4)" class="stroke_order_diagram--existing_path"></path><path id="pathSk93xdzq02gx" kvg:type="㇑" d="M21.25,65.91c0.72,0.61,1.32,1.58,1.46,2.69c0.79,6.65,3.24,30.06,3.24,31.9" transform="matrix(1,0,0,1,696,-4)" class="stroke_order_diagram--existing_path"></path><path id="pathSk93xdzq02gy" kvg:type="㇆a" d="M22.21,67.63c9.1-0.49,62.53-3.71,64.32-3.95c3.22-0.43,3.95,1.07,3.73,3.47C89.25,78,87,87,84.03,94.94c-1.59,4.24-4.07,2.33-6.94,0.73" transform="matrix(1,0,0,1,696,-4)" class="stroke_order_diagram--existing_path"></path><path id="pathSk93xdzq02gz" kvg:type="㇑" d="M52.52,22.25c0.99,0.38,1.78,2.18,1.78,2.96c0,5.04,0.5,49.72,0.3,54.44" transform="matrix(1,0,0,1,696,-4)" class="stroke_order_diagram--existing_path"></path><path id="kvg:079b9-s8" kvg:type="㇐" d="M37.92,83.92c0.71,0.7,2.14,1.13,2.83,0.9c6.99-2.32,25.65-7.43,27.76-8.31" transform="matrix(1,0,0,1,696,-4)" class="stroke_order_diagram--current_path"></path><path id="pathSk93xdzq02h1" kvg:type="㇐" d="M37.92,83.92c0.71,0.7,2.14,1.13,2.83,0.9c6.99-2.32,25.65-7.43,27.76-8.31" transform="matrix(1,0,0,1,696,-4)" class="stroke_order_diagram--current_path"></path><circle cx="37.92" cy="83.92" r="8" class="stroke_order_diagram--path_start" transform="matrix(1,0,0,1,696,-4)"></circle><line x1="850" x2="850" y1="1" y2="99" class="stroke_order_diagram--guide_line"></line><line x1="899" x2="899" y1="1" y2="99" class="stroke_order_diagram--bounding_box"></line><path id="pathSk93xdzq02h4" kvg:type="㇒" d="M74.21,9.5c0.12,0.37,0.49,1.07-0.25,1.49c-9.13,5.25-23.64,9.07-47.45,13.3" transform="matrix(1,0,0,1,796,-4)" class="stroke_order_diagram--existing_path"></path><path id="pathSk93xdzq02h5" kvg:type="㇑" d="M26.32,35.24c0.81,0.52,1.84,0.91,1.99,1.6c1.1,4.96,2.22,11.49,3.76,20.88" transform="matrix(1,0,0,1,796,-4)" class="stroke_order_diagram--existing_path"></path><path id="pathSk93xdzq02h6" kvg:type="㇕" d="M28.91,36.35c12.3-0.99,38.83-3.41,47.73-3.79c3.47-0.15,5.11,1.19,4.64,3.9c-0.97,5.61-1.74,7.53-4.13,15.98" transform="matrix(1,0,0,1,796,-4)" class="stroke_order_diagram--existing_path"></path><path id="pathSk93xdzq02h7" kvg:type="㇐" d="M32.52,55.72c9.9-1,32.36-2.53,46.21-3.46" transform="matrix(1,0,0,1,796,-4)" class="stroke_order_diagram--existing_path"></path><path id="pathSk93xdzq02h8" kvg:type="㇑" d="M21.25,65.91c0.72,0.61,1.32,1.58,1.46,2.69c0.79,6.65,3.24,30.06,3.24,31.9" transform="matrix(1,0,0,1,796,-4)" class="stroke_order_diagram--existing_path"></path><path id="pathSk93xdzq02h9" kvg:type="㇆a" d="M22.21,67.63c9.1-0.49,62.53-3.71,64.32-3.95c3.22-0.43,3.95,1.07,3.73,3.47C89.25,78,87,87,84.03,94.94c-1.59,4.24-4.07,2.33-6.94,0.73" transform="matrix(1,0,0,1,796,-4)" class="stroke_order_diagram--existing_path"></path><path id="pathSk93xdzq02ha" kvg:type="㇑" d="M52.52,22.25c0.99,0.38,1.78,2.18,1.78,2.96c0,5.04,0.5,49.72,0.3,54.44" transform="matrix(1,0,0,1,796,-4)" class="stroke_order_diagram--existing_path"></path><path id="pathSk93xdzq02hb" kvg:type="㇐" d="M37.92,83.92c0.71,0.7,2.14,1.13,2.83,0.9c6.99-2.32,25.65-7.43,27.76-8.31" transform="matrix(1,0,0,1,796,-4)" class="stroke_order_diagram--existing_path"></path><path id="kvg:079b9-s9" kvg:type="㇔" d="M65.34,71.2c3.5,2.41,9.05,9.91,9.93,13.66" transform="matrix(1,0,0,1,796,-4)" class="stroke_order_diagram--current_path"></path><path id="pathSk93xdzq02hd" kvg:type="㇔" d="M65.34,71.2c3.5,2.41,9.05,9.91,9.93,13.66" transform="matrix(1,0,0,1,796,-4)" class="stroke_order_diagram--current_path"></path><circle cx="65.34" cy="71.2" r="8" class="stroke_order_diagram--path_start" transform="matrix(1,0,0,1,796,-4)"></circle></svg>