<?xml version="1.0" encoding="UTF-8"?>
<!DOCTYPE svg PUBLIC "-//W3C//DTD SVG 1.0//EN" "http://www.w3.org/TR/2001/REC-SVG-20010904/DTD/svg10.dtd" [
<!ATTLIST g
xmlns:kvg CDATA #FIXED "http://kanjivg.tagaini.net"
kvg:element CDATA #IMPLIED
kvg:variant CDATA #IMPLIED
kvg:partial CDATA #IMPLIED
kvg:original CDATA #IMPLIED
kvg:part CDATA #IMPLIED
kvg:number CDATA #IMPLIED
kvg:tradForm CDATA #IMPLIED
kvg:radicalForm CDATA #IMPLIED
kvg:position CDATA #IMPLIED
kvg:radical CDATA #IMPLIED
kvg:phon CDATA #IMPLIED >
<!ATTLIST path
xmlns:kvg CDATA #FIXED "http://kanjivg.tagaini.net"
kvg:type CDATA #IMPLIED >
]><svg style="width: 500px; height: 100px;" xmlns="http://www.w3.org/2000/svg" xmlns:xlink="http://www.w3.org/1999/xlink" width="500px" height="100px"><style>
.stroke_order_diagram--outer_container {
  width: 100%;
  overflow-x: auto;
  overflow-y: hidden;
}

.stroke_order_diagram--guide_line {
  fill: none;
  stroke: #ddd;
  stroke-width: 3;
  stroke-linecap: square;
  stroke-linejoin: square;
  stroke-dasharray:8, 8;
}

.stroke_order_diagram--bounding_box {
  fill: none;
  stroke: #ddd;
  stroke-width: 4;
  stroke-linecap: square;
  stroke-linejoin: square;
}

.stroke_order_diagram--current_path {
  fill: none;
  stroke: #000;
  stroke-width: 6;
  stroke-linecap: round;
  stroke-linejoin: round;
}

.stroke_order_diagram--existing_path {
  fill: none;
  stroke: #aaa;
  stroke-width: 6;
  stroke-linecap: round;
  stroke-linejoin:round;
}

.stroke_order_diagram--path_start {
  fill: rgba(255, 0, 0, 0.7);
  stroke:none
}</style><desc>Created with Snap</desc><defs></defs><line x1="1" x2="499" y1="1" y2="1" class="stroke_order_diagram--bounding_box"></line><line x1="1" x2="1" y1="1" y2="99" class="stroke_order_diagram--bounding_box"></line><line x1="1" x2="499" y1="99" y2="99" class="stroke_order_diagram--bounding_box"></line><line x1="0" x2="500" y1="50" y2="50" class="stroke_order_diagram--guide_line"></line><line x1="50" x2="50" y1="1" y2="99" class="stroke_order_diagram--guide_line"></line><line x1="99" x2="99" y1="1" y2="99" class="stroke_order_diagram--bounding_box"></line><path id="kvg:07acb-s1" kvg:type="㇑a" d="M51.51,15c1.43,1.43,2.24,3.25,2.24,5.81c0,4.06,0,9.56,0,13.69" transform="matrix(1,0,0,1,-4,-4)" class="stroke_order_diagram--current_path"></path><path id="pathSk940yk7k2k2" kvg:type="㇑a" d="M51.51,15c1.43,1.43,2.24,3.25,2.24,5.81c0,4.06,0,9.56,0,13.69" transform="matrix(1,0,0,1,-4,-4)" class="stroke_order_diagram--current_path"></path><circle cx="51.51" cy="15" r="8" class="stroke_order_diagram--path_start" transform="matrix(1,0,0,1,-4,-4)"></circle><line x1="150" x2="150" y1="1" y2="99" class="stroke_order_diagram--guide_line"></line><line x1="199" x2="199" y1="1" y2="99" class="stroke_order_diagram--bounding_box"></line><path id="pathSk940yk7k2k5" kvg:type="㇑a" d="M51.51,15c1.43,1.43,2.24,3.25,2.24,5.81c0,4.06,0,9.56,0,13.69" transform="matrix(1,0,0,1,96,-4)" class="stroke_order_diagram--existing_path"></path><path id="kvg:07acb-s2" kvg:type="㇐" d="M22,37.86c2.62,0.51,4.75,0.34,7,0.16c11.38-0.9,36.13-3.4,50.65-4.26c2.38-0.14,4.86-0.01,6.86,0.4" transform="matrix(1,0,0,1,96,-4)" class="stroke_order_diagram--current_path"></path><path id="pathSk940yk7k2k7" kvg:type="㇐" d="M22,37.86c2.62,0.51,4.75,0.34,7,0.16c11.38-0.9,36.13-3.4,50.65-4.26c2.38-0.14,4.86-0.01,6.86,0.4" transform="matrix(1,0,0,1,96,-4)" class="stroke_order_diagram--current_path"></path><circle cx="22" cy="37.86" r="8" class="stroke_order_diagram--path_start" transform="matrix(1,0,0,1,96,-4)"></circle><line x1="250" x2="250" y1="1" y2="99" class="stroke_order_diagram--guide_line"></line><line x1="299" x2="299" y1="1" y2="99" class="stroke_order_diagram--bounding_box"></line><path id="pathSk940yk7k2ka" kvg:type="㇑a" d="M51.51,15c1.43,1.43,2.24,3.25,2.24,5.81c0,4.06,0,9.56,0,13.69" transform="matrix(1,0,0,1,196,-4)" class="stroke_order_diagram--existing_path"></path><path id="pathSk940yk7k2kb" kvg:type="㇐" d="M22,37.86c2.62,0.51,4.75,0.34,7,0.16c11.38-0.9,36.13-3.4,50.65-4.26c2.38-0.14,4.86-0.01,6.86,0.4" transform="matrix(1,0,0,1,196,-4)" class="stroke_order_diagram--existing_path"></path><path id="kvg:07acb-s3" kvg:type="㇔" d="M32,49c4.75,9.75,8.25,22.5,9.5,31.5" transform="matrix(1,0,0,1,196,-4)" class="stroke_order_diagram--current_path"></path><path id="pathSk940yk7k2kd" kvg:type="㇔" d="M32,49c4.75,9.75,8.25,22.5,9.5,31.5" transform="matrix(1,0,0,1,196,-4)" class="stroke_order_diagram--current_path"></path><circle cx="32" cy="49" r="8" class="stroke_order_diagram--path_start" transform="matrix(1,0,0,1,196,-4)"></circle><line x1="350" x2="350" y1="1" y2="99" class="stroke_order_diagram--guide_line"></line><line x1="399" x2="399" y1="1" y2="99" class="stroke_order_diagram--bounding_box"></line><path id="pathSk940yk7k2kg" kvg:type="㇑a" d="M51.51,15c1.43,1.43,2.24,3.25,2.24,5.81c0,4.06,0,9.56,0,13.69" transform="matrix(1,0,0,1,296,-4)" class="stroke_order_diagram--existing_path"></path><path id="pathSk940yk7k2kh" kvg:type="㇐" d="M22,37.86c2.62,0.51,4.75,0.34,7,0.16c11.38-0.9,36.13-3.4,50.65-4.26c2.38-0.14,4.86-0.01,6.86,0.4" transform="matrix(1,0,0,1,296,-4)" class="stroke_order_diagram--existing_path"></path><path id="pathSk940yk7k2ki" kvg:type="㇔" d="M32,49c4.75,9.75,8.25,22.5,9.5,31.5" transform="matrix(1,0,0,1,296,-4)" class="stroke_order_diagram--existing_path"></path><path id="kvg:07acb-s4" kvg:type="㇒" d="M74,39c0.75,1.38,0.81,3.29,0.5,4.5c-2.88,11.12-8.5,30.38-12.75,42" transform="matrix(1,0,0,1,296,-4)" class="stroke_order_diagram--current_path"></path><path id="pathSk940yk7k2kk" kvg:type="㇒" d="M74,39c0.75,1.38,0.81,3.29,0.5,4.5c-2.88,11.12-8.5,30.38-12.75,42" transform="matrix(1,0,0,1,296,-4)" class="stroke_order_diagram--current_path"></path><circle cx="74" cy="39" r="8" class="stroke_order_diagram--path_start" transform="matrix(1,0,0,1,296,-4)"></circle><line x1="450" x2="450" y1="1" y2="99" class="stroke_order_diagram--guide_line"></line><line x1="499" x2="499" y1="1" y2="99" class="stroke_order_diagram--bounding_box"></line><path id="pathSk940yk7k2kn" kvg:type="㇑a" d="M51.51,15c1.43,1.43,2.24,3.25,2.24,5.81c0,4.06,0,9.56,0,13.69" transform="matrix(1,0,0,1,396,-4)" class="stroke_order_diagram--existing_path"></path><path id="pathSk940yk7k2ko" kvg:type="㇐" d="M22,37.86c2.62,0.51,4.75,0.34,7,0.16c11.38-0.9,36.13-3.4,50.65-4.26c2.38-0.14,4.86-0.01,6.86,0.4" transform="matrix(1,0,0,1,396,-4)" class="stroke_order_diagram--existing_path"></path><path id="pathSk940yk7k2kp" kvg:type="㇔" d="M32,49c4.75,9.75,8.25,22.5,9.5,31.5" transform="matrix(1,0,0,1,396,-4)" class="stroke_order_diagram--existing_path"></path><path id="pathSk940yk7k2kq" kvg:type="㇒" d="M74,39c0.75,1.38,0.81,3.29,0.5,4.5c-2.88,11.12-8.5,30.38-12.75,42" transform="matrix(1,0,0,1,396,-4)" class="stroke_order_diagram--existing_path"></path><path id="kvg:07acb-s5" kvg:type="㇐" d="M15.25,88.8c2.33,0.45,5.89,0.53,7.82,0.39c18.3-1.32,40.31-1.94,64.83-2.75c3.24-0.11,6.14,0.05,8.47,0.88" transform="matrix(1,0,0,1,396,-4)" class="stroke_order_diagram--current_path"></path><path id="pathSk940yk7k2ks" kvg:type="㇐" d="M15.25,88.8c2.33,0.45,5.89,0.53,7.82,0.39c18.3-1.32,40.31-1.94,64.83-2.75c3.24-0.11,6.14,0.05,8.47,0.88" transform="matrix(1,0,0,1,396,-4)" class="stroke_order_diagram--current_path"></path><circle cx="15.25" cy="88.8" r="8" class="stroke_order_diagram--path_start" transform="matrix(1,0,0,1,396,-4)"></circle></svg>