<?xml version="1.0" encoding="UTF-8"?>
<!DOCTYPE svg PUBLIC "-//W3C//DTD SVG 1.0//EN" "http://www.w3.org/TR/2001/REC-SVG-20010904/DTD/svg10.dtd" [
<!ATTLIST g
xmlns:kvg CDATA #FIXED "http://kanjivg.tagaini.net"
kvg:element CDATA #IMPLIED
kvg:variant CDATA #IMPLIED
kvg:partial CDATA #IMPLIED
kvg:original CDATA #IMPLIED
kvg:part CDATA #IMPLIED
kvg:number CDATA #IMPLIED
kvg:tradForm CDATA #IMPLIED
kvg:radicalForm CDATA #IMPLIED
kvg:position CDATA #IMPLIED
kvg:radical CDATA #IMPLIED
kvg:phon CDATA #IMPLIED >
<!ATTLIST path
xmlns:kvg CDATA #FIXED "http://kanjivg.tagaini.net"
kvg:type CDATA #IMPLIED >
]><svg style="width: 600px; height: 100px;" xmlns="http://www.w3.org/2000/svg" xmlns:xlink="http://www.w3.org/1999/xlink" width="600px" height="100px"><style>
.stroke_order_diagram--outer_container {
  width: 100%;
  overflow-x: auto;
  overflow-y: hidden;
}

.stroke_order_diagram--guide_line {
  fill: none;
  stroke: #ddd;
  stroke-width: 3;
  stroke-linecap: square;
  stroke-linejoin: square;
  stroke-dasharray:8, 8;
}

.stroke_order_diagram--bounding_box {
  fill: none;
  stroke: #ddd;
  stroke-width: 4;
  stroke-linecap: square;
  stroke-linejoin: square;
}

.stroke_order_diagram--current_path {
  fill: none;
  stroke: #000;
  stroke-width: 6;
  stroke-linecap: round;
  stroke-linejoin: round;
}

.stroke_order_diagram--existing_path {
  fill: none;
  stroke: #aaa;
  stroke-width: 6;
  stroke-linecap: round;
  stroke-linejoin:round;
}

.stroke_order_diagram--path_start {
  fill: rgba(255, 0, 0, 0.7);
  stroke:none
}</style><desc>Created with Snap</desc><defs></defs><line x1="1" x2="599" y1="1" y2="1" class="stroke_order_diagram--bounding_box"></line><line x1="1" x2="1" y1="1" y2="99" class="stroke_order_diagram--bounding_box"></line><line x1="1" x2="599" y1="99" y2="99" class="stroke_order_diagram--bounding_box"></line><line x1="0" x2="600" y1="50" y2="50" class="stroke_order_diagram--guide_line"></line><line x1="50" x2="50" y1="1" y2="99" class="stroke_order_diagram--guide_line"></line><line x1="99" x2="99" y1="1" y2="99" class="stroke_order_diagram--bounding_box"></line><path id="kvg:07f8a-s1" kvg:type="㇔" d="M33.89,11.71c3.06,2.03,7.9,8.35,8.67,11.51" transform="matrix(1,0,0,1,-4,-4)" class="stroke_order_diagram--current_path"></path><path id="pathSk940yk7k2sb" kvg:type="㇔" d="M33.89,11.71c3.06,2.03,7.9,8.35,8.67,11.51" transform="matrix(1,0,0,1,-4,-4)" class="stroke_order_diagram--current_path"></path><circle cx="33.89" cy="11.71" r="8" class="stroke_order_diagram--path_start" transform="matrix(1,0,0,1,-4,-4)"></circle><line x1="150" x2="150" y1="1" y2="99" class="stroke_order_diagram--guide_line"></line><line x1="199" x2="199" y1="1" y2="99" class="stroke_order_diagram--bounding_box"></line><path id="pathSk940yk7k2se" kvg:type="㇔" d="M33.89,11.71c3.06,2.03,7.9,8.35,8.67,11.51" transform="matrix(1,0,0,1,96,-4)" class="stroke_order_diagram--existing_path"></path><path id="kvg:07f8a-s2" kvg:type="㇒" d="M69.9,10.64c0.03,0.38,0.12,1.25-0.06,1.79C68.5,16.25,65,21,59.78,25.95" transform="matrix(1,0,0,1,96,-4)" class="stroke_order_diagram--current_path"></path><path id="pathSk940yk7k2sg" kvg:type="㇒" d="M69.9,10.64c0.03,0.38,0.12,1.25-0.06,1.79C68.5,16.25,65,21,59.78,25.95" transform="matrix(1,0,0,1,96,-4)" class="stroke_order_diagram--current_path"></path><circle cx="69.9" cy="10.64" r="8" class="stroke_order_diagram--path_start" transform="matrix(1,0,0,1,96,-4)"></circle><line x1="250" x2="250" y1="1" y2="99" class="stroke_order_diagram--guide_line"></line><line x1="299" x2="299" y1="1" y2="99" class="stroke_order_diagram--bounding_box"></line><path id="pathSk940yk7k2sj" kvg:type="㇔" d="M33.89,11.71c3.06,2.03,7.9,8.35,8.67,11.51" transform="matrix(1,0,0,1,196,-4)" class="stroke_order_diagram--existing_path"></path><path id="pathSk940yk7k2sk" kvg:type="㇒" d="M69.9,10.64c0.03,0.38,0.12,1.25-0.06,1.79C68.5,16.25,65,21,59.78,25.95" transform="matrix(1,0,0,1,196,-4)" class="stroke_order_diagram--existing_path"></path><path id="kvg:07f8a-s3" kvg:type="㇐" d="M26.5,31.64c2.88,0.44,5.74,0.25,8.63,0.01c11-0.9,27.5-3.4,39.36-3.89c2.52-0.1,5.16-0.34,7.64,0.25" transform="matrix(1,0,0,1,196,-4)" class="stroke_order_diagram--current_path"></path><path id="pathSk940yk7k2sm" kvg:type="㇐" d="M26.5,31.64c2.88,0.44,5.74,0.25,8.63,0.01c11-0.9,27.5-3.4,39.36-3.89c2.52-0.1,5.16-0.34,7.64,0.25" transform="matrix(1,0,0,1,196,-4)" class="stroke_order_diagram--current_path"></path><circle cx="26.5" cy="31.64" r="8" class="stroke_order_diagram--path_start" transform="matrix(1,0,0,1,196,-4)"></circle><line x1="350" x2="350" y1="1" y2="99" class="stroke_order_diagram--guide_line"></line><line x1="399" x2="399" y1="1" y2="99" class="stroke_order_diagram--bounding_box"></line><path id="pathSk940yk7k2sp" kvg:type="㇔" d="M33.89,11.71c3.06,2.03,7.9,8.35,8.67,11.51" transform="matrix(1,0,0,1,296,-4)" class="stroke_order_diagram--existing_path"></path><path id="pathSk940yk7k2sq" kvg:type="㇒" d="M69.9,10.64c0.03,0.38,0.12,1.25-0.06,1.79C68.5,16.25,65,21,59.78,25.95" transform="matrix(1,0,0,1,296,-4)" class="stroke_order_diagram--existing_path"></path><path id="pathSk940yk7k2sr" kvg:type="㇐" d="M26.5,31.64c2.88,0.44,5.74,0.25,8.63,0.01c11-0.9,27.5-3.4,39.36-3.89c2.52-0.1,5.16-0.34,7.64,0.25" transform="matrix(1,0,0,1,296,-4)" class="stroke_order_diagram--existing_path"></path><path id="kvg:07f8a-s4" kvg:type="㇐" d="M28.25,49.64c2.38,0.61,4.96,0.67,7.14,0.34c11.36-1.73,26.36-3.23,36.74-3.73c2.43-0.12,5.23-0.07,7.62,0.51" transform="matrix(1,0,0,1,296,-4)" class="stroke_order_diagram--current_path"></path><path id="pathSk940yk7k2st" kvg:type="㇐" d="M28.25,49.64c2.38,0.61,4.96,0.67,7.14,0.34c11.36-1.73,26.36-3.23,36.74-3.73c2.43-0.12,5.23-0.07,7.62,0.51" transform="matrix(1,0,0,1,296,-4)" class="stroke_order_diagram--current_path"></path><circle cx="28.25" cy="49.64" r="8" class="stroke_order_diagram--path_start" transform="matrix(1,0,0,1,296,-4)"></circle><line x1="450" x2="450" y1="1" y2="99" class="stroke_order_diagram--guide_line"></line><line x1="499" x2="499" y1="1" y2="99" class="stroke_order_diagram--bounding_box"></line><path id="pathSk940yk7k2sw" kvg:type="㇔" d="M33.89,11.71c3.06,2.03,7.9,8.35,8.67,11.51" transform="matrix(1,0,0,1,396,-4)" class="stroke_order_diagram--existing_path"></path><path id="pathSk940yk7k2sx" kvg:type="㇒" d="M69.9,10.64c0.03,0.38,0.12,1.25-0.06,1.79C68.5,16.25,65,21,59.78,25.95" transform="matrix(1,0,0,1,396,-4)" class="stroke_order_diagram--existing_path"></path><path id="pathSk940yk7k2sy" kvg:type="㇐" d="M26.5,31.64c2.88,0.44,5.74,0.25,8.63,0.01c11-0.9,27.5-3.4,39.36-3.89c2.52-0.1,5.16-0.34,7.64,0.25" transform="matrix(1,0,0,1,396,-4)" class="stroke_order_diagram--existing_path"></path><path id="pathSk940yk7k2sz" kvg:type="㇐" d="M28.25,49.64c2.38,0.61,4.96,0.67,7.14,0.34c11.36-1.73,26.36-3.23,36.74-3.73c2.43-0.12,5.23-0.07,7.62,0.51" transform="matrix(1,0,0,1,396,-4)" class="stroke_order_diagram--existing_path"></path><path id="kvg:07f8a-s5" kvg:type="㇐" d="M13.75,68.95c3.96,0.68,8.72,0.42,12.73,0.13c15.53-1.16,37.11-3.35,55.58-3.77c4.08-0.09,8.3-0.28,12.32,0.49" transform="matrix(1,0,0,1,396,-4)" class="stroke_order_diagram--current_path"></path><path id="pathSk940yk7k2t1" kvg:type="㇐" d="M13.75,68.95c3.96,0.68,8.72,0.42,12.73,0.13c15.53-1.16,37.11-3.35,55.58-3.77c4.08-0.09,8.3-0.28,12.32,0.49" transform="matrix(1,0,0,1,396,-4)" class="stroke_order_diagram--current_path"></path><circle cx="13.75" cy="68.95" r="8" class="stroke_order_diagram--path_start" transform="matrix(1,0,0,1,396,-4)"></circle><line x1="550" x2="550" y1="1" y2="99" class="stroke_order_diagram--guide_line"></line><line x1="599" x2="599" y1="1" y2="99" class="stroke_order_diagram--bounding_box"></line><path id="pathSk940yk7k2t4" kvg:type="㇔" d="M33.89,11.71c3.06,2.03,7.9,8.35,8.67,11.51" transform="matrix(1,0,0,1,496,-4)" class="stroke_order_diagram--existing_path"></path><path id="pathSk940yk7k2t5" kvg:type="㇒" d="M69.9,10.64c0.03,0.38,0.12,1.25-0.06,1.79C68.5,16.25,65,21,59.78,25.95" transform="matrix(1,0,0,1,496,-4)" class="stroke_order_diagram--existing_path"></path><path id="pathSk940yk7k2t6" kvg:type="㇐" d="M26.5,31.64c2.88,0.44,5.74,0.25,8.63,0.01c11-0.9,27.5-3.4,39.36-3.89c2.52-0.1,5.16-0.34,7.64,0.25" transform="matrix(1,0,0,1,496,-4)" class="stroke_order_diagram--existing_path"></path><path id="pathSk940yk7k2t7" kvg:type="㇐" d="M28.25,49.64c2.38,0.61,4.96,0.67,7.14,0.34c11.36-1.73,26.36-3.23,36.74-3.73c2.43-0.12,5.23-0.07,7.62,0.51" transform="matrix(1,0,0,1,496,-4)" class="stroke_order_diagram--existing_path"></path><path id="pathSk940yk7k2t8" kvg:type="㇐" d="M13.75,68.95c3.96,0.68,8.72,0.42,12.73,0.13c15.53-1.16,37.11-3.35,55.58-3.77c4.08-0.09,8.3-0.28,12.32,0.49" transform="matrix(1,0,0,1,496,-4)" class="stroke_order_diagram--existing_path"></path><path id="kvg:07f8a-s6" kvg:type="㇑" d="M52.75,32.75c1,1,1.5,2.5,1.5,3.5c0,0.89,0,41.12,0,58.12c0,2.72,0,4.85,0,6.12" transform="matrix(1,0,0,1,496,-4)" class="stroke_order_diagram--current_path"></path><path id="pathSk940yk7k2ta" kvg:type="㇑" d="M52.75,32.75c1,1,1.5,2.5,1.5,3.5c0,0.89,0,41.12,0,58.12c0,2.72,0,4.85,0,6.12" transform="matrix(1,0,0,1,496,-4)" class="stroke_order_diagram--current_path"></path><circle cx="52.75" cy="32.75" r="8" class="stroke_order_diagram--path_start" transform="matrix(1,0,0,1,496,-4)"></circle></svg>