<?xml version="1.0" encoding="UTF-8"?>
<!DOCTYPE svg PUBLIC "-//W3C//DTD SVG 1.0//EN" "http://www.w3.org/TR/2001/REC-SVG-20010904/DTD/svg10.dtd" [
<!ATTLIST g
xmlns:kvg CDATA #FIXED "http://kanjivg.tagaini.net"
kvg:element CDATA #IMPLIED
kvg:variant CDATA #IMPLIED
kvg:partial CDATA #IMPLIED
kvg:original CDATA #IMPLIED
kvg:part CDATA #IMPLIED
kvg:number CDATA #IMPLIED
kvg:tradForm CDATA #IMPLIED
kvg:radicalForm CDATA #IMPLIED
kvg:position CDATA #IMPLIED
kvg:radical CDATA #IMPLIED
kvg:phon CDATA #IMPLIED >
<!ATTLIST path
xmlns:kvg CDATA #FIXED "http://kanjivg.tagaini.net"
kvg:type CDATA #IMPLIED >
]><svg style="width: 600px; height: 100px;" xmlns="http://www.w3.org/2000/svg" xmlns:xlink="http://www.w3.org/1999/xlink" width="600px" height="100px"><style>
.stroke_order_diagram--outer_container {
  width: 100%;
  overflow-x: auto;
  overflow-y: hidden;
}

.stroke_order_diagram--guide_line {
  fill: none;
  stroke: #ddd;
  stroke-width: 3;
  stroke-linecap: square;
  stroke-linejoin: square;
  stroke-dasharray:8, 8;
}

.stroke_order_diagram--bounding_box {
  fill: none;
  stroke: #ddd;
  stroke-width: 4;
  stroke-linecap: square;
  stroke-linejoin: square;
}

.stroke_order_diagram--current_path {
  fill: none;
  stroke: #000;
  stroke-width: 6;
  stroke-linecap: round;
  stroke-linejoin: round;
}

.stroke_order_diagram--existing_path {
  fill: none;
  stroke: #aaa;
  stroke-width: 6;
  stroke-linecap: round;
  stroke-linejoin:round;
}

.stroke_order_diagram--path_start {
  fill: rgba(255, 0, 0, 0.7);
  stroke:none
}</style><desc>Created with Snap</desc><defs></defs><line x1="1" x2="599" y1="1" y2="1" class="stroke_order_diagram--bounding_box"></line><line x1="1" x2="1" y1="1" y2="99" class="stroke_order_diagram--bounding_box"></line><line x1="1" x2="599" y1="99" y2="99" class="stroke_order_diagram--bounding_box"></line><line x1="0" x2="600" y1="50" y2="50" class="stroke_order_diagram--guide_line"></line><line x1="50" x2="50" y1="1" y2="99" class="stroke_order_diagram--guide_line"></line><line x1="99" x2="99" y1="1" y2="99" class="stroke_order_diagram--bounding_box"></line><path id="kvg:0800c-s1" kvg:type="㇐" d="M20.75,23.27c4.15,0.67,8.28,0.39,12.48,0.01c11.66-1.05,28.77-2.53,41.63-3.26c4.25-0.24,8.44-0.44,12.63,0.2" transform="matrix(1,0,0,1,-4,-4)" class="stroke_order_diagram--current_path"></path><path id="pathSk940yk7k2wk" kvg:type="㇐" d="M20.75,23.27c4.15,0.67,8.28,0.39,12.48,0.01c11.66-1.05,28.77-2.53,41.63-3.26c4.25-0.24,8.44-0.44,12.63,0.2" transform="matrix(1,0,0,1,-4,-4)" class="stroke_order_diagram--current_path"></path><circle cx="20.75" cy="23.27" r="8" class="stroke_order_diagram--path_start" transform="matrix(1,0,0,1,-4,-4)"></circle><line x1="150" x2="150" y1="1" y2="99" class="stroke_order_diagram--guide_line"></line><line x1="199" x2="199" y1="1" y2="99" class="stroke_order_diagram--bounding_box"></line><path id="pathSk940yk7k2wn" kvg:type="㇐" d="M20.75,23.27c4.15,0.67,8.28,0.39,12.48,0.01c11.66-1.05,28.77-2.53,41.63-3.26c4.25-0.24,8.44-0.44,12.63,0.2" transform="matrix(1,0,0,1,96,-4)" class="stroke_order_diagram--existing_path"></path><path id="kvg:0800c-s2" kvg:type="㇒" d="M51.53,25.39c0.07,0.86-0.07,1.77-0.48,2.52c-2.68,4.96-3.93,7.09-8.18,13.21" transform="matrix(1,0,0,1,96,-4)" class="stroke_order_diagram--current_path"></path><path id="pathSk940yk7k2wp" kvg:type="㇒" d="M51.53,25.39c0.07,0.86-0.07,1.77-0.48,2.52c-2.68,4.96-3.93,7.09-8.18,13.21" transform="matrix(1,0,0,1,96,-4)" class="stroke_order_diagram--current_path"></path><circle cx="51.53" cy="25.39" r="8" class="stroke_order_diagram--path_start" transform="matrix(1,0,0,1,96,-4)"></circle><line x1="250" x2="250" y1="1" y2="99" class="stroke_order_diagram--guide_line"></line><line x1="299" x2="299" y1="1" y2="99" class="stroke_order_diagram--bounding_box"></line><path id="pathSk940yk7k2ws" kvg:type="㇐" d="M20.75,23.27c4.15,0.67,8.28,0.39,12.48,0.01c11.66-1.05,28.77-2.53,41.63-3.26c4.25-0.24,8.44-0.44,12.63,0.2" transform="matrix(1,0,0,1,196,-4)" class="stroke_order_diagram--existing_path"></path><path id="pathSk940yk7k2wt" kvg:type="㇒" d="M51.53,25.39c0.07,0.86-0.07,1.77-0.48,2.52c-2.68,4.96-3.93,7.09-8.18,13.21" transform="matrix(1,0,0,1,196,-4)" class="stroke_order_diagram--existing_path"></path><path id="kvg:0800c-s3" kvg:type="㇑" d="M17,43.25c1.12,1.12,1.35,2.24,1.5,4.5c0.37,5.49,1.58,20.95,2.22,31.88c0.23,4.01,0.43,7.38,0.53,9.37" transform="matrix(1,0,0,1,196,-4)" class="stroke_order_diagram--current_path"></path><path id="pathSk940yk7k2wv" kvg:type="㇑" d="M17,43.25c1.12,1.12,1.35,2.24,1.5,4.5c0.37,5.49,1.58,20.95,2.22,31.88c0.23,4.01,0.43,7.38,0.53,9.37" transform="matrix(1,0,0,1,196,-4)" class="stroke_order_diagram--current_path"></path><circle cx="17" cy="43.25" r="8" class="stroke_order_diagram--path_start" transform="matrix(1,0,0,1,196,-4)"></circle><line x1="350" x2="350" y1="1" y2="99" class="stroke_order_diagram--guide_line"></line><line x1="399" x2="399" y1="1" y2="99" class="stroke_order_diagram--bounding_box"></line><path id="pathSk940yk7k2wy" kvg:type="㇐" d="M20.75,23.27c4.15,0.67,8.28,0.39,12.48,0.01c11.66-1.05,28.77-2.53,41.63-3.26c4.25-0.24,8.44-0.44,12.63,0.2" transform="matrix(1,0,0,1,296,-4)" class="stroke_order_diagram--existing_path"></path><path id="pathSk940yk7k2wz" kvg:type="㇒" d="M51.53,25.39c0.07,0.86-0.07,1.77-0.48,2.52c-2.68,4.96-3.93,7.09-8.18,13.21" transform="matrix(1,0,0,1,296,-4)" class="stroke_order_diagram--existing_path"></path><path id="pathSk940yk7k2x0" kvg:type="㇑" d="M17,43.25c1.12,1.12,1.35,2.24,1.5,4.5c0.37,5.49,1.58,20.95,2.22,31.88c0.23,4.01,0.43,7.38,0.53,9.37" transform="matrix(1,0,0,1,296,-4)" class="stroke_order_diagram--existing_path"></path><path id="kvg:0800c-s4" kvg:type="㇆a" d="M19.25,46c3,0.48,5.99,0.69,8.98,0.3c20.79-2.74,33.92-4.59,55.03-6.89c4.68-0.51,8.08,0.63,7.97,5.83c-0.17,7.49-0.85,30.13-1.48,40.51c-0.96,16.02-6,4.75-9,1.5" transform="matrix(1,0,0,1,296,-4)" class="stroke_order_diagram--current_path"></path><path id="pathSk940yk7k2x2" kvg:type="㇆a" d="M19.25,46c3,0.48,5.99,0.69,8.98,0.3c20.79-2.74,33.92-4.59,55.03-6.89c4.68-0.51,8.08,0.63,7.97,5.83c-0.17,7.49-0.85,30.13-1.48,40.51c-0.96,16.02-6,4.75-9,1.5" transform="matrix(1,0,0,1,296,-4)" class="stroke_order_diagram--current_path"></path><circle cx="19.25" cy="46" r="8" class="stroke_order_diagram--path_start" transform="matrix(1,0,0,1,296,-4)"></circle><line x1="450" x2="450" y1="1" y2="99" class="stroke_order_diagram--guide_line"></line><line x1="499" x2="499" y1="1" y2="99" class="stroke_order_diagram--bounding_box"></line><path id="pathSk940yk7k2x5" kvg:type="㇐" d="M20.75,23.27c4.15,0.67,8.28,0.39,12.48,0.01c11.66-1.05,28.77-2.53,41.63-3.26c4.25-0.24,8.44-0.44,12.63,0.2" transform="matrix(1,0,0,1,396,-4)" class="stroke_order_diagram--existing_path"></path><path id="pathSk940yk7k2x6" kvg:type="㇒" d="M51.53,25.39c0.07,0.86-0.07,1.77-0.48,2.52c-2.68,4.96-3.93,7.09-8.18,13.21" transform="matrix(1,0,0,1,396,-4)" class="stroke_order_diagram--existing_path"></path><path id="pathSk940yk7k2x7" kvg:type="㇑" d="M17,43.25c1.12,1.12,1.35,2.24,1.5,4.5c0.37,5.49,1.58,20.95,2.22,31.88c0.23,4.01,0.43,7.38,0.53,9.37" transform="matrix(1,0,0,1,396,-4)" class="stroke_order_diagram--existing_path"></path><path id="pathSk940yk7k2x8" kvg:type="㇆a" d="M19.25,46c3,0.48,5.99,0.69,8.98,0.3c20.79-2.74,33.92-4.59,55.03-6.89c4.68-0.51,8.08,0.63,7.97,5.83c-0.17,7.49-0.85,30.13-1.48,40.51c-0.96,16.02-6,4.75-9,1.5" transform="matrix(1,0,0,1,396,-4)" class="stroke_order_diagram--existing_path"></path><path id="kvg:0800c-s5" kvg:type="㇑" d="M40.77,47.83c0.98,0.92,1.17,2.29,1.26,3.77c0.85,14.27,0.96,18.93,1.19,26.02c0.09,2.85,0.18,5.72,0.29,8.88" transform="matrix(1,0,0,1,396,-4)" class="stroke_order_diagram--current_path"></path><path id="pathSk940yk7k2xa" kvg:type="㇑" d="M40.77,47.83c0.98,0.92,1.17,2.29,1.26,3.77c0.85,14.27,0.96,18.93,1.19,26.02c0.09,2.85,0.18,5.72,0.29,8.88" transform="matrix(1,0,0,1,396,-4)" class="stroke_order_diagram--current_path"></path><circle cx="40.77" cy="47.83" r="8" class="stroke_order_diagram--path_start" transform="matrix(1,0,0,1,396,-4)"></circle><line x1="550" x2="550" y1="1" y2="99" class="stroke_order_diagram--guide_line"></line><line x1="599" x2="599" y1="1" y2="99" class="stroke_order_diagram--bounding_box"></line><path id="pathSk940yk7k2xd" kvg:type="㇐" d="M20.75,23.27c4.15,0.67,8.28,0.39,12.48,0.01c11.66-1.05,28.77-2.53,41.63-3.26c4.25-0.24,8.44-0.44,12.63,0.2" transform="matrix(1,0,0,1,496,-4)" class="stroke_order_diagram--existing_path"></path><path id="pathSk940yk7k2xe" kvg:type="㇒" d="M51.53,25.39c0.07,0.86-0.07,1.77-0.48,2.52c-2.68,4.96-3.93,7.09-8.18,13.21" transform="matrix(1,0,0,1,496,-4)" class="stroke_order_diagram--existing_path"></path><path id="pathSk940yk7k2xf" kvg:type="㇑" d="M17,43.25c1.12,1.12,1.35,2.24,1.5,4.5c0.37,5.49,1.58,20.95,2.22,31.88c0.23,4.01,0.43,7.38,0.53,9.37" transform="matrix(1,0,0,1,496,-4)" class="stroke_order_diagram--existing_path"></path><path id="pathSk940yk7k2xg" kvg:type="㇆a" d="M19.25,46c3,0.48,5.99,0.69,8.98,0.3c20.79-2.74,33.92-4.59,55.03-6.89c4.68-0.51,8.08,0.63,7.97,5.83c-0.17,7.49-0.85,30.13-1.48,40.51c-0.96,16.02-6,4.75-9,1.5" transform="matrix(1,0,0,1,496,-4)" class="stroke_order_diagram--existing_path"></path><path id="pathSk940yk7k2xh" kvg:type="㇑" d="M40.77,47.83c0.98,0.92,1.17,2.29,1.26,3.77c0.85,14.27,0.96,18.93,1.19,26.02c0.09,2.85,0.18,5.72,0.29,8.88" transform="matrix(1,0,0,1,496,-4)" class="stroke_order_diagram--existing_path"></path><path id="kvg:0800c-s6" kvg:type="㇑" d="M65.25,44c0.98,0.92,1.34,2.25,1.27,3.85c-0.5,11.37-0.99,21.43-1.4,29.02c-0.23,4.19-0.44,7.63-0.62,10.12" transform="matrix(1,0,0,1,496,-4)" class="stroke_order_diagram--current_path"></path><path id="pathSk940yk7k2xj" kvg:type="㇑" d="M65.25,44c0.98,0.92,1.34,2.25,1.27,3.85c-0.5,11.37-0.99,21.43-1.4,29.02c-0.23,4.19-0.44,7.63-0.62,10.12" transform="matrix(1,0,0,1,496,-4)" class="stroke_order_diagram--current_path"></path><circle cx="65.25" cy="44" r="8" class="stroke_order_diagram--path_start" transform="matrix(1,0,0,1,496,-4)"></circle></svg>