<?xml version="1.0" encoding="UTF-8"?>
<!DOCTYPE svg PUBLIC "-//W3C//DTD SVG 1.0//EN" "http://www.w3.org/TR/2001/REC-SVG-20010904/DTD/svg10.dtd" [
<!ATTLIST g
xmlns:kvg CDATA #FIXED "http://kanjivg.tagaini.net"
kvg:element CDATA #IMPLIED
kvg:variant CDATA #IMPLIED
kvg:partial CDATA #IMPLIED
kvg:original CDATA #IMPLIED
kvg:part CDATA #IMPLIED
kvg:number CDATA #IMPLIED
kvg:tradForm CDATA #IMPLIED
kvg:radicalForm CDATA #IMPLIED
kvg:position CDATA #IMPLIED
kvg:radical CDATA #IMPLIED
kvg:phon CDATA #IMPLIED >
<!ATTLIST path
xmlns:kvg CDATA #FIXED "http://kanjivg.tagaini.net"
kvg:type CDATA #IMPLIED >
]><svg style="width: 600px; height: 100px;" xmlns="http://www.w3.org/2000/svg" xmlns:xlink="http://www.w3.org/1999/xlink"><style>
.stroke_order_diagram--outer_container {
  width: 100%;
  overflow-x: auto;
  overflow-y: hidden;
}

.stroke_order_diagram--guide_line {
  fill: none;
  stroke: #ddd;
  stroke-width: 3;
  stroke-linecap: square;
  stroke-linejoin: square;
  stroke-dasharray:8, 8;
}

.stroke_order_diagram--bounding_box {
  fill: none;
  stroke: #ddd;
  stroke-width: 4;
  stroke-linecap: square;
  stroke-linejoin: square;
}

.stroke_order_diagram--current_path {
  fill: none;
  stroke: #000;
  stroke-width: 6;
  stroke-linecap: round;
  stroke-linejoin: round;
}

.stroke_order_diagram--existing_path {
  fill: none;
  stroke: #aaa;
  stroke-width: 6;
  stroke-linecap: round;
  stroke-linejoin:round;
}

.stroke_order_diagram--path_start {
  fill: rgba(255, 0, 0, 0.7);
  stroke:none
}</style><desc>Created with Snap</desc><defs></defs><line x1="1" x2="599" y1="1" y2="1" class="stroke_order_diagram--bounding_box"></line><line x1="1" x2="1" y1="1" y2="99" class="stroke_order_diagram--bounding_box"></line><line x1="1" x2="599" y1="99" y2="99" class="stroke_order_diagram--bounding_box"></line><line x1="0" x2="600" y1="50" y2="50" class="stroke_order_diagram--guide_line"></line><line x1="50" x2="50" y1="1" y2="99" class="stroke_order_diagram--guide_line"></line><line x1="99" x2="99" y1="1" y2="99" class="stroke_order_diagram--bounding_box"></line><path id="kvg:08012-s1" kvg:type="㇒" d="M76.96,17.25c0.04,1.25-0.97,2.22-2.24,2.69c-6.97,2.56-18.97,8.31-41.97,10.36" transform="matrix(1,0,0,1,-4,-4)" class="stroke_order_diagram--current_path"></path><path id="pathSk93xdzq02xz" kvg:type="㇒" d="M76.96,17.25c0.04,1.25-0.97,2.22-2.24,2.69c-6.97,2.56-18.97,8.31-41.97,10.36" transform="matrix(1,0,0,1,-4,-4)" class="stroke_order_diagram--current_path"></path><circle cx="76.96" cy="17.25" r="8" class="stroke_order_diagram--path_start" transform="matrix(1,0,0,1,-4,-4)"></circle><line x1="150" x2="150" y1="1" y2="99" class="stroke_order_diagram--guide_line"></line><line x1="199" x2="199" y1="1" y2="99" class="stroke_order_diagram--bounding_box"></line><path id="pathSk93xdzq02y2" kvg:type="㇒" d="M76.96,17.25c0.04,1.25-0.97,2.22-2.24,2.69c-6.97,2.56-18.97,8.31-41.97,10.36" transform="matrix(1,0,0,1,96,-4)" class="stroke_order_diagram--existing_path"></path><path id="kvg:08012-s2" kvg:type="㇐" d="M27.63,42.27c0.88,0.28,2.49,0.31,3.37,0.28c9.16-0.32,36-2.8,49.14-3.23c1.47-0.05,2.35,0.13,3.08,0.27" transform="matrix(1,0,0,1,96,-4)" class="stroke_order_diagram--current_path"></path><path id="pathSk93xdzq02y4" kvg:type="㇐" d="M27.63,42.27c0.88,0.28,2.49,0.31,3.37,0.28c9.16-0.32,36-2.8,49.14-3.23c1.47-0.05,2.35,0.13,3.08,0.27" transform="matrix(1,0,0,1,96,-4)" class="stroke_order_diagram--current_path"></path><circle cx="27.63" cy="42.27" r="8" class="stroke_order_diagram--path_start" transform="matrix(1,0,0,1,96,-4)"></circle><line x1="250" x2="250" y1="1" y2="99" class="stroke_order_diagram--guide_line"></line><line x1="299" x2="299" y1="1" y2="99" class="stroke_order_diagram--bounding_box"></line><path id="pathSk93xdzq02y7" kvg:type="㇒" d="M76.96,17.25c0.04,1.25-0.97,2.22-2.24,2.69c-6.97,2.56-18.97,8.31-41.97,10.36" transform="matrix(1,0,0,1,196,-4)" class="stroke_order_diagram--existing_path"></path><path id="pathSk93xdzq02y8" kvg:type="㇐" d="M27.63,42.27c0.88,0.28,2.49,0.31,3.37,0.28c9.16-0.32,36-2.8,49.14-3.23c1.47-0.05,2.35,0.13,3.08,0.27" transform="matrix(1,0,0,1,196,-4)" class="stroke_order_diagram--existing_path"></path><path id="kvg:08012-s3" kvg:type="㇐" d="M16.94,56.75c0.89,0.25,3.27,0.82,5.64,0.75c8.92-0.25,44.17-3.25,62.91-3.5c2.37-0.03,4.47,0.25,5.95,0.5" transform="matrix(1,0,0,1,196,-4)" class="stroke_order_diagram--current_path"></path><path id="pathSk93xdzq02ya" kvg:type="㇐" d="M16.94,56.75c0.89,0.25,3.27,0.82,5.64,0.75c8.92-0.25,44.17-3.25,62.91-3.5c2.37-0.03,4.47,0.25,5.95,0.5" transform="matrix(1,0,0,1,196,-4)" class="stroke_order_diagram--current_path"></path><circle cx="16.94" cy="56.75" r="8" class="stroke_order_diagram--path_start" transform="matrix(1,0,0,1,196,-4)"></circle><line x1="350" x2="350" y1="1" y2="99" class="stroke_order_diagram--guide_line"></line><line x1="399" x2="399" y1="1" y2="99" class="stroke_order_diagram--bounding_box"></line><path id="pathSk93xdzq02yd" kvg:type="㇒" d="M76.96,17.25c0.04,1.25-0.97,2.22-2.24,2.69c-6.97,2.56-18.97,8.31-41.97,10.36" transform="matrix(1,0,0,1,296,-4)" class="stroke_order_diagram--existing_path"></path><path id="pathSk93xdzq02ye" kvg:type="㇐" d="M27.63,42.27c0.88,0.28,2.49,0.31,3.37,0.28c9.16-0.32,36-2.8,49.14-3.23c1.47-0.05,2.35,0.13,3.08,0.27" transform="matrix(1,0,0,1,296,-4)" class="stroke_order_diagram--existing_path"></path><path id="pathSk93xdzq02yf" kvg:type="㇐" d="M16.94,56.75c0.89,0.25,3.27,0.82,5.64,0.75c8.92-0.25,44.17-3.25,62.91-3.5c2.37-0.03,4.47,0.25,5.95,0.5" transform="matrix(1,0,0,1,296,-4)" class="stroke_order_diagram--existing_path"></path><path id="kvg:08012-s4" kvg:type="㇑" d="M51.16,11.5c1.48,0.5,2.67,3.71,2.67,4.75c0,4,0.5,75.75,0.2,82" transform="matrix(1,0,0,1,296,-4)" class="stroke_order_diagram--current_path"></path><path id="pathSk93xdzq02yh" kvg:type="㇑" d="M51.16,11.5c1.48,0.5,2.67,3.71,2.67,4.75c0,4,0.5,75.75,0.2,82" transform="matrix(1,0,0,1,296,-4)" class="stroke_order_diagram--current_path"></path><circle cx="51.16" cy="11.5" r="8" class="stroke_order_diagram--path_start" transform="matrix(1,0,0,1,296,-4)"></circle><line x1="450" x2="450" y1="1" y2="99" class="stroke_order_diagram--guide_line"></line><line x1="499" x2="499" y1="1" y2="99" class="stroke_order_diagram--bounding_box"></line><path id="pathSk93xdzq02yk" kvg:type="㇒" d="M76.96,17.25c0.04,1.25-0.97,2.22-2.24,2.69c-6.97,2.56-18.97,8.31-41.97,10.36" transform="matrix(1,0,0,1,396,-4)" class="stroke_order_diagram--existing_path"></path><path id="pathSk93xdzq02yl" kvg:type="㇐" d="M27.63,42.27c0.88,0.28,2.49,0.31,3.37,0.28c9.16-0.32,36-2.8,49.14-3.23c1.47-0.05,2.35,0.13,3.08,0.27" transform="matrix(1,0,0,1,396,-4)" class="stroke_order_diagram--existing_path"></path><path id="pathSk93xdzq02ym" kvg:type="㇐" d="M16.94,56.75c0.89,0.25,3.27,0.82,5.64,0.75c8.92-0.25,44.17-3.25,62.91-3.5c2.37-0.03,4.47,0.25,5.95,0.5" transform="matrix(1,0,0,1,396,-4)" class="stroke_order_diagram--existing_path"></path><path id="pathSk93xdzq02yn" kvg:type="㇑" d="M51.16,11.5c1.48,0.5,2.67,3.71,2.67,4.75c0,4,0.5,75.75,0.2,82" transform="matrix(1,0,0,1,396,-4)" class="stroke_order_diagram--existing_path"></path><path id="kvg:08012-s5" kvg:type="㇒" d="M53.5,56.25C46.71,66.79,29.13,82.78,15,88.75" transform="matrix(1,0,0,1,396,-4)" class="stroke_order_diagram--current_path"></path><path id="pathSk93xdzq02yp" kvg:type="㇒" d="M53.5,56.25C46.71,66.79,29.13,82.78,15,88.75" transform="matrix(1,0,0,1,396,-4)" class="stroke_order_diagram--current_path"></path><circle cx="53.5" cy="56.25" r="8" class="stroke_order_diagram--path_start" transform="matrix(1,0,0,1,396,-4)"></circle><line x1="550" x2="550" y1="1" y2="99" class="stroke_order_diagram--guide_line"></line><line x1="599" x2="599" y1="1" y2="99" class="stroke_order_diagram--bounding_box"></line><path id="pathSk93xdzq02ys" kvg:type="㇒" d="M76.96,17.25c0.04,1.25-0.97,2.22-2.24,2.69c-6.97,2.56-18.97,8.31-41.97,10.36" transform="matrix(1,0,0,1,496,-4)" class="stroke_order_diagram--existing_path"></path><path id="pathSk93xdzq02yt" kvg:type="㇐" d="M27.63,42.27c0.88,0.28,2.49,0.31,3.37,0.28c9.16-0.32,36-2.8,49.14-3.23c1.47-0.05,2.35,0.13,3.08,0.27" transform="matrix(1,0,0,1,496,-4)" class="stroke_order_diagram--existing_path"></path><path id="pathSk93xdzq02yu" kvg:type="㇐" d="M16.94,56.75c0.89,0.25,3.27,0.82,5.64,0.75c8.92-0.25,44.17-3.25,62.91-3.5c2.37-0.03,4.47,0.25,5.95,0.5" transform="matrix(1,0,0,1,496,-4)" class="stroke_order_diagram--existing_path"></path><path id="pathSk93xdzq02yv" kvg:type="㇑" d="M51.16,11.5c1.48,0.5,2.67,3.71,2.67,4.75c0,4,0.5,75.75,0.2,82" transform="matrix(1,0,0,1,496,-4)" class="stroke_order_diagram--existing_path"></path><path id="pathSk93xdzq02yw" kvg:type="㇒" d="M53.5,56.25C46.71,66.79,29.13,82.78,15,88.75" transform="matrix(1,0,0,1,496,-4)" class="stroke_order_diagram--existing_path"></path><path id="kvg:08012-s6" kvg:type="㇏" d="M54.25,56c5,6.36,26.14,24.53,33.59,29.84c1.86,1.33,3.35,2,5.16,2.41" transform="matrix(1,0,0,1,496,-4)" class="stroke_order_diagram--current_path"></path><path id="pathSk93xdzq02yy" kvg:type="㇏" d="M54.25,56c5,6.36,26.14,24.53,33.59,29.84c1.86,1.33,3.35,2,5.16,2.41" transform="matrix(1,0,0,1,496,-4)" class="stroke_order_diagram--current_path"></path><circle cx="54.25" cy="56" r="8" class="stroke_order_diagram--path_start" transform="matrix(1,0,0,1,496,-4)"></circle></svg>