<?xml version="1.0" encoding="UTF-8"?>
<!DOCTYPE svg PUBLIC "-//W3C//DTD SVG 1.0//EN" "http://www.w3.org/TR/2001/REC-SVG-20010904/DTD/svg10.dtd" [
<!ATTLIST g
xmlns:kvg CDATA #FIXED "http://kanjivg.tagaini.net"
kvg:element CDATA #IMPLIED
kvg:variant CDATA #IMPLIED
kvg:partial CDATA #IMPLIED
kvg:original CDATA #IMPLIED
kvg:part CDATA #IMPLIED
kvg:number CDATA #IMPLIED
kvg:tradForm CDATA #IMPLIED
kvg:radicalForm CDATA #IMPLIED
kvg:position CDATA #IMPLIED
kvg:radical CDATA #IMPLIED
kvg:phon CDATA #IMPLIED >
<!ATTLIST path
xmlns:kvg CDATA #FIXED "http://kanjivg.tagaini.net"
kvg:type CDATA #IMPLIED >
]><svg style="width: 600px; height: 100px;" xmlns="http://www.w3.org/2000/svg" xmlns:xlink="http://www.w3.org/1999/xlink" width="600px" height="100px"><style>
.stroke_order_diagram--outer_container {
  width: 100%;
  overflow-x: auto;
  overflow-y: hidden;
}

.stroke_order_diagram--guide_line {
  fill: none;
  stroke: #ddd;
  stroke-width: 3;
  stroke-linecap: square;
  stroke-linejoin: square;
  stroke-dasharray:8, 8;
}

.stroke_order_diagram--bounding_box {
  fill: none;
  stroke: #ddd;
  stroke-width: 4;
  stroke-linecap: square;
  stroke-linejoin: square;
}

.stroke_order_diagram--current_path {
  fill: none;
  stroke: #000;
  stroke-width: 6;
  stroke-linecap: round;
  stroke-linejoin: round;
}

.stroke_order_diagram--existing_path {
  fill: none;
  stroke: #aaa;
  stroke-width: 6;
  stroke-linecap: round;
  stroke-linejoin:round;
}

.stroke_order_diagram--path_start {
  fill: rgba(255, 0, 0, 0.7);
  stroke:none
}</style><desc>Created with Snap</desc><defs></defs><line x1="1" x2="599" y1="1" y2="1" class="stroke_order_diagram--bounding_box"></line><line x1="1" x2="1" y1="1" y2="99" class="stroke_order_diagram--bounding_box"></line><line x1="1" x2="599" y1="99" y2="99" class="stroke_order_diagram--bounding_box"></line><line x1="0" x2="600" y1="50" y2="50" class="stroke_order_diagram--guide_line"></line><line x1="50" x2="50" y1="1" y2="99" class="stroke_order_diagram--guide_line"></line><line x1="99" x2="99" y1="1" y2="99" class="stroke_order_diagram--bounding_box"></line><path id="kvg:08033-s1" kvg:type="㇐" d="M20.25,20c3.03,0.85,6.17,0.58,9.24,0.21c14.62-1.76,31.45-3.95,48.12-5.06c3.33-0.22,6.59-0.2,9.89,0.35" transform="matrix(1,0,0,1,-4,-4)" class="stroke_order_diagram--current_path"></path><path id="pathSk940yk7k2ze" kvg:type="㇐" d="M20.25,20c3.03,0.85,6.17,0.58,9.24,0.21c14.62-1.76,31.45-3.95,48.12-5.06c3.33-0.22,6.59-0.2,9.89,0.35" transform="matrix(1,0,0,1,-4,-4)" class="stroke_order_diagram--current_path"></path><circle cx="20.25" cy="20" r="8" class="stroke_order_diagram--path_start" transform="matrix(1,0,0,1,-4,-4)"></circle><line x1="150" x2="150" y1="1" y2="99" class="stroke_order_diagram--guide_line"></line><line x1="199" x2="199" y1="1" y2="99" class="stroke_order_diagram--bounding_box"></line><path id="pathSk940yk7k2zh" kvg:type="㇐" d="M20.25,20c3.03,0.85,6.17,0.58,9.24,0.21c14.62-1.76,31.45-3.95,48.12-5.06c3.33-0.22,6.59-0.2,9.89,0.35" transform="matrix(1,0,0,1,96,-4)" class="stroke_order_diagram--existing_path"></path><path id="kvg:08033-s2" kvg:type="㇑a" d="M36.68,22.5c1.1,1.1,1.64,2.71,1.64,4.73c0,1.6-0.33,40.02-0.33,41.52" transform="matrix(1,0,0,1,96,-4)" class="stroke_order_diagram--current_path"></path><path id="pathSk940yk7k2zj" kvg:type="㇑a" d="M36.68,22.5c1.1,1.1,1.64,2.71,1.64,4.73c0,1.6-0.33,40.02-0.33,41.52" transform="matrix(1,0,0,1,96,-4)" class="stroke_order_diagram--current_path"></path><circle cx="36.68" cy="22.5" r="8" class="stroke_order_diagram--path_start" transform="matrix(1,0,0,1,96,-4)"></circle><line x1="250" x2="250" y1="1" y2="99" class="stroke_order_diagram--guide_line"></line><line x1="299" x2="299" y1="1" y2="99" class="stroke_order_diagram--bounding_box"></line><path id="pathSk940yk7k2zm" kvg:type="㇐" d="M20.25,20c3.03,0.85,6.17,0.58,9.24,0.21c14.62-1.76,31.45-3.95,48.12-5.06c3.33-0.22,6.59-0.2,9.89,0.35" transform="matrix(1,0,0,1,196,-4)" class="stroke_order_diagram--existing_path"></path><path id="pathSk940yk7k2zn" kvg:type="㇑a" d="M36.68,22.5c1.1,1.1,1.64,2.71,1.64,4.73c0,1.6-0.33,40.02-0.33,41.52" transform="matrix(1,0,0,1,196,-4)" class="stroke_order_diagram--existing_path"></path><path id="kvg:08033-s3" kvg:type="㇐a" d="M39.5,35.5c6.75-0.88,24-2.75,32.25-3.25" transform="matrix(1,0,0,1,196,-4)" class="stroke_order_diagram--current_path"></path><path id="pathSk940yk7k2zp" kvg:type="㇐a" d="M39.5,35.5c6.75-0.88,24-2.75,32.25-3.25" transform="matrix(1,0,0,1,196,-4)" class="stroke_order_diagram--current_path"></path><circle cx="39.5" cy="35.5" r="8" class="stroke_order_diagram--path_start" transform="matrix(1,0,0,1,196,-4)"></circle><line x1="350" x2="350" y1="1" y2="99" class="stroke_order_diagram--guide_line"></line><line x1="399" x2="399" y1="1" y2="99" class="stroke_order_diagram--bounding_box"></line><path id="pathSk940yk7k2zs" kvg:type="㇐" d="M20.25,20c3.03,0.85,6.17,0.58,9.24,0.21c14.62-1.76,31.45-3.95,48.12-5.06c3.33-0.22,6.59-0.2,9.89,0.35" transform="matrix(1,0,0,1,296,-4)" class="stroke_order_diagram--existing_path"></path><path id="pathSk940yk7k2zt" kvg:type="㇑a" d="M36.68,22.5c1.1,1.1,1.64,2.71,1.64,4.73c0,1.6-0.33,40.02-0.33,41.52" transform="matrix(1,0,0,1,296,-4)" class="stroke_order_diagram--existing_path"></path><path id="pathSk940yk7k2zu" kvg:type="㇐a" d="M39.5,35.5c6.75-0.88,24-2.75,32.25-3.25" transform="matrix(1,0,0,1,296,-4)" class="stroke_order_diagram--existing_path"></path><path id="kvg:08033-s4" kvg:type="㇐a" d="M39.25,51.25c7-0.5,24.62-2.75,32.25-3" transform="matrix(1,0,0,1,296,-4)" class="stroke_order_diagram--current_path"></path><path id="pathSk940yk7k2zw" kvg:type="㇐a" d="M39.25,51.25c7-0.5,24.62-2.75,32.25-3" transform="matrix(1,0,0,1,296,-4)" class="stroke_order_diagram--current_path"></path><circle cx="39.25" cy="51.25" r="8" class="stroke_order_diagram--path_start" transform="matrix(1,0,0,1,296,-4)"></circle><line x1="450" x2="450" y1="1" y2="99" class="stroke_order_diagram--guide_line"></line><line x1="499" x2="499" y1="1" y2="99" class="stroke_order_diagram--bounding_box"></line><path id="pathSk940yk7k2zz" kvg:type="㇐" d="M20.25,20c3.03,0.85,6.17,0.58,9.24,0.21c14.62-1.76,31.45-3.95,48.12-5.06c3.33-0.22,6.59-0.2,9.89,0.35" transform="matrix(1,0,0,1,396,-4)" class="stroke_order_diagram--existing_path"></path><path id="pathSk940yk7k300" kvg:type="㇑a" d="M36.68,22.5c1.1,1.1,1.64,2.71,1.64,4.73c0,1.6-0.33,40.02-0.33,41.52" transform="matrix(1,0,0,1,396,-4)" class="stroke_order_diagram--existing_path"></path><path id="pathSk940yk7k301" kvg:type="㇐a" d="M39.5,35.5c6.75-0.88,24-2.75,32.25-3.25" transform="matrix(1,0,0,1,396,-4)" class="stroke_order_diagram--existing_path"></path><path id="pathSk940yk7k302" kvg:type="㇐a" d="M39.25,51.25c7-0.5,24.62-2.75,32.25-3" transform="matrix(1,0,0,1,396,-4)" class="stroke_order_diagram--existing_path"></path><path id="kvg:08033-s5" kvg:type="㇀" d="M17.25,71c0.75,1.12,2.01,1.81,3.75,1.5c7-1.25,48-8.75,58.75-10.75" transform="matrix(1,0,0,1,396,-4)" class="stroke_order_diagram--current_path"></path><path id="pathSk940yk7k304" kvg:type="㇀" d="M17.25,71c0.75,1.12,2.01,1.81,3.75,1.5c7-1.25,48-8.75,58.75-10.75" transform="matrix(1,0,0,1,396,-4)" class="stroke_order_diagram--current_path"></path><circle cx="17.25" cy="71" r="8" class="stroke_order_diagram--path_start" transform="matrix(1,0,0,1,396,-4)"></circle><line x1="550" x2="550" y1="1" y2="99" class="stroke_order_diagram--guide_line"></line><line x1="599" x2="599" y1="1" y2="99" class="stroke_order_diagram--bounding_box"></line><path id="pathSk940yk7k307" kvg:type="㇐" d="M20.25,20c3.03,0.85,6.17,0.58,9.24,0.21c14.62-1.76,31.45-3.95,48.12-5.06c3.33-0.22,6.59-0.2,9.89,0.35" transform="matrix(1,0,0,1,496,-4)" class="stroke_order_diagram--existing_path"></path><path id="pathSk940yk7k308" kvg:type="㇑a" d="M36.68,22.5c1.1,1.1,1.64,2.71,1.64,4.73c0,1.6-0.33,40.02-0.33,41.52" transform="matrix(1,0,0,1,496,-4)" class="stroke_order_diagram--existing_path"></path><path id="pathSk940yk7k309" kvg:type="㇐a" d="M39.5,35.5c6.75-0.88,24-2.75,32.25-3.25" transform="matrix(1,0,0,1,496,-4)" class="stroke_order_diagram--existing_path"></path><path id="pathSk940yk7k30a" kvg:type="㇐a" d="M39.25,51.25c7-0.5,24.62-2.75,32.25-3" transform="matrix(1,0,0,1,496,-4)" class="stroke_order_diagram--existing_path"></path><path id="pathSk940yk7k30b" kvg:type="㇀" d="M17.25,71c0.75,1.12,2.01,1.81,3.75,1.5c7-1.25,48-8.75,58.75-10.75" transform="matrix(1,0,0,1,496,-4)" class="stroke_order_diagram--existing_path"></path><path id="kvg:08033-s6" kvg:type="㇑" d="M71,18.5c1,1,1.75,2.5,1.75,4.25c0,1.05,0.18,44.73,0.23,64.75c0.01,3.74,0.02,6.64,0.02,8.25" transform="matrix(1,0,0,1,496,-4)" class="stroke_order_diagram--current_path"></path><path id="pathSk940yk7k30d" kvg:type="㇑" d="M71,18.5c1,1,1.75,2.5,1.75,4.25c0,1.05,0.18,44.73,0.23,64.75c0.01,3.74,0.02,6.64,0.02,8.25" transform="matrix(1,0,0,1,496,-4)" class="stroke_order_diagram--current_path"></path><circle cx="71" cy="18.5" r="8" class="stroke_order_diagram--path_start" transform="matrix(1,0,0,1,496,-4)"></circle></svg>