<?xml version="1.0" encoding="UTF-8"?>
<!DOCTYPE svg PUBLIC "-//W3C//DTD SVG 1.0//EN" "http://www.w3.org/TR/2001/REC-SVG-20010904/DTD/svg10.dtd" [
<!ATTLIST g
xmlns:kvg CDATA #FIXED "http://kanjivg.tagaini.net"
kvg:element CDATA #IMPLIED
kvg:variant CDATA #IMPLIED
kvg:partial CDATA #IMPLIED
kvg:original CDATA #IMPLIED
kvg:part CDATA #IMPLIED
kvg:number CDATA #IMPLIED
kvg:tradForm CDATA #IMPLIED
kvg:radicalForm CDATA #IMPLIED
kvg:position CDATA #IMPLIED
kvg:radical CDATA #IMPLIED
kvg:phon CDATA #IMPLIED >
<!ATTLIST path
xmlns:kvg CDATA #FIXED "http://kanjivg.tagaini.net"
kvg:type CDATA #IMPLIED >
]><svg style="width: 600px; height: 100px;" xmlns="http://www.w3.org/2000/svg" xmlns:xlink="http://www.w3.org/1999/xlink" width="600px" height="100px"><style>
.stroke_order_diagram--outer_container {
  width: 100%;
  overflow-x: auto;
  overflow-y: hidden;
}

.stroke_order_diagram--guide_line {
  fill: none;
  stroke: #ddd;
  stroke-width: 3;
  stroke-linecap: square;
  stroke-linejoin: square;
  stroke-dasharray:8, 8;
}

.stroke_order_diagram--bounding_box {
  fill: none;
  stroke: #ddd;
  stroke-width: 4;
  stroke-linecap: square;
  stroke-linejoin: square;
}

.stroke_order_diagram--current_path {
  fill: none;
  stroke: #000;
  stroke-width: 6;
  stroke-linecap: round;
  stroke-linejoin: round;
}

.stroke_order_diagram--existing_path {
  fill: none;
  stroke: #aaa;
  stroke-width: 6;
  stroke-linecap: round;
  stroke-linejoin:round;
}

.stroke_order_diagram--path_start {
  fill: rgba(255, 0, 0, 0.7);
  stroke:none
}</style><desc>Created with Snap</desc><defs></defs><line x1="1" x2="599" y1="1" y2="1" class="stroke_order_diagram--bounding_box"></line><line x1="1" x2="1" y1="1" y2="99" class="stroke_order_diagram--bounding_box"></line><line x1="1" x2="599" y1="99" y2="99" class="stroke_order_diagram--bounding_box"></line><line x1="0" x2="600" y1="50" y2="50" class="stroke_order_diagram--guide_line"></line><line x1="50" x2="50" y1="1" y2="99" class="stroke_order_diagram--guide_line"></line><line x1="99" x2="99" y1="1" y2="99" class="stroke_order_diagram--bounding_box"></line><path id="kvg:0807f-s1" kvg:type="㇕c" d="M27.25,25.5c2.5,0.25,3.2,0.66,5.5,0.5c10.5-0.75,32-3.75,42-4.25c3.25-0.16,5.47,1.22,5,3.75c-0.75,4-2.25,9.75-4,21" transform="matrix(1,0,0,1,-4,-4)" class="stroke_order_diagram--current_path"></path><path id="pathSk940yk7k30t" kvg:type="㇕c" d="M27.25,25.5c2.5,0.25,3.2,0.66,5.5,0.5c10.5-0.75,32-3.75,42-4.25c3.25-0.16,5.47,1.22,5,3.75c-0.75,4-2.25,9.75-4,21" transform="matrix(1,0,0,1,-4,-4)" class="stroke_order_diagram--current_path"></path><circle cx="27.25" cy="25.5" r="8" class="stroke_order_diagram--path_start" transform="matrix(1,0,0,1,-4,-4)"></circle><line x1="150" x2="150" y1="1" y2="99" class="stroke_order_diagram--guide_line"></line><line x1="199" x2="199" y1="1" y2="99" class="stroke_order_diagram--bounding_box"></line><path id="pathSk940yk7k30w" kvg:type="㇕c" d="M27.25,25.5c2.5,0.25,3.2,0.66,5.5,0.5c10.5-0.75,32-3.75,42-4.25c3.25-0.16,5.47,1.22,5,3.75c-0.75,4-2.25,9.75-4,21" transform="matrix(1,0,0,1,96,-4)" class="stroke_order_diagram--existing_path"></path><path id="kvg:0807f-s2" kvg:type="㇐" d="M15,38.75c2.25,0.5,4.01,0.73,6.5,0.5c21.75-2,48.25-5.5,65.5-6.25c2.76-0.12,5,0.5,6.25,0.75" transform="matrix(1,0,0,1,96,-4)" class="stroke_order_diagram--current_path"></path><path id="pathSk940yk7k30y" kvg:type="㇐" d="M15,38.75c2.25,0.5,4.01,0.73,6.5,0.5c21.75-2,48.25-5.5,65.5-6.25c2.76-0.12,5,0.5,6.25,0.75" transform="matrix(1,0,0,1,96,-4)" class="stroke_order_diagram--current_path"></path><circle cx="15" cy="38.75" r="8" class="stroke_order_diagram--path_start" transform="matrix(1,0,0,1,96,-4)"></circle><line x1="250" x2="250" y1="1" y2="99" class="stroke_order_diagram--guide_line"></line><line x1="299" x2="299" y1="1" y2="99" class="stroke_order_diagram--bounding_box"></line><path id="pathSk940yk7k311" kvg:type="㇕c" d="M27.25,25.5c2.5,0.25,3.2,0.66,5.5,0.5c10.5-0.75,32-3.75,42-4.25c3.25-0.16,5.47,1.22,5,3.75c-0.75,4-2.25,9.75-4,21" transform="matrix(1,0,0,1,196,-4)" class="stroke_order_diagram--existing_path"></path><path id="pathSk940yk7k312" kvg:type="㇐" d="M15,38.75c2.25,0.5,4.01,0.73,6.5,0.5c21.75-2,48.25-5.5,65.5-6.25c2.76-0.12,5,0.5,6.25,0.75" transform="matrix(1,0,0,1,196,-4)" class="stroke_order_diagram--existing_path"></path><path id="kvg:0807f-s3" kvg:type="㇐" d="M28.25,51.75c1.25,0.25,3.51,0.39,5,0.25C47,50.75,61,49.5,73.5,48.25c1.99-0.2,3.25,0,4.75,0.25" transform="matrix(1,0,0,1,196,-4)" class="stroke_order_diagram--current_path"></path><path id="pathSk940yk7k314" kvg:type="㇐" d="M28.25,51.75c1.25,0.25,3.51,0.39,5,0.25C47,50.75,61,49.5,73.5,48.25c1.99-0.2,3.25,0,4.75,0.25" transform="matrix(1,0,0,1,196,-4)" class="stroke_order_diagram--current_path"></path><circle cx="28.25" cy="51.75" r="8" class="stroke_order_diagram--path_start" transform="matrix(1,0,0,1,196,-4)"></circle><line x1="350" x2="350" y1="1" y2="99" class="stroke_order_diagram--guide_line"></line><line x1="399" x2="399" y1="1" y2="99" class="stroke_order_diagram--bounding_box"></line><path id="pathSk940yk7k317" kvg:type="㇕c" d="M27.25,25.5c2.5,0.25,3.2,0.66,5.5,0.5c10.5-0.75,32-3.75,42-4.25c3.25-0.16,5.47,1.22,5,3.75c-0.75,4-2.25,9.75-4,21" transform="matrix(1,0,0,1,296,-4)" class="stroke_order_diagram--existing_path"></path><path id="pathSk940yk7k318" kvg:type="㇐" d="M15,38.75c2.25,0.5,4.01,0.73,6.5,0.5c21.75-2,48.25-5.5,65.5-6.25c2.76-0.12,5,0.5,6.25,0.75" transform="matrix(1,0,0,1,296,-4)" class="stroke_order_diagram--existing_path"></path><path id="pathSk940yk7k319" kvg:type="㇐" d="M28.25,51.75c1.25,0.25,3.51,0.39,5,0.25C47,50.75,61,49.5,73.5,48.25c1.99-0.2,3.25,0,4.75,0.25" transform="matrix(1,0,0,1,296,-4)" class="stroke_order_diagram--existing_path"></path><path id="kvg:0807f-s4" kvg:type="㇐" d="M26.13,65.42c1.15,0.38,3.24,0.42,4.39,0.38c11.91-0.44,38.73-3.55,50.36-4.38c1.9-0.14,3.05,0.18,4.01,0.37" transform="matrix(1,0,0,1,296,-4)" class="stroke_order_diagram--current_path"></path><path id="pathSk940yk7k31b" kvg:type="㇐" d="M26.13,65.42c1.15,0.38,3.24,0.42,4.39,0.38c11.91-0.44,38.73-3.55,50.36-4.38c1.9-0.14,3.05,0.18,4.01,0.37" transform="matrix(1,0,0,1,296,-4)" class="stroke_order_diagram--current_path"></path><circle cx="26.13" cy="65.42" r="8" class="stroke_order_diagram--path_start" transform="matrix(1,0,0,1,296,-4)"></circle><line x1="450" x2="450" y1="1" y2="99" class="stroke_order_diagram--guide_line"></line><line x1="499" x2="499" y1="1" y2="99" class="stroke_order_diagram--bounding_box"></line><path id="pathSk940yk7k31e" kvg:type="㇕c" d="M27.25,25.5c2.5,0.25,3.2,0.66,5.5,0.5c10.5-0.75,32-3.75,42-4.25c3.25-0.16,5.47,1.22,5,3.75c-0.75,4-2.25,9.75-4,21" transform="matrix(1,0,0,1,396,-4)" class="stroke_order_diagram--existing_path"></path><path id="pathSk940yk7k31f" kvg:type="㇐" d="M15,38.75c2.25,0.5,4.01,0.73,6.5,0.5c21.75-2,48.25-5.5,65.5-6.25c2.76-0.12,5,0.5,6.25,0.75" transform="matrix(1,0,0,1,396,-4)" class="stroke_order_diagram--existing_path"></path><path id="pathSk940yk7k31g" kvg:type="㇐" d="M28.25,51.75c1.25,0.25,3.51,0.39,5,0.25C47,50.75,61,49.5,73.5,48.25c1.99-0.2,3.25,0,4.75,0.25" transform="matrix(1,0,0,1,396,-4)" class="stroke_order_diagram--existing_path"></path><path id="pathSk940yk7k31h" kvg:type="㇐" d="M26.13,65.42c1.15,0.38,3.24,0.42,4.39,0.38c11.91-0.44,38.73-3.55,50.36-4.38c1.9-0.14,3.05,0.18,4.01,0.37" transform="matrix(1,0,0,1,396,-4)" class="stroke_order_diagram--existing_path"></path><path id="kvg:0807f-s5" kvg:type="㇐" d="M17.13,79.73c1.52,0.54,4.31,0.71,5.82,0.54c17.8-2.02,49.8-4.77,63.61-5.23c2.53-0.08,4.05,0.26,5.31,0.53" transform="matrix(1,0,0,1,396,-4)" class="stroke_order_diagram--current_path"></path><path id="pathSk940yk7k31j" kvg:type="㇐" d="M17.13,79.73c1.52,0.54,4.31,0.71,5.82,0.54c17.8-2.02,49.8-4.77,63.61-5.23c2.53-0.08,4.05,0.26,5.31,0.53" transform="matrix(1,0,0,1,396,-4)" class="stroke_order_diagram--current_path"></path><circle cx="17.13" cy="79.73" r="8" class="stroke_order_diagram--path_start" transform="matrix(1,0,0,1,396,-4)"></circle><line x1="550" x2="550" y1="1" y2="99" class="stroke_order_diagram--guide_line"></line><line x1="599" x2="599" y1="1" y2="99" class="stroke_order_diagram--bounding_box"></line><path id="pathSk940yk7k31m" kvg:type="㇕c" d="M27.25,25.5c2.5,0.25,3.2,0.66,5.5,0.5c10.5-0.75,32-3.75,42-4.25c3.25-0.16,5.47,1.22,5,3.75c-0.75,4-2.25,9.75-4,21" transform="matrix(1,0,0,1,496,-4)" class="stroke_order_diagram--existing_path"></path><path id="pathSk940yk7k31n" kvg:type="㇐" d="M15,38.75c2.25,0.5,4.01,0.73,6.5,0.5c21.75-2,48.25-5.5,65.5-6.25c2.76-0.12,5,0.5,6.25,0.75" transform="matrix(1,0,0,1,496,-4)" class="stroke_order_diagram--existing_path"></path><path id="pathSk940yk7k31o" kvg:type="㇐" d="M28.25,51.75c1.25,0.25,3.51,0.39,5,0.25C47,50.75,61,49.5,73.5,48.25c1.99-0.2,3.25,0,4.75,0.25" transform="matrix(1,0,0,1,496,-4)" class="stroke_order_diagram--existing_path"></path><path id="pathSk940yk7k31p" kvg:type="㇐" d="M26.13,65.42c1.15,0.38,3.24,0.42,4.39,0.38c11.91-0.44,38.73-3.55,50.36-4.38c1.9-0.14,3.05,0.18,4.01,0.37" transform="matrix(1,0,0,1,496,-4)" class="stroke_order_diagram--existing_path"></path><path id="pathSk940yk7k31q" kvg:type="㇐" d="M17.13,79.73c1.52,0.54,4.31,0.71,5.82,0.54c17.8-2.02,49.8-4.77,63.61-5.23c2.53-0.08,4.05,0.26,5.31,0.53" transform="matrix(1,0,0,1,496,-4)" class="stroke_order_diagram--existing_path"></path><path id="kvg:0807f-s6" kvg:type="㇑" d="M52.12,10.5c1.09,0.5,1.74,2.25,1.96,3.25c0.22,1,0,79.75-0.22,86" transform="matrix(1,0,0,1,496,-4)" class="stroke_order_diagram--current_path"></path><path id="pathSk940yk7k31s" kvg:type="㇑" d="M52.12,10.5c1.09,0.5,1.74,2.25,1.96,3.25c0.22,1,0,79.75-0.22,86" transform="matrix(1,0,0,1,496,-4)" class="stroke_order_diagram--current_path"></path><circle cx="52.12" cy="10.5" r="8" class="stroke_order_diagram--path_start" transform="matrix(1,0,0,1,496,-4)"></circle></svg>