<?xml version="1.0" encoding="UTF-8"?>
<!DOCTYPE svg PUBLIC "-//W3C//DTD SVG 1.0//EN" "http://www.w3.org/TR/2001/REC-SVG-20010904/DTD/svg10.dtd" [
<!ATTLIST g
xmlns:kvg CDATA #FIXED "http://kanjivg.tagaini.net"
kvg:element CDATA #IMPLIED
kvg:variant CDATA #IMPLIED
kvg:partial CDATA #IMPLIED
kvg:original CDATA #IMPLIED
kvg:part CDATA #IMPLIED
kvg:number CDATA #IMPLIED
kvg:tradForm CDATA #IMPLIED
kvg:radicalForm CDATA #IMPLIED
kvg:position CDATA #IMPLIED
kvg:radical CDATA #IMPLIED
kvg:phon CDATA #IMPLIED >
<!ATTLIST path
xmlns:kvg CDATA #FIXED "http://kanjivg.tagaini.net"
kvg:type CDATA #IMPLIED >
]><svg style="width: 600px; height: 100px;" xmlns="http://www.w3.org/2000/svg" xmlns:xlink="http://www.w3.org/1999/xlink" width="600px" height="100px"><style>
.stroke_order_diagram--outer_container {
  width: 100%;
  overflow-x: auto;
  overflow-y: hidden;
}

.stroke_order_diagram--guide_line {
  fill: none;
  stroke: #ddd;
  stroke-width: 3;
  stroke-linecap: square;
  stroke-linejoin: square;
  stroke-dasharray:8, 8;
}

.stroke_order_diagram--bounding_box {
  fill: none;
  stroke: #ddd;
  stroke-width: 4;
  stroke-linecap: square;
  stroke-linejoin: square;
}

.stroke_order_diagram--current_path {
  fill: none;
  stroke: #000;
  stroke-width: 6;
  stroke-linecap: round;
  stroke-linejoin: round;
}

.stroke_order_diagram--existing_path {
  fill: none;
  stroke: #aaa;
  stroke-width: 6;
  stroke-linecap: round;
  stroke-linejoin:round;
}

.stroke_order_diagram--path_start {
  fill: rgba(255, 0, 0, 0.7);
  stroke:none
}</style><desc>Created with Snap</desc><defs></defs><line x1="1" x2="599" y1="1" y2="1" class="stroke_order_diagram--bounding_box"></line><line x1="1" x2="1" y1="1" y2="99" class="stroke_order_diagram--bounding_box"></line><line x1="1" x2="599" y1="99" y2="99" class="stroke_order_diagram--bounding_box"></line><line x1="0" x2="600" y1="50" y2="50" class="stroke_order_diagram--guide_line"></line><line x1="50" x2="50" y1="1" y2="99" class="stroke_order_diagram--guide_line"></line><line x1="99" x2="99" y1="1" y2="99" class="stroke_order_diagram--bounding_box"></line><path id="kvg:081fc-s1" kvg:type="㇒" d="M48.55,18.21c-0.29,1.43-0.99,2.55-2.11,3.36c-6.01,5.4-12.97,10.31-23.94,15.67" transform="matrix(1,0,0,1,-4,-4)" class="stroke_order_diagram--current_path"></path><path id="pathSk940yk7k387" kvg:type="㇒" d="M48.55,18.21c-0.29,1.43-0.99,2.55-2.11,3.36c-6.01,5.4-12.97,10.31-23.94,15.67" transform="matrix(1,0,0,1,-4,-4)" class="stroke_order_diagram--current_path"></path><circle cx="48.55" cy="18.21" r="8" class="stroke_order_diagram--path_start" transform="matrix(1,0,0,1,-4,-4)"></circle><line x1="150" x2="150" y1="1" y2="99" class="stroke_order_diagram--guide_line"></line><line x1="199" x2="199" y1="1" y2="99" class="stroke_order_diagram--bounding_box"></line><path id="pathSk940yk7k38a" kvg:type="㇒" d="M48.55,18.21c-0.29,1.43-0.99,2.55-2.11,3.36c-6.01,5.4-12.97,10.31-23.94,15.67" transform="matrix(1,0,0,1,96,-4)" class="stroke_order_diagram--existing_path"></path><path id="kvg:081fc-s2" kvg:type="㇑" d="M19.78,35.73c1.06,1.1,1.55,3.55,1.76,5.8c1.2,13.03,2.58,29.47,3.8,41.37c0.42,4.08,0.7,7.62,0.91,10.1" transform="matrix(1,0,0,1,96,-4)" class="stroke_order_diagram--current_path"></path><path id="pathSk940yk7k38c" kvg:type="㇑" d="M19.78,35.73c1.06,1.1,1.55,3.55,1.76,5.8c1.2,13.03,2.58,29.47,3.8,41.37c0.42,4.08,0.7,7.62,0.91,10.1" transform="matrix(1,0,0,1,96,-4)" class="stroke_order_diagram--current_path"></path><circle cx="19.78" cy="35.73" r="8" class="stroke_order_diagram--path_start" transform="matrix(1,0,0,1,96,-4)"></circle><line x1="250" x2="250" y1="1" y2="99" class="stroke_order_diagram--guide_line"></line><line x1="299" x2="299" y1="1" y2="99" class="stroke_order_diagram--bounding_box"></line><path id="pathSk940yk7k38f" kvg:type="㇒" d="M48.55,18.21c-0.29,1.43-0.99,2.55-2.11,3.36c-6.01,5.4-12.97,10.31-23.94,15.67" transform="matrix(1,0,0,1,196,-4)" class="stroke_order_diagram--existing_path"></path><path id="pathSk940yk7k38g" kvg:type="㇑" d="M19.78,35.73c1.06,1.1,1.55,3.55,1.76,5.8c1.2,13.03,2.58,29.47,3.8,41.37c0.42,4.08,0.7,7.62,0.91,10.1" transform="matrix(1,0,0,1,196,-4)" class="stroke_order_diagram--existing_path"></path><path id="kvg:081fc-s3" kvg:type="㇕" d="M60,31.75c2.17,0.67,4.34,0.85,6.52,0.53c4.85-0.52,14.99-1.82,18.6-2.37c3.51-0.54,4.76,0.46,4.47,4.21c-0.88,11.34-2.96,31.9-4.14,45.38c-0.42,4.83-0.76,8.68-0.95,10.75" transform="matrix(1,0,0,1,196,-4)" class="stroke_order_diagram--current_path"></path><path id="pathSk940yk7k38i" kvg:type="㇕" d="M60,31.75c2.17,0.67,4.34,0.85,6.52,0.53c4.85-0.52,14.99-1.82,18.6-2.37c3.51-0.54,4.76,0.46,4.47,4.21c-0.88,11.34-2.96,31.9-4.14,45.38c-0.42,4.83-0.76,8.68-0.95,10.75" transform="matrix(1,0,0,1,196,-4)" class="stroke_order_diagram--current_path"></path><circle cx="60" cy="31.75" r="8" class="stroke_order_diagram--path_start" transform="matrix(1,0,0,1,196,-4)"></circle><line x1="350" x2="350" y1="1" y2="99" class="stroke_order_diagram--guide_line"></line><line x1="399" x2="399" y1="1" y2="99" class="stroke_order_diagram--bounding_box"></line><path id="pathSk940yk7k38l" kvg:type="㇒" d="M48.55,18.21c-0.29,1.43-0.99,2.55-2.11,3.36c-6.01,5.4-12.97,10.31-23.94,15.67" transform="matrix(1,0,0,1,296,-4)" class="stroke_order_diagram--existing_path"></path><path id="pathSk940yk7k38m" kvg:type="㇑" d="M19.78,35.73c1.06,1.1,1.55,3.55,1.76,5.8c1.2,13.03,2.58,29.47,3.8,41.37c0.42,4.08,0.7,7.62,0.91,10.1" transform="matrix(1,0,0,1,296,-4)" class="stroke_order_diagram--existing_path"></path><path id="pathSk940yk7k38n" kvg:type="㇕" d="M60,31.75c2.17,0.67,4.34,0.85,6.52,0.53c4.85-0.52,14.99-1.82,18.6-2.37c3.51-0.54,4.76,0.46,4.47,4.21c-0.88,11.34-2.96,31.9-4.14,45.38c-0.42,4.83-0.76,8.68-0.95,10.75" transform="matrix(1,0,0,1,296,-4)" class="stroke_order_diagram--existing_path"></path><path id="kvg:081fc-s4" kvg:type="㇐" d="M24.25,60.25c4.97-0.47,10.83-1.62,18.86-2.59c1.78-0.26,3.58-0.32,5.39-0.16" transform="matrix(1,0,0,1,296,-4)" class="stroke_order_diagram--current_path"></path><path id="pathSk940yk7k38p" kvg:type="㇐" d="M24.25,60.25c4.97-0.47,10.83-1.62,18.86-2.59c1.78-0.26,3.58-0.32,5.39-0.16" transform="matrix(1,0,0,1,296,-4)" class="stroke_order_diagram--current_path"></path><circle cx="24.25" cy="60.25" r="8" class="stroke_order_diagram--path_start" transform="matrix(1,0,0,1,296,-4)"></circle><line x1="450" x2="450" y1="1" y2="99" class="stroke_order_diagram--guide_line"></line><line x1="499" x2="499" y1="1" y2="99" class="stroke_order_diagram--bounding_box"></line><path id="pathSk940yk7k38s" kvg:type="㇒" d="M48.55,18.21c-0.29,1.43-0.99,2.55-2.11,3.36c-6.01,5.4-12.97,10.31-23.94,15.67" transform="matrix(1,0,0,1,396,-4)" class="stroke_order_diagram--existing_path"></path><path id="pathSk940yk7k38t" kvg:type="㇑" d="M19.78,35.73c1.06,1.1,1.55,3.55,1.76,5.8c1.2,13.03,2.58,29.47,3.8,41.37c0.42,4.08,0.7,7.62,0.91,10.1" transform="matrix(1,0,0,1,396,-4)" class="stroke_order_diagram--existing_path"></path><path id="pathSk940yk7k38u" kvg:type="㇕" d="M60,31.75c2.17,0.67,4.34,0.85,6.52,0.53c4.85-0.52,14.99-1.82,18.6-2.37c3.51-0.54,4.76,0.46,4.47,4.21c-0.88,11.34-2.96,31.9-4.14,45.38c-0.42,4.83-0.76,8.68-0.95,10.75" transform="matrix(1,0,0,1,396,-4)" class="stroke_order_diagram--existing_path"></path><path id="pathSk940yk7k38v" kvg:type="㇐" d="M24.25,60.25c4.97-0.47,10.83-1.62,18.86-2.59c1.78-0.26,3.58-0.32,5.39-0.16" transform="matrix(1,0,0,1,396,-4)" class="stroke_order_diagram--existing_path"></path><path id="kvg:081fc-s5" kvg:type="㇐" d="M60.5,57c2.17,0.49,4.34,0.59,6.51,0.31c5.46-0.5,17.62-1.86,19.24-2.06" transform="matrix(1,0,0,1,396,-4)" class="stroke_order_diagram--current_path"></path><path id="pathSk940yk7k38x" kvg:type="㇐" d="M60.5,57c2.17,0.49,4.34,0.59,6.51,0.31c5.46-0.5,17.62-1.86,19.24-2.06" transform="matrix(1,0,0,1,396,-4)" class="stroke_order_diagram--current_path"></path><circle cx="60.5" cy="57" r="8" class="stroke_order_diagram--path_start" transform="matrix(1,0,0,1,396,-4)"></circle><line x1="550" x2="550" y1="1" y2="99" class="stroke_order_diagram--guide_line"></line><line x1="599" x2="599" y1="1" y2="99" class="stroke_order_diagram--bounding_box"></line><path id="pathSk940yk7k390" kvg:type="㇒" d="M48.55,18.21c-0.29,1.43-0.99,2.55-2.11,3.36c-6.01,5.4-12.97,10.31-23.94,15.67" transform="matrix(1,0,0,1,496,-4)" class="stroke_order_diagram--existing_path"></path><path id="pathSk940yk7k391" kvg:type="㇑" d="M19.78,35.73c1.06,1.1,1.55,3.55,1.76,5.8c1.2,13.03,2.58,29.47,3.8,41.37c0.42,4.08,0.7,7.62,0.91,10.1" transform="matrix(1,0,0,1,496,-4)" class="stroke_order_diagram--existing_path"></path><path id="pathSk940yk7k392" kvg:type="㇕" d="M60,31.75c2.17,0.67,4.34,0.85,6.52,0.53c4.85-0.52,14.99-1.82,18.6-2.37c3.51-0.54,4.76,0.46,4.47,4.21c-0.88,11.34-2.96,31.9-4.14,45.38c-0.42,4.83-0.76,8.68-0.95,10.75" transform="matrix(1,0,0,1,496,-4)" class="stroke_order_diagram--existing_path"></path><path id="pathSk940yk7k393" kvg:type="㇐" d="M24.25,60.25c4.97-0.47,10.83-1.62,18.86-2.59c1.78-0.26,3.58-0.32,5.39-0.16" transform="matrix(1,0,0,1,496,-4)" class="stroke_order_diagram--existing_path"></path><path id="pathSk940yk7k394" kvg:type="㇐" d="M60.5,57c2.17,0.49,4.34,0.59,6.51,0.31c5.46-0.5,17.62-1.86,19.24-2.06" transform="matrix(1,0,0,1,496,-4)" class="stroke_order_diagram--existing_path"></path><path id="kvg:081fc-s6" kvg:type="㇐" d="M27,88.75c18.62-1.38,39.62-2.75,56.5-3.5" transform="matrix(1,0,0,1,496,-4)" class="stroke_order_diagram--current_path"></path><path id="pathSk940yk7k396" kvg:type="㇐" d="M27,88.75c18.62-1.38,39.62-2.75,56.5-3.5" transform="matrix(1,0,0,1,496,-4)" class="stroke_order_diagram--current_path"></path><circle cx="27" cy="88.75" r="8" class="stroke_order_diagram--path_start" transform="matrix(1,0,0,1,496,-4)"></circle></svg>