<?xml version="1.0" encoding="UTF-8"?>
<!DOCTYPE svg PUBLIC "-//W3C//DTD SVG 1.0//EN" "http://www.w3.org/TR/2001/REC-SVG-20010904/DTD/svg10.dtd" [
<!ATTLIST g
xmlns:kvg CDATA #FIXED "http://kanjivg.tagaini.net"
kvg:element CDATA #IMPLIED
kvg:variant CDATA #IMPLIED
kvg:partial CDATA #IMPLIED
kvg:original CDATA #IMPLIED
kvg:part CDATA #IMPLIED
kvg:number CDATA #IMPLIED
kvg:tradForm CDATA #IMPLIED
kvg:radicalForm CDATA #IMPLIED
kvg:position CDATA #IMPLIED
kvg:radical CDATA #IMPLIED
kvg:phon CDATA #IMPLIED >
<!ATTLIST path
xmlns:kvg CDATA #FIXED "http://kanjivg.tagaini.net"
kvg:type CDATA #IMPLIED >
]><svg style="width: 600px; height: 100px;" xmlns="http://www.w3.org/2000/svg" xmlns:xlink="http://www.w3.org/1999/xlink" width="600px" height="100px"><style>
.stroke_order_diagram--outer_container {
  width: 100%;
  overflow-x: auto;
  overflow-y: hidden;
}

.stroke_order_diagram--guide_line {
  fill: none;
  stroke: #ddd;
  stroke-width: 3;
  stroke-linecap: square;
  stroke-linejoin: square;
  stroke-dasharray:8, 8;
}

.stroke_order_diagram--bounding_box {
  fill: none;
  stroke: #ddd;
  stroke-width: 4;
  stroke-linecap: square;
  stroke-linejoin: square;
}

.stroke_order_diagram--current_path {
  fill: none;
  stroke: #000;
  stroke-width: 6;
  stroke-linecap: round;
  stroke-linejoin: round;
}

.stroke_order_diagram--existing_path {
  fill: none;
  stroke: #aaa;
  stroke-width: 6;
  stroke-linecap: round;
  stroke-linejoin:round;
}

.stroke_order_diagram--path_start {
  fill: rgba(255, 0, 0, 0.7);
  stroke:none
}</style><desc>Created with Snap</desc><defs></defs><line x1="1" x2="599" y1="1" y2="1" class="stroke_order_diagram--bounding_box"></line><line x1="1" x2="1" y1="1" y2="99" class="stroke_order_diagram--bounding_box"></line><line x1="1" x2="599" y1="99" y2="99" class="stroke_order_diagram--bounding_box"></line><line x1="0" x2="600" y1="50" y2="50" class="stroke_order_diagram--guide_line"></line><line x1="50" x2="50" y1="1" y2="99" class="stroke_order_diagram--guide_line"></line><line x1="99" x2="99" y1="1" y2="99" class="stroke_order_diagram--bounding_box"></line><path id="kvg:0821f-s1" kvg:type="㇒" d="M52.5,10.42c0.25,0.83,0,2.05-0.67,3.25C50,17,49,19.25,47,22" transform="matrix(1,0,0,1,-4,-4)" class="stroke_order_diagram--current_path"></path><path id="pathSk940yk7k3cg" kvg:type="㇒" d="M52.5,10.42c0.25,0.83,0,2.05-0.67,3.25C50,17,49,19.25,47,22" transform="matrix(1,0,0,1,-4,-4)" class="stroke_order_diagram--current_path"></path><circle cx="52.5" cy="10.42" r="8" class="stroke_order_diagram--path_start" transform="matrix(1,0,0,1,-4,-4)"></circle><line x1="150" x2="150" y1="1" y2="99" class="stroke_order_diagram--guide_line"></line><line x1="199" x2="199" y1="1" y2="99" class="stroke_order_diagram--bounding_box"></line><path id="pathSk940yk7k3cj" kvg:type="㇒" d="M52.5,10.42c0.25,0.83,0,2.05-0.67,3.25C50,17,49,19.25,47,22" transform="matrix(1,0,0,1,96,-4)" class="stroke_order_diagram--existing_path"></path><path id="kvg:0821f-s2" kvg:type="㇒" d="M35.83,24.67c0.94,0.94,1.36,2.46,1.42,4.58c1,35.5-0.75,55.25-9.25,66.42" transform="matrix(1,0,0,1,96,-4)" class="stroke_order_diagram--current_path"></path><path id="pathSk940yk7k3cl" kvg:type="㇒" d="M35.83,24.67c0.94,0.94,1.36,2.46,1.42,4.58c1,35.5-0.75,55.25-9.25,66.42" transform="matrix(1,0,0,1,96,-4)" class="stroke_order_diagram--current_path"></path><circle cx="35.83" cy="24.67" r="8" class="stroke_order_diagram--path_start" transform="matrix(1,0,0,1,96,-4)"></circle><line x1="250" x2="250" y1="1" y2="99" class="stroke_order_diagram--guide_line"></line><line x1="299" x2="299" y1="1" y2="99" class="stroke_order_diagram--bounding_box"></line><path id="pathSk940yk7k3co" kvg:type="㇒" d="M52.5,10.42c0.25,0.83,0,2.05-0.67,3.25C50,17,49,19.25,47,22" transform="matrix(1,0,0,1,196,-4)" class="stroke_order_diagram--existing_path"></path><path id="pathSk940yk7k3cp" kvg:type="㇒" d="M35.83,24.67c0.94,0.94,1.36,2.46,1.42,4.58c1,35.5-0.75,55.25-9.25,66.42" transform="matrix(1,0,0,1,196,-4)" class="stroke_order_diagram--existing_path"></path><path id="kvg:0821f-s3" kvg:type="㇆" d="M38,26.33c1.22-0.12,2.76-0.28,4.52-0.48c8.3-0.95,21.26-2.63,26.48-3.18c6.33-0.67,6,1.33,6,3.67s-0.67,61-0.67,64.33c0,9.33-9,2-10.33,1.33" transform="matrix(1,0,0,1,196,-4)" class="stroke_order_diagram--current_path"></path><path id="pathSk940yk7k3cr" kvg:type="㇆" d="M38,26.33c1.22-0.12,2.76-0.28,4.52-0.48c8.3-0.95,21.26-2.63,26.48-3.18c6.33-0.67,6,1.33,6,3.67s-0.67,61-0.67,64.33c0,9.33-9,2-10.33,1.33" transform="matrix(1,0,0,1,196,-4)" class="stroke_order_diagram--current_path"></path><circle cx="38" cy="26.33" r="8" class="stroke_order_diagram--path_start" transform="matrix(1,0,0,1,196,-4)"></circle><line x1="350" x2="350" y1="1" y2="99" class="stroke_order_diagram--guide_line"></line><line x1="399" x2="399" y1="1" y2="99" class="stroke_order_diagram--bounding_box"></line><path id="pathSk940yk7k3cu" kvg:type="㇒" d="M52.5,10.42c0.25,0.83,0,2.05-0.67,3.25C50,17,49,19.25,47,22" transform="matrix(1,0,0,1,296,-4)" class="stroke_order_diagram--existing_path"></path><path id="pathSk940yk7k3cv" kvg:type="㇒" d="M35.83,24.67c0.94,0.94,1.36,2.46,1.42,4.58c1,35.5-0.75,55.25-9.25,66.42" transform="matrix(1,0,0,1,296,-4)" class="stroke_order_diagram--existing_path"></path><path id="pathSk940yk7k3cw" kvg:type="㇆" d="M38,26.33c1.22-0.12,2.76-0.28,4.52-0.48c8.3-0.95,21.26-2.63,26.48-3.18c6.33-0.67,6,1.33,6,3.67s-0.67,61-0.67,64.33c0,9.33-9,2-10.33,1.33" transform="matrix(1,0,0,1,296,-4)" class="stroke_order_diagram--existing_path"></path><path id="kvg:0821f-s4" kvg:type="㇔" d="M51.67,35.75c1.58,1.25,5.67,8.33,6,10.67" transform="matrix(1,0,0,1,296,-4)" class="stroke_order_diagram--current_path"></path><path id="pathSk940yk7k3cy" kvg:type="㇔" d="M51.67,35.75c1.58,1.25,5.67,8.33,6,10.67" transform="matrix(1,0,0,1,296,-4)" class="stroke_order_diagram--current_path"></path><circle cx="51.67" cy="35.75" r="8" class="stroke_order_diagram--path_start" transform="matrix(1,0,0,1,296,-4)"></circle><line x1="450" x2="450" y1="1" y2="99" class="stroke_order_diagram--guide_line"></line><line x1="499" x2="499" y1="1" y2="99" class="stroke_order_diagram--bounding_box"></line><path id="pathSk940yk7k3d1" kvg:type="㇒" d="M52.5,10.42c0.25,0.83,0,2.05-0.67,3.25C50,17,49,19.25,47,22" transform="matrix(1,0,0,1,396,-4)" class="stroke_order_diagram--existing_path"></path><path id="pathSk940yk7k3d2" kvg:type="㇒" d="M35.83,24.67c0.94,0.94,1.36,2.46,1.42,4.58c1,35.5-0.75,55.25-9.25,66.42" transform="matrix(1,0,0,1,396,-4)" class="stroke_order_diagram--existing_path"></path><path id="pathSk940yk7k3d3" kvg:type="㇆" d="M38,26.33c1.22-0.12,2.76-0.28,4.52-0.48c8.3-0.95,21.26-2.63,26.48-3.18c6.33-0.67,6,1.33,6,3.67s-0.67,61-0.67,64.33c0,9.33-9,2-10.33,1.33" transform="matrix(1,0,0,1,396,-4)" class="stroke_order_diagram--existing_path"></path><path id="pathSk940yk7k3d4" kvg:type="㇔" d="M51.67,35.75c1.58,1.25,5.67,8.33,6,10.67" transform="matrix(1,0,0,1,396,-4)" class="stroke_order_diagram--existing_path"></path><path id="kvg:0821f-s5" kvg:type="㇑" d="M52.92,58.67c1.08,1.08,1.5,2.67,1.5,4c0,1.84-0.02,8.37-0.03,13.08c0,1.89-0.01,3.48-0.01,4.38" transform="matrix(1,0,0,1,396,-4)" class="stroke_order_diagram--current_path"></path><path id="pathSk940yk7k3d6" kvg:type="㇑" d="M52.92,58.67c1.08,1.08,1.5,2.67,1.5,4c0,1.84-0.02,8.37-0.03,13.08c0,1.89-0.01,3.48-0.01,4.38" transform="matrix(1,0,0,1,396,-4)" class="stroke_order_diagram--current_path"></path><circle cx="52.92" cy="58.67" r="8" class="stroke_order_diagram--path_start" transform="matrix(1,0,0,1,396,-4)"></circle><line x1="550" x2="550" y1="1" y2="99" class="stroke_order_diagram--guide_line"></line><line x1="599" x2="599" y1="1" y2="99" class="stroke_order_diagram--bounding_box"></line><path id="pathSk940yk7k3d9" kvg:type="㇒" d="M52.5,10.42c0.25,0.83,0,2.05-0.67,3.25C50,17,49,19.25,47,22" transform="matrix(1,0,0,1,496,-4)" class="stroke_order_diagram--existing_path"></path><path id="pathSk940yk7k3da" kvg:type="㇒" d="M35.83,24.67c0.94,0.94,1.36,2.46,1.42,4.58c1,35.5-0.75,55.25-9.25,66.42" transform="matrix(1,0,0,1,496,-4)" class="stroke_order_diagram--existing_path"></path><path id="pathSk940yk7k3db" kvg:type="㇆" d="M38,26.33c1.22-0.12,2.76-0.28,4.52-0.48c8.3-0.95,21.26-2.63,26.48-3.18c6.33-0.67,6,1.33,6,3.67s-0.67,61-0.67,64.33c0,9.33-9,2-10.33,1.33" transform="matrix(1,0,0,1,496,-4)" class="stroke_order_diagram--existing_path"></path><path id="pathSk940yk7k3dc" kvg:type="㇔" d="M51.67,35.75c1.58,1.25,5.67,8.33,6,10.67" transform="matrix(1,0,0,1,496,-4)" class="stroke_order_diagram--existing_path"></path><path id="pathSk940yk7k3dd" kvg:type="㇑" d="M52.92,58.67c1.08,1.08,1.5,2.67,1.5,4c0,1.84-0.02,8.37-0.03,13.08c0,1.89-0.01,3.48-0.01,4.38" transform="matrix(1,0,0,1,496,-4)" class="stroke_order_diagram--existing_path"></path><path id="kvg:0821f-s6" kvg:type="㇐" d="M12.92,58.58c4.43,0.89,8.04,0.66,12.48,0.09c16.73-2.17,44.1-4.8,60.35-5.84c3.67-0.24,7.74-0.14,11.34,0.75" transform="matrix(1,0,0,1,496,-4)" class="stroke_order_diagram--current_path"></path><path id="pathSk940yk7k3df" kvg:type="㇐" d="M12.92,58.58c4.43,0.89,8.04,0.66,12.48,0.09c16.73-2.17,44.1-4.8,60.35-5.84c3.67-0.24,7.74-0.14,11.34,0.75" transform="matrix(1,0,0,1,496,-4)" class="stroke_order_diagram--current_path"></path><circle cx="12.92" cy="58.58" r="8" class="stroke_order_diagram--path_start" transform="matrix(1,0,0,1,496,-4)"></circle></svg>