<?xml version="1.0" encoding="UTF-8"?>
<!DOCTYPE svg PUBLIC "-//W3C//DTD SVG 1.0//EN" "http://www.w3.org/TR/2001/REC-SVG-20010904/DTD/svg10.dtd" [
<!ATTLIST g
xmlns:kvg CDATA #FIXED "http://kanjivg.tagaini.net"
kvg:element CDATA #IMPLIED
kvg:variant CDATA #IMPLIED
kvg:partial CDATA #IMPLIED
kvg:original CDATA #IMPLIED
kvg:part CDATA #IMPLIED
kvg:number CDATA #IMPLIED
kvg:tradForm CDATA #IMPLIED
kvg:radicalForm CDATA #IMPLIED
kvg:position CDATA #IMPLIED
kvg:radical CDATA #IMPLIED
kvg:phon CDATA #IMPLIED >
<!ATTLIST path
xmlns:kvg CDATA #FIXED "http://kanjivg.tagaini.net"
kvg:type CDATA #IMPLIED >
]><svg style="width: 600px; height: 100px;" xmlns="http://www.w3.org/2000/svg" xmlns:xlink="http://www.w3.org/1999/xlink" width="600px" height="100px"><style>
.stroke_order_diagram--outer_container {
  width: 100%;
  overflow-x: auto;
  overflow-y: hidden;
}

.stroke_order_diagram--guide_line {
  fill: none;
  stroke: #ddd;
  stroke-width: 3;
  stroke-linecap: square;
  stroke-linejoin: square;
  stroke-dasharray:8, 8;
}

.stroke_order_diagram--bounding_box {
  fill: none;
  stroke: #ddd;
  stroke-width: 4;
  stroke-linecap: square;
  stroke-linejoin: square;
}

.stroke_order_diagram--current_path {
  fill: none;
  stroke: #000;
  stroke-width: 6;
  stroke-linecap: round;
  stroke-linejoin: round;
}

.stroke_order_diagram--existing_path {
  fill: none;
  stroke: #aaa;
  stroke-width: 6;
  stroke-linecap: round;
  stroke-linejoin:round;
}

.stroke_order_diagram--path_start {
  fill: rgba(255, 0, 0, 0.7);
  stroke:none
}</style><desc>Created with Snap</desc><defs></defs><line x1="1" x2="599" y1="1" y2="1" class="stroke_order_diagram--bounding_box"></line><line x1="1" x2="1" y1="1" y2="99" class="stroke_order_diagram--bounding_box"></line><line x1="1" x2="599" y1="99" y2="99" class="stroke_order_diagram--bounding_box"></line><line x1="0" x2="600" y1="50" y2="50" class="stroke_order_diagram--guide_line"></line><line x1="50" x2="50" y1="1" y2="99" class="stroke_order_diagram--guide_line"></line><line x1="99" x2="99" y1="1" y2="99" class="stroke_order_diagram--bounding_box"></line><path id="kvg:0821b-s1" kvg:type="㇒" d="M34.85,16.64c0,1.36-0.09,2.39-0.57,3.75C30.5,31,24.25,44.75,13.08,57.56" transform="matrix(1,0,0,1,-4,-4)" class="stroke_order_diagram--current_path"></path><path id="pathSk940yk7k3b1" kvg:type="㇒" d="M34.85,16.64c0,1.36-0.09,2.39-0.57,3.75C30.5,31,24.25,44.75,13.08,57.56" transform="matrix(1,0,0,1,-4,-4)" class="stroke_order_diagram--current_path"></path><circle cx="34.85" cy="16.64" r="8" class="stroke_order_diagram--path_start" transform="matrix(1,0,0,1,-4,-4)"></circle><line x1="150" x2="150" y1="1" y2="99" class="stroke_order_diagram--guide_line"></line><line x1="199" x2="199" y1="1" y2="99" class="stroke_order_diagram--bounding_box"></line><path id="pathSk940yk7k3b4" kvg:type="㇒" d="M34.85,16.64c0,1.36-0.09,2.39-0.57,3.75C30.5,31,24.25,44.75,13.08,57.56" transform="matrix(1,0,0,1,96,-4)" class="stroke_order_diagram--existing_path"></path><path id="kvg:0821b-s2" kvg:type="㇇" d="M34.91,28.11c1.45,0.43,2.89,0.46,4.34,0.1c2.82-0.38,5.86-0.9,9.26-1.8c4.34-1.14,5.7,0.58,4.27,4.66C42.88,59.25,28.38,81,10,91" transform="matrix(1,0,0,1,96,-4)" class="stroke_order_diagram--current_path"></path><path id="pathSk940yk7k3b6" kvg:type="㇇" d="M34.91,28.11c1.45,0.43,2.89,0.46,4.34,0.1c2.82-0.38,5.86-0.9,9.26-1.8c4.34-1.14,5.7,0.58,4.27,4.66C42.88,59.25,28.38,81,10,91" transform="matrix(1,0,0,1,96,-4)" class="stroke_order_diagram--current_path"></path><circle cx="34.91" cy="28.11" r="8" class="stroke_order_diagram--path_start" transform="matrix(1,0,0,1,96,-4)"></circle><line x1="250" x2="250" y1="1" y2="99" class="stroke_order_diagram--guide_line"></line><line x1="299" x2="299" y1="1" y2="99" class="stroke_order_diagram--bounding_box"></line><path id="pathSk940yk7k3b9" kvg:type="㇒" d="M34.85,16.64c0,1.36-0.09,2.39-0.57,3.75C30.5,31,24.25,44.75,13.08,57.56" transform="matrix(1,0,0,1,196,-4)" class="stroke_order_diagram--existing_path"></path><path id="pathSk940yk7k3ba" kvg:type="㇇" d="M34.91,28.11c1.45,0.43,2.89,0.46,4.34,0.1c2.82-0.38,5.86-0.9,9.26-1.8c4.34-1.14,5.7,0.58,4.27,4.66C42.88,59.25,28.38,81,10,91" transform="matrix(1,0,0,1,196,-4)" class="stroke_order_diagram--existing_path"></path><path id="kvg:0821b-s3" kvg:type="㇔" d="M24.46,48.93c3.63,2.1,9.14,8.39,10.05,11.66" transform="matrix(1,0,0,1,196,-4)" class="stroke_order_diagram--current_path"></path><path id="pathSk940yk7k3bc" kvg:type="㇔" d="M24.46,48.93c3.63,2.1,9.14,8.39,10.05,11.66" transform="matrix(1,0,0,1,196,-4)" class="stroke_order_diagram--current_path"></path><circle cx="24.46" cy="48.93" r="8" class="stroke_order_diagram--path_start" transform="matrix(1,0,0,1,196,-4)"></circle><line x1="350" x2="350" y1="1" y2="99" class="stroke_order_diagram--guide_line"></line><line x1="399" x2="399" y1="1" y2="99" class="stroke_order_diagram--bounding_box"></line><path id="pathSk940yk7k3bf" kvg:type="㇒" d="M34.85,16.64c0,1.36-0.09,2.39-0.57,3.75C30.5,31,24.25,44.75,13.08,57.56" transform="matrix(1,0,0,1,296,-4)" class="stroke_order_diagram--existing_path"></path><path id="pathSk940yk7k3bg" kvg:type="㇇" d="M34.91,28.11c1.45,0.43,2.89,0.46,4.34,0.1c2.82-0.38,5.86-0.9,9.26-1.8c4.34-1.14,5.7,0.58,4.27,4.66C42.88,59.25,28.38,81,10,91" transform="matrix(1,0,0,1,296,-4)" class="stroke_order_diagram--existing_path"></path><path id="pathSk940yk7k3bh" kvg:type="㇔" d="M24.46,48.93c3.63,2.1,9.14,8.39,10.05,11.66" transform="matrix(1,0,0,1,296,-4)" class="stroke_order_diagram--existing_path"></path><path id="kvg:0821b-s4" kvg:type="㇐" d="M58.25,36.64c2.47,0.54,4.88,0.26,7.39-0.1c6.64-0.96,12.86-1.79,22.74-2.79c2.31-0.23,4.6-0.16,6.88,0.26" transform="matrix(1,0,0,1,296,-4)" class="stroke_order_diagram--current_path"></path><path id="pathSk940yk7k3bj" kvg:type="㇐" d="M58.25,36.64c2.47,0.54,4.88,0.26,7.39-0.1c6.64-0.96,12.86-1.79,22.74-2.79c2.31-0.23,4.6-0.16,6.88,0.26" transform="matrix(1,0,0,1,296,-4)" class="stroke_order_diagram--current_path"></path><circle cx="58.25" cy="36.64" r="8" class="stroke_order_diagram--path_start" transform="matrix(1,0,0,1,296,-4)"></circle><line x1="450" x2="450" y1="1" y2="99" class="stroke_order_diagram--guide_line"></line><line x1="499" x2="499" y1="1" y2="99" class="stroke_order_diagram--bounding_box"></line><path id="pathSk940yk7k3bm" kvg:type="㇒" d="M34.85,16.64c0,1.36-0.09,2.39-0.57,3.75C30.5,31,24.25,44.75,13.08,57.56" transform="matrix(1,0,0,1,396,-4)" class="stroke_order_diagram--existing_path"></path><path id="pathSk940yk7k3bn" kvg:type="㇇" d="M34.91,28.11c1.45,0.43,2.89,0.46,4.34,0.1c2.82-0.38,5.86-0.9,9.26-1.8c4.34-1.14,5.7,0.58,4.27,4.66C42.88,59.25,28.38,81,10,91" transform="matrix(1,0,0,1,396,-4)" class="stroke_order_diagram--existing_path"></path><path id="pathSk940yk7k3bo" kvg:type="㇔" d="M24.46,48.93c3.63,2.1,9.14,8.39,10.05,11.66" transform="matrix(1,0,0,1,396,-4)" class="stroke_order_diagram--existing_path"></path><path id="pathSk940yk7k3bp" kvg:type="㇐" d="M58.25,36.64c2.47,0.54,4.88,0.26,7.39-0.1c6.64-0.96,12.86-1.79,22.74-2.79c2.31-0.23,4.6-0.16,6.88,0.26" transform="matrix(1,0,0,1,396,-4)" class="stroke_order_diagram--existing_path"></path><path id="kvg:0821b-s5" kvg:type="㇄" d="M59,45c0.62,1.5,0.51,3.31,0,5c-0.64,2.13-1.86,8.14-2.64,10.75c-0.98,3.24-0.69,3.82,2.51,3.24c10.39-1.91,28.87-2.97,33.63-3.2c2.93-0.15,5.85,0.09,8.75,0.71" transform="matrix(1,0,0,1,396,-4)" class="stroke_order_diagram--current_path"></path><path id="pathSk940yk7k3br" kvg:type="㇄" d="M59,45c0.62,1.5,0.51,3.31,0,5c-0.64,2.13-1.86,8.14-2.64,10.75c-0.98,3.24-0.69,3.82,2.51,3.24c10.39-1.91,28.87-2.97,33.63-3.2c2.93-0.15,5.85,0.09,8.75,0.71" transform="matrix(1,0,0,1,396,-4)" class="stroke_order_diagram--current_path"></path><circle cx="59" cy="45" r="8" class="stroke_order_diagram--path_start" transform="matrix(1,0,0,1,396,-4)"></circle><line x1="550" x2="550" y1="1" y2="99" class="stroke_order_diagram--guide_line"></line><line x1="599" x2="599" y1="1" y2="99" class="stroke_order_diagram--bounding_box"></line><path id="pathSk940yk7k3bu" kvg:type="㇒" d="M34.85,16.64c0,1.36-0.09,2.39-0.57,3.75C30.5,31,24.25,44.75,13.08,57.56" transform="matrix(1,0,0,1,496,-4)" class="stroke_order_diagram--existing_path"></path><path id="pathSk940yk7k3bv" kvg:type="㇇" d="M34.91,28.11c1.45,0.43,2.89,0.46,4.34,0.1c2.82-0.38,5.86-0.9,9.26-1.8c4.34-1.14,5.7,0.58,4.27,4.66C42.88,59.25,28.38,81,10,91" transform="matrix(1,0,0,1,496,-4)" class="stroke_order_diagram--existing_path"></path><path id="pathSk940yk7k3bw" kvg:type="㇔" d="M24.46,48.93c3.63,2.1,9.14,8.39,10.05,11.66" transform="matrix(1,0,0,1,496,-4)" class="stroke_order_diagram--existing_path"></path><path id="pathSk940yk7k3bx" kvg:type="㇐" d="M58.25,36.64c2.47,0.54,4.88,0.26,7.39-0.1c6.64-0.96,12.86-1.79,22.74-2.79c2.31-0.23,4.6-0.16,6.88,0.26" transform="matrix(1,0,0,1,496,-4)" class="stroke_order_diagram--existing_path"></path><path id="pathSk940yk7k3by" kvg:type="㇄" d="M59,45c0.62,1.5,0.51,3.31,0,5c-0.64,2.13-1.86,8.14-2.64,10.75c-0.98,3.24-0.69,3.82,2.51,3.24c10.39-1.91,28.87-2.97,33.63-3.2c2.93-0.15,5.85,0.09,8.75,0.71" transform="matrix(1,0,0,1,496,-4)" class="stroke_order_diagram--existing_path"></path><path id="kvg:0821b-s6" kvg:type="㇑" d="M78.62,12.25c1,1,1.21,2.5,1.21,3.75c0,0.81,0.02,47.89,0.03,70.63c0,6.01,0,10.32,0,11.62" transform="matrix(1,0,0,1,496,-4)" class="stroke_order_diagram--current_path"></path><path id="pathSk940yk7k3c0" kvg:type="㇑" d="M78.62,12.25c1,1,1.21,2.5,1.21,3.75c0,0.81,0.02,47.89,0.03,70.63c0,6.01,0,10.32,0,11.62" transform="matrix(1,0,0,1,496,-4)" class="stroke_order_diagram--current_path"></path><circle cx="78.62" cy="12.25" r="8" class="stroke_order_diagram--path_start" transform="matrix(1,0,0,1,496,-4)"></circle></svg>