<?xml version="1.0" encoding="UTF-8"?>
<!DOCTYPE svg PUBLIC "-//W3C//DTD SVG 1.0//EN" "http://www.w3.org/TR/2001/REC-SVG-20010904/DTD/svg10.dtd" [
<!ATTLIST g
xmlns:kvg CDATA #FIXED "http://kanjivg.tagaini.net"
kvg:element CDATA #IMPLIED
kvg:variant CDATA #IMPLIED
kvg:partial CDATA #IMPLIED
kvg:original CDATA #IMPLIED
kvg:part CDATA #IMPLIED
kvg:number CDATA #IMPLIED
kvg:tradForm CDATA #IMPLIED
kvg:radicalForm CDATA #IMPLIED
kvg:position CDATA #IMPLIED
kvg:radical CDATA #IMPLIED
kvg:phon CDATA #IMPLIED >
<!ATTLIST path
xmlns:kvg CDATA #FIXED "http://kanjivg.tagaini.net"
kvg:type CDATA #IMPLIED >
]><svg style="width: 600px; height: 100px;" xmlns="http://www.w3.org/2000/svg" xmlns:xlink="http://www.w3.org/1999/xlink" width="600px" height="100px"><style>
.stroke_order_diagram--outer_container {
  width: 100%;
  overflow-x: auto;
  overflow-y: hidden;
}

.stroke_order_diagram--guide_line {
  fill: none;
  stroke: #ddd;
  stroke-width: 3;
  stroke-linecap: square;
  stroke-linejoin: square;
  stroke-dasharray:8, 8;
}

.stroke_order_diagram--bounding_box {
  fill: none;
  stroke: #ddd;
  stroke-width: 4;
  stroke-linecap: square;
  stroke-linejoin: square;
}

.stroke_order_diagram--current_path {
  fill: none;
  stroke: #000;
  stroke-width: 6;
  stroke-linecap: round;
  stroke-linejoin: round;
}

.stroke_order_diagram--existing_path {
  fill: none;
  stroke: #aaa;
  stroke-width: 6;
  stroke-linecap: round;
  stroke-linejoin:round;
}

.stroke_order_diagram--path_start {
  fill: rgba(255, 0, 0, 0.7);
  stroke:none
}</style><desc>Created with Snap</desc><defs></defs><line x1="1" x2="599" y1="1" y2="1" class="stroke_order_diagram--bounding_box"></line><line x1="1" x2="1" y1="1" y2="99" class="stroke_order_diagram--bounding_box"></line><line x1="1" x2="599" y1="99" y2="99" class="stroke_order_diagram--bounding_box"></line><line x1="0" x2="600" y1="50" y2="50" class="stroke_order_diagram--guide_line"></line><line x1="50" x2="50" y1="1" y2="99" class="stroke_order_diagram--guide_line"></line><line x1="99" x2="99" y1="1" y2="99" class="stroke_order_diagram--bounding_box"></line><path id="kvg:0826e-s1" kvg:type="㇕" d="M31.01,16.87c1.49,1.01,3.85,0.87,6.74,0.46c8.19-1.17,21.42-3.12,27.25-3.7c3.15-0.31,6.03,1.05,5.81,4.25C70.28,25.27,68.5,40.25,67.25,47" transform="matrix(1,0,0,1,-4,-4)" class="stroke_order_diagram--current_path"></path><path id="pathSk940yk7k3dv" kvg:type="㇕" d="M31.01,16.87c1.49,1.01,3.85,0.87,6.74,0.46c8.19-1.17,21.42-3.12,27.25-3.7c3.15-0.31,6.03,1.05,5.81,4.25C70.28,25.27,68.5,40.25,67.25,47" transform="matrix(1,0,0,1,-4,-4)" class="stroke_order_diagram--current_path"></path><circle cx="31.01" cy="16.87" r="8" class="stroke_order_diagram--path_start" transform="matrix(1,0,0,1,-4,-4)"></circle><line x1="150" x2="150" y1="1" y2="99" class="stroke_order_diagram--guide_line"></line><line x1="199" x2="199" y1="1" y2="99" class="stroke_order_diagram--bounding_box"></line><path id="pathSk940yk7k3dy" kvg:type="㇕" d="M31.01,16.87c1.49,1.01,3.85,0.87,6.74,0.46c8.19-1.17,21.42-3.12,27.25-3.7c3.15-0.31,6.03,1.05,5.81,4.25C70.28,25.27,68.5,40.25,67.25,47" transform="matrix(1,0,0,1,96,-4)" class="stroke_order_diagram--existing_path"></path><path id="kvg:0826e-s2" kvg:type="㇐a" d="M34.25,32.5c9.5-1.38,27.81-3.48,34.75-4" transform="matrix(1,0,0,1,96,-4)" class="stroke_order_diagram--current_path"></path><path id="pathSk940yk7k3e0" kvg:type="㇐a" d="M34.25,32.5c9.5-1.38,27.81-3.48,34.75-4" transform="matrix(1,0,0,1,96,-4)" class="stroke_order_diagram--current_path"></path><circle cx="34.25" cy="32.5" r="8" class="stroke_order_diagram--path_start" transform="matrix(1,0,0,1,96,-4)"></circle><line x1="250" x2="250" y1="1" y2="99" class="stroke_order_diagram--guide_line"></line><line x1="299" x2="299" y1="1" y2="99" class="stroke_order_diagram--bounding_box"></line><path id="pathSk940yk7k3e3" kvg:type="㇕" d="M31.01,16.87c1.49,1.01,3.85,0.87,6.74,0.46c8.19-1.17,21.42-3.12,27.25-3.7c3.15-0.31,6.03,1.05,5.81,4.25C70.28,25.27,68.5,40.25,67.25,47" transform="matrix(1,0,0,1,196,-4)" class="stroke_order_diagram--existing_path"></path><path id="pathSk940yk7k3e4" kvg:type="㇐a" d="M34.25,32.5c9.5-1.38,27.81-3.48,34.75-4" transform="matrix(1,0,0,1,196,-4)" class="stroke_order_diagram--existing_path"></path><path id="kvg:0826e-s3" kvg:type="㇐a" d="M34.36,47.79C44.25,46.75,56,45.5,66.75,44.5" transform="matrix(1,0,0,1,196,-4)" class="stroke_order_diagram--current_path"></path><path id="pathSk940yk7k3e6" kvg:type="㇐a" d="M34.36,47.79C44.25,46.75,56,45.5,66.75,44.5" transform="matrix(1,0,0,1,196,-4)" class="stroke_order_diagram--current_path"></path><circle cx="34.36" cy="47.79" r="8" class="stroke_order_diagram--path_start" transform="matrix(1,0,0,1,196,-4)"></circle><line x1="350" x2="350" y1="1" y2="99" class="stroke_order_diagram--guide_line"></line><line x1="399" x2="399" y1="1" y2="99" class="stroke_order_diagram--bounding_box"></line><path id="pathSk940yk7k3e9" kvg:type="㇕" d="M31.01,16.87c1.49,1.01,3.85,0.87,6.74,0.46c8.19-1.17,21.42-3.12,27.25-3.7c3.15-0.31,6.03,1.05,5.81,4.25C70.28,25.27,68.5,40.25,67.25,47" transform="matrix(1,0,0,1,296,-4)" class="stroke_order_diagram--existing_path"></path><path id="pathSk940yk7k3ea" kvg:type="㇐a" d="M34.25,32.5c9.5-1.38,27.81-3.48,34.75-4" transform="matrix(1,0,0,1,296,-4)" class="stroke_order_diagram--existing_path"></path><path id="pathSk940yk7k3eb" kvg:type="㇐a" d="M34.36,47.79C44.25,46.75,56,45.5,66.75,44.5" transform="matrix(1,0,0,1,296,-4)" class="stroke_order_diagram--existing_path"></path><path id="kvg:0826e-s4" kvg:type="㇙" d="M32.26,17.87c0.81,0.81,0.94,2.01,0.94,3c0,3.26-0.08,66.92-0.08,71.51c0,4.11,1.22,5.28,4.75,2.25c5.54-4.75,10.88-9,15.32-12.71" transform="matrix(1,0,0,1,296,-4)" class="stroke_order_diagram--current_path"></path><path id="pathSk940yk7k3ed" kvg:type="㇙" d="M32.26,17.87c0.81,0.81,0.94,2.01,0.94,3c0,3.26-0.08,66.92-0.08,71.51c0,4.11,1.22,5.28,4.75,2.25c5.54-4.75,10.88-9,15.32-12.71" transform="matrix(1,0,0,1,296,-4)" class="stroke_order_diagram--current_path"></path><circle cx="32.26" cy="17.87" r="8" class="stroke_order_diagram--path_start" transform="matrix(1,0,0,1,296,-4)"></circle><line x1="450" x2="450" y1="1" y2="99" class="stroke_order_diagram--guide_line"></line><line x1="499" x2="499" y1="1" y2="99" class="stroke_order_diagram--bounding_box"></line><path id="pathSk940yk7k3eg" kvg:type="㇕" d="M31.01,16.87c1.49,1.01,3.85,0.87,6.74,0.46c8.19-1.17,21.42-3.12,27.25-3.7c3.15-0.31,6.03,1.05,5.81,4.25C70.28,25.27,68.5,40.25,67.25,47" transform="matrix(1,0,0,1,396,-4)" class="stroke_order_diagram--existing_path"></path><path id="pathSk940yk7k3eh" kvg:type="㇐a" d="M34.25,32.5c9.5-1.38,27.81-3.48,34.75-4" transform="matrix(1,0,0,1,396,-4)" class="stroke_order_diagram--existing_path"></path><path id="pathSk940yk7k3ei" kvg:type="㇐a" d="M34.36,47.79C44.25,46.75,56,45.5,66.75,44.5" transform="matrix(1,0,0,1,396,-4)" class="stroke_order_diagram--existing_path"></path><path id="pathSk940yk7k3ej" kvg:type="㇙" d="M32.26,17.87c0.81,0.81,0.94,2.01,0.94,3c0,3.26-0.08,66.92-0.08,71.51c0,4.11,1.22,5.28,4.75,2.25c5.54-4.75,10.88-9,15.32-12.71" transform="matrix(1,0,0,1,396,-4)" class="stroke_order_diagram--existing_path"></path><path id="kvg:0826e-s5" kvg:type="㇒" d="M75.26,50.92c-0.01,1.08-0.41,2.18-1.1,2.84c-4.79,4.61-7.04,7.11-10.67,10.11" transform="matrix(1,0,0,1,396,-4)" class="stroke_order_diagram--current_path"></path><path id="pathSk940yk7k3el" kvg:type="㇒" d="M75.26,50.92c-0.01,1.08-0.41,2.18-1.1,2.84c-4.79,4.61-7.04,7.11-10.67,10.11" transform="matrix(1,0,0,1,396,-4)" class="stroke_order_diagram--current_path"></path><circle cx="75.26" cy="50.92" r="8" class="stroke_order_diagram--path_start" transform="matrix(1,0,0,1,396,-4)"></circle><line x1="550" x2="550" y1="1" y2="99" class="stroke_order_diagram--guide_line"></line><line x1="599" x2="599" y1="1" y2="99" class="stroke_order_diagram--bounding_box"></line><path id="pathSk940yk7k3eo" kvg:type="㇕" d="M31.01,16.87c1.49,1.01,3.85,0.87,6.74,0.46c8.19-1.17,21.42-3.12,27.25-3.7c3.15-0.31,6.03,1.05,5.81,4.25C70.28,25.27,68.5,40.25,67.25,47" transform="matrix(1,0,0,1,496,-4)" class="stroke_order_diagram--existing_path"></path><path id="pathSk940yk7k3ep" kvg:type="㇐a" d="M34.25,32.5c9.5-1.38,27.81-3.48,34.75-4" transform="matrix(1,0,0,1,496,-4)" class="stroke_order_diagram--existing_path"></path><path id="pathSk940yk7k3eq" kvg:type="㇐a" d="M34.36,47.79C44.25,46.75,56,45.5,66.75,44.5" transform="matrix(1,0,0,1,496,-4)" class="stroke_order_diagram--existing_path"></path><path id="pathSk940yk7k3er" kvg:type="㇙" d="M32.26,17.87c0.81,0.81,0.94,2.01,0.94,3c0,3.26-0.08,66.92-0.08,71.51c0,4.11,1.22,5.28,4.75,2.25c5.54-4.75,10.88-9,15.32-12.71" transform="matrix(1,0,0,1,496,-4)" class="stroke_order_diagram--existing_path"></path><path id="pathSk940yk7k3es" kvg:type="㇒" d="M75.26,50.92c-0.01,1.08-0.41,2.18-1.1,2.84c-4.79,4.61-7.04,7.11-10.67,10.11" transform="matrix(1,0,0,1,496,-4)" class="stroke_order_diagram--existing_path"></path><path id="kvg:0826e-s6" kvg:type="㇏" d="M42.35,53.57c4.62,0,23.79,18.52,34.32,27.52c3.64,3.12,8.83,6.91,13.89,8.46" transform="matrix(1,0,0,1,496,-4)" class="stroke_order_diagram--current_path"></path><path id="pathSk940yk7k3eu" kvg:type="㇏" d="M42.35,53.57c4.62,0,23.79,18.52,34.32,27.52c3.64,3.12,8.83,6.91,13.89,8.46" transform="matrix(1,0,0,1,496,-4)" class="stroke_order_diagram--current_path"></path><circle cx="42.35" cy="53.57" r="8" class="stroke_order_diagram--path_start" transform="matrix(1,0,0,1,496,-4)"></circle></svg>