<?xml version="1.0" encoding="UTF-8"?>
<!DOCTYPE svg PUBLIC "-//W3C//DTD SVG 1.0//EN" "http://www.w3.org/TR/2001/REC-SVG-20010904/DTD/svg10.dtd" [
<!ATTLIST g
xmlns:kvg CDATA #FIXED "http://kanjivg.tagaini.net"
kvg:element CDATA #IMPLIED
kvg:variant CDATA #IMPLIED
kvg:partial CDATA #IMPLIED
kvg:original CDATA #IMPLIED
kvg:part CDATA #IMPLIED
kvg:number CDATA #IMPLIED
kvg:tradForm CDATA #IMPLIED
kvg:radicalForm CDATA #IMPLIED
kvg:position CDATA #IMPLIED
kvg:radical CDATA #IMPLIED
kvg:phon CDATA #IMPLIED >
<!ATTLIST path
xmlns:kvg CDATA #FIXED "http://kanjivg.tagaini.net"
kvg:type CDATA #IMPLIED >
]><svg style="width: 600px; height: 100px;" xmlns="http://www.w3.org/2000/svg" xmlns:xlink="http://www.w3.org/1999/xlink"><style>
.stroke_order_diagram--outer_container {
  width: 100%;
  overflow-x: auto;
  overflow-y: hidden;
}

.stroke_order_diagram--guide_line {
  fill: none;
  stroke: #ddd;
  stroke-width: 3;
  stroke-linecap: square;
  stroke-linejoin: square;
  stroke-dasharray:8, 8;
}

.stroke_order_diagram--bounding_box {
  fill: none;
  stroke: #ddd;
  stroke-width: 4;
  stroke-linecap: square;
  stroke-linejoin: square;
}

.stroke_order_diagram--current_path {
  fill: none;
  stroke: #000;
  stroke-width: 6;
  stroke-linecap: round;
  stroke-linejoin: round;
}

.stroke_order_diagram--existing_path {
  fill: none;
  stroke: #aaa;
  stroke-width: 6;
  stroke-linecap: round;
  stroke-linejoin:round;
}

.stroke_order_diagram--path_start {
  fill: rgba(255, 0, 0, 0.7);
  stroke:none
}</style><desc>Created with Snap</desc><defs></defs><line x1="1" x2="599" y1="1" y2="1" class="stroke_order_diagram--bounding_box"></line><line x1="1" x2="1" y1="1" y2="99" class="stroke_order_diagram--bounding_box"></line><line x1="1" x2="599" y1="99" y2="99" class="stroke_order_diagram--bounding_box"></line><line x1="0" x2="600" y1="50" y2="50" class="stroke_order_diagram--guide_line"></line><line x1="50" x2="50" y1="1" y2="99" class="stroke_order_diagram--guide_line"></line><line x1="99" x2="99" y1="1" y2="99" class="stroke_order_diagram--bounding_box"></line><path id="kvg:08278-s1" kvg:type="㇗a" d="M16.85,35.91c0.9,0.46,2.3,1.71,2.3,4.41c0,3.13-0.15,17.8-0.65,23.3c-0.26,2.84-0.98,4.69,3.31,4.16c8.44-1.03,14.44-2.16,25.7-3.42" transform="matrix(1,0,0,1,-4,-4)" class="stroke_order_diagram--current_path"></path><path id="pathSk93xdzq03gp" kvg:type="㇗a" d="M16.85,35.91c0.9,0.46,2.3,1.71,2.3,4.41c0,3.13-0.15,17.8-0.65,23.3c-0.26,2.84-0.98,4.69,3.31,4.16c8.44-1.03,14.44-2.16,25.7-3.42" transform="matrix(1,0,0,1,-4,-4)" class="stroke_order_diagram--current_path"></path><circle cx="16.85" cy="35.91" r="8" class="stroke_order_diagram--path_start" transform="matrix(1,0,0,1,-4,-4)"></circle><line x1="150" x2="150" y1="1" y2="99" class="stroke_order_diagram--guide_line"></line><line x1="199" x2="199" y1="1" y2="99" class="stroke_order_diagram--bounding_box"></line><path id="pathSk93xdzq03gs" kvg:type="㇗a" d="M16.85,35.91c0.9,0.46,2.3,1.71,2.3,4.41c0,3.13-0.15,17.8-0.65,23.3c-0.26,2.84-0.98,4.69,3.31,4.16c8.44-1.03,14.44-2.16,25.7-3.42" transform="matrix(1,0,0,1,96,-4)" class="stroke_order_diagram--existing_path"></path><path id="kvg:08278-s2" kvg:type="㇑" d="M46.73,34.5c0.77,0.62,1.8,2.25,1.8,3.91c0,5.98-0.29,18.71-1.23,29.08" transform="matrix(1,0,0,1,96,-4)" class="stroke_order_diagram--current_path"></path><path id="pathSk93xdzq03gu" kvg:type="㇑" d="M46.73,34.5c0.77,0.62,1.8,2.25,1.8,3.91c0,5.98-0.29,18.71-1.23,29.08" transform="matrix(1,0,0,1,96,-4)" class="stroke_order_diagram--current_path"></path><circle cx="46.73" cy="34.5" r="8" class="stroke_order_diagram--path_start" transform="matrix(1,0,0,1,96,-4)"></circle><line x1="250" x2="250" y1="1" y2="99" class="stroke_order_diagram--guide_line"></line><line x1="299" x2="299" y1="1" y2="99" class="stroke_order_diagram--bounding_box"></line><path id="pathSk93xdzq03gx" kvg:type="㇗a" d="M16.85,35.91c0.9,0.46,2.3,1.71,2.3,4.41c0,3.13-0.15,17.8-0.65,23.3c-0.26,2.84-0.98,4.69,3.31,4.16c8.44-1.03,14.44-2.16,25.7-3.42" transform="matrix(1,0,0,1,196,-4)" class="stroke_order_diagram--existing_path"></path><path id="pathSk93xdzq03gy" kvg:type="㇑" d="M46.73,34.5c0.77,0.62,1.8,2.25,1.8,3.91c0,5.98-0.29,18.71-1.23,29.08" transform="matrix(1,0,0,1,196,-4)" class="stroke_order_diagram--existing_path"></path><path id="kvg:08278-s3" kvg:type="㇒" d="M33.22,14.87c0.71,0.87,1.36,2.61,1.36,4.02c0,12.12,0.03,16.43-0.11,27.74C34.23,66.82,30,85.24,17.81,94.34" transform="matrix(1,0,0,1,196,-4)" class="stroke_order_diagram--current_path"></path><path id="pathSk93xdzq03h0" kvg:type="㇒" d="M33.22,14.87c0.71,0.87,1.36,2.61,1.36,4.02c0,12.12,0.03,16.43-0.11,27.74C34.23,66.82,30,85.24,17.81,94.34" transform="matrix(1,0,0,1,196,-4)" class="stroke_order_diagram--current_path"></path><circle cx="33.22" cy="14.87" r="8" class="stroke_order_diagram--path_start" transform="matrix(1,0,0,1,196,-4)"></circle><line x1="350" x2="350" y1="1" y2="99" class="stroke_order_diagram--guide_line"></line><line x1="399" x2="399" y1="1" y2="99" class="stroke_order_diagram--bounding_box"></line><path id="pathSk93xdzq03h3" kvg:type="㇗a" d="M16.85,35.91c0.9,0.46,2.3,1.71,2.3,4.41c0,3.13-0.15,17.8-0.65,23.3c-0.26,2.84-0.98,4.69,3.31,4.16c8.44-1.03,14.44-2.16,25.7-3.42" transform="matrix(1,0,0,1,296,-4)" class="stroke_order_diagram--existing_path"></path><path id="pathSk93xdzq03h4" kvg:type="㇑" d="M46.73,34.5c0.77,0.62,1.8,2.25,1.8,3.91c0,5.98-0.29,18.71-1.23,29.08" transform="matrix(1,0,0,1,296,-4)" class="stroke_order_diagram--existing_path"></path><path id="pathSk93xdzq03h5" kvg:type="㇒" d="M33.22,14.87c0.71,0.87,1.36,2.61,1.36,4.02c0,12.12,0.03,16.43-0.11,27.74C34.23,66.82,30,85.24,17.81,94.34" transform="matrix(1,0,0,1,296,-4)" class="stroke_order_diagram--existing_path"></path><path id="kvg:08278-s4" kvg:type="㇗a" d="M58.35,34.16c0.9,0.46,2.3,1.71,2.3,4.41c0,3.13-0.15,17.8-0.65,23.3c-0.26,2.84-0.98,4.69,3.31,4.16c8.44-1.03,17.94-2.16,29.2-3.42" transform="matrix(1,0,0,1,296,-4)" class="stroke_order_diagram--current_path"></path><path id="pathSk93xdzq03h7" kvg:type="㇗a" d="M58.35,34.16c0.9,0.46,2.3,1.71,2.3,4.41c0,3.13-0.15,17.8-0.65,23.3c-0.26,2.84-0.98,4.69,3.31,4.16c8.44-1.03,17.94-2.16,29.2-3.42" transform="matrix(1,0,0,1,296,-4)" class="stroke_order_diagram--current_path"></path><circle cx="58.35" cy="34.16" r="8" class="stroke_order_diagram--path_start" transform="matrix(1,0,0,1,296,-4)"></circle><line x1="450" x2="450" y1="1" y2="99" class="stroke_order_diagram--guide_line"></line><line x1="499" x2="499" y1="1" y2="99" class="stroke_order_diagram--bounding_box"></line><path id="pathSk93xdzq03ha" kvg:type="㇗a" d="M16.85,35.91c0.9,0.46,2.3,1.71,2.3,4.41c0,3.13-0.15,17.8-0.65,23.3c-0.26,2.84-0.98,4.69,3.31,4.16c8.44-1.03,14.44-2.16,25.7-3.42" transform="matrix(1,0,0,1,396,-4)" class="stroke_order_diagram--existing_path"></path><path id="pathSk93xdzq03hb" kvg:type="㇑" d="M46.73,34.5c0.77,0.62,1.8,2.25,1.8,3.91c0,5.98-0.29,18.71-1.23,29.08" transform="matrix(1,0,0,1,396,-4)" class="stroke_order_diagram--existing_path"></path><path id="pathSk93xdzq03hc" kvg:type="㇒" d="M33.22,14.87c0.71,0.87,1.36,2.61,1.36,4.02c0,12.12,0.03,16.43-0.11,27.74C34.23,66.82,30,85.24,17.81,94.34" transform="matrix(1,0,0,1,396,-4)" class="stroke_order_diagram--existing_path"></path><path id="pathSk93xdzq03hd" kvg:type="㇗a" d="M58.35,34.16c0.9,0.46,2.3,1.71,2.3,4.41c0,3.13-0.15,17.8-0.65,23.3c-0.26,2.84-0.98,4.69,3.31,4.16c8.44-1.03,17.94-2.16,29.2-3.42" transform="matrix(1,0,0,1,396,-4)" class="stroke_order_diagram--existing_path"></path><path id="kvg:08278-s5" kvg:type="㇑" d="M91.23,31.75c0.77,0.62,1.8,2.62,1.8,3.91c0,6.59,0.21,20.21-0.73,30.58" transform="matrix(1,0,0,1,396,-4)" class="stroke_order_diagram--current_path"></path><path id="pathSk93xdzq03hf" kvg:type="㇑" d="M91.23,31.75c0.77,0.62,1.8,2.62,1.8,3.91c0,6.59,0.21,20.21-0.73,30.58" transform="matrix(1,0,0,1,396,-4)" class="stroke_order_diagram--current_path"></path><circle cx="91.23" cy="31.75" r="8" class="stroke_order_diagram--path_start" transform="matrix(1,0,0,1,396,-4)"></circle><line x1="550" x2="550" y1="1" y2="99" class="stroke_order_diagram--guide_line"></line><line x1="599" x2="599" y1="1" y2="99" class="stroke_order_diagram--bounding_box"></line><path id="pathSk93xdzq03hi" kvg:type="㇗a" d="M16.85,35.91c0.9,0.46,2.3,1.71,2.3,4.41c0,3.13-0.15,17.8-0.65,23.3c-0.26,2.84-0.98,4.69,3.31,4.16c8.44-1.03,14.44-2.16,25.7-3.42" transform="matrix(1,0,0,1,496,-4)" class="stroke_order_diagram--existing_path"></path><path id="pathSk93xdzq03hj" kvg:type="㇑" d="M46.73,34.5c0.77,0.62,1.8,2.25,1.8,3.91c0,5.98-0.29,18.71-1.23,29.08" transform="matrix(1,0,0,1,496,-4)" class="stroke_order_diagram--existing_path"></path><path id="pathSk93xdzq03hk" kvg:type="㇒" d="M33.22,14.87c0.71,0.87,1.36,2.61,1.36,4.02c0,12.12,0.03,16.43-0.11,27.74C34.23,66.82,30,85.24,17.81,94.34" transform="matrix(1,0,0,1,496,-4)" class="stroke_order_diagram--existing_path"></path><path id="pathSk93xdzq03hl" kvg:type="㇗a" d="M58.35,34.16c0.9,0.46,2.3,1.71,2.3,4.41c0,3.13-0.15,17.8-0.65,23.3c-0.26,2.84-0.98,4.69,3.31,4.16c8.44-1.03,17.94-2.16,29.2-3.42" transform="matrix(1,0,0,1,496,-4)" class="stroke_order_diagram--existing_path"></path><path id="pathSk93xdzq03hm" kvg:type="㇑" d="M91.23,31.75c0.77,0.62,1.8,2.62,1.8,3.91c0,6.59,0.21,20.21-0.73,30.58" transform="matrix(1,0,0,1,496,-4)" class="stroke_order_diagram--existing_path"></path><path id="kvg:08278-s6" kvg:type="㇑" d="M73.54,13.62c0.89,0.87,1.7,2.61,1.7,4.02c0,12.12,0.04,68.44-0.13,79.74" transform="matrix(1,0,0,1,496,-4)" class="stroke_order_diagram--current_path"></path><path id="pathSk93xdzq03ho" kvg:type="㇑" d="M73.54,13.62c0.89,0.87,1.7,2.61,1.7,4.02c0,12.12,0.04,68.44-0.13,79.74" transform="matrix(1,0,0,1,496,-4)" class="stroke_order_diagram--current_path"></path><circle cx="73.54" cy="13.62" r="8" class="stroke_order_diagram--path_start" transform="matrix(1,0,0,1,496,-4)"></circle></svg>