<?xml version="1.0" encoding="UTF-8"?>
<!DOCTYPE svg PUBLIC "-//W3C//DTD SVG 1.0//EN" "http://www.w3.org/TR/2001/REC-SVG-20010904/DTD/svg10.dtd" [
<!ATTLIST g
xmlns:kvg CDATA #FIXED "http://kanjivg.tagaini.net"
kvg:element CDATA #IMPLIED
kvg:variant CDATA #IMPLIED
kvg:partial CDATA #IMPLIED
kvg:original CDATA #IMPLIED
kvg:part CDATA #IMPLIED
kvg:number CDATA #IMPLIED
kvg:tradForm CDATA #IMPLIED
kvg:radicalForm CDATA #IMPLIED
kvg:position CDATA #IMPLIED
kvg:radical CDATA #IMPLIED
kvg:phon CDATA #IMPLIED >
<!ATTLIST path
xmlns:kvg CDATA #FIXED "http://kanjivg.tagaini.net"
kvg:type CDATA #IMPLIED >
]><svg style="width: 600px; height: 100px;" xmlns="http://www.w3.org/2000/svg" xmlns:xlink="http://www.w3.org/1999/xlink"><style>
.stroke_order_diagram--outer_container {
  width: 100%;
  overflow-x: auto;
  overflow-y: hidden;
}

.stroke_order_diagram--guide_line {
  fill: none;
  stroke: #ddd;
  stroke-width: 3;
  stroke-linecap: square;
  stroke-linejoin: square;
  stroke-dasharray:8, 8;
}

.stroke_order_diagram--bounding_box {
  fill: none;
  stroke: #ddd;
  stroke-width: 4;
  stroke-linecap: square;
  stroke-linejoin: square;
}

.stroke_order_diagram--current_path {
  fill: none;
  stroke: #000;
  stroke-width: 6;
  stroke-linecap: round;
  stroke-linejoin: round;
}

.stroke_order_diagram--existing_path {
  fill: none;
  stroke: #aaa;
  stroke-width: 6;
  stroke-linecap: round;
  stroke-linejoin:round;
}

.stroke_order_diagram--path_start {
  fill: rgba(255, 0, 0, 0.7);
  stroke:none
}</style><desc>Created with Snap</desc><defs></defs><line x1="1" x2="599" y1="1" y2="1" class="stroke_order_diagram--bounding_box"></line><line x1="1" x2="1" y1="1" y2="99" class="stroke_order_diagram--bounding_box"></line><line x1="1" x2="599" y1="99" y2="99" class="stroke_order_diagram--bounding_box"></line><line x1="0" x2="600" y1="50" y2="50" class="stroke_order_diagram--guide_line"></line><line x1="50" x2="50" y1="1" y2="99" class="stroke_order_diagram--guide_line"></line><line x1="99" x2="99" y1="1" y2="99" class="stroke_order_diagram--bounding_box"></line><path id="kvg:0864d-s1" kvg:type="㇑a" d="M53.02,11.08C54,12,54.77,13.07,54.77,16.1c0,5.9-0.02,13.19-0.02,18.15" transform="matrix(1,0,0,1,-4,-4)" class="stroke_order_diagram--current_path"></path><path id="pathSk93xdzq03i4" kvg:type="㇑a" d="M53.02,11.08C54,12,54.77,13.07,54.77,16.1c0,5.9-0.02,13.19-0.02,18.15" transform="matrix(1,0,0,1,-4,-4)" class="stroke_order_diagram--current_path"></path><circle cx="53.02" cy="11.08" r="8" class="stroke_order_diagram--path_start" transform="matrix(1,0,0,1,-4,-4)"></circle><line x1="150" x2="150" y1="1" y2="99" class="stroke_order_diagram--guide_line"></line><line x1="199" x2="199" y1="1" y2="99" class="stroke_order_diagram--bounding_box"></line><path id="pathSk93xdzq03i7" kvg:type="㇑a" d="M53.02,11.08C54,12,54.77,13.07,54.77,16.1c0,5.9-0.02,13.19-0.02,18.15" transform="matrix(1,0,0,1,96,-4)" class="stroke_order_diagram--existing_path"></path><path id="kvg:0864d-s2" kvg:type="㇐b" d="M56.35,22.77C63,22,70,20.75,75.46,20.39c1.56-0.1,2.5,0.18,3.29,0.37" transform="matrix(1,0,0,1,96,-4)" class="stroke_order_diagram--current_path"></path><path id="pathSk93xdzq03i9" kvg:type="㇐b" d="M56.35,22.77C63,22,70,20.75,75.46,20.39c1.56-0.1,2.5,0.18,3.29,0.37" transform="matrix(1,0,0,1,96,-4)" class="stroke_order_diagram--current_path"></path><circle cx="56.35" cy="22.77" r="8" class="stroke_order_diagram--path_start" transform="matrix(1,0,0,1,96,-4)"></circle><line x1="250" x2="250" y1="1" y2="99" class="stroke_order_diagram--guide_line"></line><line x1="299" x2="299" y1="1" y2="99" class="stroke_order_diagram--bounding_box"></line><path id="pathSk93xdzq03ic" kvg:type="㇑a" d="M53.02,11.08C54,12,54.77,13.07,54.77,16.1c0,5.9-0.02,13.19-0.02,18.15" transform="matrix(1,0,0,1,196,-4)" class="stroke_order_diagram--existing_path"></path><path id="pathSk93xdzq03id" kvg:type="㇐b" d="M56.35,22.77C63,22,70,20.75,75.46,20.39c1.56-0.1,2.5,0.18,3.29,0.37" transform="matrix(1,0,0,1,196,-4)" class="stroke_order_diagram--existing_path"></path><path id="kvg:0864d-s3" kvg:type="㇒" d="M29.2,35.18c0.8,0.57,0.99,2.73,0.88,4.82C29,62,25.25,83.75,9.64,98.65" transform="matrix(1,0,0,1,196,-4)" class="stroke_order_diagram--current_path"></path><path id="pathSk93xdzq03if" kvg:type="㇒" d="M29.2,35.18c0.8,0.57,0.99,2.73,0.88,4.82C29,62,25.25,83.75,9.64,98.65" transform="matrix(1,0,0,1,196,-4)" class="stroke_order_diagram--current_path"></path><circle cx="29.2" cy="35.18" r="8" class="stroke_order_diagram--path_start" transform="matrix(1,0,0,1,196,-4)"></circle><line x1="350" x2="350" y1="1" y2="99" class="stroke_order_diagram--guide_line"></line><line x1="399" x2="399" y1="1" y2="99" class="stroke_order_diagram--bounding_box"></line><path id="pathSk93xdzq03ii" kvg:type="㇑a" d="M53.02,11.08C54,12,54.77,13.07,54.77,16.1c0,5.9-0.02,13.19-0.02,18.15" transform="matrix(1,0,0,1,296,-4)" class="stroke_order_diagram--existing_path"></path><path id="pathSk93xdzq03ij" kvg:type="㇐b" d="M56.35,22.77C63,22,70,20.75,75.46,20.39c1.56-0.1,2.5,0.18,3.29,0.37" transform="matrix(1,0,0,1,296,-4)" class="stroke_order_diagram--existing_path"></path><path id="pathSk93xdzq03ik" kvg:type="㇒" d="M29.2,35.18c0.8,0.57,0.99,2.73,0.88,4.82C29,62,25.25,83.75,9.64,98.65" transform="matrix(1,0,0,1,296,-4)" class="stroke_order_diagram--existing_path"></path><path id="kvg:0864d-s4" kvg:type="㇖a" d="M30.24,37.24c1.16,0.19,2.75-0.06,4.64-0.22c15.62-1.27,36.87-4.27,44.31-4.18c12.07,0.14,2.55,7.16-0.45,9.28" transform="matrix(1,0,0,1,296,-4)" class="stroke_order_diagram--current_path"></path><path id="pathSk93xdzq03im" kvg:type="㇖a" d="M30.24,37.24c1.16,0.19,2.75-0.06,4.64-0.22c15.62-1.27,36.87-4.27,44.31-4.18c12.07,0.14,2.55,7.16-0.45,9.28" transform="matrix(1,0,0,1,296,-4)" class="stroke_order_diagram--current_path"></path><circle cx="30.24" cy="37.24" r="8" class="stroke_order_diagram--path_start" transform="matrix(1,0,0,1,296,-4)"></circle><line x1="450" x2="450" y1="1" y2="99" class="stroke_order_diagram--guide_line"></line><line x1="499" x2="499" y1="1" y2="99" class="stroke_order_diagram--bounding_box"></line><path id="pathSk93xdzq03ip" kvg:type="㇑a" d="M53.02,11.08C54,12,54.77,13.07,54.77,16.1c0,5.9-0.02,13.19-0.02,18.15" transform="matrix(1,0,0,1,396,-4)" class="stroke_order_diagram--existing_path"></path><path id="pathSk93xdzq03iq" kvg:type="㇐b" d="M56.35,22.77C63,22,70,20.75,75.46,20.39c1.56-0.1,2.5,0.18,3.29,0.37" transform="matrix(1,0,0,1,396,-4)" class="stroke_order_diagram--existing_path"></path><path id="pathSk93xdzq03ir" kvg:type="㇒" d="M29.2,35.18c0.8,0.57,0.99,2.73,0.88,4.82C29,62,25.25,83.75,9.64,98.65" transform="matrix(1,0,0,1,396,-4)" class="stroke_order_diagram--existing_path"></path><path id="pathSk93xdzq03is" kvg:type="㇖a" d="M30.24,37.24c1.16,0.19,2.75-0.06,4.64-0.22c15.62-1.27,36.87-4.27,44.31-4.18c12.07,0.14,2.55,7.16-0.45,9.28" transform="matrix(1,0,0,1,396,-4)" class="stroke_order_diagram--existing_path"></path><path id="kvg:0864d-s5" kvg:type="㇐" d="M30.5,69.13c1.26,0.42,3.58,0.61,4.82,0.42c12.37-1.89,34.93-5.8,48.53-6.83c2.09-0.16,3.35,0.2,4.4,0.41" transform="matrix(1,0,0,1,396,-4)" class="stroke_order_diagram--current_path"></path><path id="pathSk93xdzq03iu" kvg:type="㇐" d="M30.5,69.13c1.26,0.42,3.58,0.61,4.82,0.42c12.37-1.89,34.93-5.8,48.53-6.83c2.09-0.16,3.35,0.2,4.4,0.41" transform="matrix(1,0,0,1,396,-4)" class="stroke_order_diagram--current_path"></path><circle cx="30.5" cy="69.13" r="8" class="stroke_order_diagram--path_start" transform="matrix(1,0,0,1,396,-4)"></circle><line x1="550" x2="550" y1="1" y2="99" class="stroke_order_diagram--guide_line"></line><line x1="599" x2="599" y1="1" y2="99" class="stroke_order_diagram--bounding_box"></line><path id="pathSk93xdzq03ix" kvg:type="㇑a" d="M53.02,11.08C54,12,54.77,13.07,54.77,16.1c0,5.9-0.02,13.19-0.02,18.15" transform="matrix(1,0,0,1,496,-4)" class="stroke_order_diagram--existing_path"></path><path id="pathSk93xdzq03iy" kvg:type="㇐b" d="M56.35,22.77C63,22,70,20.75,75.46,20.39c1.56-0.1,2.5,0.18,3.29,0.37" transform="matrix(1,0,0,1,496,-4)" class="stroke_order_diagram--existing_path"></path><path id="pathSk93xdzq03iz" kvg:type="㇒" d="M29.2,35.18c0.8,0.57,0.99,2.73,0.88,4.82C29,62,25.25,83.75,9.64,98.65" transform="matrix(1,0,0,1,496,-4)" class="stroke_order_diagram--existing_path"></path><path id="pathSk93xdzq03j0" kvg:type="㇖a" d="M30.24,37.24c1.16,0.19,2.75-0.06,4.64-0.22c15.62-1.27,36.87-4.27,44.31-4.18c12.07,0.14,2.55,7.16-0.45,9.28" transform="matrix(1,0,0,1,496,-4)" class="stroke_order_diagram--existing_path"></path><path id="pathSk93xdzq03j1" kvg:type="㇐" d="M30.5,69.13c1.26,0.42,3.58,0.61,4.82,0.42c12.37-1.89,34.93-5.8,48.53-6.83c2.09-0.16,3.35,0.2,4.4,0.41" transform="matrix(1,0,0,1,496,-4)" class="stroke_order_diagram--existing_path"></path><path id="kvg:0864d-s6" kvg:type="㇟a" d="M52.75,45.18c0.81,1,1.63,1.67,1.9,3.01c0.27,1.34-0.15,27.31-0.15,32.31c0,14.25-0.75,16.25,15.5,16c4.36-0.07,13.75,0,17.5-2" transform="matrix(1,0,0,1,496,-4)" class="stroke_order_diagram--current_path"></path><path id="pathSk93xdzq03j3" kvg:type="㇟a" d="M52.75,45.18c0.81,1,1.63,1.67,1.9,3.01c0.27,1.34-0.15,27.31-0.15,32.31c0,14.25-0.75,16.25,15.5,16c4.36-0.07,13.75,0,17.5-2" transform="matrix(1,0,0,1,496,-4)" class="stroke_order_diagram--current_path"></path><circle cx="52.75" cy="45.18" r="8" class="stroke_order_diagram--path_start" transform="matrix(1,0,0,1,496,-4)"></circle></svg>