<?xml version="1.0" encoding="UTF-8"?>
<!DOCTYPE svg PUBLIC "-//W3C//DTD SVG 1.0//EN" "http://www.w3.org/TR/2001/REC-SVG-20010904/DTD/svg10.dtd" [
<!ATTLIST g
xmlns:kvg CDATA #FIXED "http://kanjivg.tagaini.net"
kvg:element CDATA #IMPLIED
kvg:variant CDATA #IMPLIED
kvg:partial CDATA #IMPLIED
kvg:original CDATA #IMPLIED
kvg:part CDATA #IMPLIED
kvg:number CDATA #IMPLIED
kvg:tradForm CDATA #IMPLIED
kvg:radicalForm CDATA #IMPLIED
kvg:position CDATA #IMPLIED
kvg:radical CDATA #IMPLIED
kvg:phon CDATA #IMPLIED >
<!ATTLIST path
xmlns:kvg CDATA #FIXED "http://kanjivg.tagaini.net"
kvg:type CDATA #IMPLIED >
]><svg style="width: 600px; height: 100px;" xmlns="http://www.w3.org/2000/svg" xmlns:xlink="http://www.w3.org/1999/xlink"><style>
.stroke_order_diagram--outer_container {
  width: 100%;
  overflow-x: auto;
  overflow-y: hidden;
}

.stroke_order_diagram--guide_line {
  fill: none;
  stroke: #ddd;
  stroke-width: 3;
  stroke-linecap: square;
  stroke-linejoin: square;
  stroke-dasharray:8, 8;
}

.stroke_order_diagram--bounding_box {
  fill: none;
  stroke: #ddd;
  stroke-width: 4;
  stroke-linecap: square;
  stroke-linejoin: square;
}

.stroke_order_diagram--current_path {
  fill: none;
  stroke: #000;
  stroke-width: 6;
  stroke-linecap: round;
  stroke-linejoin: round;
}

.stroke_order_diagram--existing_path {
  fill: none;
  stroke: #aaa;
  stroke-width: 6;
  stroke-linecap: round;
  stroke-linejoin:round;
}

.stroke_order_diagram--path_start {
  fill: rgba(255, 0, 0, 0.7);
  stroke:none
}</style><desc>Created with Snap</desc><defs></defs><line x1="1" x2="599" y1="1" y2="1" class="stroke_order_diagram--bounding_box"></line><line x1="1" x2="1" y1="1" y2="99" class="stroke_order_diagram--bounding_box"></line><line x1="1" x2="599" y1="99" y2="99" class="stroke_order_diagram--bounding_box"></line><line x1="0" x2="600" y1="50" y2="50" class="stroke_order_diagram--guide_line"></line><line x1="50" x2="50" y1="1" y2="99" class="stroke_order_diagram--guide_line"></line><line x1="99" x2="99" y1="1" y2="99" class="stroke_order_diagram--bounding_box"></line><path id="kvg:0866b-s1" kvg:type="㇑" d="M23.64,36.26c0.8,0.8,1.49,1.74,1.7,2.54c1.23,4.63,2.06,10.62,3.38,18.66c0.25,1.52,0.51,3.11,0.78,4.78" transform="matrix(1,0,0,1,-4,-4)" class="stroke_order_diagram--current_path"></path><path id="pathSk93xdzq03jj" kvg:type="㇑" d="M23.64,36.26c0.8,0.8,1.49,1.74,1.7,2.54c1.23,4.63,2.06,10.62,3.38,18.66c0.25,1.52,0.51,3.11,0.78,4.78" transform="matrix(1,0,0,1,-4,-4)" class="stroke_order_diagram--current_path"></path><circle cx="23.64" cy="36.26" r="8" class="stroke_order_diagram--path_start" transform="matrix(1,0,0,1,-4,-4)"></circle><line x1="150" x2="150" y1="1" y2="99" class="stroke_order_diagram--guide_line"></line><line x1="199" x2="199" y1="1" y2="99" class="stroke_order_diagram--bounding_box"></line><path id="pathSk93xdzq03jm" kvg:type="㇑" d="M23.64,36.26c0.8,0.8,1.49,1.74,1.7,2.54c1.23,4.63,2.06,10.62,3.38,18.66c0.25,1.52,0.51,3.11,0.78,4.78" transform="matrix(1,0,0,1,96,-4)" class="stroke_order_diagram--existing_path"></path><path id="kvg:0866b-s2" kvg:type="㇕b" d="M25.76,38.04c14.91-1.35,45.03-4.16,53.74-4.54c3.84-0.17,4.01,1.78,3.63,4.25c-0.68,4.46-2.51,12.12-4.07,17.32" transform="matrix(1,0,0,1,96,-4)" class="stroke_order_diagram--current_path"></path><path id="pathSk93xdzq03jo" kvg:type="㇕b" d="M25.76,38.04c14.91-1.35,45.03-4.16,53.74-4.54c3.84-0.17,4.01,1.78,3.63,4.25c-0.68,4.46-2.51,12.12-4.07,17.32" transform="matrix(1,0,0,1,96,-4)" class="stroke_order_diagram--current_path"></path><circle cx="25.76" cy="38.04" r="8" class="stroke_order_diagram--path_start" transform="matrix(1,0,0,1,96,-4)"></circle><line x1="250" x2="250" y1="1" y2="99" class="stroke_order_diagram--guide_line"></line><line x1="299" x2="299" y1="1" y2="99" class="stroke_order_diagram--bounding_box"></line><path id="pathSk93xdzq03jr" kvg:type="㇑" d="M23.64,36.26c0.8,0.8,1.49,1.74,1.7,2.54c1.23,4.63,2.06,10.62,3.38,18.66c0.25,1.52,0.51,3.11,0.78,4.78" transform="matrix(1,0,0,1,196,-4)" class="stroke_order_diagram--existing_path"></path><path id="pathSk93xdzq03js" kvg:type="㇕b" d="M25.76,38.04c14.91-1.35,45.03-4.16,53.74-4.54c3.84-0.17,4.01,1.78,3.63,4.25c-0.68,4.46-2.51,12.12-4.07,17.32" transform="matrix(1,0,0,1,196,-4)" class="stroke_order_diagram--existing_path"></path><path id="kvg:0866b-s3" kvg:type="㇐b" d="M30,60c9.65-0.99,29.67-2.45,44.76-3.49c2.03-0.14,3.98-0.27,5.79-0.4" transform="matrix(1,0,0,1,196,-4)" class="stroke_order_diagram--current_path"></path><path id="pathSk93xdzq03ju" kvg:type="㇐b" d="M30,60c9.65-0.99,29.67-2.45,44.76-3.49c2.03-0.14,3.98-0.27,5.79-0.4" transform="matrix(1,0,0,1,196,-4)" class="stroke_order_diagram--current_path"></path><circle cx="30" cy="60" r="8" class="stroke_order_diagram--path_start" transform="matrix(1,0,0,1,196,-4)"></circle><line x1="350" x2="350" y1="1" y2="99" class="stroke_order_diagram--guide_line"></line><line x1="399" x2="399" y1="1" y2="99" class="stroke_order_diagram--bounding_box"></line><path id="pathSk93xdzq03jx" kvg:type="㇑" d="M23.64,36.26c0.8,0.8,1.49,1.74,1.7,2.54c1.23,4.63,2.06,10.62,3.38,18.66c0.25,1.52,0.51,3.11,0.78,4.78" transform="matrix(1,0,0,1,296,-4)" class="stroke_order_diagram--existing_path"></path><path id="pathSk93xdzq03jy" kvg:type="㇕b" d="M25.76,38.04c14.91-1.35,45.03-4.16,53.74-4.54c3.84-0.17,4.01,1.78,3.63,4.25c-0.68,4.46-2.51,12.12-4.07,17.32" transform="matrix(1,0,0,1,296,-4)" class="stroke_order_diagram--existing_path"></path><path id="pathSk93xdzq03jz" kvg:type="㇐b" d="M30,60c9.65-0.99,29.67-2.45,44.76-3.49c2.03-0.14,3.98-0.27,5.79-0.4" transform="matrix(1,0,0,1,296,-4)" class="stroke_order_diagram--existing_path"></path><path id="kvg:0866b-s4" kvg:type="㇑a" d="M52.51,16.12c1,1,1.67,2.84,1.67,3.99c0,5.39,0.08,62.61,0.04,63.63" transform="matrix(1,0,0,1,296,-4)" class="stroke_order_diagram--current_path"></path><path id="pathSk93xdzq03k1" kvg:type="㇑a" d="M52.51,16.12c1,1,1.67,2.84,1.67,3.99c0,5.39,0.08,62.61,0.04,63.63" transform="matrix(1,0,0,1,296,-4)" class="stroke_order_diagram--current_path"></path><circle cx="52.51" cy="16.12" r="8" class="stroke_order_diagram--path_start" transform="matrix(1,0,0,1,296,-4)"></circle><line x1="450" x2="450" y1="1" y2="99" class="stroke_order_diagram--guide_line"></line><line x1="499" x2="499" y1="1" y2="99" class="stroke_order_diagram--bounding_box"></line><path id="pathSk93xdzq03k4" kvg:type="㇑" d="M23.64,36.26c0.8,0.8,1.49,1.74,1.7,2.54c1.23,4.63,2.06,10.62,3.38,18.66c0.25,1.52,0.51,3.11,0.78,4.78" transform="matrix(1,0,0,1,396,-4)" class="stroke_order_diagram--existing_path"></path><path id="pathSk93xdzq03k5" kvg:type="㇕b" d="M25.76,38.04c14.91-1.35,45.03-4.16,53.74-4.54c3.84-0.17,4.01,1.78,3.63,4.25c-0.68,4.46-2.51,12.12-4.07,17.32" transform="matrix(1,0,0,1,396,-4)" class="stroke_order_diagram--existing_path"></path><path id="pathSk93xdzq03k6" kvg:type="㇐b" d="M30,60c9.65-0.99,29.67-2.45,44.76-3.49c2.03-0.14,3.98-0.27,5.79-0.4" transform="matrix(1,0,0,1,396,-4)" class="stroke_order_diagram--existing_path"></path><path id="pathSk93xdzq03k7" kvg:type="㇑a" d="M52.51,16.12c1,1,1.67,2.84,1.67,3.99c0,5.39,0.08,62.61,0.04,63.63" transform="matrix(1,0,0,1,396,-4)" class="stroke_order_diagram--existing_path"></path><path id="kvg:0866b-s5" kvg:type="㇀" d="M22.75,89.75c1.31,1.31,3,1.5,4.25,1.25s47-10.5,54.75-12.5" transform="matrix(1,0,0,1,396,-4)" class="stroke_order_diagram--current_path"></path><path id="pathSk93xdzq03k9" kvg:type="㇀" d="M22.75,89.75c1.31,1.31,3,1.5,4.25,1.25s47-10.5,54.75-12.5" transform="matrix(1,0,0,1,396,-4)" class="stroke_order_diagram--current_path"></path><circle cx="22.75" cy="89.75" r="8" class="stroke_order_diagram--path_start" transform="matrix(1,0,0,1,396,-4)"></circle><line x1="550" x2="550" y1="1" y2="99" class="stroke_order_diagram--guide_line"></line><line x1="599" x2="599" y1="1" y2="99" class="stroke_order_diagram--bounding_box"></line><path id="pathSk93xdzq03kc" kvg:type="㇑" d="M23.64,36.26c0.8,0.8,1.49,1.74,1.7,2.54c1.23,4.63,2.06,10.62,3.38,18.66c0.25,1.52,0.51,3.11,0.78,4.78" transform="matrix(1,0,0,1,496,-4)" class="stroke_order_diagram--existing_path"></path><path id="pathSk93xdzq03kd" kvg:type="㇕b" d="M25.76,38.04c14.91-1.35,45.03-4.16,53.74-4.54c3.84-0.17,4.01,1.78,3.63,4.25c-0.68,4.46-2.51,12.12-4.07,17.32" transform="matrix(1,0,0,1,496,-4)" class="stroke_order_diagram--existing_path"></path><path id="pathSk93xdzq03ke" kvg:type="㇐b" d="M30,60c9.65-0.99,29.67-2.45,44.76-3.49c2.03-0.14,3.98-0.27,5.79-0.4" transform="matrix(1,0,0,1,496,-4)" class="stroke_order_diagram--existing_path"></path><path id="pathSk93xdzq03kf" kvg:type="㇑a" d="M52.51,16.12c1,1,1.67,2.84,1.67,3.99c0,5.39,0.08,62.61,0.04,63.63" transform="matrix(1,0,0,1,496,-4)" class="stroke_order_diagram--existing_path"></path><path id="pathSk93xdzq03kg" kvg:type="㇀" d="M22.75,89.75c1.31,1.31,3,1.5,4.25,1.25s47-10.5,54.75-12.5" transform="matrix(1,0,0,1,496,-4)" class="stroke_order_diagram--existing_path"></path><path id="kvg:0866b-s6" kvg:type="㇔" d="M74.96,69.87c5.12,3.62,12.42,14.38,14.5,20.5" transform="matrix(1,0,0,1,496,-4)" class="stroke_order_diagram--current_path"></path><path id="pathSk93xdzq03ki" kvg:type="㇔" d="M74.96,69.87c5.12,3.62,12.42,14.38,14.5,20.5" transform="matrix(1,0,0,1,496,-4)" class="stroke_order_diagram--current_path"></path><circle cx="74.96" cy="69.87" r="8" class="stroke_order_diagram--path_start" transform="matrix(1,0,0,1,496,-4)"></circle></svg>