<?xml version="1.0" encoding="UTF-8"?>
<!DOCTYPE svg PUBLIC "-//W3C//DTD SVG 1.0//EN" "http://www.w3.org/TR/2001/REC-SVG-20010904/DTD/svg10.dtd" [
<!ATTLIST g
xmlns:kvg CDATA #FIXED "http://kanjivg.tagaini.net"
kvg:element CDATA #IMPLIED
kvg:variant CDATA #IMPLIED
kvg:partial CDATA #IMPLIED
kvg:original CDATA #IMPLIED
kvg:part CDATA #IMPLIED
kvg:number CDATA #IMPLIED
kvg:tradForm CDATA #IMPLIED
kvg:radicalForm CDATA #IMPLIED
kvg:position CDATA #IMPLIED
kvg:radical CDATA #IMPLIED
kvg:phon CDATA #IMPLIED >
<!ATTLIST path
xmlns:kvg CDATA #FIXED "http://kanjivg.tagaini.net"
kvg:type CDATA #IMPLIED >
]><svg style="width: 600px; height: 100px;" xmlns="http://www.w3.org/2000/svg" xmlns:xlink="http://www.w3.org/1999/xlink"><style>
.stroke_order_diagram--outer_container {
  width: 100%;
  overflow-x: auto;
  overflow-y: hidden;
}

.stroke_order_diagram--guide_line {
  fill: none;
  stroke: #ddd;
  stroke-width: 3;
  stroke-linecap: square;
  stroke-linejoin: square;
  stroke-dasharray:8, 8;
}

.stroke_order_diagram--bounding_box {
  fill: none;
  stroke: #ddd;
  stroke-width: 4;
  stroke-linecap: square;
  stroke-linejoin: square;
}

.stroke_order_diagram--current_path {
  fill: none;
  stroke: #000;
  stroke-width: 6;
  stroke-linecap: round;
  stroke-linejoin: round;
}

.stroke_order_diagram--existing_path {
  fill: none;
  stroke: #aaa;
  stroke-width: 6;
  stroke-linecap: round;
  stroke-linejoin:round;
}

.stroke_order_diagram--path_start {
  fill: rgba(255, 0, 0, 0.7);
  stroke:none
}</style><desc>Created with Snap</desc><defs></defs><line x1="1" x2="599" y1="1" y2="1" class="stroke_order_diagram--bounding_box"></line><line x1="1" x2="1" y1="1" y2="99" class="stroke_order_diagram--bounding_box"></line><line x1="1" x2="599" y1="99" y2="99" class="stroke_order_diagram--bounding_box"></line><line x1="0" x2="600" y1="50" y2="50" class="stroke_order_diagram--guide_line"></line><line x1="50" x2="50" y1="1" y2="99" class="stroke_order_diagram--guide_line"></line><line x1="99" x2="99" y1="1" y2="99" class="stroke_order_diagram--bounding_box"></line><path id="kvg:0884c-s1" kvg:type="㇒" d="M32.49,12c-0.12,1-0.45,1.9-1.1,2.62C28.29,18.06,22.2,22.6,12.5,28" transform="matrix(1,0,0,1,-4,-4)" class="stroke_order_diagram--current_path"></path><path id="pathSk93xdzq03md" kvg:type="㇒" d="M32.49,12c-0.12,1-0.45,1.9-1.1,2.62C28.29,18.06,22.2,22.6,12.5,28" transform="matrix(1,0,0,1,-4,-4)" class="stroke_order_diagram--current_path"></path><circle cx="32.49" cy="12" r="8" class="stroke_order_diagram--path_start" transform="matrix(1,0,0,1,-4,-4)"></circle><line x1="150" x2="150" y1="1" y2="99" class="stroke_order_diagram--guide_line"></line><line x1="199" x2="199" y1="1" y2="99" class="stroke_order_diagram--bounding_box"></line><path id="pathSk93xdzq03mg" kvg:type="㇒" d="M32.49,12c-0.12,1-0.45,1.9-1.1,2.62C28.29,18.06,22.2,22.6,12.5,28" transform="matrix(1,0,0,1,96,-4)" class="stroke_order_diagram--existing_path"></path><path id="kvg:0884c-s2" kvg:type="㇒" d="M36.5,31.75c0.07,0.73,0.08,2.28-0.39,3.18C32.12,42.5,23.83,52.5,11,62.75" transform="matrix(1,0,0,1,96,-4)" class="stroke_order_diagram--current_path"></path><path id="pathSk93xdzq03mi" kvg:type="㇒" d="M36.5,31.75c0.07,0.73,0.08,2.28-0.39,3.18C32.12,42.5,23.83,52.5,11,62.75" transform="matrix(1,0,0,1,96,-4)" class="stroke_order_diagram--current_path"></path><circle cx="36.5" cy="31.75" r="8" class="stroke_order_diagram--path_start" transform="matrix(1,0,0,1,96,-4)"></circle><line x1="250" x2="250" y1="1" y2="99" class="stroke_order_diagram--guide_line"></line><line x1="299" x2="299" y1="1" y2="99" class="stroke_order_diagram--bounding_box"></line><path id="pathSk93xdzq03ml" kvg:type="㇒" d="M32.49,12c-0.12,1-0.45,1.9-1.1,2.62C28.29,18.06,22.2,22.6,12.5,28" transform="matrix(1,0,0,1,196,-4)" class="stroke_order_diagram--existing_path"></path><path id="pathSk93xdzq03mm" kvg:type="㇒" d="M36.5,31.75c0.07,0.73,0.08,2.28-0.39,3.18C32.12,42.5,23.83,52.5,11,62.75" transform="matrix(1,0,0,1,196,-4)" class="stroke_order_diagram--existing_path"></path><path id="kvg:0884c-s3" kvg:type="㇑" d="M25.57,51.75c0.9,0.9,1.23,2.25,1.23,3.26c0,0.72,0.04,24.47-0.07,35.49c-0.02,2.19-0.04,3.87-0.07,4.75" transform="matrix(1,0,0,1,196,-4)" class="stroke_order_diagram--current_path"></path><path id="pathSk93xdzq03mo" kvg:type="㇑" d="M25.57,51.75c0.9,0.9,1.23,2.25,1.23,3.26c0,0.72,0.04,24.47-0.07,35.49c-0.02,2.19-0.04,3.87-0.07,4.75" transform="matrix(1,0,0,1,196,-4)" class="stroke_order_diagram--current_path"></path><circle cx="25.57" cy="51.75" r="8" class="stroke_order_diagram--path_start" transform="matrix(1,0,0,1,196,-4)"></circle><line x1="350" x2="350" y1="1" y2="99" class="stroke_order_diagram--guide_line"></line><line x1="399" x2="399" y1="1" y2="99" class="stroke_order_diagram--bounding_box"></line><path id="pathSk93xdzq03mr" kvg:type="㇒" d="M32.49,12c-0.12,1-0.45,1.9-1.1,2.62C28.29,18.06,22.2,22.6,12.5,28" transform="matrix(1,0,0,1,296,-4)" class="stroke_order_diagram--existing_path"></path><path id="pathSk93xdzq03ms" kvg:type="㇒" d="M36.5,31.75c0.07,0.73,0.08,2.28-0.39,3.18C32.12,42.5,23.83,52.5,11,62.75" transform="matrix(1,0,0,1,296,-4)" class="stroke_order_diagram--existing_path"></path><path id="pathSk93xdzq03mt" kvg:type="㇑" d="M25.57,51.75c0.9,0.9,1.23,2.25,1.23,3.26c0,0.72,0.04,24.47-0.07,35.49c-0.02,2.19-0.04,3.87-0.07,4.75" transform="matrix(1,0,0,1,296,-4)" class="stroke_order_diagram--existing_path"></path><path id="kvg:0884c-s4" kvg:type="㇐" d="M50.5,18.45c1.44,0.35,3.81,0.52,5.23,0.35c7.14-0.8,16.01-2.43,24.49-3.06c2.38-0.18,3.83-0.06,5.02,0.11" transform="matrix(1,0,0,1,296,-4)" class="stroke_order_diagram--current_path"></path><path id="pathSk93xdzq03mv" kvg:type="㇐" d="M50.5,18.45c1.44,0.35,3.81,0.52,5.23,0.35c7.14-0.8,16.01-2.43,24.49-3.06c2.38-0.18,3.83-0.06,5.02,0.11" transform="matrix(1,0,0,1,296,-4)" class="stroke_order_diagram--current_path"></path><circle cx="50.5" cy="18.45" r="8" class="stroke_order_diagram--path_start" transform="matrix(1,0,0,1,296,-4)"></circle><line x1="450" x2="450" y1="1" y2="99" class="stroke_order_diagram--guide_line"></line><line x1="499" x2="499" y1="1" y2="99" class="stroke_order_diagram--bounding_box"></line><path id="pathSk93xdzq03my" kvg:type="㇒" d="M32.49,12c-0.12,1-0.45,1.9-1.1,2.62C28.29,18.06,22.2,22.6,12.5,28" transform="matrix(1,0,0,1,396,-4)" class="stroke_order_diagram--existing_path"></path><path id="pathSk93xdzq03mz" kvg:type="㇒" d="M36.5,31.75c0.07,0.73,0.08,2.28-0.39,3.18C32.12,42.5,23.83,52.5,11,62.75" transform="matrix(1,0,0,1,396,-4)" class="stroke_order_diagram--existing_path"></path><path id="pathSk93xdzq03n0" kvg:type="㇑" d="M25.57,51.75c0.9,0.9,1.23,2.25,1.23,3.26c0,0.72,0.04,24.47-0.07,35.49c-0.02,2.19-0.04,3.87-0.07,4.75" transform="matrix(1,0,0,1,396,-4)" class="stroke_order_diagram--existing_path"></path><path id="pathSk93xdzq03n1" kvg:type="㇐" d="M50.5,18.45c1.44,0.35,3.81,0.52,5.23,0.35c7.14-0.8,16.01-2.43,24.49-3.06c2.38-0.18,3.83-0.06,5.02,0.11" transform="matrix(1,0,0,1,396,-4)" class="stroke_order_diagram--existing_path"></path><path id="kvg:0884c-s5" kvg:type="㇐" d="M43.13,41.42c1.5,0.38,4.27,0.58,5.76,0.38c12.86-1.67,28.86-4.05,41.85-5.38c2.49-0.26,4.01,0.18,5.26,0.37" transform="matrix(1,0,0,1,396,-4)" class="stroke_order_diagram--current_path"></path><path id="pathSk93xdzq03n3" kvg:type="㇐" d="M43.13,41.42c1.5,0.38,4.27,0.58,5.76,0.38c12.86-1.67,28.86-4.05,41.85-5.38c2.49-0.26,4.01,0.18,5.26,0.37" transform="matrix(1,0,0,1,396,-4)" class="stroke_order_diagram--current_path"></path><circle cx="43.13" cy="41.42" r="8" class="stroke_order_diagram--path_start" transform="matrix(1,0,0,1,396,-4)"></circle><line x1="550" x2="550" y1="1" y2="99" class="stroke_order_diagram--guide_line"></line><line x1="599" x2="599" y1="1" y2="99" class="stroke_order_diagram--bounding_box"></line><path id="pathSk93xdzq03n6" kvg:type="㇒" d="M32.49,12c-0.12,1-0.45,1.9-1.1,2.62C28.29,18.06,22.2,22.6,12.5,28" transform="matrix(1,0,0,1,496,-4)" class="stroke_order_diagram--existing_path"></path><path id="pathSk93xdzq03n7" kvg:type="㇒" d="M36.5,31.75c0.07,0.73,0.08,2.28-0.39,3.18C32.12,42.5,23.83,52.5,11,62.75" transform="matrix(1,0,0,1,496,-4)" class="stroke_order_diagram--existing_path"></path><path id="pathSk93xdzq03n8" kvg:type="㇑" d="M25.57,51.75c0.9,0.9,1.23,2.25,1.23,3.26c0,0.72,0.04,24.47-0.07,35.49c-0.02,2.19-0.04,3.87-0.07,4.75" transform="matrix(1,0,0,1,496,-4)" class="stroke_order_diagram--existing_path"></path><path id="pathSk93xdzq03n9" kvg:type="㇐" d="M50.5,18.45c1.44,0.35,3.81,0.52,5.23,0.35c7.14-0.8,16.01-2.43,24.49-3.06c2.38-0.18,3.83-0.06,5.02,0.11" transform="matrix(1,0,0,1,496,-4)" class="stroke_order_diagram--existing_path"></path><path id="pathSk93xdzq03na" kvg:type="㇐" d="M43.13,41.42c1.5,0.38,4.27,0.58,5.76,0.38c12.86-1.67,28.86-4.05,41.85-5.38c2.49-0.26,4.01,0.18,5.26,0.37" transform="matrix(1,0,0,1,496,-4)" class="stroke_order_diagram--existing_path"></path><path id="kvg:0884c-s6" kvg:type="㇚" d="M71.52,41.33c1.26,1.26,1.76,2.79,1.76,5.27c0,14.56-0.26,38.66-0.26,43.62c0,8.03-7.21-0.5-8.71-1.75" transform="matrix(1,0,0,1,496,-4)" class="stroke_order_diagram--current_path"></path><path id="pathSk93xdzq03nc" kvg:type="㇚" d="M71.52,41.33c1.26,1.26,1.76,2.79,1.76,5.27c0,14.56-0.26,38.66-0.26,43.62c0,8.03-7.21-0.5-8.71-1.75" transform="matrix(1,0,0,1,496,-4)" class="stroke_order_diagram--current_path"></path><circle cx="71.52" cy="41.33" r="8" class="stroke_order_diagram--path_start" transform="matrix(1,0,0,1,496,-4)"></circle></svg>