<?xml version="1.0" encoding="UTF-8"?>
<!DOCTYPE svg PUBLIC "-//W3C//DTD SVG 1.0//EN" "http://www.w3.org/TR/2001/REC-SVG-20010904/DTD/svg10.dtd" [
<!ATTLIST g
xmlns:kvg CDATA #FIXED "http://kanjivg.tagaini.net"
kvg:element CDATA #IMPLIED
kvg:variant CDATA #IMPLIED
kvg:partial CDATA #IMPLIED
kvg:original CDATA #IMPLIED
kvg:part CDATA #IMPLIED
kvg:number CDATA #IMPLIED
kvg:tradForm CDATA #IMPLIED
kvg:radicalForm CDATA #IMPLIED
kvg:position CDATA #IMPLIED
kvg:radical CDATA #IMPLIED
kvg:phon CDATA #IMPLIED >
<!ATTLIST path
xmlns:kvg CDATA #FIXED "http://kanjivg.tagaini.net"
kvg:type CDATA #IMPLIED >
]><svg style="width: 600px; height: 100px;" xmlns="http://www.w3.org/2000/svg" xmlns:xlink="http://www.w3.org/1999/xlink" width="600px" height="100px"><style>
.stroke_order_diagram--outer_container {
  width: 100%;
  overflow-x: auto;
  overflow-y: hidden;
}

.stroke_order_diagram--guide_line {
  fill: none;
  stroke: #ddd;
  stroke-width: 3;
  stroke-linecap: square;
  stroke-linejoin: square;
  stroke-dasharray:8, 8;
}

.stroke_order_diagram--bounding_box {
  fill: none;
  stroke: #ddd;
  stroke-width: 4;
  stroke-linecap: square;
  stroke-linejoin: square;
}

.stroke_order_diagram--current_path {
  fill: none;
  stroke: #000;
  stroke-width: 6;
  stroke-linecap: round;
  stroke-linejoin: round;
}

.stroke_order_diagram--existing_path {
  fill: none;
  stroke: #aaa;
  stroke-width: 6;
  stroke-linecap: round;
  stroke-linejoin:round;
}

.stroke_order_diagram--path_start {
  fill: rgba(255, 0, 0, 0.7);
  stroke:none
}</style><desc>Created with Snap</desc><defs></defs><line x1="1" x2="599" y1="1" y2="1" class="stroke_order_diagram--bounding_box"></line><line x1="1" x2="1" y1="1" y2="99" class="stroke_order_diagram--bounding_box"></line><line x1="1" x2="599" y1="99" y2="99" class="stroke_order_diagram--bounding_box"></line><line x1="0" x2="600" y1="50" y2="50" class="stroke_order_diagram--guide_line"></line><line x1="50" x2="50" y1="1" y2="99" class="stroke_order_diagram--guide_line"></line><line x1="99" x2="99" y1="1" y2="99" class="stroke_order_diagram--bounding_box"></line><path id="kvg:0897e-s1" kvg:type="㇐" d="M22.64,23.13c1.15,0.47,3.27,0.6,4.42,0.47c7.35-0.81,44.01-5.32,51.13-4.77c1.92,0.15,3.08,0.22,4.04,0.46" transform="matrix(1,0,0,1,-4,-4)" class="stroke_order_diagram--current_path"></path><path id="pathSk940yk7k3p7" kvg:type="㇐" d="M22.64,23.13c1.15,0.47,3.27,0.6,4.42,0.47c7.35-0.81,44.01-5.32,51.13-4.77c1.92,0.15,3.08,0.22,4.04,0.46" transform="matrix(1,0,0,1,-4,-4)" class="stroke_order_diagram--current_path"></path><circle cx="22.64" cy="23.13" r="8" class="stroke_order_diagram--path_start" transform="matrix(1,0,0,1,-4,-4)"></circle><line x1="150" x2="150" y1="1" y2="99" class="stroke_order_diagram--guide_line"></line><line x1="199" x2="199" y1="1" y2="99" class="stroke_order_diagram--bounding_box"></line><path id="pathSk940yk7k3pa" kvg:type="㇐" d="M22.64,23.13c1.15,0.47,3.27,0.6,4.42,0.47c7.35-0.81,44.01-5.32,51.13-4.77c1.92,0.15,3.08,0.22,4.04,0.46" transform="matrix(1,0,0,1,96,-4)" class="stroke_order_diagram--existing_path"></path><path id="kvg:0897e-s2" kvg:type="㇑" d="M17,44.74c0.5,0.84,1.02,1.54,1.24,2.6c1.74,8.35,3.33,31.4,4.52,46.41" transform="matrix(1,0,0,1,96,-4)" class="stroke_order_diagram--current_path"></path><path id="pathSk940yk7k3pc" kvg:type="㇑" d="M17,44.74c0.5,0.84,1.02,1.54,1.24,2.6c1.74,8.35,3.33,31.4,4.52,46.41" transform="matrix(1,0,0,1,96,-4)" class="stroke_order_diagram--current_path"></path><circle cx="17" cy="44.74" r="8" class="stroke_order_diagram--path_start" transform="matrix(1,0,0,1,96,-4)"></circle><line x1="250" x2="250" y1="1" y2="99" class="stroke_order_diagram--guide_line"></line><line x1="299" x2="299" y1="1" y2="99" class="stroke_order_diagram--bounding_box"></line><path id="pathSk940yk7k3pf" kvg:type="㇐" d="M22.64,23.13c1.15,0.47,3.27,0.6,4.42,0.47c7.35-0.81,44.01-5.32,51.13-4.77c1.92,0.15,3.08,0.22,4.04,0.46" transform="matrix(1,0,0,1,196,-4)" class="stroke_order_diagram--existing_path"></path><path id="pathSk940yk7k3pg" kvg:type="㇑" d="M17,44.74c0.5,0.84,1.02,1.54,1.24,2.6c1.74,8.35,3.33,31.4,4.52,46.41" transform="matrix(1,0,0,1,196,-4)" class="stroke_order_diagram--existing_path"></path><path id="kvg:0897e-s3" kvg:type="㇕" d="M18.13,46.08c12.3-1.63,63.49-5.72,69.83-6.27c2.32-0.2,3.48,1.98,3.38,3.2c-0.59,7.24-2.59,36.99-4.5,49.94" transform="matrix(1,0,0,1,196,-4)" class="stroke_order_diagram--current_path"></path><path id="pathSk940yk7k3pi" kvg:type="㇕" d="M18.13,46.08c12.3-1.63,63.49-5.72,69.83-6.27c2.32-0.2,3.48,1.98,3.38,3.2c-0.59,7.24-2.59,36.99-4.5,49.94" transform="matrix(1,0,0,1,196,-4)" class="stroke_order_diagram--current_path"></path><circle cx="18.13" cy="46.08" r="8" class="stroke_order_diagram--path_start" transform="matrix(1,0,0,1,196,-4)"></circle><line x1="350" x2="350" y1="1" y2="99" class="stroke_order_diagram--guide_line"></line><line x1="399" x2="399" y1="1" y2="99" class="stroke_order_diagram--bounding_box"></line><path id="pathSk940yk7k3pl" kvg:type="㇐" d="M22.64,23.13c1.15,0.47,3.27,0.6,4.42,0.47c7.35-0.81,44.01-5.32,51.13-4.77c1.92,0.15,3.08,0.22,4.04,0.46" transform="matrix(1,0,0,1,296,-4)" class="stroke_order_diagram--existing_path"></path><path id="pathSk940yk7k3pm" kvg:type="㇑" d="M17,44.74c0.5,0.84,1.02,1.54,1.24,2.6c1.74,8.35,3.33,31.4,4.52,46.41" transform="matrix(1,0,0,1,296,-4)" class="stroke_order_diagram--existing_path"></path><path id="pathSk940yk7k3pn" kvg:type="㇕" d="M18.13,46.08c12.3-1.63,63.49-5.72,69.83-6.27c2.32-0.2,3.48,1.98,3.38,3.2c-0.59,7.24-2.59,36.99-4.5,49.94" transform="matrix(1,0,0,1,296,-4)" class="stroke_order_diagram--existing_path"></path><path id="kvg:0897e-s4" kvg:type="㇑" d="M39.26,25.38c1.34,0.61,2.37,2.74,2.41,3.99C42,39.5,43.25,64.25,44.15,75.98" transform="matrix(1,0,0,1,296,-4)" class="stroke_order_diagram--current_path"></path><path id="pathSk940yk7k3pp" kvg:type="㇑" d="M39.26,25.38c1.34,0.61,2.37,2.74,2.41,3.99C42,39.5,43.25,64.25,44.15,75.98" transform="matrix(1,0,0,1,296,-4)" class="stroke_order_diagram--current_path"></path><circle cx="39.26" cy="25.38" r="8" class="stroke_order_diagram--path_start" transform="matrix(1,0,0,1,296,-4)"></circle><line x1="450" x2="450" y1="1" y2="99" class="stroke_order_diagram--guide_line"></line><line x1="499" x2="499" y1="1" y2="99" class="stroke_order_diagram--bounding_box"></line><path id="pathSk940yk7k3ps" kvg:type="㇐" d="M22.64,23.13c1.15,0.47,3.27,0.6,4.42,0.47c7.35-0.81,44.01-5.32,51.13-4.77c1.92,0.15,3.08,0.22,4.04,0.46" transform="matrix(1,0,0,1,396,-4)" class="stroke_order_diagram--existing_path"></path><path id="pathSk940yk7k3pt" kvg:type="㇑" d="M17,44.74c0.5,0.84,1.02,1.54,1.24,2.6c1.74,8.35,3.33,31.4,4.52,46.41" transform="matrix(1,0,0,1,396,-4)" class="stroke_order_diagram--existing_path"></path><path id="pathSk940yk7k3pu" kvg:type="㇕" d="M18.13,46.08c12.3-1.63,63.49-5.72,69.83-6.27c2.32-0.2,3.48,1.98,3.38,3.2c-0.59,7.24-2.59,36.99-4.5,49.94" transform="matrix(1,0,0,1,396,-4)" class="stroke_order_diagram--existing_path"></path><path id="pathSk940yk7k3pv" kvg:type="㇑" d="M39.26,25.38c1.34,0.61,2.37,2.74,2.41,3.99C42,39.5,43.25,64.25,44.15,75.98" transform="matrix(1,0,0,1,396,-4)" class="stroke_order_diagram--existing_path"></path><path id="kvg:0897e-s5" kvg:type="㇑" d="M63.41,23.08c1.34,0.61,1.9,2.81,1.89,5.64C65.25,40,65.5,55.75,65,73.25" transform="matrix(1,0,0,1,396,-4)" class="stroke_order_diagram--current_path"></path><path id="pathSk940yk7k3px" kvg:type="㇑" d="M63.41,23.08c1.34,0.61,1.9,2.81,1.89,5.64C65.25,40,65.5,55.75,65,73.25" transform="matrix(1,0,0,1,396,-4)" class="stroke_order_diagram--current_path"></path><circle cx="63.41" cy="23.08" r="8" class="stroke_order_diagram--path_start" transform="matrix(1,0,0,1,396,-4)"></circle><line x1="550" x2="550" y1="1" y2="99" class="stroke_order_diagram--guide_line"></line><line x1="599" x2="599" y1="1" y2="99" class="stroke_order_diagram--bounding_box"></line><path id="pathSk940yk7k3q0" kvg:type="㇐" d="M22.64,23.13c1.15,0.47,3.27,0.6,4.42,0.47c7.35-0.81,44.01-5.32,51.13-4.77c1.92,0.15,3.08,0.22,4.04,0.46" transform="matrix(1,0,0,1,496,-4)" class="stroke_order_diagram--existing_path"></path><path id="pathSk940yk7k3q1" kvg:type="㇑" d="M17,44.74c0.5,0.84,1.02,1.54,1.24,2.6c1.74,8.35,3.33,31.4,4.52,46.41" transform="matrix(1,0,0,1,496,-4)" class="stroke_order_diagram--existing_path"></path><path id="pathSk940yk7k3q2" kvg:type="㇕" d="M18.13,46.08c12.3-1.63,63.49-5.72,69.83-6.27c2.32-0.2,3.48,1.98,3.38,3.2c-0.59,7.24-2.59,36.99-4.5,49.94" transform="matrix(1,0,0,1,496,-4)" class="stroke_order_diagram--existing_path"></path><path id="pathSk940yk7k3q3" kvg:type="㇑" d="M39.26,25.38c1.34,0.61,2.37,2.74,2.41,3.99C42,39.5,43.25,64.25,44.15,75.98" transform="matrix(1,0,0,1,496,-4)" class="stroke_order_diagram--existing_path"></path><path id="pathSk940yk7k3q4" kvg:type="㇑" d="M63.41,23.08c1.34,0.61,1.9,2.81,1.89,5.64C65.25,40,65.5,55.75,65,73.25" transform="matrix(1,0,0,1,496,-4)" class="stroke_order_diagram--existing_path"></path><path id="kvg:0897e-s6" kvg:type="㇐" d="M44.25,74.59c6.75-1.09,11.5-2.09,21.17-3.46" transform="matrix(1,0,0,1,496,-4)" class="stroke_order_diagram--current_path"></path><path id="pathSk940yk7k3q6" kvg:type="㇐" d="M44.25,74.59c6.75-1.09,11.5-2.09,21.17-3.46" transform="matrix(1,0,0,1,496,-4)" class="stroke_order_diagram--current_path"></path><circle cx="44.25" cy="74.59" r="8" class="stroke_order_diagram--path_start" transform="matrix(1,0,0,1,496,-4)"></circle></svg>