<?xml version="1.0" encoding="UTF-8"?>
<!DOCTYPE svg PUBLIC "-//W3C//DTD SVG 1.0//EN" "http://www.w3.org/TR/2001/REC-SVG-20010904/DTD/svg10.dtd" [
<!ATTLIST g
xmlns:kvg CDATA #FIXED "http://kanjivg.tagaini.net"
kvg:element CDATA #IMPLIED
kvg:variant CDATA #IMPLIED
kvg:partial CDATA #IMPLIED
kvg:original CDATA #IMPLIED
kvg:part CDATA #IMPLIED
kvg:number CDATA #IMPLIED
kvg:tradForm CDATA #IMPLIED
kvg:radicalForm CDATA #IMPLIED
kvg:position CDATA #IMPLIED
kvg:radical CDATA #IMPLIED
kvg:phon CDATA #IMPLIED >
<!ATTLIST path
xmlns:kvg CDATA #FIXED "http://kanjivg.tagaini.net"
kvg:type CDATA #IMPLIED >
]><svg style="width: 700px; height: 100px;" xmlns="http://www.w3.org/2000/svg" xmlns:xlink="http://www.w3.org/1999/xlink" width="700px" height="100px"><style>
.stroke_order_diagram--outer_container {
  width: 100%;
  overflow-x: auto;
  overflow-y: hidden;
}

.stroke_order_diagram--guide_line {
  fill: none;
  stroke: #ddd;
  stroke-width: 3;
  stroke-linecap: square;
  stroke-linejoin: square;
  stroke-dasharray:8, 8;
}

.stroke_order_diagram--bounding_box {
  fill: none;
  stroke: #ddd;
  stroke-width: 4;
  stroke-linecap: square;
  stroke-linejoin: square;
}

.stroke_order_diagram--current_path {
  fill: none;
  stroke: #000;
  stroke-width: 6;
  stroke-linecap: round;
  stroke-linejoin: round;
}

.stroke_order_diagram--existing_path {
  fill: none;
  stroke: #aaa;
  stroke-width: 6;
  stroke-linecap: round;
  stroke-linejoin:round;
}

.stroke_order_diagram--path_start {
  fill: rgba(255, 0, 0, 0.7);
  stroke:none
}</style><desc>Created with Snap</desc><defs></defs><line x1="1" x2="699" y1="1" y2="1" class="stroke_order_diagram--bounding_box"></line><line x1="1" x2="1" y1="1" y2="99" class="stroke_order_diagram--bounding_box"></line><line x1="1" x2="699" y1="99" y2="99" class="stroke_order_diagram--bounding_box"></line><line x1="0" x2="700" y1="50" y2="50" class="stroke_order_diagram--guide_line"></line><line x1="50" x2="50" y1="1" y2="99" class="stroke_order_diagram--guide_line"></line><line x1="99" x2="99" y1="1" y2="99" class="stroke_order_diagram--bounding_box"></line><path id="kvg:0898b-s1" kvg:type="㇑" d="M32.5,15.46c0.96,0.96,1.18,2.1,1.18,3.52c0,1.12,0.07,27.43-0.02,39.27c-0.02,3.12-0.02,5.21,0.02,5.5" transform="matrix(1,0,0,1,-4,-4)" class="stroke_order_diagram--current_path"></path><path id="pathSk940yk7k3qn" kvg:type="㇑" d="M32.5,15.46c0.96,0.96,1.18,2.1,1.18,3.52c0,1.12,0.07,27.43-0.02,39.27c-0.02,3.12-0.02,5.21,0.02,5.5" transform="matrix(1,0,0,1,-4,-4)" class="stroke_order_diagram--current_path"></path><circle cx="32.5" cy="15.46" r="8" class="stroke_order_diagram--path_start" transform="matrix(1,0,0,1,-4,-4)"></circle><line x1="150" x2="150" y1="1" y2="99" class="stroke_order_diagram--guide_line"></line><line x1="199" x2="199" y1="1" y2="99" class="stroke_order_diagram--bounding_box"></line><path id="pathSk940yk7k3qq" kvg:type="㇑" d="M32.5,15.46c0.96,0.96,1.18,2.1,1.18,3.52c0,1.12,0.07,27.43-0.02,39.27c-0.02,3.12-0.02,5.21,0.02,5.5" transform="matrix(1,0,0,1,96,-4)" class="stroke_order_diagram--existing_path"></path><path id="kvg:0898b-s2" kvg:type="㇕a" d="M34.65,17.15c9.23-1.27,22.23-2.65,31.1-3.65c2.99-0.34,4.26,1.01,4.26,3.55c0,2.5-0.1,28.08-0.14,38.96c-0.01,2.91-0.02,4.75-0.02,4.79" transform="matrix(1,0,0,1,96,-4)" class="stroke_order_diagram--current_path"></path><path id="pathSk940yk7k3qs" kvg:type="㇕a" d="M34.65,17.15c9.23-1.27,22.23-2.65,31.1-3.65c2.99-0.34,4.26,1.01,4.26,3.55c0,2.5-0.1,28.08-0.14,38.96c-0.01,2.91-0.02,4.75-0.02,4.79" transform="matrix(1,0,0,1,96,-4)" class="stroke_order_diagram--current_path"></path><circle cx="34.65" cy="17.15" r="8" class="stroke_order_diagram--path_start" transform="matrix(1,0,0,1,96,-4)"></circle><line x1="250" x2="250" y1="1" y2="99" class="stroke_order_diagram--guide_line"></line><line x1="299" x2="299" y1="1" y2="99" class="stroke_order_diagram--bounding_box"></line><path id="pathSk940yk7k3qv" kvg:type="㇑" d="M32.5,15.46c0.96,0.96,1.18,2.1,1.18,3.52c0,1.12,0.07,27.43-0.02,39.27c-0.02,3.12-0.02,5.21,0.02,5.5" transform="matrix(1,0,0,1,196,-4)" class="stroke_order_diagram--existing_path"></path><path id="pathSk940yk7k3qw" kvg:type="㇕a" d="M34.65,17.15c9.23-1.27,22.23-2.65,31.1-3.65c2.99-0.34,4.26,1.01,4.26,3.55c0,2.5-0.1,28.08-0.14,38.96c-0.01,2.91-0.02,4.75-0.02,4.79" transform="matrix(1,0,0,1,196,-4)" class="stroke_order_diagram--existing_path"></path><path id="kvg:0898b-s3" kvg:type="㇐a" d="M34.84,31.1c7.28-0.6,25.03-2.98,33.9-3.38" transform="matrix(1,0,0,1,196,-4)" class="stroke_order_diagram--current_path"></path><path id="pathSk940yk7k3qy" kvg:type="㇐a" d="M34.84,31.1c7.28-0.6,25.03-2.98,33.9-3.38" transform="matrix(1,0,0,1,196,-4)" class="stroke_order_diagram--current_path"></path><circle cx="34.84" cy="31.1" r="8" class="stroke_order_diagram--path_start" transform="matrix(1,0,0,1,196,-4)"></circle><line x1="350" x2="350" y1="1" y2="99" class="stroke_order_diagram--guide_line"></line><line x1="399" x2="399" y1="1" y2="99" class="stroke_order_diagram--bounding_box"></line><path id="pathSk940yk7k3r1" kvg:type="㇑" d="M32.5,15.46c0.96,0.96,1.18,2.1,1.18,3.52c0,1.12,0.07,27.43-0.02,39.27c-0.02,3.12-0.02,5.21,0.02,5.5" transform="matrix(1,0,0,1,296,-4)" class="stroke_order_diagram--existing_path"></path><path id="pathSk940yk7k3r2" kvg:type="㇕a" d="M34.65,17.15c9.23-1.27,22.23-2.65,31.1-3.65c2.99-0.34,4.26,1.01,4.26,3.55c0,2.5-0.1,28.08-0.14,38.96c-0.01,2.91-0.02,4.75-0.02,4.79" transform="matrix(1,0,0,1,296,-4)" class="stroke_order_diagram--existing_path"></path><path id="pathSk940yk7k3r3" kvg:type="㇐a" d="M34.84,31.1c7.28-0.6,25.03-2.98,33.9-3.38" transform="matrix(1,0,0,1,296,-4)" class="stroke_order_diagram--existing_path"></path><path id="kvg:0898b-s4" kvg:type="㇐a" d="M34.86,44.63C43.38,44,59,42.12,68.6,41.51" transform="matrix(1,0,0,1,296,-4)" class="stroke_order_diagram--current_path"></path><path id="pathSk940yk7k3r5" kvg:type="㇐a" d="M34.86,44.63C43.38,44,59,42.12,68.6,41.51" transform="matrix(1,0,0,1,296,-4)" class="stroke_order_diagram--current_path"></path><circle cx="34.86" cy="44.63" r="8" class="stroke_order_diagram--path_start" transform="matrix(1,0,0,1,296,-4)"></circle><line x1="450" x2="450" y1="1" y2="99" class="stroke_order_diagram--guide_line"></line><line x1="499" x2="499" y1="1" y2="99" class="stroke_order_diagram--bounding_box"></line><path id="pathSk940yk7k3r8" kvg:type="㇑" d="M32.5,15.46c0.96,0.96,1.18,2.1,1.18,3.52c0,1.12,0.07,27.43-0.02,39.27c-0.02,3.12-0.02,5.21,0.02,5.5" transform="matrix(1,0,0,1,396,-4)" class="stroke_order_diagram--existing_path"></path><path id="pathSk940yk7k3r9" kvg:type="㇕a" d="M34.65,17.15c9.23-1.27,22.23-2.65,31.1-3.65c2.99-0.34,4.26,1.01,4.26,3.55c0,2.5-0.1,28.08-0.14,38.96c-0.01,2.91-0.02,4.75-0.02,4.79" transform="matrix(1,0,0,1,396,-4)" class="stroke_order_diagram--existing_path"></path><path id="pathSk940yk7k3ra" kvg:type="㇐a" d="M34.84,31.1c7.28-0.6,25.03-2.98,33.9-3.38" transform="matrix(1,0,0,1,396,-4)" class="stroke_order_diagram--existing_path"></path><path id="pathSk940yk7k3rb" kvg:type="㇐a" d="M34.86,44.63C43.38,44,59,42.12,68.6,41.51" transform="matrix(1,0,0,1,396,-4)" class="stroke_order_diagram--existing_path"></path><path id="kvg:0898b-s5" kvg:type="㇐a" d="M34.71,59.66C44.5,59,58.38,57.5,68.45,57.03" transform="matrix(1,0,0,1,396,-4)" class="stroke_order_diagram--current_path"></path><path id="pathSk940yk7k3rd" kvg:type="㇐a" d="M34.71,59.66C44.5,59,58.38,57.5,68.45,57.03" transform="matrix(1,0,0,1,396,-4)" class="stroke_order_diagram--current_path"></path><circle cx="34.71" cy="59.66" r="8" class="stroke_order_diagram--path_start" transform="matrix(1,0,0,1,396,-4)"></circle><line x1="550" x2="550" y1="1" y2="99" class="stroke_order_diagram--guide_line"></line><line x1="599" x2="599" y1="1" y2="99" class="stroke_order_diagram--bounding_box"></line><path id="pathSk940yk7k3rg" kvg:type="㇑" d="M32.5,15.46c0.96,0.96,1.18,2.1,1.18,3.52c0,1.12,0.07,27.43-0.02,39.27c-0.02,3.12-0.02,5.21,0.02,5.5" transform="matrix(1,0,0,1,496,-4)" class="stroke_order_diagram--existing_path"></path><path id="pathSk940yk7k3rh" kvg:type="㇕a" d="M34.65,17.15c9.23-1.27,22.23-2.65,31.1-3.65c2.99-0.34,4.26,1.01,4.26,3.55c0,2.5-0.1,28.08-0.14,38.96c-0.01,2.91-0.02,4.75-0.02,4.79" transform="matrix(1,0,0,1,496,-4)" class="stroke_order_diagram--existing_path"></path><path id="pathSk940yk7k3ri" kvg:type="㇐a" d="M34.84,31.1c7.28-0.6,25.03-2.98,33.9-3.38" transform="matrix(1,0,0,1,496,-4)" class="stroke_order_diagram--existing_path"></path><path id="pathSk940yk7k3rj" kvg:type="㇐a" d="M34.86,44.63C43.38,44,59,42.12,68.6,41.51" transform="matrix(1,0,0,1,496,-4)" class="stroke_order_diagram--existing_path"></path><path id="pathSk940yk7k3rk" kvg:type="㇐a" d="M34.71,59.66C44.5,59,58.38,57.5,68.45,57.03" transform="matrix(1,0,0,1,496,-4)" class="stroke_order_diagram--existing_path"></path><path id="kvg:0898b-s6" kvg:type="㇒" d="M41.99,66.75c0.26,1.5,0.01,2.99-0.41,4.04c-2.7,6.83-13.83,20.83-28.41,27.87" transform="matrix(1,0,0,1,496,-4)" class="stroke_order_diagram--current_path"></path><path id="pathSk940yk7k3rm" kvg:type="㇒" d="M41.99,66.75c0.26,1.5,0.01,2.99-0.41,4.04c-2.7,6.83-13.83,20.83-28.41,27.87" transform="matrix(1,0,0,1,496,-4)" class="stroke_order_diagram--current_path"></path><circle cx="41.99" cy="66.75" r="8" class="stroke_order_diagram--path_start" transform="matrix(1,0,0,1,496,-4)"></circle><line x1="650" x2="650" y1="1" y2="99" class="stroke_order_diagram--guide_line"></line><line x1="699" x2="699" y1="1" y2="99" class="stroke_order_diagram--bounding_box"></line><path id="pathSk940yk7k3rp" kvg:type="㇑" d="M32.5,15.46c0.96,0.96,1.18,2.1,1.18,3.52c0,1.12,0.07,27.43-0.02,39.27c-0.02,3.12-0.02,5.21,0.02,5.5" transform="matrix(1,0,0,1,596,-4)" class="stroke_order_diagram--existing_path"></path><path id="pathSk940yk7k3rq" kvg:type="㇕a" d="M34.65,17.15c9.23-1.27,22.23-2.65,31.1-3.65c2.99-0.34,4.26,1.01,4.26,3.55c0,2.5-0.1,28.08-0.14,38.96c-0.01,2.91-0.02,4.75-0.02,4.79" transform="matrix(1,0,0,1,596,-4)" class="stroke_order_diagram--existing_path"></path><path id="pathSk940yk7k3rr" kvg:type="㇐a" d="M34.84,31.1c7.28-0.6,25.03-2.98,33.9-3.38" transform="matrix(1,0,0,1,596,-4)" class="stroke_order_diagram--existing_path"></path><path id="pathSk940yk7k3rs" kvg:type="㇐a" d="M34.86,44.63C43.38,44,59,42.12,68.6,41.51" transform="matrix(1,0,0,1,596,-4)" class="stroke_order_diagram--existing_path"></path><path id="pathSk940yk7k3rt" kvg:type="㇐a" d="M34.71,59.66C44.5,59,58.38,57.5,68.45,57.03" transform="matrix(1,0,0,1,596,-4)" class="stroke_order_diagram--existing_path"></path><path id="pathSk940yk7k3ru" kvg:type="㇒" d="M41.99,66.75c0.26,1.5,0.01,2.99-0.41,4.04c-2.7,6.83-13.83,20.83-28.41,27.87" transform="matrix(1,0,0,1,596,-4)" class="stroke_order_diagram--existing_path"></path><path id="kvg:0898b-s7" kvg:type="㇟" d="M54.49,61.37c1.07,1.07,1.33,2.59,1.38,4.43c0.2,8.19,0.04,6.2,0.04,18.2c0,10.12,1.23,11.53,18.54,11.53c18.81,0,19.81-1.53,19.81-10.12" transform="matrix(1,0,0,1,596,-4)" class="stroke_order_diagram--current_path"></path><path id="pathSk940yk7k3rw" kvg:type="㇟" d="M54.49,61.37c1.07,1.07,1.33,2.59,1.38,4.43c0.2,8.19,0.04,6.2,0.04,18.2c0,10.12,1.23,11.53,18.54,11.53c18.81,0,19.81-1.53,19.81-10.12" transform="matrix(1,0,0,1,596,-4)" class="stroke_order_diagram--current_path"></path><circle cx="54.49" cy="61.37" r="8" class="stroke_order_diagram--path_start" transform="matrix(1,0,0,1,596,-4)"></circle></svg>