<?xml version="1.0" encoding="UTF-8"?>
<!DOCTYPE svg PUBLIC "-//W3C//DTD SVG 1.0//EN" "http://www.w3.org/TR/2001/REC-SVG-20010904/DTD/svg10.dtd" [
<!ATTLIST g
xmlns:kvg CDATA #FIXED "http://kanjivg.tagaini.net"
kvg:element CDATA #IMPLIED
kvg:variant CDATA #IMPLIED
kvg:partial CDATA #IMPLIED
kvg:original CDATA #IMPLIED
kvg:part CDATA #IMPLIED
kvg:number CDATA #IMPLIED
kvg:tradForm CDATA #IMPLIED
kvg:radicalForm CDATA #IMPLIED
kvg:position CDATA #IMPLIED
kvg:radical CDATA #IMPLIED
kvg:phon CDATA #IMPLIED >
<!ATTLIST path
xmlns:kvg CDATA #FIXED "http://kanjivg.tagaini.net"
kvg:type CDATA #IMPLIED >
]><svg style="width: 700px; height: 100px;" xmlns="http://www.w3.org/2000/svg" xmlns:xlink="http://www.w3.org/1999/xlink"><style>
.stroke_order_diagram--outer_container {
  width: 100%;
  overflow-x: auto;
  overflow-y: hidden;
}

.stroke_order_diagram--guide_line {
  fill: none;
  stroke: #ddd;
  stroke-width: 3;
  stroke-linecap: square;
  stroke-linejoin: square;
  stroke-dasharray:8, 8;
}

.stroke_order_diagram--bounding_box {
  fill: none;
  stroke: #ddd;
  stroke-width: 4;
  stroke-linecap: square;
  stroke-linejoin: square;
}

.stroke_order_diagram--current_path {
  fill: none;
  stroke: #000;
  stroke-width: 6;
  stroke-linecap: round;
  stroke-linejoin: round;
}

.stroke_order_diagram--existing_path {
  fill: none;
  stroke: #aaa;
  stroke-width: 6;
  stroke-linecap: round;
  stroke-linejoin:round;
}

.stroke_order_diagram--path_start {
  fill: rgba(255, 0, 0, 0.7);
  stroke:none
}</style><desc>Created with Snap</desc><defs></defs><line x1="1" x2="699" y1="1" y2="1" class="stroke_order_diagram--bounding_box"></line><line x1="1" x2="1" y1="1" y2="99" class="stroke_order_diagram--bounding_box"></line><line x1="1" x2="699" y1="99" y2="99" class="stroke_order_diagram--bounding_box"></line><line x1="0" x2="700" y1="50" y2="50" class="stroke_order_diagram--guide_line"></line><line x1="50" x2="50" y1="1" y2="99" class="stroke_order_diagram--guide_line"></line><line x1="99" x2="99" y1="1" y2="99" class="stroke_order_diagram--bounding_box"></line><path id="kvg:08a00-s1" kvg:type="㇔" d="M48.38,11.25c4.38,2.5,8.88,7.75,10.38,11.5" transform="matrix(1,0,0,1,-4,-4)" class="stroke_order_diagram--current_path"></path><path id="pathSk93xdzq03u3" kvg:type="㇔" d="M48.38,11.25c4.38,2.5,8.88,7.75,10.38,11.5" transform="matrix(1,0,0,1,-4,-4)" class="stroke_order_diagram--current_path"></path><circle cx="48.38" cy="11.25" r="8" class="stroke_order_diagram--path_start" transform="matrix(1,0,0,1,-4,-4)"></circle><line x1="150" x2="150" y1="1" y2="99" class="stroke_order_diagram--guide_line"></line><line x1="199" x2="199" y1="1" y2="99" class="stroke_order_diagram--bounding_box"></line><path id="pathSk93xdzq03u6" kvg:type="㇔" d="M48.38,11.25c4.38,2.5,8.88,7.75,10.38,11.5" transform="matrix(1,0,0,1,96,-4)" class="stroke_order_diagram--existing_path"></path><path id="kvg:08a00-s2" kvg:type="㇐" d="M14.88,33.98c2.52,0.54,6.91,0.76,9.42,0.54c22.95-2.02,40.82-4.02,59.99-4.73c4.2-0.16,6.73,0.26,8.83,0.53" transform="matrix(1,0,0,1,96,-4)" class="stroke_order_diagram--current_path"></path><path id="pathSk93xdzq03u8" kvg:type="㇐" d="M14.88,33.98c2.52,0.54,6.91,0.76,9.42,0.54c22.95-2.02,40.82-4.02,59.99-4.73c4.2-0.16,6.73,0.26,8.83,0.53" transform="matrix(1,0,0,1,96,-4)" class="stroke_order_diagram--current_path"></path><circle cx="14.88" cy="33.98" r="8" class="stroke_order_diagram--path_start" transform="matrix(1,0,0,1,96,-4)"></circle><line x1="250" x2="250" y1="1" y2="99" class="stroke_order_diagram--guide_line"></line><line x1="299" x2="299" y1="1" y2="99" class="stroke_order_diagram--bounding_box"></line><path id="pathSk93xdzq03ub" kvg:type="㇔" d="M48.38,11.25c4.38,2.5,8.88,7.75,10.38,11.5" transform="matrix(1,0,0,1,196,-4)" class="stroke_order_diagram--existing_path"></path><path id="pathSk93xdzq03uc" kvg:type="㇐" d="M14.88,33.98c2.52,0.54,6.91,0.76,9.42,0.54c22.95-2.02,40.82-4.02,59.99-4.73c4.2-0.16,6.73,0.26,8.83,0.53" transform="matrix(1,0,0,1,196,-4)" class="stroke_order_diagram--existing_path"></path><path id="kvg:08a00-s3" kvg:type="㇐" d="M38.63,46.65C40,47,41,47,42.45,46.88c7.06-0.6,18.6-2.27,22.81-2.6c1.86-0.15,3.36-0.15,4.74,0.22" transform="matrix(1,0,0,1,196,-4)" class="stroke_order_diagram--current_path"></path><path id="pathSk93xdzq03ue" kvg:type="㇐" d="M38.63,46.65C40,47,41,47,42.45,46.88c7.06-0.6,18.6-2.27,22.81-2.6c1.86-0.15,3.36-0.15,4.74,0.22" transform="matrix(1,0,0,1,196,-4)" class="stroke_order_diagram--current_path"></path><circle cx="38.63" cy="46.65" r="8" class="stroke_order_diagram--path_start" transform="matrix(1,0,0,1,196,-4)"></circle><line x1="350" x2="350" y1="1" y2="99" class="stroke_order_diagram--guide_line"></line><line x1="399" x2="399" y1="1" y2="99" class="stroke_order_diagram--bounding_box"></line><path id="pathSk93xdzq03uh" kvg:type="㇔" d="M48.38,11.25c4.38,2.5,8.88,7.75,10.38,11.5" transform="matrix(1,0,0,1,296,-4)" class="stroke_order_diagram--existing_path"></path><path id="pathSk93xdzq03ui" kvg:type="㇐" d="M14.88,33.98c2.52,0.54,6.91,0.76,9.42,0.54c22.95-2.02,40.82-4.02,59.99-4.73c4.2-0.16,6.73,0.26,8.83,0.53" transform="matrix(1,0,0,1,296,-4)" class="stroke_order_diagram--existing_path"></path><path id="pathSk93xdzq03uj" kvg:type="㇐" d="M38.63,46.65C40,47,41,47,42.45,46.88c7.06-0.6,18.6-2.27,22.81-2.6c1.86-0.15,3.36-0.15,4.74,0.22" transform="matrix(1,0,0,1,296,-4)" class="stroke_order_diagram--existing_path"></path><path id="kvg:08a00-s4" kvg:type="㇐" d="M37.88,61.4c1.5,0.23,2.75,0.35,4.16,0.23c7.68-0.67,20.23-2.28,24.8-2.85c2.16-0.27,3.66-0.15,5.17,0.22" transform="matrix(1,0,0,1,296,-4)" class="stroke_order_diagram--current_path"></path><path id="pathSk93xdzq03ul" kvg:type="㇐" d="M37.88,61.4c1.5,0.23,2.75,0.35,4.16,0.23c7.68-0.67,20.23-2.28,24.8-2.85c2.16-0.27,3.66-0.15,5.17,0.22" transform="matrix(1,0,0,1,296,-4)" class="stroke_order_diagram--current_path"></path><circle cx="37.88" cy="61.4" r="8" class="stroke_order_diagram--path_start" transform="matrix(1,0,0,1,296,-4)"></circle><line x1="450" x2="450" y1="1" y2="99" class="stroke_order_diagram--guide_line"></line><line x1="499" x2="499" y1="1" y2="99" class="stroke_order_diagram--bounding_box"></line><path id="pathSk93xdzq03uo" kvg:type="㇔" d="M48.38,11.25c4.38,2.5,8.88,7.75,10.38,11.5" transform="matrix(1,0,0,1,396,-4)" class="stroke_order_diagram--existing_path"></path><path id="pathSk93xdzq03up" kvg:type="㇐" d="M14.88,33.98c2.52,0.54,6.91,0.76,9.42,0.54c22.95-2.02,40.82-4.02,59.99-4.73c4.2-0.16,6.73,0.26,8.83,0.53" transform="matrix(1,0,0,1,396,-4)" class="stroke_order_diagram--existing_path"></path><path id="pathSk93xdzq03uq" kvg:type="㇐" d="M38.63,46.65C40,47,41,47,42.45,46.88c7.06-0.6,18.6-2.27,22.81-2.6c1.86-0.15,3.36-0.15,4.74,0.22" transform="matrix(1,0,0,1,396,-4)" class="stroke_order_diagram--existing_path"></path><path id="pathSk93xdzq03ur" kvg:type="㇐" d="M37.88,61.4c1.5,0.23,2.75,0.35,4.16,0.23c7.68-0.67,20.23-2.28,24.8-2.85c2.16-0.27,3.66-0.15,5.17,0.22" transform="matrix(1,0,0,1,396,-4)" class="stroke_order_diagram--existing_path"></path><path id="kvg:08a00-s5" kvg:type="㇑" d="M37,74.75c0.81,0.81,1.4,1.76,1.53,2.77c0.85,6.73,1.9,11.43,2.89,18.45c0.18,1.24,0.35,2.43,0.54,3.53" transform="matrix(1,0,0,1,396,-4)" class="stroke_order_diagram--current_path"></path><path id="pathSk93xdzq03ut" kvg:type="㇑" d="M37,74.75c0.81,0.81,1.4,1.76,1.53,2.77c0.85,6.73,1.9,11.43,2.89,18.45c0.18,1.24,0.35,2.43,0.54,3.53" transform="matrix(1,0,0,1,396,-4)" class="stroke_order_diagram--current_path"></path><circle cx="37" cy="74.75" r="8" class="stroke_order_diagram--path_start" transform="matrix(1,0,0,1,396,-4)"></circle><line x1="550" x2="550" y1="1" y2="99" class="stroke_order_diagram--guide_line"></line><line x1="599" x2="599" y1="1" y2="99" class="stroke_order_diagram--bounding_box"></line><path id="pathSk93xdzq03uw" kvg:type="㇔" d="M48.38,11.25c4.38,2.5,8.88,7.75,10.38,11.5" transform="matrix(1,0,0,1,496,-4)" class="stroke_order_diagram--existing_path"></path><path id="pathSk93xdzq03ux" kvg:type="㇐" d="M14.88,33.98c2.52,0.54,6.91,0.76,9.42,0.54c22.95-2.02,40.82-4.02,59.99-4.73c4.2-0.16,6.73,0.26,8.83,0.53" transform="matrix(1,0,0,1,496,-4)" class="stroke_order_diagram--existing_path"></path><path id="pathSk93xdzq03uy" kvg:type="㇐" d="M38.63,46.65C40,47,41,47,42.45,46.88c7.06-0.6,18.6-2.27,22.81-2.6c1.86-0.15,3.36-0.15,4.74,0.22" transform="matrix(1,0,0,1,496,-4)" class="stroke_order_diagram--existing_path"></path><path id="pathSk93xdzq03uz" kvg:type="㇐" d="M37.88,61.4c1.5,0.23,2.75,0.35,4.16,0.23c7.68-0.67,20.23-2.28,24.8-2.85c2.16-0.27,3.66-0.15,5.17,0.22" transform="matrix(1,0,0,1,496,-4)" class="stroke_order_diagram--existing_path"></path><path id="pathSk93xdzq03v0" kvg:type="㇑" d="M37,74.75c0.81,0.81,1.4,1.76,1.53,2.77c0.85,6.73,1.9,11.43,2.89,18.45c0.18,1.24,0.35,2.43,0.54,3.53" transform="matrix(1,0,0,1,496,-4)" class="stroke_order_diagram--existing_path"></path><path id="kvg:08a00-s6" kvg:type="㇕b" d="M39.53,76.74c9.24-1.7,22.59-3.37,30.29-4.25c2.21-0.25,3.55,1.17,3.24,2.32c-0.69,2.52-3.74,12.7-4.94,16.98" transform="matrix(1,0,0,1,496,-4)" class="stroke_order_diagram--current_path"></path><path id="pathSk93xdzq03v2" kvg:type="㇕b" d="M39.53,76.74c9.24-1.7,22.59-3.37,30.29-4.25c2.21-0.25,3.55,1.17,3.24,2.32c-0.69,2.52-3.74,12.7-4.94,16.98" transform="matrix(1,0,0,1,496,-4)" class="stroke_order_diagram--current_path"></path><circle cx="39.53" cy="76.74" r="8" class="stroke_order_diagram--path_start" transform="matrix(1,0,0,1,496,-4)"></circle><line x1="650" x2="650" y1="1" y2="99" class="stroke_order_diagram--guide_line"></line><line x1="699" x2="699" y1="1" y2="99" class="stroke_order_diagram--bounding_box"></line><path id="pathSk93xdzq03v5" kvg:type="㇔" d="M48.38,11.25c4.38,2.5,8.88,7.75,10.38,11.5" transform="matrix(1,0,0,1,596,-4)" class="stroke_order_diagram--existing_path"></path><path id="pathSk93xdzq03v6" kvg:type="㇐" d="M14.88,33.98c2.52,0.54,6.91,0.76,9.42,0.54c22.95-2.02,40.82-4.02,59.99-4.73c4.2-0.16,6.73,0.26,8.83,0.53" transform="matrix(1,0,0,1,596,-4)" class="stroke_order_diagram--existing_path"></path><path id="pathSk93xdzq03v7" kvg:type="㇐" d="M38.63,46.65C40,47,41,47,42.45,46.88c7.06-0.6,18.6-2.27,22.81-2.6c1.86-0.15,3.36-0.15,4.74,0.22" transform="matrix(1,0,0,1,596,-4)" class="stroke_order_diagram--existing_path"></path><path id="pathSk93xdzq03v8" kvg:type="㇐" d="M37.88,61.4c1.5,0.23,2.75,0.35,4.16,0.23c7.68-0.67,20.23-2.28,24.8-2.85c2.16-0.27,3.66-0.15,5.17,0.22" transform="matrix(1,0,0,1,596,-4)" class="stroke_order_diagram--existing_path"></path><path id="pathSk93xdzq03v9" kvg:type="㇑" d="M37,74.75c0.81,0.81,1.4,1.76,1.53,2.77c0.85,6.73,1.9,11.43,2.89,18.45c0.18,1.24,0.35,2.43,0.54,3.53" transform="matrix(1,0,0,1,596,-4)" class="stroke_order_diagram--existing_path"></path><path id="pathSk93xdzq03va" kvg:type="㇕b" d="M39.53,76.74c9.24-1.7,22.59-3.37,30.29-4.25c2.21-0.25,3.55,1.17,3.24,2.32c-0.69,2.52-3.74,12.7-4.94,16.98" transform="matrix(1,0,0,1,596,-4)" class="stroke_order_diagram--existing_path"></path><path id="kvg:08a00-s7" kvg:type="㇐b" d="M42.2,95.16c6.19-0.53,16.55-1.39,25.32-2.22c1.33-0.13,2.73-0.12,3.95-0.12" transform="matrix(1,0,0,1,596,-4)" class="stroke_order_diagram--current_path"></path><path id="pathSk93xdzq03vc" kvg:type="㇐b" d="M42.2,95.16c6.19-0.53,16.55-1.39,25.32-2.22c1.33-0.13,2.73-0.12,3.95-0.12" transform="matrix(1,0,0,1,596,-4)" class="stroke_order_diagram--current_path"></path><circle cx="42.2" cy="95.16" r="8" class="stroke_order_diagram--path_start" transform="matrix(1,0,0,1,596,-4)"></circle></svg>