<?xml version="1.0" encoding="UTF-8"?>
<!DOCTYPE svg PUBLIC "-//W3C//DTD SVG 1.0//EN" "http://www.w3.org/TR/2001/REC-SVG-20010904/DTD/svg10.dtd" [
<!ATTLIST g
xmlns:kvg CDATA #FIXED "http://kanjivg.tagaini.net"
kvg:element CDATA #IMPLIED
kvg:variant CDATA #IMPLIED
kvg:partial CDATA #IMPLIED
kvg:original CDATA #IMPLIED
kvg:part CDATA #IMPLIED
kvg:number CDATA #IMPLIED
kvg:tradForm CDATA #IMPLIED
kvg:radicalForm CDATA #IMPLIED
kvg:position CDATA #IMPLIED
kvg:radical CDATA #IMPLIED
kvg:phon CDATA #IMPLIED >
<!ATTLIST path
xmlns:kvg CDATA #FIXED "http://kanjivg.tagaini.net"
kvg:type CDATA #IMPLIED >
]><svg style="width: 700px; height: 100px;" xmlns="http://www.w3.org/2000/svg" xmlns:xlink="http://www.w3.org/1999/xlink" width="700px" height="100px"><style>
.stroke_order_diagram--outer_container {
  width: 100%;
  overflow-x: auto;
  overflow-y: hidden;
}

.stroke_order_diagram--guide_line {
  fill: none;
  stroke: #ddd;
  stroke-width: 3;
  stroke-linecap: square;
  stroke-linejoin: square;
  stroke-dasharray:8, 8;
}

.stroke_order_diagram--bounding_box {
  fill: none;
  stroke: #ddd;
  stroke-width: 4;
  stroke-linecap: square;
  stroke-linejoin: square;
}

.stroke_order_diagram--current_path {
  fill: none;
  stroke: #000;
  stroke-width: 6;
  stroke-linecap: round;
  stroke-linejoin: round;
}

.stroke_order_diagram--existing_path {
  fill: none;
  stroke: #aaa;
  stroke-width: 6;
  stroke-linecap: round;
  stroke-linejoin:round;
}

.stroke_order_diagram--path_start {
  fill: rgba(255, 0, 0, 0.7);
  stroke:none
}</style><desc>Created with Snap</desc><defs></defs><line x1="1" x2="699" y1="1" y2="1" class="stroke_order_diagram--bounding_box"></line><line x1="1" x2="1" y1="1" y2="99" class="stroke_order_diagram--bounding_box"></line><line x1="1" x2="699" y1="99" y2="99" class="stroke_order_diagram--bounding_box"></line><line x1="0" x2="700" y1="50" y2="50" class="stroke_order_diagram--guide_line"></line><line x1="50" x2="50" y1="1" y2="99" class="stroke_order_diagram--guide_line"></line><line x1="99" x2="99" y1="1" y2="99" class="stroke_order_diagram--bounding_box"></line><path id="kvg:08c78-s1" kvg:type="㇒" d="M65.24,9c0.1,0.5,0.39,1.43-0.2,1.99c-7.43,6.99-18.42,13.41-37.79,19.05" transform="matrix(1,0,0,1,-4,-4)" class="stroke_order_diagram--current_path"></path><path id="pathSk940yk7k40z" kvg:type="㇒" d="M65.24,9c0.1,0.5,0.39,1.43-0.2,1.99c-7.43,6.99-18.42,13.41-37.79,19.05" transform="matrix(1,0,0,1,-4,-4)" class="stroke_order_diagram--current_path"></path><circle cx="65.24" cy="9" r="8" class="stroke_order_diagram--path_start" transform="matrix(1,0,0,1,-4,-4)"></circle><line x1="150" x2="150" y1="1" y2="99" class="stroke_order_diagram--guide_line"></line><line x1="199" x2="199" y1="1" y2="99" class="stroke_order_diagram--bounding_box"></line><path id="pathSk940yk7k412" kvg:type="㇒" d="M65.24,9c0.1,0.5,0.39,1.43-0.2,1.99c-7.43,6.99-18.42,13.41-37.79,19.05" transform="matrix(1,0,0,1,96,-4)" class="stroke_order_diagram--existing_path"></path><path id="kvg:08c78-s2" kvg:type="㇔" d="M35,29.5c3,2.21,7.75,9.07,8.5,12.5" transform="matrix(1,0,0,1,96,-4)" class="stroke_order_diagram--current_path"></path><path id="pathSk940yk7k414" kvg:type="㇔" d="M35,29.5c3,2.21,7.75,9.07,8.5,12.5" transform="matrix(1,0,0,1,96,-4)" class="stroke_order_diagram--current_path"></path><circle cx="35" cy="29.5" r="8" class="stroke_order_diagram--path_start" transform="matrix(1,0,0,1,96,-4)"></circle><line x1="250" x2="250" y1="1" y2="99" class="stroke_order_diagram--guide_line"></line><line x1="299" x2="299" y1="1" y2="99" class="stroke_order_diagram--bounding_box"></line><path id="pathSk940yk7k417" kvg:type="㇒" d="M65.24,9c0.1,0.5,0.39,1.43-0.2,1.99c-7.43,6.99-18.42,13.41-37.79,19.05" transform="matrix(1,0,0,1,196,-4)" class="stroke_order_diagram--existing_path"></path><path id="pathSk940yk7k418" kvg:type="㇔" d="M35,29.5c3,2.21,7.75,9.07,8.5,12.5" transform="matrix(1,0,0,1,196,-4)" class="stroke_order_diagram--existing_path"></path><path id="kvg:08c78-s3" kvg:type="㇔" d="M53.75,21.5c2.65,1.76,6.84,7.26,7.5,10" transform="matrix(1,0,0,1,196,-4)" class="stroke_order_diagram--current_path"></path><path id="pathSk940yk7k41a" kvg:type="㇔" d="M53.75,21.5c2.65,1.76,6.84,7.26,7.5,10" transform="matrix(1,0,0,1,196,-4)" class="stroke_order_diagram--current_path"></path><circle cx="53.75" cy="21.5" r="8" class="stroke_order_diagram--path_start" transform="matrix(1,0,0,1,196,-4)"></circle><line x1="350" x2="350" y1="1" y2="99" class="stroke_order_diagram--guide_line"></line><line x1="399" x2="399" y1="1" y2="99" class="stroke_order_diagram--bounding_box"></line><path id="pathSk940yk7k41d" kvg:type="㇒" d="M65.24,9c0.1,0.5,0.39,1.43-0.2,1.99c-7.43,6.99-18.42,13.41-37.79,19.05" transform="matrix(1,0,0,1,296,-4)" class="stroke_order_diagram--existing_path"></path><path id="pathSk940yk7k41e" kvg:type="㇔" d="M35,29.5c3,2.21,7.75,9.07,8.5,12.5" transform="matrix(1,0,0,1,296,-4)" class="stroke_order_diagram--existing_path"></path><path id="pathSk940yk7k41f" kvg:type="㇔" d="M53.75,21.5c2.65,1.76,6.84,7.26,7.5,10" transform="matrix(1,0,0,1,296,-4)" class="stroke_order_diagram--existing_path"></path><path id="kvg:08c78-s4" kvg:type="㇒" d="M75.2,20.5c0.13,0.74,0.51,2.13-0.26,2.96c-9.53,10.4-23.61,19.94-48.44,28.33" transform="matrix(1,0,0,1,296,-4)" class="stroke_order_diagram--current_path"></path><path id="pathSk940yk7k41h" kvg:type="㇒" d="M75.2,20.5c0.13,0.74,0.51,2.13-0.26,2.96c-9.53,10.4-23.61,19.94-48.44,28.33" transform="matrix(1,0,0,1,296,-4)" class="stroke_order_diagram--current_path"></path><circle cx="75.2" cy="20.5" r="8" class="stroke_order_diagram--path_start" transform="matrix(1,0,0,1,296,-4)"></circle><line x1="450" x2="450" y1="1" y2="99" class="stroke_order_diagram--guide_line"></line><line x1="499" x2="499" y1="1" y2="99" class="stroke_order_diagram--bounding_box"></line><path id="pathSk940yk7k41k" kvg:type="㇒" d="M65.24,9c0.1,0.5,0.39,1.43-0.2,1.99c-7.43,6.99-18.42,13.41-37.79,19.05" transform="matrix(1,0,0,1,396,-4)" class="stroke_order_diagram--existing_path"></path><path id="pathSk940yk7k41l" kvg:type="㇔" d="M35,29.5c3,2.21,7.75,9.07,8.5,12.5" transform="matrix(1,0,0,1,396,-4)" class="stroke_order_diagram--existing_path"></path><path id="pathSk940yk7k41m" kvg:type="㇔" d="M53.75,21.5c2.65,1.76,6.84,7.26,7.5,10" transform="matrix(1,0,0,1,396,-4)" class="stroke_order_diagram--existing_path"></path><path id="pathSk940yk7k41n" kvg:type="㇒" d="M75.2,20.5c0.13,0.74,0.51,2.13-0.26,2.96c-9.53,10.4-23.61,19.94-48.44,28.33" transform="matrix(1,0,0,1,396,-4)" class="stroke_order_diagram--existing_path"></path><path id="kvg:08c78-s5" kvg:type="㇕v" d="M57.75,39C69,45.75,75.11,72.45,66.83,93.33c-4.83,12.17-9.64,1.12-10.89,0.06" transform="matrix(1,0,0,1,396,-4)" class="stroke_order_diagram--current_path"></path><path id="pathSk940yk7k41p" kvg:type="㇕v" d="M57.75,39C69,45.75,75.11,72.45,66.83,93.33c-4.83,12.17-9.64,1.12-10.89,0.06" transform="matrix(1,0,0,1,396,-4)" class="stroke_order_diagram--current_path"></path><circle cx="57.75" cy="39" r="8" class="stroke_order_diagram--path_start" transform="matrix(1,0,0,1,396,-4)"></circle><line x1="550" x2="550" y1="1" y2="99" class="stroke_order_diagram--guide_line"></line><line x1="599" x2="599" y1="1" y2="99" class="stroke_order_diagram--bounding_box"></line><path id="pathSk940yk7k41s" kvg:type="㇒" d="M65.24,9c0.1,0.5,0.39,1.43-0.2,1.99c-7.43,6.99-18.42,13.41-37.79,19.05" transform="matrix(1,0,0,1,496,-4)" class="stroke_order_diagram--existing_path"></path><path id="pathSk940yk7k41t" kvg:type="㇔" d="M35,29.5c3,2.21,7.75,9.07,8.5,12.5" transform="matrix(1,0,0,1,496,-4)" class="stroke_order_diagram--existing_path"></path><path id="pathSk940yk7k41u" kvg:type="㇔" d="M53.75,21.5c2.65,1.76,6.84,7.26,7.5,10" transform="matrix(1,0,0,1,496,-4)" class="stroke_order_diagram--existing_path"></path><path id="pathSk940yk7k41v" kvg:type="㇒" d="M75.2,20.5c0.13,0.74,0.51,2.13-0.26,2.96c-9.53,10.4-23.61,19.94-48.44,28.33" transform="matrix(1,0,0,1,496,-4)" class="stroke_order_diagram--existing_path"></path><path id="pathSk940yk7k41w" kvg:type="㇕v" d="M57.75,39C69,45.75,75.11,72.45,66.83,93.33c-4.83,12.17-9.64,1.12-10.89,0.06" transform="matrix(1,0,0,1,496,-4)" class="stroke_order_diagram--existing_path"></path><path id="kvg:08c78-s6" kvg:type="㇒" d="M60.75,44.75c0.09,0.59,0.19,1.53-0.18,2.38c-2.22,5.02-14.98,16.03-32.43,22.77" transform="matrix(1,0,0,1,496,-4)" class="stroke_order_diagram--current_path"></path><path id="pathSk940yk7k41y" kvg:type="㇒" d="M60.75,44.75c0.09,0.59,0.19,1.53-0.18,2.38c-2.22,5.02-14.98,16.03-32.43,22.77" transform="matrix(1,0,0,1,496,-4)" class="stroke_order_diagram--current_path"></path><circle cx="60.75" cy="44.75" r="8" class="stroke_order_diagram--path_start" transform="matrix(1,0,0,1,496,-4)"></circle><line x1="650" x2="650" y1="1" y2="99" class="stroke_order_diagram--guide_line"></line><line x1="699" x2="699" y1="1" y2="99" class="stroke_order_diagram--bounding_box"></line><path id="pathSk940yk7k421" kvg:type="㇒" d="M65.24,9c0.1,0.5,0.39,1.43-0.2,1.99c-7.43,6.99-18.42,13.41-37.79,19.05" transform="matrix(1,0,0,1,596,-4)" class="stroke_order_diagram--existing_path"></path><path id="pathSk940yk7k422" kvg:type="㇔" d="M35,29.5c3,2.21,7.75,9.07,8.5,12.5" transform="matrix(1,0,0,1,596,-4)" class="stroke_order_diagram--existing_path"></path><path id="pathSk940yk7k423" kvg:type="㇔" d="M53.75,21.5c2.65,1.76,6.84,7.26,7.5,10" transform="matrix(1,0,0,1,596,-4)" class="stroke_order_diagram--existing_path"></path><path id="pathSk940yk7k424" kvg:type="㇒" d="M75.2,20.5c0.13,0.74,0.51,2.13-0.26,2.96c-9.53,10.4-23.61,19.94-48.44,28.33" transform="matrix(1,0,0,1,596,-4)" class="stroke_order_diagram--existing_path"></path><path id="pathSk940yk7k425" kvg:type="㇕v" d="M57.75,39C69,45.75,75.11,72.45,66.83,93.33c-4.83,12.17-9.64,1.12-10.89,0.06" transform="matrix(1,0,0,1,596,-4)" class="stroke_order_diagram--existing_path"></path><path id="pathSk940yk7k426" kvg:type="㇒" d="M60.75,44.75c0.09,0.59,0.19,1.53-0.18,2.38c-2.22,5.02-14.98,16.03-32.43,22.77" transform="matrix(1,0,0,1,596,-4)" class="stroke_order_diagram--existing_path"></path><path id="kvg:08c78-s7" kvg:type="㇒" d="M65.25,56.75c0.1,0.81,0.44,2.19-0.21,3.24C60.25,67.75,47.25,80.75,28.75,91" transform="matrix(1,0,0,1,596,-4)" class="stroke_order_diagram--current_path"></path><path id="pathSk940yk7k428" kvg:type="㇒" d="M65.25,56.75c0.1,0.81,0.44,2.19-0.21,3.24C60.25,67.75,47.25,80.75,28.75,91" transform="matrix(1,0,0,1,596,-4)" class="stroke_order_diagram--current_path"></path><circle cx="65.25" cy="56.75" r="8" class="stroke_order_diagram--path_start" transform="matrix(1,0,0,1,596,-4)"></circle></svg>