<?xml version="1.0" encoding="UTF-8"?>
<!DOCTYPE svg PUBLIC "-//W3C//DTD SVG 1.0//EN" "http://www.w3.org/TR/2001/REC-SVG-20010904/DTD/svg10.dtd" [
<!ATTLIST g
xmlns:kvg CDATA #FIXED "http://kanjivg.tagaini.net"
kvg:element CDATA #IMPLIED
kvg:variant CDATA #IMPLIED
kvg:partial CDATA #IMPLIED
kvg:original CDATA #IMPLIED
kvg:part CDATA #IMPLIED
kvg:number CDATA #IMPLIED
kvg:tradForm CDATA #IMPLIED
kvg:radicalForm CDATA #IMPLIED
kvg:position CDATA #IMPLIED
kvg:radical CDATA #IMPLIED
kvg:phon CDATA #IMPLIED >
<!ATTLIST path
xmlns:kvg CDATA #FIXED "http://kanjivg.tagaini.net"
kvg:type CDATA #IMPLIED >
]><svg style="width: 700px; height: 100px;" xmlns="http://www.w3.org/2000/svg" xmlns:xlink="http://www.w3.org/1999/xlink" width="700px" height="100px"><style>
.stroke_order_diagram--outer_container {
  width: 100%;
  overflow-x: auto;
  overflow-y: hidden;
}

.stroke_order_diagram--guide_line {
  fill: none;
  stroke: #ddd;
  stroke-width: 3;
  stroke-linecap: square;
  stroke-linejoin: square;
  stroke-dasharray:8, 8;
}

.stroke_order_diagram--bounding_box {
  fill: none;
  stroke: #ddd;
  stroke-width: 4;
  stroke-linecap: square;
  stroke-linejoin: square;
}

.stroke_order_diagram--current_path {
  fill: none;
  stroke: #000;
  stroke-width: 6;
  stroke-linecap: round;
  stroke-linejoin: round;
}

.stroke_order_diagram--existing_path {
  fill: none;
  stroke: #aaa;
  stroke-width: 6;
  stroke-linecap: round;
  stroke-linejoin:round;
}

.stroke_order_diagram--path_start {
  fill: rgba(255, 0, 0, 0.7);
  stroke:none
}</style><desc>Created with Snap</desc><defs></defs><line x1="1" x2="699" y1="1" y2="1" class="stroke_order_diagram--bounding_box"></line><line x1="1" x2="1" y1="1" y2="99" class="stroke_order_diagram--bounding_box"></line><line x1="1" x2="699" y1="99" y2="99" class="stroke_order_diagram--bounding_box"></line><line x1="0" x2="700" y1="50" y2="50" class="stroke_order_diagram--guide_line"></line><line x1="50" x2="50" y1="1" y2="99" class="stroke_order_diagram--guide_line"></line><line x1="99" x2="99" y1="1" y2="99" class="stroke_order_diagram--bounding_box"></line><path id="kvg:08c9d-s1" kvg:type="㇑" d="M31.75,17.8c1.16,1.16,1.68,2.84,1.68,4.63c0,1.49-0.18,33.31-0.18,48.31c0,3.5-0.07,3.62-0.07,6.5" transform="matrix(1,0,0,1,-4,-4)" class="stroke_order_diagram--current_path"></path><path id="pathSk940yk7k42p" kvg:type="㇑" d="M31.75,17.8c1.16,1.16,1.68,2.84,1.68,4.63c0,1.49-0.18,33.31-0.18,48.31c0,3.5-0.07,3.62-0.07,6.5" transform="matrix(1,0,0,1,-4,-4)" class="stroke_order_diagram--current_path"></path><circle cx="31.75" cy="17.8" r="8" class="stroke_order_diagram--path_start" transform="matrix(1,0,0,1,-4,-4)"></circle><line x1="150" x2="150" y1="1" y2="99" class="stroke_order_diagram--guide_line"></line><line x1="199" x2="199" y1="1" y2="99" class="stroke_order_diagram--bounding_box"></line><path id="pathSk940yk7k42s" kvg:type="㇑" d="M31.75,17.8c1.16,1.16,1.68,2.84,1.68,4.63c0,1.49-0.18,33.31-0.18,48.31c0,3.5-0.07,3.62-0.07,6.5" transform="matrix(1,0,0,1,96,-4)" class="stroke_order_diagram--existing_path"></path><path id="kvg:08c9d-s2" kvg:type="㇕a" d="M33.82,19.85c7.3-0.73,30.8-3.48,37.67-4.11c2.94-0.27,4.51,1,4.51,3.66c0,3.09-0.5,32.69-0.74,47.84c-0.08,4.93-0.13,8.28-0.13,8.6" transform="matrix(1,0,0,1,96,-4)" class="stroke_order_diagram--current_path"></path><path id="pathSk940yk7k42u" kvg:type="㇕a" d="M33.82,19.85c7.3-0.73,30.8-3.48,37.67-4.11c2.94-0.27,4.51,1,4.51,3.66c0,3.09-0.5,32.69-0.74,47.84c-0.08,4.93-0.13,8.28-0.13,8.6" transform="matrix(1,0,0,1,96,-4)" class="stroke_order_diagram--current_path"></path><circle cx="33.82" cy="19.85" r="8" class="stroke_order_diagram--path_start" transform="matrix(1,0,0,1,96,-4)"></circle><line x1="250" x2="250" y1="1" y2="99" class="stroke_order_diagram--guide_line"></line><line x1="299" x2="299" y1="1" y2="99" class="stroke_order_diagram--bounding_box"></line><path id="pathSk940yk7k42x" kvg:type="㇑" d="M31.75,17.8c1.16,1.16,1.68,2.84,1.68,4.63c0,1.49-0.18,33.31-0.18,48.31c0,3.5-0.07,3.62-0.07,6.5" transform="matrix(1,0,0,1,196,-4)" class="stroke_order_diagram--existing_path"></path><path id="pathSk940yk7k42y" kvg:type="㇕a" d="M33.82,19.85c7.3-0.73,30.8-3.48,37.67-4.11c2.94-0.27,4.51,1,4.51,3.66c0,3.09-0.5,32.69-0.74,47.84c-0.08,4.93-0.13,8.28-0.13,8.6" transform="matrix(1,0,0,1,196,-4)" class="stroke_order_diagram--existing_path"></path><path id="kvg:08c9d-s3" kvg:type="㇐a" d="M34.76,38.26c8.99-1.26,33.57-3.64,39.78-3.64" transform="matrix(1,0,0,1,196,-4)" class="stroke_order_diagram--current_path"></path><path id="pathSk940yk7k430" kvg:type="㇐a" d="M34.76,38.26c8.99-1.26,33.57-3.64,39.78-3.64" transform="matrix(1,0,0,1,196,-4)" class="stroke_order_diagram--current_path"></path><circle cx="34.76" cy="38.26" r="8" class="stroke_order_diagram--path_start" transform="matrix(1,0,0,1,196,-4)"></circle><line x1="350" x2="350" y1="1" y2="99" class="stroke_order_diagram--guide_line"></line><line x1="399" x2="399" y1="1" y2="99" class="stroke_order_diagram--bounding_box"></line><path id="pathSk940yk7k433" kvg:type="㇑" d="M31.75,17.8c1.16,1.16,1.68,2.84,1.68,4.63c0,1.49-0.18,33.31-0.18,48.31c0,3.5-0.07,3.62-0.07,6.5" transform="matrix(1,0,0,1,296,-4)" class="stroke_order_diagram--existing_path"></path><path id="pathSk940yk7k434" kvg:type="㇕a" d="M33.82,19.85c7.3-0.73,30.8-3.48,37.67-4.11c2.94-0.27,4.51,1,4.51,3.66c0,3.09-0.5,32.69-0.74,47.84c-0.08,4.93-0.13,8.28-0.13,8.6" transform="matrix(1,0,0,1,296,-4)" class="stroke_order_diagram--existing_path"></path><path id="pathSk940yk7k435" kvg:type="㇐a" d="M34.76,38.26c8.99-1.26,33.57-3.64,39.78-3.64" transform="matrix(1,0,0,1,296,-4)" class="stroke_order_diagram--existing_path"></path><path id="kvg:08c9d-s4" kvg:type="㇐a" d="M34.82,55.24c10.93-0.99,27.93-2.99,39.51-3.18" transform="matrix(1,0,0,1,296,-4)" class="stroke_order_diagram--current_path"></path><path id="pathSk940yk7k437" kvg:type="㇐a" d="M34.82,55.24c10.93-0.99,27.93-2.99,39.51-3.18" transform="matrix(1,0,0,1,296,-4)" class="stroke_order_diagram--current_path"></path><circle cx="34.82" cy="55.24" r="8" class="stroke_order_diagram--path_start" transform="matrix(1,0,0,1,296,-4)"></circle><line x1="450" x2="450" y1="1" y2="99" class="stroke_order_diagram--guide_line"></line><line x1="499" x2="499" y1="1" y2="99" class="stroke_order_diagram--bounding_box"></line><path id="pathSk940yk7k43a" kvg:type="㇑" d="M31.75,17.8c1.16,1.16,1.68,2.84,1.68,4.63c0,1.49-0.18,33.31-0.18,48.31c0,3.5-0.07,3.62-0.07,6.5" transform="matrix(1,0,0,1,396,-4)" class="stroke_order_diagram--existing_path"></path><path id="pathSk940yk7k43b" kvg:type="㇕a" d="M33.82,19.85c7.3-0.73,30.8-3.48,37.67-4.11c2.94-0.27,4.51,1,4.51,3.66c0,3.09-0.5,32.69-0.74,47.84c-0.08,4.93-0.13,8.28-0.13,8.6" transform="matrix(1,0,0,1,396,-4)" class="stroke_order_diagram--existing_path"></path><path id="pathSk940yk7k43c" kvg:type="㇐a" d="M34.76,38.26c8.99-1.26,33.57-3.64,39.78-3.64" transform="matrix(1,0,0,1,396,-4)" class="stroke_order_diagram--existing_path"></path><path id="pathSk940yk7k43d" kvg:type="㇐a" d="M34.82,55.24c10.93-0.99,27.93-2.99,39.51-3.18" transform="matrix(1,0,0,1,396,-4)" class="stroke_order_diagram--existing_path"></path><path id="kvg:08c9d-s5" kvg:type="㇐a" d="M34.57,73.74C45.5,73,64.12,71.05,74.08,71.05" transform="matrix(1,0,0,1,396,-4)" class="stroke_order_diagram--current_path"></path><path id="pathSk940yk7k43f" kvg:type="㇐a" d="M34.57,73.74C45.5,73,64.12,71.05,74.08,71.05" transform="matrix(1,0,0,1,396,-4)" class="stroke_order_diagram--current_path"></path><circle cx="34.57" cy="73.74" r="8" class="stroke_order_diagram--path_start" transform="matrix(1,0,0,1,396,-4)"></circle><line x1="550" x2="550" y1="1" y2="99" class="stroke_order_diagram--guide_line"></line><line x1="599" x2="599" y1="1" y2="99" class="stroke_order_diagram--bounding_box"></line><path id="pathSk940yk7k43i" kvg:type="㇑" d="M31.75,17.8c1.16,1.16,1.68,2.84,1.68,4.63c0,1.49-0.18,33.31-0.18,48.31c0,3.5-0.07,3.62-0.07,6.5" transform="matrix(1,0,0,1,496,-4)" class="stroke_order_diagram--existing_path"></path><path id="pathSk940yk7k43j" kvg:type="㇕a" d="M33.82,19.85c7.3-0.73,30.8-3.48,37.67-4.11c2.94-0.27,4.51,1,4.51,3.66c0,3.09-0.5,32.69-0.74,47.84c-0.08,4.93-0.13,8.28-0.13,8.6" transform="matrix(1,0,0,1,496,-4)" class="stroke_order_diagram--existing_path"></path><path id="pathSk940yk7k43k" kvg:type="㇐a" d="M34.76,38.26c8.99-1.26,33.57-3.64,39.78-3.64" transform="matrix(1,0,0,1,496,-4)" class="stroke_order_diagram--existing_path"></path><path id="pathSk940yk7k43l" kvg:type="㇐a" d="M34.82,55.24c10.93-0.99,27.93-2.99,39.51-3.18" transform="matrix(1,0,0,1,496,-4)" class="stroke_order_diagram--existing_path"></path><path id="pathSk940yk7k43m" kvg:type="㇐a" d="M34.57,73.74C45.5,73,64.12,71.05,74.08,71.05" transform="matrix(1,0,0,1,496,-4)" class="stroke_order_diagram--existing_path"></path><path id="kvg:08c9d-s6" kvg:type="㇒" d="M41.95,80.5c0.55,1.41-0.42,3.3-1.5,4.33C37.17,87.94,28.56,94.07,22,97.75" transform="matrix(1,0,0,1,496,-4)" class="stroke_order_diagram--current_path"></path><path id="pathSk940yk7k43o" kvg:type="㇒" d="M41.95,80.5c0.55,1.41-0.42,3.3-1.5,4.33C37.17,87.94,28.56,94.07,22,97.75" transform="matrix(1,0,0,1,496,-4)" class="stroke_order_diagram--current_path"></path><circle cx="41.95" cy="80.5" r="8" class="stroke_order_diagram--path_start" transform="matrix(1,0,0,1,496,-4)"></circle><line x1="650" x2="650" y1="1" y2="99" class="stroke_order_diagram--guide_line"></line><line x1="699" x2="699" y1="1" y2="99" class="stroke_order_diagram--bounding_box"></line><path id="pathSk940yk7k43r" kvg:type="㇑" d="M31.75,17.8c1.16,1.16,1.68,2.84,1.68,4.63c0,1.49-0.18,33.31-0.18,48.31c0,3.5-0.07,3.62-0.07,6.5" transform="matrix(1,0,0,1,596,-4)" class="stroke_order_diagram--existing_path"></path><path id="pathSk940yk7k43s" kvg:type="㇕a" d="M33.82,19.85c7.3-0.73,30.8-3.48,37.67-4.11c2.94-0.27,4.51,1,4.51,3.66c0,3.09-0.5,32.69-0.74,47.84c-0.08,4.93-0.13,8.28-0.13,8.6" transform="matrix(1,0,0,1,596,-4)" class="stroke_order_diagram--existing_path"></path><path id="pathSk940yk7k43t" kvg:type="㇐a" d="M34.76,38.26c8.99-1.26,33.57-3.64,39.78-3.64" transform="matrix(1,0,0,1,596,-4)" class="stroke_order_diagram--existing_path"></path><path id="pathSk940yk7k43u" kvg:type="㇐a" d="M34.82,55.24c10.93-0.99,27.93-2.99,39.51-3.18" transform="matrix(1,0,0,1,596,-4)" class="stroke_order_diagram--existing_path"></path><path id="pathSk940yk7k43v" kvg:type="㇐a" d="M34.57,73.74C45.5,73,64.12,71.05,74.08,71.05" transform="matrix(1,0,0,1,596,-4)" class="stroke_order_diagram--existing_path"></path><path id="pathSk940yk7k43w" kvg:type="㇒" d="M41.95,80.5c0.55,1.41-0.42,3.3-1.5,4.33C37.17,87.94,28.56,94.07,22,97.75" transform="matrix(1,0,0,1,596,-4)" class="stroke_order_diagram--existing_path"></path><path id="kvg:08c9d-s7" kvg:type="㇔" d="M65.75,80C72.78,84.75,81.08,93.35,83,97.5" transform="matrix(1,0,0,1,596,-4)" class="stroke_order_diagram--current_path"></path><path id="pathSk940yk7k43y" kvg:type="㇔" d="M65.75,80C72.78,84.75,81.08,93.35,83,97.5" transform="matrix(1,0,0,1,596,-4)" class="stroke_order_diagram--current_path"></path><circle cx="65.75" cy="80" r="8" class="stroke_order_diagram--path_start" transform="matrix(1,0,0,1,596,-4)"></circle></svg>