<?xml version="1.0" encoding="UTF-8"?>
<!DOCTYPE svg PUBLIC "-//W3C//DTD SVG 1.0//EN" "http://www.w3.org/TR/2001/REC-SVG-20010904/DTD/svg10.dtd" [
<!ATTLIST g
xmlns:kvg CDATA #FIXED "http://kanjivg.tagaini.net"
kvg:element CDATA #IMPLIED
kvg:variant CDATA #IMPLIED
kvg:partial CDATA #IMPLIED
kvg:original CDATA #IMPLIED
kvg:part CDATA #IMPLIED
kvg:number CDATA #IMPLIED
kvg:tradForm CDATA #IMPLIED
kvg:radicalForm CDATA #IMPLIED
kvg:position CDATA #IMPLIED
kvg:radical CDATA #IMPLIED
kvg:phon CDATA #IMPLIED >
<!ATTLIST path
xmlns:kvg CDATA #FIXED "http://kanjivg.tagaini.net"
kvg:type CDATA #IMPLIED >
]><svg style="width: 700px; height: 100px;" xmlns="http://www.w3.org/2000/svg" xmlns:xlink="http://www.w3.org/1999/xlink" width="700px" height="100px"><style>
.stroke_order_diagram--outer_container {
  width: 100%;
  overflow-x: auto;
  overflow-y: hidden;
}

.stroke_order_diagram--guide_line {
  fill: none;
  stroke: #ddd;
  stroke-width: 3;
  stroke-linecap: square;
  stroke-linejoin: square;
  stroke-dasharray:8, 8;
}

.stroke_order_diagram--bounding_box {
  fill: none;
  stroke: #ddd;
  stroke-width: 4;
  stroke-linecap: square;
  stroke-linejoin: square;
}

.stroke_order_diagram--current_path {
  fill: none;
  stroke: #000;
  stroke-width: 6;
  stroke-linecap: round;
  stroke-linejoin: round;
}

.stroke_order_diagram--existing_path {
  fill: none;
  stroke: #aaa;
  stroke-width: 6;
  stroke-linecap: round;
  stroke-linejoin:round;
}

.stroke_order_diagram--path_start {
  fill: rgba(255, 0, 0, 0.7);
  stroke:none
}</style><desc>Created with Snap</desc><defs></defs><line x1="1" x2="699" y1="1" y2="1" class="stroke_order_diagram--bounding_box"></line><line x1="1" x2="1" y1="1" y2="99" class="stroke_order_diagram--bounding_box"></line><line x1="1" x2="699" y1="99" y2="99" class="stroke_order_diagram--bounding_box"></line><line x1="0" x2="700" y1="50" y2="50" class="stroke_order_diagram--guide_line"></line><line x1="50" x2="50" y1="1" y2="99" class="stroke_order_diagram--guide_line"></line><line x1="99" x2="99" y1="1" y2="99" class="stroke_order_diagram--bounding_box"></line><path id="kvg:08db3-s1" kvg:type="㇑" d="M29.75,18.99c0.82,0.82,1.43,1.68,1.66,2.33c1.15,3.39,3.44,13.48,4.61,18.68c0.34,1.51,0.59,2.61,0.68,3" transform="matrix(1,0,0,1,-4,-4)" class="stroke_order_diagram--current_path"></path><path id="pathSk940yk7k47v" kvg:type="㇑" d="M29.75,18.99c0.82,0.82,1.43,1.68,1.66,2.33c1.15,3.39,3.44,13.48,4.61,18.68c0.34,1.51,0.59,2.61,0.68,3" transform="matrix(1,0,0,1,-4,-4)" class="stroke_order_diagram--current_path"></path><circle cx="29.75" cy="18.99" r="8" class="stroke_order_diagram--path_start" transform="matrix(1,0,0,1,-4,-4)"></circle><line x1="150" x2="150" y1="1" y2="99" class="stroke_order_diagram--guide_line"></line><line x1="199" x2="199" y1="1" y2="99" class="stroke_order_diagram--bounding_box"></line><path id="pathSk940yk7k47y" kvg:type="㇑" d="M29.75,18.99c0.82,0.82,1.43,1.68,1.66,2.33c1.15,3.39,3.44,13.48,4.61,18.68c0.34,1.51,0.59,2.61,0.68,3" transform="matrix(1,0,0,1,96,-4)" class="stroke_order_diagram--existing_path"></path><path id="kvg:08db3-s2" kvg:type="㇕b" d="M31.56,19.63c12.09-1.87,34.1-5.01,40.27-5.14c2.89-0.06,3.98,2.41,3.7,3.88c-0.73,3.84-3.94,15.23-4.51,17.27" transform="matrix(1,0,0,1,96,-4)" class="stroke_order_diagram--current_path"></path><path id="pathSk940yk7k480" kvg:type="㇕b" d="M31.56,19.63c12.09-1.87,34.1-5.01,40.27-5.14c2.89-0.06,3.98,2.41,3.7,3.88c-0.73,3.84-3.94,15.23-4.51,17.27" transform="matrix(1,0,0,1,96,-4)" class="stroke_order_diagram--current_path"></path><circle cx="31.56" cy="19.63" r="8" class="stroke_order_diagram--path_start" transform="matrix(1,0,0,1,96,-4)"></circle><line x1="250" x2="250" y1="1" y2="99" class="stroke_order_diagram--guide_line"></line><line x1="299" x2="299" y1="1" y2="99" class="stroke_order_diagram--bounding_box"></line><path id="pathSk940yk7k483" kvg:type="㇑" d="M29.75,18.99c0.82,0.82,1.43,1.68,1.66,2.33c1.15,3.39,3.44,13.48,4.61,18.68c0.34,1.51,0.59,2.61,0.68,3" transform="matrix(1,0,0,1,196,-4)" class="stroke_order_diagram--existing_path"></path><path id="pathSk940yk7k484" kvg:type="㇕b" d="M31.56,19.63c12.09-1.87,34.1-5.01,40.27-5.14c2.89-0.06,3.98,2.41,3.7,3.88c-0.73,3.84-3.94,15.23-4.51,17.27" transform="matrix(1,0,0,1,196,-4)" class="stroke_order_diagram--existing_path"></path><path id="kvg:08db3-s3" kvg:type="㇐b" d="M37.25,40.74c7.07-0.43,20.75-2.48,31.53-3.73c1.71-0.2,3.34-0.14,4.86-0.32" transform="matrix(1,0,0,1,196,-4)" class="stroke_order_diagram--current_path"></path><path id="pathSk940yk7k486" kvg:type="㇐b" d="M37.25,40.74c7.07-0.43,20.75-2.48,31.53-3.73c1.71-0.2,3.34-0.14,4.86-0.32" transform="matrix(1,0,0,1,196,-4)" class="stroke_order_diagram--current_path"></path><circle cx="37.25" cy="40.74" r="8" class="stroke_order_diagram--path_start" transform="matrix(1,0,0,1,196,-4)"></circle><line x1="350" x2="350" y1="1" y2="99" class="stroke_order_diagram--guide_line"></line><line x1="399" x2="399" y1="1" y2="99" class="stroke_order_diagram--bounding_box"></line><path id="pathSk940yk7k489" kvg:type="㇑" d="M29.75,18.99c0.82,0.82,1.43,1.68,1.66,2.33c1.15,3.39,3.44,13.48,4.61,18.68c0.34,1.51,0.59,2.61,0.68,3" transform="matrix(1,0,0,1,296,-4)" class="stroke_order_diagram--existing_path"></path><path id="pathSk940yk7k48a" kvg:type="㇕b" d="M31.56,19.63c12.09-1.87,34.1-5.01,40.27-5.14c2.89-0.06,3.98,2.41,3.7,3.88c-0.73,3.84-3.94,15.23-4.51,17.27" transform="matrix(1,0,0,1,296,-4)" class="stroke_order_diagram--existing_path"></path><path id="pathSk940yk7k48b" kvg:type="㇐b" d="M37.25,40.74c7.07-0.43,20.75-2.48,31.53-3.73c1.71-0.2,3.34-0.14,4.86-0.32" transform="matrix(1,0,0,1,296,-4)" class="stroke_order_diagram--existing_path"></path><path id="kvg:08db3-s4" kvg:type="㇑a" d="M52.75,41c0.81,0.81,1.4,1.75,1.4,3.62c0,5.11,0.37,32.49,0.35,33.88" transform="matrix(1,0,0,1,296,-4)" class="stroke_order_diagram--current_path"></path><path id="pathSk940yk7k48d" kvg:type="㇑a" d="M52.75,41c0.81,0.81,1.4,1.75,1.4,3.62c0,5.11,0.37,32.49,0.35,33.88" transform="matrix(1,0,0,1,296,-4)" class="stroke_order_diagram--current_path"></path><circle cx="52.75" cy="41" r="8" class="stroke_order_diagram--path_start" transform="matrix(1,0,0,1,296,-4)"></circle><line x1="450" x2="450" y1="1" y2="99" class="stroke_order_diagram--guide_line"></line><line x1="499" x2="499" y1="1" y2="99" class="stroke_order_diagram--bounding_box"></line><path id="pathSk940yk7k48g" kvg:type="㇑" d="M29.75,18.99c0.82,0.82,1.43,1.68,1.66,2.33c1.15,3.39,3.44,13.48,4.61,18.68c0.34,1.51,0.59,2.61,0.68,3" transform="matrix(1,0,0,1,396,-4)" class="stroke_order_diagram--existing_path"></path><path id="pathSk940yk7k48h" kvg:type="㇕b" d="M31.56,19.63c12.09-1.87,34.1-5.01,40.27-5.14c2.89-0.06,3.98,2.41,3.7,3.88c-0.73,3.84-3.94,15.23-4.51,17.27" transform="matrix(1,0,0,1,396,-4)" class="stroke_order_diagram--existing_path"></path><path id="pathSk940yk7k48i" kvg:type="㇐b" d="M37.25,40.74c7.07-0.43,20.75-2.48,31.53-3.73c1.71-0.2,3.34-0.14,4.86-0.32" transform="matrix(1,0,0,1,396,-4)" class="stroke_order_diagram--existing_path"></path><path id="pathSk940yk7k48j" kvg:type="㇑a" d="M52.75,41c0.81,0.81,1.4,1.75,1.4,3.62c0,5.11,0.37,32.49,0.35,33.88" transform="matrix(1,0,0,1,396,-4)" class="stroke_order_diagram--existing_path"></path><path id="kvg:08db3-s5" kvg:type="㇐b" d="M55.75,59.25C56.94,59.25,66.25,57.75,73.54,56.53C75.08,56.27,76.53,56.25,77.75,56.25" transform="matrix(1,0,0,1,396,-4)" class="stroke_order_diagram--current_path"></path><path id="pathSk940yk7k48l" kvg:type="㇐b" d="M55.75,59.25C56.94,59.25,66.25,57.75,73.54,56.53C75.08,56.27,76.53,56.25,77.75,56.25" transform="matrix(1,0,0,1,396,-4)" class="stroke_order_diagram--current_path"></path><circle cx="55.75" cy="59.25" r="8" class="stroke_order_diagram--path_start" transform="matrix(1,0,0,1,396,-4)"></circle><line x1="550" x2="550" y1="1" y2="99" class="stroke_order_diagram--guide_line"></line><line x1="599" x2="599" y1="1" y2="99" class="stroke_order_diagram--bounding_box"></line><path id="pathSk940yk7k48o" kvg:type="㇑" d="M29.75,18.99c0.82,0.82,1.43,1.68,1.66,2.33c1.15,3.39,3.44,13.48,4.61,18.68c0.34,1.51,0.59,2.61,0.68,3" transform="matrix(1,0,0,1,496,-4)" class="stroke_order_diagram--existing_path"></path><path id="pathSk940yk7k48p" kvg:type="㇕b" d="M31.56,19.63c12.09-1.87,34.1-5.01,40.27-5.14c2.89-0.06,3.98,2.41,3.7,3.88c-0.73,3.84-3.94,15.23-4.51,17.27" transform="matrix(1,0,0,1,496,-4)" class="stroke_order_diagram--existing_path"></path><path id="pathSk940yk7k48q" kvg:type="㇐b" d="M37.25,40.74c7.07-0.43,20.75-2.48,31.53-3.73c1.71-0.2,3.34-0.14,4.86-0.32" transform="matrix(1,0,0,1,496,-4)" class="stroke_order_diagram--existing_path"></path><path id="pathSk940yk7k48r" kvg:type="㇑a" d="M52.75,41c0.81,0.81,1.4,1.75,1.4,3.62c0,5.11,0.37,32.49,0.35,33.88" transform="matrix(1,0,0,1,496,-4)" class="stroke_order_diagram--existing_path"></path><path id="pathSk940yk7k48s" kvg:type="㇐b" d="M55.75,59.25C56.94,59.25,66.25,57.75,73.54,56.53C75.08,56.27,76.53,56.25,77.75,56.25" transform="matrix(1,0,0,1,496,-4)" class="stroke_order_diagram--existing_path"></path><path id="kvg:08db3-s6" kvg:type="㇒" d="M36.49,55c0.13,1.5,0.14,3.05-0.2,4.35c-2.04,7.78-10.16,24.15-17.79,30.9" transform="matrix(1,0,0,1,496,-4)" class="stroke_order_diagram--current_path"></path><path id="pathSk940yk7k48u" kvg:type="㇒" d="M36.49,55c0.13,1.5,0.14,3.05-0.2,4.35c-2.04,7.78-10.16,24.15-17.79,30.9" transform="matrix(1,0,0,1,496,-4)" class="stroke_order_diagram--current_path"></path><circle cx="36.49" cy="55" r="8" class="stroke_order_diagram--path_start" transform="matrix(1,0,0,1,496,-4)"></circle><line x1="650" x2="650" y1="1" y2="99" class="stroke_order_diagram--guide_line"></line><line x1="699" x2="699" y1="1" y2="99" class="stroke_order_diagram--bounding_box"></line><path id="pathSk940yk7k48x" kvg:type="㇑" d="M29.75,18.99c0.82,0.82,1.43,1.68,1.66,2.33c1.15,3.39,3.44,13.48,4.61,18.68c0.34,1.51,0.59,2.61,0.68,3" transform="matrix(1,0,0,1,596,-4)" class="stroke_order_diagram--existing_path"></path><path id="pathSk940yk7k48y" kvg:type="㇕b" d="M31.56,19.63c12.09-1.87,34.1-5.01,40.27-5.14c2.89-0.06,3.98,2.41,3.7,3.88c-0.73,3.84-3.94,15.23-4.51,17.27" transform="matrix(1,0,0,1,596,-4)" class="stroke_order_diagram--existing_path"></path><path id="pathSk940yk7k48z" kvg:type="㇐b" d="M37.25,40.74c7.07-0.43,20.75-2.48,31.53-3.73c1.71-0.2,3.34-0.14,4.86-0.32" transform="matrix(1,0,0,1,596,-4)" class="stroke_order_diagram--existing_path"></path><path id="pathSk940yk7k490" kvg:type="㇑a" d="M52.75,41c0.81,0.81,1.4,1.75,1.4,3.62c0,5.11,0.37,32.49,0.35,33.88" transform="matrix(1,0,0,1,596,-4)" class="stroke_order_diagram--existing_path"></path><path id="pathSk940yk7k491" kvg:type="㇐b" d="M55.75,59.25C56.94,59.25,66.25,57.75,73.54,56.53C75.08,56.27,76.53,56.25,77.75,56.25" transform="matrix(1,0,0,1,596,-4)" class="stroke_order_diagram--existing_path"></path><path id="pathSk940yk7k492" kvg:type="㇒" d="M36.49,55c0.13,1.5,0.14,3.05-0.2,4.35c-2.04,7.78-10.16,24.15-17.79,30.9" transform="matrix(1,0,0,1,596,-4)" class="stroke_order_diagram--existing_path"></path><path id="kvg:08db3-s7" kvg:type="㇏" d="M33.25,70.75C41.75,72.12,67,87.38,82,92.5c2.94,1,6.85,1.68,9.75,2" transform="matrix(1,0,0,1,596,-4)" class="stroke_order_diagram--current_path"></path><path id="pathSk940yk7k494" kvg:type="㇏" d="M33.25,70.75C41.75,72.12,67,87.38,82,92.5c2.94,1,6.85,1.68,9.75,2" transform="matrix(1,0,0,1,596,-4)" class="stroke_order_diagram--current_path"></path><circle cx="33.25" cy="70.75" r="8" class="stroke_order_diagram--path_start" transform="matrix(1,0,0,1,596,-4)"></circle></svg>