<?xml version="1.0" encoding="UTF-8"?>
<!DOCTYPE svg PUBLIC "-//W3C//DTD SVG 1.0//EN" "http://www.w3.org/TR/2001/REC-SVG-20010904/DTD/svg10.dtd" [
<!ATTLIST g
xmlns:kvg CDATA #FIXED "http://kanjivg.tagaini.net"
kvg:element CDATA #IMPLIED
kvg:variant CDATA #IMPLIED
kvg:partial CDATA #IMPLIED
kvg:original CDATA #IMPLIED
kvg:part CDATA #IMPLIED
kvg:number CDATA #IMPLIED
kvg:tradForm CDATA #IMPLIED
kvg:radicalForm CDATA #IMPLIED
kvg:position CDATA #IMPLIED
kvg:radical CDATA #IMPLIED
kvg:phon CDATA #IMPLIED >
<!ATTLIST path
xmlns:kvg CDATA #FIXED "http://kanjivg.tagaini.net"
kvg:type CDATA #IMPLIED >
]><svg style="width: 700px; height: 100px;" xmlns="http://www.w3.org/2000/svg" xmlns:xlink="http://www.w3.org/1999/xlink" width="700px" height="100px"><style>
.stroke_order_diagram--outer_container {
  width: 100%;
  overflow-x: auto;
  overflow-y: hidden;
}

.stroke_order_diagram--guide_line {
  fill: none;
  stroke: #ddd;
  stroke-width: 3;
  stroke-linecap: square;
  stroke-linejoin: square;
  stroke-dasharray:8, 8;
}

.stroke_order_diagram--bounding_box {
  fill: none;
  stroke: #ddd;
  stroke-width: 4;
  stroke-linecap: square;
  stroke-linejoin: square;
}

.stroke_order_diagram--current_path {
  fill: none;
  stroke: #000;
  stroke-width: 6;
  stroke-linecap: round;
  stroke-linejoin: round;
}

.stroke_order_diagram--existing_path {
  fill: none;
  stroke: #aaa;
  stroke-width: 6;
  stroke-linecap: round;
  stroke-linejoin:round;
}

.stroke_order_diagram--path_start {
  fill: rgba(255, 0, 0, 0.7);
  stroke:none
}</style><desc>Created with Snap</desc><defs></defs><line x1="1" x2="699" y1="1" y2="1" class="stroke_order_diagram--bounding_box"></line><line x1="1" x2="1" y1="1" y2="99" class="stroke_order_diagram--bounding_box"></line><line x1="1" x2="699" y1="99" y2="99" class="stroke_order_diagram--bounding_box"></line><line x1="0" x2="700" y1="50" y2="50" class="stroke_order_diagram--guide_line"></line><line x1="50" x2="50" y1="1" y2="99" class="stroke_order_diagram--guide_line"></line><line x1="99" x2="99" y1="1" y2="99" class="stroke_order_diagram--bounding_box"></line><path id="kvg:08fb0-s1" kvg:type="㇐" d="M21.38,22.48c3.17,1.13,6.88,0.47,10.14,0.14c10.82-1.1,27.45-3.28,36.62-4.31c3.49-0.39,7.06-0.72,10.5,0.02" transform="matrix(1,0,0,1,-4,-4)" class="stroke_order_diagram--current_path"></path><path id="pathSk940yk7k4er" kvg:type="㇐" d="M21.38,22.48c3.17,1.13,6.88,0.47,10.14,0.14c10.82-1.1,27.45-3.28,36.62-4.31c3.49-0.39,7.06-0.72,10.5,0.02" transform="matrix(1,0,0,1,-4,-4)" class="stroke_order_diagram--current_path"></path><circle cx="21.38" cy="22.48" r="8" class="stroke_order_diagram--path_start" transform="matrix(1,0,0,1,-4,-4)"></circle><line x1="150" x2="150" y1="1" y2="99" class="stroke_order_diagram--guide_line"></line><line x1="199" x2="199" y1="1" y2="99" class="stroke_order_diagram--bounding_box"></line><path id="pathSk940yk7k4eu" kvg:type="㇐" d="M21.38,22.48c3.17,1.13,6.88,0.47,10.14,0.14c10.82-1.1,27.45-3.28,36.62-4.31c3.49-0.39,7.06-0.72,10.5,0.02" transform="matrix(1,0,0,1,96,-4)" class="stroke_order_diagram--existing_path"></path><path id="kvg:08fb0-s2" kvg:type="㇒" d="M25,23.75c1,1,1.18,2.37,1.18,4.81c0,15.69-2.3,43.19-13.43,59.44" transform="matrix(1,0,0,1,96,-4)" class="stroke_order_diagram--current_path"></path><path id="pathSk940yk7k4ew" kvg:type="㇒" d="M25,23.75c1,1,1.18,2.37,1.18,4.81c0,15.69-2.3,43.19-13.43,59.44" transform="matrix(1,0,0,1,96,-4)" class="stroke_order_diagram--current_path"></path><circle cx="25" cy="23.75" r="8" class="stroke_order_diagram--path_start" transform="matrix(1,0,0,1,96,-4)"></circle><line x1="250" x2="250" y1="1" y2="99" class="stroke_order_diagram--guide_line"></line><line x1="299" x2="299" y1="1" y2="99" class="stroke_order_diagram--bounding_box"></line><path id="pathSk940yk7k4ez" kvg:type="㇐" d="M21.38,22.48c3.17,1.13,6.88,0.47,10.14,0.14c10.82-1.1,27.45-3.28,36.62-4.31c3.49-0.39,7.06-0.72,10.5,0.02" transform="matrix(1,0,0,1,196,-4)" class="stroke_order_diagram--existing_path"></path><path id="pathSk940yk7k4f0" kvg:type="㇒" d="M25,23.75c1,1,1.18,2.37,1.18,4.81c0,15.69-2.3,43.19-13.43,59.44" transform="matrix(1,0,0,1,196,-4)" class="stroke_order_diagram--existing_path"></path><path id="kvg:08fb0-s3" kvg:type="㇐" d="M37.5,34.39c2.13,0.86,5.31,0.44,7.52,0.13c5.97-0.82,14.94-2.2,20.74-2.97c2.35-0.31,4.94-0.36,7.24,0.21" transform="matrix(1,0,0,1,196,-4)" class="stroke_order_diagram--current_path"></path><path id="pathSk940yk7k4f2" kvg:type="㇐" d="M37.5,34.39c2.13,0.86,5.31,0.44,7.52,0.13c5.97-0.82,14.94-2.2,20.74-2.97c2.35-0.31,4.94-0.36,7.24,0.21" transform="matrix(1,0,0,1,196,-4)" class="stroke_order_diagram--current_path"></path><circle cx="37.5" cy="34.39" r="8" class="stroke_order_diagram--path_start" transform="matrix(1,0,0,1,196,-4)"></circle><line x1="350" x2="350" y1="1" y2="99" class="stroke_order_diagram--guide_line"></line><line x1="399" x2="399" y1="1" y2="99" class="stroke_order_diagram--bounding_box"></line><path id="pathSk940yk7k4f5" kvg:type="㇐" d="M21.38,22.48c3.17,1.13,6.88,0.47,10.14,0.14c10.82-1.1,27.45-3.28,36.62-4.31c3.49-0.39,7.06-0.72,10.5,0.02" transform="matrix(1,0,0,1,296,-4)" class="stroke_order_diagram--existing_path"></path><path id="pathSk940yk7k4f6" kvg:type="㇒" d="M25,23.75c1,1,1.18,2.37,1.18,4.81c0,15.69-2.3,43.19-13.43,59.44" transform="matrix(1,0,0,1,296,-4)" class="stroke_order_diagram--existing_path"></path><path id="pathSk940yk7k4f7" kvg:type="㇐" d="M37.5,34.39c2.13,0.86,5.31,0.44,7.52,0.13c5.97-0.82,14.94-2.2,20.74-2.97c2.35-0.31,4.94-0.36,7.24,0.21" transform="matrix(1,0,0,1,296,-4)" class="stroke_order_diagram--existing_path"></path><path id="kvg:08fb0-s4" kvg:type="㇐" d="M29,48.89c3.38,0.74,7.45,0.52,10.39,0.11c11.61-1.62,30.15-3.76,39.61-4.57c3.14-0.27,6.65-0.68,9.76,0.08" transform="matrix(1,0,0,1,296,-4)" class="stroke_order_diagram--current_path"></path><path id="pathSk940yk7k4f9" kvg:type="㇐" d="M29,48.89c3.38,0.74,7.45,0.52,10.39,0.11c11.61-1.62,30.15-3.76,39.61-4.57c3.14-0.27,6.65-0.68,9.76,0.08" transform="matrix(1,0,0,1,296,-4)" class="stroke_order_diagram--current_path"></path><circle cx="29" cy="48.89" r="8" class="stroke_order_diagram--path_start" transform="matrix(1,0,0,1,296,-4)"></circle><line x1="450" x2="450" y1="1" y2="99" class="stroke_order_diagram--guide_line"></line><line x1="499" x2="499" y1="1" y2="99" class="stroke_order_diagram--bounding_box"></line><path id="pathSk940yk7k4fc" kvg:type="㇐" d="M21.38,22.48c3.17,1.13,6.88,0.47,10.14,0.14c10.82-1.1,27.45-3.28,36.62-4.31c3.49-0.39,7.06-0.72,10.5,0.02" transform="matrix(1,0,0,1,396,-4)" class="stroke_order_diagram--existing_path"></path><path id="pathSk940yk7k4fd" kvg:type="㇒" d="M25,23.75c1,1,1.18,2.37,1.18,4.81c0,15.69-2.3,43.19-13.43,59.44" transform="matrix(1,0,0,1,396,-4)" class="stroke_order_diagram--existing_path"></path><path id="pathSk940yk7k4fe" kvg:type="㇐" d="M37.5,34.39c2.13,0.86,5.31,0.44,7.52,0.13c5.97-0.82,14.94-2.2,20.74-2.97c2.35-0.31,4.94-0.36,7.24,0.21" transform="matrix(1,0,0,1,396,-4)" class="stroke_order_diagram--existing_path"></path><path id="pathSk940yk7k4ff" kvg:type="㇐" d="M29,48.89c3.38,0.74,7.45,0.52,10.39,0.11c11.61-1.62,30.15-3.76,39.61-4.57c3.14-0.27,6.65-0.68,9.76,0.08" transform="matrix(1,0,0,1,396,-4)" class="stroke_order_diagram--existing_path"></path><path id="kvg:08fb0-s5" kvg:type="㇙" d="M38.25,52.25c1.12,1.12,1.39,2.5,1.39,5c0,11.82,0.05,29.94,0.05,31.94s1.65,3.14,3.74,1.64s11.45-9.95,14.78-12.59" transform="matrix(1,0,0,1,396,-4)" class="stroke_order_diagram--current_path"></path><path id="pathSk940yk7k4fh" kvg:type="㇙" d="M38.25,52.25c1.12,1.12,1.39,2.5,1.39,5c0,11.82,0.05,29.94,0.05,31.94s1.65,3.14,3.74,1.64s11.45-9.95,14.78-12.59" transform="matrix(1,0,0,1,396,-4)" class="stroke_order_diagram--current_path"></path><circle cx="38.25" cy="52.25" r="8" class="stroke_order_diagram--path_start" transform="matrix(1,0,0,1,396,-4)"></circle><line x1="550" x2="550" y1="1" y2="99" class="stroke_order_diagram--guide_line"></line><line x1="599" x2="599" y1="1" y2="99" class="stroke_order_diagram--bounding_box"></line><path id="pathSk940yk7k4fk" kvg:type="㇐" d="M21.38,22.48c3.17,1.13,6.88,0.47,10.14,0.14c10.82-1.1,27.45-3.28,36.62-4.31c3.49-0.39,7.06-0.72,10.5,0.02" transform="matrix(1,0,0,1,496,-4)" class="stroke_order_diagram--existing_path"></path><path id="pathSk940yk7k4fl" kvg:type="㇒" d="M25,23.75c1,1,1.18,2.37,1.18,4.81c0,15.69-2.3,43.19-13.43,59.44" transform="matrix(1,0,0,1,496,-4)" class="stroke_order_diagram--existing_path"></path><path id="pathSk940yk7k4fm" kvg:type="㇐" d="M37.5,34.39c2.13,0.86,5.31,0.44,7.52,0.13c5.97-0.82,14.94-2.2,20.74-2.97c2.35-0.31,4.94-0.36,7.24,0.21" transform="matrix(1,0,0,1,496,-4)" class="stroke_order_diagram--existing_path"></path><path id="pathSk940yk7k4fn" kvg:type="㇐" d="M29,48.89c3.38,0.74,7.45,0.52,10.39,0.11c11.61-1.62,30.15-3.76,39.61-4.57c3.14-0.27,6.65-0.68,9.76,0.08" transform="matrix(1,0,0,1,496,-4)" class="stroke_order_diagram--existing_path"></path><path id="pathSk940yk7k4fo" kvg:type="㇙" d="M38.25,52.25c1.12,1.12,1.39,2.5,1.39,5c0,11.82,0.05,29.94,0.05,31.94s1.65,3.14,3.74,1.64s11.45-9.95,14.78-12.59" transform="matrix(1,0,0,1,496,-4)" class="stroke_order_diagram--existing_path"></path><path id="kvg:08fb0-s6" kvg:type="㇒" d="M75.02,51.64c0.09,0.94-0.14,1.81-0.72,2.58c-1.92,2.53-4.76,4.82-9.99,8.25" transform="matrix(1,0,0,1,496,-4)" class="stroke_order_diagram--current_path"></path><path id="pathSk940yk7k4fq" kvg:type="㇒" d="M75.02,51.64c0.09,0.94-0.14,1.81-0.72,2.58c-1.92,2.53-4.76,4.82-9.99,8.25" transform="matrix(1,0,0,1,496,-4)" class="stroke_order_diagram--current_path"></path><circle cx="75.02" cy="51.64" r="8" class="stroke_order_diagram--path_start" transform="matrix(1,0,0,1,496,-4)"></circle><line x1="650" x2="650" y1="1" y2="99" class="stroke_order_diagram--guide_line"></line><line x1="699" x2="699" y1="1" y2="99" class="stroke_order_diagram--bounding_box"></line><path id="pathSk940yk7k4ft" kvg:type="㇐" d="M21.38,22.48c3.17,1.13,6.88,0.47,10.14,0.14c10.82-1.1,27.45-3.28,36.62-4.31c3.49-0.39,7.06-0.72,10.5,0.02" transform="matrix(1,0,0,1,596,-4)" class="stroke_order_diagram--existing_path"></path><path id="pathSk940yk7k4fu" kvg:type="㇒" d="M25,23.75c1,1,1.18,2.37,1.18,4.81c0,15.69-2.3,43.19-13.43,59.44" transform="matrix(1,0,0,1,596,-4)" class="stroke_order_diagram--existing_path"></path><path id="pathSk940yk7k4fv" kvg:type="㇐" d="M37.5,34.39c2.13,0.86,5.31,0.44,7.52,0.13c5.97-0.82,14.94-2.2,20.74-2.97c2.35-0.31,4.94-0.36,7.24,0.21" transform="matrix(1,0,0,1,596,-4)" class="stroke_order_diagram--existing_path"></path><path id="pathSk940yk7k4fw" kvg:type="㇐" d="M29,48.89c3.38,0.74,7.45,0.52,10.39,0.11c11.61-1.62,30.15-3.76,39.61-4.57c3.14-0.27,6.65-0.68,9.76,0.08" transform="matrix(1,0,0,1,596,-4)" class="stroke_order_diagram--existing_path"></path><path id="pathSk940yk7k4fx" kvg:type="㇙" d="M38.25,52.25c1.12,1.12,1.39,2.5,1.39,5c0,11.82,0.05,29.94,0.05,31.94s1.65,3.14,3.74,1.64s11.45-9.95,14.78-12.59" transform="matrix(1,0,0,1,596,-4)" class="stroke_order_diagram--existing_path"></path><path id="pathSk940yk7k4fy" kvg:type="㇒" d="M75.02,51.64c0.09,0.94-0.14,1.81-0.72,2.58c-1.92,2.53-4.76,4.82-9.99,8.25" transform="matrix(1,0,0,1,596,-4)" class="stroke_order_diagram--existing_path"></path><path id="kvg:08fb0-s7" kvg:type="㇏" d="M47,55.25c7.58,2.1,25.56,19.66,36.3,27.22c3.07,2.16,6.07,4.41,11.45,6.28" transform="matrix(1,0,0,1,596,-4)" class="stroke_order_diagram--current_path"></path><path id="pathSk940yk7k4g0" kvg:type="㇏" d="M47,55.25c7.58,2.1,25.56,19.66,36.3,27.22c3.07,2.16,6.07,4.41,11.45,6.28" transform="matrix(1,0,0,1,596,-4)" class="stroke_order_diagram--current_path"></path><circle cx="47" cy="55.25" r="8" class="stroke_order_diagram--path_start" transform="matrix(1,0,0,1,596,-4)"></circle></svg>