<?xml version="1.0" encoding="UTF-8"?>
<!DOCTYPE svg PUBLIC "-//W3C//DTD SVG 1.0//EN" "http://www.w3.org/TR/2001/REC-SVG-20010904/DTD/svg10.dtd" [
<!ATTLIST g
xmlns:kvg CDATA #FIXED "http://kanjivg.tagaini.net"
kvg:element CDATA #IMPLIED
kvg:variant CDATA #IMPLIED
kvg:partial CDATA #IMPLIED
kvg:original CDATA #IMPLIED
kvg:part CDATA #IMPLIED
kvg:number CDATA #IMPLIED
kvg:tradForm CDATA #IMPLIED
kvg:radicalForm CDATA #IMPLIED
kvg:position CDATA #IMPLIED
kvg:radical CDATA #IMPLIED
kvg:phon CDATA #IMPLIED >
<!ATTLIST path
xmlns:kvg CDATA #FIXED "http://kanjivg.tagaini.net"
kvg:type CDATA #IMPLIED >
]><svg style="width: 500px; height: 100px;" xmlns="http://www.w3.org/2000/svg" xmlns:xlink="http://www.w3.org/1999/xlink"><style>
.stroke_order_diagram--outer_container {
  width: 100%;
  overflow-x: auto;
  overflow-y: hidden;
}

.stroke_order_diagram--guide_line {
  fill: none;
  stroke: #ddd;
  stroke-width: 3;
  stroke-linecap: square;
  stroke-linejoin: square;
  stroke-dasharray:8, 8;
}

.stroke_order_diagram--bounding_box {
  fill: none;
  stroke: #ddd;
  stroke-width: 4;
  stroke-linecap: square;
  stroke-linejoin: square;
}

.stroke_order_diagram--current_path {
  fill: none;
  stroke: #000;
  stroke-width: 6;
  stroke-linecap: round;
  stroke-linejoin: round;
}

.stroke_order_diagram--existing_path {
  fill: none;
  stroke: #aaa;
  stroke-width: 6;
  stroke-linecap: round;
  stroke-linejoin:round;
}

.stroke_order_diagram--path_start {
  fill: rgba(255, 0, 0, 0.7);
  stroke:none
}</style><desc>Created with Snap</desc><defs></defs><line x1="1" x2="499" y1="1" y2="1" class="stroke_order_diagram--bounding_box"></line><line x1="1" x2="1" y1="1" y2="99" class="stroke_order_diagram--bounding_box"></line><line x1="1" x2="499" y1="99" y2="99" class="stroke_order_diagram--bounding_box"></line><line x1="0" x2="500" y1="50" y2="50" class="stroke_order_diagram--guide_line"></line><line x1="50" x2="50" y1="1" y2="99" class="stroke_order_diagram--guide_line"></line><line x1="99" x2="99" y1="1" y2="99" class="stroke_order_diagram--bounding_box"></line><path id="kvg:08fb7-s1" kvg:type="㇐" d="M37.5,46.4c1.43,0.37,4.05,0.32,5.49,0.37c6.81,0.23,31.9-2.26,45.5-2.26c2.39,0,3.82,0.18,5.01,0.36" transform="matrix(1,0,0,1,-4,-4)" class="stroke_order_diagram--current_path"></path><path id="pathSk93xdzq04gf" kvg:type="㇐" d="M37.5,46.4c1.43,0.37,4.05,0.32,5.49,0.37c6.81,0.23,31.9-2.26,45.5-2.26c2.39,0,3.82,0.18,5.01,0.36" transform="matrix(1,0,0,1,-4,-4)" class="stroke_order_diagram--current_path"></path><circle cx="37.5" cy="46.4" r="8" class="stroke_order_diagram--path_start" transform="matrix(1,0,0,1,-4,-4)"></circle><line x1="150" x2="150" y1="1" y2="99" class="stroke_order_diagram--guide_line"></line><line x1="199" x2="199" y1="1" y2="99" class="stroke_order_diagram--bounding_box"></line><path id="pathSk93xdzq04gi" kvg:type="㇐" d="M37.5,46.4c1.43,0.37,4.05,0.32,5.49,0.37c6.81,0.23,31.9-2.26,45.5-2.26c2.39,0,3.82,0.18,5.01,0.36" transform="matrix(1,0,0,1,96,-4)" class="stroke_order_diagram--existing_path"></path><path id="kvg:08fb7-s2" kvg:type="㇔" d="M19.46,16.5c4.25,1.74,10.98,7.17,12.04,9.88" transform="matrix(1,0,0,1,96,-4)" class="stroke_order_diagram--current_path"></path><path id="pathSk93xdzq04gk" kvg:type="㇔" d="M19.46,16.5c4.25,1.74,10.98,7.17,12.04,9.88" transform="matrix(1,0,0,1,96,-4)" class="stroke_order_diagram--current_path"></path><circle cx="19.46" cy="16.5" r="8" class="stroke_order_diagram--path_start" transform="matrix(1,0,0,1,96,-4)"></circle><line x1="250" x2="250" y1="1" y2="99" class="stroke_order_diagram--guide_line"></line><line x1="299" x2="299" y1="1" y2="99" class="stroke_order_diagram--bounding_box"></line><path id="pathSk93xdzq04gn" kvg:type="㇐" d="M37.5,46.4c1.43,0.37,4.05,0.32,5.49,0.37c6.81,0.23,31.9-2.26,45.5-2.26c2.39,0,3.82,0.18,5.01,0.36" transform="matrix(1,0,0,1,196,-4)" class="stroke_order_diagram--existing_path"></path><path id="pathSk93xdzq04go" kvg:type="㇔" d="M19.46,16.5c4.25,1.74,10.98,7.17,12.04,9.88" transform="matrix(1,0,0,1,196,-4)" class="stroke_order_diagram--existing_path"></path><path id="kvg:08fb7-s3" kvg:type="㇔" d="M14.21,36c4.25,1.52,10.98,6.26,12.04,8.63" transform="matrix(1,0,0,1,196,-4)" class="stroke_order_diagram--current_path"></path><path id="pathSk93xdzq04gq" kvg:type="㇔" d="M14.21,36c4.25,1.52,10.98,6.26,12.04,8.63" transform="matrix(1,0,0,1,196,-4)" class="stroke_order_diagram--current_path"></path><circle cx="14.21" cy="36" r="8" class="stroke_order_diagram--path_start" transform="matrix(1,0,0,1,196,-4)"></circle><line x1="350" x2="350" y1="1" y2="99" class="stroke_order_diagram--guide_line"></line><line x1="399" x2="399" y1="1" y2="99" class="stroke_order_diagram--bounding_box"></line><path id="pathSk93xdzq04gt" kvg:type="㇐" d="M37.5,46.4c1.43,0.37,4.05,0.32,5.49,0.37c6.81,0.23,31.9-2.26,45.5-2.26c2.39,0,3.82,0.18,5.01,0.36" transform="matrix(1,0,0,1,296,-4)" class="stroke_order_diagram--existing_path"></path><path id="pathSk93xdzq04gu" kvg:type="㇔" d="M19.46,16.5c4.25,1.74,10.98,7.17,12.04,9.88" transform="matrix(1,0,0,1,296,-4)" class="stroke_order_diagram--existing_path"></path><path id="pathSk93xdzq04gv" kvg:type="㇔" d="M14.21,36c4.25,1.52,10.98,6.26,12.04,8.63" transform="matrix(1,0,0,1,296,-4)" class="stroke_order_diagram--existing_path"></path><path id="kvg:08fb7-s4" kvg:type="㇋" d="M12,58.44c2.25,0.85,3.75,0.43,4.75,0.21c1-0.21,9-2.99,10.5-3.42c1.5-0.43,3.75,1.07,2.75,2.35s-5,7.69-5.75,8.76c-0.75,1.07-0.5,2.99,1,4.48s3.25,2.7,4,3.98C30,76.09,30,77.16,28.5,78.23c-1.5,1.07-11,6.04-12.5,6.47" transform="matrix(1,0,0,1,296,-4)" class="stroke_order_diagram--current_path"></path><path id="pathSk93xdzq04gx" kvg:type="㇋" d="M12,58.44c2.25,0.85,3.75,0.43,4.75,0.21c1-0.21,9-2.99,10.5-3.42c1.5-0.43,3.75,1.07,2.75,2.35s-5,7.69-5.75,8.76c-0.75,1.07-0.5,2.99,1,4.48s3.25,2.7,4,3.98C30,76.09,30,77.16,28.5,78.23c-1.5,1.07-11,6.04-12.5,6.47" transform="matrix(1,0,0,1,296,-4)" class="stroke_order_diagram--current_path"></path><circle cx="12" cy="58.44" r="8" class="stroke_order_diagram--path_start" transform="matrix(1,0,0,1,296,-4)"></circle><line x1="450" x2="450" y1="1" y2="99" class="stroke_order_diagram--guide_line"></line><line x1="499" x2="499" y1="1" y2="99" class="stroke_order_diagram--bounding_box"></line><path id="pathSk93xdzq04h0" kvg:type="㇐" d="M37.5,46.4c1.43,0.37,4.05,0.32,5.49,0.37c6.81,0.23,31.9-2.26,45.5-2.26c2.39,0,3.82,0.18,5.01,0.36" transform="matrix(1,0,0,1,396,-4)" class="stroke_order_diagram--existing_path"></path><path id="pathSk93xdzq04h1" kvg:type="㇔" d="M19.46,16.5c4.25,1.74,10.98,7.17,12.04,9.88" transform="matrix(1,0,0,1,396,-4)" class="stroke_order_diagram--existing_path"></path><path id="pathSk93xdzq04h2" kvg:type="㇔" d="M14.21,36c4.25,1.52,10.98,6.26,12.04,8.63" transform="matrix(1,0,0,1,396,-4)" class="stroke_order_diagram--existing_path"></path><path id="pathSk93xdzq04h3" kvg:type="㇋" d="M12,58.44c2.25,0.85,3.75,0.43,4.75,0.21c1-0.21,9-2.99,10.5-3.42c1.5-0.43,3.75,1.07,2.75,2.35s-5,7.69-5.75,8.76c-0.75,1.07-0.5,2.99,1,4.48s3.25,2.7,4,3.98C30,76.09,30,77.16,28.5,78.23c-1.5,1.07-11,6.04-12.5,6.47" transform="matrix(1,0,0,1,396,-4)" class="stroke_order_diagram--existing_path"></path><path id="kvg:08fb7-s5" kvg:type="㇏" d="M11.75,86.22c3.15-0.53,9.46-1.87,14.19-0.8c4.73,1.07,31.55,5.93,36.26,7.09C72.25,95,83.54,95.81,93,93.94" transform="matrix(1,0,0,1,396,-4)" class="stroke_order_diagram--current_path"></path><path id="pathSk93xdzq04h5" kvg:type="㇏" d="M11.75,86.22c3.15-0.53,9.46-1.87,14.19-0.8c4.73,1.07,31.55,5.93,36.26,7.09C72.25,95,83.54,95.81,93,93.94" transform="matrix(1,0,0,1,396,-4)" class="stroke_order_diagram--current_path"></path><circle cx="11.75" cy="86.22" r="8" class="stroke_order_diagram--path_start" transform="matrix(1,0,0,1,396,-4)"></circle></svg>