<?xml version="1.0" encoding="UTF-8"?>
<!DOCTYPE svg PUBLIC "-//W3C//DTD SVG 1.0//EN" "http://www.w3.org/TR/2001/REC-SVG-20010904/DTD/svg10.dtd" [
<!ATTLIST g
xmlns:kvg CDATA #FIXED "http://kanjivg.tagaini.net"
kvg:element CDATA #IMPLIED
kvg:variant CDATA #IMPLIED
kvg:partial CDATA #IMPLIED
kvg:original CDATA #IMPLIED
kvg:part CDATA #IMPLIED
kvg:number CDATA #IMPLIED
kvg:tradForm CDATA #IMPLIED
kvg:radicalForm CDATA #IMPLIED
kvg:position CDATA #IMPLIED
kvg:radical CDATA #IMPLIED
kvg:phon CDATA #IMPLIED >
<!ATTLIST path
xmlns:kvg CDATA #FIXED "http://kanjivg.tagaini.net"
kvg:type CDATA #IMPLIED >
]><svg style="width: 700px; height: 100px;" xmlns="http://www.w3.org/2000/svg" xmlns:xlink="http://www.w3.org/1999/xlink"><style>
.stroke_order_diagram--outer_container {
  width: 100%;
  overflow-x: auto;
  overflow-y: hidden;
}

.stroke_order_diagram--guide_line {
  fill: none;
  stroke: #ddd;
  stroke-width: 3;
  stroke-linecap: square;
  stroke-linejoin: square;
  stroke-dasharray:8, 8;
}

.stroke_order_diagram--bounding_box {
  fill: none;
  stroke: #ddd;
  stroke-width: 4;
  stroke-linecap: square;
  stroke-linejoin: square;
}

.stroke_order_diagram--current_path {
  fill: none;
  stroke: #000;
  stroke-width: 6;
  stroke-linecap: round;
  stroke-linejoin: round;
}

.stroke_order_diagram--existing_path {
  fill: none;
  stroke: #aaa;
  stroke-width: 6;
  stroke-linecap: round;
  stroke-linejoin:round;
}

.stroke_order_diagram--path_start {
  fill: rgba(255, 0, 0, 0.7);
  stroke:none
}</style><desc>Created with Snap</desc><defs></defs><line x1="1" x2="699" y1="1" y2="1" class="stroke_order_diagram--bounding_box"></line><line x1="1" x2="1" y1="1" y2="99" class="stroke_order_diagram--bounding_box"></line><line x1="1" x2="699" y1="99" y2="99" class="stroke_order_diagram--bounding_box"></line><line x1="0" x2="700" y1="50" y2="50" class="stroke_order_diagram--guide_line"></line><line x1="50" x2="50" y1="1" y2="99" class="stroke_order_diagram--guide_line"></line><line x1="99" x2="99" y1="1" y2="99" class="stroke_order_diagram--bounding_box"></line><path id="kvg:09149-s1" kvg:type="㇐" d="M26,19.15c3.5,0.85,7.61,0.17,10.63-0.11c9.79-0.92,27.93-2.28,38.61-2.81c3.29-0.16,7.01-0.07,10.26,0.64" transform="matrix(1,0,0,1,-4,-4)" class="stroke_order_diagram--current_path"></path><path id="pathSk93xdzq04jc" kvg:type="㇐" d="M26,19.15c3.5,0.85,7.61,0.17,10.63-0.11c9.79-0.92,27.93-2.28,38.61-2.81c3.29-0.16,7.01-0.07,10.26,0.64" transform="matrix(1,0,0,1,-4,-4)" class="stroke_order_diagram--current_path"></path><circle cx="26" cy="19.15" r="8" class="stroke_order_diagram--path_start" transform="matrix(1,0,0,1,-4,-4)"></circle><line x1="150" x2="150" y1="1" y2="99" class="stroke_order_diagram--guide_line"></line><line x1="199" x2="199" y1="1" y2="99" class="stroke_order_diagram--bounding_box"></line><path id="pathSk93xdzq04jf" kvg:type="㇐" d="M26,19.15c3.5,0.85,7.61,0.17,10.63-0.11c9.79-0.92,27.93-2.28,38.61-2.81c3.29-0.16,7.01-0.07,10.26,0.64" transform="matrix(1,0,0,1,96,-4)" class="stroke_order_diagram--existing_path"></path><path id="kvg:09149-s2" kvg:type="㇑" d="M23.77,38.69c1.08,1.08,1.1,2.43,1.1,4.22c0,0.83-0.02,32.82-0.03,46.46c0,3.62,0,5.95,0,6.06" transform="matrix(1,0,0,1,96,-4)" class="stroke_order_diagram--current_path"></path><path id="pathSk93xdzq04jh" kvg:type="㇑" d="M23.77,38.69c1.08,1.08,1.1,2.43,1.1,4.22c0,0.83-0.02,32.82-0.03,46.46c0,3.62,0,5.95,0,6.06" transform="matrix(1,0,0,1,96,-4)" class="stroke_order_diagram--current_path"></path><circle cx="23.77" cy="38.69" r="8" class="stroke_order_diagram--path_start" transform="matrix(1,0,0,1,96,-4)"></circle><line x1="250" x2="250" y1="1" y2="99" class="stroke_order_diagram--guide_line"></line><line x1="299" x2="299" y1="1" y2="99" class="stroke_order_diagram--bounding_box"></line><path id="pathSk93xdzq04jk" kvg:type="㇐" d="M26,19.15c3.5,0.85,7.61,0.17,10.63-0.11c9.79-0.92,27.93-2.28,38.61-2.81c3.29-0.16,7.01-0.07,10.26,0.64" transform="matrix(1,0,0,1,196,-4)" class="stroke_order_diagram--existing_path"></path><path id="pathSk93xdzq04jl" kvg:type="㇑" d="M23.77,38.69c1.08,1.08,1.1,2.43,1.1,4.22c0,0.83-0.02,32.82-0.03,46.46c0,3.62,0,5.95,0,6.06" transform="matrix(1,0,0,1,196,-4)" class="stroke_order_diagram--existing_path"></path><path id="kvg:09149-s3" kvg:type="㇕a" d="M26.19,40.82c6.56-0.45,49.06-3.6,53.16-3.83c4.27-0.24,5.86,0.76,5.86,4.22c0,1.4-0.04,30.21-0.04,46.16c0,3,0,5.55,0,7.37" transform="matrix(1,0,0,1,196,-4)" class="stroke_order_diagram--current_path"></path><path id="pathSk93xdzq04jn" kvg:type="㇕a" d="M26.19,40.82c6.56-0.45,49.06-3.6,53.16-3.83c4.27-0.24,5.86,0.76,5.86,4.22c0,1.4-0.04,30.21-0.04,46.16c0,3,0,5.55,0,7.37" transform="matrix(1,0,0,1,196,-4)" class="stroke_order_diagram--current_path"></path><circle cx="26.19" cy="40.82" r="8" class="stroke_order_diagram--path_start" transform="matrix(1,0,0,1,196,-4)"></circle><line x1="350" x2="350" y1="1" y2="99" class="stroke_order_diagram--guide_line"></line><line x1="399" x2="399" y1="1" y2="99" class="stroke_order_diagram--bounding_box"></line><path id="pathSk93xdzq04jq" kvg:type="㇐" d="M26,19.15c3.5,0.85,7.61,0.17,10.63-0.11c9.79-0.92,27.93-2.28,38.61-2.81c3.29-0.16,7.01-0.07,10.26,0.64" transform="matrix(1,0,0,1,296,-4)" class="stroke_order_diagram--existing_path"></path><path id="pathSk93xdzq04jr" kvg:type="㇑" d="M23.77,38.69c1.08,1.08,1.1,2.43,1.1,4.22c0,0.83-0.02,32.82-0.03,46.46c0,3.62,0,5.95,0,6.06" transform="matrix(1,0,0,1,296,-4)" class="stroke_order_diagram--existing_path"></path><path id="pathSk93xdzq04js" kvg:type="㇕a" d="M26.19,40.82c6.56-0.45,49.06-3.6,53.16-3.83c4.27-0.24,5.86,0.76,5.86,4.22c0,1.4-0.04,30.21-0.04,46.16c0,3,0,5.55,0,7.37" transform="matrix(1,0,0,1,296,-4)" class="stroke_order_diagram--existing_path"></path><path id="kvg:09149-s4" kvg:type="㇒" d="M45.5,21c1.25,1.25,1.33,2.96,1.34,4.68C47,42.5,45.88,56.5,34,65.75" transform="matrix(1,0,0,1,296,-4)" class="stroke_order_diagram--current_path"></path><path id="pathSk93xdzq04ju" kvg:type="㇒" d="M45.5,21c1.25,1.25,1.33,2.96,1.34,4.68C47,42.5,45.88,56.5,34,65.75" transform="matrix(1,0,0,1,296,-4)" class="stroke_order_diagram--current_path"></path><circle cx="45.5" cy="21" r="8" class="stroke_order_diagram--path_start" transform="matrix(1,0,0,1,296,-4)"></circle><line x1="450" x2="450" y1="1" y2="99" class="stroke_order_diagram--guide_line"></line><line x1="499" x2="499" y1="1" y2="99" class="stroke_order_diagram--bounding_box"></line><path id="pathSk93xdzq04jx" kvg:type="㇐" d="M26,19.15c3.5,0.85,7.61,0.17,10.63-0.11c9.79-0.92,27.93-2.28,38.61-2.81c3.29-0.16,7.01-0.07,10.26,0.64" transform="matrix(1,0,0,1,396,-4)" class="stroke_order_diagram--existing_path"></path><path id="pathSk93xdzq04jy" kvg:type="㇑" d="M23.77,38.69c1.08,1.08,1.1,2.43,1.1,4.22c0,0.83-0.02,32.82-0.03,46.46c0,3.62,0,5.95,0,6.06" transform="matrix(1,0,0,1,396,-4)" class="stroke_order_diagram--existing_path"></path><path id="pathSk93xdzq04jz" kvg:type="㇕a" d="M26.19,40.82c6.56-0.45,49.06-3.6,53.16-3.83c4.27-0.24,5.86,0.76,5.86,4.22c0,1.4-0.04,30.21-0.04,46.16c0,3,0,5.55,0,7.37" transform="matrix(1,0,0,1,396,-4)" class="stroke_order_diagram--existing_path"></path><path id="pathSk93xdzq04k0" kvg:type="㇒" d="M45.5,21c1.25,1.25,1.33,2.96,1.34,4.68C47,42.5,45.88,56.5,34,65.75" transform="matrix(1,0,0,1,396,-4)" class="stroke_order_diagram--existing_path"></path><path id="kvg:09149-s5" kvg:type="㇟a" d="M60,19.75c1,1,1.49,2.8,1.49,4.78c0,4.84-0.11,22.59-0.11,27.09c0,6.62,0.88,7.9,7.63,7.9c6.12,0,7.62-0.9,8.76-2.6" transform="matrix(1,0,0,1,396,-4)" class="stroke_order_diagram--current_path"></path><path id="pathSk93xdzq04k2" kvg:type="㇟a" d="M60,19.75c1,1,1.49,2.8,1.49,4.78c0,4.84-0.11,22.59-0.11,27.09c0,6.62,0.88,7.9,7.63,7.9c6.12,0,7.62-0.9,8.76-2.6" transform="matrix(1,0,0,1,396,-4)" class="stroke_order_diagram--current_path"></path><circle cx="60" cy="19.75" r="8" class="stroke_order_diagram--path_start" transform="matrix(1,0,0,1,396,-4)"></circle><line x1="550" x2="550" y1="1" y2="99" class="stroke_order_diagram--guide_line"></line><line x1="599" x2="599" y1="1" y2="99" class="stroke_order_diagram--bounding_box"></line><path id="pathSk93xdzq04k5" kvg:type="㇐" d="M26,19.15c3.5,0.85,7.61,0.17,10.63-0.11c9.79-0.92,27.93-2.28,38.61-2.81c3.29-0.16,7.01-0.07,10.26,0.64" transform="matrix(1,0,0,1,496,-4)" class="stroke_order_diagram--existing_path"></path><path id="pathSk93xdzq04k6" kvg:type="㇑" d="M23.77,38.69c1.08,1.08,1.1,2.43,1.1,4.22c0,0.83-0.02,32.82-0.03,46.46c0,3.62,0,5.95,0,6.06" transform="matrix(1,0,0,1,496,-4)" class="stroke_order_diagram--existing_path"></path><path id="pathSk93xdzq04k7" kvg:type="㇕a" d="M26.19,40.82c6.56-0.45,49.06-3.6,53.16-3.83c4.27-0.24,5.86,0.76,5.86,4.22c0,1.4-0.04,30.21-0.04,46.16c0,3,0,5.55,0,7.37" transform="matrix(1,0,0,1,496,-4)" class="stroke_order_diagram--existing_path"></path><path id="pathSk93xdzq04k8" kvg:type="㇒" d="M45.5,21c1.25,1.25,1.33,2.96,1.34,4.68C47,42.5,45.88,56.5,34,65.75" transform="matrix(1,0,0,1,496,-4)" class="stroke_order_diagram--existing_path"></path><path id="pathSk93xdzq04k9" kvg:type="㇟a" d="M60,19.75c1,1,1.49,2.8,1.49,4.78c0,4.84-0.11,22.59-0.11,27.09c0,6.62,0.88,7.9,7.63,7.9c6.12,0,7.62-0.9,8.76-2.6" transform="matrix(1,0,0,1,496,-4)" class="stroke_order_diagram--existing_path"></path><path id="kvg:09149-s6" kvg:type="㇐a" d="M25.99,76.98c13.89-0.98,43.64-2.6,57.82-3.06" transform="matrix(1,0,0,1,496,-4)" class="stroke_order_diagram--current_path"></path><path id="pathSk93xdzq04kb" kvg:type="㇐a" d="M25.99,76.98c13.89-0.98,43.64-2.6,57.82-3.06" transform="matrix(1,0,0,1,496,-4)" class="stroke_order_diagram--current_path"></path><circle cx="25.99" cy="76.98" r="8" class="stroke_order_diagram--path_start" transform="matrix(1,0,0,1,496,-4)"></circle><line x1="650" x2="650" y1="1" y2="99" class="stroke_order_diagram--guide_line"></line><line x1="699" x2="699" y1="1" y2="99" class="stroke_order_diagram--bounding_box"></line><path id="pathSk93xdzq04ke" kvg:type="㇐" d="M26,19.15c3.5,0.85,7.61,0.17,10.63-0.11c9.79-0.92,27.93-2.28,38.61-2.81c3.29-0.16,7.01-0.07,10.26,0.64" transform="matrix(1,0,0,1,596,-4)" class="stroke_order_diagram--existing_path"></path><path id="pathSk93xdzq04kf" kvg:type="㇑" d="M23.77,38.69c1.08,1.08,1.1,2.43,1.1,4.22c0,0.83-0.02,32.82-0.03,46.46c0,3.62,0,5.95,0,6.06" transform="matrix(1,0,0,1,596,-4)" class="stroke_order_diagram--existing_path"></path><path id="pathSk93xdzq04kg" kvg:type="㇕a" d="M26.19,40.82c6.56-0.45,49.06-3.6,53.16-3.83c4.27-0.24,5.86,0.76,5.86,4.22c0,1.4-0.04,30.21-0.04,46.16c0,3,0,5.55,0,7.37" transform="matrix(1,0,0,1,596,-4)" class="stroke_order_diagram--existing_path"></path><path id="pathSk93xdzq04kh" kvg:type="㇒" d="M45.5,21c1.25,1.25,1.33,2.96,1.34,4.68C47,42.5,45.88,56.5,34,65.75" transform="matrix(1,0,0,1,596,-4)" class="stroke_order_diagram--existing_path"></path><path id="pathSk93xdzq04ki" kvg:type="㇟a" d="M60,19.75c1,1,1.49,2.8,1.49,4.78c0,4.84-0.11,22.59-0.11,27.09c0,6.62,0.88,7.9,7.63,7.9c6.12,0,7.62-0.9,8.76-2.6" transform="matrix(1,0,0,1,596,-4)" class="stroke_order_diagram--existing_path"></path><path id="pathSk93xdzq04kj" kvg:type="㇐a" d="M25.99,76.98c13.89-0.98,43.64-2.6,57.82-3.06" transform="matrix(1,0,0,1,596,-4)" class="stroke_order_diagram--existing_path"></path><path id="kvg:09149-s7" kvg:type="㇐a" d="M26.21,92.56c16.67-1.06,42.11-2.31,57.58-2.79" transform="matrix(1,0,0,1,596,-4)" class="stroke_order_diagram--current_path"></path><path id="pathSk93xdzq04kl" kvg:type="㇐a" d="M26.21,92.56c16.67-1.06,42.11-2.31,57.58-2.79" transform="matrix(1,0,0,1,596,-4)" class="stroke_order_diagram--current_path"></path><circle cx="26.21" cy="92.56" r="8" class="stroke_order_diagram--path_start" transform="matrix(1,0,0,1,596,-4)"></circle></svg>