<?xml version="1.0" encoding="UTF-8"?>
<!DOCTYPE svg PUBLIC "-//W3C//DTD SVG 1.0//EN" "http://www.w3.org/TR/2001/REC-SVG-20010904/DTD/svg10.dtd" [
<!ATTLIST g
xmlns:kvg CDATA #FIXED "http://kanjivg.tagaini.net"
kvg:element CDATA #IMPLIED
kvg:variant CDATA #IMPLIED
kvg:partial CDATA #IMPLIED
kvg:original CDATA #IMPLIED
kvg:part CDATA #IMPLIED
kvg:number CDATA #IMPLIED
kvg:tradForm CDATA #IMPLIED
kvg:radicalForm CDATA #IMPLIED
kvg:position CDATA #IMPLIED
kvg:radical CDATA #IMPLIED
kvg:phon CDATA #IMPLIED >
<!ATTLIST path
xmlns:kvg CDATA #FIXED "http://kanjivg.tagaini.net"
kvg:type CDATA #IMPLIED >
]><svg style="width: 700px; height: 100px;" xmlns="http://www.w3.org/2000/svg" xmlns:xlink="http://www.w3.org/1999/xlink"><style>
.stroke_order_diagram--outer_container {
  width: 100%;
  overflow-x: auto;
  overflow-y: hidden;
}

.stroke_order_diagram--guide_line {
  fill: none;
  stroke: #ddd;
  stroke-width: 3;
  stroke-linecap: square;
  stroke-linejoin: square;
  stroke-dasharray:8, 8;
}

.stroke_order_diagram--bounding_box {
  fill: none;
  stroke: #ddd;
  stroke-width: 4;
  stroke-linecap: square;
  stroke-linejoin: square;
}

.stroke_order_diagram--current_path {
  fill: none;
  stroke: #000;
  stroke-width: 6;
  stroke-linecap: round;
  stroke-linejoin: round;
}

.stroke_order_diagram--existing_path {
  fill: none;
  stroke: #aaa;
  stroke-width: 6;
  stroke-linecap: round;
  stroke-linejoin:round;
}

.stroke_order_diagram--path_start {
  fill: rgba(255, 0, 0, 0.7);
  stroke:none
}</style><desc>Created with Snap</desc><defs></defs><line x1="1" x2="699" y1="1" y2="1" class="stroke_order_diagram--bounding_box"></line><line x1="1" x2="1" y1="1" y2="99" class="stroke_order_diagram--bounding_box"></line><line x1="1" x2="699" y1="99" y2="99" class="stroke_order_diagram--bounding_box"></line><line x1="0" x2="700" y1="50" y2="50" class="stroke_order_diagram--guide_line"></line><line x1="50" x2="50" y1="1" y2="99" class="stroke_order_diagram--guide_line"></line><line x1="99" x2="99" y1="1" y2="99" class="stroke_order_diagram--bounding_box"></line><path id="kvg:091c6-s1" kvg:type="㇒" d="M71.68,10.89c0.13,0.41,0.17,1-0.25,1.67C68,18,48,25.25,27.25,27.5" transform="matrix(1,0,0,1,-4,-4)" class="stroke_order_diagram--current_path"></path><path id="pathSk93xdzq04l2" kvg:type="㇒" d="M71.68,10.89c0.13,0.41,0.17,1-0.25,1.67C68,18,48,25.25,27.25,27.5" transform="matrix(1,0,0,1,-4,-4)" class="stroke_order_diagram--current_path"></path><circle cx="71.68" cy="10.89" r="8" class="stroke_order_diagram--path_start" transform="matrix(1,0,0,1,-4,-4)"></circle><line x1="150" x2="150" y1="1" y2="99" class="stroke_order_diagram--guide_line"></line><line x1="199" x2="199" y1="1" y2="99" class="stroke_order_diagram--bounding_box"></line><path id="pathSk93xdzq04l5" kvg:type="㇒" d="M71.68,10.89c0.13,0.41,0.17,1-0.25,1.67C68,18,48,25.25,27.25,27.5" transform="matrix(1,0,0,1,96,-4)" class="stroke_order_diagram--existing_path"></path><path id="kvg:091c6-s2" kvg:type="㇔" d="M28.5,32.5c2.63,1.96,6.59,7.48,7.25,10.52" transform="matrix(1,0,0,1,96,-4)" class="stroke_order_diagram--current_path"></path><path id="pathSk93xdzq04l7" kvg:type="㇔" d="M28.5,32.5c2.63,1.96,6.59,7.48,7.25,10.52" transform="matrix(1,0,0,1,96,-4)" class="stroke_order_diagram--current_path"></path><circle cx="28.5" cy="32.5" r="8" class="stroke_order_diagram--path_start" transform="matrix(1,0,0,1,96,-4)"></circle><line x1="250" x2="250" y1="1" y2="99" class="stroke_order_diagram--guide_line"></line><line x1="299" x2="299" y1="1" y2="99" class="stroke_order_diagram--bounding_box"></line><path id="pathSk93xdzq04la" kvg:type="㇒" d="M71.68,10.89c0.13,0.41,0.17,1-0.25,1.67C68,18,48,25.25,27.25,27.5" transform="matrix(1,0,0,1,196,-4)" class="stroke_order_diagram--existing_path"></path><path id="pathSk93xdzq04lb" kvg:type="㇔" d="M28.5,32.5c2.63,1.96,6.59,7.48,7.25,10.52" transform="matrix(1,0,0,1,196,-4)" class="stroke_order_diagram--existing_path"></path><path id="kvg:091c6-s3" kvg:type="㇒" d="M78.75,24.5c0.04,0.47,0.2,1.26-0.07,1.89C76.5,31.5,73,37.5,65.81,44.52" transform="matrix(1,0,0,1,196,-4)" class="stroke_order_diagram--current_path"></path><path id="pathSk93xdzq04ld" kvg:type="㇒" d="M78.75,24.5c0.04,0.47,0.2,1.26-0.07,1.89C76.5,31.5,73,37.5,65.81,44.52" transform="matrix(1,0,0,1,196,-4)" class="stroke_order_diagram--current_path"></path><circle cx="78.75" cy="24.5" r="8" class="stroke_order_diagram--path_start" transform="matrix(1,0,0,1,196,-4)"></circle><line x1="350" x2="350" y1="1" y2="99" class="stroke_order_diagram--guide_line"></line><line x1="399" x2="399" y1="1" y2="99" class="stroke_order_diagram--bounding_box"></line><path id="pathSk93xdzq04lg" kvg:type="㇒" d="M71.68,10.89c0.13,0.41,0.17,1-0.25,1.67C68,18,48,25.25,27.25,27.5" transform="matrix(1,0,0,1,296,-4)" class="stroke_order_diagram--existing_path"></path><path id="pathSk93xdzq04lh" kvg:type="㇔" d="M28.5,32.5c2.63,1.96,6.59,7.48,7.25,10.52" transform="matrix(1,0,0,1,296,-4)" class="stroke_order_diagram--existing_path"></path><path id="pathSk93xdzq04li" kvg:type="㇒" d="M78.75,24.5c0.04,0.47,0.2,1.26-0.07,1.89C76.5,31.5,73,37.5,65.81,44.52" transform="matrix(1,0,0,1,296,-4)" class="stroke_order_diagram--existing_path"></path><path id="kvg:091c6-s4" kvg:type="㇐" d="M14.75,50.67c0.75,0.25,2.75,0.65,4.75,0.74c5.5,0.25,60.75-6.44,69.5-5.95c2,0.11,2.5-0.25,3.75,0" transform="matrix(1,0,0,1,296,-4)" class="stroke_order_diagram--current_path"></path><path id="pathSk93xdzq04lk" kvg:type="㇐" d="M14.75,50.67c0.75,0.25,2.75,0.65,4.75,0.74c5.5,0.25,60.75-6.44,69.5-5.95c2,0.11,2.5-0.25,3.75,0" transform="matrix(1,0,0,1,296,-4)" class="stroke_order_diagram--current_path"></path><circle cx="14.75" cy="50.67" r="8" class="stroke_order_diagram--path_start" transform="matrix(1,0,0,1,296,-4)"></circle><line x1="450" x2="450" y1="1" y2="99" class="stroke_order_diagram--guide_line"></line><line x1="499" x2="499" y1="1" y2="99" class="stroke_order_diagram--bounding_box"></line><path id="pathSk93xdzq04ln" kvg:type="㇒" d="M71.68,10.89c0.13,0.41,0.17,1-0.25,1.67C68,18,48,25.25,27.25,27.5" transform="matrix(1,0,0,1,396,-4)" class="stroke_order_diagram--existing_path"></path><path id="pathSk93xdzq04lo" kvg:type="㇔" d="M28.5,32.5c2.63,1.96,6.59,7.48,7.25,10.52" transform="matrix(1,0,0,1,396,-4)" class="stroke_order_diagram--existing_path"></path><path id="pathSk93xdzq04lp" kvg:type="㇒" d="M78.75,24.5c0.04,0.47,0.2,1.26-0.07,1.89C76.5,31.5,73,37.5,65.81,44.52" transform="matrix(1,0,0,1,396,-4)" class="stroke_order_diagram--existing_path"></path><path id="pathSk93xdzq04lq" kvg:type="㇐" d="M14.75,50.67c0.75,0.25,2.75,0.65,4.75,0.74c5.5,0.25,60.75-6.44,69.5-5.95c2,0.11,2.5-0.25,3.75,0" transform="matrix(1,0,0,1,396,-4)" class="stroke_order_diagram--existing_path"></path><path id="kvg:091c6-s5" kvg:type="㇑" d="M52.25,25.25c1.25,0.5,2,2.23,2.25,3.22c0.25,0.99,0,63.09-0.25,69.28" transform="matrix(1,0,0,1,396,-4)" class="stroke_order_diagram--current_path"></path><path id="pathSk93xdzq04ls" kvg:type="㇑" d="M52.25,25.25c1.25,0.5,2,2.23,2.25,3.22c0.25,0.99,0,63.09-0.25,69.28" transform="matrix(1,0,0,1,396,-4)" class="stroke_order_diagram--current_path"></path><circle cx="52.25" cy="25.25" r="8" class="stroke_order_diagram--path_start" transform="matrix(1,0,0,1,396,-4)"></circle><line x1="550" x2="550" y1="1" y2="99" class="stroke_order_diagram--guide_line"></line><line x1="599" x2="599" y1="1" y2="99" class="stroke_order_diagram--bounding_box"></line><path id="pathSk93xdzq04lv" kvg:type="㇒" d="M71.68,10.89c0.13,0.41,0.17,1-0.25,1.67C68,18,48,25.25,27.25,27.5" transform="matrix(1,0,0,1,496,-4)" class="stroke_order_diagram--existing_path"></path><path id="pathSk93xdzq04lw" kvg:type="㇔" d="M28.5,32.5c2.63,1.96,6.59,7.48,7.25,10.52" transform="matrix(1,0,0,1,496,-4)" class="stroke_order_diagram--existing_path"></path><path id="pathSk93xdzq04lx" kvg:type="㇒" d="M78.75,24.5c0.04,0.47,0.2,1.26-0.07,1.89C76.5,31.5,73,37.5,65.81,44.52" transform="matrix(1,0,0,1,496,-4)" class="stroke_order_diagram--existing_path"></path><path id="pathSk93xdzq04ly" kvg:type="㇐" d="M14.75,50.67c0.75,0.25,2.75,0.65,4.75,0.74c5.5,0.25,60.75-6.44,69.5-5.95c2,0.11,2.5-0.25,3.75,0" transform="matrix(1,0,0,1,496,-4)" class="stroke_order_diagram--existing_path"></path><path id="pathSk93xdzq04lz" kvg:type="㇑" d="M52.25,25.25c1.25,0.5,2,2.23,2.25,3.22c0.25,0.99,0,63.09-0.25,69.28" transform="matrix(1,0,0,1,496,-4)" class="stroke_order_diagram--existing_path"></path><path id="kvg:091c6-s6" kvg:type="㇒" d="M52.25,48.69C45.69,61.57,29.75,79.66,15,87.09" transform="matrix(1,0,0,1,496,-4)" class="stroke_order_diagram--current_path"></path><path id="pathSk93xdzq04m1" kvg:type="㇒" d="M52.25,48.69C45.69,61.57,29.75,79.66,15,87.09" transform="matrix(1,0,0,1,496,-4)" class="stroke_order_diagram--current_path"></path><circle cx="52.25" cy="48.69" r="8" class="stroke_order_diagram--path_start" transform="matrix(1,0,0,1,496,-4)"></circle><line x1="650" x2="650" y1="1" y2="99" class="stroke_order_diagram--guide_line"></line><line x1="699" x2="699" y1="1" y2="99" class="stroke_order_diagram--bounding_box"></line><path id="pathSk93xdzq04m4" kvg:type="㇒" d="M71.68,10.89c0.13,0.41,0.17,1-0.25,1.67C68,18,48,25.25,27.25,27.5" transform="matrix(1,0,0,1,596,-4)" class="stroke_order_diagram--existing_path"></path><path id="pathSk93xdzq04m5" kvg:type="㇔" d="M28.5,32.5c2.63,1.96,6.59,7.48,7.25,10.52" transform="matrix(1,0,0,1,596,-4)" class="stroke_order_diagram--existing_path"></path><path id="pathSk93xdzq04m6" kvg:type="㇒" d="M78.75,24.5c0.04,0.47,0.2,1.26-0.07,1.89C76.5,31.5,73,37.5,65.81,44.52" transform="matrix(1,0,0,1,596,-4)" class="stroke_order_diagram--existing_path"></path><path id="pathSk93xdzq04m7" kvg:type="㇐" d="M14.75,50.67c0.75,0.25,2.75,0.65,4.75,0.74c5.5,0.25,60.75-6.44,69.5-5.95c2,0.11,2.5-0.25,3.75,0" transform="matrix(1,0,0,1,596,-4)" class="stroke_order_diagram--existing_path"></path><path id="pathSk93xdzq04m8" kvg:type="㇑" d="M52.25,25.25c1.25,0.5,2,2.23,2.25,3.22c0.25,0.99,0,63.09-0.25,69.28" transform="matrix(1,0,0,1,596,-4)" class="stroke_order_diagram--existing_path"></path><path id="pathSk93xdzq04m9" kvg:type="㇒" d="M52.25,48.69C45.69,61.57,29.75,79.66,15,87.09" transform="matrix(1,0,0,1,596,-4)" class="stroke_order_diagram--existing_path"></path><path id="kvg:091c6-s7" kvg:type="㇏" d="M57,50.18c5.02,4.76,27.02,27.28,32.47,31.96c1.85,1.59,3.43,2.27,5.28,2.72" transform="matrix(1,0,0,1,596,-4)" class="stroke_order_diagram--current_path"></path><path id="pathSk93xdzq04mb" kvg:type="㇏" d="M57,50.18c5.02,4.76,27.02,27.28,32.47,31.96c1.85,1.59,3.43,2.27,5.28,2.72" transform="matrix(1,0,0,1,596,-4)" class="stroke_order_diagram--current_path"></path><circle cx="57" cy="50.18" r="8" class="stroke_order_diagram--path_start" transform="matrix(1,0,0,1,596,-4)"></circle></svg>