<?xml version="1.0" encoding="UTF-8"?>
<!DOCTYPE svg PUBLIC "-//W3C//DTD SVG 1.0//EN" "http://www.w3.org/TR/2001/REC-SVG-20010904/DTD/svg10.dtd" [
<!ATTLIST g
xmlns:kvg CDATA #FIXED "http://kanjivg.tagaini.net"
kvg:element CDATA #IMPLIED
kvg:variant CDATA #IMPLIED
kvg:partial CDATA #IMPLIED
kvg:original CDATA #IMPLIED
kvg:part CDATA #IMPLIED
kvg:number CDATA #IMPLIED
kvg:tradForm CDATA #IMPLIED
kvg:radicalForm CDATA #IMPLIED
kvg:position CDATA #IMPLIED
kvg:radical CDATA #IMPLIED
kvg:phon CDATA #IMPLIED >
<!ATTLIST path
xmlns:kvg CDATA #FIXED "http://kanjivg.tagaini.net"
kvg:type CDATA #IMPLIED >
]><svg style="width: 700px; height: 100px;" xmlns="http://www.w3.org/2000/svg" xmlns:xlink="http://www.w3.org/1999/xlink" width="700px" height="100px"><style>
.stroke_order_diagram--outer_container {
  width: 100%;
  overflow-x: auto;
  overflow-y: hidden;
}

.stroke_order_diagram--guide_line {
  fill: none;
  stroke: #ddd;
  stroke-width: 3;
  stroke-linecap: square;
  stroke-linejoin: square;
  stroke-dasharray:8, 8;
}

.stroke_order_diagram--bounding_box {
  fill: none;
  stroke: #ddd;
  stroke-width: 4;
  stroke-linecap: square;
  stroke-linejoin: square;
}

.stroke_order_diagram--current_path {
  fill: none;
  stroke: #000;
  stroke-width: 6;
  stroke-linecap: round;
  stroke-linejoin: round;
}

.stroke_order_diagram--existing_path {
  fill: none;
  stroke: #aaa;
  stroke-width: 6;
  stroke-linecap: round;
  stroke-linejoin:round;
}

.stroke_order_diagram--path_start {
  fill: rgba(255, 0, 0, 0.7);
  stroke:none
}</style><desc>Created with Snap</desc><defs></defs><line x1="1" x2="699" y1="1" y2="1" class="stroke_order_diagram--bounding_box"></line><line x1="1" x2="1" y1="1" y2="99" class="stroke_order_diagram--bounding_box"></line><line x1="1" x2="699" y1="99" y2="99" class="stroke_order_diagram--bounding_box"></line><line x1="0" x2="700" y1="50" y2="50" class="stroke_order_diagram--guide_line"></line><line x1="50" x2="50" y1="1" y2="99" class="stroke_order_diagram--guide_line"></line><line x1="99" x2="99" y1="1" y2="99" class="stroke_order_diagram--bounding_box"></line><path id="kvg:091cc-s1" kvg:type="㇑" d="M24.83,19.94c0.93,0.93,1.42,2.06,1.66,3.15c1.53,6.96,3,17.79,4.16,28.14c0.16,1.43,0.31,2.82,0.46,4.14" transform="matrix(1,0,0,1,-4,-4)" class="stroke_order_diagram--current_path"></path><path id="pathSk940yk7k4ms" kvg:type="㇑" d="M24.83,19.94c0.93,0.93,1.42,2.06,1.66,3.15c1.53,6.96,3,17.79,4.16,28.14c0.16,1.43,0.31,2.82,0.46,4.14" transform="matrix(1,0,0,1,-4,-4)" class="stroke_order_diagram--current_path"></path><circle cx="24.83" cy="19.94" r="8" class="stroke_order_diagram--path_start" transform="matrix(1,0,0,1,-4,-4)"></circle><line x1="150" x2="150" y1="1" y2="99" class="stroke_order_diagram--guide_line"></line><line x1="199" x2="199" y1="1" y2="99" class="stroke_order_diagram--bounding_box"></line><path id="pathSk940yk7k4mv" kvg:type="㇑" d="M24.83,19.94c0.93,0.93,1.42,2.06,1.66,3.15c1.53,6.96,3,17.79,4.16,28.14c0.16,1.43,0.31,2.82,0.46,4.14" transform="matrix(1,0,0,1,96,-4)" class="stroke_order_diagram--existing_path"></path><path id="kvg:091cc-s2" kvg:type="㇕a" d="M27.51,22.11c15.08-1.48,37.74-4.36,51.76-5.05c4.06-0.2,6.23,1.44,5.9,4.24c-0.86,7.17-2.71,17.2-5.09,26.29c-0.38,1.45-0.76,2.87-1.15,4.26" transform="matrix(1,0,0,1,96,-4)" class="stroke_order_diagram--current_path"></path><path id="pathSk940yk7k4mx" kvg:type="㇕a" d="M27.51,22.11c15.08-1.48,37.74-4.36,51.76-5.05c4.06-0.2,6.23,1.44,5.9,4.24c-0.86,7.17-2.71,17.2-5.09,26.29c-0.38,1.45-0.76,2.87-1.15,4.26" transform="matrix(1,0,0,1,96,-4)" class="stroke_order_diagram--current_path"></path><circle cx="27.51" cy="22.11" r="8" class="stroke_order_diagram--path_start" transform="matrix(1,0,0,1,96,-4)"></circle><line x1="250" x2="250" y1="1" y2="99" class="stroke_order_diagram--guide_line"></line><line x1="299" x2="299" y1="1" y2="99" class="stroke_order_diagram--bounding_box"></line><path id="pathSk940yk7k4n0" kvg:type="㇑" d="M24.83,19.94c0.93,0.93,1.42,2.06,1.66,3.15c1.53,6.96,3,17.79,4.16,28.14c0.16,1.43,0.31,2.82,0.46,4.14" transform="matrix(1,0,0,1,196,-4)" class="stroke_order_diagram--existing_path"></path><path id="pathSk940yk7k4n1" kvg:type="㇕a" d="M27.51,22.11c15.08-1.48,37.74-4.36,51.76-5.05c4.06-0.2,6.23,1.44,5.9,4.24c-0.86,7.17-2.71,17.2-5.09,26.29c-0.38,1.45-0.76,2.87-1.15,4.26" transform="matrix(1,0,0,1,196,-4)" class="stroke_order_diagram--existing_path"></path><path id="kvg:091cc-s3" kvg:type="㇐a" d="M30.05,36.97c8.7-0.97,38.08-3.47,51.66-3.99" transform="matrix(1,0,0,1,196,-4)" class="stroke_order_diagram--current_path"></path><path id="pathSk940yk7k4n3" kvg:type="㇐a" d="M30.05,36.97c8.7-0.97,38.08-3.47,51.66-3.99" transform="matrix(1,0,0,1,196,-4)" class="stroke_order_diagram--current_path"></path><circle cx="30.05" cy="36.97" r="8" class="stroke_order_diagram--path_start" transform="matrix(1,0,0,1,196,-4)"></circle><line x1="350" x2="350" y1="1" y2="99" class="stroke_order_diagram--guide_line"></line><line x1="399" x2="399" y1="1" y2="99" class="stroke_order_diagram--bounding_box"></line><path id="pathSk940yk7k4n6" kvg:type="㇑" d="M24.83,19.94c0.93,0.93,1.42,2.06,1.66,3.15c1.53,6.96,3,17.79,4.16,28.14c0.16,1.43,0.31,2.82,0.46,4.14" transform="matrix(1,0,0,1,296,-4)" class="stroke_order_diagram--existing_path"></path><path id="pathSk940yk7k4n7" kvg:type="㇕a" d="M27.51,22.11c15.08-1.48,37.74-4.36,51.76-5.05c4.06-0.2,6.23,1.44,5.9,4.24c-0.86,7.17-2.71,17.2-5.09,26.29c-0.38,1.45-0.76,2.87-1.15,4.26" transform="matrix(1,0,0,1,296,-4)" class="stroke_order_diagram--existing_path"></path><path id="pathSk940yk7k4n8" kvg:type="㇐a" d="M30.05,36.97c8.7-0.97,38.08-3.47,51.66-3.99" transform="matrix(1,0,0,1,296,-4)" class="stroke_order_diagram--existing_path"></path><path id="kvg:091cc-s4" kvg:type="㇐a" d="M32.12,53.04C44,52,63.25,50.62,78.43,49.8" transform="matrix(1,0,0,1,296,-4)" class="stroke_order_diagram--current_path"></path><path id="pathSk940yk7k4na" kvg:type="㇐a" d="M32.12,53.04C44,52,63.25,50.62,78.43,49.8" transform="matrix(1,0,0,1,296,-4)" class="stroke_order_diagram--current_path"></path><circle cx="32.12" cy="53.04" r="8" class="stroke_order_diagram--path_start" transform="matrix(1,0,0,1,296,-4)"></circle><line x1="450" x2="450" y1="1" y2="99" class="stroke_order_diagram--guide_line"></line><line x1="499" x2="499" y1="1" y2="99" class="stroke_order_diagram--bounding_box"></line><path id="pathSk940yk7k4nd" kvg:type="㇑" d="M24.83,19.94c0.93,0.93,1.42,2.06,1.66,3.15c1.53,6.96,3,17.79,4.16,28.14c0.16,1.43,0.31,2.82,0.46,4.14" transform="matrix(1,0,0,1,396,-4)" class="stroke_order_diagram--existing_path"></path><path id="pathSk940yk7k4ne" kvg:type="㇕a" d="M27.51,22.11c15.08-1.48,37.74-4.36,51.76-5.05c4.06-0.2,6.23,1.44,5.9,4.24c-0.86,7.17-2.71,17.2-5.09,26.29c-0.38,1.45-0.76,2.87-1.15,4.26" transform="matrix(1,0,0,1,396,-4)" class="stroke_order_diagram--existing_path"></path><path id="pathSk940yk7k4nf" kvg:type="㇐a" d="M30.05,36.97c8.7-0.97,38.08-3.47,51.66-3.99" transform="matrix(1,0,0,1,396,-4)" class="stroke_order_diagram--existing_path"></path><path id="pathSk940yk7k4ng" kvg:type="㇐a" d="M32.12,53.04C44,52,63.25,50.62,78.43,49.8" transform="matrix(1,0,0,1,396,-4)" class="stroke_order_diagram--existing_path"></path><path id="kvg:091cc-s5" kvg:type="㇑a" d="M52.33,21.63c1.21,1.21,1.62,2.88,1.66,5.12c0.3,15.62,0.1,56.86,0.1,61.25" transform="matrix(1,0,0,1,396,-4)" class="stroke_order_diagram--current_path"></path><path id="pathSk940yk7k4ni" kvg:type="㇑a" d="M52.33,21.63c1.21,1.21,1.62,2.88,1.66,5.12c0.3,15.62,0.1,56.86,0.1,61.25" transform="matrix(1,0,0,1,396,-4)" class="stroke_order_diagram--current_path"></path><circle cx="52.33" cy="21.63" r="8" class="stroke_order_diagram--path_start" transform="matrix(1,0,0,1,396,-4)"></circle><line x1="550" x2="550" y1="1" y2="99" class="stroke_order_diagram--guide_line"></line><line x1="599" x2="599" y1="1" y2="99" class="stroke_order_diagram--bounding_box"></line><path id="pathSk940yk7k4nl" kvg:type="㇑" d="M24.83,19.94c0.93,0.93,1.42,2.06,1.66,3.15c1.53,6.96,3,17.79,4.16,28.14c0.16,1.43,0.31,2.82,0.46,4.14" transform="matrix(1,0,0,1,496,-4)" class="stroke_order_diagram--existing_path"></path><path id="pathSk940yk7k4nm" kvg:type="㇕a" d="M27.51,22.11c15.08-1.48,37.74-4.36,51.76-5.05c4.06-0.2,6.23,1.44,5.9,4.24c-0.86,7.17-2.71,17.2-5.09,26.29c-0.38,1.45-0.76,2.87-1.15,4.26" transform="matrix(1,0,0,1,496,-4)" class="stroke_order_diagram--existing_path"></path><path id="pathSk940yk7k4nn" kvg:type="㇐a" d="M30.05,36.97c8.7-0.97,38.08-3.47,51.66-3.99" transform="matrix(1,0,0,1,496,-4)" class="stroke_order_diagram--existing_path"></path><path id="pathSk940yk7k4no" kvg:type="㇐a" d="M32.12,53.04C44,52,63.25,50.62,78.43,49.8" transform="matrix(1,0,0,1,496,-4)" class="stroke_order_diagram--existing_path"></path><path id="pathSk940yk7k4np" kvg:type="㇑a" d="M52.33,21.63c1.21,1.21,1.62,2.88,1.66,5.12c0.3,15.62,0.1,56.86,0.1,61.25" transform="matrix(1,0,0,1,496,-4)" class="stroke_order_diagram--existing_path"></path><path id="kvg:091cc-s6" kvg:type="㇐" d="M27.38,70.45c1.92,0.46,5.43,0.69,7.34,0.46c11.03-1.29,28.41-2.9,37.21-3.61c3.18-0.26,5.36-0.03,6.95,0.2" transform="matrix(1,0,0,1,496,-4)" class="stroke_order_diagram--current_path"></path><path id="pathSk940yk7k4nr" kvg:type="㇐" d="M27.38,70.45c1.92,0.46,5.43,0.69,7.34,0.46c11.03-1.29,28.41-2.9,37.21-3.61c3.18-0.26,5.36-0.03,6.95,0.2" transform="matrix(1,0,0,1,496,-4)" class="stroke_order_diagram--current_path"></path><circle cx="27.38" cy="70.45" r="8" class="stroke_order_diagram--path_start" transform="matrix(1,0,0,1,496,-4)"></circle><line x1="650" x2="650" y1="1" y2="99" class="stroke_order_diagram--guide_line"></line><line x1="699" x2="699" y1="1" y2="99" class="stroke_order_diagram--bounding_box"></line><path id="pathSk940yk7k4nu" kvg:type="㇑" d="M24.83,19.94c0.93,0.93,1.42,2.06,1.66,3.15c1.53,6.96,3,17.79,4.16,28.14c0.16,1.43,0.31,2.82,0.46,4.14" transform="matrix(1,0,0,1,596,-4)" class="stroke_order_diagram--existing_path"></path><path id="pathSk940yk7k4nv" kvg:type="㇕a" d="M27.51,22.11c15.08-1.48,37.74-4.36,51.76-5.05c4.06-0.2,6.23,1.44,5.9,4.24c-0.86,7.17-2.71,17.2-5.09,26.29c-0.38,1.45-0.76,2.87-1.15,4.26" transform="matrix(1,0,0,1,596,-4)" class="stroke_order_diagram--existing_path"></path><path id="pathSk940yk7k4nw" kvg:type="㇐a" d="M30.05,36.97c8.7-0.97,38.08-3.47,51.66-3.99" transform="matrix(1,0,0,1,596,-4)" class="stroke_order_diagram--existing_path"></path><path id="pathSk940yk7k4nx" kvg:type="㇐a" d="M32.12,53.04C44,52,63.25,50.62,78.43,49.8" transform="matrix(1,0,0,1,596,-4)" class="stroke_order_diagram--existing_path"></path><path id="pathSk940yk7k4ny" kvg:type="㇑a" d="M52.33,21.63c1.21,1.21,1.62,2.88,1.66,5.12c0.3,15.62,0.1,56.86,0.1,61.25" transform="matrix(1,0,0,1,596,-4)" class="stroke_order_diagram--existing_path"></path><path id="pathSk940yk7k4nz" kvg:type="㇐" d="M27.38,70.45c1.92,0.46,5.43,0.69,7.34,0.46c11.03-1.29,28.41-2.9,37.21-3.61c3.18-0.26,5.36-0.03,6.95,0.2" transform="matrix(1,0,0,1,596,-4)" class="stroke_order_diagram--existing_path"></path><path id="kvg:091cc-s7" kvg:type="㇐" d="M15.38,90.31c2.43,0.69,6.89,0.88,9.31,0.69C45.75,89.38,66,87.62,84,87.54c4.05-0.02,6.48,0.33,8.5,0.68" transform="matrix(1,0,0,1,596,-4)" class="stroke_order_diagram--current_path"></path><path id="pathSk940yk7k4o1" kvg:type="㇐" d="M15.38,90.31c2.43,0.69,6.89,0.88,9.31,0.69C45.75,89.38,66,87.62,84,87.54c4.05-0.02,6.48,0.33,8.5,0.68" transform="matrix(1,0,0,1,596,-4)" class="stroke_order_diagram--current_path"></path><circle cx="15.38" cy="90.31" r="8" class="stroke_order_diagram--path_start" transform="matrix(1,0,0,1,596,-4)"></circle></svg>