<?xml version="1.0" encoding="UTF-8"?>
<!DOCTYPE svg PUBLIC "-//W3C//DTD SVG 1.0//EN" "http://www.w3.org/TR/2001/REC-SVG-20010904/DTD/svg10.dtd" [
<!ATTLIST g
xmlns:kvg CDATA #FIXED "http://kanjivg.tagaini.net"
kvg:element CDATA #IMPLIED
kvg:variant CDATA #IMPLIED
kvg:partial CDATA #IMPLIED
kvg:original CDATA #IMPLIED
kvg:part CDATA #IMPLIED
kvg:number CDATA #IMPLIED
kvg:tradForm CDATA #IMPLIED
kvg:radicalForm CDATA #IMPLIED
kvg:position CDATA #IMPLIED
kvg:radical CDATA #IMPLIED
kvg:phon CDATA #IMPLIED >
<!ATTLIST path
xmlns:kvg CDATA #FIXED "http://kanjivg.tagaini.net"
kvg:type CDATA #IMPLIED >
]><svg style="width: 800px; height: 100px;" xmlns="http://www.w3.org/2000/svg" xmlns:xlink="http://www.w3.org/1999/xlink"><style>
.stroke_order_diagram--outer_container {
  width: 100%;
  overflow-x: auto;
  overflow-y: hidden;
}

.stroke_order_diagram--guide_line {
  fill: none;
  stroke: #ddd;
  stroke-width: 3;
  stroke-linecap: square;
  stroke-linejoin: square;
  stroke-dasharray:8, 8;
}

.stroke_order_diagram--bounding_box {
  fill: none;
  stroke: #ddd;
  stroke-width: 4;
  stroke-linecap: square;
  stroke-linejoin: square;
}

.stroke_order_diagram--current_path {
  fill: none;
  stroke: #000;
  stroke-width: 6;
  stroke-linecap: round;
  stroke-linejoin: round;
}

.stroke_order_diagram--existing_path {
  fill: none;
  stroke: #aaa;
  stroke-width: 6;
  stroke-linecap: round;
  stroke-linejoin:round;
}

.stroke_order_diagram--path_start {
  fill: rgba(255, 0, 0, 0.7);
  stroke:none
}</style><desc>Created with Snap</desc><defs></defs><line x1="1" x2="799" y1="1" y2="1" class="stroke_order_diagram--bounding_box"></line><line x1="1" x2="1" y1="1" y2="99" class="stroke_order_diagram--bounding_box"></line><line x1="1" x2="799" y1="99" y2="99" class="stroke_order_diagram--bounding_box"></line><line x1="0" x2="800" y1="50" y2="50" class="stroke_order_diagram--guide_line"></line><line x1="50" x2="50" y1="1" y2="99" class="stroke_order_diagram--guide_line"></line><line x1="99" x2="99" y1="1" y2="99" class="stroke_order_diagram--bounding_box"></line><path id="kvg:0961c-s1" kvg:type="㇒" d="M54.78,9.64c0.02,0.25,0.04,0.65-0.04,1.02c-0.45,2.15-3.29,7.25-6.86,10.14" transform="matrix(1,0,0,1,-4,-4)" class="stroke_order_diagram--current_path"></path><path id="pathSk93xdzq04up" kvg:type="㇒" d="M54.78,9.64c0.02,0.25,0.04,0.65-0.04,1.02c-0.45,2.15-3.29,7.25-6.86,10.14" transform="matrix(1,0,0,1,-4,-4)" class="stroke_order_diagram--current_path"></path><circle cx="54.78" cy="9.64" r="8" class="stroke_order_diagram--path_start" transform="matrix(1,0,0,1,-4,-4)"></circle><line x1="150" x2="150" y1="1" y2="99" class="stroke_order_diagram--guide_line"></line><line x1="199" x2="199" y1="1" y2="99" class="stroke_order_diagram--bounding_box"></line><path id="pathSk93xdzq04us" kvg:type="㇒" d="M54.78,9.64c0.02,0.25,0.04,0.65-0.04,1.02c-0.45,2.15-3.29,7.25-6.86,10.14" transform="matrix(1,0,0,1,96,-4)" class="stroke_order_diagram--existing_path"></path><path id="kvg:0961c-s2" kvg:type="㇑" d="M31.54,20.75C32.25,22,32.28,23,32.5,24c0.22,1,0,30.75-0.22,37" transform="matrix(1,0,0,1,96,-4)" class="stroke_order_diagram--current_path"></path><path id="pathSk93xdzq04uu" kvg:type="㇑" d="M31.54,20.75C32.25,22,32.28,23,32.5,24c0.22,1,0,30.75-0.22,37" transform="matrix(1,0,0,1,96,-4)" class="stroke_order_diagram--current_path"></path><circle cx="31.54" cy="20.75" r="8" class="stroke_order_diagram--path_start" transform="matrix(1,0,0,1,96,-4)"></circle><line x1="250" x2="250" y1="1" y2="99" class="stroke_order_diagram--guide_line"></line><line x1="299" x2="299" y1="1" y2="99" class="stroke_order_diagram--bounding_box"></line><path id="pathSk93xdzq04ux" kvg:type="㇒" d="M54.78,9.64c0.02,0.25,0.04,0.65-0.04,1.02c-0.45,2.15-3.29,7.25-6.86,10.14" transform="matrix(1,0,0,1,196,-4)" class="stroke_order_diagram--existing_path"></path><path id="pathSk93xdzq04uy" kvg:type="㇑" d="M31.54,20.75C32.25,22,32.28,23,32.5,24c0.22,1,0,30.75-0.22,37" transform="matrix(1,0,0,1,196,-4)" class="stroke_order_diagram--existing_path"></path><path id="kvg:0961c-s3" kvg:type="㇕b" d="M33.89,23.09c7.33-1.16,38.67-4.19,42.45-4.58c1.38-0.14,2.21,1.44,2.02,2.29c-0.82,3.48-1.75,5.99-3.51,11.01" transform="matrix(1,0,0,1,196,-4)" class="stroke_order_diagram--current_path"></path><path id="pathSk93xdzq04v0" kvg:type="㇕b" d="M33.89,23.09c7.33-1.16,38.67-4.19,42.45-4.58c1.38-0.14,2.21,1.44,2.02,2.29c-0.82,3.48-1.75,5.99-3.51,11.01" transform="matrix(1,0,0,1,196,-4)" class="stroke_order_diagram--current_path"></path><circle cx="33.89" cy="23.09" r="8" class="stroke_order_diagram--path_start" transform="matrix(1,0,0,1,196,-4)"></circle><line x1="350" x2="350" y1="1" y2="99" class="stroke_order_diagram--guide_line"></line><line x1="399" x2="399" y1="1" y2="99" class="stroke_order_diagram--bounding_box"></line><path id="pathSk93xdzq04v3" kvg:type="㇒" d="M54.78,9.64c0.02,0.25,0.04,0.65-0.04,1.02c-0.45,2.15-3.29,7.25-6.86,10.14" transform="matrix(1,0,0,1,296,-4)" class="stroke_order_diagram--existing_path"></path><path id="pathSk93xdzq04v4" kvg:type="㇑" d="M31.54,20.75C32.25,22,32.28,23,32.5,24c0.22,1,0,30.75-0.22,37" transform="matrix(1,0,0,1,296,-4)" class="stroke_order_diagram--existing_path"></path><path id="pathSk93xdzq04v5" kvg:type="㇕b" d="M33.89,23.09c7.33-1.16,38.67-4.19,42.45-4.58c1.38-0.14,2.21,1.44,2.02,2.29c-0.82,3.48-1.75,5.99-3.51,11.01" transform="matrix(1,0,0,1,296,-4)" class="stroke_order_diagram--existing_path"></path><path id="kvg:0961c-s4" kvg:type="㇐b" d="M33.05,35.54c11.95-1.21,39.04-3.36,44.68-3.8" transform="matrix(1,0,0,1,296,-4)" class="stroke_order_diagram--current_path"></path><path id="pathSk93xdzq04v7" kvg:type="㇐b" d="M33.05,35.54c11.95-1.21,39.04-3.36,44.68-3.8" transform="matrix(1,0,0,1,296,-4)" class="stroke_order_diagram--current_path"></path><circle cx="33.05" cy="35.54" r="8" class="stroke_order_diagram--path_start" transform="matrix(1,0,0,1,296,-4)"></circle><line x1="450" x2="450" y1="1" y2="99" class="stroke_order_diagram--guide_line"></line><line x1="499" x2="499" y1="1" y2="99" class="stroke_order_diagram--bounding_box"></line><path id="pathSk93xdzq04va" kvg:type="㇒" d="M54.78,9.64c0.02,0.25,0.04,0.65-0.04,1.02c-0.45,2.15-3.29,7.25-6.86,10.14" transform="matrix(1,0,0,1,396,-4)" class="stroke_order_diagram--existing_path"></path><path id="pathSk93xdzq04vb" kvg:type="㇑" d="M31.54,20.75C32.25,22,32.28,23,32.5,24c0.22,1,0,30.75-0.22,37" transform="matrix(1,0,0,1,396,-4)" class="stroke_order_diagram--existing_path"></path><path id="pathSk93xdzq04vc" kvg:type="㇕b" d="M33.89,23.09c7.33-1.16,38.67-4.19,42.45-4.58c1.38-0.14,2.21,1.44,2.02,2.29c-0.82,3.48-1.75,5.99-3.51,11.01" transform="matrix(1,0,0,1,396,-4)" class="stroke_order_diagram--existing_path"></path><path id="pathSk93xdzq04vd" kvg:type="㇐b" d="M33.05,35.54c11.95-1.21,39.04-3.36,44.68-3.8" transform="matrix(1,0,0,1,396,-4)" class="stroke_order_diagram--existing_path"></path><path id="kvg:0961c-s5" kvg:type="㇕b" d="M32.98,44.82c11.02-1.07,39.41-3.67,43.68-4.14c1.56-0.17,2.5,1.7,2.28,2.7c-0.92,4.12-2.44,7.37-3.96,11.1" transform="matrix(1,0,0,1,396,-4)" class="stroke_order_diagram--current_path"></path><path id="pathSk93xdzq04vf" kvg:type="㇕b" d="M32.98,44.82c11.02-1.07,39.41-3.67,43.68-4.14c1.56-0.17,2.5,1.7,2.28,2.7c-0.92,4.12-2.44,7.37-3.96,11.1" transform="matrix(1,0,0,1,396,-4)" class="stroke_order_diagram--current_path"></path><circle cx="32.98" cy="44.82" r="8" class="stroke_order_diagram--path_start" transform="matrix(1,0,0,1,396,-4)"></circle><line x1="550" x2="550" y1="1" y2="99" class="stroke_order_diagram--guide_line"></line><line x1="599" x2="599" y1="1" y2="99" class="stroke_order_diagram--bounding_box"></line><path id="pathSk93xdzq04vi" kvg:type="㇒" d="M54.78,9.64c0.02,0.25,0.04,0.65-0.04,1.02c-0.45,2.15-3.29,7.25-6.86,10.14" transform="matrix(1,0,0,1,496,-4)" class="stroke_order_diagram--existing_path"></path><path id="pathSk93xdzq04vj" kvg:type="㇑" d="M31.54,20.75C32.25,22,32.28,23,32.5,24c0.22,1,0,30.75-0.22,37" transform="matrix(1,0,0,1,496,-4)" class="stroke_order_diagram--existing_path"></path><path id="pathSk93xdzq04vk" kvg:type="㇕b" d="M33.89,23.09c7.33-1.16,38.67-4.19,42.45-4.58c1.38-0.14,2.21,1.44,2.02,2.29c-0.82,3.48-1.75,5.99-3.51,11.01" transform="matrix(1,0,0,1,496,-4)" class="stroke_order_diagram--existing_path"></path><path id="pathSk93xdzq04vl" kvg:type="㇐b" d="M33.05,35.54c11.95-1.21,39.04-3.36,44.68-3.8" transform="matrix(1,0,0,1,496,-4)" class="stroke_order_diagram--existing_path"></path><path id="pathSk93xdzq04vm" kvg:type="㇕b" d="M32.98,44.82c11.02-1.07,39.41-3.67,43.68-4.14c1.56-0.17,2.5,1.7,2.28,2.7c-0.92,4.12-2.44,7.37-3.96,11.1" transform="matrix(1,0,0,1,496,-4)" class="stroke_order_diagram--existing_path"></path><path id="kvg:0961c-s6" kvg:type="㇐b" d="M32.92,58.21c5.02-0.52,38.75-2.69,45.11-3.22" transform="matrix(1,0,0,1,496,-4)" class="stroke_order_diagram--current_path"></path><path id="pathSk93xdzq04vo" kvg:type="㇐b" d="M32.92,58.21c5.02-0.52,38.75-2.69,45.11-3.22" transform="matrix(1,0,0,1,496,-4)" class="stroke_order_diagram--current_path"></path><circle cx="32.92" cy="58.21" r="8" class="stroke_order_diagram--path_start" transform="matrix(1,0,0,1,496,-4)"></circle><line x1="650" x2="650" y1="1" y2="99" class="stroke_order_diagram--guide_line"></line><line x1="699" x2="699" y1="1" y2="99" class="stroke_order_diagram--bounding_box"></line><path id="pathSk93xdzq04vr" kvg:type="㇒" d="M54.78,9.64c0.02,0.25,0.04,0.65-0.04,1.02c-0.45,2.15-3.29,7.25-6.86,10.14" transform="matrix(1,0,0,1,596,-4)" class="stroke_order_diagram--existing_path"></path><path id="pathSk93xdzq04vs" kvg:type="㇑" d="M31.54,20.75C32.25,22,32.28,23,32.5,24c0.22,1,0,30.75-0.22,37" transform="matrix(1,0,0,1,596,-4)" class="stroke_order_diagram--existing_path"></path><path id="pathSk93xdzq04vt" kvg:type="㇕b" d="M33.89,23.09c7.33-1.16,38.67-4.19,42.45-4.58c1.38-0.14,2.21,1.44,2.02,2.29c-0.82,3.48-1.75,5.99-3.51,11.01" transform="matrix(1,0,0,1,596,-4)" class="stroke_order_diagram--existing_path"></path><path id="pathSk93xdzq04vu" kvg:type="㇐b" d="M33.05,35.54c11.95-1.21,39.04-3.36,44.68-3.8" transform="matrix(1,0,0,1,596,-4)" class="stroke_order_diagram--existing_path"></path><path id="pathSk93xdzq04vv" kvg:type="㇕b" d="M32.98,44.82c11.02-1.07,39.41-3.67,43.68-4.14c1.56-0.17,2.5,1.7,2.28,2.7c-0.92,4.12-2.44,7.37-3.96,11.1" transform="matrix(1,0,0,1,596,-4)" class="stroke_order_diagram--existing_path"></path><path id="pathSk93xdzq04vw" kvg:type="㇐b" d="M32.92,58.21c5.02-0.52,38.75-2.69,45.11-3.22" transform="matrix(1,0,0,1,596,-4)" class="stroke_order_diagram--existing_path"></path><path id="kvg:0961c-s7" kvg:type="㇐" d="M12.88,72.48c1.52,0.54,4.31,0.68,5.82,0.54C38,71.25,76,68.5,89.31,68.29c2.53-0.04,4.05,0.26,5.31,0.53" transform="matrix(1,0,0,1,596,-4)" class="stroke_order_diagram--current_path"></path><path id="pathSk93xdzq04vy" kvg:type="㇐" d="M12.88,72.48c1.52,0.54,4.31,0.68,5.82,0.54C38,71.25,76,68.5,89.31,68.29c2.53-0.04,4.05,0.26,5.31,0.53" transform="matrix(1,0,0,1,596,-4)" class="stroke_order_diagram--current_path"></path><circle cx="12.88" cy="72.48" r="8" class="stroke_order_diagram--path_start" transform="matrix(1,0,0,1,596,-4)"></circle><line x1="750" x2="750" y1="1" y2="99" class="stroke_order_diagram--guide_line"></line><line x1="799" x2="799" y1="1" y2="99" class="stroke_order_diagram--bounding_box"></line><path id="pathSk93xdzq04w1" kvg:type="㇒" d="M54.78,9.64c0.02,0.25,0.04,0.65-0.04,1.02c-0.45,2.15-3.29,7.25-6.86,10.14" transform="matrix(1,0,0,1,696,-4)" class="stroke_order_diagram--existing_path"></path><path id="pathSk93xdzq04w2" kvg:type="㇑" d="M31.54,20.75C32.25,22,32.28,23,32.5,24c0.22,1,0,30.75-0.22,37" transform="matrix(1,0,0,1,696,-4)" class="stroke_order_diagram--existing_path"></path><path id="pathSk93xdzq04w3" kvg:type="㇕b" d="M33.89,23.09c7.33-1.16,38.67-4.19,42.45-4.58c1.38-0.14,2.21,1.44,2.02,2.29c-0.82,3.48-1.75,5.99-3.51,11.01" transform="matrix(1,0,0,1,696,-4)" class="stroke_order_diagram--existing_path"></path><path id="pathSk93xdzq04w4" kvg:type="㇐b" d="M33.05,35.54c11.95-1.21,39.04-3.36,44.68-3.8" transform="matrix(1,0,0,1,696,-4)" class="stroke_order_diagram--existing_path"></path><path id="pathSk93xdzq04w5" kvg:type="㇕b" d="M32.98,44.82c11.02-1.07,39.41-3.67,43.68-4.14c1.56-0.17,2.5,1.7,2.28,2.7c-0.92,4.12-2.44,7.37-3.96,11.1" transform="matrix(1,0,0,1,696,-4)" class="stroke_order_diagram--existing_path"></path><path id="pathSk93xdzq04w6" kvg:type="㇐b" d="M32.92,58.21c5.02-0.52,38.75-2.69,45.11-3.22" transform="matrix(1,0,0,1,696,-4)" class="stroke_order_diagram--existing_path"></path><path id="pathSk93xdzq04w7" kvg:type="㇐" d="M12.88,72.48c1.52,0.54,4.31,0.68,5.82,0.54C38,71.25,76,68.5,89.31,68.29c2.53-0.04,4.05,0.26,5.31,0.53" transform="matrix(1,0,0,1,696,-4)" class="stroke_order_diagram--existing_path"></path><path id="kvg:0961c-s8" kvg:type="㇑" d="M51.81,57.88c0.76,0.6,2.36,4.52,2.51,5.73c0.15,1.21-0.1,28.98-0.25,36.52" transform="matrix(1,0,0,1,696,-4)" class="stroke_order_diagram--current_path"></path><path id="pathSk93xdzq04w9" kvg:type="㇑" d="M51.81,57.88c0.76,0.6,2.36,4.52,2.51,5.73c0.15,1.21-0.1,28.98-0.25,36.52" transform="matrix(1,0,0,1,696,-4)" class="stroke_order_diagram--current_path"></path><circle cx="51.81" cy="57.88" r="8" class="stroke_order_diagram--path_start" transform="matrix(1,0,0,1,696,-4)"></circle></svg>