<?xml version="1.0" encoding="UTF-8"?>
<!DOCTYPE svg PUBLIC "-//W3C//DTD SVG 1.0//EN" "http://www.w3.org/TR/2001/REC-SVG-20010904/DTD/svg10.dtd" [
<!ATTLIST g
xmlns:kvg CDATA #FIXED "http://kanjivg.tagaini.net"
kvg:element CDATA #IMPLIED
kvg:variant CDATA #IMPLIED
kvg:partial CDATA #IMPLIED
kvg:original CDATA #IMPLIED
kvg:part CDATA #IMPLIED
kvg:number CDATA #IMPLIED
kvg:tradForm CDATA #IMPLIED
kvg:radicalForm CDATA #IMPLIED
kvg:position CDATA #IMPLIED
kvg:radical CDATA #IMPLIED
kvg:phon CDATA #IMPLIED >
<!ATTLIST path
xmlns:kvg CDATA #FIXED "http://kanjivg.tagaini.net"
kvg:type CDATA #IMPLIED >
]><svg style="width: 800px; height: 100px;" xmlns="http://www.w3.org/2000/svg" xmlns:xlink="http://www.w3.org/1999/xlink" width="800px" height="100px"><style>
.stroke_order_diagram--outer_container {
  width: 100%;
  overflow-x: auto;
  overflow-y: hidden;
}

.stroke_order_diagram--guide_line {
  fill: none;
  stroke: #ddd;
  stroke-width: 3;
  stroke-linecap: square;
  stroke-linejoin: square;
  stroke-dasharray:8, 8;
}

.stroke_order_diagram--bounding_box {
  fill: none;
  stroke: #ddd;
  stroke-width: 4;
  stroke-linecap: square;
  stroke-linejoin: square;
}

.stroke_order_diagram--current_path {
  fill: none;
  stroke: #000;
  stroke-width: 6;
  stroke-linecap: round;
  stroke-linejoin: round;
}

.stroke_order_diagram--existing_path {
  fill: none;
  stroke: #aaa;
  stroke-width: 6;
  stroke-linecap: round;
  stroke-linejoin:round;
}

.stroke_order_diagram--path_start {
  fill: rgba(255, 0, 0, 0.7);
  stroke:none
}</style><desc>Created with Snap</desc><defs></defs><line x1="1" x2="799" y1="1" y2="1" class="stroke_order_diagram--bounding_box"></line><line x1="1" x2="1" y1="1" y2="99" class="stroke_order_diagram--bounding_box"></line><line x1="1" x2="799" y1="99" y2="99" class="stroke_order_diagram--bounding_box"></line><line x1="0" x2="800" y1="50" y2="50" class="stroke_order_diagram--guide_line"></line><line x1="50" x2="50" y1="1" y2="99" class="stroke_order_diagram--guide_line"></line><line x1="99" x2="99" y1="1" y2="99" class="stroke_order_diagram--bounding_box"></line><path id="kvg:096b6-s1" kvg:type="㇕" d="M28,26.25c1.75,0.25,3.7,0.66,6,0.5c14-1,31.02-2.1,42-2.75c4.25-0.25,5.5,1.75,5,4.25c-1.31,6.54-2.5,9-4.25,20.25" transform="matrix(1,0,0,1,-4,-4)" class="stroke_order_diagram--current_path"></path><path id="pathSk940yk7k4wr" kvg:type="㇕" d="M28,26.25c1.75,0.25,3.7,0.66,6,0.5c14-1,31.02-2.1,42-2.75c4.25-0.25,5.5,1.75,5,4.25c-1.31,6.54-2.5,9-4.25,20.25" transform="matrix(1,0,0,1,-4,-4)" class="stroke_order_diagram--current_path"></path><circle cx="28" cy="26.25" r="8" class="stroke_order_diagram--path_start" transform="matrix(1,0,0,1,-4,-4)"></circle><line x1="150" x2="150" y1="1" y2="99" class="stroke_order_diagram--guide_line"></line><line x1="199" x2="199" y1="1" y2="99" class="stroke_order_diagram--bounding_box"></line><path id="pathSk940yk7k4wu" kvg:type="㇕" d="M28,26.25c1.75,0.25,3.7,0.66,6,0.5c14-1,31.02-2.1,42-2.75c4.25-0.25,5.5,1.75,5,4.25c-1.31,6.54-2.5,9-4.25,20.25" transform="matrix(1,0,0,1,96,-4)" class="stroke_order_diagram--existing_path"></path><path id="kvg:096b6-s2" kvg:type="㇐" d="M13.75,39.5c2.25,0.25,4.01,0.73,6.5,0.5c21.75-2,51.25-4.5,68.5-5.25c2.76-0.12,5,0.5,6.25,0.75" transform="matrix(1,0,0,1,96,-4)" class="stroke_order_diagram--current_path"></path><path id="pathSk940yk7k4ww" kvg:type="㇐" d="M13.75,39.5c2.25,0.25,4.01,0.73,6.5,0.5c21.75-2,51.25-4.5,68.5-5.25c2.76-0.12,5,0.5,6.25,0.75" transform="matrix(1,0,0,1,96,-4)" class="stroke_order_diagram--current_path"></path><circle cx="13.75" cy="39.5" r="8" class="stroke_order_diagram--path_start" transform="matrix(1,0,0,1,96,-4)"></circle><line x1="250" x2="250" y1="1" y2="99" class="stroke_order_diagram--guide_line"></line><line x1="299" x2="299" y1="1" y2="99" class="stroke_order_diagram--bounding_box"></line><path id="pathSk940yk7k4wz" kvg:type="㇕" d="M28,26.25c1.75,0.25,3.7,0.66,6,0.5c14-1,31.02-2.1,42-2.75c4.25-0.25,5.5,1.75,5,4.25c-1.31,6.54-2.5,9-4.25,20.25" transform="matrix(1,0,0,1,196,-4)" class="stroke_order_diagram--existing_path"></path><path id="pathSk940yk7k4x0" kvg:type="㇐" d="M13.75,39.5c2.25,0.25,4.01,0.73,6.5,0.5c21.75-2,51.25-4.5,68.5-5.25c2.76-0.12,5,0.5,6.25,0.75" transform="matrix(1,0,0,1,196,-4)" class="stroke_order_diagram--existing_path"></path><path id="kvg:096b6-s3" kvg:type="㇐c" d="M28,50.71c1.25,0.2,3.51,0.72,5,0.61c13.75-1.02,29.25-2.23,41.75-2.64c2-0.06,3.25,0,4.75,0.2" transform="matrix(1,0,0,1,196,-4)" class="stroke_order_diagram--current_path"></path><path id="pathSk940yk7k4x2" kvg:type="㇐c" d="M28,50.71c1.25,0.2,3.51,0.72,5,0.61c13.75-1.02,29.25-2.23,41.75-2.64c2-0.06,3.25,0,4.75,0.2" transform="matrix(1,0,0,1,196,-4)" class="stroke_order_diagram--current_path"></path><circle cx="28" cy="50.71" r="8" class="stroke_order_diagram--path_start" transform="matrix(1,0,0,1,196,-4)"></circle><line x1="350" x2="350" y1="1" y2="99" class="stroke_order_diagram--guide_line"></line><line x1="399" x2="399" y1="1" y2="99" class="stroke_order_diagram--bounding_box"></line><path id="pathSk940yk7k4x5" kvg:type="㇕" d="M28,26.25c1.75,0.25,3.7,0.66,6,0.5c14-1,31.02-2.1,42-2.75c4.25-0.25,5.5,1.75,5,4.25c-1.31,6.54-2.5,9-4.25,20.25" transform="matrix(1,0,0,1,296,-4)" class="stroke_order_diagram--existing_path"></path><path id="pathSk940yk7k4x6" kvg:type="㇐" d="M13.75,39.5c2.25,0.25,4.01,0.73,6.5,0.5c21.75-2,51.25-4.5,68.5-5.25c2.76-0.12,5,0.5,6.25,0.75" transform="matrix(1,0,0,1,296,-4)" class="stroke_order_diagram--existing_path"></path><path id="pathSk940yk7k4x7" kvg:type="㇐c" d="M28,50.71c1.25,0.2,3.51,0.72,5,0.61c13.75-1.02,29.25-2.23,41.75-2.64c2-0.06,3.25,0,4.75,0.2" transform="matrix(1,0,0,1,296,-4)" class="stroke_order_diagram--existing_path"></path><path id="kvg:096b6-s4" kvg:type="㇚" d="M52.27,11.83c0.09,0.48,1.67,2.49,1.76,5.52c0.4,14.55-0.26,68.16-0.26,73.12c0,12.78-7.71,1.5-9.21,0.25" transform="matrix(1,0,0,1,296,-4)" class="stroke_order_diagram--current_path"></path><path id="pathSk940yk7k4x9" kvg:type="㇚" d="M52.27,11.83c0.09,0.48,1.67,2.49,1.76,5.52c0.4,14.55-0.26,68.16-0.26,73.12c0,12.78-7.71,1.5-9.21,0.25" transform="matrix(1,0,0,1,296,-4)" class="stroke_order_diagram--current_path"></path><circle cx="52.27" cy="11.83" r="8" class="stroke_order_diagram--path_start" transform="matrix(1,0,0,1,296,-4)"></circle><line x1="450" x2="450" y1="1" y2="99" class="stroke_order_diagram--guide_line"></line><line x1="499" x2="499" y1="1" y2="99" class="stroke_order_diagram--bounding_box"></line><path id="pathSk940yk7k4xc" kvg:type="㇕" d="M28,26.25c1.75,0.25,3.7,0.66,6,0.5c14-1,31.02-2.1,42-2.75c4.25-0.25,5.5,1.75,5,4.25c-1.31,6.54-2.5,9-4.25,20.25" transform="matrix(1,0,0,1,396,-4)" class="stroke_order_diagram--existing_path"></path><path id="pathSk940yk7k4xd" kvg:type="㇐" d="M13.75,39.5c2.25,0.25,4.01,0.73,6.5,0.5c21.75-2,51.25-4.5,68.5-5.25c2.76-0.12,5,0.5,6.25,0.75" transform="matrix(1,0,0,1,396,-4)" class="stroke_order_diagram--existing_path"></path><path id="pathSk940yk7k4xe" kvg:type="㇐c" d="M28,50.71c1.25,0.2,3.51,0.72,5,0.61c13.75-1.02,29.25-2.23,41.75-2.64c2-0.06,3.25,0,4.75,0.2" transform="matrix(1,0,0,1,396,-4)" class="stroke_order_diagram--existing_path"></path><path id="pathSk940yk7k4xf" kvg:type="㇚" d="M52.27,11.83c0.09,0.48,1.67,2.49,1.76,5.52c0.4,14.55-0.26,68.16-0.26,73.12c0,12.78-7.71,1.5-9.21,0.25" transform="matrix(1,0,0,1,396,-4)" class="stroke_order_diagram--existing_path"></path><path id="kvg:096b6-s5" kvg:type="㇔" d="M26.75,58.25c3.44,1.85,8.89,7.62,9.75,10.5" transform="matrix(1,0,0,1,396,-4)" class="stroke_order_diagram--current_path"></path><path id="pathSk940yk7k4xh" kvg:type="㇔" d="M26.75,58.25c3.44,1.85,8.89,7.62,9.75,10.5" transform="matrix(1,0,0,1,396,-4)" class="stroke_order_diagram--current_path"></path><circle cx="26.75" cy="58.25" r="8" class="stroke_order_diagram--path_start" transform="matrix(1,0,0,1,396,-4)"></circle><line x1="550" x2="550" y1="1" y2="99" class="stroke_order_diagram--guide_line"></line><line x1="599" x2="599" y1="1" y2="99" class="stroke_order_diagram--bounding_box"></line><path id="pathSk940yk7k4xk" kvg:type="㇕" d="M28,26.25c1.75,0.25,3.7,0.66,6,0.5c14-1,31.02-2.1,42-2.75c4.25-0.25,5.5,1.75,5,4.25c-1.31,6.54-2.5,9-4.25,20.25" transform="matrix(1,0,0,1,496,-4)" class="stroke_order_diagram--existing_path"></path><path id="pathSk940yk7k4xl" kvg:type="㇐" d="M13.75,39.5c2.25,0.25,4.01,0.73,6.5,0.5c21.75-2,51.25-4.5,68.5-5.25c2.76-0.12,5,0.5,6.25,0.75" transform="matrix(1,0,0,1,496,-4)" class="stroke_order_diagram--existing_path"></path><path id="pathSk940yk7k4xm" kvg:type="㇐c" d="M28,50.71c1.25,0.2,3.51,0.72,5,0.61c13.75-1.02,29.25-2.23,41.75-2.64c2-0.06,3.25,0,4.75,0.2" transform="matrix(1,0,0,1,496,-4)" class="stroke_order_diagram--existing_path"></path><path id="pathSk940yk7k4xn" kvg:type="㇚" d="M52.27,11.83c0.09,0.48,1.67,2.49,1.76,5.52c0.4,14.55-0.26,68.16-0.26,73.12c0,12.78-7.71,1.5-9.21,0.25" transform="matrix(1,0,0,1,496,-4)" class="stroke_order_diagram--existing_path"></path><path id="pathSk940yk7k4xo" kvg:type="㇔" d="M26.75,58.25c3.44,1.85,8.89,7.62,9.75,10.5" transform="matrix(1,0,0,1,496,-4)" class="stroke_order_diagram--existing_path"></path><path id="kvg:096b6-s6" kvg:type="㇀" d="M18.5,90.23c1.64,1.53,3.01,2.18,4.65,0.87C24.12,90.33,37.9,77.96,42,74.25" transform="matrix(1,0,0,1,496,-4)" class="stroke_order_diagram--current_path"></path><path id="pathSk940yk7k4xq" kvg:type="㇀" d="M18.5,90.23c1.64,1.53,3.01,2.18,4.65,0.87C24.12,90.33,37.9,77.96,42,74.25" transform="matrix(1,0,0,1,496,-4)" class="stroke_order_diagram--current_path"></path><circle cx="18.5" cy="90.23" r="8" class="stroke_order_diagram--path_start" transform="matrix(1,0,0,1,496,-4)"></circle><line x1="650" x2="650" y1="1" y2="99" class="stroke_order_diagram--guide_line"></line><line x1="699" x2="699" y1="1" y2="99" class="stroke_order_diagram--bounding_box"></line><path id="pathSk940yk7k4xt" kvg:type="㇕" d="M28,26.25c1.75,0.25,3.7,0.66,6,0.5c14-1,31.02-2.1,42-2.75c4.25-0.25,5.5,1.75,5,4.25c-1.31,6.54-2.5,9-4.25,20.25" transform="matrix(1,0,0,1,596,-4)" class="stroke_order_diagram--existing_path"></path><path id="pathSk940yk7k4xu" kvg:type="㇐" d="M13.75,39.5c2.25,0.25,4.01,0.73,6.5,0.5c21.75-2,51.25-4.5,68.5-5.25c2.76-0.12,5,0.5,6.25,0.75" transform="matrix(1,0,0,1,596,-4)" class="stroke_order_diagram--existing_path"></path><path id="pathSk940yk7k4xv" kvg:type="㇐c" d="M28,50.71c1.25,0.2,3.51,0.72,5,0.61c13.75-1.02,29.25-2.23,41.75-2.64c2-0.06,3.25,0,4.75,0.2" transform="matrix(1,0,0,1,596,-4)" class="stroke_order_diagram--existing_path"></path><path id="pathSk940yk7k4xw" kvg:type="㇚" d="M52.27,11.83c0.09,0.48,1.67,2.49,1.76,5.52c0.4,14.55-0.26,68.16-0.26,73.12c0,12.78-7.71,1.5-9.21,0.25" transform="matrix(1,0,0,1,596,-4)" class="stroke_order_diagram--existing_path"></path><path id="pathSk940yk7k4xx" kvg:type="㇔" d="M26.75,58.25c3.44,1.85,8.89,7.62,9.75,10.5" transform="matrix(1,0,0,1,596,-4)" class="stroke_order_diagram--existing_path"></path><path id="pathSk940yk7k4xy" kvg:type="㇀" d="M18.5,90.23c1.64,1.53,3.01,2.18,4.65,0.87C24.12,90.33,37.9,77.96,42,74.25" transform="matrix(1,0,0,1,596,-4)" class="stroke_order_diagram--existing_path"></path><path id="kvg:096b6-s7" kvg:type="㇒" d="M77.28,54.64c0.03,0.28,0.06,0.73-0.05,1.14c-0.66,2.41-4.46,7.7-9.66,10.93" transform="matrix(1,0,0,1,596,-4)" class="stroke_order_diagram--current_path"></path><path id="pathSk940yk7k4y0" kvg:type="㇒" d="M77.28,54.64c0.03,0.28,0.06,0.73-0.05,1.14c-0.66,2.41-4.46,7.7-9.66,10.93" transform="matrix(1,0,0,1,596,-4)" class="stroke_order_diagram--current_path"></path><circle cx="77.28" cy="54.64" r="8" class="stroke_order_diagram--path_start" transform="matrix(1,0,0,1,596,-4)"></circle><line x1="750" x2="750" y1="1" y2="99" class="stroke_order_diagram--guide_line"></line><line x1="799" x2="799" y1="1" y2="99" class="stroke_order_diagram--bounding_box"></line><path id="pathSk940yk7k4y3" kvg:type="㇕" d="M28,26.25c1.75,0.25,3.7,0.66,6,0.5c14-1,31.02-2.1,42-2.75c4.25-0.25,5.5,1.75,5,4.25c-1.31,6.54-2.5,9-4.25,20.25" transform="matrix(1,0,0,1,696,-4)" class="stroke_order_diagram--existing_path"></path><path id="pathSk940yk7k4y4" kvg:type="㇐" d="M13.75,39.5c2.25,0.25,4.01,0.73,6.5,0.5c21.75-2,51.25-4.5,68.5-5.25c2.76-0.12,5,0.5,6.25,0.75" transform="matrix(1,0,0,1,696,-4)" class="stroke_order_diagram--existing_path"></path><path id="pathSk940yk7k4y5" kvg:type="㇐c" d="M28,50.71c1.25,0.2,3.51,0.72,5,0.61c13.75-1.02,29.25-2.23,41.75-2.64c2-0.06,3.25,0,4.75,0.2" transform="matrix(1,0,0,1,696,-4)" class="stroke_order_diagram--existing_path"></path><path id="pathSk940yk7k4y6" kvg:type="㇚" d="M52.27,11.83c0.09,0.48,1.67,2.49,1.76,5.52c0.4,14.55-0.26,68.16-0.26,73.12c0,12.78-7.71,1.5-9.21,0.25" transform="matrix(1,0,0,1,696,-4)" class="stroke_order_diagram--existing_path"></path><path id="pathSk940yk7k4y7" kvg:type="㇔" d="M26.75,58.25c3.44,1.85,8.89,7.62,9.75,10.5" transform="matrix(1,0,0,1,696,-4)" class="stroke_order_diagram--existing_path"></path><path id="pathSk940yk7k4y8" kvg:type="㇀" d="M18.5,90.23c1.64,1.53,3.01,2.18,4.65,0.87C24.12,90.33,37.9,77.96,42,74.25" transform="matrix(1,0,0,1,696,-4)" class="stroke_order_diagram--existing_path"></path><path id="pathSk940yk7k4y9" kvg:type="㇒" d="M77.28,54.64c0.03,0.28,0.06,0.73-0.05,1.14c-0.66,2.41-4.46,7.7-9.66,10.93" transform="matrix(1,0,0,1,696,-4)" class="stroke_order_diagram--existing_path"></path><path id="kvg:096b6-s8" kvg:type="㇏" d="M56.25,61.75c3.93,1.2,25.59,23.6,30.75,27.65c1.75,1.37,3.25,1.96,5,2.35" transform="matrix(1,0,0,1,696,-4)" class="stroke_order_diagram--current_path"></path><path id="pathSk940yk7k4yb" kvg:type="㇏" d="M56.25,61.75c3.93,1.2,25.59,23.6,30.75,27.65c1.75,1.37,3.25,1.96,5,2.35" transform="matrix(1,0,0,1,696,-4)" class="stroke_order_diagram--current_path"></path><circle cx="56.25" cy="61.75" r="8" class="stroke_order_diagram--path_start" transform="matrix(1,0,0,1,696,-4)"></circle></svg>