<?xml version="1.0" encoding="UTF-8"?>
<!DOCTYPE svg PUBLIC "-//W3C//DTD SVG 1.0//EN" "http://www.w3.org/TR/2001/REC-SVG-20010904/DTD/svg10.dtd" [
<!ATTLIST g
xmlns:kvg CDATA #FIXED "http://kanjivg.tagaini.net"
kvg:element CDATA #IMPLIED
kvg:variant CDATA #IMPLIED
kvg:partial CDATA #IMPLIED
kvg:original CDATA #IMPLIED
kvg:part CDATA #IMPLIED
kvg:number CDATA #IMPLIED
kvg:tradForm CDATA #IMPLIED
kvg:radicalForm CDATA #IMPLIED
kvg:position CDATA #IMPLIED
kvg:radical CDATA #IMPLIED
kvg:phon CDATA #IMPLIED >
<!ATTLIST path
xmlns:kvg CDATA #FIXED "http://kanjivg.tagaini.net"
kvg:type CDATA #IMPLIED >
]><svg style="width: 800px; height: 100px;" xmlns="http://www.w3.org/2000/svg" xmlns:xlink="http://www.w3.org/1999/xlink"><style>
.stroke_order_diagram--outer_container {
  width: 100%;
  overflow-x: auto;
  overflow-y: hidden;
}

.stroke_order_diagram--guide_line {
  fill: none;
  stroke: #ddd;
  stroke-width: 3;
  stroke-linecap: square;
  stroke-linejoin: square;
  stroke-dasharray:8, 8;
}

.stroke_order_diagram--bounding_box {
  fill: none;
  stroke: #ddd;
  stroke-width: 4;
  stroke-linecap: square;
  stroke-linejoin: square;
}

.stroke_order_diagram--current_path {
  fill: none;
  stroke: #000;
  stroke-width: 6;
  stroke-linecap: round;
  stroke-linejoin: round;
}

.stroke_order_diagram--existing_path {
  fill: none;
  stroke: #aaa;
  stroke-width: 6;
  stroke-linecap: round;
  stroke-linejoin:round;
}

.stroke_order_diagram--path_start {
  fill: rgba(255, 0, 0, 0.7);
  stroke:none
}</style><desc>Created with Snap</desc><defs></defs><line x1="1" x2="799" y1="1" y2="1" class="stroke_order_diagram--bounding_box"></line><line x1="1" x2="1" y1="1" y2="99" class="stroke_order_diagram--bounding_box"></line><line x1="1" x2="799" y1="99" y2="99" class="stroke_order_diagram--bounding_box"></line><line x1="0" x2="800" y1="50" y2="50" class="stroke_order_diagram--guide_line"></line><line x1="50" x2="50" y1="1" y2="99" class="stroke_order_diagram--guide_line"></line><line x1="99" x2="99" y1="1" y2="99" class="stroke_order_diagram--bounding_box"></line><path id="kvg:096b9-s1" kvg:type="㇒" d="M39.98,10.75c0.3,1.99-0.08,4.59-1.04,6.29C32.81,27.89,25.04,37.08,11,50.29" transform="matrix(1,0,0,1,-4,-4)" class="stroke_order_diagram--current_path"></path><path id="pathSk93xdzq04yt" kvg:type="㇒" d="M39.98,10.75c0.3,1.99-0.08,4.59-1.04,6.29C32.81,27.89,25.04,37.08,11,50.29" transform="matrix(1,0,0,1,-4,-4)" class="stroke_order_diagram--current_path"></path><circle cx="39.98" cy="10.75" r="8" class="stroke_order_diagram--path_start" transform="matrix(1,0,0,1,-4,-4)"></circle><line x1="150" x2="150" y1="1" y2="99" class="stroke_order_diagram--guide_line"></line><line x1="199" x2="199" y1="1" y2="99" class="stroke_order_diagram--bounding_box"></line><path id="pathSk93xdzq04yw" kvg:type="㇒" d="M39.98,10.75c0.3,1.99-0.08,4.59-1.04,6.29C32.81,27.89,25.04,37.08,11,50.29" transform="matrix(1,0,0,1,96,-4)" class="stroke_order_diagram--existing_path"></path><path id="kvg:096b9-s2" kvg:type="㇑" d="M27.03,36c0.97,1,1.71,3.19,1.77,4.75c0.57,13.82-0.79,50.31-0.31,57.5" transform="matrix(1,0,0,1,96,-4)" class="stroke_order_diagram--current_path"></path><path id="pathSk93xdzq04yy" kvg:type="㇑" d="M27.03,36c0.97,1,1.71,3.19,1.77,4.75c0.57,13.82-0.79,50.31-0.31,57.5" transform="matrix(1,0,0,1,96,-4)" class="stroke_order_diagram--current_path"></path><circle cx="27.03" cy="36" r="8" class="stroke_order_diagram--path_start" transform="matrix(1,0,0,1,96,-4)"></circle><line x1="250" x2="250" y1="1" y2="99" class="stroke_order_diagram--guide_line"></line><line x1="299" x2="299" y1="1" y2="99" class="stroke_order_diagram--bounding_box"></line><path id="pathSk93xdzq04z1" kvg:type="㇒" d="M39.98,10.75c0.3,1.99-0.08,4.59-1.04,6.29C32.81,27.89,25.04,37.08,11,50.29" transform="matrix(1,0,0,1,196,-4)" class="stroke_order_diagram--existing_path"></path><path id="pathSk93xdzq04z2" kvg:type="㇑" d="M27.03,36c0.97,1,1.71,3.19,1.77,4.75c0.57,13.82-0.79,50.31-0.31,57.5" transform="matrix(1,0,0,1,196,-4)" class="stroke_order_diagram--existing_path"></path><path id="kvg:096b9-s3" kvg:type="㇒" d="M64.3,10.75c0.1,1.1-0.03,2.55-0.33,3.49C62,20.27,59.51,24.92,55,32.25" transform="matrix(1,0,0,1,196,-4)" class="stroke_order_diagram--current_path"></path><path id="pathSk93xdzq04z4" kvg:type="㇒" d="M64.3,10.75c0.1,1.1-0.03,2.55-0.33,3.49C62,20.27,59.51,24.92,55,32.25" transform="matrix(1,0,0,1,196,-4)" class="stroke_order_diagram--current_path"></path><circle cx="64.3" cy="10.75" r="8" class="stroke_order_diagram--path_start" transform="matrix(1,0,0,1,196,-4)"></circle><line x1="350" x2="350" y1="1" y2="99" class="stroke_order_diagram--guide_line"></line><line x1="399" x2="399" y1="1" y2="99" class="stroke_order_diagram--bounding_box"></line><path id="pathSk93xdzq04z7" kvg:type="㇒" d="M39.98,10.75c0.3,1.99-0.08,4.59-1.04,6.29C32.81,27.89,25.04,37.08,11,50.29" transform="matrix(1,0,0,1,296,-4)" class="stroke_order_diagram--existing_path"></path><path id="pathSk93xdzq04z8" kvg:type="㇑" d="M27.03,36c0.97,1,1.71,3.19,1.77,4.75c0.57,13.82-0.79,50.31-0.31,57.5" transform="matrix(1,0,0,1,296,-4)" class="stroke_order_diagram--existing_path"></path><path id="pathSk93xdzq04z9" kvg:type="㇒" d="M64.3,10.75c0.1,1.1-0.03,2.55-0.33,3.49C62,20.27,59.51,24.92,55,32.25" transform="matrix(1,0,0,1,296,-4)" class="stroke_order_diagram--existing_path"></path><path id="kvg:096b9-s4" kvg:type="㇐b" d="M28.53,36.3c11.22-1.3,53.9-5.09,58.72-5.8" transform="matrix(1,0,0,1,296,-4)" class="stroke_order_diagram--current_path"></path><path id="pathSk93xdzq04zb" kvg:type="㇐b" d="M28.53,36.3c11.22-1.3,53.9-5.09,58.72-5.8" transform="matrix(1,0,0,1,296,-4)" class="stroke_order_diagram--current_path"></path><circle cx="28.53" cy="36.3" r="8" class="stroke_order_diagram--path_start" transform="matrix(1,0,0,1,296,-4)"></circle><line x1="450" x2="450" y1="1" y2="99" class="stroke_order_diagram--guide_line"></line><line x1="499" x2="499" y1="1" y2="99" class="stroke_order_diagram--bounding_box"></line><path id="pathSk93xdzq04ze" kvg:type="㇒" d="M39.98,10.75c0.3,1.99-0.08,4.59-1.04,6.29C32.81,27.89,25.04,37.08,11,50.29" transform="matrix(1,0,0,1,396,-4)" class="stroke_order_diagram--existing_path"></path><path id="pathSk93xdzq04zf" kvg:type="㇑" d="M27.03,36c0.97,1,1.71,3.19,1.77,4.75c0.57,13.82-0.79,50.31-0.31,57.5" transform="matrix(1,0,0,1,396,-4)" class="stroke_order_diagram--existing_path"></path><path id="pathSk93xdzq04zg" kvg:type="㇒" d="M64.3,10.75c0.1,1.1-0.03,2.55-0.33,3.49C62,20.27,59.51,24.92,55,32.25" transform="matrix(1,0,0,1,396,-4)" class="stroke_order_diagram--existing_path"></path><path id="pathSk93xdzq04zh" kvg:type="㇐b" d="M28.53,36.3c11.22-1.3,53.9-5.09,58.72-5.8" transform="matrix(1,0,0,1,396,-4)" class="stroke_order_diagram--existing_path"></path><path id="kvg:096b9-s5" kvg:type="㇑a" d="M56.68,34.5c0.54,0.51,0.97,1.21,0.97,2.09c0,8.96,0.06,41.05-0.27,55.16" transform="matrix(1,0,0,1,396,-4)" class="stroke_order_diagram--current_path"></path><path id="pathSk93xdzq04zj" kvg:type="㇑a" d="M56.68,34.5c0.54,0.51,0.97,1.21,0.97,2.09c0,8.96,0.06,41.05-0.27,55.16" transform="matrix(1,0,0,1,396,-4)" class="stroke_order_diagram--current_path"></path><circle cx="56.68" cy="34.5" r="8" class="stroke_order_diagram--path_start" transform="matrix(1,0,0,1,396,-4)"></circle><line x1="550" x2="550" y1="1" y2="99" class="stroke_order_diagram--guide_line"></line><line x1="599" x2="599" y1="1" y2="99" class="stroke_order_diagram--bounding_box"></line><path id="pathSk93xdzq04zm" kvg:type="㇒" d="M39.98,10.75c0.3,1.99-0.08,4.59-1.04,6.29C32.81,27.89,25.04,37.08,11,50.29" transform="matrix(1,0,0,1,496,-4)" class="stroke_order_diagram--existing_path"></path><path id="pathSk93xdzq04zn" kvg:type="㇑" d="M27.03,36c0.97,1,1.71,3.19,1.77,4.75c0.57,13.82-0.79,50.31-0.31,57.5" transform="matrix(1,0,0,1,496,-4)" class="stroke_order_diagram--existing_path"></path><path id="pathSk93xdzq04zo" kvg:type="㇒" d="M64.3,10.75c0.1,1.1-0.03,2.55-0.33,3.49C62,20.27,59.51,24.92,55,32.25" transform="matrix(1,0,0,1,496,-4)" class="stroke_order_diagram--existing_path"></path><path id="pathSk93xdzq04zp" kvg:type="㇐b" d="M28.53,36.3c11.22-1.3,53.9-5.09,58.72-5.8" transform="matrix(1,0,0,1,496,-4)" class="stroke_order_diagram--existing_path"></path><path id="pathSk93xdzq04zq" kvg:type="㇑a" d="M56.68,34.5c0.54,0.51,0.97,1.21,0.97,2.09c0,8.96,0.06,41.05-0.27,55.16" transform="matrix(1,0,0,1,496,-4)" class="stroke_order_diagram--existing_path"></path><path id="kvg:096b9-s6" kvg:type="㇐b" d="M30.03,53.3c10.58-1.08,49.93-4.21,54.47-4.8" transform="matrix(1,0,0,1,496,-4)" class="stroke_order_diagram--current_path"></path><path id="pathSk93xdzq04zs" kvg:type="㇐b" d="M30.03,53.3c10.58-1.08,49.93-4.21,54.47-4.8" transform="matrix(1,0,0,1,496,-4)" class="stroke_order_diagram--current_path"></path><circle cx="30.03" cy="53.3" r="8" class="stroke_order_diagram--path_start" transform="matrix(1,0,0,1,496,-4)"></circle><line x1="650" x2="650" y1="1" y2="99" class="stroke_order_diagram--guide_line"></line><line x1="699" x2="699" y1="1" y2="99" class="stroke_order_diagram--bounding_box"></line><path id="pathSk93xdzq04zv" kvg:type="㇒" d="M39.98,10.75c0.3,1.99-0.08,4.59-1.04,6.29C32.81,27.89,25.04,37.08,11,50.29" transform="matrix(1,0,0,1,596,-4)" class="stroke_order_diagram--existing_path"></path><path id="pathSk93xdzq04zw" kvg:type="㇑" d="M27.03,36c0.97,1,1.71,3.19,1.77,4.75c0.57,13.82-0.79,50.31-0.31,57.5" transform="matrix(1,0,0,1,596,-4)" class="stroke_order_diagram--existing_path"></path><path id="pathSk93xdzq04zx" kvg:type="㇒" d="M64.3,10.75c0.1,1.1-0.03,2.55-0.33,3.49C62,20.27,59.51,24.92,55,32.25" transform="matrix(1,0,0,1,596,-4)" class="stroke_order_diagram--existing_path"></path><path id="pathSk93xdzq04zy" kvg:type="㇐b" d="M28.53,36.3c11.22-1.3,53.9-5.09,58.72-5.8" transform="matrix(1,0,0,1,596,-4)" class="stroke_order_diagram--existing_path"></path><path id="pathSk93xdzq04zz" kvg:type="㇑a" d="M56.68,34.5c0.54,0.51,0.97,1.21,0.97,2.09c0,8.96,0.06,41.05-0.27,55.16" transform="matrix(1,0,0,1,596,-4)" class="stroke_order_diagram--existing_path"></path><path id="pathSk93xdzq0500" kvg:type="㇐b" d="M30.03,53.3c10.58-1.08,49.93-4.21,54.47-4.8" transform="matrix(1,0,0,1,596,-4)" class="stroke_order_diagram--existing_path"></path><path id="kvg:096b9-s7" kvg:type="㇐b" d="M28.75,71.5c11.17-0.91,52.46-2.75,57.25-3.25" transform="matrix(1,0,0,1,596,-4)" class="stroke_order_diagram--current_path"></path><path id="pathSk93xdzq0502" kvg:type="㇐b" d="M28.75,71.5c11.17-0.91,52.46-2.75,57.25-3.25" transform="matrix(1,0,0,1,596,-4)" class="stroke_order_diagram--current_path"></path><circle cx="28.75" cy="71.5" r="8" class="stroke_order_diagram--path_start" transform="matrix(1,0,0,1,596,-4)"></circle><line x1="750" x2="750" y1="1" y2="99" class="stroke_order_diagram--guide_line"></line><line x1="799" x2="799" y1="1" y2="99" class="stroke_order_diagram--bounding_box"></line><path id="pathSk93xdzq0505" kvg:type="㇒" d="M39.98,10.75c0.3,1.99-0.08,4.59-1.04,6.29C32.81,27.89,25.04,37.08,11,50.29" transform="matrix(1,0,0,1,696,-4)" class="stroke_order_diagram--existing_path"></path><path id="pathSk93xdzq0506" kvg:type="㇑" d="M27.03,36c0.97,1,1.71,3.19,1.77,4.75c0.57,13.82-0.79,50.31-0.31,57.5" transform="matrix(1,0,0,1,696,-4)" class="stroke_order_diagram--existing_path"></path><path id="pathSk93xdzq0507" kvg:type="㇒" d="M64.3,10.75c0.1,1.1-0.03,2.55-0.33,3.49C62,20.27,59.51,24.92,55,32.25" transform="matrix(1,0,0,1,696,-4)" class="stroke_order_diagram--existing_path"></path><path id="pathSk93xdzq0508" kvg:type="㇐b" d="M28.53,36.3c11.22-1.3,53.9-5.09,58.72-5.8" transform="matrix(1,0,0,1,696,-4)" class="stroke_order_diagram--existing_path"></path><path id="pathSk93xdzq0509" kvg:type="㇑a" d="M56.68,34.5c0.54,0.51,0.97,1.21,0.97,2.09c0,8.96,0.06,41.05-0.27,55.16" transform="matrix(1,0,0,1,696,-4)" class="stroke_order_diagram--existing_path"></path><path id="pathSk93xdzq050a" kvg:type="㇐b" d="M30.03,53.3c10.58-1.08,49.93-4.21,54.47-4.8" transform="matrix(1,0,0,1,696,-4)" class="stroke_order_diagram--existing_path"></path><path id="pathSk93xdzq050b" kvg:type="㇐b" d="M28.75,71.5c11.17-0.91,52.46-2.75,57.25-3.25" transform="matrix(1,0,0,1,696,-4)" class="stroke_order_diagram--existing_path"></path><path id="kvg:096b9-s8" kvg:type="㇐b" d="M28.75,94.75c11.22-1.3,56.94-3.79,61.75-4.5" transform="matrix(1,0,0,1,696,-4)" class="stroke_order_diagram--current_path"></path><path id="pathSk93xdzq050d" kvg:type="㇐b" d="M28.75,94.75c11.22-1.3,56.94-3.79,61.75-4.5" transform="matrix(1,0,0,1,696,-4)" class="stroke_order_diagram--current_path"></path><circle cx="28.75" cy="94.75" r="8" class="stroke_order_diagram--path_start" transform="matrix(1,0,0,1,696,-4)"></circle></svg>