<?xml version="1.0" encoding="UTF-8"?>
<!DOCTYPE svg PUBLIC "-//W3C//DTD SVG 1.0//EN" "http://www.w3.org/TR/2001/REC-SVG-20010904/DTD/svg10.dtd" [
<!ATTLIST g
xmlns:kvg CDATA #FIXED "http://kanjivg.tagaini.net"
kvg:element CDATA #IMPLIED
kvg:variant CDATA #IMPLIED
kvg:partial CDATA #IMPLIED
kvg:original CDATA #IMPLIED
kvg:part CDATA #IMPLIED
kvg:number CDATA #IMPLIED
kvg:tradForm CDATA #IMPLIED
kvg:radicalForm CDATA #IMPLIED
kvg:position CDATA #IMPLIED
kvg:radical CDATA #IMPLIED
kvg:phon CDATA #IMPLIED >
<!ATTLIST path
xmlns:kvg CDATA #FIXED "http://kanjivg.tagaini.net"
kvg:type CDATA #IMPLIED >
]><svg style="width: 800px; height: 100px;" xmlns="http://www.w3.org/2000/svg" xmlns:xlink="http://www.w3.org/1999/xlink" width="800px" height="100px"><style>
.stroke_order_diagram--outer_container {
  width: 100%;
  overflow-x: auto;
  overflow-y: hidden;
}

.stroke_order_diagram--guide_line {
  fill: none;
  stroke: #ddd;
  stroke-width: 3;
  stroke-linecap: square;
  stroke-linejoin: square;
  stroke-dasharray:8, 8;
}

.stroke_order_diagram--bounding_box {
  fill: none;
  stroke: #ddd;
  stroke-width: 4;
  stroke-linecap: square;
  stroke-linejoin: square;
}

.stroke_order_diagram--current_path {
  fill: none;
  stroke: #000;
  stroke-width: 6;
  stroke-linecap: round;
  stroke-linejoin: round;
}

.stroke_order_diagram--existing_path {
  fill: none;
  stroke: #aaa;
  stroke-width: 6;
  stroke-linecap: round;
  stroke-linejoin:round;
}

.stroke_order_diagram--path_start {
  fill: rgba(255, 0, 0, 0.7);
  stroke:none
}</style><desc>Created with Snap</desc><defs></defs><line x1="1" x2="799" y1="1" y2="1" class="stroke_order_diagram--bounding_box"></line><line x1="1" x2="1" y1="1" y2="99" class="stroke_order_diagram--bounding_box"></line><line x1="1" x2="799" y1="99" y2="99" class="stroke_order_diagram--bounding_box"></line><line x1="0" x2="800" y1="50" y2="50" class="stroke_order_diagram--guide_line"></line><line x1="50" x2="50" y1="1" y2="99" class="stroke_order_diagram--guide_line"></line><line x1="99" x2="99" y1="1" y2="99" class="stroke_order_diagram--bounding_box"></line><path id="kvg:0975e-s1" kvg:type="㇒" d="M42.12,14.75c0.75,0.75,1.43,2.23,1.46,3.25c1.55,50.38-0.2,64.5-14.08,80.75" transform="matrix(1,0,0,1,-4,-4)" class="stroke_order_diagram--current_path"></path><path id="pathSk940yk7k54z" kvg:type="㇒" d="M42.12,14.75c0.75,0.75,1.43,2.23,1.46,3.25c1.55,50.38-0.2,64.5-14.08,80.75" transform="matrix(1,0,0,1,-4,-4)" class="stroke_order_diagram--current_path"></path><circle cx="42.12" cy="14.75" r="8" class="stroke_order_diagram--path_start" transform="matrix(1,0,0,1,-4,-4)"></circle><line x1="150" x2="150" y1="1" y2="99" class="stroke_order_diagram--guide_line"></line><line x1="199" x2="199" y1="1" y2="99" class="stroke_order_diagram--bounding_box"></line><path id="pathSk940yk7k552" kvg:type="㇒" d="M42.12,14.75c0.75,0.75,1.43,2.23,1.46,3.25c1.55,50.38-0.2,64.5-14.08,80.75" transform="matrix(1,0,0,1,96,-4)" class="stroke_order_diagram--existing_path"></path><path id="kvg:0975e-s2" kvg:type="㇐c" d="M20.75,35.75c1.75,0.38,3.23,0.36,4.75,0.25c3.38-0.25,9.25-1.25,15-2.5" transform="matrix(1,0,0,1,96,-4)" class="stroke_order_diagram--current_path"></path><path id="pathSk940yk7k554" kvg:type="㇐c" d="M20.75,35.75c1.75,0.38,3.23,0.36,4.75,0.25c3.38-0.25,9.25-1.25,15-2.5" transform="matrix(1,0,0,1,96,-4)" class="stroke_order_diagram--current_path"></path><circle cx="20.75" cy="35.75" r="8" class="stroke_order_diagram--path_start" transform="matrix(1,0,0,1,96,-4)"></circle><line x1="250" x2="250" y1="1" y2="99" class="stroke_order_diagram--guide_line"></line><line x1="299" x2="299" y1="1" y2="99" class="stroke_order_diagram--bounding_box"></line><path id="pathSk940yk7k557" kvg:type="㇒" d="M42.12,14.75c0.75,0.75,1.43,2.23,1.46,3.25c1.55,50.38-0.2,64.5-14.08,80.75" transform="matrix(1,0,0,1,196,-4)" class="stroke_order_diagram--existing_path"></path><path id="pathSk940yk7k558" kvg:type="㇐c" d="M20.75,35.75c1.75,0.38,3.23,0.36,4.75,0.25c3.38-0.25,9.25-1.25,15-2.5" transform="matrix(1,0,0,1,196,-4)" class="stroke_order_diagram--existing_path"></path><path id="kvg:0975e-s3" kvg:type="㇐c" d="M20.25,52.5c1.38,0.25,3.24,0.19,4.75,0c3-0.38,11.12-2.12,16-3.5" transform="matrix(1,0,0,1,196,-4)" class="stroke_order_diagram--current_path"></path><path id="pathSk940yk7k55a" kvg:type="㇐c" d="M20.25,52.5c1.38,0.25,3.24,0.19,4.75,0c3-0.38,11.12-2.12,16-3.5" transform="matrix(1,0,0,1,196,-4)" class="stroke_order_diagram--current_path"></path><circle cx="20.25" cy="52.5" r="8" class="stroke_order_diagram--path_start" transform="matrix(1,0,0,1,196,-4)"></circle><line x1="350" x2="350" y1="1" y2="99" class="stroke_order_diagram--guide_line"></line><line x1="399" x2="399" y1="1" y2="99" class="stroke_order_diagram--bounding_box"></line><path id="pathSk940yk7k55d" kvg:type="㇒" d="M42.12,14.75c0.75,0.75,1.43,2.23,1.46,3.25c1.55,50.38-0.2,64.5-14.08,80.75" transform="matrix(1,0,0,1,296,-4)" class="stroke_order_diagram--existing_path"></path><path id="pathSk940yk7k55e" kvg:type="㇐c" d="M20.75,35.75c1.75,0.38,3.23,0.36,4.75,0.25c3.38-0.25,9.25-1.25,15-2.5" transform="matrix(1,0,0,1,296,-4)" class="stroke_order_diagram--existing_path"></path><path id="pathSk940yk7k55f" kvg:type="㇐c" d="M20.25,52.5c1.38,0.25,3.24,0.19,4.75,0c3-0.38,11.12-2.12,16-3.5" transform="matrix(1,0,0,1,296,-4)" class="stroke_order_diagram--existing_path"></path><path id="kvg:0975e-s4" kvg:type="㇀" d="M14.25,72.66c0.98,0.98,2.35,1.24,3.83,0.65c4.17-1.68,17.34-6.63,21.55-8.18" transform="matrix(1,0,0,1,296,-4)" class="stroke_order_diagram--current_path"></path><path id="pathSk940yk7k55h" kvg:type="㇀" d="M14.25,72.66c0.98,0.98,2.35,1.24,3.83,0.65c4.17-1.68,17.34-6.63,21.55-8.18" transform="matrix(1,0,0,1,296,-4)" class="stroke_order_diagram--current_path"></path><circle cx="14.25" cy="72.66" r="8" class="stroke_order_diagram--path_start" transform="matrix(1,0,0,1,296,-4)"></circle><line x1="450" x2="450" y1="1" y2="99" class="stroke_order_diagram--guide_line"></line><line x1="499" x2="499" y1="1" y2="99" class="stroke_order_diagram--bounding_box"></line><path id="pathSk940yk7k55k" kvg:type="㇒" d="M42.12,14.75c0.75,0.75,1.43,2.23,1.46,3.25c1.55,50.38-0.2,64.5-14.08,80.75" transform="matrix(1,0,0,1,396,-4)" class="stroke_order_diagram--existing_path"></path><path id="pathSk940yk7k55l" kvg:type="㇐c" d="M20.75,35.75c1.75,0.38,3.23,0.36,4.75,0.25c3.38-0.25,9.25-1.25,15-2.5" transform="matrix(1,0,0,1,396,-4)" class="stroke_order_diagram--existing_path"></path><path id="pathSk940yk7k55m" kvg:type="㇐c" d="M20.25,52.5c1.38,0.25,3.24,0.19,4.75,0c3-0.38,11.12-2.12,16-3.5" transform="matrix(1,0,0,1,396,-4)" class="stroke_order_diagram--existing_path"></path><path id="pathSk940yk7k55n" kvg:type="㇀" d="M14.25,72.66c0.98,0.98,2.35,1.24,3.83,0.65c4.17-1.68,17.34-6.63,21.55-8.18" transform="matrix(1,0,0,1,396,-4)" class="stroke_order_diagram--existing_path"></path><path id="kvg:0975e-s5" kvg:type="㇑" d="M64.37,12.25c1,1,1.46,2.5,1.46,4c0,0.85-0.11,51.5-0.11,73.25c0,4.36-0.07,7.43-0.11,8.5" transform="matrix(1,0,0,1,396,-4)" class="stroke_order_diagram--current_path"></path><path id="pathSk940yk7k55p" kvg:type="㇑" d="M64.37,12.25c1,1,1.46,2.5,1.46,4c0,0.85-0.11,51.5-0.11,73.25c0,4.36-0.07,7.43-0.11,8.5" transform="matrix(1,0,0,1,396,-4)" class="stroke_order_diagram--current_path"></path><circle cx="64.37" cy="12.25" r="8" class="stroke_order_diagram--path_start" transform="matrix(1,0,0,1,396,-4)"></circle><line x1="550" x2="550" y1="1" y2="99" class="stroke_order_diagram--guide_line"></line><line x1="599" x2="599" y1="1" y2="99" class="stroke_order_diagram--bounding_box"></line><path id="pathSk940yk7k55s" kvg:type="㇒" d="M42.12,14.75c0.75,0.75,1.43,2.23,1.46,3.25c1.55,50.38-0.2,64.5-14.08,80.75" transform="matrix(1,0,0,1,496,-4)" class="stroke_order_diagram--existing_path"></path><path id="pathSk940yk7k55t" kvg:type="㇐c" d="M20.75,35.75c1.75,0.38,3.23,0.36,4.75,0.25c3.38-0.25,9.25-1.25,15-2.5" transform="matrix(1,0,0,1,496,-4)" class="stroke_order_diagram--existing_path"></path><path id="pathSk940yk7k55u" kvg:type="㇐c" d="M20.25,52.5c1.38,0.25,3.24,0.19,4.75,0c3-0.38,11.12-2.12,16-3.5" transform="matrix(1,0,0,1,496,-4)" class="stroke_order_diagram--existing_path"></path><path id="pathSk940yk7k55v" kvg:type="㇀" d="M14.25,72.66c0.98,0.98,2.35,1.24,3.83,0.65c4.17-1.68,17.34-6.63,21.55-8.18" transform="matrix(1,0,0,1,496,-4)" class="stroke_order_diagram--existing_path"></path><path id="pathSk940yk7k55w" kvg:type="㇑" d="M64.37,12.25c1,1,1.46,2.5,1.46,4c0,0.85-0.11,51.5-0.11,73.25c0,4.36-0.07,7.43-0.11,8.5" transform="matrix(1,0,0,1,496,-4)" class="stroke_order_diagram--existing_path"></path><path id="kvg:0975e-s6" kvg:type="㇐b" d="M69.25,30c4.5-0.38,14.5-2.25,18.25-3.25c1.21-0.32,2.75-0.38,4.25-0.12" transform="matrix(1,0,0,1,496,-4)" class="stroke_order_diagram--current_path"></path><path id="pathSk940yk7k55y" kvg:type="㇐b" d="M69.25,30c4.5-0.38,14.5-2.25,18.25-3.25c1.21-0.32,2.75-0.38,4.25-0.12" transform="matrix(1,0,0,1,496,-4)" class="stroke_order_diagram--current_path"></path><circle cx="69.25" cy="30" r="8" class="stroke_order_diagram--path_start" transform="matrix(1,0,0,1,496,-4)"></circle><line x1="650" x2="650" y1="1" y2="99" class="stroke_order_diagram--guide_line"></line><line x1="699" x2="699" y1="1" y2="99" class="stroke_order_diagram--bounding_box"></line><path id="pathSk940yk7k561" kvg:type="㇒" d="M42.12,14.75c0.75,0.75,1.43,2.23,1.46,3.25c1.55,50.38-0.2,64.5-14.08,80.75" transform="matrix(1,0,0,1,596,-4)" class="stroke_order_diagram--existing_path"></path><path id="pathSk940yk7k562" kvg:type="㇐c" d="M20.75,35.75c1.75,0.38,3.23,0.36,4.75,0.25c3.38-0.25,9.25-1.25,15-2.5" transform="matrix(1,0,0,1,596,-4)" class="stroke_order_diagram--existing_path"></path><path id="pathSk940yk7k563" kvg:type="㇐c" d="M20.25,52.5c1.38,0.25,3.24,0.19,4.75,0c3-0.38,11.12-2.12,16-3.5" transform="matrix(1,0,0,1,596,-4)" class="stroke_order_diagram--existing_path"></path><path id="pathSk940yk7k564" kvg:type="㇀" d="M14.25,72.66c0.98,0.98,2.35,1.24,3.83,0.65c4.17-1.68,17.34-6.63,21.55-8.18" transform="matrix(1,0,0,1,596,-4)" class="stroke_order_diagram--existing_path"></path><path id="pathSk940yk7k565" kvg:type="㇑" d="M64.37,12.25c1,1,1.46,2.5,1.46,4c0,0.85-0.11,51.5-0.11,73.25c0,4.36-0.07,7.43-0.11,8.5" transform="matrix(1,0,0,1,596,-4)" class="stroke_order_diagram--existing_path"></path><path id="pathSk940yk7k566" kvg:type="㇐b" d="M69.25,30c4.5-0.38,14.5-2.25,18.25-3.25c1.21-0.32,2.75-0.38,4.25-0.12" transform="matrix(1,0,0,1,596,-4)" class="stroke_order_diagram--existing_path"></path><path id="kvg:0975e-s7" kvg:type="㇐b" d="M69.12,47c4.38-0.12,14.62-2.12,18-2.75c1.23-0.23,2.62-0.38,4-0.12" transform="matrix(1,0,0,1,596,-4)" class="stroke_order_diagram--current_path"></path><path id="pathSk940yk7k568" kvg:type="㇐b" d="M69.12,47c4.38-0.12,14.62-2.12,18-2.75c1.23-0.23,2.62-0.38,4-0.12" transform="matrix(1,0,0,1,596,-4)" class="stroke_order_diagram--current_path"></path><circle cx="69.12" cy="47" r="8" class="stroke_order_diagram--path_start" transform="matrix(1,0,0,1,596,-4)"></circle><line x1="750" x2="750" y1="1" y2="99" class="stroke_order_diagram--guide_line"></line><line x1="799" x2="799" y1="1" y2="99" class="stroke_order_diagram--bounding_box"></line><path id="pathSk940yk7k56b" kvg:type="㇒" d="M42.12,14.75c0.75,0.75,1.43,2.23,1.46,3.25c1.55,50.38-0.2,64.5-14.08,80.75" transform="matrix(1,0,0,1,696,-4)" class="stroke_order_diagram--existing_path"></path><path id="pathSk940yk7k56c" kvg:type="㇐c" d="M20.75,35.75c1.75,0.38,3.23,0.36,4.75,0.25c3.38-0.25,9.25-1.25,15-2.5" transform="matrix(1,0,0,1,696,-4)" class="stroke_order_diagram--existing_path"></path><path id="pathSk940yk7k56d" kvg:type="㇐c" d="M20.25,52.5c1.38,0.25,3.24,0.19,4.75,0c3-0.38,11.12-2.12,16-3.5" transform="matrix(1,0,0,1,696,-4)" class="stroke_order_diagram--existing_path"></path><path id="pathSk940yk7k56e" kvg:type="㇀" d="M14.25,72.66c0.98,0.98,2.35,1.24,3.83,0.65c4.17-1.68,17.34-6.63,21.55-8.18" transform="matrix(1,0,0,1,696,-4)" class="stroke_order_diagram--existing_path"></path><path id="pathSk940yk7k56f" kvg:type="㇑" d="M64.37,12.25c1,1,1.46,2.5,1.46,4c0,0.85-0.11,51.5-0.11,73.25c0,4.36-0.07,7.43-0.11,8.5" transform="matrix(1,0,0,1,696,-4)" class="stroke_order_diagram--existing_path"></path><path id="pathSk940yk7k56g" kvg:type="㇐b" d="M69.25,30c4.5-0.38,14.5-2.25,18.25-3.25c1.21-0.32,2.75-0.38,4.25-0.12" transform="matrix(1,0,0,1,696,-4)" class="stroke_order_diagram--existing_path"></path><path id="pathSk940yk7k56h" kvg:type="㇐b" d="M69.12,47c4.38-0.12,14.62-2.12,18-2.75c1.23-0.23,2.62-0.38,4-0.12" transform="matrix(1,0,0,1,696,-4)" class="stroke_order_diagram--existing_path"></path><path id="kvg:0975e-s8" kvg:type="㇐b" d="M69,67.88c4.5-0.38,18.62-2.62,22-3.25c1.23-0.23,2.62-0.38,4-0.12" transform="matrix(1,0,0,1,696,-4)" class="stroke_order_diagram--current_path"></path><path id="pathSk940yk7k56j" kvg:type="㇐b" d="M69,67.88c4.5-0.38,18.62-2.62,22-3.25c1.23-0.23,2.62-0.38,4-0.12" transform="matrix(1,0,0,1,696,-4)" class="stroke_order_diagram--current_path"></path><circle cx="69" cy="67.88" r="8" class="stroke_order_diagram--path_start" transform="matrix(1,0,0,1,696,-4)"></circle></svg>