<?xml version="1.0" encoding="UTF-8"?>
<!DOCTYPE svg PUBLIC "-//W3C//DTD SVG 1.0//EN" "http://www.w3.org/TR/2001/REC-SVG-20010904/DTD/svg10.dtd" [
<!ATTLIST g
xmlns:kvg CDATA #FIXED "http://kanjivg.tagaini.net"
kvg:element CDATA #IMPLIED
kvg:variant CDATA #IMPLIED
kvg:partial CDATA #IMPLIED
kvg:original CDATA #IMPLIED
kvg:part CDATA #IMPLIED
kvg:number CDATA #IMPLIED
kvg:tradForm CDATA #IMPLIED
kvg:radicalForm CDATA #IMPLIED
kvg:position CDATA #IMPLIED
kvg:radical CDATA #IMPLIED
kvg:phon CDATA #IMPLIED >
<!ATTLIST path
xmlns:kvg CDATA #FIXED "http://kanjivg.tagaini.net"
kvg:type CDATA #IMPLIED >
]><svg style="width: 900px; height: 100px;" xmlns="http://www.w3.org/2000/svg" xmlns:xlink="http://www.w3.org/1999/xlink" width="900px" height="100px"><style>
.stroke_order_diagram--outer_container {
  width: 100%;
  overflow-x: auto;
  overflow-y: hidden;
}

.stroke_order_diagram--guide_line {
  fill: none;
  stroke: #ddd;
  stroke-width: 3;
  stroke-linecap: square;
  stroke-linejoin: square;
  stroke-dasharray:8, 8;
}

.stroke_order_diagram--bounding_box {
  fill: none;
  stroke: #ddd;
  stroke-width: 4;
  stroke-linecap: square;
  stroke-linejoin: square;
}

.stroke_order_diagram--current_path {
  fill: none;
  stroke: #000;
  stroke-width: 6;
  stroke-linecap: round;
  stroke-linejoin: round;
}

.stroke_order_diagram--existing_path {
  fill: none;
  stroke: #aaa;
  stroke-width: 6;
  stroke-linecap: round;
  stroke-linejoin:round;
}

.stroke_order_diagram--path_start {
  fill: rgba(255, 0, 0, 0.7);
  stroke:none
}</style><desc>Created with Snap</desc><defs></defs><line x1="1" x2="899" y1="1" y2="1" class="stroke_order_diagram--bounding_box"></line><line x1="1" x2="1" y1="1" y2="99" class="stroke_order_diagram--bounding_box"></line><line x1="1" x2="899" y1="99" y2="99" class="stroke_order_diagram--bounding_box"></line><line x1="0" x2="900" y1="50" y2="50" class="stroke_order_diagram--guide_line"></line><line x1="50" x2="50" y1="1" y2="99" class="stroke_order_diagram--guide_line"></line><line x1="99" x2="99" y1="1" y2="99" class="stroke_order_diagram--bounding_box"></line><path id="kvg:09762-s1" kvg:type="㇐" d="M21.75,20.2c5,0.8,8.29,0.3,12.11-0.07C44.6,19.09,64.08,17.33,78,16.86c3.2-0.11,6.35-0.25,9.5,0.43" transform="matrix(1,0,0,1,-4,-4)" class="stroke_order_diagram--current_path"></path><path id="pathSk940yk7k572" kvg:type="㇐" d="M21.75,20.2c5,0.8,8.29,0.3,12.11-0.07C44.6,19.09,64.08,17.33,78,16.86c3.2-0.11,6.35-0.25,9.5,0.43" transform="matrix(1,0,0,1,-4,-4)" class="stroke_order_diagram--current_path"></path><circle cx="21.75" cy="20.2" r="8" class="stroke_order_diagram--path_start" transform="matrix(1,0,0,1,-4,-4)"></circle><line x1="150" x2="150" y1="1" y2="99" class="stroke_order_diagram--guide_line"></line><line x1="199" x2="199" y1="1" y2="99" class="stroke_order_diagram--bounding_box"></line><path id="pathSk940yk7k575" kvg:type="㇐" d="M21.75,20.2c5,0.8,8.29,0.3,12.11-0.07C44.6,19.09,64.08,17.33,78,16.86c3.2-0.11,6.35-0.25,9.5,0.43" transform="matrix(1,0,0,1,96,-4)" class="stroke_order_diagram--existing_path"></path><path id="kvg:09762-s2" kvg:type="㇒" d="M51.63,22.5c0.03,0.4,0.06,1.04-0.06,1.61c-0.59,2.9-3.57,8.76-7.81,13.25" transform="matrix(1,0,0,1,96,-4)" class="stroke_order_diagram--current_path"></path><path id="pathSk940yk7k577" kvg:type="㇒" d="M51.63,22.5c0.03,0.4,0.06,1.04-0.06,1.61c-0.59,2.9-3.57,8.76-7.81,13.25" transform="matrix(1,0,0,1,96,-4)" class="stroke_order_diagram--current_path"></path><circle cx="51.63" cy="22.5" r="8" class="stroke_order_diagram--path_start" transform="matrix(1,0,0,1,96,-4)"></circle><line x1="250" x2="250" y1="1" y2="99" class="stroke_order_diagram--guide_line"></line><line x1="299" x2="299" y1="1" y2="99" class="stroke_order_diagram--bounding_box"></line><path id="pathSk940yk7k57a" kvg:type="㇐" d="M21.75,20.2c5,0.8,8.29,0.3,12.11-0.07C44.6,19.09,64.08,17.33,78,16.86c3.2-0.11,6.35-0.25,9.5,0.43" transform="matrix(1,0,0,1,196,-4)" class="stroke_order_diagram--existing_path"></path><path id="pathSk940yk7k57b" kvg:type="㇒" d="M51.63,22.5c0.03,0.4,0.06,1.04-0.06,1.61c-0.59,2.9-3.57,8.76-7.81,13.25" transform="matrix(1,0,0,1,196,-4)" class="stroke_order_diagram--existing_path"></path><path id="kvg:09762-s3" kvg:type="㇑" d="M15,40.23c1.51,1.51,2.38,3.27,2.53,4.95c1.11,12.15,2.13,25.88,3.37,41.69c0.13,1.68,0.27,3.39,0.41,5.13" transform="matrix(1,0,0,1,196,-4)" class="stroke_order_diagram--current_path"></path><path id="pathSk940yk7k57d" kvg:type="㇑" d="M15,40.23c1.51,1.51,2.38,3.27,2.53,4.95c1.11,12.15,2.13,25.88,3.37,41.69c0.13,1.68,0.27,3.39,0.41,5.13" transform="matrix(1,0,0,1,196,-4)" class="stroke_order_diagram--current_path"></path><circle cx="15" cy="40.23" r="8" class="stroke_order_diagram--path_start" transform="matrix(1,0,0,1,196,-4)"></circle><line x1="350" x2="350" y1="1" y2="99" class="stroke_order_diagram--guide_line"></line><line x1="399" x2="399" y1="1" y2="99" class="stroke_order_diagram--bounding_box"></line><path id="pathSk940yk7k57g" kvg:type="㇐" d="M21.75,20.2c5,0.8,8.29,0.3,12.11-0.07C44.6,19.09,64.08,17.33,78,16.86c3.2-0.11,6.35-0.25,9.5,0.43" transform="matrix(1,0,0,1,296,-4)" class="stroke_order_diagram--existing_path"></path><path id="pathSk940yk7k57h" kvg:type="㇒" d="M51.63,22.5c0.03,0.4,0.06,1.04-0.06,1.61c-0.59,2.9-3.57,8.76-7.81,13.25" transform="matrix(1,0,0,1,296,-4)" class="stroke_order_diagram--existing_path"></path><path id="pathSk940yk7k57i" kvg:type="㇑" d="M15,40.23c1.51,1.51,2.38,3.27,2.53,4.95c1.11,12.15,2.13,25.88,3.37,41.69c0.13,1.68,0.27,3.39,0.41,5.13" transform="matrix(1,0,0,1,296,-4)" class="stroke_order_diagram--existing_path"></path><path id="kvg:09762-s4" kvg:type="㇕a" d="M18.1,42.54c19.52-1.92,57.1-5.26,68.83-5.55c4.85-0.12,6.97,2.37,6.54,6.13c-1.33,11.55-3.4,25.85-6.28,40.79c-0.3,1.56-0.61,3.13-0.93,4.71" transform="matrix(1,0,0,1,296,-4)" class="stroke_order_diagram--current_path"></path><path id="pathSk940yk7k57k" kvg:type="㇕a" d="M18.1,42.54c19.52-1.92,57.1-5.26,68.83-5.55c4.85-0.12,6.97,2.37,6.54,6.13c-1.33,11.55-3.4,25.85-6.28,40.79c-0.3,1.56-0.61,3.13-0.93,4.71" transform="matrix(1,0,0,1,296,-4)" class="stroke_order_diagram--current_path"></path><circle cx="18.1" cy="42.54" r="8" class="stroke_order_diagram--path_start" transform="matrix(1,0,0,1,296,-4)"></circle><line x1="450" x2="450" y1="1" y2="99" class="stroke_order_diagram--guide_line"></line><line x1="499" x2="499" y1="1" y2="99" class="stroke_order_diagram--bounding_box"></line><path id="pathSk940yk7k57n" kvg:type="㇐" d="M21.75,20.2c5,0.8,8.29,0.3,12.11-0.07C44.6,19.09,64.08,17.33,78,16.86c3.2-0.11,6.35-0.25,9.5,0.43" transform="matrix(1,0,0,1,396,-4)" class="stroke_order_diagram--existing_path"></path><path id="pathSk940yk7k57o" kvg:type="㇒" d="M51.63,22.5c0.03,0.4,0.06,1.04-0.06,1.61c-0.59,2.9-3.57,8.76-7.81,13.25" transform="matrix(1,0,0,1,396,-4)" class="stroke_order_diagram--existing_path"></path><path id="pathSk940yk7k57p" kvg:type="㇑" d="M15,40.23c1.51,1.51,2.38,3.27,2.53,4.95c1.11,12.15,2.13,25.88,3.37,41.69c0.13,1.68,0.27,3.39,0.41,5.13" transform="matrix(1,0,0,1,396,-4)" class="stroke_order_diagram--existing_path"></path><path id="pathSk940yk7k57q" kvg:type="㇕a" d="M18.1,42.54c19.52-1.92,57.1-5.26,68.83-5.55c4.85-0.12,6.97,2.37,6.54,6.13c-1.33,11.55-3.4,25.85-6.28,40.79c-0.3,1.56-0.61,3.13-0.93,4.71" transform="matrix(1,0,0,1,396,-4)" class="stroke_order_diagram--existing_path"></path><path id="kvg:09762-s5" kvg:type="㇑a" d="M38.75,42.5c0.88,0.88,1.47,2.37,1.5,3.75c0.25,11,0.75,27,1,39.5" transform="matrix(1,0,0,1,396,-4)" class="stroke_order_diagram--current_path"></path><path id="pathSk940yk7k57s" kvg:type="㇑a" d="M38.75,42.5c0.88,0.88,1.47,2.37,1.5,3.75c0.25,11,0.75,27,1,39.5" transform="matrix(1,0,0,1,396,-4)" class="stroke_order_diagram--current_path"></path><circle cx="38.75" cy="42.5" r="8" class="stroke_order_diagram--path_start" transform="matrix(1,0,0,1,396,-4)"></circle><line x1="550" x2="550" y1="1" y2="99" class="stroke_order_diagram--guide_line"></line><line x1="599" x2="599" y1="1" y2="99" class="stroke_order_diagram--bounding_box"></line><path id="pathSk940yk7k57v" kvg:type="㇐" d="M21.75,20.2c5,0.8,8.29,0.3,12.11-0.07C44.6,19.09,64.08,17.33,78,16.86c3.2-0.11,6.35-0.25,9.5,0.43" transform="matrix(1,0,0,1,496,-4)" class="stroke_order_diagram--existing_path"></path><path id="pathSk940yk7k57w" kvg:type="㇒" d="M51.63,22.5c0.03,0.4,0.06,1.04-0.06,1.61c-0.59,2.9-3.57,8.76-7.81,13.25" transform="matrix(1,0,0,1,496,-4)" class="stroke_order_diagram--existing_path"></path><path id="pathSk940yk7k57x" kvg:type="㇑" d="M15,40.23c1.51,1.51,2.38,3.27,2.53,4.95c1.11,12.15,2.13,25.88,3.37,41.69c0.13,1.68,0.27,3.39,0.41,5.13" transform="matrix(1,0,0,1,496,-4)" class="stroke_order_diagram--existing_path"></path><path id="pathSk940yk7k57y" kvg:type="㇕a" d="M18.1,42.54c19.52-1.92,57.1-5.26,68.83-5.55c4.85-0.12,6.97,2.37,6.54,6.13c-1.33,11.55-3.4,25.85-6.28,40.79c-0.3,1.56-0.61,3.13-0.93,4.71" transform="matrix(1,0,0,1,496,-4)" class="stroke_order_diagram--existing_path"></path><path id="pathSk940yk7k57z" kvg:type="㇑a" d="M38.75,42.5c0.88,0.88,1.47,2.37,1.5,3.75c0.25,11,0.75,27,1,39.5" transform="matrix(1,0,0,1,496,-4)" class="stroke_order_diagram--existing_path"></path><path id="kvg:09762-s6" kvg:type="㇑a" d="M64.5,40c0.88,0.88,1.55,2.75,1.5,3.75c-0.38,7-1.38,32.25-1.75,40.75" transform="matrix(1,0,0,1,496,-4)" class="stroke_order_diagram--current_path"></path><path id="pathSk940yk7k581" kvg:type="㇑a" d="M64.5,40c0.88,0.88,1.55,2.75,1.5,3.75c-0.38,7-1.38,32.25-1.75,40.75" transform="matrix(1,0,0,1,496,-4)" class="stroke_order_diagram--current_path"></path><circle cx="64.5" cy="40" r="8" class="stroke_order_diagram--path_start" transform="matrix(1,0,0,1,496,-4)"></circle><line x1="650" x2="650" y1="1" y2="99" class="stroke_order_diagram--guide_line"></line><line x1="699" x2="699" y1="1" y2="99" class="stroke_order_diagram--bounding_box"></line><path id="pathSk940yk7k584" kvg:type="㇐" d="M21.75,20.2c5,0.8,8.29,0.3,12.11-0.07C44.6,19.09,64.08,17.33,78,16.86c3.2-0.11,6.35-0.25,9.5,0.43" transform="matrix(1,0,0,1,596,-4)" class="stroke_order_diagram--existing_path"></path><path id="pathSk940yk7k585" kvg:type="㇒" d="M51.63,22.5c0.03,0.4,0.06,1.04-0.06,1.61c-0.59,2.9-3.57,8.76-7.81,13.25" transform="matrix(1,0,0,1,596,-4)" class="stroke_order_diagram--existing_path"></path><path id="pathSk940yk7k586" kvg:type="㇑" d="M15,40.23c1.51,1.51,2.38,3.27,2.53,4.95c1.11,12.15,2.13,25.88,3.37,41.69c0.13,1.68,0.27,3.39,0.41,5.13" transform="matrix(1,0,0,1,596,-4)" class="stroke_order_diagram--existing_path"></path><path id="pathSk940yk7k587" kvg:type="㇕a" d="M18.1,42.54c19.52-1.92,57.1-5.26,68.83-5.55c4.85-0.12,6.97,2.37,6.54,6.13c-1.33,11.55-3.4,25.85-6.28,40.79c-0.3,1.56-0.61,3.13-0.93,4.71" transform="matrix(1,0,0,1,596,-4)" class="stroke_order_diagram--existing_path"></path><path id="pathSk940yk7k588" kvg:type="㇑a" d="M38.75,42.5c0.88,0.88,1.47,2.37,1.5,3.75c0.25,11,0.75,27,1,39.5" transform="matrix(1,0,0,1,596,-4)" class="stroke_order_diagram--existing_path"></path><path id="pathSk940yk7k589" kvg:type="㇑a" d="M64.5,40c0.88,0.88,1.55,2.75,1.5,3.75c-0.38,7-1.38,32.25-1.75,40.75" transform="matrix(1,0,0,1,596,-4)" class="stroke_order_diagram--existing_path"></path><path id="kvg:09762-s7" kvg:type="㇐a" d="M41.75,55c2.5,0,20-1.75,22.5-1.75" transform="matrix(1,0,0,1,596,-4)" class="stroke_order_diagram--current_path"></path><path id="pathSk940yk7k58b" kvg:type="㇐a" d="M41.75,55c2.5,0,20-1.75,22.5-1.75" transform="matrix(1,0,0,1,596,-4)" class="stroke_order_diagram--current_path"></path><circle cx="41.75" cy="55" r="8" class="stroke_order_diagram--path_start" transform="matrix(1,0,0,1,596,-4)"></circle><line x1="750" x2="750" y1="1" y2="99" class="stroke_order_diagram--guide_line"></line><line x1="799" x2="799" y1="1" y2="99" class="stroke_order_diagram--bounding_box"></line><path id="pathSk940yk7k58e" kvg:type="㇐" d="M21.75,20.2c5,0.8,8.29,0.3,12.11-0.07C44.6,19.09,64.08,17.33,78,16.86c3.2-0.11,6.35-0.25,9.5,0.43" transform="matrix(1,0,0,1,696,-4)" class="stroke_order_diagram--existing_path"></path><path id="pathSk940yk7k58f" kvg:type="㇒" d="M51.63,22.5c0.03,0.4,0.06,1.04-0.06,1.61c-0.59,2.9-3.57,8.76-7.81,13.25" transform="matrix(1,0,0,1,696,-4)" class="stroke_order_diagram--existing_path"></path><path id="pathSk940yk7k58g" kvg:type="㇑" d="M15,40.23c1.51,1.51,2.38,3.27,2.53,4.95c1.11,12.15,2.13,25.88,3.37,41.69c0.13,1.68,0.27,3.39,0.41,5.13" transform="matrix(1,0,0,1,696,-4)" class="stroke_order_diagram--existing_path"></path><path id="pathSk940yk7k58h" kvg:type="㇕a" d="M18.1,42.54c19.52-1.92,57.1-5.26,68.83-5.55c4.85-0.12,6.97,2.37,6.54,6.13c-1.33,11.55-3.4,25.85-6.28,40.79c-0.3,1.56-0.61,3.13-0.93,4.71" transform="matrix(1,0,0,1,696,-4)" class="stroke_order_diagram--existing_path"></path><path id="pathSk940yk7k58i" kvg:type="㇑a" d="M38.75,42.5c0.88,0.88,1.47,2.37,1.5,3.75c0.25,11,0.75,27,1,39.5" transform="matrix(1,0,0,1,696,-4)" class="stroke_order_diagram--existing_path"></path><path id="pathSk940yk7k58j" kvg:type="㇑a" d="M64.5,40c0.88,0.88,1.55,2.75,1.5,3.75c-0.38,7-1.38,32.25-1.75,40.75" transform="matrix(1,0,0,1,696,-4)" class="stroke_order_diagram--existing_path"></path><path id="pathSk940yk7k58k" kvg:type="㇐a" d="M41.75,55c2.5,0,20-1.75,22.5-1.75" transform="matrix(1,0,0,1,696,-4)" class="stroke_order_diagram--existing_path"></path><path id="kvg:09762-s8" kvg:type="㇐a" d="M42,70.75c4.25-0.5,18-1.5,21.5-1.75" transform="matrix(1,0,0,1,696,-4)" class="stroke_order_diagram--current_path"></path><path id="pathSk940yk7k58m" kvg:type="㇐a" d="M42,70.75c4.25-0.5,18-1.5,21.5-1.75" transform="matrix(1,0,0,1,696,-4)" class="stroke_order_diagram--current_path"></path><circle cx="42" cy="70.75" r="8" class="stroke_order_diagram--path_start" transform="matrix(1,0,0,1,696,-4)"></circle><line x1="850" x2="850" y1="1" y2="99" class="stroke_order_diagram--guide_line"></line><line x1="899" x2="899" y1="1" y2="99" class="stroke_order_diagram--bounding_box"></line><path id="pathSk940yk7k58p" kvg:type="㇐" d="M21.75,20.2c5,0.8,8.29,0.3,12.11-0.07C44.6,19.09,64.08,17.33,78,16.86c3.2-0.11,6.35-0.25,9.5,0.43" transform="matrix(1,0,0,1,796,-4)" class="stroke_order_diagram--existing_path"></path><path id="pathSk940yk7k58q" kvg:type="㇒" d="M51.63,22.5c0.03,0.4,0.06,1.04-0.06,1.61c-0.59,2.9-3.57,8.76-7.81,13.25" transform="matrix(1,0,0,1,796,-4)" class="stroke_order_diagram--existing_path"></path><path id="pathSk940yk7k58r" kvg:type="㇑" d="M15,40.23c1.51,1.51,2.38,3.27,2.53,4.95c1.11,12.15,2.13,25.88,3.37,41.69c0.13,1.68,0.27,3.39,0.41,5.13" transform="matrix(1,0,0,1,796,-4)" class="stroke_order_diagram--existing_path"></path><path id="pathSk940yk7k58s" kvg:type="㇕a" d="M18.1,42.54c19.52-1.92,57.1-5.26,68.83-5.55c4.85-0.12,6.97,2.37,6.54,6.13c-1.33,11.55-3.4,25.85-6.28,40.79c-0.3,1.56-0.61,3.13-0.93,4.71" transform="matrix(1,0,0,1,796,-4)" class="stroke_order_diagram--existing_path"></path><path id="pathSk940yk7k58t" kvg:type="㇑a" d="M38.75,42.5c0.88,0.88,1.47,2.37,1.5,3.75c0.25,11,0.75,27,1,39.5" transform="matrix(1,0,0,1,796,-4)" class="stroke_order_diagram--existing_path"></path><path id="pathSk940yk7k58u" kvg:type="㇑a" d="M64.5,40c0.88,0.88,1.55,2.75,1.5,3.75c-0.38,7-1.38,32.25-1.75,40.75" transform="matrix(1,0,0,1,796,-4)" class="stroke_order_diagram--existing_path"></path><path id="pathSk940yk7k58v" kvg:type="㇐a" d="M41.75,55c2.5,0,20-1.75,22.5-1.75" transform="matrix(1,0,0,1,796,-4)" class="stroke_order_diagram--existing_path"></path><path id="pathSk940yk7k58w" kvg:type="㇐a" d="M42,70.75c4.25-0.5,18-1.5,21.5-1.75" transform="matrix(1,0,0,1,796,-4)" class="stroke_order_diagram--existing_path"></path><path id="kvg:09762-s9" kvg:type="㇐a" d="M21.75,88c15.12-0.88,51.38-2.62,63.75-3" transform="matrix(1,0,0,1,796,-4)" class="stroke_order_diagram--current_path"></path><path id="pathSk940yk7k58y" kvg:type="㇐a" d="M21.75,88c15.12-0.88,51.38-2.62,63.75-3" transform="matrix(1,0,0,1,796,-4)" class="stroke_order_diagram--current_path"></path><circle cx="21.75" cy="88" r="8" class="stroke_order_diagram--path_start" transform="matrix(1,0,0,1,796,-4)"></circle></svg>