<?xml version="1.0" encoding="UTF-8"?>
<!DOCTYPE svg PUBLIC "-//W3C//DTD SVG 1.0//EN" "http://www.w3.org/TR/2001/REC-SVG-20010904/DTD/svg10.dtd" [
<!ATTLIST g
xmlns:kvg CDATA #FIXED "http://kanjivg.tagaini.net"
kvg:element CDATA #IMPLIED
kvg:variant CDATA #IMPLIED
kvg:partial CDATA #IMPLIED
kvg:original CDATA #IMPLIED
kvg:part CDATA #IMPLIED
kvg:number CDATA #IMPLIED
kvg:tradForm CDATA #IMPLIED
kvg:radicalForm CDATA #IMPLIED
kvg:position CDATA #IMPLIED
kvg:radical CDATA #IMPLIED
kvg:phon CDATA #IMPLIED >
<!ATTLIST path
xmlns:kvg CDATA #FIXED "http://kanjivg.tagaini.net"
kvg:type CDATA #IMPLIED >
]><svg style="width: 1000px; height: 100px;" xmlns="http://www.w3.org/2000/svg" xmlns:xlink="http://www.w3.org/1999/xlink" width="1000px" height="100px"><style>
.stroke_order_diagram--outer_container {
  width: 100%;
  overflow-x: auto;
  overflow-y: hidden;
}

.stroke_order_diagram--guide_line {
  fill: none;
  stroke: #ddd;
  stroke-width: 3;
  stroke-linecap: square;
  stroke-linejoin: square;
  stroke-dasharray:8, 8;
}

.stroke_order_diagram--bounding_box {
  fill: none;
  stroke: #ddd;
  stroke-width: 4;
  stroke-linecap: square;
  stroke-linejoin: square;
}

.stroke_order_diagram--current_path {
  fill: none;
  stroke: #000;
  stroke-width: 6;
  stroke-linecap: round;
  stroke-linejoin: round;
}

.stroke_order_diagram--existing_path {
  fill: none;
  stroke: #aaa;
  stroke-width: 6;
  stroke-linecap: round;
  stroke-linejoin:round;
}

.stroke_order_diagram--path_start {
  fill: rgba(255, 0, 0, 0.7);
  stroke:none
}</style><desc>Created with Snap</desc><defs></defs><line x1="1" x2="999" y1="1" y2="1" class="stroke_order_diagram--bounding_box"></line><line x1="1" x2="1" y1="1" y2="99" class="stroke_order_diagram--bounding_box"></line><line x1="1" x2="999" y1="99" y2="99" class="stroke_order_diagram--bounding_box"></line><line x1="0" x2="1000" y1="50" y2="50" class="stroke_order_diagram--guide_line"></line><line x1="50" x2="50" y1="1" y2="99" class="stroke_order_diagram--guide_line"></line><line x1="99" x2="99" y1="1" y2="99" class="stroke_order_diagram--bounding_box"></line><path id="kvg:097cb-s1" kvg:type="㇑" d="M49.08,9.5c0.33,0.23,0.86,1.02,0.74,1.53c-1.18,4.9-4.34,16.04-5.57,19.11" transform="matrix(1,0,0,1,-4,-4)" class="stroke_order_diagram--current_path"></path><path id="pathSk940yk7k5bx" kvg:type="㇑" d="M49.08,9.5c0.33,0.23,0.86,1.02,0.74,1.53c-1.18,4.9-4.34,16.04-5.57,19.11" transform="matrix(1,0,0,1,-4,-4)" class="stroke_order_diagram--current_path"></path><circle cx="49.08" cy="9.5" r="8" class="stroke_order_diagram--path_start" transform="matrix(1,0,0,1,-4,-4)"></circle><line x1="150" x2="150" y1="1" y2="99" class="stroke_order_diagram--guide_line"></line><line x1="199" x2="199" y1="1" y2="99" class="stroke_order_diagram--bounding_box"></line><path id="pathSk940yk7k5c0" kvg:type="㇑" d="M49.08,9.5c0.33,0.23,0.86,1.02,0.74,1.53c-1.18,4.9-4.34,16.04-5.57,19.11" transform="matrix(1,0,0,1,96,-4)" class="stroke_order_diagram--existing_path"></path><path id="kvg:097cb-s2" kvg:type="㇕" d="M30.76,18.58c1,0.65,2.39,0.93,3.22,0.87c13.28-0.95,35.68-2.56,36.89-2.56c2.01,0,3.08,1.47,2.82,2.54c-1.01,4.12-2.09,6.24-2.89,8.85" transform="matrix(1,0,0,1,96,-4)" class="stroke_order_diagram--current_path"></path><path id="pathSk940yk7k5c2" kvg:type="㇕" d="M30.76,18.58c1,0.65,2.39,0.93,3.22,0.87c13.28-0.95,35.68-2.56,36.89-2.56c2.01,0,3.08,1.47,2.82,2.54c-1.01,4.12-2.09,6.24-2.89,8.85" transform="matrix(1,0,0,1,96,-4)" class="stroke_order_diagram--current_path"></path><circle cx="30.76" cy="18.58" r="8" class="stroke_order_diagram--path_start" transform="matrix(1,0,0,1,96,-4)"></circle><line x1="250" x2="250" y1="1" y2="99" class="stroke_order_diagram--guide_line"></line><line x1="299" x2="299" y1="1" y2="99" class="stroke_order_diagram--bounding_box"></line><path id="pathSk940yk7k5c5" kvg:type="㇑" d="M49.08,9.5c0.33,0.23,0.86,1.02,0.74,1.53c-1.18,4.9-4.34,16.04-5.57,19.11" transform="matrix(1,0,0,1,196,-4)" class="stroke_order_diagram--existing_path"></path><path id="pathSk940yk7k5c6" kvg:type="㇕" d="M30.76,18.58c1,0.65,2.39,0.93,3.22,0.87c13.28-0.95,35.68-2.56,36.89-2.56c2.01,0,3.08,1.47,2.82,2.54c-1.01,4.12-2.09,6.24-2.89,8.85" transform="matrix(1,0,0,1,196,-4)" class="stroke_order_diagram--existing_path"></path><path id="kvg:097cb-s3" kvg:type="㇐" d="M16.47,32.01c1.03,0.28,3.59,0.42,4.6,0.28c4.15-0.55,48.2-3.49,67.95-4.19c1.71-0.06,3.4,0.14,4.26,0.28" transform="matrix(1,0,0,1,196,-4)" class="stroke_order_diagram--current_path"></path><path id="pathSk940yk7k5c8" kvg:type="㇐" d="M16.47,32.01c1.03,0.28,3.59,0.42,4.6,0.28c4.15-0.55,48.2-3.49,67.95-4.19c1.71-0.06,3.4,0.14,4.26,0.28" transform="matrix(1,0,0,1,196,-4)" class="stroke_order_diagram--current_path"></path><circle cx="16.47" cy="32.01" r="8" class="stroke_order_diagram--path_start" transform="matrix(1,0,0,1,196,-4)"></circle><line x1="350" x2="350" y1="1" y2="99" class="stroke_order_diagram--guide_line"></line><line x1="399" x2="399" y1="1" y2="99" class="stroke_order_diagram--bounding_box"></line><path id="pathSk940yk7k5cb" kvg:type="㇑" d="M49.08,9.5c0.33,0.23,0.86,1.02,0.74,1.53c-1.18,4.9-4.34,16.04-5.57,19.11" transform="matrix(1,0,0,1,296,-4)" class="stroke_order_diagram--existing_path"></path><path id="pathSk940yk7k5cc" kvg:type="㇕" d="M30.76,18.58c1,0.65,2.39,0.93,3.22,0.87c13.28-0.95,35.68-2.56,36.89-2.56c2.01,0,3.08,1.47,2.82,2.54c-1.01,4.12-2.09,6.24-2.89,8.85" transform="matrix(1,0,0,1,296,-4)" class="stroke_order_diagram--existing_path"></path><path id="pathSk940yk7k5cd" kvg:type="㇐" d="M16.47,32.01c1.03,0.28,3.59,0.42,4.6,0.28c4.15-0.55,48.2-3.49,67.95-4.19c1.71-0.06,3.4,0.14,4.26,0.28" transform="matrix(1,0,0,1,296,-4)" class="stroke_order_diagram--existing_path"></path><path id="kvg:097cb-s4" kvg:type="㇑" d="M32.35,38.5c0.39,0.41,0.8,0.76,0.97,1.27C34.68,43.86,35,46.75,36.25,54" transform="matrix(1,0,0,1,296,-4)" class="stroke_order_diagram--current_path"></path><path id="pathSk940yk7k5cf" kvg:type="㇑" d="M32.35,38.5c0.39,0.41,0.8,0.76,0.97,1.27C34.68,43.86,35,46.75,36.25,54" transform="matrix(1,0,0,1,296,-4)" class="stroke_order_diagram--current_path"></path><circle cx="32.35" cy="38.5" r="8" class="stroke_order_diagram--path_start" transform="matrix(1,0,0,1,296,-4)"></circle><line x1="450" x2="450" y1="1" y2="99" class="stroke_order_diagram--guide_line"></line><line x1="499" x2="499" y1="1" y2="99" class="stroke_order_diagram--bounding_box"></line><path id="pathSk940yk7k5ci" kvg:type="㇑" d="M49.08,9.5c0.33,0.23,0.86,1.02,0.74,1.53c-1.18,4.9-4.34,16.04-5.57,19.11" transform="matrix(1,0,0,1,396,-4)" class="stroke_order_diagram--existing_path"></path><path id="pathSk940yk7k5cj" kvg:type="㇕" d="M30.76,18.58c1,0.65,2.39,0.93,3.22,0.87c13.28-0.95,35.68-2.56,36.89-2.56c2.01,0,3.08,1.47,2.82,2.54c-1.01,4.12-2.09,6.24-2.89,8.85" transform="matrix(1,0,0,1,396,-4)" class="stroke_order_diagram--existing_path"></path><path id="pathSk940yk7k5ck" kvg:type="㇐" d="M16.47,32.01c1.03,0.28,3.59,0.42,4.6,0.28c4.15-0.55,48.2-3.49,67.95-4.19c1.71-0.06,3.4,0.14,4.26,0.28" transform="matrix(1,0,0,1,396,-4)" class="stroke_order_diagram--existing_path"></path><path id="pathSk940yk7k5cl" kvg:type="㇑" d="M32.35,38.5c0.39,0.41,0.8,0.76,0.97,1.27C34.68,43.86,35,46.75,36.25,54" transform="matrix(1,0,0,1,396,-4)" class="stroke_order_diagram--existing_path"></path><path id="kvg:097cb-s5" kvg:type="㇕b" d="M33.73,39.84c9.1-1.1,33.97-2.5,39.05-3.09c1.86-0.22,3.24,1.37,2.71,2.56c-0.99,2.2-3.24,8.2-4.03,10.92" transform="matrix(1,0,0,1,396,-4)" class="stroke_order_diagram--current_path"></path><path id="pathSk940yk7k5cn" kvg:type="㇕b" d="M33.73,39.84c9.1-1.1,33.97-2.5,39.05-3.09c1.86-0.22,3.24,1.37,2.71,2.56c-0.99,2.2-3.24,8.2-4.03,10.92" transform="matrix(1,0,0,1,396,-4)" class="stroke_order_diagram--current_path"></path><circle cx="33.73" cy="39.84" r="8" class="stroke_order_diagram--path_start" transform="matrix(1,0,0,1,396,-4)"></circle><line x1="550" x2="550" y1="1" y2="99" class="stroke_order_diagram--guide_line"></line><line x1="599" x2="599" y1="1" y2="99" class="stroke_order_diagram--bounding_box"></line><path id="pathSk940yk7k5cq" kvg:type="㇑" d="M49.08,9.5c0.33,0.23,0.86,1.02,0.74,1.53c-1.18,4.9-4.34,16.04-5.57,19.11" transform="matrix(1,0,0,1,496,-4)" class="stroke_order_diagram--existing_path"></path><path id="pathSk940yk7k5cr" kvg:type="㇕" d="M30.76,18.58c1,0.65,2.39,0.93,3.22,0.87c13.28-0.95,35.68-2.56,36.89-2.56c2.01,0,3.08,1.47,2.82,2.54c-1.01,4.12-2.09,6.24-2.89,8.85" transform="matrix(1,0,0,1,496,-4)" class="stroke_order_diagram--existing_path"></path><path id="pathSk940yk7k5cs" kvg:type="㇐" d="M16.47,32.01c1.03,0.28,3.59,0.42,4.6,0.28c4.15-0.55,48.2-3.49,67.95-4.19c1.71-0.06,3.4,0.14,4.26,0.28" transform="matrix(1,0,0,1,496,-4)" class="stroke_order_diagram--existing_path"></path><path id="pathSk940yk7k5ct" kvg:type="㇑" d="M32.35,38.5c0.39,0.41,0.8,0.76,0.97,1.27C34.68,43.86,35,46.75,36.25,54" transform="matrix(1,0,0,1,496,-4)" class="stroke_order_diagram--existing_path"></path><path id="pathSk940yk7k5cu" kvg:type="㇕b" d="M33.73,39.84c9.1-1.1,33.97-2.5,39.05-3.09c1.86-0.22,3.24,1.37,2.71,2.56c-0.99,2.2-3.24,8.2-4.03,10.92" transform="matrix(1,0,0,1,496,-4)" class="stroke_order_diagram--existing_path"></path><path id="kvg:097cb-s6" kvg:type="㇐b" d="M37.44,51.91C45.5,51.5,67,50.25,74.5,50" transform="matrix(1,0,0,1,496,-4)" class="stroke_order_diagram--current_path"></path><path id="pathSk940yk7k5cw" kvg:type="㇐b" d="M37.44,51.91C45.5,51.5,67,50.25,74.5,50" transform="matrix(1,0,0,1,496,-4)" class="stroke_order_diagram--current_path"></path><circle cx="37.44" cy="51.91" r="8" class="stroke_order_diagram--path_start" transform="matrix(1,0,0,1,496,-4)"></circle><line x1="650" x2="650" y1="1" y2="99" class="stroke_order_diagram--guide_line"></line><line x1="699" x2="699" y1="1" y2="99" class="stroke_order_diagram--bounding_box"></line><path id="pathSk940yk7k5cz" kvg:type="㇑" d="M49.08,9.5c0.33,0.23,0.86,1.02,0.74,1.53c-1.18,4.9-4.34,16.04-5.57,19.11" transform="matrix(1,0,0,1,596,-4)" class="stroke_order_diagram--existing_path"></path><path id="pathSk940yk7k5d0" kvg:type="㇕" d="M30.76,18.58c1,0.65,2.39,0.93,3.22,0.87c13.28-0.95,35.68-2.56,36.89-2.56c2.01,0,3.08,1.47,2.82,2.54c-1.01,4.12-2.09,6.24-2.89,8.85" transform="matrix(1,0,0,1,596,-4)" class="stroke_order_diagram--existing_path"></path><path id="pathSk940yk7k5d1" kvg:type="㇐" d="M16.47,32.01c1.03,0.28,3.59,0.42,4.6,0.28c4.15-0.55,48.2-3.49,67.95-4.19c1.71-0.06,3.4,0.14,4.26,0.28" transform="matrix(1,0,0,1,596,-4)" class="stroke_order_diagram--existing_path"></path><path id="pathSk940yk7k5d2" kvg:type="㇑" d="M32.35,38.5c0.39,0.41,0.8,0.76,0.97,1.27C34.68,43.86,35,46.75,36.25,54" transform="matrix(1,0,0,1,596,-4)" class="stroke_order_diagram--existing_path"></path><path id="pathSk940yk7k5d3" kvg:type="㇕b" d="M33.73,39.84c9.1-1.1,33.97-2.5,39.05-3.09c1.86-0.22,3.24,1.37,2.71,2.56c-0.99,2.2-3.24,8.2-4.03,10.92" transform="matrix(1,0,0,1,596,-4)" class="stroke_order_diagram--existing_path"></path><path id="pathSk940yk7k5d4" kvg:type="㇐b" d="M37.44,51.91C45.5,51.5,67,50.25,74.5,50" transform="matrix(1,0,0,1,596,-4)" class="stroke_order_diagram--existing_path"></path><path id="kvg:097cb-s7" kvg:type="㇐" d="M31.23,62.69c0.92,0.26,3.6,1.28,4.51,1.26c9.01-0.2,27.76-1.45,43.8-2.29c1.52-0.08,2.44,0.12,3.21,0.26" transform="matrix(1,0,0,1,596,-4)" class="stroke_order_diagram--current_path"></path><path id="pathSk940yk7k5d6" kvg:type="㇐" d="M31.23,62.69c0.92,0.26,3.6,1.28,4.51,1.26c9.01-0.2,27.76-1.45,43.8-2.29c1.52-0.08,2.44,0.12,3.21,0.26" transform="matrix(1,0,0,1,596,-4)" class="stroke_order_diagram--current_path"></path><circle cx="31.23" cy="62.69" r="8" class="stroke_order_diagram--path_start" transform="matrix(1,0,0,1,596,-4)"></circle><line x1="750" x2="750" y1="1" y2="99" class="stroke_order_diagram--guide_line"></line><line x1="799" x2="799" y1="1" y2="99" class="stroke_order_diagram--bounding_box"></line><path id="pathSk940yk7k5d9" kvg:type="㇑" d="M49.08,9.5c0.33,0.23,0.86,1.02,0.74,1.53c-1.18,4.9-4.34,16.04-5.57,19.11" transform="matrix(1,0,0,1,696,-4)" class="stroke_order_diagram--existing_path"></path><path id="pathSk940yk7k5da" kvg:type="㇕" d="M30.76,18.58c1,0.65,2.39,0.93,3.22,0.87c13.28-0.95,35.68-2.56,36.89-2.56c2.01,0,3.08,1.47,2.82,2.54c-1.01,4.12-2.09,6.24-2.89,8.85" transform="matrix(1,0,0,1,696,-4)" class="stroke_order_diagram--existing_path"></path><path id="pathSk940yk7k5db" kvg:type="㇐" d="M16.47,32.01c1.03,0.28,3.59,0.42,4.6,0.28c4.15-0.55,48.2-3.49,67.95-4.19c1.71-0.06,3.4,0.14,4.26,0.28" transform="matrix(1,0,0,1,696,-4)" class="stroke_order_diagram--existing_path"></path><path id="pathSk940yk7k5dc" kvg:type="㇑" d="M32.35,38.5c0.39,0.41,0.8,0.76,0.97,1.27C34.68,43.86,35,46.75,36.25,54" transform="matrix(1,0,0,1,696,-4)" class="stroke_order_diagram--existing_path"></path><path id="pathSk940yk7k5dd" kvg:type="㇕b" d="M33.73,39.84c9.1-1.1,33.97-2.5,39.05-3.09c1.86-0.22,3.24,1.37,2.71,2.56c-0.99,2.2-3.24,8.2-4.03,10.92" transform="matrix(1,0,0,1,696,-4)" class="stroke_order_diagram--existing_path"></path><path id="pathSk940yk7k5de" kvg:type="㇐b" d="M37.44,51.91C45.5,51.5,67,50.25,74.5,50" transform="matrix(1,0,0,1,696,-4)" class="stroke_order_diagram--existing_path"></path><path id="pathSk940yk7k5df" kvg:type="㇐" d="M31.23,62.69c0.92,0.26,3.6,1.28,4.51,1.26c9.01-0.2,27.76-1.45,43.8-2.29c1.52-0.08,2.44,0.12,3.21,0.26" transform="matrix(1,0,0,1,696,-4)" class="stroke_order_diagram--existing_path"></path><path id="kvg:097cb-s8" kvg:type="㇑" d="M35.24,64.8c0,4.18-0.26,11.44-0.26,15.21" transform="matrix(1,0,0,1,696,-4)" class="stroke_order_diagram--current_path"></path><path id="pathSk940yk7k5dh" kvg:type="㇑" d="M35.24,64.8c0,4.18-0.26,11.44-0.26,15.21" transform="matrix(1,0,0,1,696,-4)" class="stroke_order_diagram--current_path"></path><circle cx="35.24" cy="64.8" r="8" class="stroke_order_diagram--path_start" transform="matrix(1,0,0,1,696,-4)"></circle><line x1="850" x2="850" y1="1" y2="99" class="stroke_order_diagram--guide_line"></line><line x1="899" x2="899" y1="1" y2="99" class="stroke_order_diagram--bounding_box"></line><path id="pathSk940yk7k5dk" kvg:type="㇑" d="M49.08,9.5c0.33,0.23,0.86,1.02,0.74,1.53c-1.18,4.9-4.34,16.04-5.57,19.11" transform="matrix(1,0,0,1,796,-4)" class="stroke_order_diagram--existing_path"></path><path id="pathSk940yk7k5dl" kvg:type="㇕" d="M30.76,18.58c1,0.65,2.39,0.93,3.22,0.87c13.28-0.95,35.68-2.56,36.89-2.56c2.01,0,3.08,1.47,2.82,2.54c-1.01,4.12-2.09,6.24-2.89,8.85" transform="matrix(1,0,0,1,796,-4)" class="stroke_order_diagram--existing_path"></path><path id="pathSk940yk7k5dm" kvg:type="㇐" d="M16.47,32.01c1.03,0.28,3.59,0.42,4.6,0.28c4.15-0.55,48.2-3.49,67.95-4.19c1.71-0.06,3.4,0.14,4.26,0.28" transform="matrix(1,0,0,1,796,-4)" class="stroke_order_diagram--existing_path"></path><path id="pathSk940yk7k5dn" kvg:type="㇑" d="M32.35,38.5c0.39,0.41,0.8,0.76,0.97,1.27C34.68,43.86,35,46.75,36.25,54" transform="matrix(1,0,0,1,796,-4)" class="stroke_order_diagram--existing_path"></path><path id="pathSk940yk7k5do" kvg:type="㇕b" d="M33.73,39.84c9.1-1.1,33.97-2.5,39.05-3.09c1.86-0.22,3.24,1.37,2.71,2.56c-0.99,2.2-3.24,8.2-4.03,10.92" transform="matrix(1,0,0,1,796,-4)" class="stroke_order_diagram--existing_path"></path><path id="pathSk940yk7k5dp" kvg:type="㇐b" d="M37.44,51.91C45.5,51.5,67,50.25,74.5,50" transform="matrix(1,0,0,1,796,-4)" class="stroke_order_diagram--existing_path"></path><path id="pathSk940yk7k5dq" kvg:type="㇐" d="M31.23,62.69c0.92,0.26,3.6,1.28,4.51,1.26c9.01-0.2,27.76-1.45,43.8-2.29c1.52-0.08,2.44,0.12,3.21,0.26" transform="matrix(1,0,0,1,796,-4)" class="stroke_order_diagram--existing_path"></path><path id="pathSk940yk7k5dr" kvg:type="㇑" d="M35.24,64.8c0,4.18-0.26,11.44-0.26,15.21" transform="matrix(1,0,0,1,796,-4)" class="stroke_order_diagram--existing_path"></path><path id="kvg:097cb-s9" kvg:type="㇐" d="M16.37,81.9c1.48,0.37,4.21,0.53,5.68,0.37c15.16-1.62,42.68-3.37,65.41-3.92c2.47-0.06,3.95,0.18,5.18,0.36" transform="matrix(1,0,0,1,796,-4)" class="stroke_order_diagram--current_path"></path><path id="pathSk940yk7k5dt" kvg:type="㇐" d="M16.37,81.9c1.48,0.37,4.21,0.53,5.68,0.37c15.16-1.62,42.68-3.37,65.41-3.92c2.47-0.06,3.95,0.18,5.18,0.36" transform="matrix(1,0,0,1,796,-4)" class="stroke_order_diagram--current_path"></path><circle cx="16.37" cy="81.9" r="8" class="stroke_order_diagram--path_start" transform="matrix(1,0,0,1,796,-4)"></circle><line x1="950" x2="950" y1="1" y2="99" class="stroke_order_diagram--guide_line"></line><line x1="999" x2="999" y1="1" y2="99" class="stroke_order_diagram--bounding_box"></line><path id="pathSk940yk7k5dw" kvg:type="㇑" d="M49.08,9.5c0.33,0.23,0.86,1.02,0.74,1.53c-1.18,4.9-4.34,16.04-5.57,19.11" transform="matrix(1,0,0,1,896,-4)" class="stroke_order_diagram--existing_path"></path><path id="pathSk940yk7k5dx" kvg:type="㇕" d="M30.76,18.58c1,0.65,2.39,0.93,3.22,0.87c13.28-0.95,35.68-2.56,36.89-2.56c2.01,0,3.08,1.47,2.82,2.54c-1.01,4.12-2.09,6.24-2.89,8.85" transform="matrix(1,0,0,1,896,-4)" class="stroke_order_diagram--existing_path"></path><path id="pathSk940yk7k5dy" kvg:type="㇐" d="M16.47,32.01c1.03,0.28,3.59,0.42,4.6,0.28c4.15-0.55,48.2-3.49,67.95-4.19c1.71-0.06,3.4,0.14,4.26,0.28" transform="matrix(1,0,0,1,896,-4)" class="stroke_order_diagram--existing_path"></path><path id="pathSk940yk7k5dz" kvg:type="㇑" d="M32.35,38.5c0.39,0.41,0.8,0.76,0.97,1.27C34.68,43.86,35,46.75,36.25,54" transform="matrix(1,0,0,1,896,-4)" class="stroke_order_diagram--existing_path"></path><path id="pathSk940yk7k5e0" kvg:type="㇕b" d="M33.73,39.84c9.1-1.1,33.97-2.5,39.05-3.09c1.86-0.22,3.24,1.37,2.71,2.56c-0.99,2.2-3.24,8.2-4.03,10.92" transform="matrix(1,0,0,1,896,-4)" class="stroke_order_diagram--existing_path"></path><path id="pathSk940yk7k5e1" kvg:type="㇐b" d="M37.44,51.91C45.5,51.5,67,50.25,74.5,50" transform="matrix(1,0,0,1,896,-4)" class="stroke_order_diagram--existing_path"></path><path id="pathSk940yk7k5e2" kvg:type="㇐" d="M31.23,62.69c0.92,0.26,3.6,1.28,4.51,1.26c9.01-0.2,27.76-1.45,43.8-2.29c1.52-0.08,2.44,0.12,3.21,0.26" transform="matrix(1,0,0,1,896,-4)" class="stroke_order_diagram--existing_path"></path><path id="pathSk940yk7k5e3" kvg:type="㇑" d="M35.24,64.8c0,4.18-0.26,11.44-0.26,15.21" transform="matrix(1,0,0,1,896,-4)" class="stroke_order_diagram--existing_path"></path><path id="pathSk940yk7k5e4" kvg:type="㇐" d="M16.37,81.9c1.48,0.37,4.21,0.53,5.68,0.37c15.16-1.62,42.68-3.37,65.41-3.92c2.47-0.06,3.95,0.18,5.18,0.36" transform="matrix(1,0,0,1,896,-4)" class="stroke_order_diagram--existing_path"></path><path id="kvg:097cb-s10" kvg:type="㇑" d="M59.75,53.46c0.53,0.41,1.64,3.1,1.74,3.93c0.11,0.83-0.07,36.81-0.17,41.99" transform="matrix(1,0,0,1,896,-4)" class="stroke_order_diagram--current_path"></path><path id="pathSk940yk7k5e6" kvg:type="㇑" d="M59.75,53.46c0.53,0.41,1.64,3.1,1.74,3.93c0.11,0.83-0.07,36.81-0.17,41.99" transform="matrix(1,0,0,1,896,-4)" class="stroke_order_diagram--current_path"></path><circle cx="59.75" cy="53.46" r="8" class="stroke_order_diagram--path_start" transform="matrix(1,0,0,1,896,-4)"></circle></svg>