<?xml version="1.0" encoding="UTF-8"?>
<!DOCTYPE svg PUBLIC "-//W3C//DTD SVG 1.0//EN" "http://www.w3.org/TR/2001/REC-SVG-20010904/DTD/svg10.dtd" [
<!ATTLIST g
xmlns:kvg CDATA #FIXED "http://kanjivg.tagaini.net"
kvg:element CDATA #IMPLIED
kvg:variant CDATA #IMPLIED
kvg:partial CDATA #IMPLIED
kvg:original CDATA #IMPLIED
kvg:part CDATA #IMPLIED
kvg:number CDATA #IMPLIED
kvg:tradForm CDATA #IMPLIED
kvg:radicalForm CDATA #IMPLIED
kvg:position CDATA #IMPLIED
kvg:radical CDATA #IMPLIED
kvg:phon CDATA #IMPLIED >
<!ATTLIST path
xmlns:kvg CDATA #FIXED "http://kanjivg.tagaini.net"
kvg:type CDATA #IMPLIED >
]><svg style="width: 900px; height: 100px;" xmlns="http://www.w3.org/2000/svg" xmlns:xlink="http://www.w3.org/1999/xlink"><style>
.stroke_order_diagram--outer_container {
  width: 100%;
  overflow-x: auto;
  overflow-y: hidden;
}

.stroke_order_diagram--guide_line {
  fill: none;
  stroke: #ddd;
  stroke-width: 3;
  stroke-linecap: square;
  stroke-linejoin: square;
  stroke-dasharray:8, 8;
}

.stroke_order_diagram--bounding_box {
  fill: none;
  stroke: #ddd;
  stroke-width: 4;
  stroke-linecap: square;
  stroke-linejoin: square;
}

.stroke_order_diagram--current_path {
  fill: none;
  stroke: #000;
  stroke-width: 6;
  stroke-linecap: round;
  stroke-linejoin: round;
}

.stroke_order_diagram--existing_path {
  fill: none;
  stroke: #aaa;
  stroke-width: 6;
  stroke-linecap: round;
  stroke-linejoin:round;
}

.stroke_order_diagram--path_start {
  fill: rgba(255, 0, 0, 0.7);
  stroke:none
}</style><desc>Created with Snap</desc><defs></defs><line x1="1" x2="899" y1="1" y2="1" class="stroke_order_diagram--bounding_box"></line><line x1="1" x2="1" y1="1" y2="99" class="stroke_order_diagram--bounding_box"></line><line x1="1" x2="899" y1="99" y2="99" class="stroke_order_diagram--bounding_box"></line><line x1="0" x2="900" y1="50" y2="50" class="stroke_order_diagram--guide_line"></line><line x1="50" x2="50" y1="1" y2="99" class="stroke_order_diagram--guide_line"></line><line x1="99" x2="99" y1="1" y2="99" class="stroke_order_diagram--bounding_box"></line><path id="kvg:097ed-s1" kvg:type="㇒" d="M43.37,13.75c1.09,0.5,1.74,2.25,1.96,3.25c0.22,1,0,69.75-0.22,76" transform="matrix(1,0,0,1,-4,-4)" class="stroke_order_diagram--current_path"></path><path id="pathSk93xdzq05ep" kvg:type="㇒" d="M43.37,13.75c1.09,0.5,1.74,2.25,1.96,3.25c0.22,1,0,69.75-0.22,76" transform="matrix(1,0,0,1,-4,-4)" class="stroke_order_diagram--current_path"></path><circle cx="43.37" cy="13.75" r="8" class="stroke_order_diagram--path_start" transform="matrix(1,0,0,1,-4,-4)"></circle><line x1="150" x2="150" y1="1" y2="99" class="stroke_order_diagram--guide_line"></line><line x1="199" x2="199" y1="1" y2="99" class="stroke_order_diagram--bounding_box"></line><path id="pathSk93xdzq05es" kvg:type="㇒" d="M43.37,13.75c1.09,0.5,1.74,2.25,1.96,3.25c0.22,1,0,69.75-0.22,76" transform="matrix(1,0,0,1,96,-4)" class="stroke_order_diagram--existing_path"></path><path id="kvg:097ed-s2" kvg:type="㇐c" d="M61.12,11.75c1.09,0.5,1.74,2.25,1.96,3.25c0.22,1,0,70.75-0.22,77" transform="matrix(1,0,0,1,96,-4)" class="stroke_order_diagram--current_path"></path><path id="pathSk93xdzq05eu" kvg:type="㇐c" d="M61.12,11.75c1.09,0.5,1.74,2.25,1.96,3.25c0.22,1,0,70.75-0.22,77" transform="matrix(1,0,0,1,96,-4)" class="stroke_order_diagram--current_path"></path><circle cx="61.12" cy="11.75" r="8" class="stroke_order_diagram--path_start" transform="matrix(1,0,0,1,96,-4)"></circle><line x1="250" x2="250" y1="1" y2="99" class="stroke_order_diagram--guide_line"></line><line x1="299" x2="299" y1="1" y2="99" class="stroke_order_diagram--bounding_box"></line><path id="pathSk93xdzq05ex" kvg:type="㇒" d="M43.37,13.75c1.09,0.5,1.74,2.25,1.96,3.25c0.22,1,0,69.75-0.22,76" transform="matrix(1,0,0,1,196,-4)" class="stroke_order_diagram--existing_path"></path><path id="pathSk93xdzq05ey" kvg:type="㇐c" d="M61.12,11.75c1.09,0.5,1.74,2.25,1.96,3.25c0.22,1,0,70.75-0.22,77" transform="matrix(1,0,0,1,196,-4)" class="stroke_order_diagram--existing_path"></path><path id="kvg:097ed-s3" kvg:type="㇐c" d="M14.75,36.39c0.94,0.38,2.66,0.38,3.6,0.38C26,36.75,35,35.25,41.96,34.89c1.56-0.08,2.29-0.14,3.29-0.14" transform="matrix(1,0,0,1,196,-4)" class="stroke_order_diagram--current_path"></path><path id="pathSk93xdzq05f0" kvg:type="㇐c" d="M14.75,36.39c0.94,0.38,2.66,0.38,3.6,0.38C26,36.75,35,35.25,41.96,34.89c1.56-0.08,2.29-0.14,3.29-0.14" transform="matrix(1,0,0,1,196,-4)" class="stroke_order_diagram--current_path"></path><circle cx="14.75" cy="36.39" r="8" class="stroke_order_diagram--path_start" transform="matrix(1,0,0,1,196,-4)"></circle><line x1="350" x2="350" y1="1" y2="99" class="stroke_order_diagram--guide_line"></line><line x1="399" x2="399" y1="1" y2="99" class="stroke_order_diagram--bounding_box"></line><path id="pathSk93xdzq05f3" kvg:type="㇒" d="M43.37,13.75c1.09,0.5,1.74,2.25,1.96,3.25c0.22,1,0,69.75-0.22,76" transform="matrix(1,0,0,1,296,-4)" class="stroke_order_diagram--existing_path"></path><path id="pathSk93xdzq05f4" kvg:type="㇐c" d="M61.12,11.75c1.09,0.5,1.74,2.25,1.96,3.25c0.22,1,0,70.75-0.22,77" transform="matrix(1,0,0,1,296,-4)" class="stroke_order_diagram--existing_path"></path><path id="pathSk93xdzq05f5" kvg:type="㇐c" d="M14.75,36.39c0.94,0.38,2.66,0.38,3.6,0.38C26,36.75,35,35.25,41.96,34.89c1.56-0.08,2.29-0.14,3.29-0.14" transform="matrix(1,0,0,1,296,-4)" class="stroke_order_diagram--existing_path"></path><path id="kvg:097ed-s4" kvg:type="㇀" d="M15,55.39c0.94,0.38,2.66,0.38,3.6,0.38c7.65-0.02,16.15-2.02,23.11-2.38c1.56-0.08,2.29-0.14,3.29-0.14" transform="matrix(1,0,0,1,296,-4)" class="stroke_order_diagram--current_path"></path><path id="pathSk93xdzq05f7" kvg:type="㇀" d="M15,55.39c0.94,0.38,2.66,0.38,3.6,0.38c7.65-0.02,16.15-2.02,23.11-2.38c1.56-0.08,2.29-0.14,3.29-0.14" transform="matrix(1,0,0,1,296,-4)" class="stroke_order_diagram--current_path"></path><circle cx="15" cy="55.39" r="8" class="stroke_order_diagram--path_start" transform="matrix(1,0,0,1,296,-4)"></circle><line x1="450" x2="450" y1="1" y2="99" class="stroke_order_diagram--guide_line"></line><line x1="499" x2="499" y1="1" y2="99" class="stroke_order_diagram--bounding_box"></line><path id="pathSk93xdzq05fa" kvg:type="㇒" d="M43.37,13.75c1.09,0.5,1.74,2.25,1.96,3.25c0.22,1,0,69.75-0.22,76" transform="matrix(1,0,0,1,396,-4)" class="stroke_order_diagram--existing_path"></path><path id="pathSk93xdzq05fb" kvg:type="㇐c" d="M61.12,11.75c1.09,0.5,1.74,2.25,1.96,3.25c0.22,1,0,70.75-0.22,77" transform="matrix(1,0,0,1,396,-4)" class="stroke_order_diagram--existing_path"></path><path id="pathSk93xdzq05fc" kvg:type="㇐c" d="M14.75,36.39c0.94,0.38,2.66,0.38,3.6,0.38C26,36.75,35,35.25,41.96,34.89c1.56-0.08,2.29-0.14,3.29-0.14" transform="matrix(1,0,0,1,396,-4)" class="stroke_order_diagram--existing_path"></path><path id="pathSk93xdzq05fd" kvg:type="㇀" d="M15,55.39c0.94,0.38,2.66,0.38,3.6,0.38c7.65-0.02,16.15-2.02,23.11-2.38c1.56-0.08,2.29-0.14,3.29-0.14" transform="matrix(1,0,0,1,396,-4)" class="stroke_order_diagram--existing_path"></path><path id="kvg:097ed-s5" kvg:type="㇑" d="M13.5,74.39c0.94,0.38,2.66,0.38,3.6,0.38c7.65-0.02,17.15-2.02,24.61-3.38c1.54-0.28,2.29-0.14,3.29-0.14" transform="matrix(1,0,0,1,396,-4)" class="stroke_order_diagram--current_path"></path><path id="pathSk93xdzq05ff" kvg:type="㇑" d="M13.5,74.39c0.94,0.38,2.66,0.38,3.6,0.38c7.65-0.02,17.15-2.02,24.61-3.38c1.54-0.28,2.29-0.14,3.29-0.14" transform="matrix(1,0,0,1,396,-4)" class="stroke_order_diagram--current_path"></path><circle cx="13.5" cy="74.39" r="8" class="stroke_order_diagram--path_start" transform="matrix(1,0,0,1,396,-4)"></circle><line x1="550" x2="550" y1="1" y2="99" class="stroke_order_diagram--guide_line"></line><line x1="599" x2="599" y1="1" y2="99" class="stroke_order_diagram--bounding_box"></line><path id="pathSk93xdzq05fi" kvg:type="㇒" d="M43.37,13.75c1.09,0.5,1.74,2.25,1.96,3.25c0.22,1,0,69.75-0.22,76" transform="matrix(1,0,0,1,496,-4)" class="stroke_order_diagram--existing_path"></path><path id="pathSk93xdzq05fj" kvg:type="㇐c" d="M61.12,11.75c1.09,0.5,1.74,2.25,1.96,3.25c0.22,1,0,70.75-0.22,77" transform="matrix(1,0,0,1,496,-4)" class="stroke_order_diagram--existing_path"></path><path id="pathSk93xdzq05fk" kvg:type="㇐c" d="M14.75,36.39c0.94,0.38,2.66,0.38,3.6,0.38C26,36.75,35,35.25,41.96,34.89c1.56-0.08,2.29-0.14,3.29-0.14" transform="matrix(1,0,0,1,496,-4)" class="stroke_order_diagram--existing_path"></path><path id="pathSk93xdzq05fl" kvg:type="㇀" d="M15,55.39c0.94,0.38,2.66,0.38,3.6,0.38c7.65-0.02,16.15-2.02,23.11-2.38c1.56-0.08,2.29-0.14,3.29-0.14" transform="matrix(1,0,0,1,496,-4)" class="stroke_order_diagram--existing_path"></path><path id="pathSk93xdzq05fm" kvg:type="㇑" d="M13.5,74.39c0.94,0.38,2.66,0.38,3.6,0.38c7.65-0.02,17.15-2.02,24.61-3.38c1.54-0.28,2.29-0.14,3.29-0.14" transform="matrix(1,0,0,1,496,-4)" class="stroke_order_diagram--existing_path"></path><path id="kvg:097ed-s6" kvg:type="㇐b" d="M63.5,33.64c1.25,0,1.16-0.01,2.1-0.12c5.98-0.66,19.4-1.77,25.11-2.38c1.56-0.17,2.5,0.18,3.29,0.37" transform="matrix(1,0,0,1,496,-4)" class="stroke_order_diagram--current_path"></path><path id="pathSk93xdzq05fo" kvg:type="㇐b" d="M63.5,33.64c1.25,0,1.16-0.01,2.1-0.12c5.98-0.66,19.4-1.77,25.11-2.38c1.56-0.17,2.5,0.18,3.29,0.37" transform="matrix(1,0,0,1,496,-4)" class="stroke_order_diagram--current_path"></path><circle cx="63.5" cy="33.64" r="8" class="stroke_order_diagram--path_start" transform="matrix(1,0,0,1,496,-4)"></circle><line x1="650" x2="650" y1="1" y2="99" class="stroke_order_diagram--guide_line"></line><line x1="699" x2="699" y1="1" y2="99" class="stroke_order_diagram--bounding_box"></line><path id="pathSk93xdzq05fr" kvg:type="㇒" d="M43.37,13.75c1.09,0.5,1.74,2.25,1.96,3.25c0.22,1,0,69.75-0.22,76" transform="matrix(1,0,0,1,596,-4)" class="stroke_order_diagram--existing_path"></path><path id="pathSk93xdzq05fs" kvg:type="㇐c" d="M61.12,11.75c1.09,0.5,1.74,2.25,1.96,3.25c0.22,1,0,70.75-0.22,77" transform="matrix(1,0,0,1,596,-4)" class="stroke_order_diagram--existing_path"></path><path id="pathSk93xdzq05ft" kvg:type="㇐c" d="M14.75,36.39c0.94,0.38,2.66,0.38,3.6,0.38C26,36.75,35,35.25,41.96,34.89c1.56-0.08,2.29-0.14,3.29-0.14" transform="matrix(1,0,0,1,596,-4)" class="stroke_order_diagram--existing_path"></path><path id="pathSk93xdzq05fu" kvg:type="㇀" d="M15,55.39c0.94,0.38,2.66,0.38,3.6,0.38c7.65-0.02,16.15-2.02,23.11-2.38c1.56-0.08,2.29-0.14,3.29-0.14" transform="matrix(1,0,0,1,596,-4)" class="stroke_order_diagram--existing_path"></path><path id="pathSk93xdzq05fv" kvg:type="㇑" d="M13.5,74.39c0.94,0.38,2.66,0.38,3.6,0.38c7.65-0.02,17.15-2.02,24.61-3.38c1.54-0.28,2.29-0.14,3.29-0.14" transform="matrix(1,0,0,1,596,-4)" class="stroke_order_diagram--existing_path"></path><path id="pathSk93xdzq05fw" kvg:type="㇐b" d="M63.5,33.64c1.25,0,1.16-0.01,2.1-0.12c5.98-0.66,19.4-1.77,25.11-2.38c1.56-0.17,2.5,0.18,3.29,0.37" transform="matrix(1,0,0,1,596,-4)" class="stroke_order_diagram--existing_path"></path><path id="kvg:097ed-s7" kvg:type="㇐b" d="M63.25,51.14c1.25,0,1.16-0.01,2.1-0.12c5.98-0.66,19.9-1.77,25.61-2.38c1.56-0.17,2.5,0.18,3.29,0.37" transform="matrix(1,0,0,1,596,-4)" class="stroke_order_diagram--current_path"></path><path id="pathSk93xdzq05fy" kvg:type="㇐b" d="M63.25,51.14c1.25,0,1.16-0.01,2.1-0.12c5.98-0.66,19.9-1.77,25.61-2.38c1.56-0.17,2.5,0.18,3.29,0.37" transform="matrix(1,0,0,1,596,-4)" class="stroke_order_diagram--current_path"></path><circle cx="63.25" cy="51.14" r="8" class="stroke_order_diagram--path_start" transform="matrix(1,0,0,1,596,-4)"></circle><line x1="750" x2="750" y1="1" y2="99" class="stroke_order_diagram--guide_line"></line><line x1="799" x2="799" y1="1" y2="99" class="stroke_order_diagram--bounding_box"></line><path id="pathSk93xdzq05g1" kvg:type="㇒" d="M43.37,13.75c1.09,0.5,1.74,2.25,1.96,3.25c0.22,1,0,69.75-0.22,76" transform="matrix(1,0,0,1,696,-4)" class="stroke_order_diagram--existing_path"></path><path id="pathSk93xdzq05g2" kvg:type="㇐c" d="M61.12,11.75c1.09,0.5,1.74,2.25,1.96,3.25c0.22,1,0,70.75-0.22,77" transform="matrix(1,0,0,1,696,-4)" class="stroke_order_diagram--existing_path"></path><path id="pathSk93xdzq05g3" kvg:type="㇐c" d="M14.75,36.39c0.94,0.38,2.66,0.38,3.6,0.38C26,36.75,35,35.25,41.96,34.89c1.56-0.08,2.29-0.14,3.29-0.14" transform="matrix(1,0,0,1,696,-4)" class="stroke_order_diagram--existing_path"></path><path id="pathSk93xdzq05g4" kvg:type="㇀" d="M15,55.39c0.94,0.38,2.66,0.38,3.6,0.38c7.65-0.02,16.15-2.02,23.11-2.38c1.56-0.08,2.29-0.14,3.29-0.14" transform="matrix(1,0,0,1,696,-4)" class="stroke_order_diagram--existing_path"></path><path id="pathSk93xdzq05g5" kvg:type="㇑" d="M13.5,74.39c0.94,0.38,2.66,0.38,3.6,0.38c7.65-0.02,17.15-2.02,24.61-3.38c1.54-0.28,2.29-0.14,3.29-0.14" transform="matrix(1,0,0,1,696,-4)" class="stroke_order_diagram--existing_path"></path><path id="pathSk93xdzq05g6" kvg:type="㇐b" d="M63.5,33.64c1.25,0,1.16-0.01,2.1-0.12c5.98-0.66,19.4-1.77,25.11-2.38c1.56-0.17,2.5,0.18,3.29,0.37" transform="matrix(1,0,0,1,696,-4)" class="stroke_order_diagram--existing_path"></path><path id="pathSk93xdzq05g7" kvg:type="㇐b" d="M63.25,51.14c1.25,0,1.16-0.01,2.1-0.12c5.98-0.66,19.9-1.77,25.61-2.38c1.56-0.17,2.5,0.18,3.29,0.37" transform="matrix(1,0,0,1,696,-4)" class="stroke_order_diagram--existing_path"></path><path id="kvg:097ed-s8" kvg:type="㇐b" d="M63.5,70.14c1.25,0,1.16-0.01,2.1-0.12c5.98-0.66,20.9-1.77,26.61-2.38c1.56-0.17,2.5,0.18,3.29,0.37" transform="matrix(1,0,0,1,696,-4)" class="stroke_order_diagram--current_path"></path><path id="pathSk93xdzq05g9" kvg:type="㇐b" d="M63.5,70.14c1.25,0,1.16-0.01,2.1-0.12c5.98-0.66,20.9-1.77,26.61-2.38c1.56-0.17,2.5,0.18,3.29,0.37" transform="matrix(1,0,0,1,696,-4)" class="stroke_order_diagram--current_path"></path><circle cx="63.5" cy="70.14" r="8" class="stroke_order_diagram--path_start" transform="matrix(1,0,0,1,696,-4)"></circle><line x1="850" x2="850" y1="1" y2="99" class="stroke_order_diagram--guide_line"></line><line x1="899" x2="899" y1="1" y2="99" class="stroke_order_diagram--bounding_box"></line><path id="pathSk93xdzq05gc" kvg:type="㇒" d="M43.37,13.75c1.09,0.5,1.74,2.25,1.96,3.25c0.22,1,0,69.75-0.22,76" transform="matrix(1,0,0,1,796,-4)" class="stroke_order_diagram--existing_path"></path><path id="pathSk93xdzq05gd" kvg:type="㇐c" d="M61.12,11.75c1.09,0.5,1.74,2.25,1.96,3.25c0.22,1,0,70.75-0.22,77" transform="matrix(1,0,0,1,796,-4)" class="stroke_order_diagram--existing_path"></path><path id="pathSk93xdzq05ge" kvg:type="㇐c" d="M14.75,36.39c0.94,0.38,2.66,0.38,3.6,0.38C26,36.75,35,35.25,41.96,34.89c1.56-0.08,2.29-0.14,3.29-0.14" transform="matrix(1,0,0,1,796,-4)" class="stroke_order_diagram--existing_path"></path><path id="pathSk93xdzq05gf" kvg:type="㇀" d="M15,55.39c0.94,0.38,2.66,0.38,3.6,0.38c7.65-0.02,16.15-2.02,23.11-2.38c1.56-0.08,2.29-0.14,3.29-0.14" transform="matrix(1,0,0,1,796,-4)" class="stroke_order_diagram--existing_path"></path><path id="pathSk93xdzq05gg" kvg:type="㇑" d="M13.5,74.39c0.94,0.38,2.66,0.38,3.6,0.38c7.65-0.02,17.15-2.02,24.61-3.38c1.54-0.28,2.29-0.14,3.29-0.14" transform="matrix(1,0,0,1,796,-4)" class="stroke_order_diagram--existing_path"></path><path id="pathSk93xdzq05gh" kvg:type="㇐b" d="M63.5,33.64c1.25,0,1.16-0.01,2.1-0.12c5.98-0.66,19.4-1.77,25.11-2.38c1.56-0.17,2.5,0.18,3.29,0.37" transform="matrix(1,0,0,1,796,-4)" class="stroke_order_diagram--existing_path"></path><path id="pathSk93xdzq05gi" kvg:type="㇐b" d="M63.25,51.14c1.25,0,1.16-0.01,2.1-0.12c5.98-0.66,19.9-1.77,25.61-2.38c1.56-0.17,2.5,0.18,3.29,0.37" transform="matrix(1,0,0,1,796,-4)" class="stroke_order_diagram--existing_path"></path><path id="pathSk93xdzq05gj" kvg:type="㇐b" d="M63.5,70.14c1.25,0,1.16-0.01,2.1-0.12c5.98-0.66,20.9-1.77,26.61-2.38c1.56-0.17,2.5,0.18,3.29,0.37" transform="matrix(1,0,0,1,796,-4)" class="stroke_order_diagram--existing_path"></path><path id="kvg:097ed-s9" kvg:type="㇐" d="M12.5,94.7c1.55,0.54,4.4,0.68,5.95,0.54c20.05-1.74,56.85-4.49,73.12-3.73c2.58,0.12,4.14,0.26,5.43,0.53" transform="matrix(1,0,0,1,796,-4)" class="stroke_order_diagram--current_path"></path><path id="pathSk93xdzq05gl" kvg:type="㇐" d="M12.5,94.7c1.55,0.54,4.4,0.68,5.95,0.54c20.05-1.74,56.85-4.49,73.12-3.73c2.58,0.12,4.14,0.26,5.43,0.53" transform="matrix(1,0,0,1,796,-4)" class="stroke_order_diagram--current_path"></path><circle cx="12.5" cy="94.7" r="8" class="stroke_order_diagram--path_start" transform="matrix(1,0,0,1,796,-4)"></circle></svg>