<?xml version="1.0" encoding="UTF-8"?>
<!DOCTYPE svg PUBLIC "-//W3C//DTD SVG 1.0//EN" "http://www.w3.org/TR/2001/REC-SVG-20010904/DTD/svg10.dtd" [
<!ATTLIST g
xmlns:kvg CDATA #FIXED "http://kanjivg.tagaini.net"
kvg:element CDATA #IMPLIED
kvg:variant CDATA #IMPLIED
kvg:partial CDATA #IMPLIED
kvg:original CDATA #IMPLIED
kvg:part CDATA #IMPLIED
kvg:number CDATA #IMPLIED
kvg:tradForm CDATA #IMPLIED
kvg:radicalForm CDATA #IMPLIED
kvg:position CDATA #IMPLIED
kvg:radical CDATA #IMPLIED
kvg:phon CDATA #IMPLIED >
<!ATTLIST path
xmlns:kvg CDATA #FIXED "http://kanjivg.tagaini.net"
kvg:type CDATA #IMPLIED >
]><svg style="width: 900px; height: 100px;" xmlns="http://www.w3.org/2000/svg" xmlns:xlink="http://www.w3.org/1999/xlink" width="900px" height="100px"><style>
.stroke_order_diagram--outer_container {
  width: 100%;
  overflow-x: auto;
  overflow-y: hidden;
}

.stroke_order_diagram--guide_line {
  fill: none;
  stroke: #ddd;
  stroke-width: 3;
  stroke-linecap: square;
  stroke-linejoin: square;
  stroke-dasharray:8, 8;
}

.stroke_order_diagram--bounding_box {
  fill: none;
  stroke: #ddd;
  stroke-width: 4;
  stroke-linecap: square;
  stroke-linejoin: square;
}

.stroke_order_diagram--current_path {
  fill: none;
  stroke: #000;
  stroke-width: 6;
  stroke-linecap: round;
  stroke-linejoin: round;
}

.stroke_order_diagram--existing_path {
  fill: none;
  stroke: #aaa;
  stroke-width: 6;
  stroke-linecap: round;
  stroke-linejoin:round;
}

.stroke_order_diagram--path_start {
  fill: rgba(255, 0, 0, 0.7);
  stroke:none
}</style><desc>Created with Snap</desc><defs></defs><line x1="1" x2="899" y1="1" y2="1" class="stroke_order_diagram--bounding_box"></line><line x1="1" x2="1" y1="1" y2="99" class="stroke_order_diagram--bounding_box"></line><line x1="1" x2="899" y1="99" y2="99" class="stroke_order_diagram--bounding_box"></line><line x1="0" x2="900" y1="50" y2="50" class="stroke_order_diagram--guide_line"></line><line x1="50" x2="50" y1="1" y2="99" class="stroke_order_diagram--guide_line"></line><line x1="99" x2="99" y1="1" y2="99" class="stroke_order_diagram--bounding_box"></line><path id="kvg:097f3-s1" kvg:type="㇑a" d="M52.97,12.5c0.77,0.77,1.62,2.12,1.62,3.64c0,3.86-0.09,4.61-0.09,9.17" transform="matrix(1,0,0,1,-4,-4)" class="stroke_order_diagram--current_path"></path><path id="pathSk940yk7k5h4" kvg:type="㇑a" d="M52.97,12.5c0.77,0.77,1.62,2.12,1.62,3.64c0,3.86-0.09,4.61-0.09,9.17" transform="matrix(1,0,0,1,-4,-4)" class="stroke_order_diagram--current_path"></path><circle cx="52.97" cy="12.5" r="8" class="stroke_order_diagram--path_start" transform="matrix(1,0,0,1,-4,-4)"></circle><line x1="150" x2="150" y1="1" y2="99" class="stroke_order_diagram--guide_line"></line><line x1="199" x2="199" y1="1" y2="99" class="stroke_order_diagram--bounding_box"></line><path id="pathSk940yk7k5h7" kvg:type="㇑a" d="M52.97,12.5c0.77,0.77,1.62,2.12,1.62,3.64c0,3.86-0.09,4.61-0.09,9.17" transform="matrix(1,0,0,1,96,-4)" class="stroke_order_diagram--existing_path"></path><path id="kvg:097f3-s2" kvg:type="㇐" d="M29.12,28c1.5,0.5,2.75,0.62,4.61,0.42c11.39-1.29,25.05-3.48,38.89-4.79c2.63-0.25,5.63-0.25,7.38,0.12" transform="matrix(1,0,0,1,96,-4)" class="stroke_order_diagram--current_path"></path><path id="pathSk940yk7k5h9" kvg:type="㇐" d="M29.12,28c1.5,0.5,2.75,0.62,4.61,0.42c11.39-1.29,25.05-3.48,38.89-4.79c2.63-0.25,5.63-0.25,7.38,0.12" transform="matrix(1,0,0,1,96,-4)" class="stroke_order_diagram--current_path"></path><circle cx="29.12" cy="28" r="8" class="stroke_order_diagram--path_start" transform="matrix(1,0,0,1,96,-4)"></circle><line x1="250" x2="250" y1="1" y2="99" class="stroke_order_diagram--guide_line"></line><line x1="299" x2="299" y1="1" y2="99" class="stroke_order_diagram--bounding_box"></line><path id="pathSk940yk7k5hc" kvg:type="㇑a" d="M52.97,12.5c0.77,0.77,1.62,2.12,1.62,3.64c0,3.86-0.09,4.61-0.09,9.17" transform="matrix(1,0,0,1,196,-4)" class="stroke_order_diagram--existing_path"></path><path id="pathSk940yk7k5hd" kvg:type="㇐" d="M29.12,28c1.5,0.5,2.75,0.62,4.61,0.42c11.39-1.29,25.05-3.48,38.89-4.79c2.63-0.25,5.63-0.25,7.38,0.12" transform="matrix(1,0,0,1,196,-4)" class="stroke_order_diagram--existing_path"></path><path id="kvg:097f3-s3" kvg:type="㇔" d="M37.12,35.38c4.15,3.73,5.01,7.31,5.6,9.93" transform="matrix(1,0,0,1,196,-4)" class="stroke_order_diagram--current_path"></path><path id="pathSk940yk7k5hf" kvg:type="㇔" d="M37.12,35.38c4.15,3.73,5.01,7.31,5.6,9.93" transform="matrix(1,0,0,1,196,-4)" class="stroke_order_diagram--current_path"></path><circle cx="37.12" cy="35.38" r="8" class="stroke_order_diagram--path_start" transform="matrix(1,0,0,1,196,-4)"></circle><line x1="350" x2="350" y1="1" y2="99" class="stroke_order_diagram--guide_line"></line><line x1="399" x2="399" y1="1" y2="99" class="stroke_order_diagram--bounding_box"></line><path id="pathSk940yk7k5hi" kvg:type="㇑a" d="M52.97,12.5c0.77,0.77,1.62,2.12,1.62,3.64c0,3.86-0.09,4.61-0.09,9.17" transform="matrix(1,0,0,1,296,-4)" class="stroke_order_diagram--existing_path"></path><path id="pathSk940yk7k5hj" kvg:type="㇐" d="M29.12,28c1.5,0.5,2.75,0.62,4.61,0.42c11.39-1.29,25.05-3.48,38.89-4.79c2.63-0.25,5.63-0.25,7.38,0.12" transform="matrix(1,0,0,1,296,-4)" class="stroke_order_diagram--existing_path"></path><path id="pathSk940yk7k5hk" kvg:type="㇔" d="M37.12,35.38c4.15,3.73,5.01,7.31,5.6,9.93" transform="matrix(1,0,0,1,296,-4)" class="stroke_order_diagram--existing_path"></path><path id="kvg:097f3-s4" kvg:type="㇒" d="M67.79,27.5c0.46,0.9,0.57,2.02,0.23,3.14c-1.33,4.34-3.46,10.57-4.64,12.99" transform="matrix(1,0,0,1,296,-4)" class="stroke_order_diagram--current_path"></path><path id="pathSk940yk7k5hm" kvg:type="㇒" d="M67.79,27.5c0.46,0.9,0.57,2.02,0.23,3.14c-1.33,4.34-3.46,10.57-4.64,12.99" transform="matrix(1,0,0,1,296,-4)" class="stroke_order_diagram--current_path"></path><circle cx="67.79" cy="27.5" r="8" class="stroke_order_diagram--path_start" transform="matrix(1,0,0,1,296,-4)"></circle><line x1="450" x2="450" y1="1" y2="99" class="stroke_order_diagram--guide_line"></line><line x1="499" x2="499" y1="1" y2="99" class="stroke_order_diagram--bounding_box"></line><path id="pathSk940yk7k5hp" kvg:type="㇑a" d="M52.97,12.5c0.77,0.77,1.62,2.12,1.62,3.64c0,3.86-0.09,4.61-0.09,9.17" transform="matrix(1,0,0,1,396,-4)" class="stroke_order_diagram--existing_path"></path><path id="pathSk940yk7k5hq" kvg:type="㇐" d="M29.12,28c1.5,0.5,2.75,0.62,4.61,0.42c11.39-1.29,25.05-3.48,38.89-4.79c2.63-0.25,5.63-0.25,7.38,0.12" transform="matrix(1,0,0,1,396,-4)" class="stroke_order_diagram--existing_path"></path><path id="pathSk940yk7k5hr" kvg:type="㇔" d="M37.12,35.38c4.15,3.73,5.01,7.31,5.6,9.93" transform="matrix(1,0,0,1,396,-4)" class="stroke_order_diagram--existing_path"></path><path id="pathSk940yk7k5hs" kvg:type="㇒" d="M67.79,27.5c0.46,0.9,0.57,2.02,0.23,3.14c-1.33,4.34-3.46,10.57-4.64,12.99" transform="matrix(1,0,0,1,396,-4)" class="stroke_order_diagram--existing_path"></path><path id="kvg:097f3-s5" kvg:type="㇐" d="M12.75,50.5c3.65,0.66,7.11,0.39,10.76-0.01c20.16-2.21,40.45-4.53,63.37-5.41c3.4-0.13,7.17-0.48,10.5,0.47" transform="matrix(1,0,0,1,396,-4)" class="stroke_order_diagram--current_path"></path><path id="pathSk940yk7k5hu" kvg:type="㇐" d="M12.75,50.5c3.65,0.66,7.11,0.39,10.76-0.01c20.16-2.21,40.45-4.53,63.37-5.41c3.4-0.13,7.17-0.48,10.5,0.47" transform="matrix(1,0,0,1,396,-4)" class="stroke_order_diagram--current_path"></path><circle cx="12.75" cy="50.5" r="8" class="stroke_order_diagram--path_start" transform="matrix(1,0,0,1,396,-4)"></circle><line x1="550" x2="550" y1="1" y2="99" class="stroke_order_diagram--guide_line"></line><line x1="599" x2="599" y1="1" y2="99" class="stroke_order_diagram--bounding_box"></line><path id="pathSk940yk7k5hx" kvg:type="㇑a" d="M52.97,12.5c0.77,0.77,1.62,2.12,1.62,3.64c0,3.86-0.09,4.61-0.09,9.17" transform="matrix(1,0,0,1,496,-4)" class="stroke_order_diagram--existing_path"></path><path id="pathSk940yk7k5hy" kvg:type="㇐" d="M29.12,28c1.5,0.5,2.75,0.62,4.61,0.42c11.39-1.29,25.05-3.48,38.89-4.79c2.63-0.25,5.63-0.25,7.38,0.12" transform="matrix(1,0,0,1,496,-4)" class="stroke_order_diagram--existing_path"></path><path id="pathSk940yk7k5hz" kvg:type="㇔" d="M37.12,35.38c4.15,3.73,5.01,7.31,5.6,9.93" transform="matrix(1,0,0,1,496,-4)" class="stroke_order_diagram--existing_path"></path><path id="pathSk940yk7k5i0" kvg:type="㇒" d="M67.79,27.5c0.46,0.9,0.57,2.02,0.23,3.14c-1.33,4.34-3.46,10.57-4.64,12.99" transform="matrix(1,0,0,1,496,-4)" class="stroke_order_diagram--existing_path"></path><path id="pathSk940yk7k5i1" kvg:type="㇐" d="M12.75,50.5c3.65,0.66,7.11,0.39,10.76-0.01c20.16-2.21,40.45-4.53,63.37-5.41c3.4-0.13,7.17-0.48,10.5,0.47" transform="matrix(1,0,0,1,496,-4)" class="stroke_order_diagram--existing_path"></path><path id="kvg:097f3-s6" kvg:type="㇑" d="M34.55,59.11c0.58,0.74,1.08,2.24,1.08,3.25c0,1.02,0.12,28.46,0.12,28.97c0,0.51,0,2.04,0,3.54" transform="matrix(1,0,0,1,496,-4)" class="stroke_order_diagram--current_path"></path><path id="pathSk940yk7k5i3" kvg:type="㇑" d="M34.55,59.11c0.58,0.74,1.08,2.24,1.08,3.25c0,1.02,0.12,28.46,0.12,28.97c0,0.51,0,2.04,0,3.54" transform="matrix(1,0,0,1,496,-4)" class="stroke_order_diagram--current_path"></path><circle cx="34.55" cy="59.11" r="8" class="stroke_order_diagram--path_start" transform="matrix(1,0,0,1,496,-4)"></circle><line x1="650" x2="650" y1="1" y2="99" class="stroke_order_diagram--guide_line"></line><line x1="699" x2="699" y1="1" y2="99" class="stroke_order_diagram--bounding_box"></line><path id="pathSk940yk7k5i6" kvg:type="㇑a" d="M52.97,12.5c0.77,0.77,1.62,2.12,1.62,3.64c0,3.86-0.09,4.61-0.09,9.17" transform="matrix(1,0,0,1,596,-4)" class="stroke_order_diagram--existing_path"></path><path id="pathSk940yk7k5i7" kvg:type="㇐" d="M29.12,28c1.5,0.5,2.75,0.62,4.61,0.42c11.39-1.29,25.05-3.48,38.89-4.79c2.63-0.25,5.63-0.25,7.38,0.12" transform="matrix(1,0,0,1,596,-4)" class="stroke_order_diagram--existing_path"></path><path id="pathSk940yk7k5i8" kvg:type="㇔" d="M37.12,35.38c4.15,3.73,5.01,7.31,5.6,9.93" transform="matrix(1,0,0,1,596,-4)" class="stroke_order_diagram--existing_path"></path><path id="pathSk940yk7k5i9" kvg:type="㇒" d="M67.79,27.5c0.46,0.9,0.57,2.02,0.23,3.14c-1.33,4.34-3.46,10.57-4.64,12.99" transform="matrix(1,0,0,1,596,-4)" class="stroke_order_diagram--existing_path"></path><path id="pathSk940yk7k5ia" kvg:type="㇐" d="M12.75,50.5c3.65,0.66,7.11,0.39,10.76-0.01c20.16-2.21,40.45-4.53,63.37-5.41c3.4-0.13,7.17-0.48,10.5,0.47" transform="matrix(1,0,0,1,596,-4)" class="stroke_order_diagram--existing_path"></path><path id="pathSk940yk7k5ib" kvg:type="㇑" d="M34.55,59.11c0.58,0.74,1.08,2.24,1.08,3.25c0,1.02,0.12,28.46,0.12,28.97c0,0.51,0,2.04,0,3.54" transform="matrix(1,0,0,1,596,-4)" class="stroke_order_diagram--existing_path"></path><path id="kvg:097f3-s7" kvg:type="㇕a" d="M36.1,60.79c9.52-1.16,26.02-3.04,32.08-3.68c2.95-0.31,4.26,0.27,4.26,3.22c0,0.98-0.11,17.98-0.17,27.68c-0.02,3.04-0.03,5.36-0.03,6.25" transform="matrix(1,0,0,1,596,-4)" class="stroke_order_diagram--current_path"></path><path id="pathSk940yk7k5id" kvg:type="㇕a" d="M36.1,60.79c9.52-1.16,26.02-3.04,32.08-3.68c2.95-0.31,4.26,0.27,4.26,3.22c0,0.98-0.11,17.98-0.17,27.68c-0.02,3.04-0.03,5.36-0.03,6.25" transform="matrix(1,0,0,1,596,-4)" class="stroke_order_diagram--current_path"></path><circle cx="36.1" cy="60.79" r="8" class="stroke_order_diagram--path_start" transform="matrix(1,0,0,1,596,-4)"></circle><line x1="750" x2="750" y1="1" y2="99" class="stroke_order_diagram--guide_line"></line><line x1="799" x2="799" y1="1" y2="99" class="stroke_order_diagram--bounding_box"></line><path id="pathSk940yk7k5ig" kvg:type="㇑a" d="M52.97,12.5c0.77,0.77,1.62,2.12,1.62,3.64c0,3.86-0.09,4.61-0.09,9.17" transform="matrix(1,0,0,1,696,-4)" class="stroke_order_diagram--existing_path"></path><path id="pathSk940yk7k5ih" kvg:type="㇐" d="M29.12,28c1.5,0.5,2.75,0.62,4.61,0.42c11.39-1.29,25.05-3.48,38.89-4.79c2.63-0.25,5.63-0.25,7.38,0.12" transform="matrix(1,0,0,1,696,-4)" class="stroke_order_diagram--existing_path"></path><path id="pathSk940yk7k5ii" kvg:type="㇔" d="M37.12,35.38c4.15,3.73,5.01,7.31,5.6,9.93" transform="matrix(1,0,0,1,696,-4)" class="stroke_order_diagram--existing_path"></path><path id="pathSk940yk7k5ij" kvg:type="㇒" d="M67.79,27.5c0.46,0.9,0.57,2.02,0.23,3.14c-1.33,4.34-3.46,10.57-4.64,12.99" transform="matrix(1,0,0,1,696,-4)" class="stroke_order_diagram--existing_path"></path><path id="pathSk940yk7k5ik" kvg:type="㇐" d="M12.75,50.5c3.65,0.66,7.11,0.39,10.76-0.01c20.16-2.21,40.45-4.53,63.37-5.41c3.4-0.13,7.17-0.48,10.5,0.47" transform="matrix(1,0,0,1,696,-4)" class="stroke_order_diagram--existing_path"></path><path id="pathSk940yk7k5il" kvg:type="㇑" d="M34.55,59.11c0.58,0.74,1.08,2.24,1.08,3.25c0,1.02,0.12,28.46,0.12,28.97c0,0.51,0,2.04,0,3.54" transform="matrix(1,0,0,1,696,-4)" class="stroke_order_diagram--existing_path"></path><path id="pathSk940yk7k5im" kvg:type="㇕a" d="M36.1,60.79c9.52-1.16,26.02-3.04,32.08-3.68c2.95-0.31,4.26,0.27,4.26,3.22c0,0.98-0.11,17.98-0.17,27.68c-0.02,3.04-0.03,5.36-0.03,6.25" transform="matrix(1,0,0,1,696,-4)" class="stroke_order_diagram--existing_path"></path><path id="kvg:097f3-s8" kvg:type="㇐a" d="M36.69,74.75c5.44-0.5,29.72-2.64,34.74-2.85" transform="matrix(1,0,0,1,696,-4)" class="stroke_order_diagram--current_path"></path><path id="pathSk940yk7k5io" kvg:type="㇐a" d="M36.69,74.75c5.44-0.5,29.72-2.64,34.74-2.85" transform="matrix(1,0,0,1,696,-4)" class="stroke_order_diagram--current_path"></path><circle cx="36.69" cy="74.75" r="8" class="stroke_order_diagram--path_start" transform="matrix(1,0,0,1,696,-4)"></circle><line x1="850" x2="850" y1="1" y2="99" class="stroke_order_diagram--guide_line"></line><line x1="899" x2="899" y1="1" y2="99" class="stroke_order_diagram--bounding_box"></line><path id="pathSk940yk7k5ir" kvg:type="㇑a" d="M52.97,12.5c0.77,0.77,1.62,2.12,1.62,3.64c0,3.86-0.09,4.61-0.09,9.17" transform="matrix(1,0,0,1,796,-4)" class="stroke_order_diagram--existing_path"></path><path id="pathSk940yk7k5is" kvg:type="㇐" d="M29.12,28c1.5,0.5,2.75,0.62,4.61,0.42c11.39-1.29,25.05-3.48,38.89-4.79c2.63-0.25,5.63-0.25,7.38,0.12" transform="matrix(1,0,0,1,796,-4)" class="stroke_order_diagram--existing_path"></path><path id="pathSk940yk7k5it" kvg:type="㇔" d="M37.12,35.38c4.15,3.73,5.01,7.31,5.6,9.93" transform="matrix(1,0,0,1,796,-4)" class="stroke_order_diagram--existing_path"></path><path id="pathSk940yk7k5iu" kvg:type="㇒" d="M67.79,27.5c0.46,0.9,0.57,2.02,0.23,3.14c-1.33,4.34-3.46,10.57-4.64,12.99" transform="matrix(1,0,0,1,796,-4)" class="stroke_order_diagram--existing_path"></path><path id="pathSk940yk7k5iv" kvg:type="㇐" d="M12.75,50.5c3.65,0.66,7.11,0.39,10.76-0.01c20.16-2.21,40.45-4.53,63.37-5.41c3.4-0.13,7.17-0.48,10.5,0.47" transform="matrix(1,0,0,1,796,-4)" class="stroke_order_diagram--existing_path"></path><path id="pathSk940yk7k5iw" kvg:type="㇑" d="M34.55,59.11c0.58,0.74,1.08,2.24,1.08,3.25c0,1.02,0.12,28.46,0.12,28.97c0,0.51,0,2.04,0,3.54" transform="matrix(1,0,0,1,796,-4)" class="stroke_order_diagram--existing_path"></path><path id="pathSk940yk7k5ix" kvg:type="㇕a" d="M36.1,60.79c9.52-1.16,26.02-3.04,32.08-3.68c2.95-0.31,4.26,0.27,4.26,3.22c0,0.98-0.11,17.98-0.17,27.68c-0.02,3.04-0.03,5.36-0.03,6.25" transform="matrix(1,0,0,1,796,-4)" class="stroke_order_diagram--existing_path"></path><path id="pathSk940yk7k5iy" kvg:type="㇐a" d="M36.69,74.75c5.44-0.5,29.72-2.64,34.74-2.85" transform="matrix(1,0,0,1,796,-4)" class="stroke_order_diagram--existing_path"></path><path id="kvg:097f3-s9" kvg:type="㇐a" d="M37.11,90.41c6.58-0.27,25.43-2.25,33.94-2.6" transform="matrix(1,0,0,1,796,-4)" class="stroke_order_diagram--current_path"></path><path id="pathSk940yk7k5j0" kvg:type="㇐a" d="M37.11,90.41c6.58-0.27,25.43-2.25,33.94-2.6" transform="matrix(1,0,0,1,796,-4)" class="stroke_order_diagram--current_path"></path><circle cx="37.11" cy="90.41" r="8" class="stroke_order_diagram--path_start" transform="matrix(1,0,0,1,796,-4)"></circle></svg>