<?xml version="1.0" encoding="UTF-8"?>
<!DOCTYPE svg PUBLIC "-//W3C//DTD SVG 1.0//EN" "http://www.w3.org/TR/2001/REC-SVG-20010904/DTD/svg10.dtd" [
<!ATTLIST g
xmlns:kvg CDATA #FIXED "http://kanjivg.tagaini.net"
kvg:element CDATA #IMPLIED
kvg:variant CDATA #IMPLIED
kvg:partial CDATA #IMPLIED
kvg:original CDATA #IMPLIED
kvg:part CDATA #IMPLIED
kvg:number CDATA #IMPLIED
kvg:tradForm CDATA #IMPLIED
kvg:radicalForm CDATA #IMPLIED
kvg:position CDATA #IMPLIED
kvg:radical CDATA #IMPLIED
kvg:phon CDATA #IMPLIED >
<!ATTLIST path
xmlns:kvg CDATA #FIXED "http://kanjivg.tagaini.net"
kvg:type CDATA #IMPLIED >
]><svg style="width: 900px; height: 100px;" xmlns="http://www.w3.org/2000/svg" xmlns:xlink="http://www.w3.org/1999/xlink" width="900px" height="100px"><style>
.stroke_order_diagram--outer_container {
  width: 100%;
  overflow-x: auto;
  overflow-y: hidden;
}

.stroke_order_diagram--guide_line {
  fill: none;
  stroke: #ddd;
  stroke-width: 3;
  stroke-linecap: square;
  stroke-linejoin: square;
  stroke-dasharray:8, 8;
}

.stroke_order_diagram--bounding_box {
  fill: none;
  stroke: #ddd;
  stroke-width: 4;
  stroke-linecap: square;
  stroke-linejoin: square;
}

.stroke_order_diagram--current_path {
  fill: none;
  stroke: #000;
  stroke-width: 6;
  stroke-linecap: round;
  stroke-linejoin: round;
}

.stroke_order_diagram--existing_path {
  fill: none;
  stroke: #aaa;
  stroke-width: 6;
  stroke-linecap: round;
  stroke-linejoin:round;
}

.stroke_order_diagram--path_start {
  fill: rgba(255, 0, 0, 0.7);
  stroke:none
}</style><desc>Created with Snap</desc><defs></defs><line x1="1" x2="899" y1="1" y2="1" class="stroke_order_diagram--bounding_box"></line><line x1="1" x2="1" y1="1" y2="99" class="stroke_order_diagram--bounding_box"></line><line x1="1" x2="899" y1="99" y2="99" class="stroke_order_diagram--bounding_box"></line><line x1="0" x2="900" y1="50" y2="50" class="stroke_order_diagram--guide_line"></line><line x1="50" x2="50" y1="1" y2="99" class="stroke_order_diagram--guide_line"></line><line x1="99" x2="99" y1="1" y2="99" class="stroke_order_diagram--bounding_box"></line><path id="kvg:09801-s1" kvg:type="㇐" d="M18.88,18.48c1.52,0.54,4.31,0.7,5.82,0.54c16.8-1.77,48.55-4.02,63.11-4.73c2.53-0.12,4.05,0.26,5.31,0.53" transform="matrix(1,0,0,1,-4,-4)" class="stroke_order_diagram--current_path"></path><path id="pathSk940yk7k5jj" kvg:type="㇐" d="M18.88,18.48c1.52,0.54,4.31,0.7,5.82,0.54c16.8-1.77,48.55-4.02,63.11-4.73c2.53-0.12,4.05,0.26,5.31,0.53" transform="matrix(1,0,0,1,-4,-4)" class="stroke_order_diagram--current_path"></path><circle cx="18.88" cy="18.48" r="8" class="stroke_order_diagram--path_start" transform="matrix(1,0,0,1,-4,-4)"></circle><line x1="150" x2="150" y1="1" y2="99" class="stroke_order_diagram--guide_line"></line><line x1="199" x2="199" y1="1" y2="99" class="stroke_order_diagram--bounding_box"></line><path id="pathSk940yk7k5jm" kvg:type="㇐" d="M18.88,18.48c1.52,0.54,4.31,0.7,5.82,0.54c16.8-1.77,48.55-4.02,63.11-4.73c2.53-0.12,4.05,0.26,5.31,0.53" transform="matrix(1,0,0,1,96,-4)" class="stroke_order_diagram--existing_path"></path><path id="kvg:09801-s2" kvg:type="㇒" d="M55.02,18.5c0.02,0.29,0.03,0.75-0.03,1.16c-0.39,2.44-3.15,8.31-6.24,11.59" transform="matrix(1,0,0,1,96,-4)" class="stroke_order_diagram--current_path"></path><path id="pathSk940yk7k5jo" kvg:type="㇒" d="M55.02,18.5c0.02,0.29,0.03,0.75-0.03,1.16c-0.39,2.44-3.15,8.31-6.24,11.59" transform="matrix(1,0,0,1,96,-4)" class="stroke_order_diagram--current_path"></path><circle cx="55.02" cy="18.5" r="8" class="stroke_order_diagram--path_start" transform="matrix(1,0,0,1,96,-4)"></circle><line x1="250" x2="250" y1="1" y2="99" class="stroke_order_diagram--guide_line"></line><line x1="299" x2="299" y1="1" y2="99" class="stroke_order_diagram--bounding_box"></line><path id="pathSk940yk7k5jr" kvg:type="㇐" d="M18.88,18.48c1.52,0.54,4.31,0.7,5.82,0.54c16.8-1.77,48.55-4.02,63.11-4.73c2.53-0.12,4.05,0.26,5.31,0.53" transform="matrix(1,0,0,1,196,-4)" class="stroke_order_diagram--existing_path"></path><path id="pathSk940yk7k5js" kvg:type="㇒" d="M55.02,18.5c0.02,0.29,0.03,0.75-0.03,1.16c-0.39,2.44-3.15,8.31-6.24,11.59" transform="matrix(1,0,0,1,196,-4)" class="stroke_order_diagram--existing_path"></path><path id="kvg:09801-s3" kvg:type="㇑" d="M33.75,32.52c0.68,1.09,1.68,1.9,1.68,3.35c0,1.45-0.46,39.94-0.46,40.67c0,0.73,0.23,0.73,0.46,2.18" transform="matrix(1,0,0,1,196,-4)" class="stroke_order_diagram--current_path"></path><path id="pathSk940yk7k5ju" kvg:type="㇑" d="M33.75,32.52c0.68,1.09,1.68,1.9,1.68,3.35c0,1.45-0.46,39.94-0.46,40.67c0,0.73,0.23,0.73,0.46,2.18" transform="matrix(1,0,0,1,196,-4)" class="stroke_order_diagram--current_path"></path><circle cx="33.75" cy="32.52" r="8" class="stroke_order_diagram--path_start" transform="matrix(1,0,0,1,196,-4)"></circle><line x1="350" x2="350" y1="1" y2="99" class="stroke_order_diagram--guide_line"></line><line x1="399" x2="399" y1="1" y2="99" class="stroke_order_diagram--bounding_box"></line><path id="pathSk940yk7k5jx" kvg:type="㇐" d="M18.88,18.48c1.52,0.54,4.31,0.7,5.82,0.54c16.8-1.77,48.55-4.02,63.11-4.73c2.53-0.12,4.05,0.26,5.31,0.53" transform="matrix(1,0,0,1,296,-4)" class="stroke_order_diagram--existing_path"></path><path id="pathSk940yk7k5jy" kvg:type="㇒" d="M55.02,18.5c0.02,0.29,0.03,0.75-0.03,1.16c-0.39,2.44-3.15,8.31-6.24,11.59" transform="matrix(1,0,0,1,296,-4)" class="stroke_order_diagram--existing_path"></path><path id="pathSk940yk7k5jz" kvg:type="㇑" d="M33.75,32.52c0.68,1.09,1.68,1.9,1.68,3.35c0,1.45-0.46,39.94-0.46,40.67c0,0.73,0.23,0.73,0.46,2.18" transform="matrix(1,0,0,1,296,-4)" class="stroke_order_diagram--existing_path"></path><path id="kvg:09801-s4" kvg:type="㇕a" d="M36.57,34.47c3.87-0.18,35.89-4.51,39.42-4.72c2.94-0.18,3.51,1.26,3.51,3.36c0,1.74-0.87,40.79-0.87,41.88" transform="matrix(1,0,0,1,296,-4)" class="stroke_order_diagram--current_path"></path><path id="pathSk940yk7k5k1" kvg:type="㇕a" d="M36.57,34.47c3.87-0.18,35.89-4.51,39.42-4.72c2.94-0.18,3.51,1.26,3.51,3.36c0,1.74-0.87,40.79-0.87,41.88" transform="matrix(1,0,0,1,296,-4)" class="stroke_order_diagram--current_path"></path><circle cx="36.57" cy="34.47" r="8" class="stroke_order_diagram--path_start" transform="matrix(1,0,0,1,296,-4)"></circle><line x1="450" x2="450" y1="1" y2="99" class="stroke_order_diagram--guide_line"></line><line x1="499" x2="499" y1="1" y2="99" class="stroke_order_diagram--bounding_box"></line><path id="pathSk940yk7k5k4" kvg:type="㇐" d="M18.88,18.48c1.52,0.54,4.31,0.7,5.82,0.54c16.8-1.77,48.55-4.02,63.11-4.73c2.53-0.12,4.05,0.26,5.31,0.53" transform="matrix(1,0,0,1,396,-4)" class="stroke_order_diagram--existing_path"></path><path id="pathSk940yk7k5k5" kvg:type="㇒" d="M55.02,18.5c0.02,0.29,0.03,0.75-0.03,1.16c-0.39,2.44-3.15,8.31-6.24,11.59" transform="matrix(1,0,0,1,396,-4)" class="stroke_order_diagram--existing_path"></path><path id="pathSk940yk7k5k6" kvg:type="㇑" d="M33.75,32.52c0.68,1.09,1.68,1.9,1.68,3.35c0,1.45-0.46,39.94-0.46,40.67c0,0.73,0.23,0.73,0.46,2.18" transform="matrix(1,0,0,1,396,-4)" class="stroke_order_diagram--existing_path"></path><path id="pathSk940yk7k5k7" kvg:type="㇕a" d="M36.57,34.47c3.87-0.18,35.89-4.51,39.42-4.72c2.94-0.18,3.51,1.26,3.51,3.36c0,1.74-0.87,40.79-0.87,41.88" transform="matrix(1,0,0,1,396,-4)" class="stroke_order_diagram--existing_path"></path><path id="kvg:09801-s5" kvg:type="㇐a" d="M36.51,48.31c6.74-0.81,33.74-4.06,42.03-4.45" transform="matrix(1,0,0,1,396,-4)" class="stroke_order_diagram--current_path"></path><path id="pathSk940yk7k5k9" kvg:type="㇐a" d="M36.51,48.31c6.74-0.81,33.74-4.06,42.03-4.45" transform="matrix(1,0,0,1,396,-4)" class="stroke_order_diagram--current_path"></path><circle cx="36.51" cy="48.31" r="8" class="stroke_order_diagram--path_start" transform="matrix(1,0,0,1,396,-4)"></circle><line x1="550" x2="550" y1="1" y2="99" class="stroke_order_diagram--guide_line"></line><line x1="599" x2="599" y1="1" y2="99" class="stroke_order_diagram--bounding_box"></line><path id="pathSk940yk7k5kc" kvg:type="㇐" d="M18.88,18.48c1.52,0.54,4.31,0.7,5.82,0.54c16.8-1.77,48.55-4.02,63.11-4.73c2.53-0.12,4.05,0.26,5.31,0.53" transform="matrix(1,0,0,1,496,-4)" class="stroke_order_diagram--existing_path"></path><path id="pathSk940yk7k5kd" kvg:type="㇒" d="M55.02,18.5c0.02,0.29,0.03,0.75-0.03,1.16c-0.39,2.44-3.15,8.31-6.24,11.59" transform="matrix(1,0,0,1,496,-4)" class="stroke_order_diagram--existing_path"></path><path id="pathSk940yk7k5ke" kvg:type="㇑" d="M33.75,32.52c0.68,1.09,1.68,1.9,1.68,3.35c0,1.45-0.46,39.94-0.46,40.67c0,0.73,0.23,0.73,0.46,2.18" transform="matrix(1,0,0,1,496,-4)" class="stroke_order_diagram--existing_path"></path><path id="pathSk940yk7k5kf" kvg:type="㇕a" d="M36.57,34.47c3.87-0.18,35.89-4.51,39.42-4.72c2.94-0.18,3.51,1.26,3.51,3.36c0,1.74-0.87,40.79-0.87,41.88" transform="matrix(1,0,0,1,496,-4)" class="stroke_order_diagram--existing_path"></path><path id="pathSk940yk7k5kg" kvg:type="㇐a" d="M36.51,48.31c6.74-0.81,33.74-4.06,42.03-4.45" transform="matrix(1,0,0,1,496,-4)" class="stroke_order_diagram--existing_path"></path><path id="kvg:09801-s6" kvg:type="㇐a" d="M36.32,62.17c8.93-0.92,31.18-3.67,41.76-4.18" transform="matrix(1,0,0,1,496,-4)" class="stroke_order_diagram--current_path"></path><path id="pathSk940yk7k5ki" kvg:type="㇐a" d="M36.32,62.17c8.93-0.92,31.18-3.67,41.76-4.18" transform="matrix(1,0,0,1,496,-4)" class="stroke_order_diagram--current_path"></path><circle cx="36.32" cy="62.17" r="8" class="stroke_order_diagram--path_start" transform="matrix(1,0,0,1,496,-4)"></circle><line x1="650" x2="650" y1="1" y2="99" class="stroke_order_diagram--guide_line"></line><line x1="699" x2="699" y1="1" y2="99" class="stroke_order_diagram--bounding_box"></line><path id="pathSk940yk7k5kl" kvg:type="㇐" d="M18.88,18.48c1.52,0.54,4.31,0.7,5.82,0.54c16.8-1.77,48.55-4.02,63.11-4.73c2.53-0.12,4.05,0.26,5.31,0.53" transform="matrix(1,0,0,1,596,-4)" class="stroke_order_diagram--existing_path"></path><path id="pathSk940yk7k5km" kvg:type="㇒" d="M55.02,18.5c0.02,0.29,0.03,0.75-0.03,1.16c-0.39,2.44-3.15,8.31-6.24,11.59" transform="matrix(1,0,0,1,596,-4)" class="stroke_order_diagram--existing_path"></path><path id="pathSk940yk7k5kn" kvg:type="㇑" d="M33.75,32.52c0.68,1.09,1.68,1.9,1.68,3.35c0,1.45-0.46,39.94-0.46,40.67c0,0.73,0.23,0.73,0.46,2.18" transform="matrix(1,0,0,1,596,-4)" class="stroke_order_diagram--existing_path"></path><path id="pathSk940yk7k5ko" kvg:type="㇕a" d="M36.57,34.47c3.87-0.18,35.89-4.51,39.42-4.72c2.94-0.18,3.51,1.26,3.51,3.36c0,1.74-0.87,40.79-0.87,41.88" transform="matrix(1,0,0,1,596,-4)" class="stroke_order_diagram--existing_path"></path><path id="pathSk940yk7k5kp" kvg:type="㇐a" d="M36.51,48.31c6.74-0.81,33.74-4.06,42.03-4.45" transform="matrix(1,0,0,1,596,-4)" class="stroke_order_diagram--existing_path"></path><path id="pathSk940yk7k5kq" kvg:type="㇐a" d="M36.32,62.17c8.93-0.92,31.18-3.67,41.76-4.18" transform="matrix(1,0,0,1,596,-4)" class="stroke_order_diagram--existing_path"></path><path id="kvg:09801-s7" kvg:type="㇐a" d="M35.82,76.58c8.93-1.08,30.49-4.13,41.76-4.68" transform="matrix(1,0,0,1,596,-4)" class="stroke_order_diagram--current_path"></path><path id="pathSk940yk7k5ks" kvg:type="㇐a" d="M35.82,76.58c8.93-1.08,30.49-4.13,41.76-4.68" transform="matrix(1,0,0,1,596,-4)" class="stroke_order_diagram--current_path"></path><circle cx="35.82" cy="76.58" r="8" class="stroke_order_diagram--path_start" transform="matrix(1,0,0,1,596,-4)"></circle><line x1="750" x2="750" y1="1" y2="99" class="stroke_order_diagram--guide_line"></line><line x1="799" x2="799" y1="1" y2="99" class="stroke_order_diagram--bounding_box"></line><path id="pathSk940yk7k5kv" kvg:type="㇐" d="M18.88,18.48c1.52,0.54,4.31,0.7,5.82,0.54c16.8-1.77,48.55-4.02,63.11-4.73c2.53-0.12,4.05,0.26,5.31,0.53" transform="matrix(1,0,0,1,696,-4)" class="stroke_order_diagram--existing_path"></path><path id="pathSk940yk7k5kw" kvg:type="㇒" d="M55.02,18.5c0.02,0.29,0.03,0.75-0.03,1.16c-0.39,2.44-3.15,8.31-6.24,11.59" transform="matrix(1,0,0,1,696,-4)" class="stroke_order_diagram--existing_path"></path><path id="pathSk940yk7k5kx" kvg:type="㇑" d="M33.75,32.52c0.68,1.09,1.68,1.9,1.68,3.35c0,1.45-0.46,39.94-0.46,40.67c0,0.73,0.23,0.73,0.46,2.18" transform="matrix(1,0,0,1,696,-4)" class="stroke_order_diagram--existing_path"></path><path id="pathSk940yk7k5ky" kvg:type="㇕a" d="M36.57,34.47c3.87-0.18,35.89-4.51,39.42-4.72c2.94-0.18,3.51,1.26,3.51,3.36c0,1.74-0.87,40.79-0.87,41.88" transform="matrix(1,0,0,1,696,-4)" class="stroke_order_diagram--existing_path"></path><path id="pathSk940yk7k5kz" kvg:type="㇐a" d="M36.51,48.31c6.74-0.81,33.74-4.06,42.03-4.45" transform="matrix(1,0,0,1,696,-4)" class="stroke_order_diagram--existing_path"></path><path id="pathSk940yk7k5l0" kvg:type="㇐a" d="M36.32,62.17c8.93-0.92,31.18-3.67,41.76-4.18" transform="matrix(1,0,0,1,696,-4)" class="stroke_order_diagram--existing_path"></path><path id="pathSk940yk7k5l1" kvg:type="㇐a" d="M35.82,76.58c8.93-1.08,30.49-4.13,41.76-4.68" transform="matrix(1,0,0,1,696,-4)" class="stroke_order_diagram--existing_path"></path><path id="kvg:09801-s8" kvg:type="㇒" d="M43.5,82.25c0.54,1.37,0.42,2.1-0.5,3.25C40,89.25,32,95,23.75,99" transform="matrix(1,0,0,1,696,-4)" class="stroke_order_diagram--current_path"></path><path id="pathSk940yk7k5l3" kvg:type="㇒" d="M43.5,82.25c0.54,1.37,0.42,2.1-0.5,3.25C40,89.25,32,95,23.75,99" transform="matrix(1,0,0,1,696,-4)" class="stroke_order_diagram--current_path"></path><circle cx="43.5" cy="82.25" r="8" class="stroke_order_diagram--path_start" transform="matrix(1,0,0,1,696,-4)"></circle><line x1="850" x2="850" y1="1" y2="99" class="stroke_order_diagram--guide_line"></line><line x1="899" x2="899" y1="1" y2="99" class="stroke_order_diagram--bounding_box"></line><path id="pathSk940yk7k5l6" kvg:type="㇐" d="M18.88,18.48c1.52,0.54,4.31,0.7,5.82,0.54c16.8-1.77,48.55-4.02,63.11-4.73c2.53-0.12,4.05,0.26,5.31,0.53" transform="matrix(1,0,0,1,796,-4)" class="stroke_order_diagram--existing_path"></path><path id="pathSk940yk7k5l7" kvg:type="㇒" d="M55.02,18.5c0.02,0.29,0.03,0.75-0.03,1.16c-0.39,2.44-3.15,8.31-6.24,11.59" transform="matrix(1,0,0,1,796,-4)" class="stroke_order_diagram--existing_path"></path><path id="pathSk940yk7k5l8" kvg:type="㇑" d="M33.75,32.52c0.68,1.09,1.68,1.9,1.68,3.35c0,1.45-0.46,39.94-0.46,40.67c0,0.73,0.23,0.73,0.46,2.18" transform="matrix(1,0,0,1,796,-4)" class="stroke_order_diagram--existing_path"></path><path id="pathSk940yk7k5l9" kvg:type="㇕a" d="M36.57,34.47c3.87-0.18,35.89-4.51,39.42-4.72c2.94-0.18,3.51,1.26,3.51,3.36c0,1.74-0.87,40.79-0.87,41.88" transform="matrix(1,0,0,1,796,-4)" class="stroke_order_diagram--existing_path"></path><path id="pathSk940yk7k5la" kvg:type="㇐a" d="M36.51,48.31c6.74-0.81,33.74-4.06,42.03-4.45" transform="matrix(1,0,0,1,796,-4)" class="stroke_order_diagram--existing_path"></path><path id="pathSk940yk7k5lb" kvg:type="㇐a" d="M36.32,62.17c8.93-0.92,31.18-3.67,41.76-4.18" transform="matrix(1,0,0,1,796,-4)" class="stroke_order_diagram--existing_path"></path><path id="pathSk940yk7k5lc" kvg:type="㇐a" d="M35.82,76.58c8.93-1.08,30.49-4.13,41.76-4.68" transform="matrix(1,0,0,1,796,-4)" class="stroke_order_diagram--existing_path"></path><path id="pathSk940yk7k5ld" kvg:type="㇒" d="M43.5,82.25c0.54,1.37,0.42,2.1-0.5,3.25C40,89.25,32,95,23.75,99" transform="matrix(1,0,0,1,796,-4)" class="stroke_order_diagram--existing_path"></path><path id="kvg:09801-s9" kvg:type="㇔" d="M69.5,83.08C75.92,86.31,84,93.67,85.75,96.5" transform="matrix(1,0,0,1,796,-4)" class="stroke_order_diagram--current_path"></path><path id="pathSk940yk7k5lf" kvg:type="㇔" d="M69.5,83.08C75.92,86.31,84,93.67,85.75,96.5" transform="matrix(1,0,0,1,796,-4)" class="stroke_order_diagram--current_path"></path><circle cx="69.5" cy="83.08" r="8" class="stroke_order_diagram--path_start" transform="matrix(1,0,0,1,796,-4)"></circle></svg>