<?xml version="1.0" encoding="UTF-8"?>
<!DOCTYPE svg PUBLIC "-//W3C//DTD SVG 1.0//EN" "http://www.w3.org/TR/2001/REC-SVG-20010904/DTD/svg10.dtd" [
<!ATTLIST g
xmlns:kvg CDATA #FIXED "http://kanjivg.tagaini.net"
kvg:element CDATA #IMPLIED
kvg:variant CDATA #IMPLIED
kvg:partial CDATA #IMPLIED
kvg:original CDATA #IMPLIED
kvg:part CDATA #IMPLIED
kvg:number CDATA #IMPLIED
kvg:tradForm CDATA #IMPLIED
kvg:radicalForm CDATA #IMPLIED
kvg:position CDATA #IMPLIED
kvg:radical CDATA #IMPLIED
kvg:phon CDATA #IMPLIED >
<!ATTLIST path
xmlns:kvg CDATA #FIXED "http://kanjivg.tagaini.net"
kvg:type CDATA #IMPLIED >
]><svg style="width: 900px; height: 100px;" xmlns="http://www.w3.org/2000/svg" xmlns:xlink="http://www.w3.org/1999/xlink" width="900px" height="100px"><style>
.stroke_order_diagram--outer_container {
  width: 100%;
  overflow-x: auto;
  overflow-y: hidden;
}

.stroke_order_diagram--guide_line {
  fill: none;
  stroke: #ddd;
  stroke-width: 3;
  stroke-linecap: square;
  stroke-linejoin: square;
  stroke-dasharray:8, 8;
}

.stroke_order_diagram--bounding_box {
  fill: none;
  stroke: #ddd;
  stroke-width: 4;
  stroke-linecap: square;
  stroke-linejoin: square;
}

.stroke_order_diagram--current_path {
  fill: none;
  stroke: #000;
  stroke-width: 6;
  stroke-linecap: round;
  stroke-linejoin: round;
}

.stroke_order_diagram--existing_path {
  fill: none;
  stroke: #aaa;
  stroke-width: 6;
  stroke-linecap: round;
  stroke-linejoin:round;
}

.stroke_order_diagram--path_start {
  fill: rgba(255, 0, 0, 0.7);
  stroke:none
}</style><desc>Created with Snap</desc><defs></defs><line x1="1" x2="899" y1="1" y2="1" class="stroke_order_diagram--bounding_box"></line><line x1="1" x2="1" y1="1" y2="99" class="stroke_order_diagram--bounding_box"></line><line x1="1" x2="899" y1="99" y2="99" class="stroke_order_diagram--bounding_box"></line><line x1="0" x2="900" y1="50" y2="50" class="stroke_order_diagram--guide_line"></line><line x1="50" x2="50" y1="1" y2="99" class="stroke_order_diagram--guide_line"></line><line x1="99" x2="99" y1="1" y2="99" class="stroke_order_diagram--bounding_box"></line><path id="kvg:098a8-s1" kvg:type="㇒" d="M24.55,22.25c0.95,1.25,1.37,3.05,1.37,5.36c0,22.76,1.59,50.26-10.66,62.39" transform="matrix(1,0,0,1,-4,-4)" class="stroke_order_diagram--current_path"></path><path id="pathSk940yk7k5ly" kvg:type="㇒" d="M24.55,22.25c0.95,1.25,1.37,3.05,1.37,5.36c0,22.76,1.59,50.26-10.66,62.39" transform="matrix(1,0,0,1,-4,-4)" class="stroke_order_diagram--current_path"></path><circle cx="24.55" cy="22.25" r="8" class="stroke_order_diagram--path_start" transform="matrix(1,0,0,1,-4,-4)"></circle><line x1="150" x2="150" y1="1" y2="99" class="stroke_order_diagram--guide_line"></line><line x1="199" x2="199" y1="1" y2="99" class="stroke_order_diagram--bounding_box"></line><path id="pathSk940yk7k5m1" kvg:type="㇒" d="M24.55,22.25c0.95,1.25,1.37,3.05,1.37,5.36c0,22.76,1.59,50.26-10.66,62.39" transform="matrix(1,0,0,1,96,-4)" class="stroke_order_diagram--existing_path"></path><path id="kvg:098a8-s2" kvg:type="㇈a" d="M26.75,23.5c1.48-0.24,3.35-0.52,5.49-0.84C46.03,20.62,63,17.75,74,17.25c4-0.18,6.09,0.97,5.5,4.75C76.25,42.75,77.25,71.75,92,87.75c6.95,7.54,5.75,1,6-5.5" transform="matrix(1,0,0,1,96,-4)" class="stroke_order_diagram--current_path"></path><path id="pathSk940yk7k5m3" kvg:type="㇈a" d="M26.75,23.5c1.48-0.24,3.35-0.52,5.49-0.84C46.03,20.62,63,17.75,74,17.25c4-0.18,6.09,0.97,5.5,4.75C76.25,42.75,77.25,71.75,92,87.75c6.95,7.54,5.75,1,6-5.5" transform="matrix(1,0,0,1,96,-4)" class="stroke_order_diagram--current_path"></path><circle cx="26.75" cy="23.5" r="8" class="stroke_order_diagram--path_start" transform="matrix(1,0,0,1,96,-4)"></circle><line x1="250" x2="250" y1="1" y2="99" class="stroke_order_diagram--guide_line"></line><line x1="299" x2="299" y1="1" y2="99" class="stroke_order_diagram--bounding_box"></line><path id="pathSk940yk7k5m6" kvg:type="㇒" d="M24.55,22.25c0.95,1.25,1.37,3.05,1.37,5.36c0,22.76,1.59,50.26-10.66,62.39" transform="matrix(1,0,0,1,196,-4)" class="stroke_order_diagram--existing_path"></path><path id="pathSk940yk7k5m7" kvg:type="㇈a" d="M26.75,23.5c1.48-0.24,3.35-0.52,5.49-0.84C46.03,20.62,63,17.75,74,17.25c4-0.18,6.09,0.97,5.5,4.75C76.25,42.75,77.25,71.75,92,87.75c6.95,7.54,5.75,1,6-5.5" transform="matrix(1,0,0,1,196,-4)" class="stroke_order_diagram--existing_path"></path><path id="kvg:098a8-s3" kvg:type="㇒" d="M63.5,24.75C63.25,26,62.62,27,61.32,27.8C57.3,30.23,48.46,34.95,35.88,38" transform="matrix(1,0,0,1,196,-4)" class="stroke_order_diagram--current_path"></path><path id="pathSk940yk7k5m9" kvg:type="㇒" d="M63.5,24.75C63.25,26,62.62,27,61.32,27.8C57.3,30.23,48.46,34.95,35.88,38" transform="matrix(1,0,0,1,196,-4)" class="stroke_order_diagram--current_path"></path><circle cx="63.5" cy="24.75" r="8" class="stroke_order_diagram--path_start" transform="matrix(1,0,0,1,196,-4)"></circle><line x1="350" x2="350" y1="1" y2="99" class="stroke_order_diagram--guide_line"></line><line x1="399" x2="399" y1="1" y2="99" class="stroke_order_diagram--bounding_box"></line><path id="pathSk940yk7k5mc" kvg:type="㇒" d="M24.55,22.25c0.95,1.25,1.37,3.05,1.37,5.36c0,22.76,1.59,50.26-10.66,62.39" transform="matrix(1,0,0,1,296,-4)" class="stroke_order_diagram--existing_path"></path><path id="pathSk940yk7k5md" kvg:type="㇈a" d="M26.75,23.5c1.48-0.24,3.35-0.52,5.49-0.84C46.03,20.62,63,17.75,74,17.25c4-0.18,6.09,0.97,5.5,4.75C76.25,42.75,77.25,71.75,92,87.75c6.95,7.54,5.75,1,6-5.5" transform="matrix(1,0,0,1,296,-4)" class="stroke_order_diagram--existing_path"></path><path id="pathSk940yk7k5me" kvg:type="㇒" d="M63.5,24.75C63.25,26,62.62,27,61.32,27.8C57.3,30.23,48.46,34.95,35.88,38" transform="matrix(1,0,0,1,296,-4)" class="stroke_order_diagram--existing_path"></path><path id="kvg:098a8-s4" kvg:type="㇑" d="M33.23,49.47c0.71,0.71,1.46,1.63,1.56,2.1c0.6,2.87,1.22,5.5,2.01,10.42c0.15,0.93,0.3,1.91,0.47,2.94" transform="matrix(1,0,0,1,296,-4)" class="stroke_order_diagram--current_path"></path><path id="pathSk940yk7k5mg" kvg:type="㇑" d="M33.23,49.47c0.71,0.71,1.46,1.63,1.56,2.1c0.6,2.87,1.22,5.5,2.01,10.42c0.15,0.93,0.3,1.91,0.47,2.94" transform="matrix(1,0,0,1,296,-4)" class="stroke_order_diagram--current_path"></path><circle cx="33.23" cy="49.47" r="8" class="stroke_order_diagram--path_start" transform="matrix(1,0,0,1,296,-4)"></circle><line x1="450" x2="450" y1="1" y2="99" class="stroke_order_diagram--guide_line"></line><line x1="499" x2="499" y1="1" y2="99" class="stroke_order_diagram--bounding_box"></line><path id="pathSk940yk7k5mj" kvg:type="㇒" d="M24.55,22.25c0.95,1.25,1.37,3.05,1.37,5.36c0,22.76,1.59,50.26-10.66,62.39" transform="matrix(1,0,0,1,396,-4)" class="stroke_order_diagram--existing_path"></path><path id="pathSk940yk7k5mk" kvg:type="㇈a" d="M26.75,23.5c1.48-0.24,3.35-0.52,5.49-0.84C46.03,20.62,63,17.75,74,17.25c4-0.18,6.09,0.97,5.5,4.75C76.25,42.75,77.25,71.75,92,87.75c6.95,7.54,5.75,1,6-5.5" transform="matrix(1,0,0,1,396,-4)" class="stroke_order_diagram--existing_path"></path><path id="pathSk940yk7k5ml" kvg:type="㇒" d="M63.5,24.75C63.25,26,62.62,27,61.32,27.8C57.3,30.23,48.46,34.95,35.88,38" transform="matrix(1,0,0,1,396,-4)" class="stroke_order_diagram--existing_path"></path><path id="pathSk940yk7k5mm" kvg:type="㇑" d="M33.23,49.47c0.71,0.71,1.46,1.63,1.56,2.1c0.6,2.87,1.22,5.5,2.01,10.42c0.15,0.93,0.3,1.91,0.47,2.94" transform="matrix(1,0,0,1,396,-4)" class="stroke_order_diagram--existing_path"></path><path id="kvg:098a8-s5" kvg:type="㇕b" d="M35.85,50.73c11.9-1.98,23.66-3.81,29.48-4.1c2.56-0.13,3.98,0.77,3.42,3.09c-0.81,3.38-1.49,4.52-2.56,8.52" transform="matrix(1,0,0,1,396,-4)" class="stroke_order_diagram--current_path"></path><path id="pathSk940yk7k5mo" kvg:type="㇕b" d="M35.85,50.73c11.9-1.98,23.66-3.81,29.48-4.1c2.56-0.13,3.98,0.77,3.42,3.09c-0.81,3.38-1.49,4.52-2.56,8.52" transform="matrix(1,0,0,1,396,-4)" class="stroke_order_diagram--current_path"></path><circle cx="35.85" cy="50.73" r="8" class="stroke_order_diagram--path_start" transform="matrix(1,0,0,1,396,-4)"></circle><line x1="550" x2="550" y1="1" y2="99" class="stroke_order_diagram--guide_line"></line><line x1="599" x2="599" y1="1" y2="99" class="stroke_order_diagram--bounding_box"></line><path id="pathSk940yk7k5mr" kvg:type="㇒" d="M24.55,22.25c0.95,1.25,1.37,3.05,1.37,5.36c0,22.76,1.59,50.26-10.66,62.39" transform="matrix(1,0,0,1,496,-4)" class="stroke_order_diagram--existing_path"></path><path id="pathSk940yk7k5ms" kvg:type="㇈a" d="M26.75,23.5c1.48-0.24,3.35-0.52,5.49-0.84C46.03,20.62,63,17.75,74,17.25c4-0.18,6.09,0.97,5.5,4.75C76.25,42.75,77.25,71.75,92,87.75c6.95,7.54,5.75,1,6-5.5" transform="matrix(1,0,0,1,496,-4)" class="stroke_order_diagram--existing_path"></path><path id="pathSk940yk7k5mt" kvg:type="㇒" d="M63.5,24.75C63.25,26,62.62,27,61.32,27.8C57.3,30.23,48.46,34.95,35.88,38" transform="matrix(1,0,0,1,496,-4)" class="stroke_order_diagram--existing_path"></path><path id="pathSk940yk7k5mu" kvg:type="㇑" d="M33.23,49.47c0.71,0.71,1.46,1.63,1.56,2.1c0.6,2.87,1.22,5.5,2.01,10.42c0.15,0.93,0.3,1.91,0.47,2.94" transform="matrix(1,0,0,1,496,-4)" class="stroke_order_diagram--existing_path"></path><path id="pathSk940yk7k5mv" kvg:type="㇕b" d="M35.85,50.73c11.9-1.98,23.66-3.81,29.48-4.1c2.56-0.13,3.98,0.77,3.42,3.09c-0.81,3.38-1.49,4.52-2.56,8.52" transform="matrix(1,0,0,1,496,-4)" class="stroke_order_diagram--existing_path"></path><path id="kvg:098a8-s6" kvg:type="㇐b" d="M38.3,62.81c5.71-0.6,17.05-2.28,26.2-3.3c1.27-0.14,2.47-0.25,3.58-0.33" transform="matrix(1,0,0,1,496,-4)" class="stroke_order_diagram--current_path"></path><path id="pathSk940yk7k5mx" kvg:type="㇐b" d="M38.3,62.81c5.71-0.6,17.05-2.28,26.2-3.3c1.27-0.14,2.47-0.25,3.58-0.33" transform="matrix(1,0,0,1,496,-4)" class="stroke_order_diagram--current_path"></path><circle cx="38.3" cy="62.81" r="8" class="stroke_order_diagram--path_start" transform="matrix(1,0,0,1,496,-4)"></circle><line x1="650" x2="650" y1="1" y2="99" class="stroke_order_diagram--guide_line"></line><line x1="699" x2="699" y1="1" y2="99" class="stroke_order_diagram--bounding_box"></line><path id="pathSk940yk7k5n0" kvg:type="㇒" d="M24.55,22.25c0.95,1.25,1.37,3.05,1.37,5.36c0,22.76,1.59,50.26-10.66,62.39" transform="matrix(1,0,0,1,596,-4)" class="stroke_order_diagram--existing_path"></path><path id="pathSk940yk7k5n1" kvg:type="㇈a" d="M26.75,23.5c1.48-0.24,3.35-0.52,5.49-0.84C46.03,20.62,63,17.75,74,17.25c4-0.18,6.09,0.97,5.5,4.75C76.25,42.75,77.25,71.75,92,87.75c6.95,7.54,5.75,1,6-5.5" transform="matrix(1,0,0,1,596,-4)" class="stroke_order_diagram--existing_path"></path><path id="pathSk940yk7k5n2" kvg:type="㇒" d="M63.5,24.75C63.25,26,62.62,27,61.32,27.8C57.3,30.23,48.46,34.95,35.88,38" transform="matrix(1,0,0,1,596,-4)" class="stroke_order_diagram--existing_path"></path><path id="pathSk940yk7k5n3" kvg:type="㇑" d="M33.23,49.47c0.71,0.71,1.46,1.63,1.56,2.1c0.6,2.87,1.22,5.5,2.01,10.42c0.15,0.93,0.3,1.91,0.47,2.94" transform="matrix(1,0,0,1,596,-4)" class="stroke_order_diagram--existing_path"></path><path id="pathSk940yk7k5n4" kvg:type="㇕b" d="M35.85,50.73c11.9-1.98,23.66-3.81,29.48-4.1c2.56-0.13,3.98,0.77,3.42,3.09c-0.81,3.38-1.49,4.52-2.56,8.52" transform="matrix(1,0,0,1,596,-4)" class="stroke_order_diagram--existing_path"></path><path id="pathSk940yk7k5n5" kvg:type="㇐b" d="M38.3,62.81c5.71-0.6,17.05-2.28,26.2-3.3c1.27-0.14,2.47-0.25,3.58-0.33" transform="matrix(1,0,0,1,596,-4)" class="stroke_order_diagram--existing_path"></path><path id="kvg:098a8-s7" kvg:type="㇑a" d="M50.07,36.5c1.09,1.09,1.35,2.25,1.35,3.64c0,3.86-0.26,30.86-0.26,37.81" transform="matrix(1,0,0,1,596,-4)" class="stroke_order_diagram--current_path"></path><path id="pathSk940yk7k5n7" kvg:type="㇑a" d="M50.07,36.5c1.09,1.09,1.35,2.25,1.35,3.64c0,3.86-0.26,30.86-0.26,37.81" transform="matrix(1,0,0,1,596,-4)" class="stroke_order_diagram--current_path"></path><circle cx="50.07" cy="36.5" r="8" class="stroke_order_diagram--path_start" transform="matrix(1,0,0,1,596,-4)"></circle><line x1="750" x2="750" y1="1" y2="99" class="stroke_order_diagram--guide_line"></line><line x1="799" x2="799" y1="1" y2="99" class="stroke_order_diagram--bounding_box"></line><path id="pathSk940yk7k5na" kvg:type="㇒" d="M24.55,22.25c0.95,1.25,1.37,3.05,1.37,5.36c0,22.76,1.59,50.26-10.66,62.39" transform="matrix(1,0,0,1,696,-4)" class="stroke_order_diagram--existing_path"></path><path id="pathSk940yk7k5nb" kvg:type="㇈a" d="M26.75,23.5c1.48-0.24,3.35-0.52,5.49-0.84C46.03,20.62,63,17.75,74,17.25c4-0.18,6.09,0.97,5.5,4.75C76.25,42.75,77.25,71.75,92,87.75c6.95,7.54,5.75,1,6-5.5" transform="matrix(1,0,0,1,696,-4)" class="stroke_order_diagram--existing_path"></path><path id="pathSk940yk7k5nc" kvg:type="㇒" d="M63.5,24.75C63.25,26,62.62,27,61.32,27.8C57.3,30.23,48.46,34.95,35.88,38" transform="matrix(1,0,0,1,696,-4)" class="stroke_order_diagram--existing_path"></path><path id="pathSk940yk7k5nd" kvg:type="㇑" d="M33.23,49.47c0.71,0.71,1.46,1.63,1.56,2.1c0.6,2.87,1.22,5.5,2.01,10.42c0.15,0.93,0.3,1.91,0.47,2.94" transform="matrix(1,0,0,1,696,-4)" class="stroke_order_diagram--existing_path"></path><path id="pathSk940yk7k5ne" kvg:type="㇕b" d="M35.85,50.73c11.9-1.98,23.66-3.81,29.48-4.1c2.56-0.13,3.98,0.77,3.42,3.09c-0.81,3.38-1.49,4.52-2.56,8.52" transform="matrix(1,0,0,1,696,-4)" class="stroke_order_diagram--existing_path"></path><path id="pathSk940yk7k5nf" kvg:type="㇐b" d="M38.3,62.81c5.71-0.6,17.05-2.28,26.2-3.3c1.27-0.14,2.47-0.25,3.58-0.33" transform="matrix(1,0,0,1,696,-4)" class="stroke_order_diagram--existing_path"></path><path id="pathSk940yk7k5ng" kvg:type="㇑a" d="M50.07,36.5c1.09,1.09,1.35,2.25,1.35,3.64c0,3.86-0.26,30.86-0.26,37.81" transform="matrix(1,0,0,1,696,-4)" class="stroke_order_diagram--existing_path"></path><path id="kvg:098a8-s8" kvg:type="㇀" d="M32.92,82.16c1.2,0.71,2.64,0.8,3.36,0.59c6.59-1.88,24.47-7.13,30.34-8.88" transform="matrix(1,0,0,1,696,-4)" class="stroke_order_diagram--current_path"></path><path id="pathSk940yk7k5ni" kvg:type="㇀" d="M32.92,82.16c1.2,0.71,2.64,0.8,3.36,0.59c6.59-1.88,24.47-7.13,30.34-8.88" transform="matrix(1,0,0,1,696,-4)" class="stroke_order_diagram--current_path"></path><circle cx="32.92" cy="82.16" r="8" class="stroke_order_diagram--path_start" transform="matrix(1,0,0,1,696,-4)"></circle><line x1="850" x2="850" y1="1" y2="99" class="stroke_order_diagram--guide_line"></line><line x1="899" x2="899" y1="1" y2="99" class="stroke_order_diagram--bounding_box"></line><path id="pathSk940yk7k5nl" kvg:type="㇒" d="M24.55,22.25c0.95,1.25,1.37,3.05,1.37,5.36c0,22.76,1.59,50.26-10.66,62.39" transform="matrix(1,0,0,1,796,-4)" class="stroke_order_diagram--existing_path"></path><path id="pathSk940yk7k5nm" kvg:type="㇈a" d="M26.75,23.5c1.48-0.24,3.35-0.52,5.49-0.84C46.03,20.62,63,17.75,74,17.25c4-0.18,6.09,0.97,5.5,4.75C76.25,42.75,77.25,71.75,92,87.75c6.95,7.54,5.75,1,6-5.5" transform="matrix(1,0,0,1,796,-4)" class="stroke_order_diagram--existing_path"></path><path id="pathSk940yk7k5nn" kvg:type="㇒" d="M63.5,24.75C63.25,26,62.62,27,61.32,27.8C57.3,30.23,48.46,34.95,35.88,38" transform="matrix(1,0,0,1,796,-4)" class="stroke_order_diagram--existing_path"></path><path id="pathSk940yk7k5no" kvg:type="㇑" d="M33.23,49.47c0.71,0.71,1.46,1.63,1.56,2.1c0.6,2.87,1.22,5.5,2.01,10.42c0.15,0.93,0.3,1.91,0.47,2.94" transform="matrix(1,0,0,1,796,-4)" class="stroke_order_diagram--existing_path"></path><path id="pathSk940yk7k5np" kvg:type="㇕b" d="M35.85,50.73c11.9-1.98,23.66-3.81,29.48-4.1c2.56-0.13,3.98,0.77,3.42,3.09c-0.81,3.38-1.49,4.52-2.56,8.52" transform="matrix(1,0,0,1,796,-4)" class="stroke_order_diagram--existing_path"></path><path id="pathSk940yk7k5nq" kvg:type="㇐b" d="M38.3,62.81c5.71-0.6,17.05-2.28,26.2-3.3c1.27-0.14,2.47-0.25,3.58-0.33" transform="matrix(1,0,0,1,796,-4)" class="stroke_order_diagram--existing_path"></path><path id="pathSk940yk7k5nr" kvg:type="㇑a" d="M50.07,36.5c1.09,1.09,1.35,2.25,1.35,3.64c0,3.86-0.26,30.86-0.26,37.81" transform="matrix(1,0,0,1,796,-4)" class="stroke_order_diagram--existing_path"></path><path id="pathSk940yk7k5ns" kvg:type="㇀" d="M32.92,82.16c1.2,0.71,2.64,0.8,3.36,0.59c6.59-1.88,24.47-7.13,30.34-8.88" transform="matrix(1,0,0,1,796,-4)" class="stroke_order_diagram--existing_path"></path><path id="kvg:098a8-s9" kvg:type="㇔" d="M63.75,67.85c3.5,3.52,7.62,10.15,9.36,15.31" transform="matrix(1,0,0,1,796,-4)" class="stroke_order_diagram--current_path"></path><path id="pathSk940yk7k5nu" kvg:type="㇔" d="M63.75,67.85c3.5,3.52,7.62,10.15,9.36,15.31" transform="matrix(1,0,0,1,796,-4)" class="stroke_order_diagram--current_path"></path><circle cx="63.75" cy="67.85" r="8" class="stroke_order_diagram--path_start" transform="matrix(1,0,0,1,796,-4)"></circle></svg>