<?xml version="1.0" encoding="UTF-8"?>
<!DOCTYPE svg PUBLIC "-//W3C//DTD SVG 1.0//EN" "http://www.w3.org/TR/2001/REC-SVG-20010904/DTD/svg10.dtd" [
<!ATTLIST g
xmlns:kvg CDATA #FIXED "http://kanjivg.tagaini.net"
kvg:element CDATA #IMPLIED
kvg:variant CDATA #IMPLIED
kvg:partial CDATA #IMPLIED
kvg:original CDATA #IMPLIED
kvg:part CDATA #IMPLIED
kvg:number CDATA #IMPLIED
kvg:tradForm CDATA #IMPLIED
kvg:radicalForm CDATA #IMPLIED
kvg:position CDATA #IMPLIED
kvg:radical CDATA #IMPLIED
kvg:phon CDATA #IMPLIED >
<!ATTLIST path
xmlns:kvg CDATA #FIXED "http://kanjivg.tagaini.net"
kvg:type CDATA #IMPLIED >
]><svg style="width: 900px; height: 100px;" xmlns="http://www.w3.org/2000/svg" xmlns:xlink="http://www.w3.org/1999/xlink"><style>
.stroke_order_diagram--outer_container {
  width: 100%;
  overflow-x: auto;
  overflow-y: hidden;
}

.stroke_order_diagram--guide_line {
  fill: none;
  stroke: #ddd;
  stroke-width: 3;
  stroke-linecap: square;
  stroke-linejoin: square;
  stroke-dasharray:8, 8;
}

.stroke_order_diagram--bounding_box {
  fill: none;
  stroke: #ddd;
  stroke-width: 4;
  stroke-linecap: square;
  stroke-linejoin: square;
}

.stroke_order_diagram--current_path {
  fill: none;
  stroke: #000;
  stroke-width: 6;
  stroke-linecap: round;
  stroke-linejoin: round;
}

.stroke_order_diagram--existing_path {
  fill: none;
  stroke: #aaa;
  stroke-width: 6;
  stroke-linecap: round;
  stroke-linejoin:round;
}

.stroke_order_diagram--path_start {
  fill: rgba(255, 0, 0, 0.7);
  stroke:none
}</style><desc>Created with Snap</desc><defs></defs><line x1="1" x2="899" y1="1" y2="1" class="stroke_order_diagram--bounding_box"></line><line x1="1" x2="1" y1="1" y2="99" class="stroke_order_diagram--bounding_box"></line><line x1="1" x2="899" y1="99" y2="99" class="stroke_order_diagram--bounding_box"></line><line x1="0" x2="900" y1="50" y2="50" class="stroke_order_diagram--guide_line"></line><line x1="50" x2="50" y1="1" y2="99" class="stroke_order_diagram--guide_line"></line><line x1="99" x2="99" y1="1" y2="99" class="stroke_order_diagram--bounding_box"></line><path id="kvg:098db-s1" kvg:type="㇈a" d="M29.75,20.75c1.75,0.38,3.47,0.54,5.18,0.32c10.79-1.38,22.63-3.15,29.59-4.61c2.03-0.42,3.9-0.07,3.48,2.54c-3.25,20.5,7.88,27.25,20.25,30.5c5.4,1.42,5.75,0.75,5.25-6.5" transform="matrix(1,0,0,1,-4,-4)" class="stroke_order_diagram--current_path"></path><path id="pathSk93xdzq05od" kvg:type="㇈a" d="M29.75,20.75c1.75,0.38,3.47,0.54,5.18,0.32c10.79-1.38,22.63-3.15,29.59-4.61c2.03-0.42,3.9-0.07,3.48,2.54c-3.25,20.5,7.88,27.25,20.25,30.5c5.4,1.42,5.75,0.75,5.25-6.5" transform="matrix(1,0,0,1,-4,-4)" class="stroke_order_diagram--current_path"></path><circle cx="29.75" cy="20.75" r="8" class="stroke_order_diagram--path_start" transform="matrix(1,0,0,1,-4,-4)"></circle><line x1="150" x2="150" y1="1" y2="99" class="stroke_order_diagram--guide_line"></line><line x1="199" x2="199" y1="1" y2="99" class="stroke_order_diagram--bounding_box"></line><path id="pathSk93xdzq05og" kvg:type="㇈a" d="M29.75,20.75c1.75,0.38,3.47,0.54,5.18,0.32c10.79-1.38,22.63-3.15,29.59-4.61c2.03-0.42,3.9-0.07,3.48,2.54c-3.25,20.5,7.88,27.25,20.25,30.5c5.4,1.42,5.75,0.75,5.25-6.5" transform="matrix(1,0,0,1,96,-4)" class="stroke_order_diagram--existing_path"></path><path id="kvg:098db-s2" kvg:type="㇒" d="M82.53,16.64c0.02,0.2,0.04,0.51-0.04,0.79c-0.47,1.66-3.2,5.31-6.94,7.54" transform="matrix(1,0,0,1,96,-4)" class="stroke_order_diagram--current_path"></path><path id="pathSk93xdzq05oi" kvg:type="㇒" d="M82.53,16.64c0.02,0.2,0.04,0.51-0.04,0.79c-0.47,1.66-3.2,5.31-6.94,7.54" transform="matrix(1,0,0,1,96,-4)" class="stroke_order_diagram--current_path"></path><circle cx="82.53" cy="16.64" r="8" class="stroke_order_diagram--path_start" transform="matrix(1,0,0,1,96,-4)"></circle><line x1="250" x2="250" y1="1" y2="99" class="stroke_order_diagram--guide_line"></line><line x1="299" x2="299" y1="1" y2="99" class="stroke_order_diagram--bounding_box"></line><path id="pathSk93xdzq05ol" kvg:type="㇈a" d="M29.75,20.75c1.75,0.38,3.47,0.54,5.18,0.32c10.79-1.38,22.63-3.15,29.59-4.61c2.03-0.42,3.9-0.07,3.48,2.54c-3.25,20.5,7.88,27.25,20.25,30.5c5.4,1.42,5.75,0.75,5.25-6.5" transform="matrix(1,0,0,1,196,-4)" class="stroke_order_diagram--existing_path"></path><path id="pathSk93xdzq05om" kvg:type="㇒" d="M82.53,16.64c0.02,0.2,0.04,0.51-0.04,0.79c-0.47,1.66-3.2,5.31-6.94,7.54" transform="matrix(1,0,0,1,196,-4)" class="stroke_order_diagram--existing_path"></path><path id="kvg:098db-s3" kvg:type="㇔" d="M75.89,30.33c3.32,1.44,8.59,5.9,9.42,8.13" transform="matrix(1,0,0,1,196,-4)" class="stroke_order_diagram--current_path"></path><path id="pathSk93xdzq05oo" kvg:type="㇔" d="M75.89,30.33c3.32,1.44,8.59,5.9,9.42,8.13" transform="matrix(1,0,0,1,196,-4)" class="stroke_order_diagram--current_path"></path><circle cx="75.89" cy="30.33" r="8" class="stroke_order_diagram--path_start" transform="matrix(1,0,0,1,196,-4)"></circle><line x1="350" x2="350" y1="1" y2="99" class="stroke_order_diagram--guide_line"></line><line x1="399" x2="399" y1="1" y2="99" class="stroke_order_diagram--bounding_box"></line><path id="pathSk93xdzq05or" kvg:type="㇈a" d="M29.75,20.75c1.75,0.38,3.47,0.54,5.18,0.32c10.79-1.38,22.63-3.15,29.59-4.61c2.03-0.42,3.9-0.07,3.48,2.54c-3.25,20.5,7.88,27.25,20.25,30.5c5.4,1.42,5.75,0.75,5.25-6.5" transform="matrix(1,0,0,1,296,-4)" class="stroke_order_diagram--existing_path"></path><path id="pathSk93xdzq05os" kvg:type="㇒" d="M82.53,16.64c0.02,0.2,0.04,0.51-0.04,0.79c-0.47,1.66-3.2,5.31-6.94,7.54" transform="matrix(1,0,0,1,296,-4)" class="stroke_order_diagram--existing_path"></path><path id="pathSk93xdzq05ot" kvg:type="㇔" d="M75.89,30.33c3.32,1.44,8.59,5.9,9.42,8.13" transform="matrix(1,0,0,1,296,-4)" class="stroke_order_diagram--existing_path"></path><path id="kvg:098db-s4" kvg:type="㇑" d="M49.87,25.75c1.06,1.06,1.46,2.5,1.46,3.75c0,0.87,0.02,42.99,0.03,59.88c0,2.89,0,5.05,0,6.12" transform="matrix(1,0,0,1,296,-4)" class="stroke_order_diagram--current_path"></path><path id="pathSk93xdzq05ov" kvg:type="㇑" d="M49.87,25.75c1.06,1.06,1.46,2.5,1.46,3.75c0,0.87,0.02,42.99,0.03,59.88c0,2.89,0,5.05,0,6.12" transform="matrix(1,0,0,1,296,-4)" class="stroke_order_diagram--current_path"></path><circle cx="49.87" cy="25.75" r="8" class="stroke_order_diagram--path_start" transform="matrix(1,0,0,1,296,-4)"></circle><line x1="450" x2="450" y1="1" y2="99" class="stroke_order_diagram--guide_line"></line><line x1="499" x2="499" y1="1" y2="99" class="stroke_order_diagram--bounding_box"></line><path id="pathSk93xdzq05oy" kvg:type="㇈a" d="M29.75,20.75c1.75,0.38,3.47,0.54,5.18,0.32c10.79-1.38,22.63-3.15,29.59-4.61c2.03-0.42,3.9-0.07,3.48,2.54c-3.25,20.5,7.88,27.25,20.25,30.5c5.4,1.42,5.75,0.75,5.25-6.5" transform="matrix(1,0,0,1,396,-4)" class="stroke_order_diagram--existing_path"></path><path id="pathSk93xdzq05oz" kvg:type="㇒" d="M82.53,16.64c0.02,0.2,0.04,0.51-0.04,0.79c-0.47,1.66-3.2,5.31-6.94,7.54" transform="matrix(1,0,0,1,396,-4)" class="stroke_order_diagram--existing_path"></path><path id="pathSk93xdzq05p0" kvg:type="㇔" d="M75.89,30.33c3.32,1.44,8.59,5.9,9.42,8.13" transform="matrix(1,0,0,1,396,-4)" class="stroke_order_diagram--existing_path"></path><path id="pathSk93xdzq05p1" kvg:type="㇑" d="M49.87,25.75c1.06,1.06,1.46,2.5,1.46,3.75c0,0.87,0.02,42.99,0.03,59.88c0,2.89,0,5.05,0,6.12" transform="matrix(1,0,0,1,396,-4)" class="stroke_order_diagram--existing_path"></path><path id="kvg:098db-s5" kvg:type="㇒" d="M38.5,30.88c0,0.8-0.39,1.6-1.06,2.57c-2.96,4.22-7.56,8.81-13.69,12.81" transform="matrix(1,0,0,1,396,-4)" class="stroke_order_diagram--current_path"></path><path id="pathSk93xdzq05p3" kvg:type="㇒" d="M38.5,30.88c0,0.8-0.39,1.6-1.06,2.57c-2.96,4.22-7.56,8.81-13.69,12.81" transform="matrix(1,0,0,1,396,-4)" class="stroke_order_diagram--current_path"></path><circle cx="38.5" cy="30.88" r="8" class="stroke_order_diagram--path_start" transform="matrix(1,0,0,1,396,-4)"></circle><line x1="550" x2="550" y1="1" y2="99" class="stroke_order_diagram--guide_line"></line><line x1="599" x2="599" y1="1" y2="99" class="stroke_order_diagram--bounding_box"></line><path id="pathSk93xdzq05p6" kvg:type="㇈a" d="M29.75,20.75c1.75,0.38,3.47,0.54,5.18,0.32c10.79-1.38,22.63-3.15,29.59-4.61c2.03-0.42,3.9-0.07,3.48,2.54c-3.25,20.5,7.88,27.25,20.25,30.5c5.4,1.42,5.75,0.75,5.25-6.5" transform="matrix(1,0,0,1,496,-4)" class="stroke_order_diagram--existing_path"></path><path id="pathSk93xdzq05p7" kvg:type="㇒" d="M82.53,16.64c0.02,0.2,0.04,0.51-0.04,0.79c-0.47,1.66-3.2,5.31-6.94,7.54" transform="matrix(1,0,0,1,496,-4)" class="stroke_order_diagram--existing_path"></path><path id="pathSk93xdzq05p8" kvg:type="㇔" d="M75.89,30.33c3.32,1.44,8.59,5.9,9.42,8.13" transform="matrix(1,0,0,1,496,-4)" class="stroke_order_diagram--existing_path"></path><path id="pathSk93xdzq05p9" kvg:type="㇑" d="M49.87,25.75c1.06,1.06,1.46,2.5,1.46,3.75c0,0.87,0.02,42.99,0.03,59.88c0,2.89,0,5.05,0,6.12" transform="matrix(1,0,0,1,496,-4)" class="stroke_order_diagram--existing_path"></path><path id="pathSk93xdzq05pa" kvg:type="㇒" d="M38.5,30.88c0,0.8-0.39,1.6-1.06,2.57c-2.96,4.22-7.56,8.81-13.69,12.81" transform="matrix(1,0,0,1,496,-4)" class="stroke_order_diagram--existing_path"></path><path id="kvg:098db-s6" kvg:type="㇒" d="M34.02,41.89c0.73,0.86,1.25,2.17,1.18,3.8C34.5,62.38,33,77.12,22.06,90.22" transform="matrix(1,0,0,1,496,-4)" class="stroke_order_diagram--current_path"></path><path id="pathSk93xdzq05pc" kvg:type="㇒" d="M34.02,41.89c0.73,0.86,1.25,2.17,1.18,3.8C34.5,62.38,33,77.12,22.06,90.22" transform="matrix(1,0,0,1,496,-4)" class="stroke_order_diagram--current_path"></path><circle cx="34.02" cy="41.89" r="8" class="stroke_order_diagram--path_start" transform="matrix(1,0,0,1,496,-4)"></circle><line x1="650" x2="650" y1="1" y2="99" class="stroke_order_diagram--guide_line"></line><line x1="699" x2="699" y1="1" y2="99" class="stroke_order_diagram--bounding_box"></line><path id="pathSk93xdzq05pf" kvg:type="㇈a" d="M29.75,20.75c1.75,0.38,3.47,0.54,5.18,0.32c10.79-1.38,22.63-3.15,29.59-4.61c2.03-0.42,3.9-0.07,3.48,2.54c-3.25,20.5,7.88,27.25,20.25,30.5c5.4,1.42,5.75,0.75,5.25-6.5" transform="matrix(1,0,0,1,596,-4)" class="stroke_order_diagram--existing_path"></path><path id="pathSk93xdzq05pg" kvg:type="㇒" d="M82.53,16.64c0.02,0.2,0.04,0.51-0.04,0.79c-0.47,1.66-3.2,5.31-6.94,7.54" transform="matrix(1,0,0,1,596,-4)" class="stroke_order_diagram--existing_path"></path><path id="pathSk93xdzq05ph" kvg:type="㇔" d="M75.89,30.33c3.32,1.44,8.59,5.9,9.42,8.13" transform="matrix(1,0,0,1,596,-4)" class="stroke_order_diagram--existing_path"></path><path id="pathSk93xdzq05pi" kvg:type="㇑" d="M49.87,25.75c1.06,1.06,1.46,2.5,1.46,3.75c0,0.87,0.02,42.99,0.03,59.88c0,2.89,0,5.05,0,6.12" transform="matrix(1,0,0,1,596,-4)" class="stroke_order_diagram--existing_path"></path><path id="pathSk93xdzq05pj" kvg:type="㇒" d="M38.5,30.88c0,0.8-0.39,1.6-1.06,2.57c-2.96,4.22-7.56,8.81-13.69,12.81" transform="matrix(1,0,0,1,596,-4)" class="stroke_order_diagram--existing_path"></path><path id="pathSk93xdzq05pk" kvg:type="㇒" d="M34.02,41.89c0.73,0.86,1.25,2.17,1.18,3.8C34.5,62.38,33,77.12,22.06,90.22" transform="matrix(1,0,0,1,596,-4)" class="stroke_order_diagram--existing_path"></path><path id="kvg:098db-s7" kvg:type="㇈a" d="M16.5,58.75c2.5,0.75,4.85,0.52,6.78,0.19C36.01,56.73,51,52.75,63.45,48.68c3.22-1.05,4.25,0.07,3.9,3.44c-2.73,26.63,5.85,34.96,21.9,41.38c5,2,6,0.88,5-6.5" transform="matrix(1,0,0,1,596,-4)" class="stroke_order_diagram--current_path"></path><path id="pathSk93xdzq05pm" kvg:type="㇈a" d="M16.5,58.75c2.5,0.75,4.85,0.52,6.78,0.19C36.01,56.73,51,52.75,63.45,48.68c3.22-1.05,4.25,0.07,3.9,3.44c-2.73,26.63,5.85,34.96,21.9,41.38c5,2,6,0.88,5-6.5" transform="matrix(1,0,0,1,596,-4)" class="stroke_order_diagram--current_path"></path><circle cx="16.5" cy="58.75" r="8" class="stroke_order_diagram--path_start" transform="matrix(1,0,0,1,596,-4)"></circle><line x1="750" x2="750" y1="1" y2="99" class="stroke_order_diagram--guide_line"></line><line x1="799" x2="799" y1="1" y2="99" class="stroke_order_diagram--bounding_box"></line><path id="pathSk93xdzq05pp" kvg:type="㇈a" d="M29.75,20.75c1.75,0.38,3.47,0.54,5.18,0.32c10.79-1.38,22.63-3.15,29.59-4.61c2.03-0.42,3.9-0.07,3.48,2.54c-3.25,20.5,7.88,27.25,20.25,30.5c5.4,1.42,5.75,0.75,5.25-6.5" transform="matrix(1,0,0,1,696,-4)" class="stroke_order_diagram--existing_path"></path><path id="pathSk93xdzq05pq" kvg:type="㇒" d="M82.53,16.64c0.02,0.2,0.04,0.51-0.04,0.79c-0.47,1.66-3.2,5.31-6.94,7.54" transform="matrix(1,0,0,1,696,-4)" class="stroke_order_diagram--existing_path"></path><path id="pathSk93xdzq05pr" kvg:type="㇔" d="M75.89,30.33c3.32,1.44,8.59,5.9,9.42,8.13" transform="matrix(1,0,0,1,696,-4)" class="stroke_order_diagram--existing_path"></path><path id="pathSk93xdzq05ps" kvg:type="㇑" d="M49.87,25.75c1.06,1.06,1.46,2.5,1.46,3.75c0,0.87,0.02,42.99,0.03,59.88c0,2.89,0,5.05,0,6.12" transform="matrix(1,0,0,1,696,-4)" class="stroke_order_diagram--existing_path"></path><path id="pathSk93xdzq05pt" kvg:type="㇒" d="M38.5,30.88c0,0.8-0.39,1.6-1.06,2.57c-2.96,4.22-7.56,8.81-13.69,12.81" transform="matrix(1,0,0,1,696,-4)" class="stroke_order_diagram--existing_path"></path><path id="pathSk93xdzq05pu" kvg:type="㇒" d="M34.02,41.89c0.73,0.86,1.25,2.17,1.18,3.8C34.5,62.38,33,77.12,22.06,90.22" transform="matrix(1,0,0,1,696,-4)" class="stroke_order_diagram--existing_path"></path><path id="pathSk93xdzq05pv" kvg:type="㇈a" d="M16.5,58.75c2.5,0.75,4.85,0.52,6.78,0.19C36.01,56.73,51,52.75,63.45,48.68c3.22-1.05,4.25,0.07,3.9,3.44c-2.73,26.63,5.85,34.96,21.9,41.38c5,2,6,0.88,5-6.5" transform="matrix(1,0,0,1,696,-4)" class="stroke_order_diagram--existing_path"></path><path id="kvg:098db-s8" kvg:type="㇒" d="M83.28,56.14c0.02,0.2,0.05,0.51-0.05,0.79c-0.56,1.66-3.78,5.3-8.18,7.54" transform="matrix(1,0,0,1,696,-4)" class="stroke_order_diagram--current_path"></path><path id="pathSk93xdzq05px" kvg:type="㇒" d="M83.28,56.14c0.02,0.2,0.05,0.51-0.05,0.79c-0.56,1.66-3.78,5.3-8.18,7.54" transform="matrix(1,0,0,1,696,-4)" class="stroke_order_diagram--current_path"></path><circle cx="83.28" cy="56.14" r="8" class="stroke_order_diagram--path_start" transform="matrix(1,0,0,1,696,-4)"></circle><line x1="850" x2="850" y1="1" y2="99" class="stroke_order_diagram--guide_line"></line><line x1="899" x2="899" y1="1" y2="99" class="stroke_order_diagram--bounding_box"></line><path id="pathSk93xdzq05q0" kvg:type="㇈a" d="M29.75,20.75c1.75,0.38,3.47,0.54,5.18,0.32c10.79-1.38,22.63-3.15,29.59-4.61c2.03-0.42,3.9-0.07,3.48,2.54c-3.25,20.5,7.88,27.25,20.25,30.5c5.4,1.42,5.75,0.75,5.25-6.5" transform="matrix(1,0,0,1,796,-4)" class="stroke_order_diagram--existing_path"></path><path id="pathSk93xdzq05q1" kvg:type="㇒" d="M82.53,16.64c0.02,0.2,0.04,0.51-0.04,0.79c-0.47,1.66-3.2,5.31-6.94,7.54" transform="matrix(1,0,0,1,796,-4)" class="stroke_order_diagram--existing_path"></path><path id="pathSk93xdzq05q2" kvg:type="㇔" d="M75.89,30.33c3.32,1.44,8.59,5.9,9.42,8.13" transform="matrix(1,0,0,1,796,-4)" class="stroke_order_diagram--existing_path"></path><path id="pathSk93xdzq05q3" kvg:type="㇑" d="M49.87,25.75c1.06,1.06,1.46,2.5,1.46,3.75c0,0.87,0.02,42.99,0.03,59.88c0,2.89,0,5.05,0,6.12" transform="matrix(1,0,0,1,796,-4)" class="stroke_order_diagram--existing_path"></path><path id="pathSk93xdzq05q4" kvg:type="㇒" d="M38.5,30.88c0,0.8-0.39,1.6-1.06,2.57c-2.96,4.22-7.56,8.81-13.69,12.81" transform="matrix(1,0,0,1,796,-4)" class="stroke_order_diagram--existing_path"></path><path id="pathSk93xdzq05q5" kvg:type="㇒" d="M34.02,41.89c0.73,0.86,1.25,2.17,1.18,3.8C34.5,62.38,33,77.12,22.06,90.22" transform="matrix(1,0,0,1,796,-4)" class="stroke_order_diagram--existing_path"></path><path id="pathSk93xdzq05q6" kvg:type="㇈a" d="M16.5,58.75c2.5,0.75,4.85,0.52,6.78,0.19C36.01,56.73,51,52.75,63.45,48.68c3.22-1.05,4.25,0.07,3.9,3.44c-2.73,26.63,5.85,34.96,21.9,41.38c5,2,6,0.88,5-6.5" transform="matrix(1,0,0,1,796,-4)" class="stroke_order_diagram--existing_path"></path><path id="pathSk93xdzq05q7" kvg:type="㇒" d="M83.28,56.14c0.02,0.2,0.05,0.51-0.05,0.79c-0.56,1.66-3.78,5.3-8.18,7.54" transform="matrix(1,0,0,1,796,-4)" class="stroke_order_diagram--existing_path"></path><path id="kvg:098db-s9" kvg:type="㇔" d="M76,70.88c3.29,1.52,8.49,6.23,9.31,8.59" transform="matrix(1,0,0,1,796,-4)" class="stroke_order_diagram--current_path"></path><path id="pathSk93xdzq05q9" kvg:type="㇔" d="M76,70.88c3.29,1.52,8.49,6.23,9.31,8.59" transform="matrix(1,0,0,1,796,-4)" class="stroke_order_diagram--current_path"></path><circle cx="76" cy="70.88" r="8" class="stroke_order_diagram--path_start" transform="matrix(1,0,0,1,796,-4)"></circle></svg>