<?xml version="1.0" encoding="UTF-8"?>
<!DOCTYPE svg PUBLIC "-//W3C//DTD SVG 1.0//EN" "http://www.w3.org/TR/2001/REC-SVG-20010904/DTD/svg10.dtd" [
<!ATTLIST g
xmlns:kvg CDATA #FIXED "http://kanjivg.tagaini.net"
kvg:element CDATA #IMPLIED
kvg:variant CDATA #IMPLIED
kvg:partial CDATA #IMPLIED
kvg:original CDATA #IMPLIED
kvg:part CDATA #IMPLIED
kvg:number CDATA #IMPLIED
kvg:tradForm CDATA #IMPLIED
kvg:radicalForm CDATA #IMPLIED
kvg:position CDATA #IMPLIED
kvg:radical CDATA #IMPLIED
kvg:phon CDATA #IMPLIED >
<!ATTLIST path
xmlns:kvg CDATA #FIXED "http://kanjivg.tagaini.net"
kvg:type CDATA #IMPLIED >
]><svg style="width: 900px; height: 100px;" xmlns="http://www.w3.org/2000/svg" xmlns:xlink="http://www.w3.org/1999/xlink" width="900px" height="100px"><style>
.stroke_order_diagram--outer_container {
  width: 100%;
  overflow-x: auto;
  overflow-y: hidden;
}

.stroke_order_diagram--guide_line {
  fill: none;
  stroke: #ddd;
  stroke-width: 3;
  stroke-linecap: square;
  stroke-linejoin: square;
  stroke-dasharray:8, 8;
}

.stroke_order_diagram--bounding_box {
  fill: none;
  stroke: #ddd;
  stroke-width: 4;
  stroke-linecap: square;
  stroke-linejoin: square;
}

.stroke_order_diagram--current_path {
  fill: none;
  stroke: #000;
  stroke-width: 6;
  stroke-linecap: round;
  stroke-linejoin: round;
}

.stroke_order_diagram--existing_path {
  fill: none;
  stroke: #aaa;
  stroke-width: 6;
  stroke-linecap: round;
  stroke-linejoin:round;
}

.stroke_order_diagram--path_start {
  fill: rgba(255, 0, 0, 0.7);
  stroke:none
}</style><desc>Created with Snap</desc><defs></defs><line x1="1" x2="899" y1="1" y2="1" class="stroke_order_diagram--bounding_box"></line><line x1="1" x2="1" y1="1" y2="99" class="stroke_order_diagram--bounding_box"></line><line x1="1" x2="899" y1="99" y2="99" class="stroke_order_diagram--bounding_box"></line><line x1="0" x2="900" y1="50" y2="50" class="stroke_order_diagram--guide_line"></line><line x1="50" x2="50" y1="1" y2="99" class="stroke_order_diagram--guide_line"></line><line x1="99" x2="99" y1="1" y2="99" class="stroke_order_diagram--bounding_box"></line><path id="kvg:09999-s1" kvg:type="㇒" d="M65.23,10.73c0,0.77-0.48,1.39-1.77,2.14c-4.44,2.56-16.84,7.14-33.18,10" transform="matrix(1,0,0,1,-4,-4)" class="stroke_order_diagram--current_path"></path><path id="pathSk940yk7k5vm" kvg:type="㇒" d="M65.23,10.73c0,0.77-0.48,1.39-1.77,2.14c-4.44,2.56-16.84,7.14-33.18,10" transform="matrix(1,0,0,1,-4,-4)" class="stroke_order_diagram--current_path"></path><circle cx="65.23" cy="10.73" r="8" class="stroke_order_diagram--path_start" transform="matrix(1,0,0,1,-4,-4)"></circle><line x1="150" x2="150" y1="1" y2="99" class="stroke_order_diagram--guide_line"></line><line x1="199" x2="199" y1="1" y2="99" class="stroke_order_diagram--bounding_box"></line><path id="pathSk940yk7k5vp" kvg:type="㇒" d="M65.23,10.73c0,0.77-0.48,1.39-1.77,2.14c-4.44,2.56-16.84,7.14-33.18,10" transform="matrix(1,0,0,1,96,-4)" class="stroke_order_diagram--existing_path"></path><path id="kvg:09999-s2" kvg:type="㇐" d="M19.83,37.05c3.03,0.92,6.11,0.55,9.19,0.16c10.11-1.27,31.35-4.46,44.5-5.83c3.46-0.36,7.03-0.45,10.46,0.18" transform="matrix(1,0,0,1,96,-4)" class="stroke_order_diagram--current_path"></path><path id="pathSk940yk7k5vr" kvg:type="㇐" d="M19.83,37.05c3.03,0.92,6.11,0.55,9.19,0.16c10.11-1.27,31.35-4.46,44.5-5.83c3.46-0.36,7.03-0.45,10.46,0.18" transform="matrix(1,0,0,1,96,-4)" class="stroke_order_diagram--current_path"></path><circle cx="19.83" cy="37.05" r="8" class="stroke_order_diagram--path_start" transform="matrix(1,0,0,1,96,-4)"></circle><line x1="250" x2="250" y1="1" y2="99" class="stroke_order_diagram--guide_line"></line><line x1="299" x2="299" y1="1" y2="99" class="stroke_order_diagram--bounding_box"></line><path id="pathSk940yk7k5vu" kvg:type="㇒" d="M65.23,10.73c0,0.77-0.48,1.39-1.77,2.14c-4.44,2.56-16.84,7.14-33.18,10" transform="matrix(1,0,0,1,196,-4)" class="stroke_order_diagram--existing_path"></path><path id="pathSk940yk7k5vv" kvg:type="㇐" d="M19.83,37.05c3.03,0.92,6.11,0.55,9.19,0.16c10.11-1.27,31.35-4.46,44.5-5.83c3.46-0.36,7.03-0.45,10.46,0.18" transform="matrix(1,0,0,1,196,-4)" class="stroke_order_diagram--existing_path"></path><path id="kvg:09999-s3" kvg:type="㇑" d="M52.73,21.06c0.92,0.92,1.08,2.19,1.08,3.85c0,6.46-0.04,16.84-0.04,27.59c0,1.8-0.02,3.57-0.02,5.25" transform="matrix(1,0,0,1,196,-4)" class="stroke_order_diagram--current_path"></path><path id="pathSk940yk7k5vx" kvg:type="㇑" d="M52.73,21.06c0.92,0.92,1.08,2.19,1.08,3.85c0,6.46-0.04,16.84-0.04,27.59c0,1.8-0.02,3.57-0.02,5.25" transform="matrix(1,0,0,1,196,-4)" class="stroke_order_diagram--current_path"></path><circle cx="52.73" cy="21.06" r="8" class="stroke_order_diagram--path_start" transform="matrix(1,0,0,1,196,-4)"></circle><line x1="350" x2="350" y1="1" y2="99" class="stroke_order_diagram--guide_line"></line><line x1="399" x2="399" y1="1" y2="99" class="stroke_order_diagram--bounding_box"></line><path id="pathSk940yk7k5w0" kvg:type="㇒" d="M65.23,10.73c0,0.77-0.48,1.39-1.77,2.14c-4.44,2.56-16.84,7.14-33.18,10" transform="matrix(1,0,0,1,296,-4)" class="stroke_order_diagram--existing_path"></path><path id="pathSk940yk7k5w1" kvg:type="㇐" d="M19.83,37.05c3.03,0.92,6.11,0.55,9.19,0.16c10.11-1.27,31.35-4.46,44.5-5.83c3.46-0.36,7.03-0.45,10.46,0.18" transform="matrix(1,0,0,1,296,-4)" class="stroke_order_diagram--existing_path"></path><path id="pathSk940yk7k5w2" kvg:type="㇑" d="M52.73,21.06c0.92,0.92,1.08,2.19,1.08,3.85c0,6.46-0.04,16.84-0.04,27.59c0,1.8-0.02,3.57-0.02,5.25" transform="matrix(1,0,0,1,296,-4)" class="stroke_order_diagram--existing_path"></path><path id="kvg:09999-s4" kvg:type="㇒" d="M47.98,35.41c0,1.09-0.95,2.31-2.09,3.67c-7.48,8.93-19.42,19.21-31.13,24.39" transform="matrix(1,0,0,1,296,-4)" class="stroke_order_diagram--current_path"></path><path id="pathSk940yk7k5w4" kvg:type="㇒" d="M47.98,35.41c0,1.09-0.95,2.31-2.09,3.67c-7.48,8.93-19.42,19.21-31.13,24.39" transform="matrix(1,0,0,1,296,-4)" class="stroke_order_diagram--current_path"></path><circle cx="47.98" cy="35.41" r="8" class="stroke_order_diagram--path_start" transform="matrix(1,0,0,1,296,-4)"></circle><line x1="450" x2="450" y1="1" y2="99" class="stroke_order_diagram--guide_line"></line><line x1="499" x2="499" y1="1" y2="99" class="stroke_order_diagram--bounding_box"></line><path id="pathSk940yk7k5w7" kvg:type="㇒" d="M65.23,10.73c0,0.77-0.48,1.39-1.77,2.14c-4.44,2.56-16.84,7.14-33.18,10" transform="matrix(1,0,0,1,396,-4)" class="stroke_order_diagram--existing_path"></path><path id="pathSk940yk7k5w8" kvg:type="㇐" d="M19.83,37.05c3.03,0.92,6.11,0.55,9.19,0.16c10.11-1.27,31.35-4.46,44.5-5.83c3.46-0.36,7.03-0.45,10.46,0.18" transform="matrix(1,0,0,1,396,-4)" class="stroke_order_diagram--existing_path"></path><path id="pathSk940yk7k5w9" kvg:type="㇑" d="M52.73,21.06c0.92,0.92,1.08,2.19,1.08,3.85c0,6.46-0.04,16.84-0.04,27.59c0,1.8-0.02,3.57-0.02,5.25" transform="matrix(1,0,0,1,396,-4)" class="stroke_order_diagram--existing_path"></path><path id="pathSk940yk7k5wa" kvg:type="㇒" d="M47.98,35.41c0,1.09-0.95,2.31-2.09,3.67c-7.48,8.93-19.42,19.21-31.13,24.39" transform="matrix(1,0,0,1,396,-4)" class="stroke_order_diagram--existing_path"></path><path id="kvg:09999-s5" kvg:type="㇏" d="M56.04,34.96c4.46,3.79,16.83,13.67,27.53,20.13c2.94,1.78,6.56,3.54,9.68,4.52" transform="matrix(1,0,0,1,396,-4)" class="stroke_order_diagram--current_path"></path><path id="pathSk940yk7k5wc" kvg:type="㇏" d="M56.04,34.96c4.46,3.79,16.83,13.67,27.53,20.13c2.94,1.78,6.56,3.54,9.68,4.52" transform="matrix(1,0,0,1,396,-4)" class="stroke_order_diagram--current_path"></path><circle cx="56.04" cy="34.96" r="8" class="stroke_order_diagram--path_start" transform="matrix(1,0,0,1,396,-4)"></circle><line x1="550" x2="550" y1="1" y2="99" class="stroke_order_diagram--guide_line"></line><line x1="599" x2="599" y1="1" y2="99" class="stroke_order_diagram--bounding_box"></line><path id="pathSk940yk7k5wf" kvg:type="㇒" d="M65.23,10.73c0,0.77-0.48,1.39-1.77,2.14c-4.44,2.56-16.84,7.14-33.18,10" transform="matrix(1,0,0,1,496,-4)" class="stroke_order_diagram--existing_path"></path><path id="pathSk940yk7k5wg" kvg:type="㇐" d="M19.83,37.05c3.03,0.92,6.11,0.55,9.19,0.16c10.11-1.27,31.35-4.46,44.5-5.83c3.46-0.36,7.03-0.45,10.46,0.18" transform="matrix(1,0,0,1,496,-4)" class="stroke_order_diagram--existing_path"></path><path id="pathSk940yk7k5wh" kvg:type="㇑" d="M52.73,21.06c0.92,0.92,1.08,2.19,1.08,3.85c0,6.46-0.04,16.84-0.04,27.59c0,1.8-0.02,3.57-0.02,5.25" transform="matrix(1,0,0,1,496,-4)" class="stroke_order_diagram--existing_path"></path><path id="pathSk940yk7k5wi" kvg:type="㇒" d="M47.98,35.41c0,1.09-0.95,2.31-2.09,3.67c-7.48,8.93-19.42,19.21-31.13,24.39" transform="matrix(1,0,0,1,496,-4)" class="stroke_order_diagram--existing_path"></path><path id="pathSk940yk7k5wj" kvg:type="㇏" d="M56.04,34.96c4.46,3.79,16.83,13.67,27.53,20.13c2.94,1.78,6.56,3.54,9.68,4.52" transform="matrix(1,0,0,1,496,-4)" class="stroke_order_diagram--existing_path"></path><path id="kvg:09999-s6" kvg:type="㇑" d="M33.02,65.47c0.76,0.76,1.42,2.12,1.53,3.07c0.83,7.34,1.84,16.47,2.84,24.76c0.21,1.78,0.43,3.45,0.66,4.95" transform="matrix(1,0,0,1,496,-4)" class="stroke_order_diagram--current_path"></path><path id="pathSk940yk7k5wl" kvg:type="㇑" d="M33.02,65.47c0.76,0.76,1.42,2.12,1.53,3.07c0.83,7.34,1.84,16.47,2.84,24.76c0.21,1.78,0.43,3.45,0.66,4.95" transform="matrix(1,0,0,1,496,-4)" class="stroke_order_diagram--current_path"></path><circle cx="33.02" cy="65.47" r="8" class="stroke_order_diagram--path_start" transform="matrix(1,0,0,1,496,-4)"></circle><line x1="650" x2="650" y1="1" y2="99" class="stroke_order_diagram--guide_line"></line><line x1="699" x2="699" y1="1" y2="99" class="stroke_order_diagram--bounding_box"></line><path id="pathSk940yk7k5wo" kvg:type="㇒" d="M65.23,10.73c0,0.77-0.48,1.39-1.77,2.14c-4.44,2.56-16.84,7.14-33.18,10" transform="matrix(1,0,0,1,596,-4)" class="stroke_order_diagram--existing_path"></path><path id="pathSk940yk7k5wp" kvg:type="㇐" d="M19.83,37.05c3.03,0.92,6.11,0.55,9.19,0.16c10.11-1.27,31.35-4.46,44.5-5.83c3.46-0.36,7.03-0.45,10.46,0.18" transform="matrix(1,0,0,1,596,-4)" class="stroke_order_diagram--existing_path"></path><path id="pathSk940yk7k5wq" kvg:type="㇑" d="M52.73,21.06c0.92,0.92,1.08,2.19,1.08,3.85c0,6.46-0.04,16.84-0.04,27.59c0,1.8-0.02,3.57-0.02,5.25" transform="matrix(1,0,0,1,596,-4)" class="stroke_order_diagram--existing_path"></path><path id="pathSk940yk7k5wr" kvg:type="㇒" d="M47.98,35.41c0,1.09-0.95,2.31-2.09,3.67c-7.48,8.93-19.42,19.21-31.13,24.39" transform="matrix(1,0,0,1,596,-4)" class="stroke_order_diagram--existing_path"></path><path id="pathSk940yk7k5ws" kvg:type="㇏" d="M56.04,34.96c4.46,3.79,16.83,13.67,27.53,20.13c2.94,1.78,6.56,3.54,9.68,4.52" transform="matrix(1,0,0,1,596,-4)" class="stroke_order_diagram--existing_path"></path><path id="pathSk940yk7k5wt" kvg:type="㇑" d="M33.02,65.47c0.76,0.76,1.42,2.12,1.53,3.07c0.83,7.34,1.84,16.47,2.84,24.76c0.21,1.78,0.43,3.45,0.66,4.95" transform="matrix(1,0,0,1,596,-4)" class="stroke_order_diagram--existing_path"></path><path id="kvg:09999-s7" kvg:type="㇕a" d="M35.44,67.59c8.15-1.36,24.31-3.72,36.08-4.79c3.5-0.32,6.77,0.39,6.35,4.71c-0.45,4.67-1.85,15.6-2.74,22.26c-0.3,2.22-0.54,3.97-0.68,4.85" transform="matrix(1,0,0,1,596,-4)" class="stroke_order_diagram--current_path"></path><path id="pathSk940yk7k5wv" kvg:type="㇕a" d="M35.44,67.59c8.15-1.36,24.31-3.72,36.08-4.79c3.5-0.32,6.77,0.39,6.35,4.71c-0.45,4.67-1.85,15.6-2.74,22.26c-0.3,2.22-0.54,3.97-0.68,4.85" transform="matrix(1,0,0,1,596,-4)" class="stroke_order_diagram--current_path"></path><circle cx="35.44" cy="67.59" r="8" class="stroke_order_diagram--path_start" transform="matrix(1,0,0,1,596,-4)"></circle><line x1="750" x2="750" y1="1" y2="99" class="stroke_order_diagram--guide_line"></line><line x1="799" x2="799" y1="1" y2="99" class="stroke_order_diagram--bounding_box"></line><path id="pathSk940yk7k5wy" kvg:type="㇒" d="M65.23,10.73c0,0.77-0.48,1.39-1.77,2.14c-4.44,2.56-16.84,7.14-33.18,10" transform="matrix(1,0,0,1,696,-4)" class="stroke_order_diagram--existing_path"></path><path id="pathSk940yk7k5wz" kvg:type="㇐" d="M19.83,37.05c3.03,0.92,6.11,0.55,9.19,0.16c10.11-1.27,31.35-4.46,44.5-5.83c3.46-0.36,7.03-0.45,10.46,0.18" transform="matrix(1,0,0,1,696,-4)" class="stroke_order_diagram--existing_path"></path><path id="pathSk940yk7k5x0" kvg:type="㇑" d="M52.73,21.06c0.92,0.92,1.08,2.19,1.08,3.85c0,6.46-0.04,16.84-0.04,27.59c0,1.8-0.02,3.57-0.02,5.25" transform="matrix(1,0,0,1,696,-4)" class="stroke_order_diagram--existing_path"></path><path id="pathSk940yk7k5x1" kvg:type="㇒" d="M47.98,35.41c0,1.09-0.95,2.31-2.09,3.67c-7.48,8.93-19.42,19.21-31.13,24.39" transform="matrix(1,0,0,1,696,-4)" class="stroke_order_diagram--existing_path"></path><path id="pathSk940yk7k5x2" kvg:type="㇏" d="M56.04,34.96c4.46,3.79,16.83,13.67,27.53,20.13c2.94,1.78,6.56,3.54,9.68,4.52" transform="matrix(1,0,0,1,696,-4)" class="stroke_order_diagram--existing_path"></path><path id="pathSk940yk7k5x3" kvg:type="㇑" d="M33.02,65.47c0.76,0.76,1.42,2.12,1.53,3.07c0.83,7.34,1.84,16.47,2.84,24.76c0.21,1.78,0.43,3.45,0.66,4.95" transform="matrix(1,0,0,1,696,-4)" class="stroke_order_diagram--existing_path"></path><path id="pathSk940yk7k5x4" kvg:type="㇕a" d="M35.44,67.59c8.15-1.36,24.31-3.72,36.08-4.79c3.5-0.32,6.77,0.39,6.35,4.71c-0.45,4.67-1.85,15.6-2.74,22.26c-0.3,2.22-0.54,3.97-0.68,4.85" transform="matrix(1,0,0,1,696,-4)" class="stroke_order_diagram--existing_path"></path><path id="kvg:09999-s8" kvg:type="㇐a" d="M36.58,80.52c8.29-0.9,31.17-3.65,39.22-4.11" transform="matrix(1,0,0,1,696,-4)" class="stroke_order_diagram--current_path"></path><path id="pathSk940yk7k5x6" kvg:type="㇐a" d="M36.58,80.52c8.29-0.9,31.17-3.65,39.22-4.11" transform="matrix(1,0,0,1,696,-4)" class="stroke_order_diagram--current_path"></path><circle cx="36.58" cy="80.52" r="8" class="stroke_order_diagram--path_start" transform="matrix(1,0,0,1,696,-4)"></circle><line x1="850" x2="850" y1="1" y2="99" class="stroke_order_diagram--guide_line"></line><line x1="899" x2="899" y1="1" y2="99" class="stroke_order_diagram--bounding_box"></line><path id="pathSk940yk7k5x9" kvg:type="㇒" d="M65.23,10.73c0,0.77-0.48,1.39-1.77,2.14c-4.44,2.56-16.84,7.14-33.18,10" transform="matrix(1,0,0,1,796,-4)" class="stroke_order_diagram--existing_path"></path><path id="pathSk940yk7k5xa" kvg:type="㇐" d="M19.83,37.05c3.03,0.92,6.11,0.55,9.19,0.16c10.11-1.27,31.35-4.46,44.5-5.83c3.46-0.36,7.03-0.45,10.46,0.18" transform="matrix(1,0,0,1,796,-4)" class="stroke_order_diagram--existing_path"></path><path id="pathSk940yk7k5xb" kvg:type="㇑" d="M52.73,21.06c0.92,0.92,1.08,2.19,1.08,3.85c0,6.46-0.04,16.84-0.04,27.59c0,1.8-0.02,3.57-0.02,5.25" transform="matrix(1,0,0,1,796,-4)" class="stroke_order_diagram--existing_path"></path><path id="pathSk940yk7k5xc" kvg:type="㇒" d="M47.98,35.41c0,1.09-0.95,2.31-2.09,3.67c-7.48,8.93-19.42,19.21-31.13,24.39" transform="matrix(1,0,0,1,796,-4)" class="stroke_order_diagram--existing_path"></path><path id="pathSk940yk7k5xd" kvg:type="㇏" d="M56.04,34.96c4.46,3.79,16.83,13.67,27.53,20.13c2.94,1.78,6.56,3.54,9.68,4.52" transform="matrix(1,0,0,1,796,-4)" class="stroke_order_diagram--existing_path"></path><path id="pathSk940yk7k5xe" kvg:type="㇑" d="M33.02,65.47c0.76,0.76,1.42,2.12,1.53,3.07c0.83,7.34,1.84,16.47,2.84,24.76c0.21,1.78,0.43,3.45,0.66,4.95" transform="matrix(1,0,0,1,796,-4)" class="stroke_order_diagram--existing_path"></path><path id="pathSk940yk7k5xf" kvg:type="㇕a" d="M35.44,67.59c8.15-1.36,24.31-3.72,36.08-4.79c3.5-0.32,6.77,0.39,6.35,4.71c-0.45,4.67-1.85,15.6-2.74,22.26c-0.3,2.22-0.54,3.97-0.68,4.85" transform="matrix(1,0,0,1,796,-4)" class="stroke_order_diagram--existing_path"></path><path id="pathSk940yk7k5xg" kvg:type="㇐a" d="M36.58,80.52c8.29-0.9,31.17-3.65,39.22-4.11" transform="matrix(1,0,0,1,796,-4)" class="stroke_order_diagram--existing_path"></path><path id="kvg:09999-s9" kvg:type="㇐a" d="M38.44,94.26C46.12,93.5,63.88,92,74.29,91.4" transform="matrix(1,0,0,1,796,-4)" class="stroke_order_diagram--current_path"></path><path id="pathSk940yk7k5xi" kvg:type="㇐a" d="M38.44,94.26C46.12,93.5,63.88,92,74.29,91.4" transform="matrix(1,0,0,1,796,-4)" class="stroke_order_diagram--current_path"></path><circle cx="38.44" cy="94.26" r="8" class="stroke_order_diagram--path_start" transform="matrix(1,0,0,1,796,-4)"></circle></svg>