<?xml version="1.0" encoding="UTF-8"?>
<!DOCTYPE svg PUBLIC "-//W3C//DTD SVG 1.0//EN" "http://www.w3.org/TR/2001/REC-SVG-20010904/DTD/svg10.dtd" [
<!ATTLIST g
xmlns:kvg CDATA #FIXED "http://kanjivg.tagaini.net"
kvg:element CDATA #IMPLIED
kvg:variant CDATA #IMPLIED
kvg:partial CDATA #IMPLIED
kvg:original CDATA #IMPLIED
kvg:part CDATA #IMPLIED
kvg:number CDATA #IMPLIED
kvg:tradForm CDATA #IMPLIED
kvg:radicalForm CDATA #IMPLIED
kvg:position CDATA #IMPLIED
kvg:radical CDATA #IMPLIED
kvg:phon CDATA #IMPLIED >
<!ATTLIST path
xmlns:kvg CDATA #FIXED "http://kanjivg.tagaini.net"
kvg:type CDATA #IMPLIED >
]><svg style="width: 1000px; height: 100px;" xmlns="http://www.w3.org/2000/svg" xmlns:xlink="http://www.w3.org/1999/xlink" width="1000px" height="100px"><style>
.stroke_order_diagram--outer_container {
  width: 100%;
  overflow-x: auto;
  overflow-y: hidden;
}

.stroke_order_diagram--guide_line {
  fill: none;
  stroke: #ddd;
  stroke-width: 3;
  stroke-linecap: square;
  stroke-linejoin: square;
  stroke-dasharray:8, 8;
}

.stroke_order_diagram--bounding_box {
  fill: none;
  stroke: #ddd;
  stroke-width: 4;
  stroke-linecap: square;
  stroke-linejoin: square;
}

.stroke_order_diagram--current_path {
  fill: none;
  stroke: #000;
  stroke-width: 6;
  stroke-linecap: round;
  stroke-linejoin: round;
}

.stroke_order_diagram--existing_path {
  fill: none;
  stroke: #aaa;
  stroke-width: 6;
  stroke-linecap: round;
  stroke-linejoin:round;
}

.stroke_order_diagram--path_start {
  fill: rgba(255, 0, 0, 0.7);
  stroke:none
}</style><desc>Created with Snap</desc><defs></defs><line x1="1" x2="999" y1="1" y2="1" class="stroke_order_diagram--bounding_box"></line><line x1="1" x2="1" y1="1" y2="99" class="stroke_order_diagram--bounding_box"></line><line x1="1" x2="999" y1="99" y2="99" class="stroke_order_diagram--bounding_box"></line><line x1="0" x2="1000" y1="50" y2="50" class="stroke_order_diagram--guide_line"></line><line x1="50" x2="50" y1="1" y2="99" class="stroke_order_diagram--guide_line"></line><line x1="99" x2="99" y1="1" y2="99" class="stroke_order_diagram--bounding_box"></line><path id="kvg:099ac-s1" kvg:type="㇑" d="M28.5,17c0.75,1,1.2,2.25,1.2,3.62c0,5.72,0.04,26.84-0.13,39.38c-0.03,2-0.06,3.76-0.1,5.2" transform="matrix(1,0,0,1,-4,-4)" class="stroke_order_diagram--current_path"></path><path id="pathSk940yk7k5y2" kvg:type="㇑" d="M28.5,17c0.75,1,1.2,2.25,1.2,3.62c0,5.72,0.04,26.84-0.13,39.38c-0.03,2-0.06,3.76-0.1,5.2" transform="matrix(1,0,0,1,-4,-4)" class="stroke_order_diagram--current_path"></path><circle cx="28.5" cy="17" r="8" class="stroke_order_diagram--path_start" transform="matrix(1,0,0,1,-4,-4)"></circle><line x1="150" x2="150" y1="1" y2="99" class="stroke_order_diagram--guide_line"></line><line x1="199" x2="199" y1="1" y2="99" class="stroke_order_diagram--bounding_box"></line><path id="pathSk940yk7k5y5" kvg:type="㇑" d="M28.5,17c0.75,1,1.2,2.25,1.2,3.62c0,5.72,0.04,26.84-0.13,39.38c-0.03,2-0.06,3.76-0.1,5.2" transform="matrix(1,0,0,1,96,-4)" class="stroke_order_diagram--existing_path"></path><path id="kvg:099ac-s2" kvg:type="㇐b" d="M31.03,19.3c11.22-1.3,37.4-4.84,42.22-5.55c1.68-0.25,4.53-0.53,5.38-0.35" transform="matrix(1,0,0,1,96,-4)" class="stroke_order_diagram--current_path"></path><path id="pathSk940yk7k5y7" kvg:type="㇐b" d="M31.03,19.3c11.22-1.3,37.4-4.84,42.22-5.55c1.68-0.25,4.53-0.53,5.38-0.35" transform="matrix(1,0,0,1,96,-4)" class="stroke_order_diagram--current_path"></path><circle cx="31.03" cy="19.3" r="8" class="stroke_order_diagram--path_start" transform="matrix(1,0,0,1,96,-4)"></circle><line x1="250" x2="250" y1="1" y2="99" class="stroke_order_diagram--guide_line"></line><line x1="299" x2="299" y1="1" y2="99" class="stroke_order_diagram--bounding_box"></line><path id="pathSk940yk7k5ya" kvg:type="㇑" d="M28.5,17c0.75,1,1.2,2.25,1.2,3.62c0,5.72,0.04,26.84-0.13,39.38c-0.03,2-0.06,3.76-0.1,5.2" transform="matrix(1,0,0,1,196,-4)" class="stroke_order_diagram--existing_path"></path><path id="pathSk940yk7k5yb" kvg:type="㇐b" d="M31.03,19.3c11.22-1.3,37.4-4.84,42.22-5.55c1.68-0.25,4.53-0.53,5.38-0.35" transform="matrix(1,0,0,1,196,-4)" class="stroke_order_diagram--existing_path"></path><path id="kvg:099ac-s3" kvg:type="㇑a" d="M53.13,17.82c0.62,1.18,0.82,2.18,0.82,3.55c0,6.64-0.23,28.88-0.23,39.08" transform="matrix(1,0,0,1,196,-4)" class="stroke_order_diagram--current_path"></path><path id="pathSk940yk7k5yd" kvg:type="㇑a" d="M53.13,17.82c0.62,1.18,0.82,2.18,0.82,3.55c0,6.64-0.23,28.88-0.23,39.08" transform="matrix(1,0,0,1,196,-4)" class="stroke_order_diagram--current_path"></path><circle cx="53.13" cy="17.82" r="8" class="stroke_order_diagram--path_start" transform="matrix(1,0,0,1,196,-4)"></circle><line x1="350" x2="350" y1="1" y2="99" class="stroke_order_diagram--guide_line"></line><line x1="399" x2="399" y1="1" y2="99" class="stroke_order_diagram--bounding_box"></line><path id="pathSk940yk7k5yg" kvg:type="㇑" d="M28.5,17c0.75,1,1.2,2.25,1.2,3.62c0,5.72,0.04,26.84-0.13,39.38c-0.03,2-0.06,3.76-0.1,5.2" transform="matrix(1,0,0,1,296,-4)" class="stroke_order_diagram--existing_path"></path><path id="pathSk940yk7k5yh" kvg:type="㇐b" d="M31.03,19.3c11.22-1.3,37.4-4.84,42.22-5.55c1.68-0.25,4.53-0.53,5.38-0.35" transform="matrix(1,0,0,1,296,-4)" class="stroke_order_diagram--existing_path"></path><path id="pathSk940yk7k5yi" kvg:type="㇑a" d="M53.13,17.82c0.62,1.18,0.82,2.18,0.82,3.55c0,6.64-0.23,28.88-0.23,39.08" transform="matrix(1,0,0,1,296,-4)" class="stroke_order_diagram--existing_path"></path><path id="kvg:099ac-s4" kvg:type="㇐b" d="M30.78,33.8C42,32.5,66.44,29.71,71.25,29c1.68-0.25,4.53-0.53,5.38-0.35" transform="matrix(1,0,0,1,296,-4)" class="stroke_order_diagram--current_path"></path><path id="pathSk940yk7k5yk" kvg:type="㇐b" d="M30.78,33.8C42,32.5,66.44,29.71,71.25,29c1.68-0.25,4.53-0.53,5.38-0.35" transform="matrix(1,0,0,1,296,-4)" class="stroke_order_diagram--current_path"></path><circle cx="30.78" cy="33.8" r="8" class="stroke_order_diagram--path_start" transform="matrix(1,0,0,1,296,-4)"></circle><line x1="450" x2="450" y1="1" y2="99" class="stroke_order_diagram--guide_line"></line><line x1="499" x2="499" y1="1" y2="99" class="stroke_order_diagram--bounding_box"></line><path id="pathSk940yk7k5yn" kvg:type="㇑" d="M28.5,17c0.75,1,1.2,2.25,1.2,3.62c0,5.72,0.04,26.84-0.13,39.38c-0.03,2-0.06,3.76-0.1,5.2" transform="matrix(1,0,0,1,396,-4)" class="stroke_order_diagram--existing_path"></path><path id="pathSk940yk7k5yo" kvg:type="㇐b" d="M31.03,19.3c11.22-1.3,37.4-4.84,42.22-5.55c1.68-0.25,4.53-0.53,5.38-0.35" transform="matrix(1,0,0,1,396,-4)" class="stroke_order_diagram--existing_path"></path><path id="pathSk940yk7k5yp" kvg:type="㇑a" d="M53.13,17.82c0.62,1.18,0.82,2.18,0.82,3.55c0,6.64-0.23,28.88-0.23,39.08" transform="matrix(1,0,0,1,396,-4)" class="stroke_order_diagram--existing_path"></path><path id="pathSk940yk7k5yq" kvg:type="㇐b" d="M30.78,33.8C42,32.5,66.44,29.71,71.25,29c1.68-0.25,4.53-0.53,5.38-0.35" transform="matrix(1,0,0,1,396,-4)" class="stroke_order_diagram--existing_path"></path><path id="kvg:099ac-s5" kvg:type="㇐b" d="M30.78,48.05C42,46.75,66.69,43.71,71.5,43c1.68-0.25,4.53-0.53,5.38-0.35" transform="matrix(1,0,0,1,396,-4)" class="stroke_order_diagram--current_path"></path><path id="pathSk940yk7k5ys" kvg:type="㇐b" d="M30.78,48.05C42,46.75,66.69,43.71,71.5,43c1.68-0.25,4.53-0.53,5.38-0.35" transform="matrix(1,0,0,1,396,-4)" class="stroke_order_diagram--current_path"></path><circle cx="30.78" cy="48.05" r="8" class="stroke_order_diagram--path_start" transform="matrix(1,0,0,1,396,-4)"></circle><line x1="550" x2="550" y1="1" y2="99" class="stroke_order_diagram--guide_line"></line><line x1="599" x2="599" y1="1" y2="99" class="stroke_order_diagram--bounding_box"></line><path id="pathSk940yk7k5yv" kvg:type="㇑" d="M28.5,17c0.75,1,1.2,2.25,1.2,3.62c0,5.72,0.04,26.84-0.13,39.38c-0.03,2-0.06,3.76-0.1,5.2" transform="matrix(1,0,0,1,496,-4)" class="stroke_order_diagram--existing_path"></path><path id="pathSk940yk7k5yw" kvg:type="㇐b" d="M31.03,19.3c11.22-1.3,37.4-4.84,42.22-5.55c1.68-0.25,4.53-0.53,5.38-0.35" transform="matrix(1,0,0,1,496,-4)" class="stroke_order_diagram--existing_path"></path><path id="pathSk940yk7k5yx" kvg:type="㇑a" d="M53.13,17.82c0.62,1.18,0.82,2.18,0.82,3.55c0,6.64-0.23,28.88-0.23,39.08" transform="matrix(1,0,0,1,496,-4)" class="stroke_order_diagram--existing_path"></path><path id="pathSk940yk7k5yy" kvg:type="㇐b" d="M30.78,33.8C42,32.5,66.44,29.71,71.25,29c1.68-0.25,4.53-0.53,5.38-0.35" transform="matrix(1,0,0,1,496,-4)" class="stroke_order_diagram--existing_path"></path><path id="pathSk940yk7k5yz" kvg:type="㇐b" d="M30.78,48.05C42,46.75,66.69,43.71,71.5,43c1.68-0.25,4.53-0.53,5.38-0.35" transform="matrix(1,0,0,1,496,-4)" class="stroke_order_diagram--existing_path"></path><path id="kvg:099ac-s6" kvg:type="㇆a" d="M30.73,63.53C44,62,78.04,57.88,85.9,57.01c5.12-0.57,7.34,2.58,6.82,6.53c-1.48,11.21-4.23,19.71-7.48,27.21c-4.45,10.27-6.5,5.5-11.7,0.2" transform="matrix(1,0,0,1,496,-4)" class="stroke_order_diagram--current_path"></path><path id="pathSk940yk7k5z1" kvg:type="㇆a" d="M30.73,63.53C44,62,78.04,57.88,85.9,57.01c5.12-0.57,7.34,2.58,6.82,6.53c-1.48,11.21-4.23,19.71-7.48,27.21c-4.45,10.27-6.5,5.5-11.7,0.2" transform="matrix(1,0,0,1,496,-4)" class="stroke_order_diagram--current_path"></path><circle cx="30.73" cy="63.53" r="8" class="stroke_order_diagram--path_start" transform="matrix(1,0,0,1,496,-4)"></circle><line x1="650" x2="650" y1="1" y2="99" class="stroke_order_diagram--guide_line"></line><line x1="699" x2="699" y1="1" y2="99" class="stroke_order_diagram--bounding_box"></line><path id="pathSk940yk7k5z4" kvg:type="㇑" d="M28.5,17c0.75,1,1.2,2.25,1.2,3.62c0,5.72,0.04,26.84-0.13,39.38c-0.03,2-0.06,3.76-0.1,5.2" transform="matrix(1,0,0,1,596,-4)" class="stroke_order_diagram--existing_path"></path><path id="pathSk940yk7k5z5" kvg:type="㇐b" d="M31.03,19.3c11.22-1.3,37.4-4.84,42.22-5.55c1.68-0.25,4.53-0.53,5.38-0.35" transform="matrix(1,0,0,1,596,-4)" class="stroke_order_diagram--existing_path"></path><path id="pathSk940yk7k5z6" kvg:type="㇑a" d="M53.13,17.82c0.62,1.18,0.82,2.18,0.82,3.55c0,6.64-0.23,28.88-0.23,39.08" transform="matrix(1,0,0,1,596,-4)" class="stroke_order_diagram--existing_path"></path><path id="pathSk940yk7k5z7" kvg:type="㇐b" d="M30.78,33.8C42,32.5,66.44,29.71,71.25,29c1.68-0.25,4.53-0.53,5.38-0.35" transform="matrix(1,0,0,1,596,-4)" class="stroke_order_diagram--existing_path"></path><path id="pathSk940yk7k5z8" kvg:type="㇐b" d="M30.78,48.05C42,46.75,66.69,43.71,71.5,43c1.68-0.25,4.53-0.53,5.38-0.35" transform="matrix(1,0,0,1,596,-4)" class="stroke_order_diagram--existing_path"></path><path id="pathSk940yk7k5z9" kvg:type="㇆a" d="M30.73,63.53C44,62,78.04,57.88,85.9,57.01c5.12-0.57,7.34,2.58,6.82,6.53c-1.48,11.21-4.23,19.71-7.48,27.21c-4.45,10.27-6.5,5.5-11.7,0.2" transform="matrix(1,0,0,1,596,-4)" class="stroke_order_diagram--existing_path"></path><path id="kvg:099ac-s7" kvg:type="㇔" d="M17.31,76.25c0.44,6-0.31,13.25-1.6,17" transform="matrix(1,0,0,1,596,-4)" class="stroke_order_diagram--current_path"></path><path id="pathSk940yk7k5zb" kvg:type="㇔" d="M17.31,76.25c0.44,6-0.31,13.25-1.6,17" transform="matrix(1,0,0,1,596,-4)" class="stroke_order_diagram--current_path"></path><circle cx="17.31" cy="76.25" r="8" class="stroke_order_diagram--path_start" transform="matrix(1,0,0,1,596,-4)"></circle><line x1="750" x2="750" y1="1" y2="99" class="stroke_order_diagram--guide_line"></line><line x1="799" x2="799" y1="1" y2="99" class="stroke_order_diagram--bounding_box"></line><path id="pathSk940yk7k5ze" kvg:type="㇑" d="M28.5,17c0.75,1,1.2,2.25,1.2,3.62c0,5.72,0.04,26.84-0.13,39.38c-0.03,2-0.06,3.76-0.1,5.2" transform="matrix(1,0,0,1,696,-4)" class="stroke_order_diagram--existing_path"></path><path id="pathSk940yk7k5zf" kvg:type="㇐b" d="M31.03,19.3c11.22-1.3,37.4-4.84,42.22-5.55c1.68-0.25,4.53-0.53,5.38-0.35" transform="matrix(1,0,0,1,696,-4)" class="stroke_order_diagram--existing_path"></path><path id="pathSk940yk7k5zg" kvg:type="㇑a" d="M53.13,17.82c0.62,1.18,0.82,2.18,0.82,3.55c0,6.64-0.23,28.88-0.23,39.08" transform="matrix(1,0,0,1,696,-4)" class="stroke_order_diagram--existing_path"></path><path id="pathSk940yk7k5zh" kvg:type="㇐b" d="M30.78,33.8C42,32.5,66.44,29.71,71.25,29c1.68-0.25,4.53-0.53,5.38-0.35" transform="matrix(1,0,0,1,696,-4)" class="stroke_order_diagram--existing_path"></path><path id="pathSk940yk7k5zi" kvg:type="㇐b" d="M30.78,48.05C42,46.75,66.69,43.71,71.5,43c1.68-0.25,4.53-0.53,5.38-0.35" transform="matrix(1,0,0,1,696,-4)" class="stroke_order_diagram--existing_path"></path><path id="pathSk940yk7k5zj" kvg:type="㇆a" d="M30.73,63.53C44,62,78.04,57.88,85.9,57.01c5.12-0.57,7.34,2.58,6.82,6.53c-1.48,11.21-4.23,19.71-7.48,27.21c-4.45,10.27-6.5,5.5-11.7,0.2" transform="matrix(1,0,0,1,696,-4)" class="stroke_order_diagram--existing_path"></path><path id="pathSk940yk7k5zk" kvg:type="㇔" d="M17.31,76.25c0.44,6-0.31,13.25-1.6,17" transform="matrix(1,0,0,1,696,-4)" class="stroke_order_diagram--existing_path"></path><path id="kvg:099ac-s8" kvg:type="㇔" d="M33.75,74.25c2.55,2.65,4.98,9.93,5.62,14.05" transform="matrix(1,0,0,1,696,-4)" class="stroke_order_diagram--current_path"></path><path id="pathSk940yk7k5zm" kvg:type="㇔" d="M33.75,74.25c2.55,2.65,4.98,9.93,5.62,14.05" transform="matrix(1,0,0,1,696,-4)" class="stroke_order_diagram--current_path"></path><circle cx="33.75" cy="74.25" r="8" class="stroke_order_diagram--path_start" transform="matrix(1,0,0,1,696,-4)"></circle><line x1="850" x2="850" y1="1" y2="99" class="stroke_order_diagram--guide_line"></line><line x1="899" x2="899" y1="1" y2="99" class="stroke_order_diagram--bounding_box"></line><path id="pathSk940yk7k5zp" kvg:type="㇑" d="M28.5,17c0.75,1,1.2,2.25,1.2,3.62c0,5.72,0.04,26.84-0.13,39.38c-0.03,2-0.06,3.76-0.1,5.2" transform="matrix(1,0,0,1,796,-4)" class="stroke_order_diagram--existing_path"></path><path id="pathSk940yk7k5zq" kvg:type="㇐b" d="M31.03,19.3c11.22-1.3,37.4-4.84,42.22-5.55c1.68-0.25,4.53-0.53,5.38-0.35" transform="matrix(1,0,0,1,796,-4)" class="stroke_order_diagram--existing_path"></path><path id="pathSk940yk7k5zr" kvg:type="㇑a" d="M53.13,17.82c0.62,1.18,0.82,2.18,0.82,3.55c0,6.64-0.23,28.88-0.23,39.08" transform="matrix(1,0,0,1,796,-4)" class="stroke_order_diagram--existing_path"></path><path id="pathSk940yk7k5zs" kvg:type="㇐b" d="M30.78,33.8C42,32.5,66.44,29.71,71.25,29c1.68-0.25,4.53-0.53,5.38-0.35" transform="matrix(1,0,0,1,796,-4)" class="stroke_order_diagram--existing_path"></path><path id="pathSk940yk7k5zt" kvg:type="㇐b" d="M30.78,48.05C42,46.75,66.69,43.71,71.5,43c1.68-0.25,4.53-0.53,5.38-0.35" transform="matrix(1,0,0,1,796,-4)" class="stroke_order_diagram--existing_path"></path><path id="pathSk940yk7k5zu" kvg:type="㇆a" d="M30.73,63.53C44,62,78.04,57.88,85.9,57.01c5.12-0.57,7.34,2.58,6.82,6.53c-1.48,11.21-4.23,19.71-7.48,27.21c-4.45,10.27-6.5,5.5-11.7,0.2" transform="matrix(1,0,0,1,796,-4)" class="stroke_order_diagram--existing_path"></path><path id="pathSk940yk7k5zv" kvg:type="㇔" d="M17.31,76.25c0.44,6-0.31,13.25-1.6,17" transform="matrix(1,0,0,1,796,-4)" class="stroke_order_diagram--existing_path"></path><path id="pathSk940yk7k5zw" kvg:type="㇔" d="M33.75,74.25c2.55,2.65,4.98,9.93,5.62,14.05" transform="matrix(1,0,0,1,796,-4)" class="stroke_order_diagram--existing_path"></path><path id="kvg:099ac-s9" kvg:type="㇔" d="M51,71c2.03,2.22,5.25,9.12,5.76,12.58" transform="matrix(1,0,0,1,796,-4)" class="stroke_order_diagram--current_path"></path><path id="pathSk940yk7k5zy" kvg:type="㇔" d="M51,71c2.03,2.22,5.25,9.12,5.76,12.58" transform="matrix(1,0,0,1,796,-4)" class="stroke_order_diagram--current_path"></path><circle cx="51" cy="71" r="8" class="stroke_order_diagram--path_start" transform="matrix(1,0,0,1,796,-4)"></circle><line x1="950" x2="950" y1="1" y2="99" class="stroke_order_diagram--guide_line"></line><line x1="999" x2="999" y1="1" y2="99" class="stroke_order_diagram--bounding_box"></line><path id="pathSk940yk7k601" kvg:type="㇑" d="M28.5,17c0.75,1,1.2,2.25,1.2,3.62c0,5.72,0.04,26.84-0.13,39.38c-0.03,2-0.06,3.76-0.1,5.2" transform="matrix(1,0,0,1,896,-4)" class="stroke_order_diagram--existing_path"></path><path id="pathSk940yk7k602" kvg:type="㇐b" d="M31.03,19.3c11.22-1.3,37.4-4.84,42.22-5.55c1.68-0.25,4.53-0.53,5.38-0.35" transform="matrix(1,0,0,1,896,-4)" class="stroke_order_diagram--existing_path"></path><path id="pathSk940yk7k603" kvg:type="㇑a" d="M53.13,17.82c0.62,1.18,0.82,2.18,0.82,3.55c0,6.64-0.23,28.88-0.23,39.08" transform="matrix(1,0,0,1,896,-4)" class="stroke_order_diagram--existing_path"></path><path id="pathSk940yk7k604" kvg:type="㇐b" d="M30.78,33.8C42,32.5,66.44,29.71,71.25,29c1.68-0.25,4.53-0.53,5.38-0.35" transform="matrix(1,0,0,1,896,-4)" class="stroke_order_diagram--existing_path"></path><path id="pathSk940yk7k605" kvg:type="㇐b" d="M30.78,48.05C42,46.75,66.69,43.71,71.5,43c1.68-0.25,4.53-0.53,5.38-0.35" transform="matrix(1,0,0,1,896,-4)" class="stroke_order_diagram--existing_path"></path><path id="pathSk940yk7k606" kvg:type="㇆a" d="M30.73,63.53C44,62,78.04,57.88,85.9,57.01c5.12-0.57,7.34,2.58,6.82,6.53c-1.48,11.21-4.23,19.71-7.48,27.21c-4.45,10.27-6.5,5.5-11.7,0.2" transform="matrix(1,0,0,1,896,-4)" class="stroke_order_diagram--existing_path"></path><path id="pathSk940yk7k607" kvg:type="㇔" d="M17.31,76.25c0.44,6-0.31,13.25-1.6,17" transform="matrix(1,0,0,1,896,-4)" class="stroke_order_diagram--existing_path"></path><path id="pathSk940yk7k608" kvg:type="㇔" d="M33.75,74.25c2.55,2.65,4.98,9.93,5.62,14.05" transform="matrix(1,0,0,1,896,-4)" class="stroke_order_diagram--existing_path"></path><path id="pathSk940yk7k609" kvg:type="㇔" d="M51,71c2.03,2.22,5.25,9.12,5.76,12.58" transform="matrix(1,0,0,1,896,-4)" class="stroke_order_diagram--existing_path"></path><path id="kvg:099ac-s10" kvg:type="㇔" d="M68.25,67.75c2.74,2.14,7.07,8.78,7.75,12.1" transform="matrix(1,0,0,1,896,-4)" class="stroke_order_diagram--current_path"></path><path id="pathSk940yk7k60b" kvg:type="㇔" d="M68.25,67.75c2.74,2.14,7.07,8.78,7.75,12.1" transform="matrix(1,0,0,1,896,-4)" class="stroke_order_diagram--current_path"></path><circle cx="68.25" cy="67.75" r="8" class="stroke_order_diagram--path_start" transform="matrix(1,0,0,1,896,-4)"></circle></svg>