<?xml version="1.0" encoding="UTF-8"?>
<!DOCTYPE svg PUBLIC "-//W3C//DTD SVG 1.0//EN" "http://www.w3.org/TR/2001/REC-SVG-20010904/DTD/svg10.dtd" [
<!ATTLIST g
xmlns:kvg CDATA #FIXED "http://kanjivg.tagaini.net"
kvg:element CDATA #IMPLIED
kvg:variant CDATA #IMPLIED
kvg:partial CDATA #IMPLIED
kvg:original CDATA #IMPLIED
kvg:part CDATA #IMPLIED
kvg:number CDATA #IMPLIED
kvg:tradForm CDATA #IMPLIED
kvg:radicalForm CDATA #IMPLIED
kvg:position CDATA #IMPLIED
kvg:radical CDATA #IMPLIED
kvg:phon CDATA #IMPLIED >
<!ATTLIST path
xmlns:kvg CDATA #FIXED "http://kanjivg.tagaini.net"
kvg:type CDATA #IMPLIED >
]><svg style="width: 1000px; height: 100px;" xmlns="http://www.w3.org/2000/svg" xmlns:xlink="http://www.w3.org/1999/xlink" width="1000px" height="100px"><style>
.stroke_order_diagram--outer_container {
  width: 100%;
  overflow-x: auto;
  overflow-y: hidden;
}

.stroke_order_diagram--guide_line {
  fill: none;
  stroke: #ddd;
  stroke-width: 3;
  stroke-linecap: square;
  stroke-linejoin: square;
  stroke-dasharray:8, 8;
}

.stroke_order_diagram--bounding_box {
  fill: none;
  stroke: #ddd;
  stroke-width: 4;
  stroke-linecap: square;
  stroke-linejoin: square;
}

.stroke_order_diagram--current_path {
  fill: none;
  stroke: #000;
  stroke-width: 6;
  stroke-linecap: round;
  stroke-linejoin: round;
}

.stroke_order_diagram--existing_path {
  fill: none;
  stroke: #aaa;
  stroke-width: 6;
  stroke-linecap: round;
  stroke-linejoin:round;
}

.stroke_order_diagram--path_start {
  fill: rgba(255, 0, 0, 0.7);
  stroke:none
}</style><desc>Created with Snap</desc><defs></defs><line x1="1" x2="999" y1="1" y2="1" class="stroke_order_diagram--bounding_box"></line><line x1="1" x2="1" y1="1" y2="99" class="stroke_order_diagram--bounding_box"></line><line x1="1" x2="999" y1="99" y2="99" class="stroke_order_diagram--bounding_box"></line><line x1="0" x2="1000" y1="50" y2="50" class="stroke_order_diagram--guide_line"></line><line x1="50" x2="50" y1="1" y2="99" class="stroke_order_diagram--guide_line"></line><line x1="99" x2="99" y1="1" y2="99" class="stroke_order_diagram--bounding_box"></line><path id="kvg:09aa8-s1" kvg:type="㇑a" d="M34.77,12.12c0.81,0.81,1.43,1.88,1.43,3.15c0,2.62-0.06,19.72-0.06,24.05" transform="matrix(1,0,0,1,-4,-4)" class="stroke_order_diagram--current_path"></path><path id="pathSk940yk7k60v" kvg:type="㇑a" d="M34.77,12.12c0.81,0.81,1.43,1.88,1.43,3.15c0,2.62-0.06,19.72-0.06,24.05" transform="matrix(1,0,0,1,-4,-4)" class="stroke_order_diagram--current_path"></path><circle cx="34.77" cy="12.12" r="8" class="stroke_order_diagram--path_start" transform="matrix(1,0,0,1,-4,-4)"></circle><line x1="150" x2="150" y1="1" y2="99" class="stroke_order_diagram--guide_line"></line><line x1="199" x2="199" y1="1" y2="99" class="stroke_order_diagram--bounding_box"></line><path id="pathSk940yk7k60y" kvg:type="㇑a" d="M34.77,12.12c0.81,0.81,1.43,1.88,1.43,3.15c0,2.62-0.06,19.72-0.06,24.05" transform="matrix(1,0,0,1,96,-4)" class="stroke_order_diagram--existing_path"></path><path id="kvg:09aa8-s2" kvg:type="㇕b" d="M36.97,13.97c3.71-0.42,24.17-2.89,30.16-3.35c3.24-0.25,4.6,0.68,4.58,3.5c-0.04,4.33-0.21,13.5-0.21,21.27" transform="matrix(1,0,0,1,96,-4)" class="stroke_order_diagram--current_path"></path><path id="pathSk940yk7k610" kvg:type="㇕b" d="M36.97,13.97c3.71-0.42,24.17-2.89,30.16-3.35c3.24-0.25,4.6,0.68,4.58,3.5c-0.04,4.33-0.21,13.5-0.21,21.27" transform="matrix(1,0,0,1,96,-4)" class="stroke_order_diagram--current_path"></path><circle cx="36.97" cy="13.97" r="8" class="stroke_order_diagram--path_start" transform="matrix(1,0,0,1,96,-4)"></circle><line x1="250" x2="250" y1="1" y2="99" class="stroke_order_diagram--guide_line"></line><line x1="299" x2="299" y1="1" y2="99" class="stroke_order_diagram--bounding_box"></line><path id="pathSk940yk7k613" kvg:type="㇑a" d="M34.77,12.12c0.81,0.81,1.43,1.88,1.43,3.15c0,2.62-0.06,19.72-0.06,24.05" transform="matrix(1,0,0,1,196,-4)" class="stroke_order_diagram--existing_path"></path><path id="pathSk940yk7k614" kvg:type="㇕b" d="M36.97,13.97c3.71-0.42,24.17-2.89,30.16-3.35c3.24-0.25,4.6,0.68,4.58,3.5c-0.04,4.33-0.21,13.5-0.21,21.27" transform="matrix(1,0,0,1,196,-4)" class="stroke_order_diagram--existing_path"></path><path id="kvg:09aa8-s3" kvg:type="㇑a" d="M52.27,24.37c0.74,0.74,0.93,2,0.93,3.15c0,4.72-0.06,7.6-0.06,10.3" transform="matrix(1,0,0,1,196,-4)" class="stroke_order_diagram--current_path"></path><path id="pathSk940yk7k616" kvg:type="㇑a" d="M52.27,24.37c0.74,0.74,0.93,2,0.93,3.15c0,4.72-0.06,7.6-0.06,10.3" transform="matrix(1,0,0,1,196,-4)" class="stroke_order_diagram--current_path"></path><circle cx="52.27" cy="24.37" r="8" class="stroke_order_diagram--path_start" transform="matrix(1,0,0,1,196,-4)"></circle><line x1="350" x2="350" y1="1" y2="99" class="stroke_order_diagram--guide_line"></line><line x1="399" x2="399" y1="1" y2="99" class="stroke_order_diagram--bounding_box"></line><path id="pathSk940yk7k619" kvg:type="㇑a" d="M34.77,12.12c0.81,0.81,1.43,1.88,1.43,3.15c0,2.62-0.06,19.72-0.06,24.05" transform="matrix(1,0,0,1,296,-4)" class="stroke_order_diagram--existing_path"></path><path id="pathSk940yk7k61a" kvg:type="㇕b" d="M36.97,13.97c3.71-0.42,24.17-2.89,30.16-3.35c3.24-0.25,4.6,0.68,4.58,3.5c-0.04,4.33-0.21,13.5-0.21,21.27" transform="matrix(1,0,0,1,296,-4)" class="stroke_order_diagram--existing_path"></path><path id="pathSk940yk7k61b" kvg:type="㇑a" d="M52.27,24.37c0.74,0.74,0.93,2,0.93,3.15c0,4.72-0.06,7.6-0.06,10.3" transform="matrix(1,0,0,1,296,-4)" class="stroke_order_diagram--existing_path"></path><path id="kvg:09aa8-s4" kvg:type="㇐a" d="M53.97,24.97c3.9-0.72,14.39-1.96,16.78-2.22" transform="matrix(1,0,0,1,296,-4)" class="stroke_order_diagram--current_path"></path><path id="pathSk940yk7k61d" kvg:type="㇐a" d="M53.97,24.97c3.9-0.72,14.39-1.96,16.78-2.22" transform="matrix(1,0,0,1,296,-4)" class="stroke_order_diagram--current_path"></path><circle cx="53.97" cy="24.97" r="8" class="stroke_order_diagram--path_start" transform="matrix(1,0,0,1,296,-4)"></circle><line x1="450" x2="450" y1="1" y2="99" class="stroke_order_diagram--guide_line"></line><line x1="499" x2="499" y1="1" y2="99" class="stroke_order_diagram--bounding_box"></line><path id="pathSk940yk7k61g" kvg:type="㇑a" d="M34.77,12.12c0.81,0.81,1.43,1.88,1.43,3.15c0,2.62-0.06,19.72-0.06,24.05" transform="matrix(1,0,0,1,396,-4)" class="stroke_order_diagram--existing_path"></path><path id="pathSk940yk7k61h" kvg:type="㇕b" d="M36.97,13.97c3.71-0.42,24.17-2.89,30.16-3.35c3.24-0.25,4.6,0.68,4.58,3.5c-0.04,4.33-0.21,13.5-0.21,21.27" transform="matrix(1,0,0,1,396,-4)" class="stroke_order_diagram--existing_path"></path><path id="pathSk940yk7k61i" kvg:type="㇑a" d="M52.27,24.37c0.74,0.74,0.93,2,0.93,3.15c0,4.72-0.06,7.6-0.06,10.3" transform="matrix(1,0,0,1,396,-4)" class="stroke_order_diagram--existing_path"></path><path id="pathSk940yk7k61j" kvg:type="㇐a" d="M53.97,24.97c3.9-0.72,14.39-1.96,16.78-2.22" transform="matrix(1,0,0,1,396,-4)" class="stroke_order_diagram--existing_path"></path><path id="kvg:09aa8-s5" kvg:type="㇔" d="M18.25,39c0,3.67-2.06,13.3-3,15.75" transform="matrix(1,0,0,1,396,-4)" class="stroke_order_diagram--current_path"></path><path id="pathSk940yk7k61l" kvg:type="㇔" d="M18.25,39c0,3.67-2.06,13.3-3,15.75" transform="matrix(1,0,0,1,396,-4)" class="stroke_order_diagram--current_path"></path><circle cx="18.25" cy="39" r="8" class="stroke_order_diagram--path_start" transform="matrix(1,0,0,1,396,-4)"></circle><line x1="550" x2="550" y1="1" y2="99" class="stroke_order_diagram--guide_line"></line><line x1="599" x2="599" y1="1" y2="99" class="stroke_order_diagram--bounding_box"></line><path id="pathSk940yk7k61o" kvg:type="㇑a" d="M34.77,12.12c0.81,0.81,1.43,1.88,1.43,3.15c0,2.62-0.06,19.72-0.06,24.05" transform="matrix(1,0,0,1,496,-4)" class="stroke_order_diagram--existing_path"></path><path id="pathSk940yk7k61p" kvg:type="㇕b" d="M36.97,13.97c3.71-0.42,24.17-2.89,30.16-3.35c3.24-0.25,4.6,0.68,4.58,3.5c-0.04,4.33-0.21,13.5-0.21,21.27" transform="matrix(1,0,0,1,496,-4)" class="stroke_order_diagram--existing_path"></path><path id="pathSk940yk7k61q" kvg:type="㇑a" d="M52.27,24.37c0.74,0.74,0.93,2,0.93,3.15c0,4.72-0.06,7.6-0.06,10.3" transform="matrix(1,0,0,1,496,-4)" class="stroke_order_diagram--existing_path"></path><path id="pathSk940yk7k61r" kvg:type="㇐a" d="M53.97,24.97c3.9-0.72,14.39-1.96,16.78-2.22" transform="matrix(1,0,0,1,496,-4)" class="stroke_order_diagram--existing_path"></path><path id="pathSk940yk7k61s" kvg:type="㇔" d="M18.25,39c0,3.67-2.06,13.3-3,15.75" transform="matrix(1,0,0,1,496,-4)" class="stroke_order_diagram--existing_path"></path><path id="kvg:09aa8-s6" kvg:type="㇖b" d="M18.74,42.74c23.38-3.11,46.51-5.36,65.7-6.15C96.5,36.09,87,44,84,46.11" transform="matrix(1,0,0,1,496,-4)" class="stroke_order_diagram--current_path"></path><path id="pathSk940yk7k61u" kvg:type="㇖b" d="M18.74,42.74c23.38-3.11,46.51-5.36,65.7-6.15C96.5,36.09,87,44,84,46.11" transform="matrix(1,0,0,1,496,-4)" class="stroke_order_diagram--current_path"></path><circle cx="18.74" cy="42.74" r="8" class="stroke_order_diagram--path_start" transform="matrix(1,0,0,1,496,-4)"></circle><line x1="650" x2="650" y1="1" y2="99" class="stroke_order_diagram--guide_line"></line><line x1="699" x2="699" y1="1" y2="99" class="stroke_order_diagram--bounding_box"></line><path id="pathSk940yk7k61x" kvg:type="㇑a" d="M34.77,12.12c0.81,0.81,1.43,1.88,1.43,3.15c0,2.62-0.06,19.72-0.06,24.05" transform="matrix(1,0,0,1,596,-4)" class="stroke_order_diagram--existing_path"></path><path id="pathSk940yk7k61y" kvg:type="㇕b" d="M36.97,13.97c3.71-0.42,24.17-2.89,30.16-3.35c3.24-0.25,4.6,0.68,4.58,3.5c-0.04,4.33-0.21,13.5-0.21,21.27" transform="matrix(1,0,0,1,596,-4)" class="stroke_order_diagram--existing_path"></path><path id="pathSk940yk7k61z" kvg:type="㇑a" d="M52.27,24.37c0.74,0.74,0.93,2,0.93,3.15c0,4.72-0.06,7.6-0.06,10.3" transform="matrix(1,0,0,1,596,-4)" class="stroke_order_diagram--existing_path"></path><path id="pathSk940yk7k620" kvg:type="㇐a" d="M53.97,24.97c3.9-0.72,14.39-1.96,16.78-2.22" transform="matrix(1,0,0,1,596,-4)" class="stroke_order_diagram--existing_path"></path><path id="pathSk940yk7k621" kvg:type="㇔" d="M18.25,39c0,3.67-2.06,13.3-3,15.75" transform="matrix(1,0,0,1,596,-4)" class="stroke_order_diagram--existing_path"></path><path id="pathSk940yk7k622" kvg:type="㇖b" d="M18.74,42.74c23.38-3.11,46.51-5.36,65.7-6.15C96.5,36.09,87,44,84,46.11" transform="matrix(1,0,0,1,596,-4)" class="stroke_order_diagram--existing_path"></path><path id="kvg:09aa8-s7" kvg:type="㇑/㇒" d="M39.2,48.52c0.76,0.76,1.1,1.98,1.1,3.44c0,0.54-0.02,26.73-0.03,40.79c0,1.81,0,3.42-0.01,4.75" transform="matrix(1,0,0,1,596,-4)" class="stroke_order_diagram--current_path"></path><path id="pathSk940yk7k624" kvg:type="㇑/㇒" d="M39.2,48.52c0.76,0.76,1.1,1.98,1.1,3.44c0,0.54-0.02,26.73-0.03,40.79c0,1.81,0,3.42-0.01,4.75" transform="matrix(1,0,0,1,596,-4)" class="stroke_order_diagram--current_path"></path><circle cx="39.2" cy="48.52" r="8" class="stroke_order_diagram--path_start" transform="matrix(1,0,0,1,596,-4)"></circle><line x1="750" x2="750" y1="1" y2="99" class="stroke_order_diagram--guide_line"></line><line x1="799" x2="799" y1="1" y2="99" class="stroke_order_diagram--bounding_box"></line><path id="pathSk940yk7k627" kvg:type="㇑a" d="M34.77,12.12c0.81,0.81,1.43,1.88,1.43,3.15c0,2.62-0.06,19.72-0.06,24.05" transform="matrix(1,0,0,1,696,-4)" class="stroke_order_diagram--existing_path"></path><path id="pathSk940yk7k628" kvg:type="㇕b" d="M36.97,13.97c3.71-0.42,24.17-2.89,30.16-3.35c3.24-0.25,4.6,0.68,4.58,3.5c-0.04,4.33-0.21,13.5-0.21,21.27" transform="matrix(1,0,0,1,696,-4)" class="stroke_order_diagram--existing_path"></path><path id="pathSk940yk7k629" kvg:type="㇑a" d="M52.27,24.37c0.74,0.74,0.93,2,0.93,3.15c0,4.72-0.06,7.6-0.06,10.3" transform="matrix(1,0,0,1,696,-4)" class="stroke_order_diagram--existing_path"></path><path id="pathSk940yk7k62a" kvg:type="㇐a" d="M53.97,24.97c3.9-0.72,14.39-1.96,16.78-2.22" transform="matrix(1,0,0,1,696,-4)" class="stroke_order_diagram--existing_path"></path><path id="pathSk940yk7k62b" kvg:type="㇔" d="M18.25,39c0,3.67-2.06,13.3-3,15.75" transform="matrix(1,0,0,1,696,-4)" class="stroke_order_diagram--existing_path"></path><path id="pathSk940yk7k62c" kvg:type="㇖b" d="M18.74,42.74c23.38-3.11,46.51-5.36,65.7-6.15C96.5,36.09,87,44,84,46.11" transform="matrix(1,0,0,1,696,-4)" class="stroke_order_diagram--existing_path"></path><path id="pathSk940yk7k62d" kvg:type="㇑/㇒" d="M39.2,48.52c0.76,0.76,1.1,1.98,1.1,3.44c0,0.54-0.02,26.73-0.03,40.79c0,1.81,0,3.42-0.01,4.75" transform="matrix(1,0,0,1,696,-4)" class="stroke_order_diagram--existing_path"></path><path id="kvg:09aa8-s8" kvg:type="㇆a" d="M41.15,49.75c4.48-0.63,17.85-2.38,23.21-2.98c2.04-0.23,3.66,0.97,3.66,3.48c0,2.75-0.15,26.68-0.15,41.5c0,9.51-4.39,3.29-6.22,1.65" transform="matrix(1,0,0,1,696,-4)" class="stroke_order_diagram--current_path"></path><path id="pathSk940yk7k62f" kvg:type="㇆a" d="M41.15,49.75c4.48-0.63,17.85-2.38,23.21-2.98c2.04-0.23,3.66,0.97,3.66,3.48c0,2.75-0.15,26.68-0.15,41.5c0,9.51-4.39,3.29-6.22,1.65" transform="matrix(1,0,0,1,696,-4)" class="stroke_order_diagram--current_path"></path><circle cx="41.15" cy="49.75" r="8" class="stroke_order_diagram--path_start" transform="matrix(1,0,0,1,696,-4)"></circle><line x1="850" x2="850" y1="1" y2="99" class="stroke_order_diagram--guide_line"></line><line x1="899" x2="899" y1="1" y2="99" class="stroke_order_diagram--bounding_box"></line><path id="pathSk940yk7k62i" kvg:type="㇑a" d="M34.77,12.12c0.81,0.81,1.43,1.88,1.43,3.15c0,2.62-0.06,19.72-0.06,24.05" transform="matrix(1,0,0,1,796,-4)" class="stroke_order_diagram--existing_path"></path><path id="pathSk940yk7k62j" kvg:type="㇕b" d="M36.97,13.97c3.71-0.42,24.17-2.89,30.16-3.35c3.24-0.25,4.6,0.68,4.58,3.5c-0.04,4.33-0.21,13.5-0.21,21.27" transform="matrix(1,0,0,1,796,-4)" class="stroke_order_diagram--existing_path"></path><path id="pathSk940yk7k62k" kvg:type="㇑a" d="M52.27,24.37c0.74,0.74,0.93,2,0.93,3.15c0,4.72-0.06,7.6-0.06,10.3" transform="matrix(1,0,0,1,796,-4)" class="stroke_order_diagram--existing_path"></path><path id="pathSk940yk7k62l" kvg:type="㇐a" d="M53.97,24.97c3.9-0.72,14.39-1.96,16.78-2.22" transform="matrix(1,0,0,1,796,-4)" class="stroke_order_diagram--existing_path"></path><path id="pathSk940yk7k62m" kvg:type="㇔" d="M18.25,39c0,3.67-2.06,13.3-3,15.75" transform="matrix(1,0,0,1,796,-4)" class="stroke_order_diagram--existing_path"></path><path id="pathSk940yk7k62n" kvg:type="㇖b" d="M18.74,42.74c23.38-3.11,46.51-5.36,65.7-6.15C96.5,36.09,87,44,84,46.11" transform="matrix(1,0,0,1,796,-4)" class="stroke_order_diagram--existing_path"></path><path id="pathSk940yk7k62o" kvg:type="㇑/㇒" d="M39.2,48.52c0.76,0.76,1.1,1.98,1.1,3.44c0,0.54-0.02,26.73-0.03,40.79c0,1.81,0,3.42-0.01,4.75" transform="matrix(1,0,0,1,796,-4)" class="stroke_order_diagram--existing_path"></path><path id="pathSk940yk7k62p" kvg:type="㇆a" d="M41.15,49.75c4.48-0.63,17.85-2.38,23.21-2.98c2.04-0.23,3.66,0.97,3.66,3.48c0,2.75-0.15,26.68-0.15,41.5c0,9.51-4.39,3.29-6.22,1.65" transform="matrix(1,0,0,1,796,-4)" class="stroke_order_diagram--existing_path"></path><path id="kvg:09aa8-s9" kvg:type="㇐a" d="M41.4,62.84c7.5-1.1,18.1-2.09,25.59-2.54" transform="matrix(1,0,0,1,796,-4)" class="stroke_order_diagram--current_path"></path><path id="pathSk940yk7k62r" kvg:type="㇐a" d="M41.4,62.84c7.5-1.1,18.1-2.09,25.59-2.54" transform="matrix(1,0,0,1,796,-4)" class="stroke_order_diagram--current_path"></path><circle cx="41.4" cy="62.84" r="8" class="stroke_order_diagram--path_start" transform="matrix(1,0,0,1,796,-4)"></circle><line x1="950" x2="950" y1="1" y2="99" class="stroke_order_diagram--guide_line"></line><line x1="999" x2="999" y1="1" y2="99" class="stroke_order_diagram--bounding_box"></line><path id="pathSk940yk7k62u" kvg:type="㇑a" d="M34.77,12.12c0.81,0.81,1.43,1.88,1.43,3.15c0,2.62-0.06,19.72-0.06,24.05" transform="matrix(1,0,0,1,896,-4)" class="stroke_order_diagram--existing_path"></path><path id="pathSk940yk7k62v" kvg:type="㇕b" d="M36.97,13.97c3.71-0.42,24.17-2.89,30.16-3.35c3.24-0.25,4.6,0.68,4.58,3.5c-0.04,4.33-0.21,13.5-0.21,21.27" transform="matrix(1,0,0,1,896,-4)" class="stroke_order_diagram--existing_path"></path><path id="pathSk940yk7k62w" kvg:type="㇑a" d="M52.27,24.37c0.74,0.74,0.93,2,0.93,3.15c0,4.72-0.06,7.6-0.06,10.3" transform="matrix(1,0,0,1,896,-4)" class="stroke_order_diagram--existing_path"></path><path id="pathSk940yk7k62x" kvg:type="㇐a" d="M53.97,24.97c3.9-0.72,14.39-1.96,16.78-2.22" transform="matrix(1,0,0,1,896,-4)" class="stroke_order_diagram--existing_path"></path><path id="pathSk940yk7k62y" kvg:type="㇔" d="M18.25,39c0,3.67-2.06,13.3-3,15.75" transform="matrix(1,0,0,1,896,-4)" class="stroke_order_diagram--existing_path"></path><path id="pathSk940yk7k62z" kvg:type="㇖b" d="M18.74,42.74c23.38-3.11,46.51-5.36,65.7-6.15C96.5,36.09,87,44,84,46.11" transform="matrix(1,0,0,1,896,-4)" class="stroke_order_diagram--existing_path"></path><path id="pathSk940yk7k630" kvg:type="㇑/㇒" d="M39.2,48.52c0.76,0.76,1.1,1.98,1.1,3.44c0,0.54-0.02,26.73-0.03,40.79c0,1.81,0,3.42-0.01,4.75" transform="matrix(1,0,0,1,896,-4)" class="stroke_order_diagram--existing_path"></path><path id="pathSk940yk7k631" kvg:type="㇆a" d="M41.15,49.75c4.48-0.63,17.85-2.38,23.21-2.98c2.04-0.23,3.66,0.97,3.66,3.48c0,2.75-0.15,26.68-0.15,41.5c0,9.51-4.39,3.29-6.22,1.65" transform="matrix(1,0,0,1,896,-4)" class="stroke_order_diagram--existing_path"></path><path id="pathSk940yk7k632" kvg:type="㇐a" d="M41.4,62.84c7.5-1.1,18.1-2.09,25.59-2.54" transform="matrix(1,0,0,1,896,-4)" class="stroke_order_diagram--existing_path"></path><path id="kvg:09aa8-s10" kvg:type="㇐a" d="M41.45,76.29c5.85-0.55,18.66-1.69,25.43-2.06" transform="matrix(1,0,0,1,896,-4)" class="stroke_order_diagram--current_path"></path><path id="pathSk940yk7k634" kvg:type="㇐a" d="M41.45,76.29c5.85-0.55,18.66-1.69,25.43-2.06" transform="matrix(1,0,0,1,896,-4)" class="stroke_order_diagram--current_path"></path><circle cx="41.45" cy="76.29" r="8" class="stroke_order_diagram--path_start" transform="matrix(1,0,0,1,896,-4)"></circle></svg>