<?xml version="1.0" encoding="UTF-8"?>
<!DOCTYPE svg PUBLIC "-//W3C//DTD SVG 1.0//EN" "http://www.w3.org/TR/2001/REC-SVG-20010904/DTD/svg10.dtd" [
<!ATTLIST g
xmlns:kvg CDATA #FIXED "http://kanjivg.tagaini.net"
kvg:element CDATA #IMPLIED
kvg:variant CDATA #IMPLIED
kvg:partial CDATA #IMPLIED
kvg:original CDATA #IMPLIED
kvg:part CDATA #IMPLIED
kvg:number CDATA #IMPLIED
kvg:tradForm CDATA #IMPLIED
kvg:radicalForm CDATA #IMPLIED
kvg:position CDATA #IMPLIED
kvg:radical CDATA #IMPLIED
kvg:phon CDATA #IMPLIED >
<!ATTLIST path
xmlns:kvg CDATA #FIXED "http://kanjivg.tagaini.net"
kvg:type CDATA #IMPLIED >
]><svg style="width: 1000px; height: 100px;" xmlns="http://www.w3.org/2000/svg" xmlns:xlink="http://www.w3.org/1999/xlink" width="1000px" height="100px"><style>
.stroke_order_diagram--outer_container {
  width: 100%;
  overflow-x: auto;
  overflow-y: hidden;
}

.stroke_order_diagram--guide_line {
  fill: none;
  stroke: #ddd;
  stroke-width: 3;
  stroke-linecap: square;
  stroke-linejoin: square;
  stroke-dasharray:8, 8;
}

.stroke_order_diagram--bounding_box {
  fill: none;
  stroke: #ddd;
  stroke-width: 4;
  stroke-linecap: square;
  stroke-linejoin: square;
}

.stroke_order_diagram--current_path {
  fill: none;
  stroke: #000;
  stroke-width: 6;
  stroke-linecap: round;
  stroke-linejoin: round;
}

.stroke_order_diagram--existing_path {
  fill: none;
  stroke: #aaa;
  stroke-width: 6;
  stroke-linecap: round;
  stroke-linejoin:round;
}

.stroke_order_diagram--path_start {
  fill: rgba(255, 0, 0, 0.7);
  stroke:none
}</style><desc>Created with Snap</desc><defs></defs><line x1="1" x2="999" y1="1" y2="1" class="stroke_order_diagram--bounding_box"></line><line x1="1" x2="1" y1="1" y2="99" class="stroke_order_diagram--bounding_box"></line><line x1="1" x2="999" y1="99" y2="99" class="stroke_order_diagram--bounding_box"></line><line x1="0" x2="1000" y1="50" y2="50" class="stroke_order_diagram--guide_line"></line><line x1="50" x2="50" y1="1" y2="99" class="stroke_order_diagram--guide_line"></line><line x1="99" x2="99" y1="1" y2="99" class="stroke_order_diagram--bounding_box"></line><path id="kvg:09adf-s1" kvg:type="㇑a" d="M25.5,19.25C27,20.75,27,21,27,22.5s0.5,34.5,0.5,36.75" transform="matrix(1,0,0,1,-4,-4)" class="stroke_order_diagram--current_path"></path><path id="pathSk940yk7k66h" kvg:type="㇑a" d="M25.5,19.25C27,20.75,27,21,27,22.5s0.5,34.5,0.5,36.75" transform="matrix(1,0,0,1,-4,-4)" class="stroke_order_diagram--current_path"></path><circle cx="25.5" cy="19.25" r="8" class="stroke_order_diagram--path_start" transform="matrix(1,0,0,1,-4,-4)"></circle><line x1="150" x2="150" y1="1" y2="99" class="stroke_order_diagram--guide_line"></line><line x1="199" x2="199" y1="1" y2="99" class="stroke_order_diagram--bounding_box"></line><path id="pathSk940yk7k66k" kvg:type="㇑a" d="M25.5,19.25C27,20.75,27,21,27,22.5s0.5,34.5,0.5,36.75" transform="matrix(1,0,0,1,96,-4)" class="stroke_order_diagram--existing_path"></path><path id="kvg:09adf-s2" kvg:type="㇐b" d="M27.85,21.27C33,21,44.25,18,50.96,17.89c1.56-0.03,2.5,0.18,3.29,0.37" transform="matrix(1,0,0,1,96,-4)" class="stroke_order_diagram--current_path"></path><path id="pathSk940yk7k66m" kvg:type="㇐b" d="M27.85,21.27C33,21,44.25,18,50.96,17.89c1.56-0.03,2.5,0.18,3.29,0.37" transform="matrix(1,0,0,1,96,-4)" class="stroke_order_diagram--current_path"></path><circle cx="27.85" cy="21.27" r="8" class="stroke_order_diagram--path_start" transform="matrix(1,0,0,1,96,-4)"></circle><line x1="250" x2="250" y1="1" y2="99" class="stroke_order_diagram--guide_line"></line><line x1="299" x2="299" y1="1" y2="99" class="stroke_order_diagram--bounding_box"></line><path id="pathSk940yk7k66p" kvg:type="㇑a" d="M25.5,19.25C27,20.75,27,21,27,22.5s0.5,34.5,0.5,36.75" transform="matrix(1,0,0,1,196,-4)" class="stroke_order_diagram--existing_path"></path><path id="pathSk940yk7k66q" kvg:type="㇐b" d="M27.85,21.27C33,21,44.25,18,50.96,17.89c1.56-0.03,2.5,0.18,3.29,0.37" transform="matrix(1,0,0,1,196,-4)" class="stroke_order_diagram--existing_path"></path><path id="kvg:09adf-s3" kvg:type="㇐b" d="M28.75,34.25c4.55-0.53,15.22-2.45,18.9-2.98c1.38-0.2,2.79-0.14,3.85,0.18" transform="matrix(1,0,0,1,196,-4)" class="stroke_order_diagram--current_path"></path><path id="pathSk940yk7k66s" kvg:type="㇐b" d="M28.75,34.25c4.55-0.53,15.22-2.45,18.9-2.98c1.38-0.2,2.79-0.14,3.85,0.18" transform="matrix(1,0,0,1,196,-4)" class="stroke_order_diagram--current_path"></path><circle cx="28.75" cy="34.25" r="8" class="stroke_order_diagram--path_start" transform="matrix(1,0,0,1,196,-4)"></circle><line x1="350" x2="350" y1="1" y2="99" class="stroke_order_diagram--guide_line"></line><line x1="399" x2="399" y1="1" y2="99" class="stroke_order_diagram--bounding_box"></line><path id="pathSk940yk7k66v" kvg:type="㇑a" d="M25.5,19.25C27,20.75,27,21,27,22.5s0.5,34.5,0.5,36.75" transform="matrix(1,0,0,1,296,-4)" class="stroke_order_diagram--existing_path"></path><path id="pathSk940yk7k66w" kvg:type="㇐b" d="M27.85,21.27C33,21,44.25,18,50.96,17.89c1.56-0.03,2.5,0.18,3.29,0.37" transform="matrix(1,0,0,1,296,-4)" class="stroke_order_diagram--existing_path"></path><path id="pathSk940yk7k66x" kvg:type="㇐b" d="M28.75,34.25c4.55-0.53,15.22-2.45,18.9-2.98c1.38-0.2,2.79-0.14,3.85,0.18" transform="matrix(1,0,0,1,296,-4)" class="stroke_order_diagram--existing_path"></path><path id="kvg:09adf-s4" kvg:type="㇐b" d="M28.5,46.75c4.55-0.53,15.22-2.45,18.9-2.98c1.38-0.2,2.79-0.14,3.85,0.18" transform="matrix(1,0,0,1,296,-4)" class="stroke_order_diagram--current_path"></path><path id="pathSk940yk7k66z" kvg:type="㇐b" d="M28.5,46.75c4.55-0.53,15.22-2.45,18.9-2.98c1.38-0.2,2.79-0.14,3.85,0.18" transform="matrix(1,0,0,1,296,-4)" class="stroke_order_diagram--current_path"></path><circle cx="28.5" cy="46.75" r="8" class="stroke_order_diagram--path_start" transform="matrix(1,0,0,1,296,-4)"></circle><line x1="450" x2="450" y1="1" y2="99" class="stroke_order_diagram--guide_line"></line><line x1="499" x2="499" y1="1" y2="99" class="stroke_order_diagram--bounding_box"></line><path id="pathSk940yk7k672" kvg:type="㇑a" d="M25.5,19.25C27,20.75,27,21,27,22.5s0.5,34.5,0.5,36.75" transform="matrix(1,0,0,1,396,-4)" class="stroke_order_diagram--existing_path"></path><path id="pathSk940yk7k673" kvg:type="㇐b" d="M27.85,21.27C33,21,44.25,18,50.96,17.89c1.56-0.03,2.5,0.18,3.29,0.37" transform="matrix(1,0,0,1,396,-4)" class="stroke_order_diagram--existing_path"></path><path id="pathSk940yk7k674" kvg:type="㇐b" d="M28.75,34.25c4.55-0.53,15.22-2.45,18.9-2.98c1.38-0.2,2.79-0.14,3.85,0.18" transform="matrix(1,0,0,1,396,-4)" class="stroke_order_diagram--existing_path"></path><path id="pathSk940yk7k675" kvg:type="㇐b" d="M28.5,46.75c4.55-0.53,15.22-2.45,18.9-2.98c1.38-0.2,2.79-0.14,3.85,0.18" transform="matrix(1,0,0,1,396,-4)" class="stroke_order_diagram--existing_path"></path><path id="kvg:09adf-s5" kvg:type="㇐" d="M11.88,62.42c0.86,0.3,2.43,0.35,3.29,0.3c8.92-0.51,28.04-4.74,40.21-5.15c1.43-0.05,2.29,0.15,3,0.3" transform="matrix(1,0,0,1,396,-4)" class="stroke_order_diagram--current_path"></path><path id="pathSk940yk7k677" kvg:type="㇐" d="M11.88,62.42c0.86,0.3,2.43,0.35,3.29,0.3c8.92-0.51,28.04-4.74,40.21-5.15c1.43-0.05,2.29,0.15,3,0.3" transform="matrix(1,0,0,1,396,-4)" class="stroke_order_diagram--current_path"></path><circle cx="11.88" cy="62.42" r="8" class="stroke_order_diagram--path_start" transform="matrix(1,0,0,1,396,-4)"></circle><line x1="550" x2="550" y1="1" y2="99" class="stroke_order_diagram--guide_line"></line><line x1="599" x2="599" y1="1" y2="99" class="stroke_order_diagram--bounding_box"></line><path id="pathSk940yk7k67a" kvg:type="㇑a" d="M25.5,19.25C27,20.75,27,21,27,22.5s0.5,34.5,0.5,36.75" transform="matrix(1,0,0,1,496,-4)" class="stroke_order_diagram--existing_path"></path><path id="pathSk940yk7k67b" kvg:type="㇐b" d="M27.85,21.27C33,21,44.25,18,50.96,17.89c1.56-0.03,2.5,0.18,3.29,0.37" transform="matrix(1,0,0,1,496,-4)" class="stroke_order_diagram--existing_path"></path><path id="pathSk940yk7k67c" kvg:type="㇐b" d="M28.75,34.25c4.55-0.53,15.22-2.45,18.9-2.98c1.38-0.2,2.79-0.14,3.85,0.18" transform="matrix(1,0,0,1,496,-4)" class="stroke_order_diagram--existing_path"></path><path id="pathSk940yk7k67d" kvg:type="㇐b" d="M28.5,46.75c4.55-0.53,15.22-2.45,18.9-2.98c1.38-0.2,2.79-0.14,3.85,0.18" transform="matrix(1,0,0,1,496,-4)" class="stroke_order_diagram--existing_path"></path><path id="pathSk940yk7k67e" kvg:type="㇐" d="M11.88,62.42c0.86,0.3,2.43,0.35,3.29,0.3c8.92-0.51,28.04-4.74,40.21-5.15c1.43-0.05,2.29,0.15,3,0.3" transform="matrix(1,0,0,1,496,-4)" class="stroke_order_diagram--existing_path"></path><path id="kvg:09adf-s6" kvg:type="㇜" d="M32.65,63.31c0.1,0.94-0.47,2.32-0.8,2.8c-4.35,6.39-5.6,8.39-11.6,15.54c-1.5,1.79-0.74,3.69,1.84,2.96c7.4-2.1,20.9-5.85,30.01-8.82" transform="matrix(1,0,0,1,496,-4)" class="stroke_order_diagram--current_path"></path><path id="pathSk940yk7k67g" kvg:type="㇜" d="M32.65,63.31c0.1,0.94-0.47,2.32-0.8,2.8c-4.35,6.39-5.6,8.39-11.6,15.54c-1.5,1.79-0.74,3.69,1.84,2.96c7.4-2.1,20.9-5.85,30.01-8.82" transform="matrix(1,0,0,1,496,-4)" class="stroke_order_diagram--current_path"></path><circle cx="32.65" cy="63.31" r="8" class="stroke_order_diagram--path_start" transform="matrix(1,0,0,1,496,-4)"></circle><line x1="650" x2="650" y1="1" y2="99" class="stroke_order_diagram--guide_line"></line><line x1="699" x2="699" y1="1" y2="99" class="stroke_order_diagram--bounding_box"></line><path id="pathSk940yk7k67j" kvg:type="㇑a" d="M25.5,19.25C27,20.75,27,21,27,22.5s0.5,34.5,0.5,36.75" transform="matrix(1,0,0,1,596,-4)" class="stroke_order_diagram--existing_path"></path><path id="pathSk940yk7k67k" kvg:type="㇐b" d="M27.85,21.27C33,21,44.25,18,50.96,17.89c1.56-0.03,2.5,0.18,3.29,0.37" transform="matrix(1,0,0,1,596,-4)" class="stroke_order_diagram--existing_path"></path><path id="pathSk940yk7k67l" kvg:type="㇐b" d="M28.75,34.25c4.55-0.53,15.22-2.45,18.9-2.98c1.38-0.2,2.79-0.14,3.85,0.18" transform="matrix(1,0,0,1,596,-4)" class="stroke_order_diagram--existing_path"></path><path id="pathSk940yk7k67m" kvg:type="㇐b" d="M28.5,46.75c4.55-0.53,15.22-2.45,18.9-2.98c1.38-0.2,2.79-0.14,3.85,0.18" transform="matrix(1,0,0,1,596,-4)" class="stroke_order_diagram--existing_path"></path><path id="pathSk940yk7k67n" kvg:type="㇐" d="M11.88,62.42c0.86,0.3,2.43,0.35,3.29,0.3c8.92-0.51,28.04-4.74,40.21-5.15c1.43-0.05,2.29,0.15,3,0.3" transform="matrix(1,0,0,1,596,-4)" class="stroke_order_diagram--existing_path"></path><path id="pathSk940yk7k67o" kvg:type="㇜" d="M32.65,63.31c0.1,0.94-0.47,2.32-0.8,2.8c-4.35,6.39-5.6,8.39-11.6,15.54c-1.5,1.79-0.74,3.69,1.84,2.96c7.4-2.1,20.9-5.85,30.01-8.82" transform="matrix(1,0,0,1,596,-4)" class="stroke_order_diagram--existing_path"></path><path id="kvg:09adf-s7" kvg:type="㇔" d="M45.01,65.67c3.9,3.41,10.07,14,11.05,19.3" transform="matrix(1,0,0,1,596,-4)" class="stroke_order_diagram--current_path"></path><path id="pathSk940yk7k67q" kvg:type="㇔" d="M45.01,65.67c3.9,3.41,10.07,14,11.05,19.3" transform="matrix(1,0,0,1,596,-4)" class="stroke_order_diagram--current_path"></path><circle cx="45.01" cy="65.67" r="8" class="stroke_order_diagram--path_start" transform="matrix(1,0,0,1,596,-4)"></circle><line x1="750" x2="750" y1="1" y2="99" class="stroke_order_diagram--guide_line"></line><line x1="799" x2="799" y1="1" y2="99" class="stroke_order_diagram--bounding_box"></line><path id="pathSk940yk7k67t" kvg:type="㇑a" d="M25.5,19.25C27,20.75,27,21,27,22.5s0.5,34.5,0.5,36.75" transform="matrix(1,0,0,1,696,-4)" class="stroke_order_diagram--existing_path"></path><path id="pathSk940yk7k67u" kvg:type="㇐b" d="M27.85,21.27C33,21,44.25,18,50.96,17.89c1.56-0.03,2.5,0.18,3.29,0.37" transform="matrix(1,0,0,1,696,-4)" class="stroke_order_diagram--existing_path"></path><path id="pathSk940yk7k67v" kvg:type="㇐b" d="M28.75,34.25c4.55-0.53,15.22-2.45,18.9-2.98c1.38-0.2,2.79-0.14,3.85,0.18" transform="matrix(1,0,0,1,696,-4)" class="stroke_order_diagram--existing_path"></path><path id="pathSk940yk7k67w" kvg:type="㇐b" d="M28.5,46.75c4.55-0.53,15.22-2.45,18.9-2.98c1.38-0.2,2.79-0.14,3.85,0.18" transform="matrix(1,0,0,1,696,-4)" class="stroke_order_diagram--existing_path"></path><path id="pathSk940yk7k67x" kvg:type="㇐" d="M11.88,62.42c0.86,0.3,2.43,0.35,3.29,0.3c8.92-0.51,28.04-4.74,40.21-5.15c1.43-0.05,2.29,0.15,3,0.3" transform="matrix(1,0,0,1,696,-4)" class="stroke_order_diagram--existing_path"></path><path id="pathSk940yk7k67y" kvg:type="㇜" d="M32.65,63.31c0.1,0.94-0.47,2.32-0.8,2.8c-4.35,6.39-5.6,8.39-11.6,15.54c-1.5,1.79-0.74,3.69,1.84,2.96c7.4-2.1,20.9-5.85,30.01-8.82" transform="matrix(1,0,0,1,696,-4)" class="stroke_order_diagram--existing_path"></path><path id="pathSk940yk7k67z" kvg:type="㇔" d="M45.01,65.67c3.9,3.41,10.07,14,11.05,19.3" transform="matrix(1,0,0,1,696,-4)" class="stroke_order_diagram--existing_path"></path><path id="kvg:09adf-s8" kvg:type="㇒" d="M82.68,16c0.05,0.58,0.25,1.58-0.12,2.32C79.75,24,73.5,32.25,62.25,39.66" transform="matrix(1,0,0,1,696,-4)" class="stroke_order_diagram--current_path"></path><path id="pathSk940yk7k681" kvg:type="㇒" d="M82.68,16c0.05,0.58,0.25,1.58-0.12,2.32C79.75,24,73.5,32.25,62.25,39.66" transform="matrix(1,0,0,1,696,-4)" class="stroke_order_diagram--current_path"></path><circle cx="82.68" cy="16" r="8" class="stroke_order_diagram--path_start" transform="matrix(1,0,0,1,696,-4)"></circle><line x1="850" x2="850" y1="1" y2="99" class="stroke_order_diagram--guide_line"></line><line x1="899" x2="899" y1="1" y2="99" class="stroke_order_diagram--bounding_box"></line><path id="pathSk940yk7k684" kvg:type="㇑a" d="M25.5,19.25C27,20.75,27,21,27,22.5s0.5,34.5,0.5,36.75" transform="matrix(1,0,0,1,796,-4)" class="stroke_order_diagram--existing_path"></path><path id="pathSk940yk7k685" kvg:type="㇐b" d="M27.85,21.27C33,21,44.25,18,50.96,17.89c1.56-0.03,2.5,0.18,3.29,0.37" transform="matrix(1,0,0,1,796,-4)" class="stroke_order_diagram--existing_path"></path><path id="pathSk940yk7k686" kvg:type="㇐b" d="M28.75,34.25c4.55-0.53,15.22-2.45,18.9-2.98c1.38-0.2,2.79-0.14,3.85,0.18" transform="matrix(1,0,0,1,796,-4)" class="stroke_order_diagram--existing_path"></path><path id="pathSk940yk7k687" kvg:type="㇐b" d="M28.5,46.75c4.55-0.53,15.22-2.45,18.9-2.98c1.38-0.2,2.79-0.14,3.85,0.18" transform="matrix(1,0,0,1,796,-4)" class="stroke_order_diagram--existing_path"></path><path id="pathSk940yk7k688" kvg:type="㇐" d="M11.88,62.42c0.86,0.3,2.43,0.35,3.29,0.3c8.92-0.51,28.04-4.74,40.21-5.15c1.43-0.05,2.29,0.15,3,0.3" transform="matrix(1,0,0,1,796,-4)" class="stroke_order_diagram--existing_path"></path><path id="pathSk940yk7k689" kvg:type="㇜" d="M32.65,63.31c0.1,0.94-0.47,2.32-0.8,2.8c-4.35,6.39-5.6,8.39-11.6,15.54c-1.5,1.79-0.74,3.69,1.84,2.96c7.4-2.1,20.9-5.85,30.01-8.82" transform="matrix(1,0,0,1,796,-4)" class="stroke_order_diagram--existing_path"></path><path id="pathSk940yk7k68a" kvg:type="㇔" d="M45.01,65.67c3.9,3.41,10.07,14,11.05,19.3" transform="matrix(1,0,0,1,796,-4)" class="stroke_order_diagram--existing_path"></path><path id="pathSk940yk7k68b" kvg:type="㇒" d="M82.68,16c0.05,0.58,0.25,1.58-0.12,2.32C79.75,24,73.5,32.25,62.25,39.66" transform="matrix(1,0,0,1,796,-4)" class="stroke_order_diagram--existing_path"></path><path id="kvg:09adf-s9" kvg:type="㇒" d="M88.21,35.56c0.08,0.68,0.36,1.9-0.15,2.73C84.25,44.5,75.25,56.5,61.73,64.4" transform="matrix(1,0,0,1,796,-4)" class="stroke_order_diagram--current_path"></path><path id="pathSk940yk7k68d" kvg:type="㇒" d="M88.21,35.56c0.08,0.68,0.36,1.9-0.15,2.73C84.25,44.5,75.25,56.5,61.73,64.4" transform="matrix(1,0,0,1,796,-4)" class="stroke_order_diagram--current_path"></path><circle cx="88.21" cy="35.56" r="8" class="stroke_order_diagram--path_start" transform="matrix(1,0,0,1,796,-4)"></circle><line x1="950" x2="950" y1="1" y2="99" class="stroke_order_diagram--guide_line"></line><line x1="999" x2="999" y1="1" y2="99" class="stroke_order_diagram--bounding_box"></line><path id="pathSk940yk7k68g" kvg:type="㇑a" d="M25.5,19.25C27,20.75,27,21,27,22.5s0.5,34.5,0.5,36.75" transform="matrix(1,0,0,1,896,-4)" class="stroke_order_diagram--existing_path"></path><path id="pathSk940yk7k68h" kvg:type="㇐b" d="M27.85,21.27C33,21,44.25,18,50.96,17.89c1.56-0.03,2.5,0.18,3.29,0.37" transform="matrix(1,0,0,1,896,-4)" class="stroke_order_diagram--existing_path"></path><path id="pathSk940yk7k68i" kvg:type="㇐b" d="M28.75,34.25c4.55-0.53,15.22-2.45,18.9-2.98c1.38-0.2,2.79-0.14,3.85,0.18" transform="matrix(1,0,0,1,896,-4)" class="stroke_order_diagram--existing_path"></path><path id="pathSk940yk7k68j" kvg:type="㇐b" d="M28.5,46.75c4.55-0.53,15.22-2.45,18.9-2.98c1.38-0.2,2.79-0.14,3.85,0.18" transform="matrix(1,0,0,1,896,-4)" class="stroke_order_diagram--existing_path"></path><path id="pathSk940yk7k68k" kvg:type="㇐" d="M11.88,62.42c0.86,0.3,2.43,0.35,3.29,0.3c8.92-0.51,28.04-4.74,40.21-5.15c1.43-0.05,2.29,0.15,3,0.3" transform="matrix(1,0,0,1,896,-4)" class="stroke_order_diagram--existing_path"></path><path id="pathSk940yk7k68l" kvg:type="㇜" d="M32.65,63.31c0.1,0.94-0.47,2.32-0.8,2.8c-4.35,6.39-5.6,8.39-11.6,15.54c-1.5,1.79-0.74,3.69,1.84,2.96c7.4-2.1,20.9-5.85,30.01-8.82" transform="matrix(1,0,0,1,896,-4)" class="stroke_order_diagram--existing_path"></path><path id="pathSk940yk7k68m" kvg:type="㇔" d="M45.01,65.67c3.9,3.41,10.07,14,11.05,19.3" transform="matrix(1,0,0,1,896,-4)" class="stroke_order_diagram--existing_path"></path><path id="pathSk940yk7k68n" kvg:type="㇒" d="M82.68,16c0.05,0.58,0.25,1.58-0.12,2.32C79.75,24,73.5,32.25,62.25,39.66" transform="matrix(1,0,0,1,896,-4)" class="stroke_order_diagram--existing_path"></path><path id="pathSk940yk7k68o" kvg:type="㇒" d="M88.21,35.56c0.08,0.68,0.36,1.9-0.15,2.73C84.25,44.5,75.25,56.5,61.73,64.4" transform="matrix(1,0,0,1,896,-4)" class="stroke_order_diagram--existing_path"></path><path id="kvg:09adf-s10" kvg:type="㇒" d="M90.29,58.4c0.11,0.91,0.42,2.43-0.21,3.66C85.75,70.5,72.18,86.66,51.32,97" transform="matrix(1,0,0,1,896,-4)" class="stroke_order_diagram--current_path"></path><path id="pathSk940yk7k68q" kvg:type="㇒" d="M90.29,58.4c0.11,0.91,0.42,2.43-0.21,3.66C85.75,70.5,72.18,86.66,51.32,97" transform="matrix(1,0,0,1,896,-4)" class="stroke_order_diagram--current_path"></path><circle cx="90.29" cy="58.4" r="8" class="stroke_order_diagram--path_start" transform="matrix(1,0,0,1,896,-4)"></circle></svg>