<?xml version="1.0" encoding="UTF-8"?>
<!DOCTYPE svg PUBLIC "-//W3C//DTD SVG 1.0//EN" "http://www.w3.org/TR/2001/REC-SVG-20010904/DTD/svg10.dtd" [
<!ATTLIST g
xmlns:kvg CDATA #FIXED "http://kanjivg.tagaini.net"
kvg:element CDATA #IMPLIED
kvg:variant CDATA #IMPLIED
kvg:partial CDATA #IMPLIED
kvg:original CDATA #IMPLIED
kvg:part CDATA #IMPLIED
kvg:number CDATA #IMPLIED
kvg:tradForm CDATA #IMPLIED
kvg:radicalForm CDATA #IMPLIED
kvg:position CDATA #IMPLIED
kvg:radical CDATA #IMPLIED
kvg:phon CDATA #IMPLIED >
<!ATTLIST path
xmlns:kvg CDATA #FIXED "http://kanjivg.tagaini.net"
kvg:type CDATA #IMPLIED >
]><svg style="width: 1000px; height: 100px;" xmlns="http://www.w3.org/2000/svg" xmlns:xlink="http://www.w3.org/1999/xlink"><style>
.stroke_order_diagram--outer_container {
  width: 100%;
  overflow-x: auto;
  overflow-y: hidden;
}

.stroke_order_diagram--guide_line {
  fill: none;
  stroke: #ddd;
  stroke-width: 3;
  stroke-linecap: square;
  stroke-linejoin: square;
  stroke-dasharray:8, 8;
}

.stroke_order_diagram--bounding_box {
  fill: none;
  stroke: #ddd;
  stroke-width: 4;
  stroke-linecap: square;
  stroke-linejoin: square;
}

.stroke_order_diagram--current_path {
  fill: none;
  stroke: #000;
  stroke-width: 6;
  stroke-linecap: round;
  stroke-linejoin: round;
}

.stroke_order_diagram--existing_path {
  fill: none;
  stroke: #aaa;
  stroke-width: 6;
  stroke-linecap: round;
  stroke-linejoin:round;
}

.stroke_order_diagram--path_start {
  fill: rgba(255, 0, 0, 0.7);
  stroke:none
}</style><desc>Created with Snap</desc><defs></defs><line x1="1" x2="999" y1="1" y2="1" class="stroke_order_diagram--bounding_box"></line><line x1="1" x2="1" y1="1" y2="99" class="stroke_order_diagram--bounding_box"></line><line x1="1" x2="999" y1="99" y2="99" class="stroke_order_diagram--bounding_box"></line><line x1="0" x2="1000" y1="50" y2="50" class="stroke_order_diagram--guide_line"></line><line x1="50" x2="50" y1="1" y2="99" class="stroke_order_diagram--guide_line"></line><line x1="99" x2="99" y1="1" y2="99" class="stroke_order_diagram--bounding_box"></line><path id="kvg:09ad8-s1" kvg:type="㇑a" d="M52.47,11.75c1.08,1.08,1.48,2.25,1.48,4.22c0,1.53-0.12,4.28-0.12,5.45" transform="matrix(1,0,0,1,-4,-4)" class="stroke_order_diagram--current_path"></path><path id="pathSk93xdzq063o" kvg:type="㇑a" d="M52.47,11.75c1.08,1.08,1.48,2.25,1.48,4.22c0,1.53-0.12,4.28-0.12,5.45" transform="matrix(1,0,0,1,-4,-4)" class="stroke_order_diagram--current_path"></path><circle cx="52.47" cy="11.75" r="8" class="stroke_order_diagram--path_start" transform="matrix(1,0,0,1,-4,-4)"></circle><line x1="150" x2="150" y1="1" y2="99" class="stroke_order_diagram--guide_line"></line><line x1="199" x2="199" y1="1" y2="99" class="stroke_order_diagram--bounding_box"></line><path id="pathSk93xdzq063r" kvg:type="㇑a" d="M52.47,11.75c1.08,1.08,1.48,2.25,1.48,4.22c0,1.53-0.12,4.28-0.12,5.45" transform="matrix(1,0,0,1,96,-4)" class="stroke_order_diagram--existing_path"></path><path id="kvg:09ad8-s2" kvg:type="㇐" d="M22.9,25.7c2.68,0.3,4.96,0.26,7.47-0.04c14.76-1.78,35.83-4.16,49.3-5.17c2.89-0.22,4.99-0.12,6.81,0.33" transform="matrix(1,0,0,1,96,-4)" class="stroke_order_diagram--current_path"></path><path id="pathSk93xdzq063t" kvg:type="㇐" d="M22.9,25.7c2.68,0.3,4.96,0.26,7.47-0.04c14.76-1.78,35.83-4.16,49.3-5.17c2.89-0.22,4.99-0.12,6.81,0.33" transform="matrix(1,0,0,1,96,-4)" class="stroke_order_diagram--current_path"></path><circle cx="22.9" cy="25.7" r="8" class="stroke_order_diagram--path_start" transform="matrix(1,0,0,1,96,-4)"></circle><line x1="250" x2="250" y1="1" y2="99" class="stroke_order_diagram--guide_line"></line><line x1="299" x2="299" y1="1" y2="99" class="stroke_order_diagram--bounding_box"></line><path id="pathSk93xdzq063w" kvg:type="㇑a" d="M52.47,11.75c1.08,1.08,1.48,2.25,1.48,4.22c0,1.53-0.12,4.28-0.12,5.45" transform="matrix(1,0,0,1,196,-4)" class="stroke_order_diagram--existing_path"></path><path id="pathSk93xdzq063x" kvg:type="㇐" d="M22.9,25.7c2.68,0.3,4.96,0.26,7.47-0.04c14.76-1.78,35.83-4.16,49.3-5.17c2.89-0.22,4.99-0.12,6.81,0.33" transform="matrix(1,0,0,1,196,-4)" class="stroke_order_diagram--existing_path"></path><path id="kvg:09ad8-s3" kvg:type="㇑" d="M36.25,34.75c1,0.63,1.5,1.5,1.78,2.89c0.72,3.59,1.36,7.37,2.05,11.85c0.2,1.3,0.17,1.82,0.44,3.01" transform="matrix(1,0,0,1,196,-4)" class="stroke_order_diagram--current_path"></path><path id="pathSk93xdzq063z" kvg:type="㇑" d="M36.25,34.75c1,0.63,1.5,1.5,1.78,2.89c0.72,3.59,1.36,7.37,2.05,11.85c0.2,1.3,0.17,1.82,0.44,3.01" transform="matrix(1,0,0,1,196,-4)" class="stroke_order_diagram--current_path"></path><circle cx="36.25" cy="34.75" r="8" class="stroke_order_diagram--path_start" transform="matrix(1,0,0,1,196,-4)"></circle><line x1="350" x2="350" y1="1" y2="99" class="stroke_order_diagram--guide_line"></line><line x1="399" x2="399" y1="1" y2="99" class="stroke_order_diagram--bounding_box"></line><path id="pathSk93xdzq0642" kvg:type="㇑a" d="M52.47,11.75c1.08,1.08,1.48,2.25,1.48,4.22c0,1.53-0.12,4.28-0.12,5.45" transform="matrix(1,0,0,1,296,-4)" class="stroke_order_diagram--existing_path"></path><path id="pathSk93xdzq0643" kvg:type="㇐" d="M22.9,25.7c2.68,0.3,4.96,0.26,7.47-0.04c14.76-1.78,35.83-4.16,49.3-5.17c2.89-0.22,4.99-0.12,6.81,0.33" transform="matrix(1,0,0,1,296,-4)" class="stroke_order_diagram--existing_path"></path><path id="pathSk93xdzq0644" kvg:type="㇑" d="M36.25,34.75c1,0.63,1.5,1.5,1.78,2.89c0.72,3.59,1.36,7.37,2.05,11.85c0.2,1.3,0.17,1.82,0.44,3.01" transform="matrix(1,0,0,1,296,-4)" class="stroke_order_diagram--existing_path"></path><path id="kvg:09ad8-s4" kvg:type="㇕b" d="M39.05,36.33c9.95-1.71,23.99-3.65,29.61-4.1c2.96-0.23,3.83,1.02,3.14,3.31c-0.88,2.93-2.17,7.01-3.32,10.2" transform="matrix(1,0,0,1,296,-4)" class="stroke_order_diagram--current_path"></path><path id="pathSk93xdzq0646" kvg:type="㇕b" d="M39.05,36.33c9.95-1.71,23.99-3.65,29.61-4.1c2.96-0.23,3.83,1.02,3.14,3.31c-0.88,2.93-2.17,7.01-3.32,10.2" transform="matrix(1,0,0,1,296,-4)" class="stroke_order_diagram--current_path"></path><circle cx="39.05" cy="36.33" r="8" class="stroke_order_diagram--path_start" transform="matrix(1,0,0,1,296,-4)"></circle><line x1="450" x2="450" y1="1" y2="99" class="stroke_order_diagram--guide_line"></line><line x1="499" x2="499" y1="1" y2="99" class="stroke_order_diagram--bounding_box"></line><path id="pathSk93xdzq0649" kvg:type="㇑a" d="M52.47,11.75c1.08,1.08,1.48,2.25,1.48,4.22c0,1.53-0.12,4.28-0.12,5.45" transform="matrix(1,0,0,1,396,-4)" class="stroke_order_diagram--existing_path"></path><path id="pathSk93xdzq064a" kvg:type="㇐" d="M22.9,25.7c2.68,0.3,4.96,0.26,7.47-0.04c14.76-1.78,35.83-4.16,49.3-5.17c2.89-0.22,4.99-0.12,6.81,0.33" transform="matrix(1,0,0,1,396,-4)" class="stroke_order_diagram--existing_path"></path><path id="pathSk93xdzq064b" kvg:type="㇑" d="M36.25,34.75c1,0.63,1.5,1.5,1.78,2.89c0.72,3.59,1.36,7.37,2.05,11.85c0.2,1.3,0.17,1.82,0.44,3.01" transform="matrix(1,0,0,1,396,-4)" class="stroke_order_diagram--existing_path"></path><path id="pathSk93xdzq064c" kvg:type="㇕b" d="M39.05,36.33c9.95-1.71,23.99-3.65,29.61-4.1c2.96-0.23,3.83,1.02,3.14,3.31c-0.88,2.93-2.17,7.01-3.32,10.2" transform="matrix(1,0,0,1,396,-4)" class="stroke_order_diagram--existing_path"></path><path id="kvg:09ad8-s5" kvg:type="㇐b" d="M41.28,49.94c6.57-0.42,16.36-1.87,25.72-2.71c1.3-0.12,2.59-0.22,3.85-0.31" transform="matrix(1,0,0,1,396,-4)" class="stroke_order_diagram--current_path"></path><path id="pathSk93xdzq064e" kvg:type="㇐b" d="M41.28,49.94c6.57-0.42,16.36-1.87,25.72-2.71c1.3-0.12,2.59-0.22,3.85-0.31" transform="matrix(1,0,0,1,396,-4)" class="stroke_order_diagram--current_path"></path><circle cx="41.28" cy="49.94" r="8" class="stroke_order_diagram--path_start" transform="matrix(1,0,0,1,396,-4)"></circle><line x1="550" x2="550" y1="1" y2="99" class="stroke_order_diagram--guide_line"></line><line x1="599" x2="599" y1="1" y2="99" class="stroke_order_diagram--bounding_box"></line><path id="pathSk93xdzq064h" kvg:type="㇑a" d="M52.47,11.75c1.08,1.08,1.48,2.25,1.48,4.22c0,1.53-0.12,4.28-0.12,5.45" transform="matrix(1,0,0,1,496,-4)" class="stroke_order_diagram--existing_path"></path><path id="pathSk93xdzq064i" kvg:type="㇐" d="M22.9,25.7c2.68,0.3,4.96,0.26,7.47-0.04c14.76-1.78,35.83-4.16,49.3-5.17c2.89-0.22,4.99-0.12,6.81,0.33" transform="matrix(1,0,0,1,496,-4)" class="stroke_order_diagram--existing_path"></path><path id="pathSk93xdzq064j" kvg:type="㇑" d="M36.25,34.75c1,0.63,1.5,1.5,1.78,2.89c0.72,3.59,1.36,7.37,2.05,11.85c0.2,1.3,0.17,1.82,0.44,3.01" transform="matrix(1,0,0,1,496,-4)" class="stroke_order_diagram--existing_path"></path><path id="pathSk93xdzq064k" kvg:type="㇕b" d="M39.05,36.33c9.95-1.71,23.99-3.65,29.61-4.1c2.96-0.23,3.83,1.02,3.14,3.31c-0.88,2.93-2.17,7.01-3.32,10.2" transform="matrix(1,0,0,1,496,-4)" class="stroke_order_diagram--existing_path"></path><path id="pathSk93xdzq064l" kvg:type="㇐b" d="M41.28,49.94c6.57-0.42,16.36-1.87,25.72-2.71c1.3-0.12,2.59-0.22,3.85-0.31" transform="matrix(1,0,0,1,496,-4)" class="stroke_order_diagram--existing_path"></path><path id="kvg:09ad8-s6" kvg:type="㇑" d="M21,60.25c1.31,1.31,1.9,2.76,2.21,5c0.79,5.62,2.21,18.19,3.16,26.99c0.15,1.39,0.28,2.67,0.38,3.76" transform="matrix(1,0,0,1,496,-4)" class="stroke_order_diagram--current_path"></path><path id="pathSk93xdzq064n" kvg:type="㇑" d="M21,60.25c1.31,1.31,1.9,2.76,2.21,5c0.79,5.62,2.21,18.19,3.16,26.99c0.15,1.39,0.28,2.67,0.38,3.76" transform="matrix(1,0,0,1,496,-4)" class="stroke_order_diagram--current_path"></path><circle cx="21" cy="60.25" r="8" class="stroke_order_diagram--path_start" transform="matrix(1,0,0,1,496,-4)"></circle><line x1="650" x2="650" y1="1" y2="99" class="stroke_order_diagram--guide_line"></line><line x1="699" x2="699" y1="1" y2="99" class="stroke_order_diagram--bounding_box"></line><path id="pathSk93xdzq064q" kvg:type="㇑a" d="M52.47,11.75c1.08,1.08,1.48,2.25,1.48,4.22c0,1.53-0.12,4.28-0.12,5.45" transform="matrix(1,0,0,1,596,-4)" class="stroke_order_diagram--existing_path"></path><path id="pathSk93xdzq064r" kvg:type="㇐" d="M22.9,25.7c2.68,0.3,4.96,0.26,7.47-0.04c14.76-1.78,35.83-4.16,49.3-5.17c2.89-0.22,4.99-0.12,6.81,0.33" transform="matrix(1,0,0,1,596,-4)" class="stroke_order_diagram--existing_path"></path><path id="pathSk93xdzq064s" kvg:type="㇑" d="M36.25,34.75c1,0.63,1.5,1.5,1.78,2.89c0.72,3.59,1.36,7.37,2.05,11.85c0.2,1.3,0.17,1.82,0.44,3.01" transform="matrix(1,0,0,1,596,-4)" class="stroke_order_diagram--existing_path"></path><path id="pathSk93xdzq064t" kvg:type="㇕b" d="M39.05,36.33c9.95-1.71,23.99-3.65,29.61-4.1c2.96-0.23,3.83,1.02,3.14,3.31c-0.88,2.93-2.17,7.01-3.32,10.2" transform="matrix(1,0,0,1,596,-4)" class="stroke_order_diagram--existing_path"></path><path id="pathSk93xdzq064u" kvg:type="㇐b" d="M41.28,49.94c6.57-0.42,16.36-1.87,25.72-2.71c1.3-0.12,2.59-0.22,3.85-0.31" transform="matrix(1,0,0,1,596,-4)" class="stroke_order_diagram--existing_path"></path><path id="pathSk93xdzq064v" kvg:type="㇑" d="M21,60.25c1.31,1.31,1.9,2.76,2.21,5c0.79,5.62,2.21,18.19,3.16,26.99c0.15,1.39,0.28,2.67,0.38,3.76" transform="matrix(1,0,0,1,596,-4)" class="stroke_order_diagram--existing_path"></path><path id="kvg:09ad8-s7" kvg:type="㇆a" d="M24.06,64c16.08-1.51,58.63-6.55,60.19-6.75c3.75-0.5,6,1.5,5.25,6.25c-1.49,9.45-2.62,19.62-5.25,28.25c-2.05,6.75-5.38,2.5-7.8,0" transform="matrix(1,0,0,1,596,-4)" class="stroke_order_diagram--current_path"></path><path id="pathSk93xdzq064x" kvg:type="㇆a" d="M24.06,64c16.08-1.51,58.63-6.55,60.19-6.75c3.75-0.5,6,1.5,5.25,6.25c-1.49,9.45-2.62,19.62-5.25,28.25c-2.05,6.75-5.38,2.5-7.8,0" transform="matrix(1,0,0,1,596,-4)" class="stroke_order_diagram--current_path"></path><circle cx="24.06" cy="64" r="8" class="stroke_order_diagram--path_start" transform="matrix(1,0,0,1,596,-4)"></circle><line x1="750" x2="750" y1="1" y2="99" class="stroke_order_diagram--guide_line"></line><line x1="799" x2="799" y1="1" y2="99" class="stroke_order_diagram--bounding_box"></line><path id="pathSk93xdzq0650" kvg:type="㇑a" d="M52.47,11.75c1.08,1.08,1.48,2.25,1.48,4.22c0,1.53-0.12,4.28-0.12,5.45" transform="matrix(1,0,0,1,696,-4)" class="stroke_order_diagram--existing_path"></path><path id="pathSk93xdzq0651" kvg:type="㇐" d="M22.9,25.7c2.68,0.3,4.96,0.26,7.47-0.04c14.76-1.78,35.83-4.16,49.3-5.17c2.89-0.22,4.99-0.12,6.81,0.33" transform="matrix(1,0,0,1,696,-4)" class="stroke_order_diagram--existing_path"></path><path id="pathSk93xdzq0652" kvg:type="㇑" d="M36.25,34.75c1,0.63,1.5,1.5,1.78,2.89c0.72,3.59,1.36,7.37,2.05,11.85c0.2,1.3,0.17,1.82,0.44,3.01" transform="matrix(1,0,0,1,696,-4)" class="stroke_order_diagram--existing_path"></path><path id="pathSk93xdzq0653" kvg:type="㇕b" d="M39.05,36.33c9.95-1.71,23.99-3.65,29.61-4.1c2.96-0.23,3.83,1.02,3.14,3.31c-0.88,2.93-2.17,7.01-3.32,10.2" transform="matrix(1,0,0,1,696,-4)" class="stroke_order_diagram--existing_path"></path><path id="pathSk93xdzq0654" kvg:type="㇐b" d="M41.28,49.94c6.57-0.42,16.36-1.87,25.72-2.71c1.3-0.12,2.59-0.22,3.85-0.31" transform="matrix(1,0,0,1,696,-4)" class="stroke_order_diagram--existing_path"></path><path id="pathSk93xdzq0655" kvg:type="㇑" d="M21,60.25c1.31,1.31,1.9,2.76,2.21,5c0.79,5.62,2.21,18.19,3.16,26.99c0.15,1.39,0.28,2.67,0.38,3.76" transform="matrix(1,0,0,1,696,-4)" class="stroke_order_diagram--existing_path"></path><path id="pathSk93xdzq0656" kvg:type="㇆a" d="M24.06,64c16.08-1.51,58.63-6.55,60.19-6.75c3.75-0.5,6,1.5,5.25,6.25c-1.49,9.45-2.62,19.62-5.25,28.25c-2.05,6.75-5.38,2.5-7.8,0" transform="matrix(1,0,0,1,696,-4)" class="stroke_order_diagram--existing_path"></path><path id="kvg:09ad8-s8" kvg:type="㇑" d="M41.5,71.68c0.66,0.66,1.16,1.63,1.31,2.47c0.89,2.82,1.58,7.24,2.39,11.81c0.21,1.16,0.4,1.78,0.56,2.79" transform="matrix(1,0,0,1,696,-4)" class="stroke_order_diagram--current_path"></path><path id="pathSk93xdzq0658" kvg:type="㇑" d="M41.5,71.68c0.66,0.66,1.16,1.63,1.31,2.47c0.89,2.82,1.58,7.24,2.39,11.81c0.21,1.16,0.4,1.78,0.56,2.79" transform="matrix(1,0,0,1,696,-4)" class="stroke_order_diagram--current_path"></path><circle cx="41.5" cy="71.68" r="8" class="stroke_order_diagram--path_start" transform="matrix(1,0,0,1,696,-4)"></circle><line x1="850" x2="850" y1="1" y2="99" class="stroke_order_diagram--guide_line"></line><line x1="899" x2="899" y1="1" y2="99" class="stroke_order_diagram--bounding_box"></line><path id="pathSk93xdzq065b" kvg:type="㇑a" d="M52.47,11.75c1.08,1.08,1.48,2.25,1.48,4.22c0,1.53-0.12,4.28-0.12,5.45" transform="matrix(1,0,0,1,796,-4)" class="stroke_order_diagram--existing_path"></path><path id="pathSk93xdzq065c" kvg:type="㇐" d="M22.9,25.7c2.68,0.3,4.96,0.26,7.47-0.04c14.76-1.78,35.83-4.16,49.3-5.17c2.89-0.22,4.99-0.12,6.81,0.33" transform="matrix(1,0,0,1,796,-4)" class="stroke_order_diagram--existing_path"></path><path id="pathSk93xdzq065d" kvg:type="㇑" d="M36.25,34.75c1,0.63,1.5,1.5,1.78,2.89c0.72,3.59,1.36,7.37,2.05,11.85c0.2,1.3,0.17,1.82,0.44,3.01" transform="matrix(1,0,0,1,796,-4)" class="stroke_order_diagram--existing_path"></path><path id="pathSk93xdzq065e" kvg:type="㇕b" d="M39.05,36.33c9.95-1.71,23.99-3.65,29.61-4.1c2.96-0.23,3.83,1.02,3.14,3.31c-0.88,2.93-2.17,7.01-3.32,10.2" transform="matrix(1,0,0,1,796,-4)" class="stroke_order_diagram--existing_path"></path><path id="pathSk93xdzq065f" kvg:type="㇐b" d="M41.28,49.94c6.57-0.42,16.36-1.87,25.72-2.71c1.3-0.12,2.59-0.22,3.85-0.31" transform="matrix(1,0,0,1,796,-4)" class="stroke_order_diagram--existing_path"></path><path id="pathSk93xdzq065g" kvg:type="㇑" d="M21,60.25c1.31,1.31,1.9,2.76,2.21,5c0.79,5.62,2.21,18.19,3.16,26.99c0.15,1.39,0.28,2.67,0.38,3.76" transform="matrix(1,0,0,1,796,-4)" class="stroke_order_diagram--existing_path"></path><path id="pathSk93xdzq065h" kvg:type="㇆a" d="M24.06,64c16.08-1.51,58.63-6.55,60.19-6.75c3.75-0.5,6,1.5,5.25,6.25c-1.49,9.45-2.62,19.62-5.25,28.25c-2.05,6.75-5.38,2.5-7.8,0" transform="matrix(1,0,0,1,796,-4)" class="stroke_order_diagram--existing_path"></path><path id="pathSk93xdzq065i" kvg:type="㇑" d="M41.5,71.68c0.66,0.66,1.16,1.63,1.31,2.47c0.89,2.82,1.58,7.24,2.39,11.81c0.21,1.16,0.4,1.78,0.56,2.79" transform="matrix(1,0,0,1,796,-4)" class="stroke_order_diagram--existing_path"></path><path id="kvg:09ad8-s9" kvg:type="㇕b" d="M44.02,73.08c6.79-1.36,17.1-2.86,20.92-3.35c1.81-0.23,3.31,1.02,3.13,2.5c-0.35,2.92-1.96,8.31-3.12,11.75" transform="matrix(1,0,0,1,796,-4)" class="stroke_order_diagram--current_path"></path><path id="pathSk93xdzq065k" kvg:type="㇕b" d="M44.02,73.08c6.79-1.36,17.1-2.86,20.92-3.35c1.81-0.23,3.31,1.02,3.13,2.5c-0.35,2.92-1.96,8.31-3.12,11.75" transform="matrix(1,0,0,1,796,-4)" class="stroke_order_diagram--current_path"></path><circle cx="44.02" cy="73.08" r="8" class="stroke_order_diagram--path_start" transform="matrix(1,0,0,1,796,-4)"></circle><line x1="950" x2="950" y1="1" y2="99" class="stroke_order_diagram--guide_line"></line><line x1="999" x2="999" y1="1" y2="99" class="stroke_order_diagram--bounding_box"></line><path id="pathSk93xdzq065n" kvg:type="㇑a" d="M52.47,11.75c1.08,1.08,1.48,2.25,1.48,4.22c0,1.53-0.12,4.28-0.12,5.45" transform="matrix(1,0,0,1,896,-4)" class="stroke_order_diagram--existing_path"></path><path id="pathSk93xdzq065o" kvg:type="㇐" d="M22.9,25.7c2.68,0.3,4.96,0.26,7.47-0.04c14.76-1.78,35.83-4.16,49.3-5.17c2.89-0.22,4.99-0.12,6.81,0.33" transform="matrix(1,0,0,1,896,-4)" class="stroke_order_diagram--existing_path"></path><path id="pathSk93xdzq065p" kvg:type="㇑" d="M36.25,34.75c1,0.63,1.5,1.5,1.78,2.89c0.72,3.59,1.36,7.37,2.05,11.85c0.2,1.3,0.17,1.82,0.44,3.01" transform="matrix(1,0,0,1,896,-4)" class="stroke_order_diagram--existing_path"></path><path id="pathSk93xdzq065q" kvg:type="㇕b" d="M39.05,36.33c9.95-1.71,23.99-3.65,29.61-4.1c2.96-0.23,3.83,1.02,3.14,3.31c-0.88,2.93-2.17,7.01-3.32,10.2" transform="matrix(1,0,0,1,896,-4)" class="stroke_order_diagram--existing_path"></path><path id="pathSk93xdzq065r" kvg:type="㇐b" d="M41.28,49.94c6.57-0.42,16.36-1.87,25.72-2.71c1.3-0.12,2.59-0.22,3.85-0.31" transform="matrix(1,0,0,1,896,-4)" class="stroke_order_diagram--existing_path"></path><path id="pathSk93xdzq065s" kvg:type="㇑" d="M21,60.25c1.31,1.31,1.9,2.76,2.21,5c0.79,5.62,2.21,18.19,3.16,26.99c0.15,1.39,0.28,2.67,0.38,3.76" transform="matrix(1,0,0,1,896,-4)" class="stroke_order_diagram--existing_path"></path><path id="pathSk93xdzq065t" kvg:type="㇆a" d="M24.06,64c16.08-1.51,58.63-6.55,60.19-6.75c3.75-0.5,6,1.5,5.25,6.25c-1.49,9.45-2.62,19.62-5.25,28.25c-2.05,6.75-5.38,2.5-7.8,0" transform="matrix(1,0,0,1,896,-4)" class="stroke_order_diagram--existing_path"></path><path id="pathSk93xdzq065u" kvg:type="㇑" d="M41.5,71.68c0.66,0.66,1.16,1.63,1.31,2.47c0.89,2.82,1.58,7.24,2.39,11.81c0.21,1.16,0.4,1.78,0.56,2.79" transform="matrix(1,0,0,1,896,-4)" class="stroke_order_diagram--existing_path"></path><path id="pathSk93xdzq065v" kvg:type="㇕b" d="M44.02,73.08c6.79-1.36,17.1-2.86,20.92-3.35c1.81-0.23,3.31,1.02,3.13,2.5c-0.35,2.92-1.96,8.31-3.12,11.75" transform="matrix(1,0,0,1,896,-4)" class="stroke_order_diagram--existing_path"></path><path id="kvg:09ad8-s10" kvg:type="㇐b" d="M46.44,87.05c4.61-0.4,11.01-1.31,17.32-1.94c0.88-0.09,1.77-0.17,2.65-0.26" transform="matrix(1,0,0,1,896,-4)" class="stroke_order_diagram--current_path"></path><path id="pathSk93xdzq065x" kvg:type="㇐b" d="M46.44,87.05c4.61-0.4,11.01-1.31,17.32-1.94c0.88-0.09,1.77-0.17,2.65-0.26" transform="matrix(1,0,0,1,896,-4)" class="stroke_order_diagram--current_path"></path><circle cx="46.44" cy="87.05" r="8" class="stroke_order_diagram--path_start" transform="matrix(1,0,0,1,896,-4)"></circle></svg>