<?xml version="1.0" encoding="UTF-8"?>
<!DOCTYPE svg PUBLIC "-//W3C//DTD SVG 1.0//EN" "http://www.w3.org/TR/2001/REC-SVG-20010904/DTD/svg10.dtd" [
<!ATTLIST g
xmlns:kvg CDATA #FIXED "http://kanjivg.tagaini.net"
kvg:element CDATA #IMPLIED
kvg:variant CDATA #IMPLIED
kvg:partial CDATA #IMPLIED
kvg:original CDATA #IMPLIED
kvg:part CDATA #IMPLIED
kvg:number CDATA #IMPLIED
kvg:tradForm CDATA #IMPLIED
kvg:radicalForm CDATA #IMPLIED
kvg:position CDATA #IMPLIED
kvg:radical CDATA #IMPLIED
kvg:phon CDATA #IMPLIED >
<!ATTLIST path
xmlns:kvg CDATA #FIXED "http://kanjivg.tagaini.net"
kvg:type CDATA #IMPLIED >
]><svg style="width: 1000px; height: 100px;" xmlns="http://www.w3.org/2000/svg" xmlns:xlink="http://www.w3.org/1999/xlink" width="1000px" height="100px"><style>
.stroke_order_diagram--outer_container {
  width: 100%;
  overflow-x: auto;
  overflow-y: hidden;
}

.stroke_order_diagram--guide_line {
  fill: none;
  stroke: #ddd;
  stroke-width: 3;
  stroke-linecap: square;
  stroke-linejoin: square;
  stroke-dasharray:8, 8;
}

.stroke_order_diagram--bounding_box {
  fill: none;
  stroke: #ddd;
  stroke-width: 4;
  stroke-linecap: square;
  stroke-linejoin: square;
}

.stroke_order_diagram--current_path {
  fill: none;
  stroke: #000;
  stroke-width: 6;
  stroke-linecap: round;
  stroke-linejoin: round;
}

.stroke_order_diagram--existing_path {
  fill: none;
  stroke: #aaa;
  stroke-width: 6;
  stroke-linecap: round;
  stroke-linejoin:round;
}

.stroke_order_diagram--path_start {
  fill: rgba(255, 0, 0, 0.7);
  stroke:none
}</style><desc>Created with Snap</desc><defs></defs><line x1="1" x2="999" y1="1" y2="1" class="stroke_order_diagram--bounding_box"></line><line x1="1" x2="1" y1="1" y2="99" class="stroke_order_diagram--bounding_box"></line><line x1="1" x2="999" y1="99" y2="99" class="stroke_order_diagram--bounding_box"></line><line x1="0" x2="1000" y1="50" y2="50" class="stroke_order_diagram--guide_line"></line><line x1="50" x2="50" y1="1" y2="99" class="stroke_order_diagram--guide_line"></line><line x1="99" x2="99" y1="1" y2="99" class="stroke_order_diagram--bounding_box"></line><path id="kvg:09b2f-s1" kvg:type="㇒" d="M70.2,12.39c0.11,0.77,0.23,2-0.21,3.11c-2.62,6.55-17.63,20.92-38.18,29.72" transform="matrix(1,0,0,1,-4,-4)" class="stroke_order_diagram--current_path"></path><path id="pathSk940yk7k6c3" kvg:type="㇒" d="M70.2,12.39c0.11,0.77,0.23,2-0.21,3.11c-2.62,6.55-17.63,20.92-38.18,29.72" transform="matrix(1,0,0,1,-4,-4)" class="stroke_order_diagram--current_path"></path><circle cx="70.2" cy="12.39" r="8" class="stroke_order_diagram--path_start" transform="matrix(1,0,0,1,-4,-4)"></circle><line x1="150" x2="150" y1="1" y2="99" class="stroke_order_diagram--guide_line"></line><line x1="199" x2="199" y1="1" y2="99" class="stroke_order_diagram--bounding_box"></line><path id="pathSk940yk7k6c6" kvg:type="㇒" d="M70.2,12.39c0.11,0.77,0.23,2-0.21,3.11c-2.62,6.55-17.63,20.92-38.18,29.72" transform="matrix(1,0,0,1,96,-4)" class="stroke_order_diagram--existing_path"></path><path id="kvg:09b2f-s2" kvg:type="㇔" d="M34.27,18.33c13.25,5.01,34.23,20.59,37.54,28.38" transform="matrix(1,0,0,1,96,-4)" class="stroke_order_diagram--current_path"></path><path id="pathSk940yk7k6c8" kvg:type="㇔" d="M34.27,18.33c13.25,5.01,34.23,20.59,37.54,28.38" transform="matrix(1,0,0,1,96,-4)" class="stroke_order_diagram--current_path"></path><circle cx="34.27" cy="18.33" r="8" class="stroke_order_diagram--path_start" transform="matrix(1,0,0,1,96,-4)"></circle><line x1="250" x2="250" y1="1" y2="99" class="stroke_order_diagram--guide_line"></line><line x1="299" x2="299" y1="1" y2="99" class="stroke_order_diagram--bounding_box"></line><path id="pathSk940yk7k6cb" kvg:type="㇒" d="M70.2,12.39c0.11,0.77,0.23,2-0.21,3.11c-2.62,6.55-17.63,20.92-38.18,29.72" transform="matrix(1,0,0,1,196,-4)" class="stroke_order_diagram--existing_path"></path><path id="pathSk940yk7k6cc" kvg:type="㇔" d="M34.27,18.33c13.25,5.01,34.23,20.59,37.54,28.38" transform="matrix(1,0,0,1,196,-4)" class="stroke_order_diagram--existing_path"></path><path id="kvg:09b2f-s3" kvg:type="㇔" d="M46.77,11.08c3.54,1.74,9.16,7.17,10.04,9.88" transform="matrix(1,0,0,1,196,-4)" class="stroke_order_diagram--current_path"></path><path id="pathSk940yk7k6ce" kvg:type="㇔" d="M46.77,11.08c3.54,1.74,9.16,7.17,10.04,9.88" transform="matrix(1,0,0,1,196,-4)" class="stroke_order_diagram--current_path"></path><circle cx="46.77" cy="11.08" r="8" class="stroke_order_diagram--path_start" transform="matrix(1,0,0,1,196,-4)"></circle><line x1="350" x2="350" y1="1" y2="99" class="stroke_order_diagram--guide_line"></line><line x1="399" x2="399" y1="1" y2="99" class="stroke_order_diagram--bounding_box"></line><path id="pathSk940yk7k6ch" kvg:type="㇒" d="M70.2,12.39c0.11,0.77,0.23,2-0.21,3.11c-2.62,6.55-17.63,20.92-38.18,29.72" transform="matrix(1,0,0,1,296,-4)" class="stroke_order_diagram--existing_path"></path><path id="pathSk940yk7k6ci" kvg:type="㇔" d="M34.27,18.33c13.25,5.01,34.23,20.59,37.54,28.38" transform="matrix(1,0,0,1,296,-4)" class="stroke_order_diagram--existing_path"></path><path id="pathSk940yk7k6cj" kvg:type="㇔" d="M46.77,11.08c3.54,1.74,9.16,7.17,10.04,9.88" transform="matrix(1,0,0,1,296,-4)" class="stroke_order_diagram--existing_path"></path><path id="kvg:09b2f-s4" kvg:type="㇔" d="M29.52,26.33c3.54,1.74,9.16,7.17,10.04,9.88" transform="matrix(1,0,0,1,296,-4)" class="stroke_order_diagram--current_path"></path><path id="pathSk940yk7k6cl" kvg:type="㇔" d="M29.52,26.33c3.54,1.74,9.16,7.17,10.04,9.88" transform="matrix(1,0,0,1,296,-4)" class="stroke_order_diagram--current_path"></path><circle cx="29.52" cy="26.33" r="8" class="stroke_order_diagram--path_start" transform="matrix(1,0,0,1,296,-4)"></circle><line x1="450" x2="450" y1="1" y2="99" class="stroke_order_diagram--guide_line"></line><line x1="499" x2="499" y1="1" y2="99" class="stroke_order_diagram--bounding_box"></line><path id="pathSk940yk7k6co" kvg:type="㇒" d="M70.2,12.39c0.11,0.77,0.23,2-0.21,3.11c-2.62,6.55-17.63,20.92-38.18,29.72" transform="matrix(1,0,0,1,396,-4)" class="stroke_order_diagram--existing_path"></path><path id="pathSk940yk7k6cp" kvg:type="㇔" d="M34.27,18.33c13.25,5.01,34.23,20.59,37.54,28.38" transform="matrix(1,0,0,1,396,-4)" class="stroke_order_diagram--existing_path"></path><path id="pathSk940yk7k6cq" kvg:type="㇔" d="M46.77,11.08c3.54,1.74,9.16,7.17,10.04,9.88" transform="matrix(1,0,0,1,396,-4)" class="stroke_order_diagram--existing_path"></path><path id="pathSk940yk7k6cr" kvg:type="㇔" d="M29.52,26.33c3.54,1.74,9.16,7.17,10.04,9.88" transform="matrix(1,0,0,1,396,-4)" class="stroke_order_diagram--existing_path"></path><path id="kvg:09b2f-s5" kvg:type="㇔" d="M68.27,27.58c3.54,1.74,9.16,7.17,10.04,9.88" transform="matrix(1,0,0,1,396,-4)" class="stroke_order_diagram--current_path"></path><path id="pathSk940yk7k6ct" kvg:type="㇔" d="M68.27,27.58c3.54,1.74,9.16,7.17,10.04,9.88" transform="matrix(1,0,0,1,396,-4)" class="stroke_order_diagram--current_path"></path><circle cx="68.27" cy="27.58" r="8" class="stroke_order_diagram--path_start" transform="matrix(1,0,0,1,396,-4)"></circle><line x1="550" x2="550" y1="1" y2="99" class="stroke_order_diagram--guide_line"></line><line x1="599" x2="599" y1="1" y2="99" class="stroke_order_diagram--bounding_box"></line><path id="pathSk940yk7k6cw" kvg:type="㇒" d="M70.2,12.39c0.11,0.77,0.23,2-0.21,3.11c-2.62,6.55-17.63,20.92-38.18,29.72" transform="matrix(1,0,0,1,496,-4)" class="stroke_order_diagram--existing_path"></path><path id="pathSk940yk7k6cx" kvg:type="㇔" d="M34.27,18.33c13.25,5.01,34.23,20.59,37.54,28.38" transform="matrix(1,0,0,1,496,-4)" class="stroke_order_diagram--existing_path"></path><path id="pathSk940yk7k6cy" kvg:type="㇔" d="M46.77,11.08c3.54,1.74,9.16,7.17,10.04,9.88" transform="matrix(1,0,0,1,496,-4)" class="stroke_order_diagram--existing_path"></path><path id="pathSk940yk7k6cz" kvg:type="㇔" d="M29.52,26.33c3.54,1.74,9.16,7.17,10.04,9.88" transform="matrix(1,0,0,1,496,-4)" class="stroke_order_diagram--existing_path"></path><path id="pathSk940yk7k6d0" kvg:type="㇔" d="M68.27,27.58c3.54,1.74,9.16,7.17,10.04,9.88" transform="matrix(1,0,0,1,496,-4)" class="stroke_order_diagram--existing_path"></path><path id="kvg:09b2f-s6" kvg:type="㇔" d="M50.77,41.33c2.93,1.21,7.56,4.99,8.29,6.88" transform="matrix(1,0,0,1,496,-4)" class="stroke_order_diagram--current_path"></path><path id="pathSk940yk7k6d2" kvg:type="㇔" d="M50.77,41.33c2.93,1.21,7.56,4.99,8.29,6.88" transform="matrix(1,0,0,1,496,-4)" class="stroke_order_diagram--current_path"></path><circle cx="50.77" cy="41.33" r="8" class="stroke_order_diagram--path_start" transform="matrix(1,0,0,1,496,-4)"></circle><line x1="650" x2="650" y1="1" y2="99" class="stroke_order_diagram--guide_line"></line><line x1="699" x2="699" y1="1" y2="99" class="stroke_order_diagram--bounding_box"></line><path id="pathSk940yk7k6d5" kvg:type="㇒" d="M70.2,12.39c0.11,0.77,0.23,2-0.21,3.11c-2.62,6.55-17.63,20.92-38.18,29.72" transform="matrix(1,0,0,1,596,-4)" class="stroke_order_diagram--existing_path"></path><path id="pathSk940yk7k6d6" kvg:type="㇔" d="M34.27,18.33c13.25,5.01,34.23,20.59,37.54,28.38" transform="matrix(1,0,0,1,596,-4)" class="stroke_order_diagram--existing_path"></path><path id="pathSk940yk7k6d7" kvg:type="㇔" d="M46.77,11.08c3.54,1.74,9.16,7.17,10.04,9.88" transform="matrix(1,0,0,1,596,-4)" class="stroke_order_diagram--existing_path"></path><path id="pathSk940yk7k6d8" kvg:type="㇔" d="M29.52,26.33c3.54,1.74,9.16,7.17,10.04,9.88" transform="matrix(1,0,0,1,596,-4)" class="stroke_order_diagram--existing_path"></path><path id="pathSk940yk7k6d9" kvg:type="㇔" d="M68.27,27.58c3.54,1.74,9.16,7.17,10.04,9.88" transform="matrix(1,0,0,1,596,-4)" class="stroke_order_diagram--existing_path"></path><path id="pathSk940yk7k6da" kvg:type="㇔" d="M50.77,41.33c2.93,1.21,7.56,4.99,8.29,6.88" transform="matrix(1,0,0,1,596,-4)" class="stroke_order_diagram--existing_path"></path><path id="kvg:09b2f-s7" kvg:type="㇄a" d="M21.96,17.55c0.65,0.39,1.74,1.83,1.74,3.67c0,0.78,1.35,28.3,1.28,30.13c-0.06,1.83,0.58,3.12,2.72,2.93c11.87-1.09,46.92-2.8,53.72-3.19" transform="matrix(1,0,0,1,596,-4)" class="stroke_order_diagram--current_path"></path><path id="pathSk940yk7k6dc" kvg:type="㇄a" d="M21.96,17.55c0.65,0.39,1.74,1.83,1.74,3.67c0,0.78,1.35,28.3,1.28,30.13c-0.06,1.83,0.58,3.12,2.72,2.93c11.87-1.09,46.92-2.8,53.72-3.19" transform="matrix(1,0,0,1,596,-4)" class="stroke_order_diagram--current_path"></path><circle cx="21.96" cy="17.55" r="8" class="stroke_order_diagram--path_start" transform="matrix(1,0,0,1,596,-4)"></circle><line x1="750" x2="750" y1="1" y2="99" class="stroke_order_diagram--guide_line"></line><line x1="799" x2="799" y1="1" y2="99" class="stroke_order_diagram--bounding_box"></line><path id="pathSk940yk7k6df" kvg:type="㇒" d="M70.2,12.39c0.11,0.77,0.23,2-0.21,3.11c-2.62,6.55-17.63,20.92-38.18,29.72" transform="matrix(1,0,0,1,696,-4)" class="stroke_order_diagram--existing_path"></path><path id="pathSk940yk7k6dg" kvg:type="㇔" d="M34.27,18.33c13.25,5.01,34.23,20.59,37.54,28.38" transform="matrix(1,0,0,1,696,-4)" class="stroke_order_diagram--existing_path"></path><path id="pathSk940yk7k6dh" kvg:type="㇔" d="M46.77,11.08c3.54,1.74,9.16,7.17,10.04,9.88" transform="matrix(1,0,0,1,696,-4)" class="stroke_order_diagram--existing_path"></path><path id="pathSk940yk7k6di" kvg:type="㇔" d="M29.52,26.33c3.54,1.74,9.16,7.17,10.04,9.88" transform="matrix(1,0,0,1,696,-4)" class="stroke_order_diagram--existing_path"></path><path id="pathSk940yk7k6dj" kvg:type="㇔" d="M68.27,27.58c3.54,1.74,9.16,7.17,10.04,9.88" transform="matrix(1,0,0,1,696,-4)" class="stroke_order_diagram--existing_path"></path><path id="pathSk940yk7k6dk" kvg:type="㇔" d="M50.77,41.33c2.93,1.21,7.56,4.99,8.29,6.88" transform="matrix(1,0,0,1,696,-4)" class="stroke_order_diagram--existing_path"></path><path id="pathSk940yk7k6dl" kvg:type="㇄a" d="M21.96,17.55c0.65,0.39,1.74,1.83,1.74,3.67c0,0.78,1.35,28.3,1.28,30.13c-0.06,1.83,0.58,3.12,2.72,2.93c11.87-1.09,46.92-2.8,53.72-3.19" transform="matrix(1,0,0,1,696,-4)" class="stroke_order_diagram--existing_path"></path><path id="kvg:09b2f-s8" kvg:type="㇑" d="M82.75,11.38c1.24,0.53,2.17,1.61,2.17,3.67c0,4.13-1.42,20.7-2.92,39.2" transform="matrix(1,0,0,1,696,-4)" class="stroke_order_diagram--current_path"></path><path id="pathSk940yk7k6dn" kvg:type="㇑" d="M82.75,11.38c1.24,0.53,2.17,1.61,2.17,3.67c0,4.13-1.42,20.7-2.92,39.2" transform="matrix(1,0,0,1,696,-4)" class="stroke_order_diagram--current_path"></path><circle cx="82.75" cy="11.38" r="8" class="stroke_order_diagram--path_start" transform="matrix(1,0,0,1,696,-4)"></circle><line x1="850" x2="850" y1="1" y2="99" class="stroke_order_diagram--guide_line"></line><line x1="899" x2="899" y1="1" y2="99" class="stroke_order_diagram--bounding_box"></line><path id="pathSk940yk7k6dq" kvg:type="㇒" d="M70.2,12.39c0.11,0.77,0.23,2-0.21,3.11c-2.62,6.55-17.63,20.92-38.18,29.72" transform="matrix(1,0,0,1,796,-4)" class="stroke_order_diagram--existing_path"></path><path id="pathSk940yk7k6dr" kvg:type="㇔" d="M34.27,18.33c13.25,5.01,34.23,20.59,37.54,28.38" transform="matrix(1,0,0,1,796,-4)" class="stroke_order_diagram--existing_path"></path><path id="pathSk940yk7k6ds" kvg:type="㇔" d="M46.77,11.08c3.54,1.74,9.16,7.17,10.04,9.88" transform="matrix(1,0,0,1,796,-4)" class="stroke_order_diagram--existing_path"></path><path id="pathSk940yk7k6dt" kvg:type="㇔" d="M29.52,26.33c3.54,1.74,9.16,7.17,10.04,9.88" transform="matrix(1,0,0,1,796,-4)" class="stroke_order_diagram--existing_path"></path><path id="pathSk940yk7k6du" kvg:type="㇔" d="M68.27,27.58c3.54,1.74,9.16,7.17,10.04,9.88" transform="matrix(1,0,0,1,796,-4)" class="stroke_order_diagram--existing_path"></path><path id="pathSk940yk7k6dv" kvg:type="㇔" d="M50.77,41.33c2.93,1.21,7.56,4.99,8.29,6.88" transform="matrix(1,0,0,1,796,-4)" class="stroke_order_diagram--existing_path"></path><path id="pathSk940yk7k6dw" kvg:type="㇄a" d="M21.96,17.55c0.65,0.39,1.74,1.83,1.74,3.67c0,0.78,1.35,28.3,1.28,30.13c-0.06,1.83,0.58,3.12,2.72,2.93c11.87-1.09,46.92-2.8,53.72-3.19" transform="matrix(1,0,0,1,796,-4)" class="stroke_order_diagram--existing_path"></path><path id="pathSk940yk7k6dx" kvg:type="㇑" d="M82.75,11.38c1.24,0.53,2.17,1.61,2.17,3.67c0,4.13-1.42,20.7-2.92,39.2" transform="matrix(1,0,0,1,796,-4)" class="stroke_order_diagram--existing_path"></path><path id="kvg:09b2f-s9" kvg:type="㇒" d="M74.89,59.56c0.35,0.35,0.57,1.36-0.33,1.9c-5.85,3.46-25.91,13-44.81,16.54" transform="matrix(1,0,0,1,796,-4)" class="stroke_order_diagram--current_path"></path><path id="pathSk940yk7k6dz" kvg:type="㇒" d="M74.89,59.56c0.35,0.35,0.57,1.36-0.33,1.9c-5.85,3.46-25.91,13-44.81,16.54" transform="matrix(1,0,0,1,796,-4)" class="stroke_order_diagram--current_path"></path><circle cx="74.89" cy="59.56" r="8" class="stroke_order_diagram--path_start" transform="matrix(1,0,0,1,796,-4)"></circle><line x1="950" x2="950" y1="1" y2="99" class="stroke_order_diagram--guide_line"></line><line x1="999" x2="999" y1="1" y2="99" class="stroke_order_diagram--bounding_box"></line><path id="pathSk940yk7k6e2" kvg:type="㇒" d="M70.2,12.39c0.11,0.77,0.23,2-0.21,3.11c-2.62,6.55-17.63,20.92-38.18,29.72" transform="matrix(1,0,0,1,896,-4)" class="stroke_order_diagram--existing_path"></path><path id="pathSk940yk7k6e3" kvg:type="㇔" d="M34.27,18.33c13.25,5.01,34.23,20.59,37.54,28.38" transform="matrix(1,0,0,1,896,-4)" class="stroke_order_diagram--existing_path"></path><path id="pathSk940yk7k6e4" kvg:type="㇔" d="M46.77,11.08c3.54,1.74,9.16,7.17,10.04,9.88" transform="matrix(1,0,0,1,896,-4)" class="stroke_order_diagram--existing_path"></path><path id="pathSk940yk7k6e5" kvg:type="㇔" d="M29.52,26.33c3.54,1.74,9.16,7.17,10.04,9.88" transform="matrix(1,0,0,1,896,-4)" class="stroke_order_diagram--existing_path"></path><path id="pathSk940yk7k6e6" kvg:type="㇔" d="M68.27,27.58c3.54,1.74,9.16,7.17,10.04,9.88" transform="matrix(1,0,0,1,896,-4)" class="stroke_order_diagram--existing_path"></path><path id="pathSk940yk7k6e7" kvg:type="㇔" d="M50.77,41.33c2.93,1.21,7.56,4.99,8.29,6.88" transform="matrix(1,0,0,1,896,-4)" class="stroke_order_diagram--existing_path"></path><path id="pathSk940yk7k6e8" kvg:type="㇄a" d="M21.96,17.55c0.65,0.39,1.74,1.83,1.74,3.67c0,0.78,1.35,28.3,1.28,30.13c-0.06,1.83,0.58,3.12,2.72,2.93c11.87-1.09,46.92-2.8,53.72-3.19" transform="matrix(1,0,0,1,896,-4)" class="stroke_order_diagram--existing_path"></path><path id="pathSk940yk7k6e9" kvg:type="㇑" d="M82.75,11.38c1.24,0.53,2.17,1.61,2.17,3.67c0,4.13-1.42,20.7-2.92,39.2" transform="matrix(1,0,0,1,896,-4)" class="stroke_order_diagram--existing_path"></path><path id="pathSk940yk7k6ea" kvg:type="㇒" d="M74.89,59.56c0.35,0.35,0.57,1.36-0.33,1.9c-5.85,3.46-25.91,13-44.81,16.54" transform="matrix(1,0,0,1,896,-4)" class="stroke_order_diagram--existing_path"></path><path id="kvg:09b2f-s10" kvg:type="㇟" d="M27,61.25c1.24,1.09,1.32,1.81,1.73,3.26c0.41,1.45-0.09,17.37-0.09,21.91c0,11.66,16.56,9.84,30.66,9.84c10.93,0,20.05-0.62,24.17-3.88s3.62-7.05,4.03-10.31" transform="matrix(1,0,0,1,896,-4)" class="stroke_order_diagram--current_path"></path><path id="pathSk940yk7k6ec" kvg:type="㇟" d="M27,61.25c1.24,1.09,1.32,1.81,1.73,3.26c0.41,1.45-0.09,17.37-0.09,21.91c0,11.66,16.56,9.84,30.66,9.84c10.93,0,20.05-0.62,24.17-3.88s3.62-7.05,4.03-10.31" transform="matrix(1,0,0,1,896,-4)" class="stroke_order_diagram--current_path"></path><circle cx="27" cy="61.25" r="8" class="stroke_order_diagram--path_start" transform="matrix(1,0,0,1,896,-4)"></circle></svg>