<?xml version="1.0" encoding="UTF-8"?>
<!DOCTYPE svg PUBLIC "-//W3C//DTD SVG 1.0//EN" "http://www.w3.org/TR/2001/REC-SVG-20010904/DTD/svg10.dtd" [
<!ATTLIST g
xmlns:kvg CDATA #FIXED "http://kanjivg.tagaini.net"
kvg:element CDATA #IMPLIED
kvg:variant CDATA #IMPLIED
kvg:partial CDATA #IMPLIED
kvg:original CDATA #IMPLIED
kvg:part CDATA #IMPLIED
kvg:number CDATA #IMPLIED
kvg:tradForm CDATA #IMPLIED
kvg:radicalForm CDATA #IMPLIED
kvg:position CDATA #IMPLIED
kvg:radical CDATA #IMPLIED
kvg:phon CDATA #IMPLIED >
<!ATTLIST path
xmlns:kvg CDATA #FIXED "http://kanjivg.tagaini.net"
kvg:type CDATA #IMPLIED >
]><svg style="width: 1000px; height: 100px;" xmlns="http://www.w3.org/2000/svg" xmlns:xlink="http://www.w3.org/1999/xlink"><style>
.stroke_order_diagram--outer_container {
  width: 100%;
  overflow-x: auto;
  overflow-y: hidden;
}

.stroke_order_diagram--guide_line {
  fill: none;
  stroke: #ddd;
  stroke-width: 3;
  stroke-linecap: square;
  stroke-linejoin: square;
  stroke-dasharray:8, 8;
}

.stroke_order_diagram--bounding_box {
  fill: none;
  stroke: #ddd;
  stroke-width: 4;
  stroke-linecap: square;
  stroke-linejoin: square;
}

.stroke_order_diagram--current_path {
  fill: none;
  stroke: #000;
  stroke-width: 6;
  stroke-linecap: round;
  stroke-linejoin: round;
}

.stroke_order_diagram--existing_path {
  fill: none;
  stroke: #aaa;
  stroke-width: 6;
  stroke-linecap: round;
  stroke-linejoin:round;
}

.stroke_order_diagram--path_start {
  fill: rgba(255, 0, 0, 0.7);
  stroke:none
}</style><desc>Created with Snap</desc><defs></defs><line x1="1" x2="999" y1="1" y2="1" class="stroke_order_diagram--bounding_box"></line><line x1="1" x2="1" y1="1" y2="99" class="stroke_order_diagram--bounding_box"></line><line x1="1" x2="999" y1="99" y2="99" class="stroke_order_diagram--bounding_box"></line><line x1="0" x2="1000" y1="50" y2="50" class="stroke_order_diagram--guide_line"></line><line x1="50" x2="50" y1="1" y2="99" class="stroke_order_diagram--guide_line"></line><line x1="99" x2="99" y1="1" y2="99" class="stroke_order_diagram--bounding_box"></line><path id="kvg:09b25-s1" kvg:type="㇑" d="M15.87,16.25c1.09,0.5,1.74,2.25,1.96,3.25c0.22,1,0,72.75-0.22,79" transform="matrix(1,0,0,1,-4,-4)" class="stroke_order_diagram--current_path"></path><path id="pathSk93xdzq069a" kvg:type="㇑" d="M15.87,16.25c1.09,0.5,1.74,2.25,1.96,3.25c0.22,1,0,72.75-0.22,79" transform="matrix(1,0,0,1,-4,-4)" class="stroke_order_diagram--current_path"></path><circle cx="15.87" cy="16.25" r="8" class="stroke_order_diagram--path_start" transform="matrix(1,0,0,1,-4,-4)"></circle><line x1="150" x2="150" y1="1" y2="99" class="stroke_order_diagram--guide_line"></line><line x1="199" x2="199" y1="1" y2="99" class="stroke_order_diagram--bounding_box"></line><path id="pathSk93xdzq069d" kvg:type="㇑" d="M15.87,16.25c1.09,0.5,1.74,2.25,1.96,3.25c0.22,1,0,72.75-0.22,79" transform="matrix(1,0,0,1,96,-4)" class="stroke_order_diagram--existing_path"></path><path id="kvg:09b25-s2" kvg:type="㇐" d="M23.97,17.02c0.46,0.25,1.96,0.07,2.43,0.02c5.11-0.61,14.95-1.82,20.18-2.09c0.71-0.04,1.36,0.05,1.95,0.26" transform="matrix(1,0,0,1,96,-4)" class="stroke_order_diagram--current_path"></path><path id="pathSk93xdzq069f" kvg:type="㇐" d="M23.97,17.02c0.46,0.25,1.96,0.07,2.43,0.02c5.11-0.61,14.95-1.82,20.18-2.09c0.71-0.04,1.36,0.05,1.95,0.26" transform="matrix(1,0,0,1,96,-4)" class="stroke_order_diagram--current_path"></path><circle cx="23.97" cy="17.02" r="8" class="stroke_order_diagram--path_start" transform="matrix(1,0,0,1,96,-4)"></circle><line x1="250" x2="250" y1="1" y2="99" class="stroke_order_diagram--guide_line"></line><line x1="299" x2="299" y1="1" y2="99" class="stroke_order_diagram--bounding_box"></line><path id="pathSk93xdzq069i" kvg:type="㇑" d="M15.87,16.25c1.09,0.5,1.74,2.25,1.96,3.25c0.22,1,0,72.75-0.22,79" transform="matrix(1,0,0,1,196,-4)" class="stroke_order_diagram--existing_path"></path><path id="pathSk93xdzq069j" kvg:type="㇐" d="M23.97,17.02c0.46,0.25,1.96,0.07,2.43,0.02c5.11-0.61,14.95-1.82,20.18-2.09c0.71-0.04,1.36,0.05,1.95,0.26" transform="matrix(1,0,0,1,196,-4)" class="stroke_order_diagram--existing_path"></path><path id="kvg:09b25-s3" kvg:type="㇑a" d="M35.11,16.9c0.93,1.16,0.93,1.86,0.93,2.8c0,3.05,0.49,9.8,0.49,16.3" transform="matrix(1,0,0,1,196,-4)" class="stroke_order_diagram--current_path"></path><path id="pathSk93xdzq069l" kvg:type="㇑a" d="M35.11,16.9c0.93,1.16,0.93,1.86,0.93,2.8c0,3.05,0.49,9.8,0.49,16.3" transform="matrix(1,0,0,1,196,-4)" class="stroke_order_diagram--current_path"></path><circle cx="35.11" cy="16.9" r="8" class="stroke_order_diagram--path_start" transform="matrix(1,0,0,1,196,-4)"></circle><line x1="350" x2="350" y1="1" y2="99" class="stroke_order_diagram--guide_line"></line><line x1="399" x2="399" y1="1" y2="99" class="stroke_order_diagram--bounding_box"></line><path id="pathSk93xdzq069o" kvg:type="㇑" d="M15.87,16.25c1.09,0.5,1.74,2.25,1.96,3.25c0.22,1,0,72.75-0.22,79" transform="matrix(1,0,0,1,296,-4)" class="stroke_order_diagram--existing_path"></path><path id="pathSk93xdzq069p" kvg:type="㇐" d="M23.97,17.02c0.46,0.25,1.96,0.07,2.43,0.02c5.11-0.61,14.95-1.82,20.18-2.09c0.71-0.04,1.36,0.05,1.95,0.26" transform="matrix(1,0,0,1,296,-4)" class="stroke_order_diagram--existing_path"></path><path id="pathSk93xdzq069q" kvg:type="㇑a" d="M35.11,16.9c0.93,1.16,0.93,1.86,0.93,2.8c0,3.05,0.49,9.8,0.49,16.3" transform="matrix(1,0,0,1,296,-4)" class="stroke_order_diagram--existing_path"></path><path id="kvg:09b25-s4" kvg:type="㇐" d="M24.47,27.45c0.43,0.24,1.82,0.07,2.26,0.02c4.74-0.57,13.89-1.69,18.74-1.94c0.66-0.03,1.26,0.05,1.81,0.24" transform="matrix(1,0,0,1,296,-4)" class="stroke_order_diagram--current_path"></path><path id="pathSk93xdzq069s" kvg:type="㇐" d="M24.47,27.45c0.43,0.24,1.82,0.07,2.26,0.02c4.74-0.57,13.89-1.69,18.74-1.94c0.66-0.03,1.26,0.05,1.81,0.24" transform="matrix(1,0,0,1,296,-4)" class="stroke_order_diagram--current_path"></path><circle cx="24.47" cy="27.45" r="8" class="stroke_order_diagram--path_start" transform="matrix(1,0,0,1,296,-4)"></circle><line x1="450" x2="450" y1="1" y2="99" class="stroke_order_diagram--guide_line"></line><line x1="499" x2="499" y1="1" y2="99" class="stroke_order_diagram--bounding_box"></line><path id="pathSk93xdzq069v" kvg:type="㇑" d="M15.87,16.25c1.09,0.5,1.74,2.25,1.96,3.25c0.22,1,0,72.75-0.22,79" transform="matrix(1,0,0,1,396,-4)" class="stroke_order_diagram--existing_path"></path><path id="pathSk93xdzq069w" kvg:type="㇐" d="M23.97,17.02c0.46,0.25,1.96,0.07,2.43,0.02c5.11-0.61,14.95-1.82,20.18-2.09c0.71-0.04,1.36,0.05,1.95,0.26" transform="matrix(1,0,0,1,396,-4)" class="stroke_order_diagram--existing_path"></path><path id="pathSk93xdzq069x" kvg:type="㇑a" d="M35.11,16.9c0.93,1.16,0.93,1.86,0.93,2.8c0,3.05,0.49,9.8,0.49,16.3" transform="matrix(1,0,0,1,396,-4)" class="stroke_order_diagram--existing_path"></path><path id="pathSk93xdzq069y" kvg:type="㇐" d="M24.47,27.45c0.43,0.24,1.82,0.07,2.26,0.02c4.74-0.57,13.89-1.69,18.74-1.94c0.66-0.03,1.26,0.05,1.81,0.24" transform="matrix(1,0,0,1,396,-4)" class="stroke_order_diagram--existing_path"></path><path id="kvg:09b25-s5" kvg:type="㇐" d="M22.97,37.64c0.52,0.29,2.2,0.08,2.73,0.02c5.73-0.68,16.78-2.05,22.65-2.34c0.8-0.04,1.53,0.06,2.19,0.29" transform="matrix(1,0,0,1,396,-4)" class="stroke_order_diagram--current_path"></path><path id="pathSk93xdzq06a0" kvg:type="㇐" d="M22.97,37.64c0.52,0.29,2.2,0.08,2.73,0.02c5.73-0.68,16.78-2.05,22.65-2.34c0.8-0.04,1.53,0.06,2.19,0.29" transform="matrix(1,0,0,1,396,-4)" class="stroke_order_diagram--current_path"></path><circle cx="22.97" cy="37.64" r="8" class="stroke_order_diagram--path_start" transform="matrix(1,0,0,1,396,-4)"></circle><line x1="550" x2="550" y1="1" y2="99" class="stroke_order_diagram--guide_line"></line><line x1="599" x2="599" y1="1" y2="99" class="stroke_order_diagram--bounding_box"></line><path id="pathSk93xdzq06a3" kvg:type="㇑" d="M15.87,16.25c1.09,0.5,1.74,2.25,1.96,3.25c0.22,1,0,72.75-0.22,79" transform="matrix(1,0,0,1,496,-4)" class="stroke_order_diagram--existing_path"></path><path id="pathSk93xdzq06a4" kvg:type="㇐" d="M23.97,17.02c0.46,0.25,1.96,0.07,2.43,0.02c5.11-0.61,14.95-1.82,20.18-2.09c0.71-0.04,1.36,0.05,1.95,0.26" transform="matrix(1,0,0,1,496,-4)" class="stroke_order_diagram--existing_path"></path><path id="pathSk93xdzq06a5" kvg:type="㇑a" d="M35.11,16.9c0.93,1.16,0.93,1.86,0.93,2.8c0,3.05,0.49,9.8,0.49,16.3" transform="matrix(1,0,0,1,496,-4)" class="stroke_order_diagram--existing_path"></path><path id="pathSk93xdzq06a6" kvg:type="㇐" d="M24.47,27.45c0.43,0.24,1.82,0.07,2.26,0.02c4.74-0.57,13.89-1.69,18.74-1.94c0.66-0.03,1.26,0.05,1.81,0.24" transform="matrix(1,0,0,1,496,-4)" class="stroke_order_diagram--existing_path"></path><path id="pathSk93xdzq06a7" kvg:type="㇐" d="M22.97,37.64c0.52,0.29,2.2,0.08,2.73,0.02c5.73-0.68,16.78-2.05,22.65-2.34c0.8-0.04,1.53,0.06,2.19,0.29" transform="matrix(1,0,0,1,496,-4)" class="stroke_order_diagram--existing_path"></path><path id="kvg:09b25-s6" kvg:type="㇐" d="M57.75,15.02c0.47,0.25,2.02,0.07,2.5,0.02c5.24-0.61,16.36-1.82,21.73-2.09c0.73-0.04,1.4,0.05,2,0.26" transform="matrix(1,0,0,1,496,-4)" class="stroke_order_diagram--current_path"></path><path id="pathSk93xdzq06a9" kvg:type="㇐" d="M57.75,15.02c0.47,0.25,2.02,0.07,2.5,0.02c5.24-0.61,16.36-1.82,21.73-2.09c0.73-0.04,1.4,0.05,2,0.26" transform="matrix(1,0,0,1,496,-4)" class="stroke_order_diagram--current_path"></path><circle cx="57.75" cy="15.02" r="8" class="stroke_order_diagram--path_start" transform="matrix(1,0,0,1,496,-4)"></circle><line x1="650" x2="650" y1="1" y2="99" class="stroke_order_diagram--guide_line"></line><line x1="699" x2="699" y1="1" y2="99" class="stroke_order_diagram--bounding_box"></line><path id="pathSk93xdzq06ac" kvg:type="㇑" d="M15.87,16.25c1.09,0.5,1.74,2.25,1.96,3.25c0.22,1,0,72.75-0.22,79" transform="matrix(1,0,0,1,596,-4)" class="stroke_order_diagram--existing_path"></path><path id="pathSk93xdzq06ad" kvg:type="㇐" d="M23.97,17.02c0.46,0.25,1.96,0.07,2.43,0.02c5.11-0.61,14.95-1.82,20.18-2.09c0.71-0.04,1.36,0.05,1.95,0.26" transform="matrix(1,0,0,1,596,-4)" class="stroke_order_diagram--existing_path"></path><path id="pathSk93xdzq06ae" kvg:type="㇑a" d="M35.11,16.9c0.93,1.16,0.93,1.86,0.93,2.8c0,3.05,0.49,9.8,0.49,16.3" transform="matrix(1,0,0,1,596,-4)" class="stroke_order_diagram--existing_path"></path><path id="pathSk93xdzq06af" kvg:type="㇐" d="M24.47,27.45c0.43,0.24,1.82,0.07,2.26,0.02c4.74-0.57,13.89-1.69,18.74-1.94c0.66-0.03,1.26,0.05,1.81,0.24" transform="matrix(1,0,0,1,596,-4)" class="stroke_order_diagram--existing_path"></path><path id="pathSk93xdzq06ag" kvg:type="㇐" d="M22.97,37.64c0.52,0.29,2.2,0.08,2.73,0.02c5.73-0.68,16.78-2.05,22.65-2.34c0.8-0.04,1.53,0.06,2.19,0.29" transform="matrix(1,0,0,1,596,-4)" class="stroke_order_diagram--existing_path"></path><path id="pathSk93xdzq06ah" kvg:type="㇐" d="M57.75,15.02c0.47,0.25,2.02,0.07,2.5,0.02c5.24-0.61,16.36-1.82,21.73-2.09c0.73-0.04,1.4,0.05,2,0.26" transform="matrix(1,0,0,1,596,-4)" class="stroke_order_diagram--existing_path"></path><path id="kvg:09b25-s7" kvg:type="㇑a" d="M70.19,14.9c0.96,1.16,0.96,1.86,0.96,2.8c0,6.52,0.5,10.8,0.5,15.8" transform="matrix(1,0,0,1,596,-4)" class="stroke_order_diagram--current_path"></path><path id="pathSk93xdzq06aj" kvg:type="㇑a" d="M70.19,14.9c0.96,1.16,0.96,1.86,0.96,2.8c0,6.52,0.5,10.8,0.5,15.8" transform="matrix(1,0,0,1,596,-4)" class="stroke_order_diagram--current_path"></path><circle cx="70.19" cy="14.9" r="8" class="stroke_order_diagram--path_start" transform="matrix(1,0,0,1,596,-4)"></circle><line x1="750" x2="750" y1="1" y2="99" class="stroke_order_diagram--guide_line"></line><line x1="799" x2="799" y1="1" y2="99" class="stroke_order_diagram--bounding_box"></line><path id="pathSk93xdzq06am" kvg:type="㇑" d="M15.87,16.25c1.09,0.5,1.74,2.25,1.96,3.25c0.22,1,0,72.75-0.22,79" transform="matrix(1,0,0,1,696,-4)" class="stroke_order_diagram--existing_path"></path><path id="pathSk93xdzq06an" kvg:type="㇐" d="M23.97,17.02c0.46,0.25,1.96,0.07,2.43,0.02c5.11-0.61,14.95-1.82,20.18-2.09c0.71-0.04,1.36,0.05,1.95,0.26" transform="matrix(1,0,0,1,696,-4)" class="stroke_order_diagram--existing_path"></path><path id="pathSk93xdzq06ao" kvg:type="㇑a" d="M35.11,16.9c0.93,1.16,0.93,1.86,0.93,2.8c0,3.05,0.49,9.8,0.49,16.3" transform="matrix(1,0,0,1,696,-4)" class="stroke_order_diagram--existing_path"></path><path id="pathSk93xdzq06ap" kvg:type="㇐" d="M24.47,27.45c0.43,0.24,1.82,0.07,2.26,0.02c4.74-0.57,13.89-1.69,18.74-1.94c0.66-0.03,1.26,0.05,1.81,0.24" transform="matrix(1,0,0,1,696,-4)" class="stroke_order_diagram--existing_path"></path><path id="pathSk93xdzq06aq" kvg:type="㇐" d="M22.97,37.64c0.52,0.29,2.2,0.08,2.73,0.02c5.73-0.68,16.78-2.05,22.65-2.34c0.8-0.04,1.53,0.06,2.19,0.29" transform="matrix(1,0,0,1,696,-4)" class="stroke_order_diagram--existing_path"></path><path id="pathSk93xdzq06ar" kvg:type="㇐" d="M57.75,15.02c0.47,0.25,2.02,0.07,2.5,0.02c5.24-0.61,16.36-1.82,21.73-2.09c0.73-0.04,1.4,0.05,2,0.26" transform="matrix(1,0,0,1,696,-4)" class="stroke_order_diagram--existing_path"></path><path id="pathSk93xdzq06as" kvg:type="㇑a" d="M70.19,14.9c0.96,1.16,0.96,1.86,0.96,2.8c0,6.52,0.5,10.8,0.5,15.8" transform="matrix(1,0,0,1,696,-4)" class="stroke_order_diagram--existing_path"></path><path id="kvg:09b25-s8" kvg:type="㇐" d="M59.26,25.45c0.44,0.24,1.87,0.07,2.32,0.02c4.87-0.57,14.27-1.69,19.25-1.94c0.68-0.03,1.3,0.05,1.86,0.24" transform="matrix(1,0,0,1,696,-4)" class="stroke_order_diagram--current_path"></path><path id="pathSk93xdzq06au" kvg:type="㇐" d="M59.26,25.45c0.44,0.24,1.87,0.07,2.32,0.02c4.87-0.57,14.27-1.69,19.25-1.94c0.68-0.03,1.3,0.05,1.86,0.24" transform="matrix(1,0,0,1,696,-4)" class="stroke_order_diagram--current_path"></path><circle cx="59.26" cy="25.45" r="8" class="stroke_order_diagram--path_start" transform="matrix(1,0,0,1,696,-4)"></circle><line x1="850" x2="850" y1="1" y2="99" class="stroke_order_diagram--guide_line"></line><line x1="899" x2="899" y1="1" y2="99" class="stroke_order_diagram--bounding_box"></line><path id="pathSk93xdzq06ax" kvg:type="㇑" d="M15.87,16.25c1.09,0.5,1.74,2.25,1.96,3.25c0.22,1,0,72.75-0.22,79" transform="matrix(1,0,0,1,796,-4)" class="stroke_order_diagram--existing_path"></path><path id="pathSk93xdzq06ay" kvg:type="㇐" d="M23.97,17.02c0.46,0.25,1.96,0.07,2.43,0.02c5.11-0.61,14.95-1.82,20.18-2.09c0.71-0.04,1.36,0.05,1.95,0.26" transform="matrix(1,0,0,1,796,-4)" class="stroke_order_diagram--existing_path"></path><path id="pathSk93xdzq06az" kvg:type="㇑a" d="M35.11,16.9c0.93,1.16,0.93,1.86,0.93,2.8c0,3.05,0.49,9.8,0.49,16.3" transform="matrix(1,0,0,1,796,-4)" class="stroke_order_diagram--existing_path"></path><path id="pathSk93xdzq06b0" kvg:type="㇐" d="M24.47,27.45c0.43,0.24,1.82,0.07,2.26,0.02c4.74-0.57,13.89-1.69,18.74-1.94c0.66-0.03,1.26,0.05,1.81,0.24" transform="matrix(1,0,0,1,796,-4)" class="stroke_order_diagram--existing_path"></path><path id="pathSk93xdzq06b1" kvg:type="㇐" d="M22.97,37.64c0.52,0.29,2.2,0.08,2.73,0.02c5.73-0.68,16.78-2.05,22.65-2.34c0.8-0.04,1.53,0.06,2.19,0.29" transform="matrix(1,0,0,1,796,-4)" class="stroke_order_diagram--existing_path"></path><path id="pathSk93xdzq06b2" kvg:type="㇐" d="M57.75,15.02c0.47,0.25,2.02,0.07,2.5,0.02c5.24-0.61,16.36-1.82,21.73-2.09c0.73-0.04,1.4,0.05,2,0.26" transform="matrix(1,0,0,1,796,-4)" class="stroke_order_diagram--existing_path"></path><path id="pathSk93xdzq06b3" kvg:type="㇑a" d="M70.19,14.9c0.96,1.16,0.96,1.86,0.96,2.8c0,6.52,0.5,10.8,0.5,15.8" transform="matrix(1,0,0,1,796,-4)" class="stroke_order_diagram--existing_path"></path><path id="pathSk93xdzq06b4" kvg:type="㇐" d="M59.26,25.45c0.44,0.24,1.87,0.07,2.32,0.02c4.87-0.57,14.27-1.69,19.25-1.94c0.68-0.03,1.3,0.05,1.86,0.24" transform="matrix(1,0,0,1,796,-4)" class="stroke_order_diagram--existing_path"></path><path id="kvg:09b25-s9" kvg:type="㇐" d="M57.72,35.14c0.53,0.29,2.26,0.08,2.8,0.02c5.89-0.68,17.24-2.05,23.26-2.34c0.82-0.04,1.57,0.06,2.25,0.29" transform="matrix(1,0,0,1,796,-4)" class="stroke_order_diagram--current_path"></path><path id="pathSk93xdzq06b6" kvg:type="㇐" d="M57.72,35.14c0.53,0.29,2.26,0.08,2.8,0.02c5.89-0.68,17.24-2.05,23.26-2.34c0.82-0.04,1.57,0.06,2.25,0.29" transform="matrix(1,0,0,1,796,-4)" class="stroke_order_diagram--current_path"></path><circle cx="57.72" cy="35.14" r="8" class="stroke_order_diagram--path_start" transform="matrix(1,0,0,1,796,-4)"></circle><line x1="950" x2="950" y1="1" y2="99" class="stroke_order_diagram--guide_line"></line><line x1="999" x2="999" y1="1" y2="99" class="stroke_order_diagram--bounding_box"></line><path id="pathSk93xdzq06b9" kvg:type="㇑" d="M15.87,16.25c1.09,0.5,1.74,2.25,1.96,3.25c0.22,1,0,72.75-0.22,79" transform="matrix(1,0,0,1,896,-4)" class="stroke_order_diagram--existing_path"></path><path id="pathSk93xdzq06ba" kvg:type="㇐" d="M23.97,17.02c0.46,0.25,1.96,0.07,2.43,0.02c5.11-0.61,14.95-1.82,20.18-2.09c0.71-0.04,1.36,0.05,1.95,0.26" transform="matrix(1,0,0,1,896,-4)" class="stroke_order_diagram--existing_path"></path><path id="pathSk93xdzq06bb" kvg:type="㇑a" d="M35.11,16.9c0.93,1.16,0.93,1.86,0.93,2.8c0,3.05,0.49,9.8,0.49,16.3" transform="matrix(1,0,0,1,896,-4)" class="stroke_order_diagram--existing_path"></path><path id="pathSk93xdzq06bc" kvg:type="㇐" d="M24.47,27.45c0.43,0.24,1.82,0.07,2.26,0.02c4.74-0.57,13.89-1.69,18.74-1.94c0.66-0.03,1.26,0.05,1.81,0.24" transform="matrix(1,0,0,1,896,-4)" class="stroke_order_diagram--existing_path"></path><path id="pathSk93xdzq06bd" kvg:type="㇐" d="M22.97,37.64c0.52,0.29,2.2,0.08,2.73,0.02c5.73-0.68,16.78-2.05,22.65-2.34c0.8-0.04,1.53,0.06,2.19,0.29" transform="matrix(1,0,0,1,896,-4)" class="stroke_order_diagram--existing_path"></path><path id="pathSk93xdzq06be" kvg:type="㇐" d="M57.75,15.02c0.47,0.25,2.02,0.07,2.5,0.02c5.24-0.61,16.36-1.82,21.73-2.09c0.73-0.04,1.4,0.05,2,0.26" transform="matrix(1,0,0,1,896,-4)" class="stroke_order_diagram--existing_path"></path><path id="pathSk93xdzq06bf" kvg:type="㇑a" d="M70.19,14.9c0.96,1.16,0.96,1.86,0.96,2.8c0,6.52,0.5,10.8,0.5,15.8" transform="matrix(1,0,0,1,896,-4)" class="stroke_order_diagram--existing_path"></path><path id="pathSk93xdzq06bg" kvg:type="㇐" d="M59.26,25.45c0.44,0.24,1.87,0.07,2.32,0.02c4.87-0.57,14.27-1.69,19.25-1.94c0.68-0.03,1.3,0.05,1.86,0.24" transform="matrix(1,0,0,1,896,-4)" class="stroke_order_diagram--existing_path"></path><path id="pathSk93xdzq06bh" kvg:type="㇐" d="M57.72,35.14c0.53,0.29,2.26,0.08,2.8,0.02c5.89-0.68,17.24-2.05,23.26-2.34c0.82-0.04,1.57,0.06,2.25,0.29" transform="matrix(1,0,0,1,896,-4)" class="stroke_order_diagram--existing_path"></path><path id="kvg:09b25-s10" kvg:type="㇚" d="M90.27,11.83c0.98,0.92,1.76,1.99,1.76,5.02c0,19.9,0.24,70.16,0.24,75.12c0,10.39-7.21,1.5-8.71,0.25" transform="matrix(1,0,0,1,896,-4)" class="stroke_order_diagram--current_path"></path><path id="pathSk93xdzq06bj" kvg:type="㇚" d="M90.27,11.83c0.98,0.92,1.76,1.99,1.76,5.02c0,19.9,0.24,70.16,0.24,75.12c0,10.39-7.21,1.5-8.71,0.25" transform="matrix(1,0,0,1,896,-4)" class="stroke_order_diagram--current_path"></path><circle cx="90.27" cy="11.83" r="8" class="stroke_order_diagram--path_start" transform="matrix(1,0,0,1,896,-4)"></circle></svg>