<?xml version="1.0" encoding="UTF-8"?>
<!DOCTYPE svg PUBLIC "-//W3C//DTD SVG 1.0//EN" "http://www.w3.org/TR/2001/REC-SVG-20010904/DTD/svg10.dtd" [
<!ATTLIST g
xmlns:kvg CDATA #FIXED "http://kanjivg.tagaini.net"
kvg:element CDATA #IMPLIED
kvg:variant CDATA #IMPLIED
kvg:partial CDATA #IMPLIED
kvg:original CDATA #IMPLIED
kvg:part CDATA #IMPLIED
kvg:number CDATA #IMPLIED
kvg:tradForm CDATA #IMPLIED
kvg:radicalForm CDATA #IMPLIED
kvg:position CDATA #IMPLIED
kvg:radical CDATA #IMPLIED
kvg:phon CDATA #IMPLIED >
<!ATTLIST path
xmlns:kvg CDATA #FIXED "http://kanjivg.tagaini.net"
kvg:type CDATA #IMPLIED >
]><svg style="width: 1000px; height: 100px;" xmlns="http://www.w3.org/2000/svg" xmlns:xlink="http://www.w3.org/1999/xlink" width="1000px" height="100px"><style>
.stroke_order_diagram--outer_container {
  width: 100%;
  overflow-x: auto;
  overflow-y: hidden;
}

.stroke_order_diagram--guide_line {
  fill: none;
  stroke: #ddd;
  stroke-width: 3;
  stroke-linecap: square;
  stroke-linejoin: square;
  stroke-dasharray:8, 8;
}

.stroke_order_diagram--bounding_box {
  fill: none;
  stroke: #ddd;
  stroke-width: 4;
  stroke-linecap: square;
  stroke-linejoin: square;
}

.stroke_order_diagram--current_path {
  fill: none;
  stroke: #000;
  stroke-width: 6;
  stroke-linecap: round;
  stroke-linejoin: round;
}

.stroke_order_diagram--existing_path {
  fill: none;
  stroke: #aaa;
  stroke-width: 6;
  stroke-linecap: round;
  stroke-linejoin:round;
}

.stroke_order_diagram--path_start {
  fill: rgba(255, 0, 0, 0.7);
  stroke:none
}</style><desc>Created with Snap</desc><defs></defs><line x1="1" x2="999" y1="1" y2="1" class="stroke_order_diagram--bounding_box"></line><line x1="1" x2="1" y1="1" y2="99" class="stroke_order_diagram--bounding_box"></line><line x1="1" x2="999" y1="99" y2="99" class="stroke_order_diagram--bounding_box"></line><line x1="0" x2="1000" y1="50" y2="50" class="stroke_order_diagram--guide_line"></line><line x1="50" x2="50" y1="1" y2="99" class="stroke_order_diagram--guide_line"></line><line x1="99" x2="99" y1="1" y2="99" class="stroke_order_diagram--bounding_box"></line><path id="kvg:09b32-s1" kvg:type="㇐" d="M23.5,16.2c1.08,0.41,3.06,0.52,4.14,0.41C38.75,15.5,64,12.25,76.97,12.14c1.8-0.02,2.88,0.2,3.78,0.4" transform="matrix(1,0,0,1,-4,-4)" class="stroke_order_diagram--current_path"></path><path id="pathSk940yk7k6ew" kvg:type="㇐" d="M23.5,16.2c1.08,0.41,3.06,0.52,4.14,0.41C38.75,15.5,64,12.25,76.97,12.14c1.8-0.02,2.88,0.2,3.78,0.4" transform="matrix(1,0,0,1,-4,-4)" class="stroke_order_diagram--current_path"></path><circle cx="23.5" cy="16.2" r="8" class="stroke_order_diagram--path_start" transform="matrix(1,0,0,1,-4,-4)"></circle><line x1="150" x2="150" y1="1" y2="99" class="stroke_order_diagram--guide_line"></line><line x1="199" x2="199" y1="1" y2="99" class="stroke_order_diagram--bounding_box"></line><path id="pathSk940yk7k6ez" kvg:type="㇐" d="M23.5,16.2c1.08,0.41,3.06,0.52,4.14,0.41C38.75,15.5,64,12.25,76.97,12.14c1.8-0.02,2.88,0.2,3.78,0.4" transform="matrix(1,0,0,1,96,-4)" class="stroke_order_diagram--existing_path"></path><path id="kvg:09b32-s2" kvg:type="㇑" d="M31,25.55c0.45,0.3,0.9,0.55,1.1,0.92c1.54,2.97,3.39,10.66,4.45,15.99" transform="matrix(1,0,0,1,96,-4)" class="stroke_order_diagram--current_path"></path><path id="pathSk940yk7k6f1" kvg:type="㇑" d="M31,25.55c0.45,0.3,0.9,0.55,1.1,0.92c1.54,2.97,3.39,10.66,4.45,15.99" transform="matrix(1,0,0,1,96,-4)" class="stroke_order_diagram--current_path"></path><circle cx="31" cy="25.55" r="8" class="stroke_order_diagram--path_start" transform="matrix(1,0,0,1,96,-4)"></circle><line x1="250" x2="250" y1="1" y2="99" class="stroke_order_diagram--guide_line"></line><line x1="299" x2="299" y1="1" y2="99" class="stroke_order_diagram--bounding_box"></line><path id="pathSk940yk7k6f4" kvg:type="㇐" d="M23.5,16.2c1.08,0.41,3.06,0.52,4.14,0.41C38.75,15.5,64,12.25,76.97,12.14c1.8-0.02,2.88,0.2,3.78,0.4" transform="matrix(1,0,0,1,196,-4)" class="stroke_order_diagram--existing_path"></path><path id="pathSk940yk7k6f5" kvg:type="㇑" d="M31,25.55c0.45,0.3,0.9,0.55,1.1,0.92c1.54,2.97,3.39,10.66,4.45,15.99" transform="matrix(1,0,0,1,196,-4)" class="stroke_order_diagram--existing_path"></path><path id="kvg:09b32-s3" kvg:type="㇕b" d="M33.27,27.07c10.9-1.25,31.96-3.38,37.58-3.8c2.06-0.15,3.29,1.55,3,2.45c-1.22,3.74-2.59,7.28-4.22,11.35" transform="matrix(1,0,0,1,196,-4)" class="stroke_order_diagram--current_path"></path><path id="pathSk940yk7k6f7" kvg:type="㇕b" d="M33.27,27.07c10.9-1.25,31.96-3.38,37.58-3.8c2.06-0.15,3.29,1.55,3,2.45c-1.22,3.74-2.59,7.28-4.22,11.35" transform="matrix(1,0,0,1,196,-4)" class="stroke_order_diagram--current_path"></path><circle cx="33.27" cy="27.07" r="8" class="stroke_order_diagram--path_start" transform="matrix(1,0,0,1,196,-4)"></circle><line x1="350" x2="350" y1="1" y2="99" class="stroke_order_diagram--guide_line"></line><line x1="399" x2="399" y1="1" y2="99" class="stroke_order_diagram--bounding_box"></line><path id="pathSk940yk7k6fa" kvg:type="㇐" d="M23.5,16.2c1.08,0.41,3.06,0.52,4.14,0.41C38.75,15.5,64,12.25,76.97,12.14c1.8-0.02,2.88,0.2,3.78,0.4" transform="matrix(1,0,0,1,296,-4)" class="stroke_order_diagram--existing_path"></path><path id="pathSk940yk7k6fb" kvg:type="㇑" d="M31,25.55c0.45,0.3,0.9,0.55,1.1,0.92c1.54,2.97,3.39,10.66,4.45,15.99" transform="matrix(1,0,0,1,296,-4)" class="stroke_order_diagram--existing_path"></path><path id="pathSk940yk7k6fc" kvg:type="㇕b" d="M33.27,27.07c10.9-1.25,31.96-3.38,37.58-3.8c2.06-0.15,3.29,1.55,3,2.45c-1.22,3.74-2.59,7.28-4.22,11.35" transform="matrix(1,0,0,1,296,-4)" class="stroke_order_diagram--existing_path"></path><path id="kvg:09b32-s4" kvg:type="㇐b" d="M36.98,41c6.6-0.47,27.82-2.99,36.2-3.47" transform="matrix(1,0,0,1,296,-4)" class="stroke_order_diagram--current_path"></path><path id="pathSk940yk7k6fe" kvg:type="㇐b" d="M36.98,41c6.6-0.47,27.82-2.99,36.2-3.47" transform="matrix(1,0,0,1,296,-4)" class="stroke_order_diagram--current_path"></path><circle cx="36.98" cy="41" r="8" class="stroke_order_diagram--path_start" transform="matrix(1,0,0,1,296,-4)"></circle><line x1="450" x2="450" y1="1" y2="99" class="stroke_order_diagram--guide_line"></line><line x1="499" x2="499" y1="1" y2="99" class="stroke_order_diagram--bounding_box"></line><path id="pathSk940yk7k6fh" kvg:type="㇐" d="M23.5,16.2c1.08,0.41,3.06,0.52,4.14,0.41C38.75,15.5,64,12.25,76.97,12.14c1.8-0.02,2.88,0.2,3.78,0.4" transform="matrix(1,0,0,1,396,-4)" class="stroke_order_diagram--existing_path"></path><path id="pathSk940yk7k6fi" kvg:type="㇑" d="M31,25.55c0.45,0.3,0.9,0.55,1.1,0.92c1.54,2.97,3.39,10.66,4.45,15.99" transform="matrix(1,0,0,1,396,-4)" class="stroke_order_diagram--existing_path"></path><path id="pathSk940yk7k6fj" kvg:type="㇕b" d="M33.27,27.07c10.9-1.25,31.96-3.38,37.58-3.8c2.06-0.15,3.29,1.55,3,2.45c-1.22,3.74-2.59,7.28-4.22,11.35" transform="matrix(1,0,0,1,396,-4)" class="stroke_order_diagram--existing_path"></path><path id="pathSk940yk7k6fk" kvg:type="㇐b" d="M36.98,41c6.6-0.47,27.82-2.99,36.2-3.47" transform="matrix(1,0,0,1,396,-4)" class="stroke_order_diagram--existing_path"></path><path id="kvg:09b32-s5" kvg:type="㇑" d="M23.06,50.18c0.69,1.1,1.14,2.86,0.91,4.83c-0.23,1.98,0.23,39.19,0.23,42.49" transform="matrix(1,0,0,1,396,-4)" class="stroke_order_diagram--current_path"></path><path id="pathSk940yk7k6fm" kvg:type="㇑" d="M23.06,50.18c0.69,1.1,1.14,2.86,0.91,4.83c-0.23,1.98,0.23,39.19,0.23,42.49" transform="matrix(1,0,0,1,396,-4)" class="stroke_order_diagram--current_path"></path><circle cx="23.06" cy="50.18" r="8" class="stroke_order_diagram--path_start" transform="matrix(1,0,0,1,396,-4)"></circle><line x1="550" x2="550" y1="1" y2="99" class="stroke_order_diagram--guide_line"></line><line x1="599" x2="599" y1="1" y2="99" class="stroke_order_diagram--bounding_box"></line><path id="pathSk940yk7k6fp" kvg:type="㇐" d="M23.5,16.2c1.08,0.41,3.06,0.52,4.14,0.41C38.75,15.5,64,12.25,76.97,12.14c1.8-0.02,2.88,0.2,3.78,0.4" transform="matrix(1,0,0,1,496,-4)" class="stroke_order_diagram--existing_path"></path><path id="pathSk940yk7k6fq" kvg:type="㇑" d="M31,25.55c0.45,0.3,0.9,0.55,1.1,0.92c1.54,2.97,3.39,10.66,4.45,15.99" transform="matrix(1,0,0,1,496,-4)" class="stroke_order_diagram--existing_path"></path><path id="pathSk940yk7k6fr" kvg:type="㇕b" d="M33.27,27.07c10.9-1.25,31.96-3.38,37.58-3.8c2.06-0.15,3.29,1.55,3,2.45c-1.22,3.74-2.59,7.28-4.22,11.35" transform="matrix(1,0,0,1,496,-4)" class="stroke_order_diagram--existing_path"></path><path id="pathSk940yk7k6fs" kvg:type="㇐b" d="M36.98,41c6.6-0.47,27.82-2.99,36.2-3.47" transform="matrix(1,0,0,1,496,-4)" class="stroke_order_diagram--existing_path"></path><path id="pathSk940yk7k6ft" kvg:type="㇑" d="M23.06,50.18c0.69,1.1,1.14,2.86,0.91,4.83c-0.23,1.98,0.23,39.19,0.23,42.49" transform="matrix(1,0,0,1,496,-4)" class="stroke_order_diagram--existing_path"></path><path id="kvg:09b32-s6" kvg:type="㇆a" d="M23.97,52.38c8.68-0.88,57.82-6.09,59.53-6.39c2.75-0.48,4.44,1.02,4.44,4.14c0,3.41-0.69,36.84-0.69,41.89c0,8.13-3.88,4.17-6.63,1.32" transform="matrix(1,0,0,1,496,-4)" class="stroke_order_diagram--current_path"></path><path id="pathSk940yk7k6fv" kvg:type="㇆a" d="M23.97,52.38c8.68-0.88,57.82-6.09,59.53-6.39c2.75-0.48,4.44,1.02,4.44,4.14c0,3.41-0.69,36.84-0.69,41.89c0,8.13-3.88,4.17-6.63,1.32" transform="matrix(1,0,0,1,496,-4)" class="stroke_order_diagram--current_path"></path><circle cx="23.97" cy="52.38" r="8" class="stroke_order_diagram--path_start" transform="matrix(1,0,0,1,496,-4)"></circle><line x1="650" x2="650" y1="1" y2="99" class="stroke_order_diagram--guide_line"></line><line x1="699" x2="699" y1="1" y2="99" class="stroke_order_diagram--bounding_box"></line><path id="pathSk940yk7k6fy" kvg:type="㇐" d="M23.5,16.2c1.08,0.41,3.06,0.52,4.14,0.41C38.75,15.5,64,12.25,76.97,12.14c1.8-0.02,2.88,0.2,3.78,0.4" transform="matrix(1,0,0,1,596,-4)" class="stroke_order_diagram--existing_path"></path><path id="pathSk940yk7k6fz" kvg:type="㇑" d="M31,25.55c0.45,0.3,0.9,0.55,1.1,0.92c1.54,2.97,3.39,10.66,4.45,15.99" transform="matrix(1,0,0,1,596,-4)" class="stroke_order_diagram--existing_path"></path><path id="pathSk940yk7k6g0" kvg:type="㇕b" d="M33.27,27.07c10.9-1.25,31.96-3.38,37.58-3.8c2.06-0.15,3.29,1.55,3,2.45c-1.22,3.74-2.59,7.28-4.22,11.35" transform="matrix(1,0,0,1,596,-4)" class="stroke_order_diagram--existing_path"></path><path id="pathSk940yk7k6g1" kvg:type="㇐b" d="M36.98,41c6.6-0.47,27.82-2.99,36.2-3.47" transform="matrix(1,0,0,1,596,-4)" class="stroke_order_diagram--existing_path"></path><path id="pathSk940yk7k6g2" kvg:type="㇑" d="M23.06,50.18c0.69,1.1,1.14,2.86,0.91,4.83c-0.23,1.98,0.23,39.19,0.23,42.49" transform="matrix(1,0,0,1,596,-4)" class="stroke_order_diagram--existing_path"></path><path id="pathSk940yk7k6g3" kvg:type="㇆a" d="M23.97,52.38c8.68-0.88,57.82-6.09,59.53-6.39c2.75-0.48,4.44,1.02,4.44,4.14c0,3.41-0.69,36.84-0.69,41.89c0,8.13-3.88,4.17-6.63,1.32" transform="matrix(1,0,0,1,596,-4)" class="stroke_order_diagram--existing_path"></path><path id="kvg:09b32-s7" kvg:type="㇒" d="M43.52,53c0.48,1,0.55,1.09,0.42,1.7C43,59.25,39.5,65.75,30.25,70.5" transform="matrix(1,0,0,1,596,-4)" class="stroke_order_diagram--current_path"></path><path id="pathSk940yk7k6g5" kvg:type="㇒" d="M43.52,53c0.48,1,0.55,1.09,0.42,1.7C43,59.25,39.5,65.75,30.25,70.5" transform="matrix(1,0,0,1,596,-4)" class="stroke_order_diagram--current_path"></path><circle cx="43.52" cy="53" r="8" class="stroke_order_diagram--path_start" transform="matrix(1,0,0,1,596,-4)"></circle><line x1="750" x2="750" y1="1" y2="99" class="stroke_order_diagram--guide_line"></line><line x1="799" x2="799" y1="1" y2="99" class="stroke_order_diagram--bounding_box"></line><path id="pathSk940yk7k6g8" kvg:type="㇐" d="M23.5,16.2c1.08,0.41,3.06,0.52,4.14,0.41C38.75,15.5,64,12.25,76.97,12.14c1.8-0.02,2.88,0.2,3.78,0.4" transform="matrix(1,0,0,1,696,-4)" class="stroke_order_diagram--existing_path"></path><path id="pathSk940yk7k6g9" kvg:type="㇑" d="M31,25.55c0.45,0.3,0.9,0.55,1.1,0.92c1.54,2.97,3.39,10.66,4.45,15.99" transform="matrix(1,0,0,1,696,-4)" class="stroke_order_diagram--existing_path"></path><path id="pathSk940yk7k6ga" kvg:type="㇕b" d="M33.27,27.07c10.9-1.25,31.96-3.38,37.58-3.8c2.06-0.15,3.29,1.55,3,2.45c-1.22,3.74-2.59,7.28-4.22,11.35" transform="matrix(1,0,0,1,696,-4)" class="stroke_order_diagram--existing_path"></path><path id="pathSk940yk7k6gb" kvg:type="㇐b" d="M36.98,41c6.6-0.47,27.82-2.99,36.2-3.47" transform="matrix(1,0,0,1,696,-4)" class="stroke_order_diagram--existing_path"></path><path id="pathSk940yk7k6gc" kvg:type="㇑" d="M23.06,50.18c0.69,1.1,1.14,2.86,0.91,4.83c-0.23,1.98,0.23,39.19,0.23,42.49" transform="matrix(1,0,0,1,696,-4)" class="stroke_order_diagram--existing_path"></path><path id="pathSk940yk7k6gd" kvg:type="㇆a" d="M23.97,52.38c8.68-0.88,57.82-6.09,59.53-6.39c2.75-0.48,4.44,1.02,4.44,4.14c0,3.41-0.69,36.84-0.69,41.89c0,8.13-3.88,4.17-6.63,1.32" transform="matrix(1,0,0,1,696,-4)" class="stroke_order_diagram--existing_path"></path><path id="pathSk940yk7k6ge" kvg:type="㇒" d="M43.52,53c0.48,1,0.55,1.09,0.42,1.7C43,59.25,39.5,65.75,30.25,70.5" transform="matrix(1,0,0,1,696,-4)" class="stroke_order_diagram--existing_path"></path><path id="kvg:09b32-s8" kvg:type="㇟" d="M61.74,50.37c0.46,0.77,0.83,1.68,0.86,2.87c0.12,5.31,0.09,4.8,0.09,6.74c0,4.53,4.72,4.02,9.36,4.02c4.9,0,8.12-0.58,8.81-0.91" transform="matrix(1,0,0,1,696,-4)" class="stroke_order_diagram--current_path"></path><path id="pathSk940yk7k6gg" kvg:type="㇟" d="M61.74,50.37c0.46,0.77,0.83,1.68,0.86,2.87c0.12,5.31,0.09,4.8,0.09,6.74c0,4.53,4.72,4.02,9.36,4.02c4.9,0,8.12-0.58,8.81-0.91" transform="matrix(1,0,0,1,696,-4)" class="stroke_order_diagram--current_path"></path><circle cx="61.74" cy="50.37" r="8" class="stroke_order_diagram--path_start" transform="matrix(1,0,0,1,696,-4)"></circle><line x1="850" x2="850" y1="1" y2="99" class="stroke_order_diagram--guide_line"></line><line x1="899" x2="899" y1="1" y2="99" class="stroke_order_diagram--bounding_box"></line><path id="pathSk940yk7k6gj" kvg:type="㇐" d="M23.5,16.2c1.08,0.41,3.06,0.52,4.14,0.41C38.75,15.5,64,12.25,76.97,12.14c1.8-0.02,2.88,0.2,3.78,0.4" transform="matrix(1,0,0,1,796,-4)" class="stroke_order_diagram--existing_path"></path><path id="pathSk940yk7k6gk" kvg:type="㇑" d="M31,25.55c0.45,0.3,0.9,0.55,1.1,0.92c1.54,2.97,3.39,10.66,4.45,15.99" transform="matrix(1,0,0,1,796,-4)" class="stroke_order_diagram--existing_path"></path><path id="pathSk940yk7k6gl" kvg:type="㇕b" d="M33.27,27.07c10.9-1.25,31.96-3.38,37.58-3.8c2.06-0.15,3.29,1.55,3,2.45c-1.22,3.74-2.59,7.28-4.22,11.35" transform="matrix(1,0,0,1,796,-4)" class="stroke_order_diagram--existing_path"></path><path id="pathSk940yk7k6gm" kvg:type="㇐b" d="M36.98,41c6.6-0.47,27.82-2.99,36.2-3.47" transform="matrix(1,0,0,1,796,-4)" class="stroke_order_diagram--existing_path"></path><path id="pathSk940yk7k6gn" kvg:type="㇑" d="M23.06,50.18c0.69,1.1,1.14,2.86,0.91,4.83c-0.23,1.98,0.23,39.19,0.23,42.49" transform="matrix(1,0,0,1,796,-4)" class="stroke_order_diagram--existing_path"></path><path id="pathSk940yk7k6go" kvg:type="㇆a" d="M23.97,52.38c8.68-0.88,57.82-6.09,59.53-6.39c2.75-0.48,4.44,1.02,4.44,4.14c0,3.41-0.69,36.84-0.69,41.89c0,8.13-3.88,4.17-6.63,1.32" transform="matrix(1,0,0,1,796,-4)" class="stroke_order_diagram--existing_path"></path><path id="pathSk940yk7k6gp" kvg:type="㇒" d="M43.52,53c0.48,1,0.55,1.09,0.42,1.7C43,59.25,39.5,65.75,30.25,70.5" transform="matrix(1,0,0,1,796,-4)" class="stroke_order_diagram--existing_path"></path><path id="pathSk940yk7k6gq" kvg:type="㇟" d="M61.74,50.37c0.46,0.77,0.83,1.68,0.86,2.87c0.12,5.31,0.09,4.8,0.09,6.74c0,4.53,4.72,4.02,9.36,4.02c4.9,0,8.12-0.58,8.81-0.91" transform="matrix(1,0,0,1,796,-4)" class="stroke_order_diagram--existing_path"></path><path id="kvg:09b32-s9" kvg:type="㇐" d="M36.5,73.11c0.43,0.14,1.57,0.38,2.71,0.43c3.14,0.14,20.37-1.93,29.74-2.78c1.36-0.12,1.7-0.17,2.55,0" transform="matrix(1,0,0,1,796,-4)" class="stroke_order_diagram--current_path"></path><path id="pathSk940yk7k6gs" kvg:type="㇐" d="M36.5,73.11c0.43,0.14,1.57,0.38,2.71,0.43c3.14,0.14,20.37-1.93,29.74-2.78c1.36-0.12,1.7-0.17,2.55,0" transform="matrix(1,0,0,1,796,-4)" class="stroke_order_diagram--current_path"></path><circle cx="36.5" cy="73.11" r="8" class="stroke_order_diagram--path_start" transform="matrix(1,0,0,1,796,-4)"></circle><line x1="950" x2="950" y1="1" y2="99" class="stroke_order_diagram--guide_line"></line><line x1="999" x2="999" y1="1" y2="99" class="stroke_order_diagram--bounding_box"></line><path id="pathSk940yk7k6gv" kvg:type="㇐" d="M23.5,16.2c1.08,0.41,3.06,0.52,4.14,0.41C38.75,15.5,64,12.25,76.97,12.14c1.8-0.02,2.88,0.2,3.78,0.4" transform="matrix(1,0,0,1,896,-4)" class="stroke_order_diagram--existing_path"></path><path id="pathSk940yk7k6gw" kvg:type="㇑" d="M31,25.55c0.45,0.3,0.9,0.55,1.1,0.92c1.54,2.97,3.39,10.66,4.45,15.99" transform="matrix(1,0,0,1,896,-4)" class="stroke_order_diagram--existing_path"></path><path id="pathSk940yk7k6gx" kvg:type="㇕b" d="M33.27,27.07c10.9-1.25,31.96-3.38,37.58-3.8c2.06-0.15,3.29,1.55,3,2.45c-1.22,3.74-2.59,7.28-4.22,11.35" transform="matrix(1,0,0,1,896,-4)" class="stroke_order_diagram--existing_path"></path><path id="pathSk940yk7k6gy" kvg:type="㇐b" d="M36.98,41c6.6-0.47,27.82-2.99,36.2-3.47" transform="matrix(1,0,0,1,896,-4)" class="stroke_order_diagram--existing_path"></path><path id="pathSk940yk7k6gz" kvg:type="㇑" d="M23.06,50.18c0.69,1.1,1.14,2.86,0.91,4.83c-0.23,1.98,0.23,39.19,0.23,42.49" transform="matrix(1,0,0,1,896,-4)" class="stroke_order_diagram--existing_path"></path><path id="pathSk940yk7k6h0" kvg:type="㇆a" d="M23.97,52.38c8.68-0.88,57.82-6.09,59.53-6.39c2.75-0.48,4.44,1.02,4.44,4.14c0,3.41-0.69,36.84-0.69,41.89c0,8.13-3.88,4.17-6.63,1.32" transform="matrix(1,0,0,1,896,-4)" class="stroke_order_diagram--existing_path"></path><path id="pathSk940yk7k6h1" kvg:type="㇒" d="M43.52,53c0.48,1,0.55,1.09,0.42,1.7C43,59.25,39.5,65.75,30.25,70.5" transform="matrix(1,0,0,1,896,-4)" class="stroke_order_diagram--existing_path"></path><path id="pathSk940yk7k6h2" kvg:type="㇟" d="M61.74,50.37c0.46,0.77,0.83,1.68,0.86,2.87c0.12,5.31,0.09,4.8,0.09,6.74c0,4.53,4.72,4.02,9.36,4.02c4.9,0,8.12-0.58,8.81-0.91" transform="matrix(1,0,0,1,896,-4)" class="stroke_order_diagram--existing_path"></path><path id="pathSk940yk7k6h3" kvg:type="㇐" d="M36.5,73.11c0.43,0.14,1.57,0.38,2.71,0.43c3.14,0.14,20.37-1.93,29.74-2.78c1.36-0.12,1.7-0.17,2.55,0" transform="matrix(1,0,0,1,896,-4)" class="stroke_order_diagram--existing_path"></path><path id="kvg:09b32-s10" kvg:type="㇑" d="M52.31,73.78c0.94,0.97,1.58,1.55,1.58,2.5c0,3.72-0.23,12.47-0.23,20.88" transform="matrix(1,0,0,1,896,-4)" class="stroke_order_diagram--current_path"></path><path id="pathSk940yk7k6h5" kvg:type="㇑" d="M52.31,73.78c0.94,0.97,1.58,1.55,1.58,2.5c0,3.72-0.23,12.47-0.23,20.88" transform="matrix(1,0,0,1,896,-4)" class="stroke_order_diagram--current_path"></path><circle cx="52.31" cy="73.78" r="8" class="stroke_order_diagram--path_start" transform="matrix(1,0,0,1,896,-4)"></circle></svg>