<?xml version="1.0" encoding="UTF-8"?>
<!DOCTYPE svg PUBLIC "-//W3C//DTD SVG 1.0//EN" "http://www.w3.org/TR/2001/REC-SVG-20010904/DTD/svg10.dtd" [
<!ATTLIST g
xmlns:kvg CDATA #FIXED "http://kanjivg.tagaini.net"
kvg:element CDATA #IMPLIED
kvg:variant CDATA #IMPLIED
kvg:partial CDATA #IMPLIED
kvg:original CDATA #IMPLIED
kvg:part CDATA #IMPLIED
kvg:number CDATA #IMPLIED
kvg:tradForm CDATA #IMPLIED
kvg:radicalForm CDATA #IMPLIED
kvg:position CDATA #IMPLIED
kvg:radical CDATA #IMPLIED
kvg:phon CDATA #IMPLIED >
<!ATTLIST path
xmlns:kvg CDATA #FIXED "http://kanjivg.tagaini.net"
kvg:type CDATA #IMPLIED >
]><svg style="width: 1000px; height: 100px;" xmlns="http://www.w3.org/2000/svg" xmlns:xlink="http://www.w3.org/1999/xlink" width="1000px" height="100px"><style>
.stroke_order_diagram--outer_container {
  width: 100%;
  overflow-x: auto;
  overflow-y: hidden;
}

.stroke_order_diagram--guide_line {
  fill: none;
  stroke: #ddd;
  stroke-width: 3;
  stroke-linecap: square;
  stroke-linejoin: square;
  stroke-dasharray:8, 8;
}

.stroke_order_diagram--bounding_box {
  fill: none;
  stroke: #ddd;
  stroke-width: 4;
  stroke-linecap: square;
  stroke-linejoin: square;
}

.stroke_order_diagram--current_path {
  fill: none;
  stroke: #000;
  stroke-width: 6;
  stroke-linecap: round;
  stroke-linejoin: round;
}

.stroke_order_diagram--existing_path {
  fill: none;
  stroke: #aaa;
  stroke-width: 6;
  stroke-linecap: round;
  stroke-linejoin:round;
}

.stroke_order_diagram--path_start {
  fill: rgba(255, 0, 0, 0.7);
  stroke:none
}</style><desc>Created with Snap</desc><defs></defs><line x1="1" x2="999" y1="1" y2="1" class="stroke_order_diagram--bounding_box"></line><line x1="1" x2="1" y1="1" y2="99" class="stroke_order_diagram--bounding_box"></line><line x1="1" x2="999" y1="99" y2="99" class="stroke_order_diagram--bounding_box"></line><line x1="0" x2="1000" y1="50" y2="50" class="stroke_order_diagram--guide_line"></line><line x1="50" x2="50" y1="1" y2="99" class="stroke_order_diagram--guide_line"></line><line x1="99" x2="99" y1="1" y2="99" class="stroke_order_diagram--bounding_box"></line><path id="kvg:09b3c-s1" kvg:type="㇒" d="M50.85,11.25c0.08,1.12-0.04,1.7-0.53,2.73C47.86,19.2,46,21.62,40.25,27.75" transform="matrix(1,0,0,1,-4,-4)" class="stroke_order_diagram--current_path"></path><path id="pathSk940yk7k6hp" kvg:type="㇒" d="M50.85,11.25c0.08,1.12-0.04,1.7-0.53,2.73C47.86,19.2,46,21.62,40.25,27.75" transform="matrix(1,0,0,1,-4,-4)" class="stroke_order_diagram--current_path"></path><circle cx="50.85" cy="11.25" r="8" class="stroke_order_diagram--path_start" transform="matrix(1,0,0,1,-4,-4)"></circle><line x1="150" x2="150" y1="1" y2="99" class="stroke_order_diagram--guide_line"></line><line x1="199" x2="199" y1="1" y2="99" class="stroke_order_diagram--bounding_box"></line><path id="pathSk940yk7k6hs" kvg:type="㇒" d="M50.85,11.25c0.08,1.12-0.04,1.7-0.53,2.73C47.86,19.2,46,21.62,40.25,27.75" transform="matrix(1,0,0,1,96,-4)" class="stroke_order_diagram--existing_path"></path><path id="kvg:09b3c-s2" kvg:type="㇑" d="M25.83,30.12c0.78,0.78,1.43,2.19,1.58,3c1.22,6.88,2.46,13.28,3.36,21.33c0.22,2,0.42,3.98,0.59,5.87" transform="matrix(1,0,0,1,96,-4)" class="stroke_order_diagram--current_path"></path><path id="pathSk940yk7k6hu" kvg:type="㇑" d="M25.83,30.12c0.78,0.78,1.43,2.19,1.58,3c1.22,6.88,2.46,13.28,3.36,21.33c0.22,2,0.42,3.98,0.59,5.87" transform="matrix(1,0,0,1,96,-4)" class="stroke_order_diagram--current_path"></path><circle cx="25.83" cy="30.12" r="8" class="stroke_order_diagram--path_start" transform="matrix(1,0,0,1,96,-4)"></circle><line x1="250" x2="250" y1="1" y2="99" class="stroke_order_diagram--guide_line"></line><line x1="299" x2="299" y1="1" y2="99" class="stroke_order_diagram--bounding_box"></line><path id="pathSk940yk7k6hx" kvg:type="㇒" d="M50.85,11.25c0.08,1.12-0.04,1.7-0.53,2.73C47.86,19.2,46,21.62,40.25,27.75" transform="matrix(1,0,0,1,196,-4)" class="stroke_order_diagram--existing_path"></path><path id="pathSk940yk7k6hy" kvg:type="㇑" d="M25.83,30.12c0.78,0.78,1.43,2.19,1.58,3c1.22,6.88,2.46,13.28,3.36,21.33c0.22,2,0.42,3.98,0.59,5.87" transform="matrix(1,0,0,1,196,-4)" class="stroke_order_diagram--existing_path"></path><path id="kvg:09b3c-s3" kvg:type="㇕a" d="M28.17,31.95c12.95-1.7,31.45-4.7,42.95-5.53c3.28-0.24,4.63,1.83,4.28,4.12c-0.7,4.57-2.19,11.16-5.08,19.48c-0.51,1.47-1.07,3.01-1.69,4.61" transform="matrix(1,0,0,1,196,-4)" class="stroke_order_diagram--current_path"></path><path id="pathSk940yk7k6i0" kvg:type="㇕a" d="M28.17,31.95c12.95-1.7,31.45-4.7,42.95-5.53c3.28-0.24,4.63,1.83,4.28,4.12c-0.7,4.57-2.19,11.16-5.08,19.48c-0.51,1.47-1.07,3.01-1.69,4.61" transform="matrix(1,0,0,1,196,-4)" class="stroke_order_diagram--current_path"></path><circle cx="28.17" cy="31.95" r="8" class="stroke_order_diagram--path_start" transform="matrix(1,0,0,1,196,-4)"></circle><line x1="350" x2="350" y1="1" y2="99" class="stroke_order_diagram--guide_line"></line><line x1="399" x2="399" y1="1" y2="99" class="stroke_order_diagram--bounding_box"></line><path id="pathSk940yk7k6i3" kvg:type="㇒" d="M50.85,11.25c0.08,1.12-0.04,1.7-0.53,2.73C47.86,19.2,46,21.62,40.25,27.75" transform="matrix(1,0,0,1,296,-4)" class="stroke_order_diagram--existing_path"></path><path id="pathSk940yk7k6i4" kvg:type="㇑" d="M25.83,30.12c0.78,0.78,1.43,2.19,1.58,3c1.22,6.88,2.46,13.28,3.36,21.33c0.22,2,0.42,3.98,0.59,5.87" transform="matrix(1,0,0,1,296,-4)" class="stroke_order_diagram--existing_path"></path><path id="pathSk940yk7k6i5" kvg:type="㇕a" d="M28.17,31.95c12.95-1.7,31.45-4.7,42.95-5.53c3.28-0.24,4.63,1.83,4.28,4.12c-0.7,4.57-2.19,11.16-5.08,19.48c-0.51,1.47-1.07,3.01-1.69,4.61" transform="matrix(1,0,0,1,296,-4)" class="stroke_order_diagram--existing_path"></path><path id="kvg:09b3c-s4" kvg:type="㇑a" d="M49.58,30.87c0.65,0.65,1.03,1.88,1.03,3.07c0,8.31-0.05,15.87,0,19.13" transform="matrix(1,0,0,1,296,-4)" class="stroke_order_diagram--current_path"></path><path id="pathSk940yk7k6i7" kvg:type="㇑a" d="M49.58,30.87c0.65,0.65,1.03,1.88,1.03,3.07c0,8.31-0.05,15.87,0,19.13" transform="matrix(1,0,0,1,296,-4)" class="stroke_order_diagram--current_path"></path><circle cx="49.58" cy="30.87" r="8" class="stroke_order_diagram--path_start" transform="matrix(1,0,0,1,296,-4)"></circle><line x1="450" x2="450" y1="1" y2="99" class="stroke_order_diagram--guide_line"></line><line x1="499" x2="499" y1="1" y2="99" class="stroke_order_diagram--bounding_box"></line><path id="pathSk940yk7k6ia" kvg:type="㇒" d="M50.85,11.25c0.08,1.12-0.04,1.7-0.53,2.73C47.86,19.2,46,21.62,40.25,27.75" transform="matrix(1,0,0,1,396,-4)" class="stroke_order_diagram--existing_path"></path><path id="pathSk940yk7k6ib" kvg:type="㇑" d="M25.83,30.12c0.78,0.78,1.43,2.19,1.58,3c1.22,6.88,2.46,13.28,3.36,21.33c0.22,2,0.42,3.98,0.59,5.87" transform="matrix(1,0,0,1,396,-4)" class="stroke_order_diagram--existing_path"></path><path id="pathSk940yk7k6ic" kvg:type="㇕a" d="M28.17,31.95c12.95-1.7,31.45-4.7,42.95-5.53c3.28-0.24,4.63,1.83,4.28,4.12c-0.7,4.57-2.19,11.16-5.08,19.48c-0.51,1.47-1.07,3.01-1.69,4.61" transform="matrix(1,0,0,1,396,-4)" class="stroke_order_diagram--existing_path"></path><path id="pathSk940yk7k6id" kvg:type="㇑a" d="M49.58,30.87c0.65,0.65,1.03,1.88,1.03,3.07c0,8.31-0.05,15.87,0,19.13" transform="matrix(1,0,0,1,396,-4)" class="stroke_order_diagram--existing_path"></path><path id="kvg:09b3c-s5" kvg:type="㇐a" d="M30.56,44.82c8.57-1.57,34.19-4.57,41.65-5.12" transform="matrix(1,0,0,1,396,-4)" class="stroke_order_diagram--current_path"></path><path id="pathSk940yk7k6if" kvg:type="㇐a" d="M30.56,44.82c8.57-1.57,34.19-4.57,41.65-5.12" transform="matrix(1,0,0,1,396,-4)" class="stroke_order_diagram--current_path"></path><circle cx="30.56" cy="44.82" r="8" class="stroke_order_diagram--path_start" transform="matrix(1,0,0,1,396,-4)"></circle><line x1="550" x2="550" y1="1" y2="99" class="stroke_order_diagram--guide_line"></line><line x1="599" x2="599" y1="1" y2="99" class="stroke_order_diagram--bounding_box"></line><path id="pathSk940yk7k6ii" kvg:type="㇒" d="M50.85,11.25c0.08,1.12-0.04,1.7-0.53,2.73C47.86,19.2,46,21.62,40.25,27.75" transform="matrix(1,0,0,1,496,-4)" class="stroke_order_diagram--existing_path"></path><path id="pathSk940yk7k6ij" kvg:type="㇑" d="M25.83,30.12c0.78,0.78,1.43,2.19,1.58,3c1.22,6.88,2.46,13.28,3.36,21.33c0.22,2,0.42,3.98,0.59,5.87" transform="matrix(1,0,0,1,496,-4)" class="stroke_order_diagram--existing_path"></path><path id="pathSk940yk7k6ik" kvg:type="㇕a" d="M28.17,31.95c12.95-1.7,31.45-4.7,42.95-5.53c3.28-0.24,4.63,1.83,4.28,4.12c-0.7,4.57-2.19,11.16-5.08,19.48c-0.51,1.47-1.07,3.01-1.69,4.61" transform="matrix(1,0,0,1,496,-4)" class="stroke_order_diagram--existing_path"></path><path id="pathSk940yk7k6il" kvg:type="㇑a" d="M49.58,30.87c0.65,0.65,1.03,1.88,1.03,3.07c0,8.31-0.05,15.87,0,19.13" transform="matrix(1,0,0,1,496,-4)" class="stroke_order_diagram--existing_path"></path><path id="pathSk940yk7k6im" kvg:type="㇐a" d="M30.56,44.82c8.57-1.57,34.19-4.57,41.65-5.12" transform="matrix(1,0,0,1,496,-4)" class="stroke_order_diagram--existing_path"></path><path id="kvg:09b3c-s6" kvg:type="㇐a" d="M32.23,56.89c13.52-2.14,23.52-3.64,36.49-5.12" transform="matrix(1,0,0,1,496,-4)" class="stroke_order_diagram--current_path"></path><path id="pathSk940yk7k6io" kvg:type="㇐a" d="M32.23,56.89c13.52-2.14,23.52-3.64,36.49-5.12" transform="matrix(1,0,0,1,496,-4)" class="stroke_order_diagram--current_path"></path><circle cx="32.23" cy="56.89" r="8" class="stroke_order_diagram--path_start" transform="matrix(1,0,0,1,496,-4)"></circle><line x1="650" x2="650" y1="1" y2="99" class="stroke_order_diagram--guide_line"></line><line x1="699" x2="699" y1="1" y2="99" class="stroke_order_diagram--bounding_box"></line><path id="pathSk940yk7k6ir" kvg:type="㇒" d="M50.85,11.25c0.08,1.12-0.04,1.7-0.53,2.73C47.86,19.2,46,21.62,40.25,27.75" transform="matrix(1,0,0,1,596,-4)" class="stroke_order_diagram--existing_path"></path><path id="pathSk940yk7k6is" kvg:type="㇑" d="M25.83,30.12c0.78,0.78,1.43,2.19,1.58,3c1.22,6.88,2.46,13.28,3.36,21.33c0.22,2,0.42,3.98,0.59,5.87" transform="matrix(1,0,0,1,596,-4)" class="stroke_order_diagram--existing_path"></path><path id="pathSk940yk7k6it" kvg:type="㇕a" d="M28.17,31.95c12.95-1.7,31.45-4.7,42.95-5.53c3.28-0.24,4.63,1.83,4.28,4.12c-0.7,4.57-2.19,11.16-5.08,19.48c-0.51,1.47-1.07,3.01-1.69,4.61" transform="matrix(1,0,0,1,596,-4)" class="stroke_order_diagram--existing_path"></path><path id="pathSk940yk7k6iu" kvg:type="㇑a" d="M49.58,30.87c0.65,0.65,1.03,1.88,1.03,3.07c0,8.31-0.05,15.87,0,19.13" transform="matrix(1,0,0,1,596,-4)" class="stroke_order_diagram--existing_path"></path><path id="pathSk940yk7k6iv" kvg:type="㇐a" d="M30.56,44.82c8.57-1.57,34.19-4.57,41.65-5.12" transform="matrix(1,0,0,1,596,-4)" class="stroke_order_diagram--existing_path"></path><path id="pathSk940yk7k6iw" kvg:type="㇐a" d="M32.23,56.89c13.52-2.14,23.52-3.64,36.49-5.12" transform="matrix(1,0,0,1,596,-4)" class="stroke_order_diagram--existing_path"></path><path id="kvg:09b3c-s7" kvg:type="㇒" d="M40.5,60.5c0.25,0.75,0.44,1.97,0.12,3.18c-2.74,10.2-7.99,23.07-23.12,32.07" transform="matrix(1,0,0,1,596,-4)" class="stroke_order_diagram--current_path"></path><path id="pathSk940yk7k6iy" kvg:type="㇒" d="M40.5,60.5c0.25,0.75,0.44,1.97,0.12,3.18c-2.74,10.2-7.99,23.07-23.12,32.07" transform="matrix(1,0,0,1,596,-4)" class="stroke_order_diagram--current_path"></path><circle cx="40.5" cy="60.5" r="8" class="stroke_order_diagram--path_start" transform="matrix(1,0,0,1,596,-4)"></circle><line x1="750" x2="750" y1="1" y2="99" class="stroke_order_diagram--guide_line"></line><line x1="799" x2="799" y1="1" y2="99" class="stroke_order_diagram--bounding_box"></line><path id="pathSk940yk7k6j1" kvg:type="㇒" d="M50.85,11.25c0.08,1.12-0.04,1.7-0.53,2.73C47.86,19.2,46,21.62,40.25,27.75" transform="matrix(1,0,0,1,696,-4)" class="stroke_order_diagram--existing_path"></path><path id="pathSk940yk7k6j2" kvg:type="㇑" d="M25.83,30.12c0.78,0.78,1.43,2.19,1.58,3c1.22,6.88,2.46,13.28,3.36,21.33c0.22,2,0.42,3.98,0.59,5.87" transform="matrix(1,0,0,1,696,-4)" class="stroke_order_diagram--existing_path"></path><path id="pathSk940yk7k6j3" kvg:type="㇕a" d="M28.17,31.95c12.95-1.7,31.45-4.7,42.95-5.53c3.28-0.24,4.63,1.83,4.28,4.12c-0.7,4.57-2.19,11.16-5.08,19.48c-0.51,1.47-1.07,3.01-1.69,4.61" transform="matrix(1,0,0,1,696,-4)" class="stroke_order_diagram--existing_path"></path><path id="pathSk940yk7k6j4" kvg:type="㇑a" d="M49.58,30.87c0.65,0.65,1.03,1.88,1.03,3.07c0,8.31-0.05,15.87,0,19.13" transform="matrix(1,0,0,1,696,-4)" class="stroke_order_diagram--existing_path"></path><path id="pathSk940yk7k6j5" kvg:type="㇐a" d="M30.56,44.82c8.57-1.57,34.19-4.57,41.65-5.12" transform="matrix(1,0,0,1,696,-4)" class="stroke_order_diagram--existing_path"></path><path id="pathSk940yk7k6j6" kvg:type="㇐a" d="M32.23,56.89c13.52-2.14,23.52-3.64,36.49-5.12" transform="matrix(1,0,0,1,696,-4)" class="stroke_order_diagram--existing_path"></path><path id="pathSk940yk7k6j7" kvg:type="㇒" d="M40.5,60.5c0.25,0.75,0.44,1.97,0.12,3.18c-2.74,10.2-7.99,23.07-23.12,32.07" transform="matrix(1,0,0,1,696,-4)" class="stroke_order_diagram--existing_path"></path><path id="kvg:09b3c-s8" kvg:type="㇟" d="M52.49,57.37c1.01,1.01,1.33,2.59,1.38,4.43c0.2,8.19,0.08,19.14,0.08,24.7c0,9.5,1.81,11.53,19.97,11.53c20.47,0,21.34-1.9,21.34-9.12" transform="matrix(1,0,0,1,696,-4)" class="stroke_order_diagram--current_path"></path><path id="pathSk940yk7k6j9" kvg:type="㇟" d="M52.49,57.37c1.01,1.01,1.33,2.59,1.38,4.43c0.2,8.19,0.08,19.14,0.08,24.7c0,9.5,1.81,11.53,19.97,11.53c20.47,0,21.34-1.9,21.34-9.12" transform="matrix(1,0,0,1,696,-4)" class="stroke_order_diagram--current_path"></path><circle cx="52.49" cy="57.37" r="8" class="stroke_order_diagram--path_start" transform="matrix(1,0,0,1,696,-4)"></circle><line x1="850" x2="850" y1="1" y2="99" class="stroke_order_diagram--guide_line"></line><line x1="899" x2="899" y1="1" y2="99" class="stroke_order_diagram--bounding_box"></line><path id="pathSk940yk7k6jc" kvg:type="㇒" d="M50.85,11.25c0.08,1.12-0.04,1.7-0.53,2.73C47.86,19.2,46,21.62,40.25,27.75" transform="matrix(1,0,0,1,796,-4)" class="stroke_order_diagram--existing_path"></path><path id="pathSk940yk7k6jd" kvg:type="㇑" d="M25.83,30.12c0.78,0.78,1.43,2.19,1.58,3c1.22,6.88,2.46,13.28,3.36,21.33c0.22,2,0.42,3.98,0.59,5.87" transform="matrix(1,0,0,1,796,-4)" class="stroke_order_diagram--existing_path"></path><path id="pathSk940yk7k6je" kvg:type="㇕a" d="M28.17,31.95c12.95-1.7,31.45-4.7,42.95-5.53c3.28-0.24,4.63,1.83,4.28,4.12c-0.7,4.57-2.19,11.16-5.08,19.48c-0.51,1.47-1.07,3.01-1.69,4.61" transform="matrix(1,0,0,1,796,-4)" class="stroke_order_diagram--existing_path"></path><path id="pathSk940yk7k6jf" kvg:type="㇑a" d="M49.58,30.87c0.65,0.65,1.03,1.88,1.03,3.07c0,8.31-0.05,15.87,0,19.13" transform="matrix(1,0,0,1,796,-4)" class="stroke_order_diagram--existing_path"></path><path id="pathSk940yk7k6jg" kvg:type="㇐a" d="M30.56,44.82c8.57-1.57,34.19-4.57,41.65-5.12" transform="matrix(1,0,0,1,796,-4)" class="stroke_order_diagram--existing_path"></path><path id="pathSk940yk7k6jh" kvg:type="㇐a" d="M32.23,56.89c13.52-2.14,23.52-3.64,36.49-5.12" transform="matrix(1,0,0,1,796,-4)" class="stroke_order_diagram--existing_path"></path><path id="pathSk940yk7k6ji" kvg:type="㇒" d="M40.5,60.5c0.25,0.75,0.44,1.97,0.12,3.18c-2.74,10.2-7.99,23.07-23.12,32.07" transform="matrix(1,0,0,1,796,-4)" class="stroke_order_diagram--existing_path"></path><path id="pathSk940yk7k6jj" kvg:type="㇟" d="M52.49,57.37c1.01,1.01,1.33,2.59,1.38,4.43c0.2,8.19,0.08,19.14,0.08,24.7c0,9.5,1.81,11.53,19.97,11.53c20.47,0,21.34-1.9,21.34-9.12" transform="matrix(1,0,0,1,796,-4)" class="stroke_order_diagram--existing_path"></path><path id="kvg:09b3c-s9" kvg:type="㇜" d="M69.75,60.22c0.37,0.9,0.37,1.9-0.08,3.09c-2.48,6.51-4.62,11.46-8.07,16.23c-1.09,1.51-0.29,2.53,1.25,2.01c5.39-1.8,12.89-4.8,18.13-6.69" transform="matrix(1,0,0,1,796,-4)" class="stroke_order_diagram--current_path"></path><path id="pathSk940yk7k6jl" kvg:type="㇜" d="M69.75,60.22c0.37,0.9,0.37,1.9-0.08,3.09c-2.48,6.51-4.62,11.46-8.07,16.23c-1.09,1.51-0.29,2.53,1.25,2.01c5.39-1.8,12.89-4.8,18.13-6.69" transform="matrix(1,0,0,1,796,-4)" class="stroke_order_diagram--current_path"></path><circle cx="69.75" cy="60.22" r="8" class="stroke_order_diagram--path_start" transform="matrix(1,0,0,1,796,-4)"></circle><line x1="950" x2="950" y1="1" y2="99" class="stroke_order_diagram--guide_line"></line><line x1="999" x2="999" y1="1" y2="99" class="stroke_order_diagram--bounding_box"></line><path id="pathSk940yk7k6jo" kvg:type="㇒" d="M50.85,11.25c0.08,1.12-0.04,1.7-0.53,2.73C47.86,19.2,46,21.62,40.25,27.75" transform="matrix(1,0,0,1,896,-4)" class="stroke_order_diagram--existing_path"></path><path id="pathSk940yk7k6jp" kvg:type="㇑" d="M25.83,30.12c0.78,0.78,1.43,2.19,1.58,3c1.22,6.88,2.46,13.28,3.36,21.33c0.22,2,0.42,3.98,0.59,5.87" transform="matrix(1,0,0,1,896,-4)" class="stroke_order_diagram--existing_path"></path><path id="pathSk940yk7k6jq" kvg:type="㇕a" d="M28.17,31.95c12.95-1.7,31.45-4.7,42.95-5.53c3.28-0.24,4.63,1.83,4.28,4.12c-0.7,4.57-2.19,11.16-5.08,19.48c-0.51,1.47-1.07,3.01-1.69,4.61" transform="matrix(1,0,0,1,896,-4)" class="stroke_order_diagram--existing_path"></path><path id="pathSk940yk7k6jr" kvg:type="㇑a" d="M49.58,30.87c0.65,0.65,1.03,1.88,1.03,3.07c0,8.31-0.05,15.87,0,19.13" transform="matrix(1,0,0,1,896,-4)" class="stroke_order_diagram--existing_path"></path><path id="pathSk940yk7k6js" kvg:type="㇐a" d="M30.56,44.82c8.57-1.57,34.19-4.57,41.65-5.12" transform="matrix(1,0,0,1,896,-4)" class="stroke_order_diagram--existing_path"></path><path id="pathSk940yk7k6jt" kvg:type="㇐a" d="M32.23,56.89c13.52-2.14,23.52-3.64,36.49-5.12" transform="matrix(1,0,0,1,896,-4)" class="stroke_order_diagram--existing_path"></path><path id="pathSk940yk7k6ju" kvg:type="㇒" d="M40.5,60.5c0.25,0.75,0.44,1.97,0.12,3.18c-2.74,10.2-7.99,23.07-23.12,32.07" transform="matrix(1,0,0,1,896,-4)" class="stroke_order_diagram--existing_path"></path><path id="pathSk940yk7k6jv" kvg:type="㇟" d="M52.49,57.37c1.01,1.01,1.33,2.59,1.38,4.43c0.2,8.19,0.08,19.14,0.08,24.7c0,9.5,1.81,11.53,19.97,11.53c20.47,0,21.34-1.9,21.34-9.12" transform="matrix(1,0,0,1,896,-4)" class="stroke_order_diagram--existing_path"></path><path id="pathSk940yk7k6jw" kvg:type="㇜" d="M69.75,60.22c0.37,0.9,0.37,1.9-0.08,3.09c-2.48,6.51-4.62,11.46-8.07,16.23c-1.09,1.51-0.29,2.53,1.25,2.01c5.39-1.8,12.89-4.8,18.13-6.69" transform="matrix(1,0,0,1,896,-4)" class="stroke_order_diagram--existing_path"></path><path id="kvg:09b3c-s10" kvg:type="㇔" d="M77.79,70.43c2.44,1.77,7.79,8.78,8.4,11.54" transform="matrix(1,0,0,1,896,-4)" class="stroke_order_diagram--current_path"></path><path id="pathSk940yk7k6jy" kvg:type="㇔" d="M77.79,70.43c2.44,1.77,7.79,8.78,8.4,11.54" transform="matrix(1,0,0,1,896,-4)" class="stroke_order_diagram--current_path"></path><circle cx="77.79" cy="70.43" r="8" class="stroke_order_diagram--path_start" transform="matrix(1,0,0,1,896,-4)"></circle></svg>