<?xml version="1.0" encoding="UTF-8"?>
<!DOCTYPE svg PUBLIC "-//W3C//DTD SVG 1.0//EN" "http://www.w3.org/TR/2001/REC-SVG-20010904/DTD/svg10.dtd" [
<!ATTLIST g
xmlns:kvg CDATA #FIXED "http://kanjivg.tagaini.net"
kvg:element CDATA #IMPLIED
kvg:variant CDATA #IMPLIED
kvg:partial CDATA #IMPLIED
kvg:original CDATA #IMPLIED
kvg:part CDATA #IMPLIED
kvg:number CDATA #IMPLIED
kvg:tradForm CDATA #IMPLIED
kvg:radicalForm CDATA #IMPLIED
kvg:position CDATA #IMPLIED
kvg:radical CDATA #IMPLIED
kvg:phon CDATA #IMPLIED >
<!ATTLIST path
xmlns:kvg CDATA #FIXED "http://kanjivg.tagaini.net"
kvg:type CDATA #IMPLIED >
]><svg style="width: 1100px; height: 100px;" xmlns="http://www.w3.org/2000/svg" xmlns:xlink="http://www.w3.org/1999/xlink" width="1100px" height="100px"><style>
.stroke_order_diagram--outer_container {
  width: 100%;
  overflow-x: auto;
  overflow-y: hidden;
}

.stroke_order_diagram--guide_line {
  fill: none;
  stroke: #ddd;
  stroke-width: 3;
  stroke-linecap: square;
  stroke-linejoin: square;
  stroke-dasharray:8, 8;
}

.stroke_order_diagram--bounding_box {
  fill: none;
  stroke: #ddd;
  stroke-width: 4;
  stroke-linecap: square;
  stroke-linejoin: square;
}

.stroke_order_diagram--current_path {
  fill: none;
  stroke: #000;
  stroke-width: 6;
  stroke-linecap: round;
  stroke-linejoin: round;
}

.stroke_order_diagram--existing_path {
  fill: none;
  stroke: #aaa;
  stroke-width: 6;
  stroke-linecap: round;
  stroke-linejoin:round;
}

.stroke_order_diagram--path_start {
  fill: rgba(255, 0, 0, 0.7);
  stroke:none
}</style><desc>Created with Snap</desc><defs></defs><line x1="1" x2="1099" y1="1" y2="1" class="stroke_order_diagram--bounding_box"></line><line x1="1" x2="1" y1="1" y2="99" class="stroke_order_diagram--bounding_box"></line><line x1="1" x2="1099" y1="99" y2="99" class="stroke_order_diagram--bounding_box"></line><line x1="0" x2="1100" y1="50" y2="50" class="stroke_order_diagram--guide_line"></line><line x1="50" x2="50" y1="1" y2="99" class="stroke_order_diagram--guide_line"></line><line x1="99" x2="99" y1="1" y2="99" class="stroke_order_diagram--bounding_box"></line><path id="kvg:09b5a-s1" kvg:type="㇒" d="M48,13c0.14,1.21-0.07,2.22-0.59,3.32C45.08,21.29,37,30.31,26.25,36" transform="matrix(1,0,0,1,-4,-4)" class="stroke_order_diagram--current_path"></path><path id="pathSk940yk7k6kj" kvg:type="㇒" d="M48,13c0.14,1.21-0.07,2.22-0.59,3.32C45.08,21.29,37,30.31,26.25,36" transform="matrix(1,0,0,1,-4,-4)" class="stroke_order_diagram--current_path"></path><circle cx="48" cy="13" r="8" class="stroke_order_diagram--path_start" transform="matrix(1,0,0,1,-4,-4)"></circle><line x1="150" x2="150" y1="1" y2="99" class="stroke_order_diagram--guide_line"></line><line x1="199" x2="199" y1="1" y2="99" class="stroke_order_diagram--bounding_box"></line><path id="pathSk940yk7k6km" kvg:type="㇒" d="M48,13c0.14,1.21-0.07,2.22-0.59,3.32C45.08,21.29,37,30.31,26.25,36" transform="matrix(1,0,0,1,96,-4)" class="stroke_order_diagram--existing_path"></path><path id="kvg:09b5a-s2" kvg:type="㇇" d="M49,19.13c1.25,0.37,2.35,0.4,3.8,0.24c4.73-0.53,10.95-1.37,14.14-2.13c2.5-0.6,3.69,1.64,2.06,3.51c-4.94,5.7-9.5,11.12-14.25,17.25" transform="matrix(1,0,0,1,96,-4)" class="stroke_order_diagram--current_path"></path><path id="pathSk940yk7k6ko" kvg:type="㇇" d="M49,19.13c1.25,0.37,2.35,0.4,3.8,0.24c4.73-0.53,10.95-1.37,14.14-2.13c2.5-0.6,3.69,1.64,2.06,3.51c-4.94,5.7-9.5,11.12-14.25,17.25" transform="matrix(1,0,0,1,96,-4)" class="stroke_order_diagram--current_path"></path><circle cx="49" cy="19.13" r="8" class="stroke_order_diagram--path_start" transform="matrix(1,0,0,1,96,-4)"></circle><line x1="250" x2="250" y1="1" y2="99" class="stroke_order_diagram--guide_line"></line><line x1="299" x2="299" y1="1" y2="99" class="stroke_order_diagram--bounding_box"></line><path id="pathSk940yk7k6kr" kvg:type="㇒" d="M48,13c0.14,1.21-0.07,2.22-0.59,3.32C45.08,21.29,37,30.31,26.25,36" transform="matrix(1,0,0,1,196,-4)" class="stroke_order_diagram--existing_path"></path><path id="pathSk940yk7k6ks" kvg:type="㇇" d="M49,19.13c1.25,0.37,2.35,0.4,3.8,0.24c4.73-0.53,10.95-1.37,14.14-2.13c2.5-0.6,3.69,1.64,2.06,3.51c-4.94,5.7-9.5,11.12-14.25,17.25" transform="matrix(1,0,0,1,196,-4)" class="stroke_order_diagram--existing_path"></path><path id="kvg:09b5a-s3" kvg:type="㇑" d="M27.49,40.98c1.2,1.2,1.88,2.4,2.11,3.82c0.85,5.2,2.43,14.61,3.41,22.71c0.17,1.36,0.32,2.69,0.47,3.96" transform="matrix(1,0,0,1,196,-4)" class="stroke_order_diagram--current_path"></path><path id="pathSk940yk7k6ku" kvg:type="㇑" d="M27.49,40.98c1.2,1.2,1.88,2.4,2.11,3.82c0.85,5.2,2.43,14.61,3.41,22.71c0.17,1.36,0.32,2.69,0.47,3.96" transform="matrix(1,0,0,1,196,-4)" class="stroke_order_diagram--current_path"></path><circle cx="27.49" cy="40.98" r="8" class="stroke_order_diagram--path_start" transform="matrix(1,0,0,1,196,-4)"></circle><line x1="350" x2="350" y1="1" y2="99" class="stroke_order_diagram--guide_line"></line><line x1="399" x2="399" y1="1" y2="99" class="stroke_order_diagram--bounding_box"></line><path id="pathSk940yk7k6kx" kvg:type="㇒" d="M48,13c0.14,1.21-0.07,2.22-0.59,3.32C45.08,21.29,37,30.31,26.25,36" transform="matrix(1,0,0,1,296,-4)" class="stroke_order_diagram--existing_path"></path><path id="pathSk940yk7k6ky" kvg:type="㇇" d="M49,19.13c1.25,0.37,2.35,0.4,3.8,0.24c4.73-0.53,10.95-1.37,14.14-2.13c2.5-0.6,3.69,1.64,2.06,3.51c-4.94,5.7-9.5,11.12-14.25,17.25" transform="matrix(1,0,0,1,296,-4)" class="stroke_order_diagram--existing_path"></path><path id="pathSk940yk7k6kz" kvg:type="㇑" d="M27.49,40.98c1.2,1.2,1.88,2.4,2.11,3.82c0.85,5.2,2.43,14.61,3.41,22.71c0.17,1.36,0.32,2.69,0.47,3.96" transform="matrix(1,0,0,1,296,-4)" class="stroke_order_diagram--existing_path"></path><path id="kvg:09b5a-s4" kvg:type="㇕a" d="M30.27,42.78C45.25,40.62,67,37.75,78.41,37.3c3.85-0.15,5.83,1.46,5.59,3.95c-0.5,5.12-1.85,15.04-3.39,23.73c-0.2,1.15-0.41,2.25-0.61,3.27" transform="matrix(1,0,0,1,296,-4)" class="stroke_order_diagram--current_path"></path><path id="pathSk940yk7k6l1" kvg:type="㇕a" d="M30.27,42.78C45.25,40.62,67,37.75,78.41,37.3c3.85-0.15,5.83,1.46,5.59,3.95c-0.5,5.12-1.85,15.04-3.39,23.73c-0.2,1.15-0.41,2.25-0.61,3.27" transform="matrix(1,0,0,1,296,-4)" class="stroke_order_diagram--current_path"></path><circle cx="30.27" cy="42.78" r="8" class="stroke_order_diagram--path_start" transform="matrix(1,0,0,1,296,-4)"></circle><line x1="450" x2="450" y1="1" y2="99" class="stroke_order_diagram--guide_line"></line><line x1="499" x2="499" y1="1" y2="99" class="stroke_order_diagram--bounding_box"></line><path id="pathSk940yk7k6l4" kvg:type="㇒" d="M48,13c0.14,1.21-0.07,2.22-0.59,3.32C45.08,21.29,37,30.31,26.25,36" transform="matrix(1,0,0,1,396,-4)" class="stroke_order_diagram--existing_path"></path><path id="pathSk940yk7k6l5" kvg:type="㇇" d="M49,19.13c1.25,0.37,2.35,0.4,3.8,0.24c4.73-0.53,10.95-1.37,14.14-2.13c2.5-0.6,3.69,1.64,2.06,3.51c-4.94,5.7-9.5,11.12-14.25,17.25" transform="matrix(1,0,0,1,396,-4)" class="stroke_order_diagram--existing_path"></path><path id="pathSk940yk7k6l6" kvg:type="㇑" d="M27.49,40.98c1.2,1.2,1.88,2.4,2.11,3.82c0.85,5.2,2.43,14.61,3.41,22.71c0.17,1.36,0.32,2.69,0.47,3.96" transform="matrix(1,0,0,1,396,-4)" class="stroke_order_diagram--existing_path"></path><path id="pathSk940yk7k6l7" kvg:type="㇕a" d="M30.27,42.78C45.25,40.62,67,37.75,78.41,37.3c3.85-0.15,5.83,1.46,5.59,3.95c-0.5,5.12-1.85,15.04-3.39,23.73c-0.2,1.15-0.41,2.25-0.61,3.27" transform="matrix(1,0,0,1,396,-4)" class="stroke_order_diagram--existing_path"></path><path id="kvg:09b5a-s5" kvg:type="㇑a" d="M53.75,41.5c1,0.75,1.12,1.88,1.16,2.98C55.13,50.39,55,65.45,55,66.25" transform="matrix(1,0,0,1,396,-4)" class="stroke_order_diagram--current_path"></path><path id="pathSk940yk7k6l9" kvg:type="㇑a" d="M53.75,41.5c1,0.75,1.12,1.88,1.16,2.98C55.13,50.39,55,65.45,55,66.25" transform="matrix(1,0,0,1,396,-4)" class="stroke_order_diagram--current_path"></path><circle cx="53.75" cy="41.5" r="8" class="stroke_order_diagram--path_start" transform="matrix(1,0,0,1,396,-4)"></circle><line x1="550" x2="550" y1="1" y2="99" class="stroke_order_diagram--guide_line"></line><line x1="599" x2="599" y1="1" y2="99" class="stroke_order_diagram--bounding_box"></line><path id="pathSk940yk7k6lc" kvg:type="㇒" d="M48,13c0.14,1.21-0.07,2.22-0.59,3.32C45.08,21.29,37,30.31,26.25,36" transform="matrix(1,0,0,1,496,-4)" class="stroke_order_diagram--existing_path"></path><path id="pathSk940yk7k6ld" kvg:type="㇇" d="M49,19.13c1.25,0.37,2.35,0.4,3.8,0.24c4.73-0.53,10.95-1.37,14.14-2.13c2.5-0.6,3.69,1.64,2.06,3.51c-4.94,5.7-9.5,11.12-14.25,17.25" transform="matrix(1,0,0,1,496,-4)" class="stroke_order_diagram--existing_path"></path><path id="pathSk940yk7k6le" kvg:type="㇑" d="M27.49,40.98c1.2,1.2,1.88,2.4,2.11,3.82c0.85,5.2,2.43,14.61,3.41,22.71c0.17,1.36,0.32,2.69,0.47,3.96" transform="matrix(1,0,0,1,496,-4)" class="stroke_order_diagram--existing_path"></path><path id="pathSk940yk7k6lf" kvg:type="㇕a" d="M30.27,42.78C45.25,40.62,67,37.75,78.41,37.3c3.85-0.15,5.83,1.46,5.59,3.95c-0.5,5.12-1.85,15.04-3.39,23.73c-0.2,1.15-0.41,2.25-0.61,3.27" transform="matrix(1,0,0,1,496,-4)" class="stroke_order_diagram--existing_path"></path><path id="pathSk940yk7k6lg" kvg:type="㇑a" d="M53.75,41.5c1,0.75,1.12,1.88,1.16,2.98C55.13,50.39,55,65.45,55,66.25" transform="matrix(1,0,0,1,496,-4)" class="stroke_order_diagram--existing_path"></path><path id="kvg:09b5a-s6" kvg:type="㇐a" d="M32.47,55.61C43.5,54.38,69.88,52,81.21,51.64" transform="matrix(1,0,0,1,496,-4)" class="stroke_order_diagram--current_path"></path><path id="pathSk940yk7k6li" kvg:type="㇐a" d="M32.47,55.61C43.5,54.38,69.88,52,81.21,51.64" transform="matrix(1,0,0,1,496,-4)" class="stroke_order_diagram--current_path"></path><circle cx="32.47" cy="55.61" r="8" class="stroke_order_diagram--path_start" transform="matrix(1,0,0,1,496,-4)"></circle><line x1="650" x2="650" y1="1" y2="99" class="stroke_order_diagram--guide_line"></line><line x1="699" x2="699" y1="1" y2="99" class="stroke_order_diagram--bounding_box"></line><path id="pathSk940yk7k6ll" kvg:type="㇒" d="M48,13c0.14,1.21-0.07,2.22-0.59,3.32C45.08,21.29,37,30.31,26.25,36" transform="matrix(1,0,0,1,596,-4)" class="stroke_order_diagram--existing_path"></path><path id="pathSk940yk7k6lm" kvg:type="㇇" d="M49,19.13c1.25,0.37,2.35,0.4,3.8,0.24c4.73-0.53,10.95-1.37,14.14-2.13c2.5-0.6,3.69,1.64,2.06,3.51c-4.94,5.7-9.5,11.12-14.25,17.25" transform="matrix(1,0,0,1,596,-4)" class="stroke_order_diagram--existing_path"></path><path id="pathSk940yk7k6ln" kvg:type="㇑" d="M27.49,40.98c1.2,1.2,1.88,2.4,2.11,3.82c0.85,5.2,2.43,14.61,3.41,22.71c0.17,1.36,0.32,2.69,0.47,3.96" transform="matrix(1,0,0,1,596,-4)" class="stroke_order_diagram--existing_path"></path><path id="pathSk940yk7k6lo" kvg:type="㇕a" d="M30.27,42.78C45.25,40.62,67,37.75,78.41,37.3c3.85-0.15,5.83,1.46,5.59,3.95c-0.5,5.12-1.85,15.04-3.39,23.73c-0.2,1.15-0.41,2.25-0.61,3.27" transform="matrix(1,0,0,1,596,-4)" class="stroke_order_diagram--existing_path"></path><path id="pathSk940yk7k6lp" kvg:type="㇑a" d="M53.75,41.5c1,0.75,1.12,1.88,1.16,2.98C55.13,50.39,55,65.45,55,66.25" transform="matrix(1,0,0,1,596,-4)" class="stroke_order_diagram--existing_path"></path><path id="pathSk940yk7k6lq" kvg:type="㇐a" d="M32.47,55.61C43.5,54.38,69.88,52,81.21,51.64" transform="matrix(1,0,0,1,596,-4)" class="stroke_order_diagram--existing_path"></path><path id="kvg:09b5a-s7" kvg:type="㇐a" d="M34.2,69.54c12.92-1.29,30.42-3.04,45.8-3.79" transform="matrix(1,0,0,1,596,-4)" class="stroke_order_diagram--current_path"></path><path id="pathSk940yk7k6ls" kvg:type="㇐a" d="M34.2,69.54c12.92-1.29,30.42-3.04,45.8-3.79" transform="matrix(1,0,0,1,596,-4)" class="stroke_order_diagram--current_path"></path><circle cx="34.2" cy="69.54" r="8" class="stroke_order_diagram--path_start" transform="matrix(1,0,0,1,596,-4)"></circle><line x1="750" x2="750" y1="1" y2="99" class="stroke_order_diagram--guide_line"></line><line x1="799" x2="799" y1="1" y2="99" class="stroke_order_diagram--bounding_box"></line><path id="pathSk940yk7k6lv" kvg:type="㇒" d="M48,13c0.14,1.21-0.07,2.22-0.59,3.32C45.08,21.29,37,30.31,26.25,36" transform="matrix(1,0,0,1,696,-4)" class="stroke_order_diagram--existing_path"></path><path id="pathSk940yk7k6lw" kvg:type="㇇" d="M49,19.13c1.25,0.37,2.35,0.4,3.8,0.24c4.73-0.53,10.95-1.37,14.14-2.13c2.5-0.6,3.69,1.64,2.06,3.51c-4.94,5.7-9.5,11.12-14.25,17.25" transform="matrix(1,0,0,1,696,-4)" class="stroke_order_diagram--existing_path"></path><path id="pathSk940yk7k6lx" kvg:type="㇑" d="M27.49,40.98c1.2,1.2,1.88,2.4,2.11,3.82c0.85,5.2,2.43,14.61,3.41,22.71c0.17,1.36,0.32,2.69,0.47,3.96" transform="matrix(1,0,0,1,696,-4)" class="stroke_order_diagram--existing_path"></path><path id="pathSk940yk7k6ly" kvg:type="㇕a" d="M30.27,42.78C45.25,40.62,67,37.75,78.41,37.3c3.85-0.15,5.83,1.46,5.59,3.95c-0.5,5.12-1.85,15.04-3.39,23.73c-0.2,1.15-0.41,2.25-0.61,3.27" transform="matrix(1,0,0,1,696,-4)" class="stroke_order_diagram--existing_path"></path><path id="pathSk940yk7k6lz" kvg:type="㇑a" d="M53.75,41.5c1,0.75,1.12,1.88,1.16,2.98C55.13,50.39,55,65.45,55,66.25" transform="matrix(1,0,0,1,696,-4)" class="stroke_order_diagram--existing_path"></path><path id="pathSk940yk7k6m0" kvg:type="㇐a" d="M32.47,55.61C43.5,54.38,69.88,52,81.21,51.64" transform="matrix(1,0,0,1,696,-4)" class="stroke_order_diagram--existing_path"></path><path id="pathSk940yk7k6m1" kvg:type="㇐a" d="M34.2,69.54c12.92-1.29,30.42-3.04,45.8-3.79" transform="matrix(1,0,0,1,696,-4)" class="stroke_order_diagram--existing_path"></path><path id="kvg:09b5a-s8" kvg:type="㇔" d="M26.25,81c0,5.25-5.75,13-7.25,14.5" transform="matrix(1,0,0,1,696,-4)" class="stroke_order_diagram--current_path"></path><path id="pathSk940yk7k6m3" kvg:type="㇔" d="M26.25,81c0,5.25-5.75,13-7.25,14.5" transform="matrix(1,0,0,1,696,-4)" class="stroke_order_diagram--current_path"></path><circle cx="26.25" cy="81" r="8" class="stroke_order_diagram--path_start" transform="matrix(1,0,0,1,696,-4)"></circle><line x1="850" x2="850" y1="1" y2="99" class="stroke_order_diagram--guide_line"></line><line x1="899" x2="899" y1="1" y2="99" class="stroke_order_diagram--bounding_box"></line><path id="pathSk940yk7k6m6" kvg:type="㇒" d="M48,13c0.14,1.21-0.07,2.22-0.59,3.32C45.08,21.29,37,30.31,26.25,36" transform="matrix(1,0,0,1,796,-4)" class="stroke_order_diagram--existing_path"></path><path id="pathSk940yk7k6m7" kvg:type="㇇" d="M49,19.13c1.25,0.37,2.35,0.4,3.8,0.24c4.73-0.53,10.95-1.37,14.14-2.13c2.5-0.6,3.69,1.64,2.06,3.51c-4.94,5.7-9.5,11.12-14.25,17.25" transform="matrix(1,0,0,1,796,-4)" class="stroke_order_diagram--existing_path"></path><path id="pathSk940yk7k6m8" kvg:type="㇑" d="M27.49,40.98c1.2,1.2,1.88,2.4,2.11,3.82c0.85,5.2,2.43,14.61,3.41,22.71c0.17,1.36,0.32,2.69,0.47,3.96" transform="matrix(1,0,0,1,796,-4)" class="stroke_order_diagram--existing_path"></path><path id="pathSk940yk7k6m9" kvg:type="㇕a" d="M30.27,42.78C45.25,40.62,67,37.75,78.41,37.3c3.85-0.15,5.83,1.46,5.59,3.95c-0.5,5.12-1.85,15.04-3.39,23.73c-0.2,1.15-0.41,2.25-0.61,3.27" transform="matrix(1,0,0,1,796,-4)" class="stroke_order_diagram--existing_path"></path><path id="pathSk940yk7k6ma" kvg:type="㇑a" d="M53.75,41.5c1,0.75,1.12,1.88,1.16,2.98C55.13,50.39,55,65.45,55,66.25" transform="matrix(1,0,0,1,796,-4)" class="stroke_order_diagram--existing_path"></path><path id="pathSk940yk7k6mb" kvg:type="㇐a" d="M32.47,55.61C43.5,54.38,69.88,52,81.21,51.64" transform="matrix(1,0,0,1,796,-4)" class="stroke_order_diagram--existing_path"></path><path id="pathSk940yk7k6mc" kvg:type="㇐a" d="M34.2,69.54c12.92-1.29,30.42-3.04,45.8-3.79" transform="matrix(1,0,0,1,796,-4)" class="stroke_order_diagram--existing_path"></path><path id="pathSk940yk7k6md" kvg:type="㇔" d="M26.25,81c0,5.25-5.75,13-7.25,14.5" transform="matrix(1,0,0,1,796,-4)" class="stroke_order_diagram--existing_path"></path><path id="kvg:09b5a-s9" kvg:type="㇔" d="M42.52,79.08c3.15,2.76,6.15,10.84,6.94,15.13" transform="matrix(1,0,0,1,796,-4)" class="stroke_order_diagram--current_path"></path><path id="pathSk940yk7k6mf" kvg:type="㇔" d="M42.52,79.08c3.15,2.76,6.15,10.84,6.94,15.13" transform="matrix(1,0,0,1,796,-4)" class="stroke_order_diagram--current_path"></path><circle cx="42.52" cy="79.08" r="8" class="stroke_order_diagram--path_start" transform="matrix(1,0,0,1,796,-4)"></circle><line x1="950" x2="950" y1="1" y2="99" class="stroke_order_diagram--guide_line"></line><line x1="999" x2="999" y1="1" y2="99" class="stroke_order_diagram--bounding_box"></line><path id="pathSk940yk7k6mi" kvg:type="㇒" d="M48,13c0.14,1.21-0.07,2.22-0.59,3.32C45.08,21.29,37,30.31,26.25,36" transform="matrix(1,0,0,1,896,-4)" class="stroke_order_diagram--existing_path"></path><path id="pathSk940yk7k6mj" kvg:type="㇇" d="M49,19.13c1.25,0.37,2.35,0.4,3.8,0.24c4.73-0.53,10.95-1.37,14.14-2.13c2.5-0.6,3.69,1.64,2.06,3.51c-4.94,5.7-9.5,11.12-14.25,17.25" transform="matrix(1,0,0,1,896,-4)" class="stroke_order_diagram--existing_path"></path><path id="pathSk940yk7k6mk" kvg:type="㇑" d="M27.49,40.98c1.2,1.2,1.88,2.4,2.11,3.82c0.85,5.2,2.43,14.61,3.41,22.71c0.17,1.36,0.32,2.69,0.47,3.96" transform="matrix(1,0,0,1,896,-4)" class="stroke_order_diagram--existing_path"></path><path id="pathSk940yk7k6ml" kvg:type="㇕a" d="M30.27,42.78C45.25,40.62,67,37.75,78.41,37.3c3.85-0.15,5.83,1.46,5.59,3.95c-0.5,5.12-1.85,15.04-3.39,23.73c-0.2,1.15-0.41,2.25-0.61,3.27" transform="matrix(1,0,0,1,896,-4)" class="stroke_order_diagram--existing_path"></path><path id="pathSk940yk7k6mm" kvg:type="㇑a" d="M53.75,41.5c1,0.75,1.12,1.88,1.16,2.98C55.13,50.39,55,65.45,55,66.25" transform="matrix(1,0,0,1,896,-4)" class="stroke_order_diagram--existing_path"></path><path id="pathSk940yk7k6mn" kvg:type="㇐a" d="M32.47,55.61C43.5,54.38,69.88,52,81.21,51.64" transform="matrix(1,0,0,1,896,-4)" class="stroke_order_diagram--existing_path"></path><path id="pathSk940yk7k6mo" kvg:type="㇐a" d="M34.2,69.54c12.92-1.29,30.42-3.04,45.8-3.79" transform="matrix(1,0,0,1,896,-4)" class="stroke_order_diagram--existing_path"></path><path id="pathSk940yk7k6mp" kvg:type="㇔" d="M26.25,81c0,5.25-5.75,13-7.25,14.5" transform="matrix(1,0,0,1,896,-4)" class="stroke_order_diagram--existing_path"></path><path id="pathSk940yk7k6mq" kvg:type="㇔" d="M42.52,79.08c3.15,2.76,6.15,10.84,6.94,15.13" transform="matrix(1,0,0,1,896,-4)" class="stroke_order_diagram--existing_path"></path><path id="kvg:09b5a-s10" kvg:type="㇔" d="M62.37,77.83c3.15,2.76,8.15,11.34,8.93,15.63" transform="matrix(1,0,0,1,896,-4)" class="stroke_order_diagram--current_path"></path><path id="pathSk940yk7k6ms" kvg:type="㇔" d="M62.37,77.83c3.15,2.76,8.15,11.34,8.93,15.63" transform="matrix(1,0,0,1,896,-4)" class="stroke_order_diagram--current_path"></path><circle cx="62.37" cy="77.83" r="8" class="stroke_order_diagram--path_start" transform="matrix(1,0,0,1,896,-4)"></circle><line x1="1050" x2="1050" y1="1" y2="99" class="stroke_order_diagram--guide_line"></line><line x1="1099" x2="1099" y1="1" y2="99" class="stroke_order_diagram--bounding_box"></line><path id="pathSk940yk7k6mv" kvg:type="㇒" d="M48,13c0.14,1.21-0.07,2.22-0.59,3.32C45.08,21.29,37,30.31,26.25,36" transform="matrix(1,0,0,1,996,-4)" class="stroke_order_diagram--existing_path"></path><path id="pathSk940yk7k6mw" kvg:type="㇇" d="M49,19.13c1.25,0.37,2.35,0.4,3.8,0.24c4.73-0.53,10.95-1.37,14.14-2.13c2.5-0.6,3.69,1.64,2.06,3.51c-4.94,5.7-9.5,11.12-14.25,17.25" transform="matrix(1,0,0,1,996,-4)" class="stroke_order_diagram--existing_path"></path><path id="pathSk940yk7k6mx" kvg:type="㇑" d="M27.49,40.98c1.2,1.2,1.88,2.4,2.11,3.82c0.85,5.2,2.43,14.61,3.41,22.71c0.17,1.36,0.32,2.69,0.47,3.96" transform="matrix(1,0,0,1,996,-4)" class="stroke_order_diagram--existing_path"></path><path id="pathSk940yk7k6my" kvg:type="㇕a" d="M30.27,42.78C45.25,40.62,67,37.75,78.41,37.3c3.85-0.15,5.83,1.46,5.59,3.95c-0.5,5.12-1.85,15.04-3.39,23.73c-0.2,1.15-0.41,2.25-0.61,3.27" transform="matrix(1,0,0,1,996,-4)" class="stroke_order_diagram--existing_path"></path><path id="pathSk940yk7k6mz" kvg:type="㇑a" d="M53.75,41.5c1,0.75,1.12,1.88,1.16,2.98C55.13,50.39,55,65.45,55,66.25" transform="matrix(1,0,0,1,996,-4)" class="stroke_order_diagram--existing_path"></path><path id="pathSk940yk7k6n0" kvg:type="㇐a" d="M32.47,55.61C43.5,54.38,69.88,52,81.21,51.64" transform="matrix(1,0,0,1,996,-4)" class="stroke_order_diagram--existing_path"></path><path id="pathSk940yk7k6n1" kvg:type="㇐a" d="M34.2,69.54c12.92-1.29,30.42-3.04,45.8-3.79" transform="matrix(1,0,0,1,996,-4)" class="stroke_order_diagram--existing_path"></path><path id="pathSk940yk7k6n2" kvg:type="㇔" d="M26.25,81c0,5.25-5.75,13-7.25,14.5" transform="matrix(1,0,0,1,996,-4)" class="stroke_order_diagram--existing_path"></path><path id="pathSk940yk7k6n3" kvg:type="㇔" d="M42.52,79.08c3.15,2.76,6.15,10.84,6.94,15.13" transform="matrix(1,0,0,1,996,-4)" class="stroke_order_diagram--existing_path"></path><path id="pathSk940yk7k6n4" kvg:type="㇔" d="M62.37,77.83c3.15,2.76,8.15,11.34,8.93,15.63" transform="matrix(1,0,0,1,996,-4)" class="stroke_order_diagram--existing_path"></path><path id="kvg:09b5a-s11" kvg:type="㇔" d="M84.27,78.58c4.16,2.63,10.75,10.8,11.79,14.88" transform="matrix(1,0,0,1,996,-4)" class="stroke_order_diagram--current_path"></path><path id="pathSk940yk7k6n6" kvg:type="㇔" d="M84.27,78.58c4.16,2.63,10.75,10.8,11.79,14.88" transform="matrix(1,0,0,1,996,-4)" class="stroke_order_diagram--current_path"></path><circle cx="84.27" cy="78.58" r="8" class="stroke_order_diagram--path_start" transform="matrix(1,0,0,1,996,-4)"></circle></svg>