<?xml version="1.0" encoding="UTF-8"?>
<!DOCTYPE svg PUBLIC "-//W3C//DTD SVG 1.0//EN" "http://www.w3.org/TR/2001/REC-SVG-20010904/DTD/svg10.dtd" [
<!ATTLIST g
xmlns:kvg CDATA #FIXED "http://kanjivg.tagaini.net"
kvg:element CDATA #IMPLIED
kvg:variant CDATA #IMPLIED
kvg:partial CDATA #IMPLIED
kvg:original CDATA #IMPLIED
kvg:part CDATA #IMPLIED
kvg:number CDATA #IMPLIED
kvg:tradForm CDATA #IMPLIED
kvg:radicalForm CDATA #IMPLIED
kvg:position CDATA #IMPLIED
kvg:radical CDATA #IMPLIED
kvg:phon CDATA #IMPLIED >
<!ATTLIST path
xmlns:kvg CDATA #FIXED "http://kanjivg.tagaini.net"
kvg:type CDATA #IMPLIED >
]><svg style="width: 1100px; height: 100px;" xmlns="http://www.w3.org/2000/svg" xmlns:xlink="http://www.w3.org/1999/xlink" width="1100px" height="100px"><style>
.stroke_order_diagram--outer_container {
  width: 100%;
  overflow-x: auto;
  overflow-y: hidden;
}

.stroke_order_diagram--guide_line {
  fill: none;
  stroke: #ddd;
  stroke-width: 3;
  stroke-linecap: square;
  stroke-linejoin: square;
  stroke-dasharray:8, 8;
}

.stroke_order_diagram--bounding_box {
  fill: none;
  stroke: #ddd;
  stroke-width: 4;
  stroke-linecap: square;
  stroke-linejoin: square;
}

.stroke_order_diagram--current_path {
  fill: none;
  stroke: #000;
  stroke-width: 6;
  stroke-linecap: round;
  stroke-linejoin: round;
}

.stroke_order_diagram--existing_path {
  fill: none;
  stroke: #aaa;
  stroke-width: 6;
  stroke-linecap: round;
  stroke-linejoin:round;
}

.stroke_order_diagram--path_start {
  fill: rgba(255, 0, 0, 0.7);
  stroke:none
}</style><desc>Created with Snap</desc><defs></defs><line x1="1" x2="1099" y1="1" y2="1" class="stroke_order_diagram--bounding_box"></line><line x1="1" x2="1" y1="1" y2="99" class="stroke_order_diagram--bounding_box"></line><line x1="1" x2="1099" y1="99" y2="99" class="stroke_order_diagram--bounding_box"></line><line x1="0" x2="1100" y1="50" y2="50" class="stroke_order_diagram--guide_line"></line><line x1="50" x2="50" y1="1" y2="99" class="stroke_order_diagram--guide_line"></line><line x1="99" x2="99" y1="1" y2="99" class="stroke_order_diagram--bounding_box"></line><path id="kvg:09ce5-s1" kvg:type="㇒" d="M49.72,10.68c0.03,0.27,0.07,0.7-0.06,1.08c-0.76,2.28-5.15,7.3-11.15,10.37" transform="matrix(1,0,0,1,-4,-4)" class="stroke_order_diagram--current_path"></path><path id="pathSk940yk7k6nr" kvg:type="㇒" d="M49.72,10.68c0.03,0.27,0.07,0.7-0.06,1.08c-0.76,2.28-5.15,7.3-11.15,10.37" transform="matrix(1,0,0,1,-4,-4)" class="stroke_order_diagram--current_path"></path><circle cx="49.72" cy="10.68" r="8" class="stroke_order_diagram--path_start" transform="matrix(1,0,0,1,-4,-4)"></circle><line x1="150" x2="150" y1="1" y2="99" class="stroke_order_diagram--guide_line"></line><line x1="199" x2="199" y1="1" y2="99" class="stroke_order_diagram--bounding_box"></line><path id="pathSk940yk7k6nu" kvg:type="㇒" d="M49.72,10.68c0.03,0.27,0.07,0.7-0.06,1.08c-0.76,2.28-5.15,7.3-11.15,10.37" transform="matrix(1,0,0,1,96,-4)" class="stroke_order_diagram--existing_path"></path><path id="kvg:09ce5-s2" kvg:type="㇑" d="M32.88,23.32c0.96,0.8,1.57,2.55,1.57,3.69c0,6.86,0.02,24.01-0.12,35.24c-0.03,2.27-0.06,4.3-0.11,5.95" transform="matrix(1,0,0,1,96,-4)" class="stroke_order_diagram--current_path"></path><path id="pathSk940yk7k6nw" kvg:type="㇑" d="M32.88,23.32c0.96,0.8,1.57,2.55,1.57,3.69c0,6.86,0.02,24.01-0.12,35.24c-0.03,2.27-0.06,4.3-0.11,5.95" transform="matrix(1,0,0,1,96,-4)" class="stroke_order_diagram--current_path"></path><circle cx="32.88" cy="23.32" r="8" class="stroke_order_diagram--path_start" transform="matrix(1,0,0,1,96,-4)"></circle><line x1="250" x2="250" y1="1" y2="99" class="stroke_order_diagram--guide_line"></line><line x1="299" x2="299" y1="1" y2="99" class="stroke_order_diagram--bounding_box"></line><path id="pathSk940yk7k6nz" kvg:type="㇒" d="M49.72,10.68c0.03,0.27,0.07,0.7-0.06,1.08c-0.76,2.28-5.15,7.3-11.15,10.37" transform="matrix(1,0,0,1,196,-4)" class="stroke_order_diagram--existing_path"></path><path id="pathSk940yk7k6o0" kvg:type="㇑" d="M32.88,23.32c0.96,0.8,1.57,2.55,1.57,3.69c0,6.86,0.02,24.01-0.12,35.24c-0.03,2.27-0.06,4.3-0.11,5.95" transform="matrix(1,0,0,1,196,-4)" class="stroke_order_diagram--existing_path"></path><path id="kvg:09ce5-s3" kvg:type="㇕a" d="M35.8,25.86c9.2-1.73,23.7-4.36,29.64-4.87c3.06-0.26,4.32,2.26,4.04,3.99c-0.15,0.92-1.49,7.58-3.2,14.78c-0.26,1.09-0.52,2.18-0.78,3.24" transform="matrix(1,0,0,1,196,-4)" class="stroke_order_diagram--current_path"></path><path id="pathSk940yk7k6o2" kvg:type="㇕a" d="M35.8,25.86c9.2-1.73,23.7-4.36,29.64-4.87c3.06-0.26,4.32,2.26,4.04,3.99c-0.15,0.92-1.49,7.58-3.2,14.78c-0.26,1.09-0.52,2.18-0.78,3.24" transform="matrix(1,0,0,1,196,-4)" class="stroke_order_diagram--current_path"></path><circle cx="35.8" cy="25.86" r="8" class="stroke_order_diagram--path_start" transform="matrix(1,0,0,1,196,-4)"></circle><line x1="350" x2="350" y1="1" y2="99" class="stroke_order_diagram--guide_line"></line><line x1="399" x2="399" y1="1" y2="99" class="stroke_order_diagram--bounding_box"></line><path id="pathSk940yk7k6o5" kvg:type="㇒" d="M49.72,10.68c0.03,0.27,0.07,0.7-0.06,1.08c-0.76,2.28-5.15,7.3-11.15,10.37" transform="matrix(1,0,0,1,296,-4)" class="stroke_order_diagram--existing_path"></path><path id="pathSk940yk7k6o6" kvg:type="㇑" d="M32.88,23.32c0.96,0.8,1.57,2.55,1.57,3.69c0,6.86,0.02,24.01-0.12,35.24c-0.03,2.27-0.06,4.3-0.11,5.95" transform="matrix(1,0,0,1,296,-4)" class="stroke_order_diagram--existing_path"></path><path id="pathSk940yk7k6o7" kvg:type="㇕a" d="M35.8,25.86c9.2-1.73,23.7-4.36,29.64-4.87c3.06-0.26,4.32,2.26,4.04,3.99c-0.15,0.92-1.49,7.58-3.2,14.78c-0.26,1.09-0.52,2.18-0.78,3.24" transform="matrix(1,0,0,1,296,-4)" class="stroke_order_diagram--existing_path"></path><path id="kvg:09ce5-s4" kvg:type="㇐a" d="M35.86,35.44c3.64-0.69,26.27-4.19,30.87-4.38" transform="matrix(1,0,0,1,296,-4)" class="stroke_order_diagram--current_path"></path><path id="pathSk940yk7k6o9" kvg:type="㇐a" d="M35.86,35.44c3.64-0.69,26.27-4.19,30.87-4.38" transform="matrix(1,0,0,1,296,-4)" class="stroke_order_diagram--current_path"></path><circle cx="35.86" cy="35.44" r="8" class="stroke_order_diagram--path_start" transform="matrix(1,0,0,1,296,-4)"></circle><line x1="450" x2="450" y1="1" y2="99" class="stroke_order_diagram--guide_line"></line><line x1="499" x2="499" y1="1" y2="99" class="stroke_order_diagram--bounding_box"></line><path id="pathSk940yk7k6oc" kvg:type="㇒" d="M49.72,10.68c0.03,0.27,0.07,0.7-0.06,1.08c-0.76,2.28-5.15,7.3-11.15,10.37" transform="matrix(1,0,0,1,396,-4)" class="stroke_order_diagram--existing_path"></path><path id="pathSk940yk7k6od" kvg:type="㇑" d="M32.88,23.32c0.96,0.8,1.57,2.55,1.57,3.69c0,6.86,0.02,24.01-0.12,35.24c-0.03,2.27-0.06,4.3-0.11,5.95" transform="matrix(1,0,0,1,396,-4)" class="stroke_order_diagram--existing_path"></path><path id="pathSk940yk7k6oe" kvg:type="㇕a" d="M35.8,25.86c9.2-1.73,23.7-4.36,29.64-4.87c3.06-0.26,4.32,2.26,4.04,3.99c-0.15,0.92-1.49,7.58-3.2,14.78c-0.26,1.09-0.52,2.18-0.78,3.24" transform="matrix(1,0,0,1,396,-4)" class="stroke_order_diagram--existing_path"></path><path id="pathSk940yk7k6of" kvg:type="㇐a" d="M35.86,35.44c3.64-0.69,26.27-4.19,30.87-4.38" transform="matrix(1,0,0,1,396,-4)" class="stroke_order_diagram--existing_path"></path><path id="kvg:09ce5-s5" kvg:type="㇐a" d="M35.49,45.53c7.01-1.03,21.26-3.53,29.23-4.2" transform="matrix(1,0,0,1,396,-4)" class="stroke_order_diagram--current_path"></path><path id="pathSk940yk7k6oh" kvg:type="㇐a" d="M35.49,45.53c7.01-1.03,21.26-3.53,29.23-4.2" transform="matrix(1,0,0,1,396,-4)" class="stroke_order_diagram--current_path"></path><circle cx="35.49" cy="45.53" r="8" class="stroke_order_diagram--path_start" transform="matrix(1,0,0,1,396,-4)"></circle><line x1="550" x2="550" y1="1" y2="99" class="stroke_order_diagram--guide_line"></line><line x1="599" x2="599" y1="1" y2="99" class="stroke_order_diagram--bounding_box"></line><path id="pathSk940yk7k6ok" kvg:type="㇒" d="M49.72,10.68c0.03,0.27,0.07,0.7-0.06,1.08c-0.76,2.28-5.15,7.3-11.15,10.37" transform="matrix(1,0,0,1,496,-4)" class="stroke_order_diagram--existing_path"></path><path id="pathSk940yk7k6ol" kvg:type="㇑" d="M32.88,23.32c0.96,0.8,1.57,2.55,1.57,3.69c0,6.86,0.02,24.01-0.12,35.24c-0.03,2.27-0.06,4.3-0.11,5.95" transform="matrix(1,0,0,1,496,-4)" class="stroke_order_diagram--existing_path"></path><path id="pathSk940yk7k6om" kvg:type="㇕a" d="M35.8,25.86c9.2-1.73,23.7-4.36,29.64-4.87c3.06-0.26,4.32,2.26,4.04,3.99c-0.15,0.92-1.49,7.58-3.2,14.78c-0.26,1.09-0.52,2.18-0.78,3.24" transform="matrix(1,0,0,1,496,-4)" class="stroke_order_diagram--existing_path"></path><path id="pathSk940yk7k6on" kvg:type="㇐a" d="M35.86,35.44c3.64-0.69,26.27-4.19,30.87-4.38" transform="matrix(1,0,0,1,496,-4)" class="stroke_order_diagram--existing_path"></path><path id="pathSk940yk7k6oo" kvg:type="㇐a" d="M35.49,45.53c7.01-1.03,21.26-3.53,29.23-4.2" transform="matrix(1,0,0,1,496,-4)" class="stroke_order_diagram--existing_path"></path><path id="kvg:09ce5-s6" kvg:type="㇐b" d="M35.78,56.05c11.22-1.3,37.15-4.84,41.97-5.55c1.68-0.25,4.53-0.28,5.38-0.1" transform="matrix(1,0,0,1,496,-4)" class="stroke_order_diagram--current_path"></path><path id="pathSk940yk7k6oq" kvg:type="㇐b" d="M35.78,56.05c11.22-1.3,37.15-4.84,41.97-5.55c1.68-0.25,4.53-0.28,5.38-0.1" transform="matrix(1,0,0,1,496,-4)" class="stroke_order_diagram--current_path"></path><circle cx="35.78" cy="56.05" r="8" class="stroke_order_diagram--path_start" transform="matrix(1,0,0,1,496,-4)"></circle><line x1="650" x2="650" y1="1" y2="99" class="stroke_order_diagram--guide_line"></line><line x1="699" x2="699" y1="1" y2="99" class="stroke_order_diagram--bounding_box"></line><path id="pathSk940yk7k6ot" kvg:type="㇒" d="M49.72,10.68c0.03,0.27,0.07,0.7-0.06,1.08c-0.76,2.28-5.15,7.3-11.15,10.37" transform="matrix(1,0,0,1,596,-4)" class="stroke_order_diagram--existing_path"></path><path id="pathSk940yk7k6ou" kvg:type="㇑" d="M32.88,23.32c0.96,0.8,1.57,2.55,1.57,3.69c0,6.86,0.02,24.01-0.12,35.24c-0.03,2.27-0.06,4.3-0.11,5.95" transform="matrix(1,0,0,1,596,-4)" class="stroke_order_diagram--existing_path"></path><path id="pathSk940yk7k6ov" kvg:type="㇕a" d="M35.8,25.86c9.2-1.73,23.7-4.36,29.64-4.87c3.06-0.26,4.32,2.26,4.04,3.99c-0.15,0.92-1.49,7.58-3.2,14.78c-0.26,1.09-0.52,2.18-0.78,3.24" transform="matrix(1,0,0,1,596,-4)" class="stroke_order_diagram--existing_path"></path><path id="pathSk940yk7k6ow" kvg:type="㇐a" d="M35.86,35.44c3.64-0.69,26.27-4.19,30.87-4.38" transform="matrix(1,0,0,1,596,-4)" class="stroke_order_diagram--existing_path"></path><path id="pathSk940yk7k6ox" kvg:type="㇐a" d="M35.49,45.53c7.01-1.03,21.26-3.53,29.23-4.2" transform="matrix(1,0,0,1,596,-4)" class="stroke_order_diagram--existing_path"></path><path id="pathSk940yk7k6oy" kvg:type="㇐b" d="M35.78,56.05c11.22-1.3,37.15-4.84,41.97-5.55c1.68-0.25,4.53-0.28,5.38-0.1" transform="matrix(1,0,0,1,596,-4)" class="stroke_order_diagram--existing_path"></path><path id="kvg:09ce5-s7" kvg:type="㇆a" d="M34.75,68.27c15.75-2.64,42-5.64,49.75-6.27c4.51-0.36,6.81,2.33,6,5.75c-2.25,9.5-5.82,18.96-9.5,25C77.5,98.5,74.75,96,71,93" transform="matrix(1,0,0,1,596,-4)" class="stroke_order_diagram--current_path"></path><path id="pathSk940yk7k6p0" kvg:type="㇆a" d="M34.75,68.27c15.75-2.64,42-5.64,49.75-6.27c4.51-0.36,6.81,2.33,6,5.75c-2.25,9.5-5.82,18.96-9.5,25C77.5,98.5,74.75,96,71,93" transform="matrix(1,0,0,1,596,-4)" class="stroke_order_diagram--current_path"></path><circle cx="34.75" cy="68.27" r="8" class="stroke_order_diagram--path_start" transform="matrix(1,0,0,1,596,-4)"></circle><line x1="750" x2="750" y1="1" y2="99" class="stroke_order_diagram--guide_line"></line><line x1="799" x2="799" y1="1" y2="99" class="stroke_order_diagram--bounding_box"></line><path id="pathSk940yk7k6p3" kvg:type="㇒" d="M49.72,10.68c0.03,0.27,0.07,0.7-0.06,1.08c-0.76,2.28-5.15,7.3-11.15,10.37" transform="matrix(1,0,0,1,696,-4)" class="stroke_order_diagram--existing_path"></path><path id="pathSk940yk7k6p4" kvg:type="㇑" d="M32.88,23.32c0.96,0.8,1.57,2.55,1.57,3.69c0,6.86,0.02,24.01-0.12,35.24c-0.03,2.27-0.06,4.3-0.11,5.95" transform="matrix(1,0,0,1,696,-4)" class="stroke_order_diagram--existing_path"></path><path id="pathSk940yk7k6p5" kvg:type="㇕a" d="M35.8,25.86c9.2-1.73,23.7-4.36,29.64-4.87c3.06-0.26,4.32,2.26,4.04,3.99c-0.15,0.92-1.49,7.58-3.2,14.78c-0.26,1.09-0.52,2.18-0.78,3.24" transform="matrix(1,0,0,1,696,-4)" class="stroke_order_diagram--existing_path"></path><path id="pathSk940yk7k6p6" kvg:type="㇐a" d="M35.86,35.44c3.64-0.69,26.27-4.19,30.87-4.38" transform="matrix(1,0,0,1,696,-4)" class="stroke_order_diagram--existing_path"></path><path id="pathSk940yk7k6p7" kvg:type="㇐a" d="M35.49,45.53c7.01-1.03,21.26-3.53,29.23-4.2" transform="matrix(1,0,0,1,696,-4)" class="stroke_order_diagram--existing_path"></path><path id="pathSk940yk7k6p8" kvg:type="㇐b" d="M35.78,56.05c11.22-1.3,37.15-4.84,41.97-5.55c1.68-0.25,4.53-0.28,5.38-0.1" transform="matrix(1,0,0,1,696,-4)" class="stroke_order_diagram--existing_path"></path><path id="pathSk940yk7k6p9" kvg:type="㇆a" d="M34.75,68.27c15.75-2.64,42-5.64,49.75-6.27c4.51-0.36,6.81,2.33,6,5.75c-2.25,9.5-5.82,18.96-9.5,25C77.5,98.5,74.75,96,71,93" transform="matrix(1,0,0,1,696,-4)" class="stroke_order_diagram--existing_path"></path><path id="kvg:09ce5-s8" kvg:type="㇔" d="M20.81,80.25c0.44,6-0.31,13.25-1.6,17" transform="matrix(1,0,0,1,696,-4)" class="stroke_order_diagram--current_path"></path><path id="pathSk940yk7k6pb" kvg:type="㇔" d="M20.81,80.25c0.44,6-0.31,13.25-1.6,17" transform="matrix(1,0,0,1,696,-4)" class="stroke_order_diagram--current_path"></path><circle cx="20.81" cy="80.25" r="8" class="stroke_order_diagram--path_start" transform="matrix(1,0,0,1,696,-4)"></circle><line x1="850" x2="850" y1="1" y2="99" class="stroke_order_diagram--guide_line"></line><line x1="899" x2="899" y1="1" y2="99" class="stroke_order_diagram--bounding_box"></line><path id="pathSk940yk7k6pe" kvg:type="㇒" d="M49.72,10.68c0.03,0.27,0.07,0.7-0.06,1.08c-0.76,2.28-5.15,7.3-11.15,10.37" transform="matrix(1,0,0,1,796,-4)" class="stroke_order_diagram--existing_path"></path><path id="pathSk940yk7k6pf" kvg:type="㇑" d="M32.88,23.32c0.96,0.8,1.57,2.55,1.57,3.69c0,6.86,0.02,24.01-0.12,35.24c-0.03,2.27-0.06,4.3-0.11,5.95" transform="matrix(1,0,0,1,796,-4)" class="stroke_order_diagram--existing_path"></path><path id="pathSk940yk7k6pg" kvg:type="㇕a" d="M35.8,25.86c9.2-1.73,23.7-4.36,29.64-4.87c3.06-0.26,4.32,2.26,4.04,3.99c-0.15,0.92-1.49,7.58-3.2,14.78c-0.26,1.09-0.52,2.18-0.78,3.24" transform="matrix(1,0,0,1,796,-4)" class="stroke_order_diagram--existing_path"></path><path id="pathSk940yk7k6ph" kvg:type="㇐a" d="M35.86,35.44c3.64-0.69,26.27-4.19,30.87-4.38" transform="matrix(1,0,0,1,796,-4)" class="stroke_order_diagram--existing_path"></path><path id="pathSk940yk7k6pi" kvg:type="㇐a" d="M35.49,45.53c7.01-1.03,21.26-3.53,29.23-4.2" transform="matrix(1,0,0,1,796,-4)" class="stroke_order_diagram--existing_path"></path><path id="pathSk940yk7k6pj" kvg:type="㇐b" d="M35.78,56.05c11.22-1.3,37.15-4.84,41.97-5.55c1.68-0.25,4.53-0.28,5.38-0.1" transform="matrix(1,0,0,1,796,-4)" class="stroke_order_diagram--existing_path"></path><path id="pathSk940yk7k6pk" kvg:type="㇆a" d="M34.75,68.27c15.75-2.64,42-5.64,49.75-6.27c4.51-0.36,6.81,2.33,6,5.75c-2.25,9.5-5.82,18.96-9.5,25C77.5,98.5,74.75,96,71,93" transform="matrix(1,0,0,1,796,-4)" class="stroke_order_diagram--existing_path"></path><path id="pathSk940yk7k6pl" kvg:type="㇔" d="M20.81,80.25c0.44,6-0.31,13.25-1.6,17" transform="matrix(1,0,0,1,796,-4)" class="stroke_order_diagram--existing_path"></path><path id="kvg:09ce5-s9" kvg:type="㇔" d="M34.38,78.38c2.97,1.96,5.79,7.37,6.54,10.43" transform="matrix(1,0,0,1,796,-4)" class="stroke_order_diagram--current_path"></path><path id="pathSk940yk7k6pn" kvg:type="㇔" d="M34.38,78.38c2.97,1.96,5.79,7.37,6.54,10.43" transform="matrix(1,0,0,1,796,-4)" class="stroke_order_diagram--current_path"></path><circle cx="34.38" cy="78.38" r="8" class="stroke_order_diagram--path_start" transform="matrix(1,0,0,1,796,-4)"></circle><line x1="950" x2="950" y1="1" y2="99" class="stroke_order_diagram--guide_line"></line><line x1="999" x2="999" y1="1" y2="99" class="stroke_order_diagram--bounding_box"></line><path id="pathSk940yk7k6pq" kvg:type="㇒" d="M49.72,10.68c0.03,0.27,0.07,0.7-0.06,1.08c-0.76,2.28-5.15,7.3-11.15,10.37" transform="matrix(1,0,0,1,896,-4)" class="stroke_order_diagram--existing_path"></path><path id="pathSk940yk7k6pr" kvg:type="㇑" d="M32.88,23.32c0.96,0.8,1.57,2.55,1.57,3.69c0,6.86,0.02,24.01-0.12,35.24c-0.03,2.27-0.06,4.3-0.11,5.95" transform="matrix(1,0,0,1,896,-4)" class="stroke_order_diagram--existing_path"></path><path id="pathSk940yk7k6ps" kvg:type="㇕a" d="M35.8,25.86c9.2-1.73,23.7-4.36,29.64-4.87c3.06-0.26,4.32,2.26,4.04,3.99c-0.15,0.92-1.49,7.58-3.2,14.78c-0.26,1.09-0.52,2.18-0.78,3.24" transform="matrix(1,0,0,1,896,-4)" class="stroke_order_diagram--existing_path"></path><path id="pathSk940yk7k6pt" kvg:type="㇐a" d="M35.86,35.44c3.64-0.69,26.27-4.19,30.87-4.38" transform="matrix(1,0,0,1,896,-4)" class="stroke_order_diagram--existing_path"></path><path id="pathSk940yk7k6pu" kvg:type="㇐a" d="M35.49,45.53c7.01-1.03,21.26-3.53,29.23-4.2" transform="matrix(1,0,0,1,896,-4)" class="stroke_order_diagram--existing_path"></path><path id="pathSk940yk7k6pv" kvg:type="㇐b" d="M35.78,56.05c11.22-1.3,37.15-4.84,41.97-5.55c1.68-0.25,4.53-0.28,5.38-0.1" transform="matrix(1,0,0,1,896,-4)" class="stroke_order_diagram--existing_path"></path><path id="pathSk940yk7k6pw" kvg:type="㇆a" d="M34.75,68.27c15.75-2.64,42-5.64,49.75-6.27c4.51-0.36,6.81,2.33,6,5.75c-2.25,9.5-5.82,18.96-9.5,25C77.5,98.5,74.75,96,71,93" transform="matrix(1,0,0,1,896,-4)" class="stroke_order_diagram--existing_path"></path><path id="pathSk940yk7k6px" kvg:type="㇔" d="M20.81,80.25c0.44,6-0.31,13.25-1.6,17" transform="matrix(1,0,0,1,896,-4)" class="stroke_order_diagram--existing_path"></path><path id="pathSk940yk7k6py" kvg:type="㇔" d="M34.38,78.38c2.97,1.96,5.79,7.37,6.54,10.43" transform="matrix(1,0,0,1,896,-4)" class="stroke_order_diagram--existing_path"></path><path id="kvg:09ce5-s10" kvg:type="㇔" d="M48.88,75.12c2.34,1.57,6.04,6.44,6.62,8.88" transform="matrix(1,0,0,1,896,-4)" class="stroke_order_diagram--current_path"></path><path id="pathSk940yk7k6q0" kvg:type="㇔" d="M48.88,75.12c2.34,1.57,6.04,6.44,6.62,8.88" transform="matrix(1,0,0,1,896,-4)" class="stroke_order_diagram--current_path"></path><circle cx="48.88" cy="75.12" r="8" class="stroke_order_diagram--path_start" transform="matrix(1,0,0,1,896,-4)"></circle><line x1="1050" x2="1050" y1="1" y2="99" class="stroke_order_diagram--guide_line"></line><line x1="1099" x2="1099" y1="1" y2="99" class="stroke_order_diagram--bounding_box"></line><path id="pathSk940yk7k6q3" kvg:type="㇒" d="M49.72,10.68c0.03,0.27,0.07,0.7-0.06,1.08c-0.76,2.28-5.15,7.3-11.15,10.37" transform="matrix(1,0,0,1,996,-4)" class="stroke_order_diagram--existing_path"></path><path id="pathSk940yk7k6q4" kvg:type="㇑" d="M32.88,23.32c0.96,0.8,1.57,2.55,1.57,3.69c0,6.86,0.02,24.01-0.12,35.24c-0.03,2.27-0.06,4.3-0.11,5.95" transform="matrix(1,0,0,1,996,-4)" class="stroke_order_diagram--existing_path"></path><path id="pathSk940yk7k6q5" kvg:type="㇕a" d="M35.8,25.86c9.2-1.73,23.7-4.36,29.64-4.87c3.06-0.26,4.32,2.26,4.04,3.99c-0.15,0.92-1.49,7.58-3.2,14.78c-0.26,1.09-0.52,2.18-0.78,3.24" transform="matrix(1,0,0,1,996,-4)" class="stroke_order_diagram--existing_path"></path><path id="pathSk940yk7k6q6" kvg:type="㇐a" d="M35.86,35.44c3.64-0.69,26.27-4.19,30.87-4.38" transform="matrix(1,0,0,1,996,-4)" class="stroke_order_diagram--existing_path"></path><path id="pathSk940yk7k6q7" kvg:type="㇐a" d="M35.49,45.53c7.01-1.03,21.26-3.53,29.23-4.2" transform="matrix(1,0,0,1,996,-4)" class="stroke_order_diagram--existing_path"></path><path id="pathSk940yk7k6q8" kvg:type="㇐b" d="M35.78,56.05c11.22-1.3,37.15-4.84,41.97-5.55c1.68-0.25,4.53-0.28,5.38-0.1" transform="matrix(1,0,0,1,996,-4)" class="stroke_order_diagram--existing_path"></path><path id="pathSk940yk7k6q9" kvg:type="㇆a" d="M34.75,68.27c15.75-2.64,42-5.64,49.75-6.27c4.51-0.36,6.81,2.33,6,5.75c-2.25,9.5-5.82,18.96-9.5,25C77.5,98.5,74.75,96,71,93" transform="matrix(1,0,0,1,996,-4)" class="stroke_order_diagram--existing_path"></path><path id="pathSk940yk7k6qa" kvg:type="㇔" d="M20.81,80.25c0.44,6-0.31,13.25-1.6,17" transform="matrix(1,0,0,1,996,-4)" class="stroke_order_diagram--existing_path"></path><path id="pathSk940yk7k6qb" kvg:type="㇔" d="M34.38,78.38c2.97,1.96,5.79,7.37,6.54,10.43" transform="matrix(1,0,0,1,996,-4)" class="stroke_order_diagram--existing_path"></path><path id="pathSk940yk7k6qc" kvg:type="㇔" d="M48.88,75.12c2.34,1.57,6.04,6.44,6.62,8.88" transform="matrix(1,0,0,1,996,-4)" class="stroke_order_diagram--existing_path"></path><path id="kvg:09ce5-s11" kvg:type="㇔" d="M62.88,72c2.69,1.68,6.95,6.89,7.62,9.5" transform="matrix(1,0,0,1,996,-4)" class="stroke_order_diagram--current_path"></path><path id="pathSk940yk7k6qe" kvg:type="㇔" d="M62.88,72c2.69,1.68,6.95,6.89,7.62,9.5" transform="matrix(1,0,0,1,996,-4)" class="stroke_order_diagram--current_path"></path><circle cx="62.88" cy="72" r="8" class="stroke_order_diagram--path_start" transform="matrix(1,0,0,1,996,-4)"></circle></svg>