<?xml version="1.0" encoding="UTF-8"?>
<!DOCTYPE svg PUBLIC "-//W3C//DTD SVG 1.0//EN" "http://www.w3.org/TR/2001/REC-SVG-20010904/DTD/svg10.dtd" [
<!ATTLIST g
xmlns:kvg CDATA #FIXED "http://kanjivg.tagaini.net"
kvg:element CDATA #IMPLIED
kvg:variant CDATA #IMPLIED
kvg:partial CDATA #IMPLIED
kvg:original CDATA #IMPLIED
kvg:part CDATA #IMPLIED
kvg:number CDATA #IMPLIED
kvg:tradForm CDATA #IMPLIED
kvg:radicalForm CDATA #IMPLIED
kvg:position CDATA #IMPLIED
kvg:radical CDATA #IMPLIED
kvg:phon CDATA #IMPLIED >
<!ATTLIST path
xmlns:kvg CDATA #FIXED "http://kanjivg.tagaini.net"
kvg:type CDATA #IMPLIED >
]><svg style="width: 1100px; height: 100px;" xmlns="http://www.w3.org/2000/svg" xmlns:xlink="http://www.w3.org/1999/xlink"><style>
.stroke_order_diagram--outer_container {
  width: 100%;
  overflow-x: auto;
  overflow-y: hidden;
}

.stroke_order_diagram--guide_line {
  fill: none;
  stroke: #ddd;
  stroke-width: 3;
  stroke-linecap: square;
  stroke-linejoin: square;
  stroke-dasharray:8, 8;
}

.stroke_order_diagram--bounding_box {
  fill: none;
  stroke: #ddd;
  stroke-width: 4;
  stroke-linecap: square;
  stroke-linejoin: square;
}

.stroke_order_diagram--current_path {
  fill: none;
  stroke: #000;
  stroke-width: 6;
  stroke-linecap: round;
  stroke-linejoin: round;
}

.stroke_order_diagram--existing_path {
  fill: none;
  stroke: #aaa;
  stroke-width: 6;
  stroke-linecap: round;
  stroke-linejoin:round;
}

.stroke_order_diagram--path_start {
  fill: rgba(255, 0, 0, 0.7);
  stroke:none
}</style><desc>Created with Snap</desc><defs></defs><line x1="1" x2="1099" y1="1" y2="1" class="stroke_order_diagram--bounding_box"></line><line x1="1" x2="1" y1="1" y2="99" class="stroke_order_diagram--bounding_box"></line><line x1="1" x2="1099" y1="99" y2="99" class="stroke_order_diagram--bounding_box"></line><line x1="0" x2="1100" y1="50" y2="50" class="stroke_order_diagram--guide_line"></line><line x1="50" x2="50" y1="1" y2="99" class="stroke_order_diagram--guide_line"></line><line x1="99" x2="99" y1="1" y2="99" class="stroke_order_diagram--bounding_box"></line><path id="kvg:09e75-s1" kvg:type="㇑" d="M51.45,9.38c0.67,0.43,2.1,3.24,2.24,4.1c0.14,0.87,0.41,16.74,0.28,22.15" transform="matrix(1,0,0,1,-4,-4)" class="stroke_order_diagram--current_path"></path><path id="pathSk93xdzq06qz" kvg:type="㇑" d="M51.45,9.38c0.67,0.43,2.1,3.24,2.24,4.1c0.14,0.87,0.41,16.74,0.28,22.15" transform="matrix(1,0,0,1,-4,-4)" class="stroke_order_diagram--current_path"></path><circle cx="51.45" cy="9.38" r="8" class="stroke_order_diagram--path_start" transform="matrix(1,0,0,1,-4,-4)"></circle><line x1="150" x2="150" y1="1" y2="99" class="stroke_order_diagram--guide_line"></line><line x1="199" x2="199" y1="1" y2="99" class="stroke_order_diagram--bounding_box"></line><path id="pathSk93xdzq06r2" kvg:type="㇑" d="M51.45,9.38c0.67,0.43,2.1,3.24,2.24,4.1c0.14,0.87,0.41,16.74,0.28,22.15" transform="matrix(1,0,0,1,96,-4)" class="stroke_order_diagram--existing_path"></path><path id="kvg:09e75-s2" kvg:type="㇔" d="M54.25,23.75c3.68-0.25,27.5-3.5,31.4-4c1.99-0.26,4.71,0,6.35,0.25" transform="matrix(1,0,0,1,96,-4)" class="stroke_order_diagram--current_path"></path><path id="pathSk93xdzq06r4" kvg:type="㇔" d="M54.25,23.75c3.68-0.25,27.5-3.5,31.4-4c1.99-0.26,4.71,0,6.35,0.25" transform="matrix(1,0,0,1,96,-4)" class="stroke_order_diagram--current_path"></path><circle cx="54.25" cy="23.75" r="8" class="stroke_order_diagram--path_start" transform="matrix(1,0,0,1,96,-4)"></circle><line x1="250" x2="250" y1="1" y2="99" class="stroke_order_diagram--guide_line"></line><line x1="299" x2="299" y1="1" y2="99" class="stroke_order_diagram--bounding_box"></line><path id="pathSk93xdzq06r7" kvg:type="㇑" d="M51.45,9.38c0.67,0.43,2.1,3.24,2.24,4.1c0.14,0.87,0.41,16.74,0.28,22.15" transform="matrix(1,0,0,1,196,-4)" class="stroke_order_diagram--existing_path"></path><path id="pathSk93xdzq06r8" kvg:type="㇔" d="M54.25,23.75c3.68-0.25,27.5-3.5,31.4-4c1.99-0.26,4.71,0,6.35,0.25" transform="matrix(1,0,0,1,196,-4)" class="stroke_order_diagram--existing_path"></path><path id="kvg:09e75-s3" kvg:type="㇑" d="M22.95,35.99c0.68,1.3,1.67,2.28,1.69,4.01c0.13,12.99,0.13,33.2-0.28,58" transform="matrix(1,0,0,1,196,-4)" class="stroke_order_diagram--current_path"></path><path id="pathSk93xdzq06ra" kvg:type="㇑" d="M22.95,35.99c0.68,1.3,1.67,2.28,1.69,4.01c0.13,12.99,0.13,33.2-0.28,58" transform="matrix(1,0,0,1,196,-4)" class="stroke_order_diagram--current_path"></path><circle cx="22.95" cy="35.99" r="8" class="stroke_order_diagram--path_start" transform="matrix(1,0,0,1,196,-4)"></circle><line x1="350" x2="350" y1="1" y2="99" class="stroke_order_diagram--guide_line"></line><line x1="399" x2="399" y1="1" y2="99" class="stroke_order_diagram--bounding_box"></line><path id="pathSk93xdzq06rd" kvg:type="㇑" d="M51.45,9.38c0.67,0.43,2.1,3.24,2.24,4.1c0.14,0.87,0.41,16.74,0.28,22.15" transform="matrix(1,0,0,1,296,-4)" class="stroke_order_diagram--existing_path"></path><path id="pathSk93xdzq06re" kvg:type="㇔" d="M54.25,23.75c3.68-0.25,27.5-3.5,31.4-4c1.99-0.26,4.71,0,6.35,0.25" transform="matrix(1,0,0,1,296,-4)" class="stroke_order_diagram--existing_path"></path><path id="pathSk93xdzq06rf" kvg:type="㇑" d="M22.95,35.99c0.68,1.3,1.67,2.28,1.69,4.01c0.13,12.99,0.13,33.2-0.28,58" transform="matrix(1,0,0,1,296,-4)" class="stroke_order_diagram--existing_path"></path><path id="kvg:09e75-s4" kvg:type="㇕a" d="M26.11,38.11c18.64-1.36,53.89-4.36,56.76-4.36c3.13,0,4.23,2.27,4.18,5c-0.23,14.33-0.91,36.72-0.46,56.97" transform="matrix(1,0,0,1,296,-4)" class="stroke_order_diagram--current_path"></path><path id="pathSk93xdzq06rh" kvg:type="㇕a" d="M26.11,38.11c18.64-1.36,53.89-4.36,56.76-4.36c3.13,0,4.23,2.27,4.18,5c-0.23,14.33-0.91,36.72-0.46,56.97" transform="matrix(1,0,0,1,296,-4)" class="stroke_order_diagram--current_path"></path><circle cx="26.11" cy="38.11" r="8" class="stroke_order_diagram--path_start" transform="matrix(1,0,0,1,296,-4)"></circle><line x1="450" x2="450" y1="1" y2="99" class="stroke_order_diagram--guide_line"></line><line x1="499" x2="499" y1="1" y2="99" class="stroke_order_diagram--bounding_box"></line><path id="pathSk93xdzq06rk" kvg:type="㇑" d="M51.45,9.38c0.67,0.43,2.1,3.24,2.24,4.1c0.14,0.87,0.41,16.74,0.28,22.15" transform="matrix(1,0,0,1,396,-4)" class="stroke_order_diagram--existing_path"></path><path id="pathSk93xdzq06rl" kvg:type="㇔" d="M54.25,23.75c3.68-0.25,27.5-3.5,31.4-4c1.99-0.26,4.71,0,6.35,0.25" transform="matrix(1,0,0,1,396,-4)" class="stroke_order_diagram--existing_path"></path><path id="pathSk93xdzq06rm" kvg:type="㇑" d="M22.95,35.99c0.68,1.3,1.67,2.28,1.69,4.01c0.13,12.99,0.13,33.2-0.28,58" transform="matrix(1,0,0,1,396,-4)" class="stroke_order_diagram--existing_path"></path><path id="pathSk93xdzq06rn" kvg:type="㇕a" d="M26.11,38.11c18.64-1.36,53.89-4.36,56.76-4.36c3.13,0,4.23,2.27,4.18,5c-0.23,14.33-0.91,36.72-0.46,56.97" transform="matrix(1,0,0,1,396,-4)" class="stroke_order_diagram--existing_path"></path><path id="kvg:09e75-s5" kvg:type="㇒" d="M69.94,39.34c0.63,1.2,1.01,2.79-0.19,4.75C58,63.25,47.5,76.25,30.97,88.23" transform="matrix(1,0,0,1,396,-4)" class="stroke_order_diagram--current_path"></path><path id="pathSk93xdzq06rp" kvg:type="㇒" d="M69.94,39.34c0.63,1.2,1.01,2.79-0.19,4.75C58,63.25,47.5,76.25,30.97,88.23" transform="matrix(1,0,0,1,396,-4)" class="stroke_order_diagram--current_path"></path><circle cx="69.94" cy="39.34" r="8" class="stroke_order_diagram--path_start" transform="matrix(1,0,0,1,396,-4)"></circle><line x1="550" x2="550" y1="1" y2="99" class="stroke_order_diagram--guide_line"></line><line x1="599" x2="599" y1="1" y2="99" class="stroke_order_diagram--bounding_box"></line><path id="pathSk93xdzq06rs" kvg:type="㇑" d="M51.45,9.38c0.67,0.43,2.1,3.24,2.24,4.1c0.14,0.87,0.41,16.74,0.28,22.15" transform="matrix(1,0,0,1,496,-4)" class="stroke_order_diagram--existing_path"></path><path id="pathSk93xdzq06rt" kvg:type="㇔" d="M54.25,23.75c3.68-0.25,27.5-3.5,31.4-4c1.99-0.26,4.71,0,6.35,0.25" transform="matrix(1,0,0,1,496,-4)" class="stroke_order_diagram--existing_path"></path><path id="pathSk93xdzq06ru" kvg:type="㇑" d="M22.95,35.99c0.68,1.3,1.67,2.28,1.69,4.01c0.13,12.99,0.13,33.2-0.28,58" transform="matrix(1,0,0,1,496,-4)" class="stroke_order_diagram--existing_path"></path><path id="pathSk93xdzq06rv" kvg:type="㇕a" d="M26.11,38.11c18.64-1.36,53.89-4.36,56.76-4.36c3.13,0,4.23,2.27,4.18,5c-0.23,14.33-0.91,36.72-0.46,56.97" transform="matrix(1,0,0,1,496,-4)" class="stroke_order_diagram--existing_path"></path><path id="pathSk93xdzq06rw" kvg:type="㇒" d="M69.94,39.34c0.63,1.2,1.01,2.79-0.19,4.75C58,63.25,47.5,76.25,30.97,88.23" transform="matrix(1,0,0,1,496,-4)" class="stroke_order_diagram--existing_path"></path><path id="kvg:09e75-s6" kvg:type="㇏" d="M35.73,49.13c15.22,7.92,31.96,22.97,40.01,34.92" transform="matrix(1,0,0,1,496,-4)" class="stroke_order_diagram--current_path"></path><path id="pathSk93xdzq06ry" kvg:type="㇏" d="M35.73,49.13c15.22,7.92,31.96,22.97,40.01,34.92" transform="matrix(1,0,0,1,496,-4)" class="stroke_order_diagram--current_path"></path><circle cx="35.73" cy="49.13" r="8" class="stroke_order_diagram--path_start" transform="matrix(1,0,0,1,496,-4)"></circle><line x1="650" x2="650" y1="1" y2="99" class="stroke_order_diagram--guide_line"></line><line x1="699" x2="699" y1="1" y2="99" class="stroke_order_diagram--bounding_box"></line><path id="pathSk93xdzq06s1" kvg:type="㇑" d="M51.45,9.38c0.67,0.43,2.1,3.24,2.24,4.1c0.14,0.87,0.41,16.74,0.28,22.15" transform="matrix(1,0,0,1,596,-4)" class="stroke_order_diagram--existing_path"></path><path id="pathSk93xdzq06s2" kvg:type="㇔" d="M54.25,23.75c3.68-0.25,27.5-3.5,31.4-4c1.99-0.26,4.71,0,6.35,0.25" transform="matrix(1,0,0,1,596,-4)" class="stroke_order_diagram--existing_path"></path><path id="pathSk93xdzq06s3" kvg:type="㇑" d="M22.95,35.99c0.68,1.3,1.67,2.28,1.69,4.01c0.13,12.99,0.13,33.2-0.28,58" transform="matrix(1,0,0,1,596,-4)" class="stroke_order_diagram--existing_path"></path><path id="pathSk93xdzq06s4" kvg:type="㇕a" d="M26.11,38.11c18.64-1.36,53.89-4.36,56.76-4.36c3.13,0,4.23,2.27,4.18,5c-0.23,14.33-0.91,36.72-0.46,56.97" transform="matrix(1,0,0,1,596,-4)" class="stroke_order_diagram--existing_path"></path><path id="pathSk93xdzq06s5" kvg:type="㇒" d="M69.94,39.34c0.63,1.2,1.01,2.79-0.19,4.75C58,63.25,47.5,76.25,30.97,88.23" transform="matrix(1,0,0,1,596,-4)" class="stroke_order_diagram--existing_path"></path><path id="pathSk93xdzq06s6" kvg:type="㇏" d="M35.73,49.13c15.22,7.92,31.96,22.97,40.01,34.92" transform="matrix(1,0,0,1,596,-4)" class="stroke_order_diagram--existing_path"></path><path id="kvg:09e75-s7" kvg:type="㇔" d="M48.98,42.63c3.43,2.19,7.2,6.36,9.01,9.67" transform="matrix(1,0,0,1,596,-4)" class="stroke_order_diagram--current_path"></path><path id="pathSk93xdzq06s8" kvg:type="㇔" d="M48.98,42.63c3.43,2.19,7.2,6.36,9.01,9.67" transform="matrix(1,0,0,1,596,-4)" class="stroke_order_diagram--current_path"></path><circle cx="48.98" cy="42.63" r="8" class="stroke_order_diagram--path_start" transform="matrix(1,0,0,1,596,-4)"></circle><line x1="750" x2="750" y1="1" y2="99" class="stroke_order_diagram--guide_line"></line><line x1="799" x2="799" y1="1" y2="99" class="stroke_order_diagram--bounding_box"></line><path id="pathSk93xdzq06sb" kvg:type="㇑" d="M51.45,9.38c0.67,0.43,2.1,3.24,2.24,4.1c0.14,0.87,0.41,16.74,0.28,22.15" transform="matrix(1,0,0,1,696,-4)" class="stroke_order_diagram--existing_path"></path><path id="pathSk93xdzq06sc" kvg:type="㇔" d="M54.25,23.75c3.68-0.25,27.5-3.5,31.4-4c1.99-0.26,4.71,0,6.35,0.25" transform="matrix(1,0,0,1,696,-4)" class="stroke_order_diagram--existing_path"></path><path id="pathSk93xdzq06sd" kvg:type="㇑" d="M22.95,35.99c0.68,1.3,1.67,2.28,1.69,4.01c0.13,12.99,0.13,33.2-0.28,58" transform="matrix(1,0,0,1,696,-4)" class="stroke_order_diagram--existing_path"></path><path id="pathSk93xdzq06se" kvg:type="㇕a" d="M26.11,38.11c18.64-1.36,53.89-4.36,56.76-4.36c3.13,0,4.23,2.27,4.18,5c-0.23,14.33-0.91,36.72-0.46,56.97" transform="matrix(1,0,0,1,696,-4)" class="stroke_order_diagram--existing_path"></path><path id="pathSk93xdzq06sf" kvg:type="㇒" d="M69.94,39.34c0.63,1.2,1.01,2.79-0.19,4.75C58,63.25,47.5,76.25,30.97,88.23" transform="matrix(1,0,0,1,696,-4)" class="stroke_order_diagram--existing_path"></path><path id="pathSk93xdzq06sg" kvg:type="㇏" d="M35.73,49.13c15.22,7.92,31.96,22.97,40.01,34.92" transform="matrix(1,0,0,1,696,-4)" class="stroke_order_diagram--existing_path"></path><path id="pathSk93xdzq06sh" kvg:type="㇔" d="M48.98,42.63c3.43,2.19,7.2,6.36,9.01,9.67" transform="matrix(1,0,0,1,696,-4)" class="stroke_order_diagram--existing_path"></path><path id="kvg:09e75-s8" kvg:type="㇔" d="M31.48,59.88c3.43,2.36,7.2,6.86,9.01,10.42" transform="matrix(1,0,0,1,696,-4)" class="stroke_order_diagram--current_path"></path><path id="pathSk93xdzq06sj" kvg:type="㇔" d="M31.48,59.88c3.43,2.36,7.2,6.86,9.01,10.42" transform="matrix(1,0,0,1,696,-4)" class="stroke_order_diagram--current_path"></path><circle cx="31.48" cy="59.88" r="8" class="stroke_order_diagram--path_start" transform="matrix(1,0,0,1,696,-4)"></circle><line x1="850" x2="850" y1="1" y2="99" class="stroke_order_diagram--guide_line"></line><line x1="899" x2="899" y1="1" y2="99" class="stroke_order_diagram--bounding_box"></line><path id="pathSk93xdzq06sm" kvg:type="㇑" d="M51.45,9.38c0.67,0.43,2.1,3.24,2.24,4.1c0.14,0.87,0.41,16.74,0.28,22.15" transform="matrix(1,0,0,1,796,-4)" class="stroke_order_diagram--existing_path"></path><path id="pathSk93xdzq06sn" kvg:type="㇔" d="M54.25,23.75c3.68-0.25,27.5-3.5,31.4-4c1.99-0.26,4.71,0,6.35,0.25" transform="matrix(1,0,0,1,796,-4)" class="stroke_order_diagram--existing_path"></path><path id="pathSk93xdzq06so" kvg:type="㇑" d="M22.95,35.99c0.68,1.3,1.67,2.28,1.69,4.01c0.13,12.99,0.13,33.2-0.28,58" transform="matrix(1,0,0,1,796,-4)" class="stroke_order_diagram--existing_path"></path><path id="pathSk93xdzq06sp" kvg:type="㇕a" d="M26.11,38.11c18.64-1.36,53.89-4.36,56.76-4.36c3.13,0,4.23,2.27,4.18,5c-0.23,14.33-0.91,36.72-0.46,56.97" transform="matrix(1,0,0,1,796,-4)" class="stroke_order_diagram--existing_path"></path><path id="pathSk93xdzq06sq" kvg:type="㇒" d="M69.94,39.34c0.63,1.2,1.01,2.79-0.19,4.75C58,63.25,47.5,76.25,30.97,88.23" transform="matrix(1,0,0,1,796,-4)" class="stroke_order_diagram--existing_path"></path><path id="pathSk93xdzq06sr" kvg:type="㇏" d="M35.73,49.13c15.22,7.92,31.96,22.97,40.01,34.92" transform="matrix(1,0,0,1,796,-4)" class="stroke_order_diagram--existing_path"></path><path id="pathSk93xdzq06ss" kvg:type="㇔" d="M48.98,42.63c3.43,2.19,7.2,6.36,9.01,9.67" transform="matrix(1,0,0,1,796,-4)" class="stroke_order_diagram--existing_path"></path><path id="pathSk93xdzq06st" kvg:type="㇔" d="M31.48,59.88c3.43,2.36,7.2,6.86,9.01,10.42" transform="matrix(1,0,0,1,796,-4)" class="stroke_order_diagram--existing_path"></path><path id="kvg:09e75-s9" kvg:type="㇔" d="M69.98,57.88c4.09,2.93,8.6,8.5,10.76,12.92" transform="matrix(1,0,0,1,796,-4)" class="stroke_order_diagram--current_path"></path><path id="pathSk93xdzq06sv" kvg:type="㇔" d="M69.98,57.88c4.09,2.93,8.6,8.5,10.76,12.92" transform="matrix(1,0,0,1,796,-4)" class="stroke_order_diagram--current_path"></path><circle cx="69.98" cy="57.88" r="8" class="stroke_order_diagram--path_start" transform="matrix(1,0,0,1,796,-4)"></circle><line x1="950" x2="950" y1="1" y2="99" class="stroke_order_diagram--guide_line"></line><line x1="999" x2="999" y1="1" y2="99" class="stroke_order_diagram--bounding_box"></line><path id="pathSk93xdzq06sy" kvg:type="㇑" d="M51.45,9.38c0.67,0.43,2.1,3.24,2.24,4.1c0.14,0.87,0.41,16.74,0.28,22.15" transform="matrix(1,0,0,1,896,-4)" class="stroke_order_diagram--existing_path"></path><path id="pathSk93xdzq06sz" kvg:type="㇔" d="M54.25,23.75c3.68-0.25,27.5-3.5,31.4-4c1.99-0.26,4.71,0,6.35,0.25" transform="matrix(1,0,0,1,896,-4)" class="stroke_order_diagram--existing_path"></path><path id="pathSk93xdzq06t0" kvg:type="㇑" d="M22.95,35.99c0.68,1.3,1.67,2.28,1.69,4.01c0.13,12.99,0.13,33.2-0.28,58" transform="matrix(1,0,0,1,896,-4)" class="stroke_order_diagram--existing_path"></path><path id="pathSk93xdzq06t1" kvg:type="㇕a" d="M26.11,38.11c18.64-1.36,53.89-4.36,56.76-4.36c3.13,0,4.23,2.27,4.18,5c-0.23,14.33-0.91,36.72-0.46,56.97" transform="matrix(1,0,0,1,896,-4)" class="stroke_order_diagram--existing_path"></path><path id="pathSk93xdzq06t2" kvg:type="㇒" d="M69.94,39.34c0.63,1.2,1.01,2.79-0.19,4.75C58,63.25,47.5,76.25,30.97,88.23" transform="matrix(1,0,0,1,896,-4)" class="stroke_order_diagram--existing_path"></path><path id="pathSk93xdzq06t3" kvg:type="㇏" d="M35.73,49.13c15.22,7.92,31.96,22.97,40.01,34.92" transform="matrix(1,0,0,1,896,-4)" class="stroke_order_diagram--existing_path"></path><path id="pathSk93xdzq06t4" kvg:type="㇔" d="M48.98,42.63c3.43,2.19,7.2,6.36,9.01,9.67" transform="matrix(1,0,0,1,896,-4)" class="stroke_order_diagram--existing_path"></path><path id="pathSk93xdzq06t5" kvg:type="㇔" d="M31.48,59.88c3.43,2.36,7.2,6.86,9.01,10.42" transform="matrix(1,0,0,1,896,-4)" class="stroke_order_diagram--existing_path"></path><path id="pathSk93xdzq06t6" kvg:type="㇔" d="M69.98,57.88c4.09,2.93,8.6,8.5,10.76,12.92" transform="matrix(1,0,0,1,896,-4)" class="stroke_order_diagram--existing_path"></path><path id="kvg:09e75-s10" kvg:type="㇔" d="M52.48,78.13c3.81,2.42,8,7.02,10.01,10.67" transform="matrix(1,0,0,1,896,-4)" class="stroke_order_diagram--current_path"></path><path id="pathSk93xdzq06t8" kvg:type="㇔" d="M52.48,78.13c3.81,2.42,8,7.02,10.01,10.67" transform="matrix(1,0,0,1,896,-4)" class="stroke_order_diagram--current_path"></path><circle cx="52.48" cy="78.13" r="8" class="stroke_order_diagram--path_start" transform="matrix(1,0,0,1,896,-4)"></circle><line x1="1050" x2="1050" y1="1" y2="99" class="stroke_order_diagram--guide_line"></line><line x1="1099" x2="1099" y1="1" y2="99" class="stroke_order_diagram--bounding_box"></line><path id="pathSk93xdzq06tb" kvg:type="㇑" d="M51.45,9.38c0.67,0.43,2.1,3.24,2.24,4.1c0.14,0.87,0.41,16.74,0.28,22.15" transform="matrix(1,0,0,1,996,-4)" class="stroke_order_diagram--existing_path"></path><path id="pathSk93xdzq06tc" kvg:type="㇔" d="M54.25,23.75c3.68-0.25,27.5-3.5,31.4-4c1.99-0.26,4.71,0,6.35,0.25" transform="matrix(1,0,0,1,996,-4)" class="stroke_order_diagram--existing_path"></path><path id="pathSk93xdzq06td" kvg:type="㇑" d="M22.95,35.99c0.68,1.3,1.67,2.28,1.69,4.01c0.13,12.99,0.13,33.2-0.28,58" transform="matrix(1,0,0,1,996,-4)" class="stroke_order_diagram--existing_path"></path><path id="pathSk93xdzq06te" kvg:type="㇕a" d="M26.11,38.11c18.64-1.36,53.89-4.36,56.76-4.36c3.13,0,4.23,2.27,4.18,5c-0.23,14.33-0.91,36.72-0.46,56.97" transform="matrix(1,0,0,1,996,-4)" class="stroke_order_diagram--existing_path"></path><path id="pathSk93xdzq06tf" kvg:type="㇒" d="M69.94,39.34c0.63,1.2,1.01,2.79-0.19,4.75C58,63.25,47.5,76.25,30.97,88.23" transform="matrix(1,0,0,1,996,-4)" class="stroke_order_diagram--existing_path"></path><path id="pathSk93xdzq06tg" kvg:type="㇏" d="M35.73,49.13c15.22,7.92,31.96,22.97,40.01,34.92" transform="matrix(1,0,0,1,996,-4)" class="stroke_order_diagram--existing_path"></path><path id="pathSk93xdzq06th" kvg:type="㇔" d="M48.98,42.63c3.43,2.19,7.2,6.36,9.01,9.67" transform="matrix(1,0,0,1,996,-4)" class="stroke_order_diagram--existing_path"></path><path id="pathSk93xdzq06ti" kvg:type="㇔" d="M31.48,59.88c3.43,2.36,7.2,6.86,9.01,10.42" transform="matrix(1,0,0,1,996,-4)" class="stroke_order_diagram--existing_path"></path><path id="pathSk93xdzq06tj" kvg:type="㇔" d="M69.98,57.88c4.09,2.93,8.6,8.5,10.76,12.92" transform="matrix(1,0,0,1,996,-4)" class="stroke_order_diagram--existing_path"></path><path id="pathSk93xdzq06tk" kvg:type="㇔" d="M52.48,78.13c3.81,2.42,8,7.02,10.01,10.67" transform="matrix(1,0,0,1,996,-4)" class="stroke_order_diagram--existing_path"></path><path id="kvg:09e75-s11" kvg:type="㇐a" d="M25.22,95.28c11.89,0,44.96-1.91,61.38-2.29" transform="matrix(1,0,0,1,996,-4)" class="stroke_order_diagram--current_path"></path><path id="pathSk93xdzq06tm" kvg:type="㇐a" d="M25.22,95.28c11.89,0,44.96-1.91,61.38-2.29" transform="matrix(1,0,0,1,996,-4)" class="stroke_order_diagram--current_path"></path><circle cx="25.22" cy="95.28" r="8" class="stroke_order_diagram--path_start" transform="matrix(1,0,0,1,996,-4)"></circle></svg>