<?xml version="1.0" encoding="UTF-8"?>
<!DOCTYPE svg PUBLIC "-//W3C//DTD SVG 1.0//EN" "http://www.w3.org/TR/2001/REC-SVG-20010904/DTD/svg10.dtd" [
<!ATTLIST g
xmlns:kvg CDATA #FIXED "http://kanjivg.tagaini.net"
kvg:element CDATA #IMPLIED
kvg:variant CDATA #IMPLIED
kvg:partial CDATA #IMPLIED
kvg:original CDATA #IMPLIED
kvg:part CDATA #IMPLIED
kvg:number CDATA #IMPLIED
kvg:tradForm CDATA #IMPLIED
kvg:radicalForm CDATA #IMPLIED
kvg:position CDATA #IMPLIED
kvg:radical CDATA #IMPLIED
kvg:phon CDATA #IMPLIED >
<!ATTLIST path
xmlns:kvg CDATA #FIXED "http://kanjivg.tagaini.net"
kvg:type CDATA #IMPLIED >
]><svg style="width: 1100px; height: 100px;" xmlns="http://www.w3.org/2000/svg" xmlns:xlink="http://www.w3.org/1999/xlink" width="1100px" height="100px"><style>
.stroke_order_diagram--outer_container {
  width: 100%;
  overflow-x: auto;
  overflow-y: hidden;
}

.stroke_order_diagram--guide_line {
  fill: none;
  stroke: #ddd;
  stroke-width: 3;
  stroke-linecap: square;
  stroke-linejoin: square;
  stroke-dasharray:8, 8;
}

.stroke_order_diagram--bounding_box {
  fill: none;
  stroke: #ddd;
  stroke-width: 4;
  stroke-linecap: square;
  stroke-linejoin: square;
}

.stroke_order_diagram--current_path {
  fill: none;
  stroke: #000;
  stroke-width: 6;
  stroke-linecap: round;
  stroke-linejoin: round;
}

.stroke_order_diagram--existing_path {
  fill: none;
  stroke: #aaa;
  stroke-width: 6;
  stroke-linecap: round;
  stroke-linejoin:round;
}

.stroke_order_diagram--path_start {
  fill: rgba(255, 0, 0, 0.7);
  stroke:none
}</style><desc>Created with Snap</desc><defs></defs><line x1="1" x2="1099" y1="1" y2="1" class="stroke_order_diagram--bounding_box"></line><line x1="1" x2="1" y1="1" y2="99" class="stroke_order_diagram--bounding_box"></line><line x1="1" x2="1099" y1="99" y2="99" class="stroke_order_diagram--bounding_box"></line><line x1="0" x2="1100" y1="50" y2="50" class="stroke_order_diagram--guide_line"></line><line x1="50" x2="50" y1="1" y2="99" class="stroke_order_diagram--guide_line"></line><line x1="99" x2="99" y1="1" y2="99" class="stroke_order_diagram--bounding_box"></line><path id="kvg:09e7f-s1" kvg:type="㇑a" d="M52.81,10.63c1.22,1.22,1.51,2.62,1.51,4.15c0,1.59-0.07,2.71-0.07,7.46" transform="matrix(1,0,0,1,-4,-4)" class="stroke_order_diagram--current_path"></path><path id="pathSk940yk7k6u7" kvg:type="㇑a" d="M52.81,10.63c1.22,1.22,1.51,2.62,1.51,4.15c0,1.59-0.07,2.71-0.07,7.46" transform="matrix(1,0,0,1,-4,-4)" class="stroke_order_diagram--current_path"></path><circle cx="52.81" cy="10.63" r="8" class="stroke_order_diagram--path_start" transform="matrix(1,0,0,1,-4,-4)"></circle><line x1="150" x2="150" y1="1" y2="99" class="stroke_order_diagram--guide_line"></line><line x1="199" x2="199" y1="1" y2="99" class="stroke_order_diagram--bounding_box"></line><path id="pathSk940yk7k6ua" kvg:type="㇑a" d="M52.81,10.63c1.22,1.22,1.51,2.62,1.51,4.15c0,1.59-0.07,2.71-0.07,7.46" transform="matrix(1,0,0,1,96,-4)" class="stroke_order_diagram--existing_path"></path><path id="kvg:09e7f-s2" kvg:type="㇐" d="M21.38,25.23c3.37,0.52,6.88,0.29,10,0.01c12.46-1.12,29.03-2.76,45-3.69c3.48-0.2,6.82-0.47,10.25,0.27" transform="matrix(1,0,0,1,96,-4)" class="stroke_order_diagram--current_path"></path><path id="pathSk940yk7k6uc" kvg:type="㇐" d="M21.38,25.23c3.37,0.52,6.88,0.29,10,0.01c12.46-1.12,29.03-2.76,45-3.69c3.48-0.2,6.82-0.47,10.25,0.27" transform="matrix(1,0,0,1,96,-4)" class="stroke_order_diagram--current_path"></path><circle cx="21.38" cy="25.23" r="8" class="stroke_order_diagram--path_start" transform="matrix(1,0,0,1,96,-4)"></circle><line x1="250" x2="250" y1="1" y2="99" class="stroke_order_diagram--guide_line"></line><line x1="299" x2="299" y1="1" y2="99" class="stroke_order_diagram--bounding_box"></line><path id="pathSk940yk7k6uf" kvg:type="㇑a" d="M52.81,10.63c1.22,1.22,1.51,2.62,1.51,4.15c0,1.59-0.07,2.71-0.07,7.46" transform="matrix(1,0,0,1,196,-4)" class="stroke_order_diagram--existing_path"></path><path id="pathSk940yk7k6ug" kvg:type="㇐" d="M21.38,25.23c3.37,0.52,6.88,0.29,10,0.01c12.46-1.12,29.03-2.76,45-3.69c3.48-0.2,6.82-0.47,10.25,0.27" transform="matrix(1,0,0,1,196,-4)" class="stroke_order_diagram--existing_path"></path><path id="kvg:09e7f-s3" kvg:type="㇒" d="M24.74,26.25c1.07,1.07,0.99,2.59,0.91,4.88C25,49.88,22.88,75,10.56,92.47" transform="matrix(1,0,0,1,196,-4)" class="stroke_order_diagram--current_path"></path><path id="pathSk940yk7k6ui" kvg:type="㇒" d="M24.74,26.25c1.07,1.07,0.99,2.59,0.91,4.88C25,49.88,22.88,75,10.56,92.47" transform="matrix(1,0,0,1,196,-4)" class="stroke_order_diagram--current_path"></path><circle cx="24.74" cy="26.25" r="8" class="stroke_order_diagram--path_start" transform="matrix(1,0,0,1,196,-4)"></circle><line x1="350" x2="350" y1="1" y2="99" class="stroke_order_diagram--guide_line"></line><line x1="399" x2="399" y1="1" y2="99" class="stroke_order_diagram--bounding_box"></line><path id="pathSk940yk7k6ul" kvg:type="㇑a" d="M52.81,10.63c1.22,1.22,1.51,2.62,1.51,4.15c0,1.59-0.07,2.71-0.07,7.46" transform="matrix(1,0,0,1,296,-4)" class="stroke_order_diagram--existing_path"></path><path id="pathSk940yk7k6um" kvg:type="㇐" d="M21.38,25.23c3.37,0.52,6.88,0.29,10,0.01c12.46-1.12,29.03-2.76,45-3.69c3.48-0.2,6.82-0.47,10.25,0.27" transform="matrix(1,0,0,1,296,-4)" class="stroke_order_diagram--existing_path"></path><path id="pathSk940yk7k6un" kvg:type="㇒" d="M24.74,26.25c1.07,1.07,0.99,2.59,0.91,4.88C25,49.88,22.88,75,10.56,92.47" transform="matrix(1,0,0,1,296,-4)" class="stroke_order_diagram--existing_path"></path><path id="kvg:09e7f-s4" kvg:type="㇕" d="M31.75,41.62c2.99,0.94,5.57,0.89,8.61,0.45c11.76-1.7,34.88-4.14,38.65-4.39c3-0.2,4.07,1.69,3.53,3.94c-1.01,4.15-1.42,6.25-2.65,11.58" transform="matrix(1,0,0,1,296,-4)" class="stroke_order_diagram--current_path"></path><path id="pathSk940yk7k6up" kvg:type="㇕" d="M31.75,41.62c2.99,0.94,5.57,0.89,8.61,0.45c11.76-1.7,34.88-4.14,38.65-4.39c3-0.2,4.07,1.69,3.53,3.94c-1.01,4.15-1.42,6.25-2.65,11.58" transform="matrix(1,0,0,1,296,-4)" class="stroke_order_diagram--current_path"></path><circle cx="31.75" cy="41.62" r="8" class="stroke_order_diagram--path_start" transform="matrix(1,0,0,1,296,-4)"></circle><line x1="450" x2="450" y1="1" y2="99" class="stroke_order_diagram--guide_line"></line><line x1="499" x2="499" y1="1" y2="99" class="stroke_order_diagram--bounding_box"></line><path id="pathSk940yk7k6us" kvg:type="㇑a" d="M52.81,10.63c1.22,1.22,1.51,2.62,1.51,4.15c0,1.59-0.07,2.71-0.07,7.46" transform="matrix(1,0,0,1,396,-4)" class="stroke_order_diagram--existing_path"></path><path id="pathSk940yk7k6ut" kvg:type="㇐" d="M21.38,25.23c3.37,0.52,6.88,0.29,10,0.01c12.46-1.12,29.03-2.76,45-3.69c3.48-0.2,6.82-0.47,10.25,0.27" transform="matrix(1,0,0,1,396,-4)" class="stroke_order_diagram--existing_path"></path><path id="pathSk940yk7k6uu" kvg:type="㇒" d="M24.74,26.25c1.07,1.07,0.99,2.59,0.91,4.88C25,49.88,22.88,75,10.56,92.47" transform="matrix(1,0,0,1,396,-4)" class="stroke_order_diagram--existing_path"></path><path id="pathSk940yk7k6uv" kvg:type="㇕" d="M31.75,41.62c2.99,0.94,5.57,0.89,8.61,0.45c11.76-1.7,34.88-4.14,38.65-4.39c3-0.2,4.07,1.69,3.53,3.94c-1.01,4.15-1.42,6.25-2.65,11.58" transform="matrix(1,0,0,1,396,-4)" class="stroke_order_diagram--existing_path"></path><path id="kvg:09e7f-s5" kvg:type="㇑" d="M45.74,30.87c0.88,0.88,1.25,1.59,1.33,2.95c0.42,7.56,0.8,14.68,1.17,21.93" transform="matrix(1,0,0,1,396,-4)" class="stroke_order_diagram--current_path"></path><path id="pathSk940yk7k6ux" kvg:type="㇑" d="M45.74,30.87c0.88,0.88,1.25,1.59,1.33,2.95c0.42,7.56,0.8,14.68,1.17,21.93" transform="matrix(1,0,0,1,396,-4)" class="stroke_order_diagram--current_path"></path><circle cx="45.74" cy="30.87" r="8" class="stroke_order_diagram--path_start" transform="matrix(1,0,0,1,396,-4)"></circle><line x1="550" x2="550" y1="1" y2="99" class="stroke_order_diagram--guide_line"></line><line x1="599" x2="599" y1="1" y2="99" class="stroke_order_diagram--bounding_box"></line><path id="pathSk940yk7k6v0" kvg:type="㇑a" d="M52.81,10.63c1.22,1.22,1.51,2.62,1.51,4.15c0,1.59-0.07,2.71-0.07,7.46" transform="matrix(1,0,0,1,496,-4)" class="stroke_order_diagram--existing_path"></path><path id="pathSk940yk7k6v1" kvg:type="㇐" d="M21.38,25.23c3.37,0.52,6.88,0.29,10,0.01c12.46-1.12,29.03-2.76,45-3.69c3.48-0.2,6.82-0.47,10.25,0.27" transform="matrix(1,0,0,1,496,-4)" class="stroke_order_diagram--existing_path"></path><path id="pathSk940yk7k6v2" kvg:type="㇒" d="M24.74,26.25c1.07,1.07,0.99,2.59,0.91,4.88C25,49.88,22.88,75,10.56,92.47" transform="matrix(1,0,0,1,496,-4)" class="stroke_order_diagram--existing_path"></path><path id="pathSk940yk7k6v3" kvg:type="㇕" d="M31.75,41.62c2.99,0.94,5.57,0.89,8.61,0.45c11.76-1.7,34.88-4.14,38.65-4.39c3-0.2,4.07,1.69,3.53,3.94c-1.01,4.15-1.42,6.25-2.65,11.58" transform="matrix(1,0,0,1,496,-4)" class="stroke_order_diagram--existing_path"></path><path id="pathSk940yk7k6v4" kvg:type="㇑" d="M45.74,30.87c0.88,0.88,1.25,1.59,1.33,2.95c0.42,7.56,0.8,14.68,1.17,21.93" transform="matrix(1,0,0,1,496,-4)" class="stroke_order_diagram--existing_path"></path><path id="kvg:09e7f-s6" kvg:type="㇑" d="M66.64,26.34c0.76,0.76,0.95,1.54,0.83,2.95C66.88,36.62,65.75,48.25,65,54" transform="matrix(1,0,0,1,496,-4)" class="stroke_order_diagram--current_path"></path><path id="pathSk940yk7k6v6" kvg:type="㇑" d="M66.64,26.34c0.76,0.76,0.95,1.54,0.83,2.95C66.88,36.62,65.75,48.25,65,54" transform="matrix(1,0,0,1,496,-4)" class="stroke_order_diagram--current_path"></path><circle cx="66.64" cy="26.34" r="8" class="stroke_order_diagram--path_start" transform="matrix(1,0,0,1,496,-4)"></circle><line x1="650" x2="650" y1="1" y2="99" class="stroke_order_diagram--guide_line"></line><line x1="699" x2="699" y1="1" y2="99" class="stroke_order_diagram--bounding_box"></line><path id="pathSk940yk7k6v9" kvg:type="㇑a" d="M52.81,10.63c1.22,1.22,1.51,2.62,1.51,4.15c0,1.59-0.07,2.71-0.07,7.46" transform="matrix(1,0,0,1,596,-4)" class="stroke_order_diagram--existing_path"></path><path id="pathSk940yk7k6va" kvg:type="㇐" d="M21.38,25.23c3.37,0.52,6.88,0.29,10,0.01c12.46-1.12,29.03-2.76,45-3.69c3.48-0.2,6.82-0.47,10.25,0.27" transform="matrix(1,0,0,1,596,-4)" class="stroke_order_diagram--existing_path"></path><path id="pathSk940yk7k6vb" kvg:type="㇒" d="M24.74,26.25c1.07,1.07,0.99,2.59,0.91,4.88C25,49.88,22.88,75,10.56,92.47" transform="matrix(1,0,0,1,596,-4)" class="stroke_order_diagram--existing_path"></path><path id="pathSk940yk7k6vc" kvg:type="㇕" d="M31.75,41.62c2.99,0.94,5.57,0.89,8.61,0.45c11.76-1.7,34.88-4.14,38.65-4.39c3-0.2,4.07,1.69,3.53,3.94c-1.01,4.15-1.42,6.25-2.65,11.58" transform="matrix(1,0,0,1,596,-4)" class="stroke_order_diagram--existing_path"></path><path id="pathSk940yk7k6vd" kvg:type="㇑" d="M45.74,30.87c0.88,0.88,1.25,1.59,1.33,2.95c0.42,7.56,0.8,14.68,1.17,21.93" transform="matrix(1,0,0,1,596,-4)" class="stroke_order_diagram--existing_path"></path><path id="pathSk940yk7k6ve" kvg:type="㇑" d="M66.64,26.34c0.76,0.76,0.95,1.54,0.83,2.95C66.88,36.62,65.75,48.25,65,54" transform="matrix(1,0,0,1,596,-4)" class="stroke_order_diagram--existing_path"></path><path id="kvg:09e7f-s7" kvg:type="㇐" d="M31.75,57.64c2.25,0.91,5.05,0.47,7.35,0.19c8.38-1,25.86-2.93,35.02-3.53c2.59-0.17,5.33-0.42,7.88,0.2" transform="matrix(1,0,0,1,596,-4)" class="stroke_order_diagram--current_path"></path><path id="pathSk940yk7k6vg" kvg:type="㇐" d="M31.75,57.64c2.25,0.91,5.05,0.47,7.35,0.19c8.38-1,25.86-2.93,35.02-3.53c2.59-0.17,5.33-0.42,7.88,0.2" transform="matrix(1,0,0,1,596,-4)" class="stroke_order_diagram--current_path"></path><circle cx="31.75" cy="57.64" r="8" class="stroke_order_diagram--path_start" transform="matrix(1,0,0,1,596,-4)"></circle><line x1="750" x2="750" y1="1" y2="99" class="stroke_order_diagram--guide_line"></line><line x1="799" x2="799" y1="1" y2="99" class="stroke_order_diagram--bounding_box"></line><path id="pathSk940yk7k6vj" kvg:type="㇑a" d="M52.81,10.63c1.22,1.22,1.51,2.62,1.51,4.15c0,1.59-0.07,2.71-0.07,7.46" transform="matrix(1,0,0,1,696,-4)" class="stroke_order_diagram--existing_path"></path><path id="pathSk940yk7k6vk" kvg:type="㇐" d="M21.38,25.23c3.37,0.52,6.88,0.29,10,0.01c12.46-1.12,29.03-2.76,45-3.69c3.48-0.2,6.82-0.47,10.25,0.27" transform="matrix(1,0,0,1,696,-4)" class="stroke_order_diagram--existing_path"></path><path id="pathSk940yk7k6vl" kvg:type="㇒" d="M24.74,26.25c1.07,1.07,0.99,2.59,0.91,4.88C25,49.88,22.88,75,10.56,92.47" transform="matrix(1,0,0,1,696,-4)" class="stroke_order_diagram--existing_path"></path><path id="pathSk940yk7k6vm" kvg:type="㇕" d="M31.75,41.62c2.99,0.94,5.57,0.89,8.61,0.45c11.76-1.7,34.88-4.14,38.65-4.39c3-0.2,4.07,1.69,3.53,3.94c-1.01,4.15-1.42,6.25-2.65,11.58" transform="matrix(1,0,0,1,696,-4)" class="stroke_order_diagram--existing_path"></path><path id="pathSk940yk7k6vn" kvg:type="㇑" d="M45.74,30.87c0.88,0.88,1.25,1.59,1.33,2.95c0.42,7.56,0.8,14.68,1.17,21.93" transform="matrix(1,0,0,1,696,-4)" class="stroke_order_diagram--existing_path"></path><path id="pathSk940yk7k6vo" kvg:type="㇑" d="M66.64,26.34c0.76,0.76,0.95,1.54,0.83,2.95C66.88,36.62,65.75,48.25,65,54" transform="matrix(1,0,0,1,696,-4)" class="stroke_order_diagram--existing_path"></path><path id="pathSk940yk7k6vp" kvg:type="㇐" d="M31.75,57.64c2.25,0.91,5.05,0.47,7.35,0.19c8.38-1,25.86-2.93,35.02-3.53c2.59-0.17,5.33-0.42,7.88,0.2" transform="matrix(1,0,0,1,696,-4)" class="stroke_order_diagram--existing_path"></path><path id="kvg:09e7f-s8" kvg:type="㇐" d="M39.11,78.04c4.05-0.49,7.25-1.17,11-1.66c1.33-0.17,2.7-0.39,4.04-0.21" transform="matrix(1,0,0,1,696,-4)" class="stroke_order_diagram--current_path"></path><path id="pathSk940yk7k6vr" kvg:type="㇐" d="M39.11,78.04c4.05-0.49,7.25-1.17,11-1.66c1.33-0.17,2.7-0.39,4.04-0.21" transform="matrix(1,0,0,1,696,-4)" class="stroke_order_diagram--current_path"></path><circle cx="39.11" cy="78.04" r="8" class="stroke_order_diagram--path_start" transform="matrix(1,0,0,1,696,-4)"></circle><line x1="850" x2="850" y1="1" y2="99" class="stroke_order_diagram--guide_line"></line><line x1="899" x2="899" y1="1" y2="99" class="stroke_order_diagram--bounding_box"></line><path id="pathSk940yk7k6vu" kvg:type="㇑a" d="M52.81,10.63c1.22,1.22,1.51,2.62,1.51,4.15c0,1.59-0.07,2.71-0.07,7.46" transform="matrix(1,0,0,1,796,-4)" class="stroke_order_diagram--existing_path"></path><path id="pathSk940yk7k6vv" kvg:type="㇐" d="M21.38,25.23c3.37,0.52,6.88,0.29,10,0.01c12.46-1.12,29.03-2.76,45-3.69c3.48-0.2,6.82-0.47,10.25,0.27" transform="matrix(1,0,0,1,796,-4)" class="stroke_order_diagram--existing_path"></path><path id="pathSk940yk7k6vw" kvg:type="㇒" d="M24.74,26.25c1.07,1.07,0.99,2.59,0.91,4.88C25,49.88,22.88,75,10.56,92.47" transform="matrix(1,0,0,1,796,-4)" class="stroke_order_diagram--existing_path"></path><path id="pathSk940yk7k6vx" kvg:type="㇕" d="M31.75,41.62c2.99,0.94,5.57,0.89,8.61,0.45c11.76-1.7,34.88-4.14,38.65-4.39c3-0.2,4.07,1.69,3.53,3.94c-1.01,4.15-1.42,6.25-2.65,11.58" transform="matrix(1,0,0,1,796,-4)" class="stroke_order_diagram--existing_path"></path><path id="pathSk940yk7k6vy" kvg:type="㇑" d="M45.74,30.87c0.88,0.88,1.25,1.59,1.33,2.95c0.42,7.56,0.8,14.68,1.17,21.93" transform="matrix(1,0,0,1,796,-4)" class="stroke_order_diagram--existing_path"></path><path id="pathSk940yk7k6vz" kvg:type="㇑" d="M66.64,26.34c0.76,0.76,0.95,1.54,0.83,2.95C66.88,36.62,65.75,48.25,65,54" transform="matrix(1,0,0,1,796,-4)" class="stroke_order_diagram--existing_path"></path><path id="pathSk940yk7k6w0" kvg:type="㇐" d="M31.75,57.64c2.25,0.91,5.05,0.47,7.35,0.19c8.38-1,25.86-2.93,35.02-3.53c2.59-0.17,5.33-0.42,7.88,0.2" transform="matrix(1,0,0,1,796,-4)" class="stroke_order_diagram--existing_path"></path><path id="pathSk940yk7k6w1" kvg:type="㇐" d="M39.11,78.04c4.05-0.49,7.25-1.17,11-1.66c1.33-0.17,2.7-0.39,4.04-0.21" transform="matrix(1,0,0,1,796,-4)" class="stroke_order_diagram--existing_path"></path><path id="kvg:09e7f-s9" kvg:type="㇙" d="M35.5,66.95c0.9,0.9,1.17,2.05,1.17,3.55c0,1.95-0.03,17.37-0.03,22.57c0,2.74,0.48,3.91,3.1,2.97c3.27-1.17,7.14-2.79,11.35-4.09" transform="matrix(1,0,0,1,796,-4)" class="stroke_order_diagram--current_path"></path><path id="pathSk940yk7k6w3" kvg:type="㇙" d="M35.5,66.95c0.9,0.9,1.17,2.05,1.17,3.55c0,1.95-0.03,17.37-0.03,22.57c0,2.74,0.48,3.91,3.1,2.97c3.27-1.17,7.14-2.79,11.35-4.09" transform="matrix(1,0,0,1,796,-4)" class="stroke_order_diagram--current_path"></path><circle cx="35.5" cy="66.95" r="8" class="stroke_order_diagram--path_start" transform="matrix(1,0,0,1,796,-4)"></circle><line x1="950" x2="950" y1="1" y2="99" class="stroke_order_diagram--guide_line"></line><line x1="999" x2="999" y1="1" y2="99" class="stroke_order_diagram--bounding_box"></line><path id="pathSk940yk7k6w6" kvg:type="㇑a" d="M52.81,10.63c1.22,1.22,1.51,2.62,1.51,4.15c0,1.59-0.07,2.71-0.07,7.46" transform="matrix(1,0,0,1,896,-4)" class="stroke_order_diagram--existing_path"></path><path id="pathSk940yk7k6w7" kvg:type="㇐" d="M21.38,25.23c3.37,0.52,6.88,0.29,10,0.01c12.46-1.12,29.03-2.76,45-3.69c3.48-0.2,6.82-0.47,10.25,0.27" transform="matrix(1,0,0,1,896,-4)" class="stroke_order_diagram--existing_path"></path><path id="pathSk940yk7k6w8" kvg:type="㇒" d="M24.74,26.25c1.07,1.07,0.99,2.59,0.91,4.88C25,49.88,22.88,75,10.56,92.47" transform="matrix(1,0,0,1,896,-4)" class="stroke_order_diagram--existing_path"></path><path id="pathSk940yk7k6w9" kvg:type="㇕" d="M31.75,41.62c2.99,0.94,5.57,0.89,8.61,0.45c11.76-1.7,34.88-4.14,38.65-4.39c3-0.2,4.07,1.69,3.53,3.94c-1.01,4.15-1.42,6.25-2.65,11.58" transform="matrix(1,0,0,1,896,-4)" class="stroke_order_diagram--existing_path"></path><path id="pathSk940yk7k6wa" kvg:type="㇑" d="M45.74,30.87c0.88,0.88,1.25,1.59,1.33,2.95c0.42,7.56,0.8,14.68,1.17,21.93" transform="matrix(1,0,0,1,896,-4)" class="stroke_order_diagram--existing_path"></path><path id="pathSk940yk7k6wb" kvg:type="㇑" d="M66.64,26.34c0.76,0.76,0.95,1.54,0.83,2.95C66.88,36.62,65.75,48.25,65,54" transform="matrix(1,0,0,1,896,-4)" class="stroke_order_diagram--existing_path"></path><path id="pathSk940yk7k6wc" kvg:type="㇐" d="M31.75,57.64c2.25,0.91,5.05,0.47,7.35,0.19c8.38-1,25.86-2.93,35.02-3.53c2.59-0.17,5.33-0.42,7.88,0.2" transform="matrix(1,0,0,1,896,-4)" class="stroke_order_diagram--existing_path"></path><path id="pathSk940yk7k6wd" kvg:type="㇐" d="M39.11,78.04c4.05-0.49,7.25-1.17,11-1.66c1.33-0.17,2.7-0.39,4.04-0.21" transform="matrix(1,0,0,1,896,-4)" class="stroke_order_diagram--existing_path"></path><path id="pathSk940yk7k6we" kvg:type="㇙" d="M35.5,66.95c0.9,0.9,1.17,2.05,1.17,3.55c0,1.95-0.03,17.37-0.03,22.57c0,2.74,0.48,3.91,3.1,2.97c3.27-1.17,7.14-2.79,11.35-4.09" transform="matrix(1,0,0,1,896,-4)" class="stroke_order_diagram--existing_path"></path><path id="kvg:09e7f-s10" kvg:type="㇐" d="M86.83,67.08c0,0.8-0.26,1.74-1.05,2.39c-2.03,1.66-10.06,6.73-17.08,9.67" transform="matrix(1,0,0,1,896,-4)" class="stroke_order_diagram--current_path"></path><path id="pathSk940yk7k6wg" kvg:type="㇐" d="M86.83,67.08c0,0.8-0.26,1.74-1.05,2.39c-2.03,1.66-10.06,6.73-17.08,9.67" transform="matrix(1,0,0,1,896,-4)" class="stroke_order_diagram--current_path"></path><circle cx="86.83" cy="67.08" r="8" class="stroke_order_diagram--path_start" transform="matrix(1,0,0,1,896,-4)"></circle><line x1="1050" x2="1050" y1="1" y2="99" class="stroke_order_diagram--guide_line"></line><line x1="1099" x2="1099" y1="1" y2="99" class="stroke_order_diagram--bounding_box"></line><path id="pathSk940yk7k6wj" kvg:type="㇑a" d="M52.81,10.63c1.22,1.22,1.51,2.62,1.51,4.15c0,1.59-0.07,2.71-0.07,7.46" transform="matrix(1,0,0,1,996,-4)" class="stroke_order_diagram--existing_path"></path><path id="pathSk940yk7k6wk" kvg:type="㇐" d="M21.38,25.23c3.37,0.52,6.88,0.29,10,0.01c12.46-1.12,29.03-2.76,45-3.69c3.48-0.2,6.82-0.47,10.25,0.27" transform="matrix(1,0,0,1,996,-4)" class="stroke_order_diagram--existing_path"></path><path id="pathSk940yk7k6wl" kvg:type="㇒" d="M24.74,26.25c1.07,1.07,0.99,2.59,0.91,4.88C25,49.88,22.88,75,10.56,92.47" transform="matrix(1,0,0,1,996,-4)" class="stroke_order_diagram--existing_path"></path><path id="pathSk940yk7k6wm" kvg:type="㇕" d="M31.75,41.62c2.99,0.94,5.57,0.89,8.61,0.45c11.76-1.7,34.88-4.14,38.65-4.39c3-0.2,4.07,1.69,3.53,3.94c-1.01,4.15-1.42,6.25-2.65,11.58" transform="matrix(1,0,0,1,996,-4)" class="stroke_order_diagram--existing_path"></path><path id="pathSk940yk7k6wn" kvg:type="㇑" d="M45.74,30.87c0.88,0.88,1.25,1.59,1.33,2.95c0.42,7.56,0.8,14.68,1.17,21.93" transform="matrix(1,0,0,1,996,-4)" class="stroke_order_diagram--existing_path"></path><path id="pathSk940yk7k6wo" kvg:type="㇑" d="M66.64,26.34c0.76,0.76,0.95,1.54,0.83,2.95C66.88,36.62,65.75,48.25,65,54" transform="matrix(1,0,0,1,996,-4)" class="stroke_order_diagram--existing_path"></path><path id="pathSk940yk7k6wp" kvg:type="㇐" d="M31.75,57.64c2.25,0.91,5.05,0.47,7.35,0.19c8.38-1,25.86-2.93,35.02-3.53c2.59-0.17,5.33-0.42,7.88,0.2" transform="matrix(1,0,0,1,996,-4)" class="stroke_order_diagram--existing_path"></path><path id="pathSk940yk7k6wq" kvg:type="㇐" d="M39.11,78.04c4.05-0.49,7.25-1.17,11-1.66c1.33-0.17,2.7-0.39,4.04-0.21" transform="matrix(1,0,0,1,996,-4)" class="stroke_order_diagram--existing_path"></path><path id="pathSk940yk7k6wr" kvg:type="㇙" d="M35.5,66.95c0.9,0.9,1.17,2.05,1.17,3.55c0,1.95-0.03,17.37-0.03,22.57c0,2.74,0.48,3.91,3.1,2.97c3.27-1.17,7.14-2.79,11.35-4.09" transform="matrix(1,0,0,1,996,-4)" class="stroke_order_diagram--existing_path"></path><path id="pathSk940yk7k6ws" kvg:type="㇐" d="M86.83,67.08c0,0.8-0.26,1.74-1.05,2.39c-2.03,1.66-10.06,6.73-17.08,9.67" transform="matrix(1,0,0,1,996,-4)" class="stroke_order_diagram--existing_path"></path><path id="kvg:09e7f-s11" kvg:type="㇟" d="M64.33,62.75c0.96,0.96,0.91,2.5,0.91,3.92c0,1.87-0.11,18.45-0.11,21.08c0,7.99,1.88,9.33,14.02,9.33c11.36,0,13.39-0.83,13.39-7.72" transform="matrix(1,0,0,1,996,-4)" class="stroke_order_diagram--current_path"></path><path id="pathSk940yk7k6wu" kvg:type="㇟" d="M64.33,62.75c0.96,0.96,0.91,2.5,0.91,3.92c0,1.87-0.11,18.45-0.11,21.08c0,7.99,1.88,9.33,14.02,9.33c11.36,0,13.39-0.83,13.39-7.72" transform="matrix(1,0,0,1,996,-4)" class="stroke_order_diagram--current_path"></path><circle cx="64.33" cy="62.75" r="8" class="stroke_order_diagram--path_start" transform="matrix(1,0,0,1,996,-4)"></circle></svg>