<?xml version="1.0" encoding="UTF-8"?>
<!DOCTYPE svg PUBLIC "-//W3C//DTD SVG 1.0//EN" "http://www.w3.org/TR/2001/REC-SVG-20010904/DTD/svg10.dtd" [
<!ATTLIST g
xmlns:kvg CDATA #FIXED "http://kanjivg.tagaini.net"
kvg:element CDATA #IMPLIED
kvg:variant CDATA #IMPLIED
kvg:partial CDATA #IMPLIED
kvg:original CDATA #IMPLIED
kvg:part CDATA #IMPLIED
kvg:number CDATA #IMPLIED
kvg:tradForm CDATA #IMPLIED
kvg:radicalForm CDATA #IMPLIED
kvg:position CDATA #IMPLIED
kvg:radical CDATA #IMPLIED
kvg:phon CDATA #IMPLIED >
<!ATTLIST path
xmlns:kvg CDATA #FIXED "http://kanjivg.tagaini.net"
kvg:type CDATA #IMPLIED >
]><svg style="width: 1100px; height: 100px;" xmlns="http://www.w3.org/2000/svg" xmlns:xlink="http://www.w3.org/1999/xlink"><style>
.stroke_order_diagram--outer_container {
  width: 100%;
  overflow-x: auto;
  overflow-y: hidden;
}

.stroke_order_diagram--guide_line {
  fill: none;
  stroke: #ddd;
  stroke-width: 3;
  stroke-linecap: square;
  stroke-linejoin: square;
  stroke-dasharray:8, 8;
}

.stroke_order_diagram--bounding_box {
  fill: none;
  stroke: #ddd;
  stroke-width: 4;
  stroke-linecap: square;
  stroke-linejoin: square;
}

.stroke_order_diagram--current_path {
  fill: none;
  stroke: #000;
  stroke-width: 6;
  stroke-linecap: round;
  stroke-linejoin: round;
}

.stroke_order_diagram--existing_path {
  fill: none;
  stroke: #aaa;
  stroke-width: 6;
  stroke-linecap: round;
  stroke-linejoin:round;
}

.stroke_order_diagram--path_start {
  fill: rgba(255, 0, 0, 0.7);
  stroke:none
}</style><desc>Created with Snap</desc><defs></defs><line x1="1" x2="1099" y1="1" y2="1" class="stroke_order_diagram--bounding_box"></line><line x1="1" x2="1" y1="1" y2="99" class="stroke_order_diagram--bounding_box"></line><line x1="1" x2="1099" y1="99" y2="99" class="stroke_order_diagram--bounding_box"></line><line x1="0" x2="1100" y1="50" y2="50" class="stroke_order_diagram--guide_line"></line><line x1="50" x2="50" y1="1" y2="99" class="stroke_order_diagram--guide_line"></line><line x1="99" x2="99" y1="1" y2="99" class="stroke_order_diagram--bounding_box"></line><path id="kvg:09ea5-s1" kvg:type="㇐" d="M21.1,23.02c1.76,0.6,3.77,0.79,5.8,0.6c10.33-0.98,40.33-4.39,55.96-5.54c2.01-0.15,3.28,0.1,5.29,0.52" transform="matrix(1,0,0,1,-4,-4)" class="stroke_order_diagram--current_path"></path><path id="pathSk93xdzq06xf" kvg:type="㇐" d="M21.1,23.02c1.76,0.6,3.77,0.79,5.8,0.6c10.33-0.98,40.33-4.39,55.96-5.54c2.01-0.15,3.28,0.1,5.29,0.52" transform="matrix(1,0,0,1,-4,-4)" class="stroke_order_diagram--current_path"></path><circle cx="21.1" cy="23.02" r="8" class="stroke_order_diagram--path_start" transform="matrix(1,0,0,1,-4,-4)"></circle><line x1="150" x2="150" y1="1" y2="99" class="stroke_order_diagram--guide_line"></line><line x1="199" x2="199" y1="1" y2="99" class="stroke_order_diagram--bounding_box"></line><path id="pathSk93xdzq06xi" kvg:type="㇐" d="M21.1,23.02c1.76,0.6,3.77,0.79,5.8,0.6c10.33-0.98,40.33-4.39,55.96-5.54c2.01-0.15,3.28,0.1,5.29,0.52" transform="matrix(1,0,0,1,96,-4)" class="stroke_order_diagram--existing_path"></path><path id="kvg:09ea5-s2" kvg:type="㇒" d="M34.22,27.67c0,0.49,0.07,0.9-0.12,1.47c-1.76,5.31-6.99,11.93-14.69,17.8" transform="matrix(1,0,0,1,96,-4)" class="stroke_order_diagram--current_path"></path><path id="pathSk93xdzq06xk" kvg:type="㇒" d="M34.22,27.67c0,0.49,0.07,0.9-0.12,1.47c-1.76,5.31-6.99,11.93-14.69,17.8" transform="matrix(1,0,0,1,96,-4)" class="stroke_order_diagram--current_path"></path><circle cx="34.22" cy="27.67" r="8" class="stroke_order_diagram--path_start" transform="matrix(1,0,0,1,96,-4)"></circle><line x1="250" x2="250" y1="1" y2="99" class="stroke_order_diagram--guide_line"></line><line x1="299" x2="299" y1="1" y2="99" class="stroke_order_diagram--bounding_box"></line><path id="pathSk93xdzq06xn" kvg:type="㇐" d="M21.1,23.02c1.76,0.6,3.77,0.79,5.8,0.6c10.33-0.98,40.33-4.39,55.96-5.54c2.01-0.15,3.28,0.1,5.29,0.52" transform="matrix(1,0,0,1,196,-4)" class="stroke_order_diagram--existing_path"></path><path id="pathSk93xdzq06xo" kvg:type="㇒" d="M34.22,27.67c0,0.49,0.07,0.9-0.12,1.47c-1.76,5.31-6.99,11.93-14.69,17.8" transform="matrix(1,0,0,1,196,-4)" class="stroke_order_diagram--existing_path"></path><path id="kvg:09ea5-s3" kvg:type="㇔" d="M34.32,36.2c3.09,1.2,7.04,4.39,8.55,7.41" transform="matrix(1,0,0,1,196,-4)" class="stroke_order_diagram--current_path"></path><path id="pathSk93xdzq06xq" kvg:type="㇔" d="M34.32,36.2c3.09,1.2,7.04,4.39,8.55,7.41" transform="matrix(1,0,0,1,196,-4)" class="stroke_order_diagram--current_path"></path><circle cx="34.32" cy="36.2" r="8" class="stroke_order_diagram--path_start" transform="matrix(1,0,0,1,196,-4)"></circle><line x1="350" x2="350" y1="1" y2="99" class="stroke_order_diagram--guide_line"></line><line x1="399" x2="399" y1="1" y2="99" class="stroke_order_diagram--bounding_box"></line><path id="pathSk93xdzq06xt" kvg:type="㇐" d="M21.1,23.02c1.76,0.6,3.77,0.79,5.8,0.6c10.33-0.98,40.33-4.39,55.96-5.54c2.01-0.15,3.28,0.1,5.29,0.52" transform="matrix(1,0,0,1,296,-4)" class="stroke_order_diagram--existing_path"></path><path id="pathSk93xdzq06xu" kvg:type="㇒" d="M34.22,27.67c0,0.49,0.07,0.9-0.12,1.47c-1.76,5.31-6.99,11.93-14.69,17.8" transform="matrix(1,0,0,1,296,-4)" class="stroke_order_diagram--existing_path"></path><path id="pathSk93xdzq06xv" kvg:type="㇔" d="M34.32,36.2c3.09,1.2,7.04,4.39,8.55,7.41" transform="matrix(1,0,0,1,296,-4)" class="stroke_order_diagram--existing_path"></path><path id="kvg:09ea5-s4" kvg:type="㇒" d="M73.6,24.85c0,0.36,0.08,0.68-0.08,1.09c-1.41,3.57-5.44,9.92-10.24,13.52" transform="matrix(1,0,0,1,296,-4)" class="stroke_order_diagram--current_path"></path><path id="pathSk93xdzq06xx" kvg:type="㇒" d="M73.6,24.85c0,0.36,0.08,0.68-0.08,1.09c-1.41,3.57-5.44,9.92-10.24,13.52" transform="matrix(1,0,0,1,296,-4)" class="stroke_order_diagram--current_path"></path><circle cx="73.6" cy="24.85" r="8" class="stroke_order_diagram--path_start" transform="matrix(1,0,0,1,296,-4)"></circle><line x1="450" x2="450" y1="1" y2="99" class="stroke_order_diagram--guide_line"></line><line x1="499" x2="499" y1="1" y2="99" class="stroke_order_diagram--bounding_box"></line><path id="pathSk93xdzq06y0" kvg:type="㇐" d="M21.1,23.02c1.76,0.6,3.77,0.79,5.8,0.6c10.33-0.98,40.33-4.39,55.96-5.54c2.01-0.15,3.28,0.1,5.29,0.52" transform="matrix(1,0,0,1,396,-4)" class="stroke_order_diagram--existing_path"></path><path id="pathSk93xdzq06y1" kvg:type="㇒" d="M34.22,27.67c0,0.49,0.07,0.9-0.12,1.47c-1.76,5.31-6.99,11.93-14.69,17.8" transform="matrix(1,0,0,1,396,-4)" class="stroke_order_diagram--existing_path"></path><path id="pathSk93xdzq06y2" kvg:type="㇔" d="M34.32,36.2c3.09,1.2,7.04,4.39,8.55,7.41" transform="matrix(1,0,0,1,396,-4)" class="stroke_order_diagram--existing_path"></path><path id="pathSk93xdzq06y3" kvg:type="㇒" d="M73.6,24.85c0,0.36,0.08,0.68-0.08,1.09c-1.41,3.57-5.44,9.92-10.24,13.52" transform="matrix(1,0,0,1,396,-4)" class="stroke_order_diagram--existing_path"></path><path id="kvg:09ea5-s5" kvg:type="㇔" d="M71.37,33.38c4.6,2.58,8.13,5.82,10.88,9.74" transform="matrix(1,0,0,1,396,-4)" class="stroke_order_diagram--current_path"></path><path id="pathSk93xdzq06y5" kvg:type="㇔" d="M71.37,33.38c4.6,2.58,8.13,5.82,10.88,9.74" transform="matrix(1,0,0,1,396,-4)" class="stroke_order_diagram--current_path"></path><circle cx="71.37" cy="33.38" r="8" class="stroke_order_diagram--path_start" transform="matrix(1,0,0,1,396,-4)"></circle><line x1="550" x2="550" y1="1" y2="99" class="stroke_order_diagram--guide_line"></line><line x1="599" x2="599" y1="1" y2="99" class="stroke_order_diagram--bounding_box"></line><path id="pathSk93xdzq06y8" kvg:type="㇐" d="M21.1,23.02c1.76,0.6,3.77,0.79,5.8,0.6c10.33-0.98,40.33-4.39,55.96-5.54c2.01-0.15,3.28,0.1,5.29,0.52" transform="matrix(1,0,0,1,496,-4)" class="stroke_order_diagram--existing_path"></path><path id="pathSk93xdzq06y9" kvg:type="㇒" d="M34.22,27.67c0,0.49,0.07,0.9-0.12,1.47c-1.76,5.31-6.99,11.93-14.69,17.8" transform="matrix(1,0,0,1,496,-4)" class="stroke_order_diagram--existing_path"></path><path id="pathSk93xdzq06ya" kvg:type="㇔" d="M34.32,36.2c3.09,1.2,7.04,4.39,8.55,7.41" transform="matrix(1,0,0,1,496,-4)" class="stroke_order_diagram--existing_path"></path><path id="pathSk93xdzq06yb" kvg:type="㇒" d="M73.6,24.85c0,0.36,0.08,0.68-0.08,1.09c-1.41,3.57-5.44,9.92-10.24,13.52" transform="matrix(1,0,0,1,496,-4)" class="stroke_order_diagram--existing_path"></path><path id="pathSk93xdzq06yc" kvg:type="㇔" d="M71.37,33.38c4.6,2.58,8.13,5.82,10.88,9.74" transform="matrix(1,0,0,1,496,-4)" class="stroke_order_diagram--existing_path"></path><path id="kvg:09ea5-s6" kvg:type="㇑" d="M52.67,11.75c0.83,0.33,1.49,1.47,1.49,2.16c0,6.97,0,31.94-0.17,36.09" transform="matrix(1,0,0,1,496,-4)" class="stroke_order_diagram--current_path"></path><path id="pathSk93xdzq06ye" kvg:type="㇑" d="M52.67,11.75c0.83,0.33,1.49,1.47,1.49,2.16c0,6.97,0,31.94-0.17,36.09" transform="matrix(1,0,0,1,496,-4)" class="stroke_order_diagram--current_path"></path><circle cx="52.67" cy="11.75" r="8" class="stroke_order_diagram--path_start" transform="matrix(1,0,0,1,496,-4)"></circle><line x1="650" x2="650" y1="1" y2="99" class="stroke_order_diagram--guide_line"></line><line x1="699" x2="699" y1="1" y2="99" class="stroke_order_diagram--bounding_box"></line><path id="pathSk93xdzq06yh" kvg:type="㇐" d="M21.1,23.02c1.76,0.6,3.77,0.79,5.8,0.6c10.33-0.98,40.33-4.39,55.96-5.54c2.01-0.15,3.28,0.1,5.29,0.52" transform="matrix(1,0,0,1,596,-4)" class="stroke_order_diagram--existing_path"></path><path id="pathSk93xdzq06yi" kvg:type="㇒" d="M34.22,27.67c0,0.49,0.07,0.9-0.12,1.47c-1.76,5.31-6.99,11.93-14.69,17.8" transform="matrix(1,0,0,1,596,-4)" class="stroke_order_diagram--existing_path"></path><path id="pathSk93xdzq06yj" kvg:type="㇔" d="M34.32,36.2c3.09,1.2,7.04,4.39,8.55,7.41" transform="matrix(1,0,0,1,596,-4)" class="stroke_order_diagram--existing_path"></path><path id="pathSk93xdzq06yk" kvg:type="㇒" d="M73.6,24.85c0,0.36,0.08,0.68-0.08,1.09c-1.41,3.57-5.44,9.92-10.24,13.52" transform="matrix(1,0,0,1,596,-4)" class="stroke_order_diagram--existing_path"></path><path id="pathSk93xdzq06yl" kvg:type="㇔" d="M71.37,33.38c4.6,2.58,8.13,5.82,10.88,9.74" transform="matrix(1,0,0,1,596,-4)" class="stroke_order_diagram--existing_path"></path><path id="pathSk93xdzq06ym" kvg:type="㇑" d="M52.67,11.75c0.83,0.33,1.49,1.47,1.49,2.16c0,6.97,0,31.94-0.17,36.09" transform="matrix(1,0,0,1,596,-4)" class="stroke_order_diagram--existing_path"></path><path id="kvg:09ea5-s7" kvg:type="㇒" d="M54,36.8c-6.23,9.12-22.93,23.06-35.89,28.23" transform="matrix(1,0,0,1,596,-4)" class="stroke_order_diagram--current_path"></path><path id="pathSk93xdzq06yo" kvg:type="㇒" d="M54,36.8c-6.23,9.12-22.93,23.06-35.89,28.23" transform="matrix(1,0,0,1,596,-4)" class="stroke_order_diagram--current_path"></path><circle cx="54" cy="36.8" r="8" class="stroke_order_diagram--path_start" transform="matrix(1,0,0,1,596,-4)"></circle><line x1="750" x2="750" y1="1" y2="99" class="stroke_order_diagram--guide_line"></line><line x1="799" x2="799" y1="1" y2="99" class="stroke_order_diagram--bounding_box"></line><path id="pathSk93xdzq06yr" kvg:type="㇐" d="M21.1,23.02c1.76,0.6,3.77,0.79,5.8,0.6c10.33-0.98,40.33-4.39,55.96-5.54c2.01-0.15,3.28,0.1,5.29,0.52" transform="matrix(1,0,0,1,696,-4)" class="stroke_order_diagram--existing_path"></path><path id="pathSk93xdzq06ys" kvg:type="㇒" d="M34.22,27.67c0,0.49,0.07,0.9-0.12,1.47c-1.76,5.31-6.99,11.93-14.69,17.8" transform="matrix(1,0,0,1,696,-4)" class="stroke_order_diagram--existing_path"></path><path id="pathSk93xdzq06yt" kvg:type="㇔" d="M34.32,36.2c3.09,1.2,7.04,4.39,8.55,7.41" transform="matrix(1,0,0,1,696,-4)" class="stroke_order_diagram--existing_path"></path><path id="pathSk93xdzq06yu" kvg:type="㇒" d="M73.6,24.85c0,0.36,0.08,0.68-0.08,1.09c-1.41,3.57-5.44,9.92-10.24,13.52" transform="matrix(1,0,0,1,696,-4)" class="stroke_order_diagram--existing_path"></path><path id="pathSk93xdzq06yv" kvg:type="㇔" d="M71.37,33.38c4.6,2.58,8.13,5.82,10.88,9.74" transform="matrix(1,0,0,1,696,-4)" class="stroke_order_diagram--existing_path"></path><path id="pathSk93xdzq06yw" kvg:type="㇑" d="M52.67,11.75c0.83,0.33,1.49,1.47,1.49,2.16c0,6.97,0,31.94-0.17,36.09" transform="matrix(1,0,0,1,696,-4)" class="stroke_order_diagram--existing_path"></path><path id="pathSk93xdzq06yx" kvg:type="㇒" d="M54,36.8c-6.23,9.12-22.93,23.06-35.89,28.23" transform="matrix(1,0,0,1,696,-4)" class="stroke_order_diagram--existing_path"></path><path id="kvg:09ea5-s8" kvg:type="㇏" d="M54.16,37.63c5.03,3.25,28.71,19.53,34.18,22.72c1.85,1.08,3.45,1.54,5.3,1.85" transform="matrix(1,0,0,1,696,-4)" class="stroke_order_diagram--current_path"></path><path id="pathSk93xdzq06yz" kvg:type="㇏" d="M54.16,37.63c5.03,3.25,28.71,19.53,34.18,22.72c1.85,1.08,3.45,1.54,5.3,1.85" transform="matrix(1,0,0,1,696,-4)" class="stroke_order_diagram--current_path"></path><circle cx="54.16" cy="37.63" r="8" class="stroke_order_diagram--path_start" transform="matrix(1,0,0,1,696,-4)"></circle><line x1="850" x2="850" y1="1" y2="99" class="stroke_order_diagram--guide_line"></line><line x1="899" x2="899" y1="1" y2="99" class="stroke_order_diagram--bounding_box"></line><path id="pathSk93xdzq06z2" kvg:type="㇐" d="M21.1,23.02c1.76,0.6,3.77,0.79,5.8,0.6c10.33-0.98,40.33-4.39,55.96-5.54c2.01-0.15,3.28,0.1,5.29,0.52" transform="matrix(1,0,0,1,796,-4)" class="stroke_order_diagram--existing_path"></path><path id="pathSk93xdzq06z3" kvg:type="㇒" d="M34.22,27.67c0,0.49,0.07,0.9-0.12,1.47c-1.76,5.31-6.99,11.93-14.69,17.8" transform="matrix(1,0,0,1,796,-4)" class="stroke_order_diagram--existing_path"></path><path id="pathSk93xdzq06z4" kvg:type="㇔" d="M34.32,36.2c3.09,1.2,7.04,4.39,8.55,7.41" transform="matrix(1,0,0,1,796,-4)" class="stroke_order_diagram--existing_path"></path><path id="pathSk93xdzq06z5" kvg:type="㇒" d="M73.6,24.85c0,0.36,0.08,0.68-0.08,1.09c-1.41,3.57-5.44,9.92-10.24,13.52" transform="matrix(1,0,0,1,796,-4)" class="stroke_order_diagram--existing_path"></path><path id="pathSk93xdzq06z6" kvg:type="㇔" d="M71.37,33.38c4.6,2.58,8.13,5.82,10.88,9.74" transform="matrix(1,0,0,1,796,-4)" class="stroke_order_diagram--existing_path"></path><path id="pathSk93xdzq06z7" kvg:type="㇑" d="M52.67,11.75c0.83,0.33,1.49,1.47,1.49,2.16c0,6.97,0,31.94-0.17,36.09" transform="matrix(1,0,0,1,796,-4)" class="stroke_order_diagram--existing_path"></path><path id="pathSk93xdzq06z8" kvg:type="㇒" d="M54,36.8c-6.23,9.12-22.93,23.06-35.89,28.23" transform="matrix(1,0,0,1,796,-4)" class="stroke_order_diagram--existing_path"></path><path id="pathSk93xdzq06z9" kvg:type="㇏" d="M54.16,37.63c5.03,3.25,28.71,19.53,34.18,22.72c1.85,1.08,3.45,1.54,5.3,1.85" transform="matrix(1,0,0,1,796,-4)" class="stroke_order_diagram--existing_path"></path><path id="kvg:09ea5-s9" kvg:type="㇒" d="M50.64,53.25c0.07,0.66,0.15,1.71-0.14,2.66c-1.76,5.62-11.87,17.94-25.7,25.48" transform="matrix(1,0,0,1,796,-4)" class="stroke_order_diagram--current_path"></path><path id="pathSk93xdzq06zb" kvg:type="㇒" d="M50.64,53.25c0.07,0.66,0.15,1.71-0.14,2.66c-1.76,5.62-11.87,17.94-25.7,25.48" transform="matrix(1,0,0,1,796,-4)" class="stroke_order_diagram--current_path"></path><circle cx="50.64" cy="53.25" r="8" class="stroke_order_diagram--path_start" transform="matrix(1,0,0,1,796,-4)"></circle><line x1="950" x2="950" y1="1" y2="99" class="stroke_order_diagram--guide_line"></line><line x1="999" x2="999" y1="1" y2="99" class="stroke_order_diagram--bounding_box"></line><path id="pathSk93xdzq06ze" kvg:type="㇐" d="M21.1,23.02c1.76,0.6,3.77,0.79,5.8,0.6c10.33-0.98,40.33-4.39,55.96-5.54c2.01-0.15,3.28,0.1,5.29,0.52" transform="matrix(1,0,0,1,896,-4)" class="stroke_order_diagram--existing_path"></path><path id="pathSk93xdzq06zf" kvg:type="㇒" d="M34.22,27.67c0,0.49,0.07,0.9-0.12,1.47c-1.76,5.31-6.99,11.93-14.69,17.8" transform="matrix(1,0,0,1,896,-4)" class="stroke_order_diagram--existing_path"></path><path id="pathSk93xdzq06zg" kvg:type="㇔" d="M34.32,36.2c3.09,1.2,7.04,4.39,8.55,7.41" transform="matrix(1,0,0,1,896,-4)" class="stroke_order_diagram--existing_path"></path><path id="pathSk93xdzq06zh" kvg:type="㇒" d="M73.6,24.85c0,0.36,0.08,0.68-0.08,1.09c-1.41,3.57-5.44,9.92-10.24,13.52" transform="matrix(1,0,0,1,896,-4)" class="stroke_order_diagram--existing_path"></path><path id="pathSk93xdzq06zi" kvg:type="㇔" d="M71.37,33.38c4.6,2.58,8.13,5.82,10.88,9.74" transform="matrix(1,0,0,1,896,-4)" class="stroke_order_diagram--existing_path"></path><path id="pathSk93xdzq06zj" kvg:type="㇑" d="M52.67,11.75c0.83,0.33,1.49,1.47,1.49,2.16c0,6.97,0,31.94-0.17,36.09" transform="matrix(1,0,0,1,896,-4)" class="stroke_order_diagram--existing_path"></path><path id="pathSk93xdzq06zk" kvg:type="㇒" d="M54,36.8c-6.23,9.12-22.93,23.06-35.89,28.23" transform="matrix(1,0,0,1,896,-4)" class="stroke_order_diagram--existing_path"></path><path id="pathSk93xdzq06zl" kvg:type="㇏" d="M54.16,37.63c5.03,3.25,28.71,19.53,34.18,22.72c1.85,1.08,3.45,1.54,5.3,1.85" transform="matrix(1,0,0,1,896,-4)" class="stroke_order_diagram--existing_path"></path><path id="pathSk93xdzq06zm" kvg:type="㇒" d="M50.64,53.25c0.07,0.66,0.15,1.71-0.14,2.66c-1.76,5.62-11.87,17.94-25.7,25.48" transform="matrix(1,0,0,1,896,-4)" class="stroke_order_diagram--existing_path"></path><path id="kvg:09ea5-s10" kvg:type="㇇" d="M49.2,63.38c0.23,0.03,1.46,0.25,2.12,0.18c2.92-0.32,14.65-4,17.72-4.8c2.1-0.55,2.8,0.67,2.17,2.13C66,73,53,89.5,31.76,99" transform="matrix(1,0,0,1,896,-4)" class="stroke_order_diagram--current_path"></path><path id="pathSk93xdzq06zo" kvg:type="㇇" d="M49.2,63.38c0.23,0.03,1.46,0.25,2.12,0.18c2.92-0.32,14.65-4,17.72-4.8c2.1-0.55,2.8,0.67,2.17,2.13C66,73,53,89.5,31.76,99" transform="matrix(1,0,0,1,896,-4)" class="stroke_order_diagram--current_path"></path><circle cx="49.2" cy="63.38" r="8" class="stroke_order_diagram--path_start" transform="matrix(1,0,0,1,896,-4)"></circle><line x1="1050" x2="1050" y1="1" y2="99" class="stroke_order_diagram--guide_line"></line><line x1="1099" x2="1099" y1="1" y2="99" class="stroke_order_diagram--bounding_box"></line><path id="pathSk93xdzq06zr" kvg:type="㇐" d="M21.1,23.02c1.76,0.6,3.77,0.79,5.8,0.6c10.33-0.98,40.33-4.39,55.96-5.54c2.01-0.15,3.28,0.1,5.29,0.52" transform="matrix(1,0,0,1,996,-4)" class="stroke_order_diagram--existing_path"></path><path id="pathSk93xdzq06zs" kvg:type="㇒" d="M34.22,27.67c0,0.49,0.07,0.9-0.12,1.47c-1.76,5.31-6.99,11.93-14.69,17.8" transform="matrix(1,0,0,1,996,-4)" class="stroke_order_diagram--existing_path"></path><path id="pathSk93xdzq06zt" kvg:type="㇔" d="M34.32,36.2c3.09,1.2,7.04,4.39,8.55,7.41" transform="matrix(1,0,0,1,996,-4)" class="stroke_order_diagram--existing_path"></path><path id="pathSk93xdzq06zu" kvg:type="㇒" d="M73.6,24.85c0,0.36,0.08,0.68-0.08,1.09c-1.41,3.57-5.44,9.92-10.24,13.52" transform="matrix(1,0,0,1,996,-4)" class="stroke_order_diagram--existing_path"></path><path id="pathSk93xdzq06zv" kvg:type="㇔" d="M71.37,33.38c4.6,2.58,8.13,5.82,10.88,9.74" transform="matrix(1,0,0,1,996,-4)" class="stroke_order_diagram--existing_path"></path><path id="pathSk93xdzq06zw" kvg:type="㇑" d="M52.67,11.75c0.83,0.33,1.49,1.47,1.49,2.16c0,6.97,0,31.94-0.17,36.09" transform="matrix(1,0,0,1,996,-4)" class="stroke_order_diagram--existing_path"></path><path id="pathSk93xdzq06zx" kvg:type="㇒" d="M54,36.8c-6.23,9.12-22.93,23.06-35.89,28.23" transform="matrix(1,0,0,1,996,-4)" class="stroke_order_diagram--existing_path"></path><path id="pathSk93xdzq06zy" kvg:type="㇏" d="M54.16,37.63c5.03,3.25,28.71,19.53,34.18,22.72c1.85,1.08,3.45,1.54,5.3,1.85" transform="matrix(1,0,0,1,996,-4)" class="stroke_order_diagram--existing_path"></path><path id="pathSk93xdzq06zz" kvg:type="㇒" d="M50.64,53.25c0.07,0.66,0.15,1.71-0.14,2.66c-1.76,5.62-11.87,17.94-25.7,25.48" transform="matrix(1,0,0,1,996,-4)" class="stroke_order_diagram--existing_path"></path><path id="pathSk93xdzq0700" kvg:type="㇇" d="M49.2,63.38c0.23,0.03,1.46,0.25,2.12,0.18c2.92-0.32,14.65-4,17.72-4.8c2.1-0.55,2.8,0.67,2.17,2.13C66,73,53,89.5,31.76,99" transform="matrix(1,0,0,1,996,-4)" class="stroke_order_diagram--existing_path"></path><path id="kvg:09ea5-s11" kvg:type="㇔" d="M42.92,74.89c9.9,3.02,20.45,10.42,26.45,17.6" transform="matrix(1,0,0,1,996,-4)" class="stroke_order_diagram--current_path"></path><path id="pathSk93xdzq0702" kvg:type="㇔" d="M42.92,74.89c9.9,3.02,20.45,10.42,26.45,17.6" transform="matrix(1,0,0,1,996,-4)" class="stroke_order_diagram--current_path"></path><circle cx="42.92" cy="74.89" r="8" class="stroke_order_diagram--path_start" transform="matrix(1,0,0,1,996,-4)"></circle></svg>