<?xml version="1.0" encoding="UTF-8"?>
<!DOCTYPE svg PUBLIC "-//W3C//DTD SVG 1.0//EN" "http://www.w3.org/TR/2001/REC-SVG-20010904/DTD/svg10.dtd" [
<!ATTLIST g
xmlns:kvg CDATA #FIXED "http://kanjivg.tagaini.net"
kvg:element CDATA #IMPLIED
kvg:variant CDATA #IMPLIED
kvg:partial CDATA #IMPLIED
kvg:original CDATA #IMPLIED
kvg:part CDATA #IMPLIED
kvg:number CDATA #IMPLIED
kvg:tradForm CDATA #IMPLIED
kvg:radicalForm CDATA #IMPLIED
kvg:position CDATA #IMPLIED
kvg:radical CDATA #IMPLIED
kvg:phon CDATA #IMPLIED >
<!ATTLIST path
xmlns:kvg CDATA #FIXED "http://kanjivg.tagaini.net"
kvg:type CDATA #IMPLIED >
]><svg style="width: 1200px; height: 100px;" xmlns="http://www.w3.org/2000/svg" xmlns:xlink="http://www.w3.org/1999/xlink"><style>
.stroke_order_diagram--outer_container {
  width: 100%;
  overflow-x: auto;
  overflow-y: hidden;
}

.stroke_order_diagram--guide_line {
  fill: none;
  stroke: #ddd;
  stroke-width: 3;
  stroke-linecap: square;
  stroke-linejoin: square;
  stroke-dasharray:8, 8;
}

.stroke_order_diagram--bounding_box {
  fill: none;
  stroke: #ddd;
  stroke-width: 4;
  stroke-linecap: square;
  stroke-linejoin: square;
}

.stroke_order_diagram--current_path {
  fill: none;
  stroke: #000;
  stroke-width: 6;
  stroke-linecap: round;
  stroke-linejoin: round;
}

.stroke_order_diagram--existing_path {
  fill: none;
  stroke: #aaa;
  stroke-width: 6;
  stroke-linecap: round;
  stroke-linejoin:round;
}

.stroke_order_diagram--path_start {
  fill: rgba(255, 0, 0, 0.7);
  stroke:none
}</style><desc>Created with Snap</desc><defs></defs><line x1="1" x2="1199" y1="1" y2="1" class="stroke_order_diagram--bounding_box"></line><line x1="1" x2="1" y1="1" y2="99" class="stroke_order_diagram--bounding_box"></line><line x1="1" x2="1199" y1="99" y2="99" class="stroke_order_diagram--bounding_box"></line><line x1="0" x2="1200" y1="50" y2="50" class="stroke_order_diagram--guide_line"></line><line x1="50" x2="50" y1="1" y2="99" class="stroke_order_diagram--guide_line"></line><line x1="99" x2="99" y1="1" y2="99" class="stroke_order_diagram--bounding_box"></line><path id="kvg:09ecd-s1" kvg:type="㇒" d="M71.29,10c-0.37,1.01-1.06,1.73-2.07,2.15C63.3,15.83,48.88,20.58,30.01,23" transform="matrix(1,0,0,1,-4,-4)" class="stroke_order_diagram--current_path"></path><path id="pathSk93xdzq0774" kvg:type="㇒" d="M71.29,10c-0.37,1.01-1.06,1.73-2.07,2.15C63.3,15.83,48.88,20.58,30.01,23" transform="matrix(1,0,0,1,-4,-4)" class="stroke_order_diagram--current_path"></path><circle cx="71.29" cy="10" r="8" class="stroke_order_diagram--path_start" transform="matrix(1,0,0,1,-4,-4)"></circle><line x1="150" x2="150" y1="1" y2="99" class="stroke_order_diagram--guide_line"></line><line x1="199" x2="199" y1="1" y2="99" class="stroke_order_diagram--bounding_box"></line><path id="pathSk93xdzq0777" kvg:type="㇒" d="M71.29,10c-0.37,1.01-1.06,1.73-2.07,2.15C63.3,15.83,48.88,20.58,30.01,23" transform="matrix(1,0,0,1,96,-4)" class="stroke_order_diagram--existing_path"></path><path id="kvg:09ecd-s2" kvg:type="㇐" d="M21.6,30.5c3.57,0.85,7.1,0.54,10.77,0.2c12.88-1.2,32.51-2.95,45.88-3.52c3.58-0.15,7.33-0.16,10.86,0.44" transform="matrix(1,0,0,1,96,-4)" class="stroke_order_diagram--current_path"></path><path id="pathSk93xdzq0779" kvg:type="㇐" d="M21.6,30.5c3.57,0.85,7.1,0.54,10.77,0.2c12.88-1.2,32.51-2.95,45.88-3.52c3.58-0.15,7.33-0.16,10.86,0.44" transform="matrix(1,0,0,1,96,-4)" class="stroke_order_diagram--current_path"></path><circle cx="21.6" cy="30.5" r="8" class="stroke_order_diagram--path_start" transform="matrix(1,0,0,1,96,-4)"></circle><line x1="250" x2="250" y1="1" y2="99" class="stroke_order_diagram--guide_line"></line><line x1="299" x2="299" y1="1" y2="99" class="stroke_order_diagram--bounding_box"></line><path id="pathSk93xdzq077c" kvg:type="㇒" d="M71.29,10c-0.37,1.01-1.06,1.73-2.07,2.15C63.3,15.83,48.88,20.58,30.01,23" transform="matrix(1,0,0,1,196,-4)" class="stroke_order_diagram--existing_path"></path><path id="pathSk93xdzq077d" kvg:type="㇐" d="M21.6,30.5c3.57,0.85,7.1,0.54,10.77,0.2c12.88-1.2,32.51-2.95,45.88-3.52c3.58-0.15,7.33-0.16,10.86,0.44" transform="matrix(1,0,0,1,196,-4)" class="stroke_order_diagram--existing_path"></path><path id="kvg:09ecd-s3" kvg:type="㇑" d="M53.77,21.5c0.86,0.86,1.19,1.75,1.19,2.97c0,2.41-0.09,16.16-0.09,22.53" transform="matrix(1,0,0,1,196,-4)" class="stroke_order_diagram--current_path"></path><path id="pathSk93xdzq077f" kvg:type="㇑" d="M53.77,21.5c0.86,0.86,1.19,1.75,1.19,2.97c0,2.41-0.09,16.16-0.09,22.53" transform="matrix(1,0,0,1,196,-4)" class="stroke_order_diagram--current_path"></path><circle cx="53.77" cy="21.5" r="8" class="stroke_order_diagram--path_start" transform="matrix(1,0,0,1,196,-4)"></circle><line x1="350" x2="350" y1="1" y2="99" class="stroke_order_diagram--guide_line"></line><line x1="399" x2="399" y1="1" y2="99" class="stroke_order_diagram--bounding_box"></line><path id="pathSk93xdzq077i" kvg:type="㇒" d="M71.29,10c-0.37,1.01-1.06,1.73-2.07,2.15C63.3,15.83,48.88,20.58,30.01,23" transform="matrix(1,0,0,1,296,-4)" class="stroke_order_diagram--existing_path"></path><path id="pathSk93xdzq077j" kvg:type="㇐" d="M21.6,30.5c3.57,0.85,7.1,0.54,10.77,0.2c12.88-1.2,32.51-2.95,45.88-3.52c3.58-0.15,7.33-0.16,10.86,0.44" transform="matrix(1,0,0,1,296,-4)" class="stroke_order_diagram--existing_path"></path><path id="pathSk93xdzq077k" kvg:type="㇑" d="M53.77,21.5c0.86,0.86,1.19,1.75,1.19,2.97c0,2.41-0.09,16.16-0.09,22.53" transform="matrix(1,0,0,1,296,-4)" class="stroke_order_diagram--existing_path"></path><path id="kvg:09ecd-s4" kvg:type="㇒" d="M52.15,29.09c-0.4,1.28-1.86,2.72-3.2,3.75c-8.82,6.78-17.82,13.28-32.2,17.82" transform="matrix(1,0,0,1,296,-4)" class="stroke_order_diagram--current_path"></path><path id="pathSk93xdzq077m" kvg:type="㇒" d="M52.15,29.09c-0.4,1.28-1.86,2.72-3.2,3.75c-8.82,6.78-17.82,13.28-32.2,17.82" transform="matrix(1,0,0,1,296,-4)" class="stroke_order_diagram--current_path"></path><circle cx="52.15" cy="29.09" r="8" class="stroke_order_diagram--path_start" transform="matrix(1,0,0,1,296,-4)"></circle><line x1="450" x2="450" y1="1" y2="99" class="stroke_order_diagram--guide_line"></line><line x1="499" x2="499" y1="1" y2="99" class="stroke_order_diagram--bounding_box"></line><path id="pathSk93xdzq077p" kvg:type="㇒" d="M71.29,10c-0.37,1.01-1.06,1.73-2.07,2.15C63.3,15.83,48.88,20.58,30.01,23" transform="matrix(1,0,0,1,396,-4)" class="stroke_order_diagram--existing_path"></path><path id="pathSk93xdzq077q" kvg:type="㇐" d="M21.6,30.5c3.57,0.85,7.1,0.54,10.77,0.2c12.88-1.2,32.51-2.95,45.88-3.52c3.58-0.15,7.33-0.16,10.86,0.44" transform="matrix(1,0,0,1,396,-4)" class="stroke_order_diagram--existing_path"></path><path id="pathSk93xdzq077r" kvg:type="㇑" d="M53.77,21.5c0.86,0.86,1.19,1.75,1.19,2.97c0,2.41-0.09,16.16-0.09,22.53" transform="matrix(1,0,0,1,396,-4)" class="stroke_order_diagram--existing_path"></path><path id="pathSk93xdzq077s" kvg:type="㇒" d="M52.15,29.09c-0.4,1.28-1.86,2.72-3.2,3.75c-8.82,6.78-17.82,13.28-32.2,17.82" transform="matrix(1,0,0,1,396,-4)" class="stroke_order_diagram--existing_path"></path><path id="kvg:09ecd-s5" kvg:type="㇔" d="M58.12,30.25c7.62,5.75,13.12,8.88,21.79,13.4c3.62,1.89,7.39,3.34,11.34,4.35" transform="matrix(1,0,0,1,396,-4)" class="stroke_order_diagram--current_path"></path><path id="pathSk93xdzq077u" kvg:type="㇔" d="M58.12,30.25c7.62,5.75,13.12,8.88,21.79,13.4c3.62,1.89,7.39,3.34,11.34,4.35" transform="matrix(1,0,0,1,396,-4)" class="stroke_order_diagram--current_path"></path><circle cx="58.12" cy="30.25" r="8" class="stroke_order_diagram--path_start" transform="matrix(1,0,0,1,396,-4)"></circle><line x1="550" x2="550" y1="1" y2="99" class="stroke_order_diagram--guide_line"></line><line x1="599" x2="599" y1="1" y2="99" class="stroke_order_diagram--bounding_box"></line><path id="pathSk93xdzq077x" kvg:type="㇒" d="M71.29,10c-0.37,1.01-1.06,1.73-2.07,2.15C63.3,15.83,48.88,20.58,30.01,23" transform="matrix(1,0,0,1,496,-4)" class="stroke_order_diagram--existing_path"></path><path id="pathSk93xdzq077y" kvg:type="㇐" d="M21.6,30.5c3.57,0.85,7.1,0.54,10.77,0.2c12.88-1.2,32.51-2.95,45.88-3.52c3.58-0.15,7.33-0.16,10.86,0.44" transform="matrix(1,0,0,1,496,-4)" class="stroke_order_diagram--existing_path"></path><path id="pathSk93xdzq077z" kvg:type="㇑" d="M53.77,21.5c0.86,0.86,1.19,1.75,1.19,2.97c0,2.41-0.09,16.16-0.09,22.53" transform="matrix(1,0,0,1,496,-4)" class="stroke_order_diagram--existing_path"></path><path id="pathSk93xdzq0780" kvg:type="㇒" d="M52.15,29.09c-0.4,1.28-1.86,2.72-3.2,3.75c-8.82,6.78-17.82,13.28-32.2,17.82" transform="matrix(1,0,0,1,496,-4)" class="stroke_order_diagram--existing_path"></path><path id="pathSk93xdzq0781" kvg:type="㇔" d="M58.12,30.25c7.62,5.75,13.12,8.88,21.79,13.4c3.62,1.89,7.39,3.34,11.34,4.35" transform="matrix(1,0,0,1,496,-4)" class="stroke_order_diagram--existing_path"></path><path id="kvg:09ecd-s6" kvg:type="㇒" d="M53.5,47.5c-0.29,1.31-0.93,2.39-1.9,3.23c-5.58,5.54-17.11,14.31-38.1,21.02" transform="matrix(1,0,0,1,496,-4)" class="stroke_order_diagram--current_path"></path><path id="pathSk93xdzq0783" kvg:type="㇒" d="M53.5,47.5c-0.29,1.31-0.93,2.39-1.9,3.23c-5.58,5.54-17.11,14.31-38.1,21.02" transform="matrix(1,0,0,1,496,-4)" class="stroke_order_diagram--current_path"></path><circle cx="53.5" cy="47.5" r="8" class="stroke_order_diagram--path_start" transform="matrix(1,0,0,1,496,-4)"></circle><line x1="650" x2="650" y1="1" y2="99" class="stroke_order_diagram--guide_line"></line><line x1="699" x2="699" y1="1" y2="99" class="stroke_order_diagram--bounding_box"></line><path id="pathSk93xdzq0786" kvg:type="㇒" d="M71.29,10c-0.37,1.01-1.06,1.73-2.07,2.15C63.3,15.83,48.88,20.58,30.01,23" transform="matrix(1,0,0,1,596,-4)" class="stroke_order_diagram--existing_path"></path><path id="pathSk93xdzq0787" kvg:type="㇐" d="M21.6,30.5c3.57,0.85,7.1,0.54,10.77,0.2c12.88-1.2,32.51-2.95,45.88-3.52c3.58-0.15,7.33-0.16,10.86,0.44" transform="matrix(1,0,0,1,596,-4)" class="stroke_order_diagram--existing_path"></path><path id="pathSk93xdzq0788" kvg:type="㇑" d="M53.77,21.5c0.86,0.86,1.19,1.75,1.19,2.97c0,2.41-0.09,16.16-0.09,22.53" transform="matrix(1,0,0,1,596,-4)" class="stroke_order_diagram--existing_path"></path><path id="pathSk93xdzq0789" kvg:type="㇒" d="M52.15,29.09c-0.4,1.28-1.86,2.72-3.2,3.75c-8.82,6.78-17.82,13.28-32.2,17.82" transform="matrix(1,0,0,1,596,-4)" class="stroke_order_diagram--existing_path"></path><path id="pathSk93xdzq078a" kvg:type="㇔" d="M58.12,30.25c7.62,5.75,13.12,8.88,21.79,13.4c3.62,1.89,7.39,3.34,11.34,4.35" transform="matrix(1,0,0,1,596,-4)" class="stroke_order_diagram--existing_path"></path><path id="pathSk93xdzq078b" kvg:type="㇒" d="M53.5,47.5c-0.29,1.31-0.93,2.39-1.9,3.23c-5.58,5.54-17.11,14.31-38.1,21.02" transform="matrix(1,0,0,1,596,-4)" class="stroke_order_diagram--existing_path"></path><path id="kvg:09ecd-s7" kvg:type="㇏" d="M56.62,49.5C65,55.38,73.16,60.26,81.47,64.81c3.36,2.09,6.95,3.64,10.78,4.67" transform="matrix(1,0,0,1,596,-4)" class="stroke_order_diagram--current_path"></path><path id="pathSk93xdzq078d" kvg:type="㇏" d="M56.62,49.5C65,55.38,73.16,60.26,81.47,64.81c3.36,2.09,6.95,3.64,10.78,4.67" transform="matrix(1,0,0,1,596,-4)" class="stroke_order_diagram--current_path"></path><circle cx="56.62" cy="49.5" r="8" class="stroke_order_diagram--path_start" transform="matrix(1,0,0,1,596,-4)"></circle><line x1="750" x2="750" y1="1" y2="99" class="stroke_order_diagram--guide_line"></line><line x1="799" x2="799" y1="1" y2="99" class="stroke_order_diagram--bounding_box"></line><path id="pathSk93xdzq078g" kvg:type="㇒" d="M71.29,10c-0.37,1.01-1.06,1.73-2.07,2.15C63.3,15.83,48.88,20.58,30.01,23" transform="matrix(1,0,0,1,696,-4)" class="stroke_order_diagram--existing_path"></path><path id="pathSk93xdzq078h" kvg:type="㇐" d="M21.6,30.5c3.57,0.85,7.1,0.54,10.77,0.2c12.88-1.2,32.51-2.95,45.88-3.52c3.58-0.15,7.33-0.16,10.86,0.44" transform="matrix(1,0,0,1,696,-4)" class="stroke_order_diagram--existing_path"></path><path id="pathSk93xdzq078i" kvg:type="㇑" d="M53.77,21.5c0.86,0.86,1.19,1.75,1.19,2.97c0,2.41-0.09,16.16-0.09,22.53" transform="matrix(1,0,0,1,696,-4)" class="stroke_order_diagram--existing_path"></path><path id="pathSk93xdzq078j" kvg:type="㇒" d="M52.15,29.09c-0.4,1.28-1.86,2.72-3.2,3.75c-8.82,6.78-17.82,13.28-32.2,17.82" transform="matrix(1,0,0,1,696,-4)" class="stroke_order_diagram--existing_path"></path><path id="pathSk93xdzq078k" kvg:type="㇔" d="M58.12,30.25c7.62,5.75,13.12,8.88,21.79,13.4c3.62,1.89,7.39,3.34,11.34,4.35" transform="matrix(1,0,0,1,696,-4)" class="stroke_order_diagram--existing_path"></path><path id="pathSk93xdzq078l" kvg:type="㇒" d="M53.5,47.5c-0.29,1.31-0.93,2.39-1.9,3.23c-5.58,5.54-17.11,14.31-38.1,21.02" transform="matrix(1,0,0,1,696,-4)" class="stroke_order_diagram--existing_path"></path><path id="pathSk93xdzq078m" kvg:type="㇏" d="M56.62,49.5C65,55.38,73.16,60.26,81.47,64.81c3.36,2.09,6.95,3.64,10.78,4.67" transform="matrix(1,0,0,1,696,-4)" class="stroke_order_diagram--existing_path"></path><path id="kvg:09ecd-s8" kvg:type="㇚" d="M54.75,59.25c0.73,0.73,0.99,1.92,0.99,3.61c0,14.34-0.11,25.75-0.11,29.66c0,8.32-5.7,1.19-6.88,0.2" transform="matrix(1,0,0,1,696,-4)" class="stroke_order_diagram--current_path"></path><path id="pathSk93xdzq078o" kvg:type="㇚" d="M54.75,59.25c0.73,0.73,0.99,1.92,0.99,3.61c0,14.34-0.11,25.75-0.11,29.66c0,8.32-5.7,1.19-6.88,0.2" transform="matrix(1,0,0,1,696,-4)" class="stroke_order_diagram--current_path"></path><circle cx="54.75" cy="59.25" r="8" class="stroke_order_diagram--path_start" transform="matrix(1,0,0,1,696,-4)"></circle><line x1="850" x2="850" y1="1" y2="99" class="stroke_order_diagram--guide_line"></line><line x1="899" x2="899" y1="1" y2="99" class="stroke_order_diagram--bounding_box"></line><path id="pathSk93xdzq078r" kvg:type="㇒" d="M71.29,10c-0.37,1.01-1.06,1.73-2.07,2.15C63.3,15.83,48.88,20.58,30.01,23" transform="matrix(1,0,0,1,796,-4)" class="stroke_order_diagram--existing_path"></path><path id="pathSk93xdzq078s" kvg:type="㇐" d="M21.6,30.5c3.57,0.85,7.1,0.54,10.77,0.2c12.88-1.2,32.51-2.95,45.88-3.52c3.58-0.15,7.33-0.16,10.86,0.44" transform="matrix(1,0,0,1,796,-4)" class="stroke_order_diagram--existing_path"></path><path id="pathSk93xdzq078t" kvg:type="㇑" d="M53.77,21.5c0.86,0.86,1.19,1.75,1.19,2.97c0,2.41-0.09,16.16-0.09,22.53" transform="matrix(1,0,0,1,796,-4)" class="stroke_order_diagram--existing_path"></path><path id="pathSk93xdzq078u" kvg:type="㇒" d="M52.15,29.09c-0.4,1.28-1.86,2.72-3.2,3.75c-8.82,6.78-17.82,13.28-32.2,17.82" transform="matrix(1,0,0,1,796,-4)" class="stroke_order_diagram--existing_path"></path><path id="pathSk93xdzq078v" kvg:type="㇔" d="M58.12,30.25c7.62,5.75,13.12,8.88,21.79,13.4c3.62,1.89,7.39,3.34,11.34,4.35" transform="matrix(1,0,0,1,796,-4)" class="stroke_order_diagram--existing_path"></path><path id="pathSk93xdzq078w" kvg:type="㇒" d="M53.5,47.5c-0.29,1.31-0.93,2.39-1.9,3.23c-5.58,5.54-17.11,14.31-38.1,21.02" transform="matrix(1,0,0,1,796,-4)" class="stroke_order_diagram--existing_path"></path><path id="pathSk93xdzq078x" kvg:type="㇏" d="M56.62,49.5C65,55.38,73.16,60.26,81.47,64.81c3.36,2.09,6.95,3.64,10.78,4.67" transform="matrix(1,0,0,1,796,-4)" class="stroke_order_diagram--existing_path"></path><path id="pathSk93xdzq078y" kvg:type="㇚" d="M54.75,59.25c0.73,0.73,0.99,1.92,0.99,3.61c0,14.34-0.11,25.75-0.11,29.66c0,8.32-5.7,1.19-6.88,0.2" transform="matrix(1,0,0,1,796,-4)" class="stroke_order_diagram--existing_path"></path><path id="kvg:09ecd-s9" kvg:type="㇔" d="M36,67.75c3.18,1.5,8.21,6.17,9,8.5" transform="matrix(1,0,0,1,796,-4)" class="stroke_order_diagram--current_path"></path><path id="pathSk93xdzq0790" kvg:type="㇔" d="M36,67.75c3.18,1.5,8.21,6.17,9,8.5" transform="matrix(1,0,0,1,796,-4)" class="stroke_order_diagram--current_path"></path><circle cx="36" cy="67.75" r="8" class="stroke_order_diagram--path_start" transform="matrix(1,0,0,1,796,-4)"></circle><line x1="950" x2="950" y1="1" y2="99" class="stroke_order_diagram--guide_line"></line><line x1="999" x2="999" y1="1" y2="99" class="stroke_order_diagram--bounding_box"></line><path id="pathSk93xdzq0793" kvg:type="㇒" d="M71.29,10c-0.37,1.01-1.06,1.73-2.07,2.15C63.3,15.83,48.88,20.58,30.01,23" transform="matrix(1,0,0,1,896,-4)" class="stroke_order_diagram--existing_path"></path><path id="pathSk93xdzq0794" kvg:type="㇐" d="M21.6,30.5c3.57,0.85,7.1,0.54,10.77,0.2c12.88-1.2,32.51-2.95,45.88-3.52c3.58-0.15,7.33-0.16,10.86,0.44" transform="matrix(1,0,0,1,896,-4)" class="stroke_order_diagram--existing_path"></path><path id="pathSk93xdzq0795" kvg:type="㇑" d="M53.77,21.5c0.86,0.86,1.19,1.75,1.19,2.97c0,2.41-0.09,16.16-0.09,22.53" transform="matrix(1,0,0,1,896,-4)" class="stroke_order_diagram--existing_path"></path><path id="pathSk93xdzq0796" kvg:type="㇒" d="M52.15,29.09c-0.4,1.28-1.86,2.72-3.2,3.75c-8.82,6.78-17.82,13.28-32.2,17.82" transform="matrix(1,0,0,1,896,-4)" class="stroke_order_diagram--existing_path"></path><path id="pathSk93xdzq0797" kvg:type="㇔" d="M58.12,30.25c7.62,5.75,13.12,8.88,21.79,13.4c3.62,1.89,7.39,3.34,11.34,4.35" transform="matrix(1,0,0,1,896,-4)" class="stroke_order_diagram--existing_path"></path><path id="pathSk93xdzq0798" kvg:type="㇒" d="M53.5,47.5c-0.29,1.31-0.93,2.39-1.9,3.23c-5.58,5.54-17.11,14.31-38.1,21.02" transform="matrix(1,0,0,1,896,-4)" class="stroke_order_diagram--existing_path"></path><path id="pathSk93xdzq0799" kvg:type="㇏" d="M56.62,49.5C65,55.38,73.16,60.26,81.47,64.81c3.36,2.09,6.95,3.64,10.78,4.67" transform="matrix(1,0,0,1,896,-4)" class="stroke_order_diagram--existing_path"></path><path id="pathSk93xdzq079a" kvg:type="㇚" d="M54.75,59.25c0.73,0.73,0.99,1.92,0.99,3.61c0,14.34-0.11,25.75-0.11,29.66c0,8.32-5.7,1.19-6.88,0.2" transform="matrix(1,0,0,1,896,-4)" class="stroke_order_diagram--existing_path"></path><path id="pathSk93xdzq079b" kvg:type="㇔" d="M36,67.75c3.18,1.5,8.21,6.17,9,8.5" transform="matrix(1,0,0,1,896,-4)" class="stroke_order_diagram--existing_path"></path><path id="kvg:09ecd-s10" kvg:type="㇀" d="M28,91.86c1.62,0.77,2.77,0.7,4.61-0.45c4.26-2.66,9.38-6.26,13.89-9.66" transform="matrix(1,0,0,1,896,-4)" class="stroke_order_diagram--current_path"></path><path id="pathSk93xdzq079d" kvg:type="㇀" d="M28,91.86c1.62,0.77,2.77,0.7,4.61-0.45c4.26-2.66,9.38-6.26,13.89-9.66" transform="matrix(1,0,0,1,896,-4)" class="stroke_order_diagram--current_path"></path><circle cx="28" cy="91.86" r="8" class="stroke_order_diagram--path_start" transform="matrix(1,0,0,1,896,-4)"></circle><line x1="1050" x2="1050" y1="1" y2="99" class="stroke_order_diagram--guide_line"></line><line x1="1099" x2="1099" y1="1" y2="99" class="stroke_order_diagram--bounding_box"></line><path id="pathSk93xdzq079g" kvg:type="㇒" d="M71.29,10c-0.37,1.01-1.06,1.73-2.07,2.15C63.3,15.83,48.88,20.58,30.01,23" transform="matrix(1,0,0,1,996,-4)" class="stroke_order_diagram--existing_path"></path><path id="pathSk93xdzq079h" kvg:type="㇐" d="M21.6,30.5c3.57,0.85,7.1,0.54,10.77,0.2c12.88-1.2,32.51-2.95,45.88-3.52c3.58-0.15,7.33-0.16,10.86,0.44" transform="matrix(1,0,0,1,996,-4)" class="stroke_order_diagram--existing_path"></path><path id="pathSk93xdzq079i" kvg:type="㇑" d="M53.77,21.5c0.86,0.86,1.19,1.75,1.19,2.97c0,2.41-0.09,16.16-0.09,22.53" transform="matrix(1,0,0,1,996,-4)" class="stroke_order_diagram--existing_path"></path><path id="pathSk93xdzq079j" kvg:type="㇒" d="M52.15,29.09c-0.4,1.28-1.86,2.72-3.2,3.75c-8.82,6.78-17.82,13.28-32.2,17.82" transform="matrix(1,0,0,1,996,-4)" class="stroke_order_diagram--existing_path"></path><path id="pathSk93xdzq079k" kvg:type="㇔" d="M58.12,30.25c7.62,5.75,13.12,8.88,21.79,13.4c3.62,1.89,7.39,3.34,11.34,4.35" transform="matrix(1,0,0,1,996,-4)" class="stroke_order_diagram--existing_path"></path><path id="pathSk93xdzq079l" kvg:type="㇒" d="M53.5,47.5c-0.29,1.31-0.93,2.39-1.9,3.23c-5.58,5.54-17.11,14.31-38.1,21.02" transform="matrix(1,0,0,1,996,-4)" class="stroke_order_diagram--existing_path"></path><path id="pathSk93xdzq079m" kvg:type="㇏" d="M56.62,49.5C65,55.38,73.16,60.26,81.47,64.81c3.36,2.09,6.95,3.64,10.78,4.67" transform="matrix(1,0,0,1,996,-4)" class="stroke_order_diagram--existing_path"></path><path id="pathSk93xdzq079n" kvg:type="㇚" d="M54.75,59.25c0.73,0.73,0.99,1.92,0.99,3.61c0,14.34-0.11,25.75-0.11,29.66c0,8.32-5.7,1.19-6.88,0.2" transform="matrix(1,0,0,1,996,-4)" class="stroke_order_diagram--existing_path"></path><path id="pathSk93xdzq079o" kvg:type="㇔" d="M36,67.75c3.18,1.5,8.21,6.17,9,8.5" transform="matrix(1,0,0,1,996,-4)" class="stroke_order_diagram--existing_path"></path><path id="pathSk93xdzq079p" kvg:type="㇀" d="M28,91.86c1.62,0.77,2.77,0.7,4.61-0.45c4.26-2.66,9.38-6.26,13.89-9.66" transform="matrix(1,0,0,1,996,-4)" class="stroke_order_diagram--existing_path"></path><path id="kvg:09ecd-s11" kvg:type="㇒" d="M72.52,65.64c-0.04,0.79-0.49,1.53-1,2.09c-2.4,2.64-4.65,4.52-8.72,7.23" transform="matrix(1,0,0,1,996,-4)" class="stroke_order_diagram--current_path"></path><path id="pathSk93xdzq079r" kvg:type="㇒" d="M72.52,65.64c-0.04,0.79-0.49,1.53-1,2.09c-2.4,2.64-4.65,4.52-8.72,7.23" transform="matrix(1,0,0,1,996,-4)" class="stroke_order_diagram--current_path"></path><circle cx="72.52" cy="65.64" r="8" class="stroke_order_diagram--path_start" transform="matrix(1,0,0,1,996,-4)"></circle><line x1="1150" x2="1150" y1="1" y2="99" class="stroke_order_diagram--guide_line"></line><line x1="1199" x2="1199" y1="1" y2="99" class="stroke_order_diagram--bounding_box"></line><path id="pathSk93xdzq079u" kvg:type="㇒" d="M71.29,10c-0.37,1.01-1.06,1.73-2.07,2.15C63.3,15.83,48.88,20.58,30.01,23" transform="matrix(1,0,0,1,1096,-4)" class="stroke_order_diagram--existing_path"></path><path id="pathSk93xdzq079v" kvg:type="㇐" d="M21.6,30.5c3.57,0.85,7.1,0.54,10.77,0.2c12.88-1.2,32.51-2.95,45.88-3.52c3.58-0.15,7.33-0.16,10.86,0.44" transform="matrix(1,0,0,1,1096,-4)" class="stroke_order_diagram--existing_path"></path><path id="pathSk93xdzq079w" kvg:type="㇑" d="M53.77,21.5c0.86,0.86,1.19,1.75,1.19,2.97c0,2.41-0.09,16.16-0.09,22.53" transform="matrix(1,0,0,1,1096,-4)" class="stroke_order_diagram--existing_path"></path><path id="pathSk93xdzq079x" kvg:type="㇒" d="M52.15,29.09c-0.4,1.28-1.86,2.72-3.2,3.75c-8.82,6.78-17.82,13.28-32.2,17.82" transform="matrix(1,0,0,1,1096,-4)" class="stroke_order_diagram--existing_path"></path><path id="pathSk93xdzq079y" kvg:type="㇔" d="M58.12,30.25c7.62,5.75,13.12,8.88,21.79,13.4c3.62,1.89,7.39,3.34,11.34,4.35" transform="matrix(1,0,0,1,1096,-4)" class="stroke_order_diagram--existing_path"></path><path id="pathSk93xdzq079z" kvg:type="㇒" d="M53.5,47.5c-0.29,1.31-0.93,2.39-1.9,3.23c-5.58,5.54-17.11,14.31-38.1,21.02" transform="matrix(1,0,0,1,1096,-4)" class="stroke_order_diagram--existing_path"></path><path id="pathSk93xdzq07a0" kvg:type="㇏" d="M56.62,49.5C65,55.38,73.16,60.26,81.47,64.81c3.36,2.09,6.95,3.64,10.78,4.67" transform="matrix(1,0,0,1,1096,-4)" class="stroke_order_diagram--existing_path"></path><path id="pathSk93xdzq07a1" kvg:type="㇚" d="M54.75,59.25c0.73,0.73,0.99,1.92,0.99,3.61c0,14.34-0.11,25.75-0.11,29.66c0,8.32-5.7,1.19-6.88,0.2" transform="matrix(1,0,0,1,1096,-4)" class="stroke_order_diagram--existing_path"></path><path id="pathSk93xdzq07a2" kvg:type="㇔" d="M36,67.75c3.18,1.5,8.21,6.17,9,8.5" transform="matrix(1,0,0,1,1096,-4)" class="stroke_order_diagram--existing_path"></path><path id="pathSk93xdzq07a3" kvg:type="㇀" d="M28,91.86c1.62,0.77,2.77,0.7,4.61-0.45c4.26-2.66,9.38-6.26,13.89-9.66" transform="matrix(1,0,0,1,1096,-4)" class="stroke_order_diagram--existing_path"></path><path id="pathSk93xdzq07a4" kvg:type="㇒" d="M72.52,65.64c-0.04,0.79-0.49,1.53-1,2.09c-2.4,2.64-4.65,4.52-8.72,7.23" transform="matrix(1,0,0,1,1096,-4)" class="stroke_order_diagram--existing_path"></path><path id="kvg:09ecd-s12" kvg:type="㇔" d="M61.75,79.75c4.96,1.67,17.38,8.88,22.57,15.53" transform="matrix(1,0,0,1,1096,-4)" class="stroke_order_diagram--current_path"></path><path id="pathSk93xdzq07a6" kvg:type="㇔" d="M61.75,79.75c4.96,1.67,17.38,8.88,22.57,15.53" transform="matrix(1,0,0,1,1096,-4)" class="stroke_order_diagram--current_path"></path><circle cx="61.75" cy="79.75" r="8" class="stroke_order_diagram--path_start" transform="matrix(1,0,0,1,1096,-4)"></circle></svg>