<?xml version="1.0" encoding="UTF-8"?>
<!DOCTYPE svg PUBLIC "-//W3C//DTD SVG 1.0//EN" "http://www.w3.org/TR/2001/REC-SVG-20010904/DTD/svg10.dtd" [
<!ATTLIST g
xmlns:kvg CDATA #FIXED "http://kanjivg.tagaini.net"
kvg:element CDATA #IMPLIED
kvg:variant CDATA #IMPLIED
kvg:partial CDATA #IMPLIED
kvg:original CDATA #IMPLIED
kvg:part CDATA #IMPLIED
kvg:number CDATA #IMPLIED
kvg:tradForm CDATA #IMPLIED
kvg:radicalForm CDATA #IMPLIED
kvg:position CDATA #IMPLIED
kvg:radical CDATA #IMPLIED
kvg:phon CDATA #IMPLIED >
<!ATTLIST path
xmlns:kvg CDATA #FIXED "http://kanjivg.tagaini.net"
kvg:type CDATA #IMPLIED >
]><svg style="width: 1100px; height: 100px;" xmlns="http://www.w3.org/2000/svg" xmlns:xlink="http://www.w3.org/1999/xlink" width="1100px" height="100px"><style>
.stroke_order_diagram--outer_container {
  width: 100%;
  overflow-x: auto;
  overflow-y: hidden;
}

.stroke_order_diagram--guide_line {
  fill: none;
  stroke: #ddd;
  stroke-width: 3;
  stroke-linecap: square;
  stroke-linejoin: square;
  stroke-dasharray:8, 8;
}

.stroke_order_diagram--bounding_box {
  fill: none;
  stroke: #ddd;
  stroke-width: 4;
  stroke-linecap: square;
  stroke-linejoin: square;
}

.stroke_order_diagram--current_path {
  fill: none;
  stroke: #000;
  stroke-width: 6;
  stroke-linecap: round;
  stroke-linejoin: round;
}

.stroke_order_diagram--existing_path {
  fill: none;
  stroke: #aaa;
  stroke-width: 6;
  stroke-linecap: round;
  stroke-linejoin:round;
}

.stroke_order_diagram--path_start {
  fill: rgba(255, 0, 0, 0.7);
  stroke:none
}</style><desc>Created with Snap</desc><defs></defs><line x1="1" x2="1099" y1="1" y2="1" class="stroke_order_diagram--bounding_box"></line><line x1="1" x2="1" y1="1" y2="99" class="stroke_order_diagram--bounding_box"></line><line x1="1" x2="1099" y1="99" y2="99" class="stroke_order_diagram--bounding_box"></line><line x1="0" x2="1100" y1="50" y2="50" class="stroke_order_diagram--guide_line"></line><line x1="50" x2="50" y1="1" y2="99" class="stroke_order_diagram--guide_line"></line><line x1="99" x2="99" y1="1" y2="99" class="stroke_order_diagram--bounding_box"></line><path id="kvg:09ec4-s1" kvg:type="㇐" d="M28.38,27.18c1.64,0.37,4.65,0.54,6.28,0.37c12.34-1.3,29.84-3.43,41.36-4.26c2.72-0.2,4.37,0.18,5.73,0.36" transform="matrix(1,0,0,1,-4,-4)" class="stroke_order_diagram--current_path"></path><path id="pathSk940yk7k73v" kvg:type="㇐" d="M28.38,27.18c1.64,0.37,4.65,0.54,6.28,0.37c12.34-1.3,29.84-3.43,41.36-4.26c2.72-0.2,4.37,0.18,5.73,0.36" transform="matrix(1,0,0,1,-4,-4)" class="stroke_order_diagram--current_path"></path><circle cx="28.38" cy="27.18" r="8" class="stroke_order_diagram--path_start" transform="matrix(1,0,0,1,-4,-4)"></circle><line x1="150" x2="150" y1="1" y2="99" class="stroke_order_diagram--guide_line"></line><line x1="199" x2="199" y1="1" y2="99" class="stroke_order_diagram--bounding_box"></line><path id="pathSk940yk7k73y" kvg:type="㇐" d="M28.38,27.18c1.64,0.37,4.65,0.54,6.28,0.37c12.34-1.3,29.84-3.43,41.36-4.26c2.72-0.2,4.37,0.18,5.73,0.36" transform="matrix(1,0,0,1,96,-4)" class="stroke_order_diagram--existing_path"></path><path id="kvg:09ec4-s2" kvg:type="㇑a" d="M39.54,12.38c0.85,0.41,2.46,1.87,2.7,3.84c0.68,5.49,1.6,15.39,2.5,25.03" transform="matrix(1,0,0,1,96,-4)" class="stroke_order_diagram--current_path"></path><path id="pathSk940yk7k740" kvg:type="㇑a" d="M39.54,12.38c0.85,0.41,2.46,1.87,2.7,3.84c0.68,5.49,1.6,15.39,2.5,25.03" transform="matrix(1,0,0,1,96,-4)" class="stroke_order_diagram--current_path"></path><circle cx="39.54" cy="12.38" r="8" class="stroke_order_diagram--path_start" transform="matrix(1,0,0,1,96,-4)"></circle><line x1="250" x2="250" y1="1" y2="99" class="stroke_order_diagram--guide_line"></line><line x1="299" x2="299" y1="1" y2="99" class="stroke_order_diagram--bounding_box"></line><path id="pathSk940yk7k743" kvg:type="㇐" d="M28.38,27.18c1.64,0.37,4.65,0.54,6.28,0.37c12.34-1.3,29.84-3.43,41.36-4.26c2.72-0.2,4.37,0.18,5.73,0.36" transform="matrix(1,0,0,1,196,-4)" class="stroke_order_diagram--existing_path"></path><path id="pathSk940yk7k744" kvg:type="㇑a" d="M39.54,12.38c0.85,0.41,2.46,1.87,2.7,3.84c0.68,5.49,1.6,15.39,2.5,25.03" transform="matrix(1,0,0,1,196,-4)" class="stroke_order_diagram--existing_path"></path><path id="kvg:09ec4-s3" kvg:type="㇑a" d="M65.06,10.13c0.76,0.45,1.69,2.37,1.51,4.25c-0.52,5.53-2,14.75-3.25,25" transform="matrix(1,0,0,1,196,-4)" class="stroke_order_diagram--current_path"></path><path id="pathSk940yk7k746" kvg:type="㇑a" d="M65.06,10.13c0.76,0.45,1.69,2.37,1.51,4.25c-0.52,5.53-2,14.75-3.25,25" transform="matrix(1,0,0,1,196,-4)" class="stroke_order_diagram--current_path"></path><circle cx="65.06" cy="10.13" r="8" class="stroke_order_diagram--path_start" transform="matrix(1,0,0,1,196,-4)"></circle><line x1="350" x2="350" y1="1" y2="99" class="stroke_order_diagram--guide_line"></line><line x1="399" x2="399" y1="1" y2="99" class="stroke_order_diagram--bounding_box"></line><path id="pathSk940yk7k749" kvg:type="㇐" d="M28.38,27.18c1.64,0.37,4.65,0.54,6.28,0.37c12.34-1.3,29.84-3.43,41.36-4.26c2.72-0.2,4.37,0.18,5.73,0.36" transform="matrix(1,0,0,1,296,-4)" class="stroke_order_diagram--existing_path"></path><path id="pathSk940yk7k74a" kvg:type="㇑a" d="M39.54,12.38c0.85,0.41,2.46,1.87,2.7,3.84c0.68,5.49,1.6,15.39,2.5,25.03" transform="matrix(1,0,0,1,296,-4)" class="stroke_order_diagram--existing_path"></path><path id="pathSk940yk7k74b" kvg:type="㇑a" d="M65.06,10.13c0.76,0.45,1.69,2.37,1.51,4.25c-0.52,5.53-2,14.75-3.25,25" transform="matrix(1,0,0,1,296,-4)" class="stroke_order_diagram--existing_path"></path><path id="kvg:09ec4-s4" kvg:type="㇐" d="M14.88,43.73c2.22,0.54,6.3,0.75,8.5,0.54c18.5-1.77,45.62-4.89,63.62-5.23c3.69-0.07,5.91,0.26,7.76,0.53" transform="matrix(1,0,0,1,296,-4)" class="stroke_order_diagram--current_path"></path><path id="pathSk940yk7k74d" kvg:type="㇐" d="M14.88,43.73c2.22,0.54,6.3,0.75,8.5,0.54c18.5-1.77,45.62-4.89,63.62-5.23c3.69-0.07,5.91,0.26,7.76,0.53" transform="matrix(1,0,0,1,296,-4)" class="stroke_order_diagram--current_path"></path><circle cx="14.88" cy="43.73" r="8" class="stroke_order_diagram--path_start" transform="matrix(1,0,0,1,296,-4)"></circle><line x1="450" x2="450" y1="1" y2="99" class="stroke_order_diagram--guide_line"></line><line x1="499" x2="499" y1="1" y2="99" class="stroke_order_diagram--bounding_box"></line><path id="pathSk940yk7k74g" kvg:type="㇐" d="M28.38,27.18c1.64,0.37,4.65,0.54,6.28,0.37c12.34-1.3,29.84-3.43,41.36-4.26c2.72-0.2,4.37,0.18,5.73,0.36" transform="matrix(1,0,0,1,396,-4)" class="stroke_order_diagram--existing_path"></path><path id="pathSk940yk7k74h" kvg:type="㇑a" d="M39.54,12.38c0.85,0.41,2.46,1.87,2.7,3.84c0.68,5.49,1.6,15.39,2.5,25.03" transform="matrix(1,0,0,1,396,-4)" class="stroke_order_diagram--existing_path"></path><path id="pathSk940yk7k74i" kvg:type="㇑a" d="M65.06,10.13c0.76,0.45,1.69,2.37,1.51,4.25c-0.52,5.53-2,14.75-3.25,25" transform="matrix(1,0,0,1,396,-4)" class="stroke_order_diagram--existing_path"></path><path id="pathSk940yk7k74j" kvg:type="㇐" d="M14.88,43.73c2.22,0.54,6.3,0.75,8.5,0.54c18.5-1.77,45.62-4.89,63.62-5.23c3.69-0.07,5.91,0.26,7.76,0.53" transform="matrix(1,0,0,1,396,-4)" class="stroke_order_diagram--existing_path"></path><path id="kvg:09ec4-s5" kvg:type="㇑" d="M30.22,53.37c1.2,1.2,1.78,2.25,2.13,3.65c0.91,3.61,2.1,10.5,3.13,17.76c0.27,1.91,0.51,3.83,0.7,5.71" transform="matrix(1,0,0,1,396,-4)" class="stroke_order_diagram--current_path"></path><path id="pathSk940yk7k74l" kvg:type="㇑" d="M30.22,53.37c1.2,1.2,1.78,2.25,2.13,3.65c0.91,3.61,2.1,10.5,3.13,17.76c0.27,1.91,0.51,3.83,0.7,5.71" transform="matrix(1,0,0,1,396,-4)" class="stroke_order_diagram--current_path"></path><circle cx="30.22" cy="53.37" r="8" class="stroke_order_diagram--path_start" transform="matrix(1,0,0,1,396,-4)"></circle><line x1="550" x2="550" y1="1" y2="99" class="stroke_order_diagram--guide_line"></line><line x1="599" x2="599" y1="1" y2="99" class="stroke_order_diagram--bounding_box"></line><path id="pathSk940yk7k74o" kvg:type="㇐" d="M28.38,27.18c1.64,0.37,4.65,0.54,6.28,0.37c12.34-1.3,29.84-3.43,41.36-4.26c2.72-0.2,4.37,0.18,5.73,0.36" transform="matrix(1,0,0,1,496,-4)" class="stroke_order_diagram--existing_path"></path><path id="pathSk940yk7k74p" kvg:type="㇑a" d="M39.54,12.38c0.85,0.41,2.46,1.87,2.7,3.84c0.68,5.49,1.6,15.39,2.5,25.03" transform="matrix(1,0,0,1,496,-4)" class="stroke_order_diagram--existing_path"></path><path id="pathSk940yk7k74q" kvg:type="㇑a" d="M65.06,10.13c0.76,0.45,1.69,2.37,1.51,4.25c-0.52,5.53-2,14.75-3.25,25" transform="matrix(1,0,0,1,496,-4)" class="stroke_order_diagram--existing_path"></path><path id="pathSk940yk7k74r" kvg:type="㇐" d="M14.88,43.73c2.22,0.54,6.3,0.75,8.5,0.54c18.5-1.77,45.62-4.89,63.62-5.23c3.69-0.07,5.91,0.26,7.76,0.53" transform="matrix(1,0,0,1,496,-4)" class="stroke_order_diagram--existing_path"></path><path id="pathSk940yk7k74s" kvg:type="㇑" d="M30.22,53.37c1.2,1.2,1.78,2.25,2.13,3.65c0.91,3.61,2.1,10.5,3.13,17.76c0.27,1.91,0.51,3.83,0.7,5.71" transform="matrix(1,0,0,1,496,-4)" class="stroke_order_diagram--existing_path"></path><path id="kvg:09ec4-s6" kvg:type="㇕a" d="M32.76,54.61c14.11-1.74,35.96-3.77,42.16-3.87c3.29-0.06,5.08,1.51,4.52,4.31c-0.72,3.62-1.94,9.95-3.99,17.62c-0.55,2.08-1.08,3.83-1.72,5.57" transform="matrix(1,0,0,1,496,-4)" class="stroke_order_diagram--current_path"></path><path id="pathSk940yk7k74u" kvg:type="㇕a" d="M32.76,54.61c14.11-1.74,35.96-3.77,42.16-3.87c3.29-0.06,5.08,1.51,4.52,4.31c-0.72,3.62-1.94,9.95-3.99,17.62c-0.55,2.08-1.08,3.83-1.72,5.57" transform="matrix(1,0,0,1,496,-4)" class="stroke_order_diagram--current_path"></path><circle cx="32.76" cy="54.61" r="8" class="stroke_order_diagram--path_start" transform="matrix(1,0,0,1,496,-4)"></circle><line x1="650" x2="650" y1="1" y2="99" class="stroke_order_diagram--guide_line"></line><line x1="699" x2="699" y1="1" y2="99" class="stroke_order_diagram--bounding_box"></line><path id="pathSk940yk7k74x" kvg:type="㇐" d="M28.38,27.18c1.64,0.37,4.65,0.54,6.28,0.37c12.34-1.3,29.84-3.43,41.36-4.26c2.72-0.2,4.37,0.18,5.73,0.36" transform="matrix(1,0,0,1,596,-4)" class="stroke_order_diagram--existing_path"></path><path id="pathSk940yk7k74y" kvg:type="㇑a" d="M39.54,12.38c0.85,0.41,2.46,1.87,2.7,3.84c0.68,5.49,1.6,15.39,2.5,25.03" transform="matrix(1,0,0,1,596,-4)" class="stroke_order_diagram--existing_path"></path><path id="pathSk940yk7k74z" kvg:type="㇑a" d="M65.06,10.13c0.76,0.45,1.69,2.37,1.51,4.25c-0.52,5.53-2,14.75-3.25,25" transform="matrix(1,0,0,1,596,-4)" class="stroke_order_diagram--existing_path"></path><path id="pathSk940yk7k750" kvg:type="㇐" d="M14.88,43.73c2.22,0.54,6.3,0.75,8.5,0.54c18.5-1.77,45.62-4.89,63.62-5.23c3.69-0.07,5.91,0.26,7.76,0.53" transform="matrix(1,0,0,1,596,-4)" class="stroke_order_diagram--existing_path"></path><path id="pathSk940yk7k751" kvg:type="㇑" d="M30.22,53.37c1.2,1.2,1.78,2.25,2.13,3.65c0.91,3.61,2.1,10.5,3.13,17.76c0.27,1.91,0.51,3.83,0.7,5.71" transform="matrix(1,0,0,1,596,-4)" class="stroke_order_diagram--existing_path"></path><path id="pathSk940yk7k752" kvg:type="㇕a" d="M32.76,54.61c14.11-1.74,35.96-3.77,42.16-3.87c3.29-0.06,5.08,1.51,4.52,4.31c-0.72,3.62-1.94,9.95-3.99,17.62c-0.55,2.08-1.08,3.83-1.72,5.57" transform="matrix(1,0,0,1,596,-4)" class="stroke_order_diagram--existing_path"></path><path id="kvg:09ec4-s7" kvg:type="㇑a" d="M52.72,44.59c0.91,0.91,1.5,2.16,1.5,3.91c0,5.86,0.08,20.74,0.13,27.25" transform="matrix(1,0,0,1,596,-4)" class="stroke_order_diagram--current_path"></path><path id="pathSk940yk7k754" kvg:type="㇑a" d="M52.72,44.59c0.91,0.91,1.5,2.16,1.5,3.91c0,5.86,0.08,20.74,0.13,27.25" transform="matrix(1,0,0,1,596,-4)" class="stroke_order_diagram--current_path"></path><circle cx="52.72" cy="44.59" r="8" class="stroke_order_diagram--path_start" transform="matrix(1,0,0,1,596,-4)"></circle><line x1="750" x2="750" y1="1" y2="99" class="stroke_order_diagram--guide_line"></line><line x1="799" x2="799" y1="1" y2="99" class="stroke_order_diagram--bounding_box"></line><path id="pathSk940yk7k757" kvg:type="㇐" d="M28.38,27.18c1.64,0.37,4.65,0.54,6.28,0.37c12.34-1.3,29.84-3.43,41.36-4.26c2.72-0.2,4.37,0.18,5.73,0.36" transform="matrix(1,0,0,1,696,-4)" class="stroke_order_diagram--existing_path"></path><path id="pathSk940yk7k758" kvg:type="㇑a" d="M39.54,12.38c0.85,0.41,2.46,1.87,2.7,3.84c0.68,5.49,1.6,15.39,2.5,25.03" transform="matrix(1,0,0,1,696,-4)" class="stroke_order_diagram--existing_path"></path><path id="pathSk940yk7k759" kvg:type="㇑a" d="M65.06,10.13c0.76,0.45,1.69,2.37,1.51,4.25c-0.52,5.53-2,14.75-3.25,25" transform="matrix(1,0,0,1,696,-4)" class="stroke_order_diagram--existing_path"></path><path id="pathSk940yk7k75a" kvg:type="㇐" d="M14.88,43.73c2.22,0.54,6.3,0.75,8.5,0.54c18.5-1.77,45.62-4.89,63.62-5.23c3.69-0.07,5.91,0.26,7.76,0.53" transform="matrix(1,0,0,1,696,-4)" class="stroke_order_diagram--existing_path"></path><path id="pathSk940yk7k75b" kvg:type="㇑" d="M30.22,53.37c1.2,1.2,1.78,2.25,2.13,3.65c0.91,3.61,2.1,10.5,3.13,17.76c0.27,1.91,0.51,3.83,0.7,5.71" transform="matrix(1,0,0,1,696,-4)" class="stroke_order_diagram--existing_path"></path><path id="pathSk940yk7k75c" kvg:type="㇕a" d="M32.76,54.61c14.11-1.74,35.96-3.77,42.16-3.87c3.29-0.06,5.08,1.51,4.52,4.31c-0.72,3.62-1.94,9.95-3.99,17.62c-0.55,2.08-1.08,3.83-1.72,5.57" transform="matrix(1,0,0,1,696,-4)" class="stroke_order_diagram--existing_path"></path><path id="pathSk940yk7k75d" kvg:type="㇑a" d="M52.72,44.59c0.91,0.91,1.5,2.16,1.5,3.91c0,5.86,0.08,20.74,0.13,27.25" transform="matrix(1,0,0,1,696,-4)" class="stroke_order_diagram--existing_path"></path><path id="kvg:09ec4-s8" kvg:type="㇐a" d="M35.63,66.57c3.9-0.24,37.81-3.69,41.03-3.69" transform="matrix(1,0,0,1,696,-4)" class="stroke_order_diagram--current_path"></path><path id="pathSk940yk7k75f" kvg:type="㇐a" d="M35.63,66.57c3.9-0.24,37.81-3.69,41.03-3.69" transform="matrix(1,0,0,1,696,-4)" class="stroke_order_diagram--current_path"></path><circle cx="35.63" cy="66.57" r="8" class="stroke_order_diagram--path_start" transform="matrix(1,0,0,1,696,-4)"></circle><line x1="850" x2="850" y1="1" y2="99" class="stroke_order_diagram--guide_line"></line><line x1="899" x2="899" y1="1" y2="99" class="stroke_order_diagram--bounding_box"></line><path id="pathSk940yk7k75i" kvg:type="㇐" d="M28.38,27.18c1.64,0.37,4.65,0.54,6.28,0.37c12.34-1.3,29.84-3.43,41.36-4.26c2.72-0.2,4.37,0.18,5.73,0.36" transform="matrix(1,0,0,1,796,-4)" class="stroke_order_diagram--existing_path"></path><path id="pathSk940yk7k75j" kvg:type="㇑a" d="M39.54,12.38c0.85,0.41,2.46,1.87,2.7,3.84c0.68,5.49,1.6,15.39,2.5,25.03" transform="matrix(1,0,0,1,796,-4)" class="stroke_order_diagram--existing_path"></path><path id="pathSk940yk7k75k" kvg:type="㇑a" d="M65.06,10.13c0.76,0.45,1.69,2.37,1.51,4.25c-0.52,5.53-2,14.75-3.25,25" transform="matrix(1,0,0,1,796,-4)" class="stroke_order_diagram--existing_path"></path><path id="pathSk940yk7k75l" kvg:type="㇐" d="M14.88,43.73c2.22,0.54,6.3,0.75,8.5,0.54c18.5-1.77,45.62-4.89,63.62-5.23c3.69-0.07,5.91,0.26,7.76,0.53" transform="matrix(1,0,0,1,796,-4)" class="stroke_order_diagram--existing_path"></path><path id="pathSk940yk7k75m" kvg:type="㇑" d="M30.22,53.37c1.2,1.2,1.78,2.25,2.13,3.65c0.91,3.61,2.1,10.5,3.13,17.76c0.27,1.91,0.51,3.83,0.7,5.71" transform="matrix(1,0,0,1,796,-4)" class="stroke_order_diagram--existing_path"></path><path id="pathSk940yk7k75n" kvg:type="㇕a" d="M32.76,54.61c14.11-1.74,35.96-3.77,42.16-3.87c3.29-0.06,5.08,1.51,4.52,4.31c-0.72,3.62-1.94,9.95-3.99,17.62c-0.55,2.08-1.08,3.83-1.72,5.57" transform="matrix(1,0,0,1,796,-4)" class="stroke_order_diagram--existing_path"></path><path id="pathSk940yk7k75o" kvg:type="㇑a" d="M52.72,44.59c0.91,0.91,1.5,2.16,1.5,3.91c0,5.86,0.08,20.74,0.13,27.25" transform="matrix(1,0,0,1,796,-4)" class="stroke_order_diagram--existing_path"></path><path id="pathSk940yk7k75p" kvg:type="㇐a" d="M35.63,66.57c3.9-0.24,37.81-3.69,41.03-3.69" transform="matrix(1,0,0,1,796,-4)" class="stroke_order_diagram--existing_path"></path><path id="kvg:09ec4-s9" kvg:type="㇐a" d="M37.55,78.72c11.07-1.22,22.49-2.4,35.78-3" transform="matrix(1,0,0,1,796,-4)" class="stroke_order_diagram--current_path"></path><path id="pathSk940yk7k75r" kvg:type="㇐a" d="M37.55,78.72c11.07-1.22,22.49-2.4,35.78-3" transform="matrix(1,0,0,1,796,-4)" class="stroke_order_diagram--current_path"></path><circle cx="37.55" cy="78.72" r="8" class="stroke_order_diagram--path_start" transform="matrix(1,0,0,1,796,-4)"></circle><line x1="950" x2="950" y1="1" y2="99" class="stroke_order_diagram--guide_line"></line><line x1="999" x2="999" y1="1" y2="99" class="stroke_order_diagram--bounding_box"></line><path id="pathSk940yk7k75u" kvg:type="㇐" d="M28.38,27.18c1.64,0.37,4.65,0.54,6.28,0.37c12.34-1.3,29.84-3.43,41.36-4.26c2.72-0.2,4.37,0.18,5.73,0.36" transform="matrix(1,0,0,1,896,-4)" class="stroke_order_diagram--existing_path"></path><path id="pathSk940yk7k75v" kvg:type="㇑a" d="M39.54,12.38c0.85,0.41,2.46,1.87,2.7,3.84c0.68,5.49,1.6,15.39,2.5,25.03" transform="matrix(1,0,0,1,896,-4)" class="stroke_order_diagram--existing_path"></path><path id="pathSk940yk7k75w" kvg:type="㇑a" d="M65.06,10.13c0.76,0.45,1.69,2.37,1.51,4.25c-0.52,5.53-2,14.75-3.25,25" transform="matrix(1,0,0,1,896,-4)" class="stroke_order_diagram--existing_path"></path><path id="pathSk940yk7k75x" kvg:type="㇐" d="M14.88,43.73c2.22,0.54,6.3,0.75,8.5,0.54c18.5-1.77,45.62-4.89,63.62-5.23c3.69-0.07,5.91,0.26,7.76,0.53" transform="matrix(1,0,0,1,896,-4)" class="stroke_order_diagram--existing_path"></path><path id="pathSk940yk7k75y" kvg:type="㇑" d="M30.22,53.37c1.2,1.2,1.78,2.25,2.13,3.65c0.91,3.61,2.1,10.5,3.13,17.76c0.27,1.91,0.51,3.83,0.7,5.71" transform="matrix(1,0,0,1,896,-4)" class="stroke_order_diagram--existing_path"></path><path id="pathSk940yk7k75z" kvg:type="㇕a" d="M32.76,54.61c14.11-1.74,35.96-3.77,42.16-3.87c3.29-0.06,5.08,1.51,4.52,4.31c-0.72,3.62-1.94,9.95-3.99,17.62c-0.55,2.08-1.08,3.83-1.72,5.57" transform="matrix(1,0,0,1,896,-4)" class="stroke_order_diagram--existing_path"></path><path id="pathSk940yk7k760" kvg:type="㇑a" d="M52.72,44.59c0.91,0.91,1.5,2.16,1.5,3.91c0,5.86,0.08,20.74,0.13,27.25" transform="matrix(1,0,0,1,896,-4)" class="stroke_order_diagram--existing_path"></path><path id="pathSk940yk7k761" kvg:type="㇐a" d="M35.63,66.57c3.9-0.24,37.81-3.69,41.03-3.69" transform="matrix(1,0,0,1,896,-4)" class="stroke_order_diagram--existing_path"></path><path id="pathSk940yk7k762" kvg:type="㇐a" d="M37.55,78.72c11.07-1.22,22.49-2.4,35.78-3" transform="matrix(1,0,0,1,896,-4)" class="stroke_order_diagram--existing_path"></path><path id="kvg:09ec4-s10" kvg:type="㇒" d="M42.63,84.62c0.18,1.03,0.18,1.8-1.56,3.47c-3.09,2.96-8.72,6.42-20.56,10.41" transform="matrix(1,0,0,1,896,-4)" class="stroke_order_diagram--current_path"></path><path id="pathSk940yk7k764" kvg:type="㇒" d="M42.63,84.62c0.18,1.03,0.18,1.8-1.56,3.47c-3.09,2.96-8.72,6.42-20.56,10.41" transform="matrix(1,0,0,1,896,-4)" class="stroke_order_diagram--current_path"></path><circle cx="42.63" cy="84.62" r="8" class="stroke_order_diagram--path_start" transform="matrix(1,0,0,1,896,-4)"></circle><line x1="1050" x2="1050" y1="1" y2="99" class="stroke_order_diagram--guide_line"></line><line x1="1099" x2="1099" y1="1" y2="99" class="stroke_order_diagram--bounding_box"></line><path id="pathSk940yk7k767" kvg:type="㇐" d="M28.38,27.18c1.64,0.37,4.65,0.54,6.28,0.37c12.34-1.3,29.84-3.43,41.36-4.26c2.72-0.2,4.37,0.18,5.73,0.36" transform="matrix(1,0,0,1,996,-4)" class="stroke_order_diagram--existing_path"></path><path id="pathSk940yk7k768" kvg:type="㇑a" d="M39.54,12.38c0.85,0.41,2.46,1.87,2.7,3.84c0.68,5.49,1.6,15.39,2.5,25.03" transform="matrix(1,0,0,1,996,-4)" class="stroke_order_diagram--existing_path"></path><path id="pathSk940yk7k769" kvg:type="㇑a" d="M65.06,10.13c0.76,0.45,1.69,2.37,1.51,4.25c-0.52,5.53-2,14.75-3.25,25" transform="matrix(1,0,0,1,996,-4)" class="stroke_order_diagram--existing_path"></path><path id="pathSk940yk7k76a" kvg:type="㇐" d="M14.88,43.73c2.22,0.54,6.3,0.75,8.5,0.54c18.5-1.77,45.62-4.89,63.62-5.23c3.69-0.07,5.91,0.26,7.76,0.53" transform="matrix(1,0,0,1,996,-4)" class="stroke_order_diagram--existing_path"></path><path id="pathSk940yk7k76b" kvg:type="㇑" d="M30.22,53.37c1.2,1.2,1.78,2.25,2.13,3.65c0.91,3.61,2.1,10.5,3.13,17.76c0.27,1.91,0.51,3.83,0.7,5.71" transform="matrix(1,0,0,1,996,-4)" class="stroke_order_diagram--existing_path"></path><path id="pathSk940yk7k76c" kvg:type="㇕a" d="M32.76,54.61c14.11-1.74,35.96-3.77,42.16-3.87c3.29-0.06,5.08,1.51,4.52,4.31c-0.72,3.62-1.94,9.95-3.99,17.62c-0.55,2.08-1.08,3.83-1.72,5.57" transform="matrix(1,0,0,1,996,-4)" class="stroke_order_diagram--existing_path"></path><path id="pathSk940yk7k76d" kvg:type="㇑a" d="M52.72,44.59c0.91,0.91,1.5,2.16,1.5,3.91c0,5.86,0.08,20.74,0.13,27.25" transform="matrix(1,0,0,1,996,-4)" class="stroke_order_diagram--existing_path"></path><path id="pathSk940yk7k76e" kvg:type="㇐a" d="M35.63,66.57c3.9-0.24,37.81-3.69,41.03-3.69" transform="matrix(1,0,0,1,996,-4)" class="stroke_order_diagram--existing_path"></path><path id="pathSk940yk7k76f" kvg:type="㇐a" d="M37.55,78.72c11.07-1.22,22.49-2.4,35.78-3" transform="matrix(1,0,0,1,996,-4)" class="stroke_order_diagram--existing_path"></path><path id="pathSk940yk7k76g" kvg:type="㇒" d="M42.63,84.62c0.18,1.03,0.18,1.8-1.56,3.47c-3.09,2.96-8.72,6.42-20.56,10.41" transform="matrix(1,0,0,1,996,-4)" class="stroke_order_diagram--existing_path"></path><path id="kvg:09ec4-s11" kvg:type="㇔" d="M65.25,84.25c6.53,2.56,15.75,9.25,19,14.5" transform="matrix(1,0,0,1,996,-4)" class="stroke_order_diagram--current_path"></path><path id="pathSk940yk7k76i" kvg:type="㇔" d="M65.25,84.25c6.53,2.56,15.75,9.25,19,14.5" transform="matrix(1,0,0,1,996,-4)" class="stroke_order_diagram--current_path"></path><circle cx="65.25" cy="84.25" r="8" class="stroke_order_diagram--path_start" transform="matrix(1,0,0,1,996,-4)"></circle></svg>