<?xml version="1.0" encoding="UTF-8"?>
<!DOCTYPE svg PUBLIC "-//W3C//DTD SVG 1.0//EN" "http://www.w3.org/TR/2001/REC-SVG-20010904/DTD/svg10.dtd" [
<!ATTLIST g
xmlns:kvg CDATA #FIXED "http://kanjivg.tagaini.net"
kvg:element CDATA #IMPLIED
kvg:variant CDATA #IMPLIED
kvg:partial CDATA #IMPLIED
kvg:original CDATA #IMPLIED
kvg:part CDATA #IMPLIED
kvg:number CDATA #IMPLIED
kvg:tradForm CDATA #IMPLIED
kvg:radicalForm CDATA #IMPLIED
kvg:position CDATA #IMPLIED
kvg:radical CDATA #IMPLIED
kvg:phon CDATA #IMPLIED >
<!ATTLIST path
xmlns:kvg CDATA #FIXED "http://kanjivg.tagaini.net"
kvg:type CDATA #IMPLIED >
]><svg style="width: 1100px; height: 100px;" xmlns="http://www.w3.org/2000/svg" xmlns:xlink="http://www.w3.org/1999/xlink" width="1100px" height="100px"><style>
.stroke_order_diagram--outer_container {
  width: 100%;
  overflow-x: auto;
  overflow-y: hidden;
}

.stroke_order_diagram--guide_line {
  fill: none;
  stroke: #ddd;
  stroke-width: 3;
  stroke-linecap: square;
  stroke-linejoin: square;
  stroke-dasharray:8, 8;
}

.stroke_order_diagram--bounding_box {
  fill: none;
  stroke: #ddd;
  stroke-width: 4;
  stroke-linecap: square;
  stroke-linejoin: square;
}

.stroke_order_diagram--current_path {
  fill: none;
  stroke: #000;
  stroke-width: 6;
  stroke-linecap: round;
  stroke-linejoin: round;
}

.stroke_order_diagram--existing_path {
  fill: none;
  stroke: #aaa;
  stroke-width: 6;
  stroke-linecap: round;
  stroke-linejoin:round;
}

.stroke_order_diagram--path_start {
  fill: rgba(255, 0, 0, 0.7);
  stroke:none
}</style><desc>Created with Snap</desc><defs></defs><line x1="1" x2="1099" y1="1" y2="1" class="stroke_order_diagram--bounding_box"></line><line x1="1" x2="1" y1="1" y2="99" class="stroke_order_diagram--bounding_box"></line><line x1="1" x2="1099" y1="99" y2="99" class="stroke_order_diagram--bounding_box"></line><line x1="0" x2="1100" y1="50" y2="50" class="stroke_order_diagram--guide_line"></line><line x1="50" x2="50" y1="1" y2="99" class="stroke_order_diagram--guide_line"></line><line x1="99" x2="99" y1="1" y2="99" class="stroke_order_diagram--bounding_box"></line><path id="kvg:09ed2-s1" kvg:type="㇑" d="M29.11,18.41c0.8,0.8,1.14,1.84,1.4,3.33c1.05,6.1,2.44,15.14,3.45,22.03c0.2,1.34,0.38,2.59,0.54,3.73" transform="matrix(1,0,0,1,-4,-4)" class="stroke_order_diagram--current_path"></path><path id="pathSk940yk7k7ar" kvg:type="㇑" d="M29.11,18.41c0.8,0.8,1.14,1.84,1.4,3.33c1.05,6.1,2.44,15.14,3.45,22.03c0.2,1.34,0.38,2.59,0.54,3.73" transform="matrix(1,0,0,1,-4,-4)" class="stroke_order_diagram--current_path"></path><circle cx="29.11" cy="18.41" r="8" class="stroke_order_diagram--path_start" transform="matrix(1,0,0,1,-4,-4)"></circle><line x1="150" x2="150" y1="1" y2="99" class="stroke_order_diagram--guide_line"></line><line x1="199" x2="199" y1="1" y2="99" class="stroke_order_diagram--bounding_box"></line><path id="pathSk940yk7k7au" kvg:type="㇑" d="M29.11,18.41c0.8,0.8,1.14,1.84,1.4,3.33c1.05,6.1,2.44,15.14,3.45,22.03c0.2,1.34,0.38,2.59,0.54,3.73" transform="matrix(1,0,0,1,96,-4)" class="stroke_order_diagram--existing_path"></path><path id="kvg:09ed2-s2" kvg:type="㇕a" d="M31.26,20.14c14.95-1.85,32.51-3.41,46.55-4.69c3.6-0.33,4.93,2.06,4.76,3.76c-0.35,3.51-2.57,13.12-4.73,20.58c-0.5,1.74-0.77,2.63-1.27,4.07" transform="matrix(1,0,0,1,96,-4)" class="stroke_order_diagram--current_path"></path><path id="pathSk940yk7k7aw" kvg:type="㇕a" d="M31.26,20.14c14.95-1.85,32.51-3.41,46.55-4.69c3.6-0.33,4.93,2.06,4.76,3.76c-0.35,3.51-2.57,13.12-4.73,20.58c-0.5,1.74-0.77,2.63-1.27,4.07" transform="matrix(1,0,0,1,96,-4)" class="stroke_order_diagram--current_path"></path><circle cx="31.26" cy="20.14" r="8" class="stroke_order_diagram--path_start" transform="matrix(1,0,0,1,96,-4)"></circle><line x1="250" x2="250" y1="1" y2="99" class="stroke_order_diagram--guide_line"></line><line x1="299" x2="299" y1="1" y2="99" class="stroke_order_diagram--bounding_box"></line><path id="pathSk940yk7k7az" kvg:type="㇑" d="M29.11,18.41c0.8,0.8,1.14,1.84,1.4,3.33c1.05,6.1,2.44,15.14,3.45,22.03c0.2,1.34,0.38,2.59,0.54,3.73" transform="matrix(1,0,0,1,196,-4)" class="stroke_order_diagram--existing_path"></path><path id="pathSk940yk7k7b0" kvg:type="㇕a" d="M31.26,20.14c14.95-1.85,32.51-3.41,46.55-4.69c3.6-0.33,4.93,2.06,4.76,3.76c-0.35,3.51-2.57,13.12-4.73,20.58c-0.5,1.74-0.77,2.63-1.27,4.07" transform="matrix(1,0,0,1,196,-4)" class="stroke_order_diagram--existing_path"></path><path id="kvg:09ed2-s3" kvg:type="㇐a" d="M33.82,32.24c6.81-0.74,37.68-3.74,45.65-3.91" transform="matrix(1,0,0,1,196,-4)" class="stroke_order_diagram--current_path"></path><path id="pathSk940yk7k7b2" kvg:type="㇐a" d="M33.82,32.24c6.81-0.74,37.68-3.74,45.65-3.91" transform="matrix(1,0,0,1,196,-4)" class="stroke_order_diagram--current_path"></path><circle cx="33.82" cy="32.24" r="8" class="stroke_order_diagram--path_start" transform="matrix(1,0,0,1,196,-4)"></circle><line x1="350" x2="350" y1="1" y2="99" class="stroke_order_diagram--guide_line"></line><line x1="399" x2="399" y1="1" y2="99" class="stroke_order_diagram--bounding_box"></line><path id="pathSk940yk7k7b5" kvg:type="㇑" d="M29.11,18.41c0.8,0.8,1.14,1.84,1.4,3.33c1.05,6.1,2.44,15.14,3.45,22.03c0.2,1.34,0.38,2.59,0.54,3.73" transform="matrix(1,0,0,1,296,-4)" class="stroke_order_diagram--existing_path"></path><path id="pathSk940yk7k7b6" kvg:type="㇕a" d="M31.26,20.14c14.95-1.85,32.51-3.41,46.55-4.69c3.6-0.33,4.93,2.06,4.76,3.76c-0.35,3.51-2.57,13.12-4.73,20.58c-0.5,1.74-0.77,2.63-1.27,4.07" transform="matrix(1,0,0,1,296,-4)" class="stroke_order_diagram--existing_path"></path><path id="pathSk940yk7k7b7" kvg:type="㇐a" d="M33.82,32.24c6.81-0.74,37.68-3.74,45.65-3.91" transform="matrix(1,0,0,1,296,-4)" class="stroke_order_diagram--existing_path"></path><path id="kvg:09ed2-s4" kvg:type="㇐a" d="M35.47,43.91c11.53-1.16,28.06-3.11,41.12-3.86" transform="matrix(1,0,0,1,296,-4)" class="stroke_order_diagram--current_path"></path><path id="pathSk940yk7k7b9" kvg:type="㇐a" d="M35.47,43.91c11.53-1.16,28.06-3.11,41.12-3.86" transform="matrix(1,0,0,1,296,-4)" class="stroke_order_diagram--current_path"></path><circle cx="35.47" cy="43.91" r="8" class="stroke_order_diagram--path_start" transform="matrix(1,0,0,1,296,-4)"></circle><line x1="450" x2="450" y1="1" y2="99" class="stroke_order_diagram--guide_line"></line><line x1="499" x2="499" y1="1" y2="99" class="stroke_order_diagram--bounding_box"></line><path id="pathSk940yk7k7bc" kvg:type="㇑" d="M29.11,18.41c0.8,0.8,1.14,1.84,1.4,3.33c1.05,6.1,2.44,15.14,3.45,22.03c0.2,1.34,0.38,2.59,0.54,3.73" transform="matrix(1,0,0,1,396,-4)" class="stroke_order_diagram--existing_path"></path><path id="pathSk940yk7k7bd" kvg:type="㇕a" d="M31.26,20.14c14.95-1.85,32.51-3.41,46.55-4.69c3.6-0.33,4.93,2.06,4.76,3.76c-0.35,3.51-2.57,13.12-4.73,20.58c-0.5,1.74-0.77,2.63-1.27,4.07" transform="matrix(1,0,0,1,396,-4)" class="stroke_order_diagram--existing_path"></path><path id="pathSk940yk7k7be" kvg:type="㇐a" d="M33.82,32.24c6.81-0.74,37.68-3.74,45.65-3.91" transform="matrix(1,0,0,1,396,-4)" class="stroke_order_diagram--existing_path"></path><path id="pathSk940yk7k7bf" kvg:type="㇐a" d="M35.47,43.91c11.53-1.16,28.06-3.11,41.12-3.86" transform="matrix(1,0,0,1,396,-4)" class="stroke_order_diagram--existing_path"></path><path id="kvg:09ed2-s5" kvg:type="㇑a" d="M53.29,19.56c0.98,0.93,1.45,1.98,1.49,3.11C55.14,32.86,55.05,57.6,55,67.75" transform="matrix(1,0,0,1,396,-4)" class="stroke_order_diagram--current_path"></path><path id="pathSk940yk7k7bh" kvg:type="㇑a" d="M53.29,19.56c0.98,0.93,1.45,1.98,1.49,3.11C55.14,32.86,55.05,57.6,55,67.75" transform="matrix(1,0,0,1,396,-4)" class="stroke_order_diagram--current_path"></path><circle cx="53.29" cy="19.56" r="8" class="stroke_order_diagram--path_start" transform="matrix(1,0,0,1,396,-4)"></circle><line x1="550" x2="550" y1="1" y2="99" class="stroke_order_diagram--guide_line"></line><line x1="599" x2="599" y1="1" y2="99" class="stroke_order_diagram--bounding_box"></line><path id="pathSk940yk7k7bk" kvg:type="㇑" d="M29.11,18.41c0.8,0.8,1.14,1.84,1.4,3.33c1.05,6.1,2.44,15.14,3.45,22.03c0.2,1.34,0.38,2.59,0.54,3.73" transform="matrix(1,0,0,1,496,-4)" class="stroke_order_diagram--existing_path"></path><path id="pathSk940yk7k7bl" kvg:type="㇕a" d="M31.26,20.14c14.95-1.85,32.51-3.41,46.55-4.69c3.6-0.33,4.93,2.06,4.76,3.76c-0.35,3.51-2.57,13.12-4.73,20.58c-0.5,1.74-0.77,2.63-1.27,4.07" transform="matrix(1,0,0,1,496,-4)" class="stroke_order_diagram--existing_path"></path><path id="pathSk940yk7k7bm" kvg:type="㇐a" d="M33.82,32.24c6.81-0.74,37.68-3.74,45.65-3.91" transform="matrix(1,0,0,1,496,-4)" class="stroke_order_diagram--existing_path"></path><path id="pathSk940yk7k7bn" kvg:type="㇐a" d="M35.47,43.91c11.53-1.16,28.06-3.11,41.12-3.86" transform="matrix(1,0,0,1,496,-4)" class="stroke_order_diagram--existing_path"></path><path id="pathSk940yk7k7bo" kvg:type="㇑a" d="M53.29,19.56c0.98,0.93,1.45,1.98,1.49,3.11C55.14,32.86,55.05,57.6,55,67.75" transform="matrix(1,0,0,1,496,-4)" class="stroke_order_diagram--existing_path"></path><path id="kvg:09ed2-s6" kvg:type="㇐" d="M33.88,57.14c1.48,0.28,4.2,0.38,5.68,0.28c9.66-0.67,21.01-2.54,32.19-3.22c2.46-0.15,3.95,0.13,5.19,0.27" transform="matrix(1,0,0,1,496,-4)" class="stroke_order_diagram--current_path"></path><path id="pathSk940yk7k7bq" kvg:type="㇐" d="M33.88,57.14c1.48,0.28,4.2,0.38,5.68,0.28c9.66-0.67,21.01-2.54,32.19-3.22c2.46-0.15,3.95,0.13,5.19,0.27" transform="matrix(1,0,0,1,496,-4)" class="stroke_order_diagram--current_path"></path><circle cx="33.88" cy="57.14" r="8" class="stroke_order_diagram--path_start" transform="matrix(1,0,0,1,496,-4)"></circle><line x1="650" x2="650" y1="1" y2="99" class="stroke_order_diagram--guide_line"></line><line x1="699" x2="699" y1="1" y2="99" class="stroke_order_diagram--bounding_box"></line><path id="pathSk940yk7k7bt" kvg:type="㇑" d="M29.11,18.41c0.8,0.8,1.14,1.84,1.4,3.33c1.05,6.1,2.44,15.14,3.45,22.03c0.2,1.34,0.38,2.59,0.54,3.73" transform="matrix(1,0,0,1,596,-4)" class="stroke_order_diagram--existing_path"></path><path id="pathSk940yk7k7bu" kvg:type="㇕a" d="M31.26,20.14c14.95-1.85,32.51-3.41,46.55-4.69c3.6-0.33,4.93,2.06,4.76,3.76c-0.35,3.51-2.57,13.12-4.73,20.58c-0.5,1.74-0.77,2.63-1.27,4.07" transform="matrix(1,0,0,1,596,-4)" class="stroke_order_diagram--existing_path"></path><path id="pathSk940yk7k7bv" kvg:type="㇐a" d="M33.82,32.24c6.81-0.74,37.68-3.74,45.65-3.91" transform="matrix(1,0,0,1,596,-4)" class="stroke_order_diagram--existing_path"></path><path id="pathSk940yk7k7bw" kvg:type="㇐a" d="M35.47,43.91c11.53-1.16,28.06-3.11,41.12-3.86" transform="matrix(1,0,0,1,596,-4)" class="stroke_order_diagram--existing_path"></path><path id="pathSk940yk7k7bx" kvg:type="㇑a" d="M53.29,19.56c0.98,0.93,1.45,1.98,1.49,3.11C55.14,32.86,55.05,57.6,55,67.75" transform="matrix(1,0,0,1,596,-4)" class="stroke_order_diagram--existing_path"></path><path id="pathSk940yk7k7by" kvg:type="㇐" d="M33.88,57.14c1.48,0.28,4.2,0.38,5.68,0.28c9.66-0.67,21.01-2.54,32.19-3.22c2.46-0.15,3.95,0.13,5.19,0.27" transform="matrix(1,0,0,1,596,-4)" class="stroke_order_diagram--existing_path"></path><path id="kvg:09ed2-s7" kvg:type="㇐" d="M20.63,70.47c2.16,0.4,6.14,0.56,8.29,0.4c18.27-1.37,34.62-3,52.13-3.34c3.6-0.07,5.77,0.19,7.57,0.39" transform="matrix(1,0,0,1,596,-4)" class="stroke_order_diagram--current_path"></path><path id="pathSk940yk7k7c0" kvg:type="㇐" d="M20.63,70.47c2.16,0.4,6.14,0.56,8.29,0.4c18.27-1.37,34.62-3,52.13-3.34c3.6-0.07,5.77,0.19,7.57,0.39" transform="matrix(1,0,0,1,596,-4)" class="stroke_order_diagram--current_path"></path><circle cx="20.63" cy="70.47" r="8" class="stroke_order_diagram--path_start" transform="matrix(1,0,0,1,596,-4)"></circle><line x1="750" x2="750" y1="1" y2="99" class="stroke_order_diagram--guide_line"></line><line x1="799" x2="799" y1="1" y2="99" class="stroke_order_diagram--bounding_box"></line><path id="pathSk940yk7k7c3" kvg:type="㇑" d="M29.11,18.41c0.8,0.8,1.14,1.84,1.4,3.33c1.05,6.1,2.44,15.14,3.45,22.03c0.2,1.34,0.38,2.59,0.54,3.73" transform="matrix(1,0,0,1,696,-4)" class="stroke_order_diagram--existing_path"></path><path id="pathSk940yk7k7c4" kvg:type="㇕a" d="M31.26,20.14c14.95-1.85,32.51-3.41,46.55-4.69c3.6-0.33,4.93,2.06,4.76,3.76c-0.35,3.51-2.57,13.12-4.73,20.58c-0.5,1.74-0.77,2.63-1.27,4.07" transform="matrix(1,0,0,1,696,-4)" class="stroke_order_diagram--existing_path"></path><path id="pathSk940yk7k7c5" kvg:type="㇐a" d="M33.82,32.24c6.81-0.74,37.68-3.74,45.65-3.91" transform="matrix(1,0,0,1,696,-4)" class="stroke_order_diagram--existing_path"></path><path id="pathSk940yk7k7c6" kvg:type="㇐a" d="M35.47,43.91c11.53-1.16,28.06-3.11,41.12-3.86" transform="matrix(1,0,0,1,696,-4)" class="stroke_order_diagram--existing_path"></path><path id="pathSk940yk7k7c7" kvg:type="㇑a" d="M53.29,19.56c0.98,0.93,1.45,1.98,1.49,3.11C55.14,32.86,55.05,57.6,55,67.75" transform="matrix(1,0,0,1,696,-4)" class="stroke_order_diagram--existing_path"></path><path id="pathSk940yk7k7c8" kvg:type="㇐" d="M33.88,57.14c1.48,0.28,4.2,0.38,5.68,0.28c9.66-0.67,21.01-2.54,32.19-3.22c2.46-0.15,3.95,0.13,5.19,0.27" transform="matrix(1,0,0,1,696,-4)" class="stroke_order_diagram--existing_path"></path><path id="pathSk940yk7k7c9" kvg:type="㇐" d="M20.63,70.47c2.16,0.4,6.14,0.56,8.29,0.4c18.27-1.37,34.62-3,52.13-3.34c3.6-0.07,5.77,0.19,7.57,0.39" transform="matrix(1,0,0,1,696,-4)" class="stroke_order_diagram--existing_path"></path><path id="kvg:09ed2-s8" kvg:type="㇔" d="M24.75,81.88c-1.27,6.05-7.36,13.11-9,14.62" transform="matrix(1,0,0,1,696,-4)" class="stroke_order_diagram--current_path"></path><path id="pathSk940yk7k7cb" kvg:type="㇔" d="M24.75,81.88c-1.27,6.05-7.36,13.11-9,14.62" transform="matrix(1,0,0,1,696,-4)" class="stroke_order_diagram--current_path"></path><circle cx="24.75" cy="81.88" r="8" class="stroke_order_diagram--path_start" transform="matrix(1,0,0,1,696,-4)"></circle><line x1="850" x2="850" y1="1" y2="99" class="stroke_order_diagram--guide_line"></line><line x1="899" x2="899" y1="1" y2="99" class="stroke_order_diagram--bounding_box"></line><path id="pathSk940yk7k7ce" kvg:type="㇑" d="M29.11,18.41c0.8,0.8,1.14,1.84,1.4,3.33c1.05,6.1,2.44,15.14,3.45,22.03c0.2,1.34,0.38,2.59,0.54,3.73" transform="matrix(1,0,0,1,796,-4)" class="stroke_order_diagram--existing_path"></path><path id="pathSk940yk7k7cf" kvg:type="㇕a" d="M31.26,20.14c14.95-1.85,32.51-3.41,46.55-4.69c3.6-0.33,4.93,2.06,4.76,3.76c-0.35,3.51-2.57,13.12-4.73,20.58c-0.5,1.74-0.77,2.63-1.27,4.07" transform="matrix(1,0,0,1,796,-4)" class="stroke_order_diagram--existing_path"></path><path id="pathSk940yk7k7cg" kvg:type="㇐a" d="M33.82,32.24c6.81-0.74,37.68-3.74,45.65-3.91" transform="matrix(1,0,0,1,796,-4)" class="stroke_order_diagram--existing_path"></path><path id="pathSk940yk7k7ch" kvg:type="㇐a" d="M35.47,43.91c11.53-1.16,28.06-3.11,41.12-3.86" transform="matrix(1,0,0,1,796,-4)" class="stroke_order_diagram--existing_path"></path><path id="pathSk940yk7k7ci" kvg:type="㇑a" d="M53.29,19.56c0.98,0.93,1.45,1.98,1.49,3.11C55.14,32.86,55.05,57.6,55,67.75" transform="matrix(1,0,0,1,796,-4)" class="stroke_order_diagram--existing_path"></path><path id="pathSk940yk7k7cj" kvg:type="㇐" d="M33.88,57.14c1.48,0.28,4.2,0.38,5.68,0.28c9.66-0.67,21.01-2.54,32.19-3.22c2.46-0.15,3.95,0.13,5.19,0.27" transform="matrix(1,0,0,1,796,-4)" class="stroke_order_diagram--existing_path"></path><path id="pathSk940yk7k7ck" kvg:type="㇐" d="M20.63,70.47c2.16,0.4,6.14,0.56,8.29,0.4c18.27-1.37,34.62-3,52.13-3.34c3.6-0.07,5.77,0.19,7.57,0.39" transform="matrix(1,0,0,1,796,-4)" class="stroke_order_diagram--existing_path"></path><path id="pathSk940yk7k7cl" kvg:type="㇔" d="M24.75,81.88c-1.27,6.05-7.36,13.11-9,14.62" transform="matrix(1,0,0,1,796,-4)" class="stroke_order_diagram--existing_path"></path><path id="kvg:09ed2-s9" kvg:type="㇔" d="M42,79.5c1.71,2.87,4.25,10.5,3.76,15.25" transform="matrix(1,0,0,1,796,-4)" class="stroke_order_diagram--current_path"></path><path id="pathSk940yk7k7cn" kvg:type="㇔" d="M42,79.5c1.71,2.87,4.25,10.5,3.76,15.25" transform="matrix(1,0,0,1,796,-4)" class="stroke_order_diagram--current_path"></path><circle cx="42" cy="79.5" r="8" class="stroke_order_diagram--path_start" transform="matrix(1,0,0,1,796,-4)"></circle><line x1="950" x2="950" y1="1" y2="99" class="stroke_order_diagram--guide_line"></line><line x1="999" x2="999" y1="1" y2="99" class="stroke_order_diagram--bounding_box"></line><path id="pathSk940yk7k7cq" kvg:type="㇑" d="M29.11,18.41c0.8,0.8,1.14,1.84,1.4,3.33c1.05,6.1,2.44,15.14,3.45,22.03c0.2,1.34,0.38,2.59,0.54,3.73" transform="matrix(1,0,0,1,896,-4)" class="stroke_order_diagram--existing_path"></path><path id="pathSk940yk7k7cr" kvg:type="㇕a" d="M31.26,20.14c14.95-1.85,32.51-3.41,46.55-4.69c3.6-0.33,4.93,2.06,4.76,3.76c-0.35,3.51-2.57,13.12-4.73,20.58c-0.5,1.74-0.77,2.63-1.27,4.07" transform="matrix(1,0,0,1,896,-4)" class="stroke_order_diagram--existing_path"></path><path id="pathSk940yk7k7cs" kvg:type="㇐a" d="M33.82,32.24c6.81-0.74,37.68-3.74,45.65-3.91" transform="matrix(1,0,0,1,896,-4)" class="stroke_order_diagram--existing_path"></path><path id="pathSk940yk7k7ct" kvg:type="㇐a" d="M35.47,43.91c11.53-1.16,28.06-3.11,41.12-3.86" transform="matrix(1,0,0,1,896,-4)" class="stroke_order_diagram--existing_path"></path><path id="pathSk940yk7k7cu" kvg:type="㇑a" d="M53.29,19.56c0.98,0.93,1.45,1.98,1.49,3.11C55.14,32.86,55.05,57.6,55,67.75" transform="matrix(1,0,0,1,896,-4)" class="stroke_order_diagram--existing_path"></path><path id="pathSk940yk7k7cv" kvg:type="㇐" d="M33.88,57.14c1.48,0.28,4.2,0.38,5.68,0.28c9.66-0.67,21.01-2.54,32.19-3.22c2.46-0.15,3.95,0.13,5.19,0.27" transform="matrix(1,0,0,1,896,-4)" class="stroke_order_diagram--existing_path"></path><path id="pathSk940yk7k7cw" kvg:type="㇐" d="M20.63,70.47c2.16,0.4,6.14,0.56,8.29,0.4c18.27-1.37,34.62-3,52.13-3.34c3.6-0.07,5.77,0.19,7.57,0.39" transform="matrix(1,0,0,1,896,-4)" class="stroke_order_diagram--existing_path"></path><path id="pathSk940yk7k7cx" kvg:type="㇔" d="M24.75,81.88c-1.27,6.05-7.36,13.11-9,14.62" transform="matrix(1,0,0,1,896,-4)" class="stroke_order_diagram--existing_path"></path><path id="pathSk940yk7k7cy" kvg:type="㇔" d="M42,79.5c1.71,2.87,4.25,10.5,3.76,15.25" transform="matrix(1,0,0,1,896,-4)" class="stroke_order_diagram--existing_path"></path><path id="kvg:09ed2-s10" kvg:type="㇔" d="M62.75,78.5c2.65,2.69,6.5,10.5,6.5,15.25" transform="matrix(1,0,0,1,896,-4)" class="stroke_order_diagram--current_path"></path><path id="pathSk940yk7k7d0" kvg:type="㇔" d="M62.75,78.5c2.65,2.69,6.5,10.5,6.5,15.25" transform="matrix(1,0,0,1,896,-4)" class="stroke_order_diagram--current_path"></path><circle cx="62.75" cy="78.5" r="8" class="stroke_order_diagram--path_start" transform="matrix(1,0,0,1,896,-4)"></circle><line x1="1050" x2="1050" y1="1" y2="99" class="stroke_order_diagram--guide_line"></line><line x1="1099" x2="1099" y1="1" y2="99" class="stroke_order_diagram--bounding_box"></line><path id="pathSk940yk7k7d3" kvg:type="㇑" d="M29.11,18.41c0.8,0.8,1.14,1.84,1.4,3.33c1.05,6.1,2.44,15.14,3.45,22.03c0.2,1.34,0.38,2.59,0.54,3.73" transform="matrix(1,0,0,1,996,-4)" class="stroke_order_diagram--existing_path"></path><path id="pathSk940yk7k7d4" kvg:type="㇕a" d="M31.26,20.14c14.95-1.85,32.51-3.41,46.55-4.69c3.6-0.33,4.93,2.06,4.76,3.76c-0.35,3.51-2.57,13.12-4.73,20.58c-0.5,1.74-0.77,2.63-1.27,4.07" transform="matrix(1,0,0,1,996,-4)" class="stroke_order_diagram--existing_path"></path><path id="pathSk940yk7k7d5" kvg:type="㇐a" d="M33.82,32.24c6.81-0.74,37.68-3.74,45.65-3.91" transform="matrix(1,0,0,1,996,-4)" class="stroke_order_diagram--existing_path"></path><path id="pathSk940yk7k7d6" kvg:type="㇐a" d="M35.47,43.91c11.53-1.16,28.06-3.11,41.12-3.86" transform="matrix(1,0,0,1,996,-4)" class="stroke_order_diagram--existing_path"></path><path id="pathSk940yk7k7d7" kvg:type="㇑a" d="M53.29,19.56c0.98,0.93,1.45,1.98,1.49,3.11C55.14,32.86,55.05,57.6,55,67.75" transform="matrix(1,0,0,1,996,-4)" class="stroke_order_diagram--existing_path"></path><path id="pathSk940yk7k7d8" kvg:type="㇐" d="M33.88,57.14c1.48,0.28,4.2,0.38,5.68,0.28c9.66-0.67,21.01-2.54,32.19-3.22c2.46-0.15,3.95,0.13,5.19,0.27" transform="matrix(1,0,0,1,996,-4)" class="stroke_order_diagram--existing_path"></path><path id="pathSk940yk7k7d9" kvg:type="㇐" d="M20.63,70.47c2.16,0.4,6.14,0.56,8.29,0.4c18.27-1.37,34.62-3,52.13-3.34c3.6-0.07,5.77,0.19,7.57,0.39" transform="matrix(1,0,0,1,996,-4)" class="stroke_order_diagram--existing_path"></path><path id="pathSk940yk7k7da" kvg:type="㇔" d="M24.75,81.88c-1.27,6.05-7.36,13.11-9,14.62" transform="matrix(1,0,0,1,996,-4)" class="stroke_order_diagram--existing_path"></path><path id="pathSk940yk7k7db" kvg:type="㇔" d="M42,79.5c1.71,2.87,4.25,10.5,3.76,15.25" transform="matrix(1,0,0,1,996,-4)" class="stroke_order_diagram--existing_path"></path><path id="pathSk940yk7k7dc" kvg:type="㇔" d="M62.75,78.5c2.65,2.69,6.5,10.5,6.5,15.25" transform="matrix(1,0,0,1,996,-4)" class="stroke_order_diagram--existing_path"></path><path id="kvg:09ed2-s11" kvg:type="㇔" d="M83.71,79.08c4.27,2.63,11.03,10.8,12.1,14.88" transform="matrix(1,0,0,1,996,-4)" class="stroke_order_diagram--current_path"></path><path id="pathSk940yk7k7de" kvg:type="㇔" d="M83.71,79.08c4.27,2.63,11.03,10.8,12.1,14.88" transform="matrix(1,0,0,1,996,-4)" class="stroke_order_diagram--current_path"></path><circle cx="83.71" cy="79.08" r="8" class="stroke_order_diagram--path_start" transform="matrix(1,0,0,1,996,-4)"></circle></svg>