<?xml version="1.0" encoding="UTF-8"?>
<!DOCTYPE svg PUBLIC "-//W3C//DTD SVG 1.0//EN" "http://www.w3.org/TR/2001/REC-SVG-20010904/DTD/svg10.dtd" [
<!ATTLIST g
xmlns:kvg CDATA #FIXED "http://kanjivg.tagaini.net"
kvg:element CDATA #IMPLIED
kvg:variant CDATA #IMPLIED
kvg:partial CDATA #IMPLIED
kvg:original CDATA #IMPLIED
kvg:part CDATA #IMPLIED
kvg:number CDATA #IMPLIED
kvg:tradForm CDATA #IMPLIED
kvg:radicalForm CDATA #IMPLIED
kvg:position CDATA #IMPLIED
kvg:radical CDATA #IMPLIED
kvg:phon CDATA #IMPLIED >
<!ATTLIST path
xmlns:kvg CDATA #FIXED "http://kanjivg.tagaini.net"
kvg:type CDATA #IMPLIED >
]><svg style="width: 1300px; height: 100px;" xmlns="http://www.w3.org/2000/svg" xmlns:xlink="http://www.w3.org/1999/xlink"><style>
.stroke_order_diagram--outer_container {
  width: 100%;
  overflow-x: auto;
  overflow-y: hidden;
}

.stroke_order_diagram--guide_line {
  fill: none;
  stroke: #ddd;
  stroke-width: 3;
  stroke-linecap: square;
  stroke-linejoin: square;
  stroke-dasharray:8, 8;
}

.stroke_order_diagram--bounding_box {
  fill: none;
  stroke: #ddd;
  stroke-width: 4;
  stroke-linecap: square;
  stroke-linejoin: square;
}

.stroke_order_diagram--current_path {
  fill: none;
  stroke: #000;
  stroke-width: 6;
  stroke-linecap: round;
  stroke-linejoin: round;
}

.stroke_order_diagram--existing_path {
  fill: none;
  stroke: #aaa;
  stroke-width: 6;
  stroke-linecap: round;
  stroke-linejoin:round;
}

.stroke_order_diagram--path_start {
  fill: rgba(255, 0, 0, 0.7);
  stroke:none
}</style><desc>Created with Snap</desc><defs></defs><line x1="1" x2="1299" y1="1" y2="1" class="stroke_order_diagram--bounding_box"></line><line x1="1" x2="1" y1="1" y2="99" class="stroke_order_diagram--bounding_box"></line><line x1="1" x2="1299" y1="99" y2="99" class="stroke_order_diagram--bounding_box"></line><line x1="0" x2="1300" y1="50" y2="50" class="stroke_order_diagram--guide_line"></line><line x1="50" x2="50" y1="1" y2="99" class="stroke_order_diagram--guide_line"></line><line x1="99" x2="99" y1="1" y2="99" class="stroke_order_diagram--bounding_box"></line><path id="kvg:09efd-s1" kvg:type="㇑" d="M22.22,18.58c0.66,0.7,0.76,1.15,1.05,2.06c0.98,3.12,2.23,9.37,3.19,13.47" transform="matrix(1,0,0,1,-4,-4)" class="stroke_order_diagram--current_path"></path><path id="pathSk93xdzq07hp" kvg:type="㇑" d="M22.22,18.58c0.66,0.7,0.76,1.15,1.05,2.06c0.98,3.12,2.23,9.37,3.19,13.47" transform="matrix(1,0,0,1,-4,-4)" class="stroke_order_diagram--current_path"></path><circle cx="22.22" cy="18.58" r="8" class="stroke_order_diagram--path_start" transform="matrix(1,0,0,1,-4,-4)"></circle><line x1="150" x2="150" y1="1" y2="99" class="stroke_order_diagram--guide_line"></line><line x1="199" x2="199" y1="1" y2="99" class="stroke_order_diagram--bounding_box"></line><path id="pathSk93xdzq07hs" kvg:type="㇑" d="M22.22,18.58c0.66,0.7,0.76,1.15,1.05,2.06c0.98,3.12,2.23,9.37,3.19,13.47" transform="matrix(1,0,0,1,96,-4)" class="stroke_order_diagram--existing_path"></path><path id="kvg:09efd-s2" kvg:type="㇕" d="M23.54,20.19c9.21-1.44,52.24-5.09,58.08-6.04c2.15-0.35,3.44,0.93,3.13,2.14c-1.26,4.97-2.01,7.22-2.88,10.7" transform="matrix(1,0,0,1,96,-4)" class="stroke_order_diagram--current_path"></path><path id="pathSk93xdzq07hu" kvg:type="㇕" d="M23.54,20.19c9.21-1.44,52.24-5.09,58.08-6.04c2.15-0.35,3.44,0.93,3.13,2.14c-1.26,4.97-2.01,7.22-2.88,10.7" transform="matrix(1,0,0,1,96,-4)" class="stroke_order_diagram--current_path"></path><circle cx="23.54" cy="20.19" r="8" class="stroke_order_diagram--path_start" transform="matrix(1,0,0,1,96,-4)"></circle><line x1="250" x2="250" y1="1" y2="99" class="stroke_order_diagram--guide_line"></line><line x1="299" x2="299" y1="1" y2="99" class="stroke_order_diagram--bounding_box"></line><path id="pathSk93xdzq07hx" kvg:type="㇑" d="M22.22,18.58c0.66,0.7,0.76,1.15,1.05,2.06c0.98,3.12,2.23,9.37,3.19,13.47" transform="matrix(1,0,0,1,196,-4)" class="stroke_order_diagram--existing_path"></path><path id="pathSk93xdzq07hy" kvg:type="㇕" d="M23.54,20.19c9.21-1.44,52.24-5.09,58.08-6.04c2.15-0.35,3.44,0.93,3.13,2.14c-1.26,4.97-2.01,7.22-2.88,10.7" transform="matrix(1,0,0,1,196,-4)" class="stroke_order_diagram--existing_path"></path><path id="kvg:09efd-s3" kvg:type="㇐" d="M26.75,32c2.75,0,17-1.75,19.25-1.75" transform="matrix(1,0,0,1,196,-4)" class="stroke_order_diagram--current_path"></path><path id="pathSk93xdzq07i0" kvg:type="㇐" d="M26.75,32c2.75,0,17-1.75,19.25-1.75" transform="matrix(1,0,0,1,196,-4)" class="stroke_order_diagram--current_path"></path><circle cx="26.75" cy="32" r="8" class="stroke_order_diagram--path_start" transform="matrix(1,0,0,1,196,-4)"></circle><line x1="350" x2="350" y1="1" y2="99" class="stroke_order_diagram--guide_line"></line><line x1="399" x2="399" y1="1" y2="99" class="stroke_order_diagram--bounding_box"></line><path id="pathSk93xdzq07i3" kvg:type="㇑" d="M22.22,18.58c0.66,0.7,0.76,1.15,1.05,2.06c0.98,3.12,2.23,9.37,3.19,13.47" transform="matrix(1,0,0,1,296,-4)" class="stroke_order_diagram--existing_path"></path><path id="pathSk93xdzq07i4" kvg:type="㇕" d="M23.54,20.19c9.21-1.44,52.24-5.09,58.08-6.04c2.15-0.35,3.44,0.93,3.13,2.14c-1.26,4.97-2.01,7.22-2.88,10.7" transform="matrix(1,0,0,1,296,-4)" class="stroke_order_diagram--existing_path"></path><path id="pathSk93xdzq07i5" kvg:type="㇐" d="M26.75,32c2.75,0,17-1.75,19.25-1.75" transform="matrix(1,0,0,1,296,-4)" class="stroke_order_diagram--existing_path"></path><path id="kvg:09efd-s4" kvg:type="㇐" d="M61.5,28.5c5-0.5,19.75-1.25,22.75-1.25" transform="matrix(1,0,0,1,296,-4)" class="stroke_order_diagram--current_path"></path><path id="pathSk93xdzq07i7" kvg:type="㇐" d="M61.5,28.5c5-0.5,19.75-1.25,22.75-1.25" transform="matrix(1,0,0,1,296,-4)" class="stroke_order_diagram--current_path"></path><circle cx="61.5" cy="28.5" r="8" class="stroke_order_diagram--path_start" transform="matrix(1,0,0,1,296,-4)"></circle><line x1="450" x2="450" y1="1" y2="99" class="stroke_order_diagram--guide_line"></line><line x1="499" x2="499" y1="1" y2="99" class="stroke_order_diagram--bounding_box"></line><path id="pathSk93xdzq07ia" kvg:type="㇑" d="M22.22,18.58c0.66,0.7,0.76,1.15,1.05,2.06c0.98,3.12,2.23,9.37,3.19,13.47" transform="matrix(1,0,0,1,396,-4)" class="stroke_order_diagram--existing_path"></path><path id="pathSk93xdzq07ib" kvg:type="㇕" d="M23.54,20.19c9.21-1.44,52.24-5.09,58.08-6.04c2.15-0.35,3.44,0.93,3.13,2.14c-1.26,4.97-2.01,7.22-2.88,10.7" transform="matrix(1,0,0,1,396,-4)" class="stroke_order_diagram--existing_path"></path><path id="pathSk93xdzq07ic" kvg:type="㇐" d="M26.75,32c2.75,0,17-1.75,19.25-1.75" transform="matrix(1,0,0,1,396,-4)" class="stroke_order_diagram--existing_path"></path><path id="pathSk93xdzq07id" kvg:type="㇐" d="M61.5,28.5c5-0.5,19.75-1.25,22.75-1.25" transform="matrix(1,0,0,1,396,-4)" class="stroke_order_diagram--existing_path"></path><path id="kvg:09efd-s5" kvg:type="㇑" d="M59.37,18.25c1.09,0.5,1.74,2.25,1.96,3.25c0.22,1,0,61.25-0.22,67.5" transform="matrix(1,0,0,1,396,-4)" class="stroke_order_diagram--current_path"></path><path id="pathSk93xdzq07if" kvg:type="㇑" d="M59.37,18.25c1.09,0.5,1.74,2.25,1.96,3.25c0.22,1,0,61.25-0.22,67.5" transform="matrix(1,0,0,1,396,-4)" class="stroke_order_diagram--current_path"></path><circle cx="59.37" cy="18.25" r="8" class="stroke_order_diagram--path_start" transform="matrix(1,0,0,1,396,-4)"></circle><line x1="550" x2="550" y1="1" y2="99" class="stroke_order_diagram--guide_line"></line><line x1="599" x2="599" y1="1" y2="99" class="stroke_order_diagram--bounding_box"></line><path id="pathSk93xdzq07ii" kvg:type="㇑" d="M22.22,18.58c0.66,0.7,0.76,1.15,1.05,2.06c0.98,3.12,2.23,9.37,3.19,13.47" transform="matrix(1,0,0,1,496,-4)" class="stroke_order_diagram--existing_path"></path><path id="pathSk93xdzq07ij" kvg:type="㇕" d="M23.54,20.19c9.21-1.44,52.24-5.09,58.08-6.04c2.15-0.35,3.44,0.93,3.13,2.14c-1.26,4.97-2.01,7.22-2.88,10.7" transform="matrix(1,0,0,1,496,-4)" class="stroke_order_diagram--existing_path"></path><path id="pathSk93xdzq07ik" kvg:type="㇐" d="M26.75,32c2.75,0,17-1.75,19.25-1.75" transform="matrix(1,0,0,1,496,-4)" class="stroke_order_diagram--existing_path"></path><path id="pathSk93xdzq07il" kvg:type="㇐" d="M61.5,28.5c5-0.5,19.75-1.25,22.75-1.25" transform="matrix(1,0,0,1,496,-4)" class="stroke_order_diagram--existing_path"></path><path id="pathSk93xdzq07im" kvg:type="㇑" d="M59.37,18.25c1.09,0.5,1.74,2.25,1.96,3.25c0.22,1,0,61.25-0.22,67.5" transform="matrix(1,0,0,1,496,-4)" class="stroke_order_diagram--existing_path"></path><path id="kvg:09efd-s6" kvg:type="㇟" d="M45.49,20.37c0.74,1.19,1.38,2.59,1.38,4.43c0,12.45-0.03,51.14-0.03,56.7c0,13,2.92,13.53,24.17,13.53c22.25,0,23.89-1.78,23.89-11.12" transform="matrix(1,0,0,1,496,-4)" class="stroke_order_diagram--current_path"></path><path id="pathSk93xdzq07io" kvg:type="㇟" d="M45.49,20.37c0.74,1.19,1.38,2.59,1.38,4.43c0,12.45-0.03,51.14-0.03,56.7c0,13,2.92,13.53,24.17,13.53c22.25,0,23.89-1.78,23.89-11.12" transform="matrix(1,0,0,1,496,-4)" class="stroke_order_diagram--current_path"></path><circle cx="45.49" cy="20.37" r="8" class="stroke_order_diagram--path_start" transform="matrix(1,0,0,1,496,-4)"></circle><line x1="650" x2="650" y1="1" y2="99" class="stroke_order_diagram--guide_line"></line><line x1="699" x2="699" y1="1" y2="99" class="stroke_order_diagram--bounding_box"></line><path id="pathSk93xdzq07ir" kvg:type="㇑" d="M22.22,18.58c0.66,0.7,0.76,1.15,1.05,2.06c0.98,3.12,2.23,9.37,3.19,13.47" transform="matrix(1,0,0,1,596,-4)" class="stroke_order_diagram--existing_path"></path><path id="pathSk93xdzq07is" kvg:type="㇕" d="M23.54,20.19c9.21-1.44,52.24-5.09,58.08-6.04c2.15-0.35,3.44,0.93,3.13,2.14c-1.26,4.97-2.01,7.22-2.88,10.7" transform="matrix(1,0,0,1,596,-4)" class="stroke_order_diagram--existing_path"></path><path id="pathSk93xdzq07it" kvg:type="㇐" d="M26.75,32c2.75,0,17-1.75,19.25-1.75" transform="matrix(1,0,0,1,596,-4)" class="stroke_order_diagram--existing_path"></path><path id="pathSk93xdzq07iu" kvg:type="㇐" d="M61.5,28.5c5-0.5,19.75-1.25,22.75-1.25" transform="matrix(1,0,0,1,596,-4)" class="stroke_order_diagram--existing_path"></path><path id="pathSk93xdzq07iv" kvg:type="㇑" d="M59.37,18.25c1.09,0.5,1.74,2.25,1.96,3.25c0.22,1,0,61.25-0.22,67.5" transform="matrix(1,0,0,1,596,-4)" class="stroke_order_diagram--existing_path"></path><path id="pathSk93xdzq07iw" kvg:type="㇟" d="M45.49,20.37c0.74,1.19,1.38,2.59,1.38,4.43c0,12.45-0.03,51.14-0.03,56.7c0,13,2.92,13.53,24.17,13.53c22.25,0,23.89-1.78,23.89-11.12" transform="matrix(1,0,0,1,596,-4)" class="stroke_order_diagram--existing_path"></path><path id="kvg:09efd-s7" kvg:type="㇐" d="M22.25,51c2.75,0,22-2.75,24.25-2.75" transform="matrix(1,0,0,1,596,-4)" class="stroke_order_diagram--current_path"></path><path id="pathSk93xdzq07iy" kvg:type="㇐" d="M22.25,51c2.75,0,22-2.75,24.25-2.75" transform="matrix(1,0,0,1,596,-4)" class="stroke_order_diagram--current_path"></path><circle cx="22.25" cy="51" r="8" class="stroke_order_diagram--path_start" transform="matrix(1,0,0,1,596,-4)"></circle><line x1="750" x2="750" y1="1" y2="99" class="stroke_order_diagram--guide_line"></line><line x1="799" x2="799" y1="1" y2="99" class="stroke_order_diagram--bounding_box"></line><path id="pathSk93xdzq07j1" kvg:type="㇑" d="M22.22,18.58c0.66,0.7,0.76,1.15,1.05,2.06c0.98,3.12,2.23,9.37,3.19,13.47" transform="matrix(1,0,0,1,696,-4)" class="stroke_order_diagram--existing_path"></path><path id="pathSk93xdzq07j2" kvg:type="㇕" d="M23.54,20.19c9.21-1.44,52.24-5.09,58.08-6.04c2.15-0.35,3.44,0.93,3.13,2.14c-1.26,4.97-2.01,7.22-2.88,10.7" transform="matrix(1,0,0,1,696,-4)" class="stroke_order_diagram--existing_path"></path><path id="pathSk93xdzq07j3" kvg:type="㇐" d="M26.75,32c2.75,0,17-1.75,19.25-1.75" transform="matrix(1,0,0,1,696,-4)" class="stroke_order_diagram--existing_path"></path><path id="pathSk93xdzq07j4" kvg:type="㇐" d="M61.5,28.5c5-0.5,19.75-1.25,22.75-1.25" transform="matrix(1,0,0,1,696,-4)" class="stroke_order_diagram--existing_path"></path><path id="pathSk93xdzq07j5" kvg:type="㇑" d="M59.37,18.25c1.09,0.5,1.74,2.25,1.96,3.25c0.22,1,0,61.25-0.22,67.5" transform="matrix(1,0,0,1,696,-4)" class="stroke_order_diagram--existing_path"></path><path id="pathSk93xdzq07j6" kvg:type="㇟" d="M45.49,20.37c0.74,1.19,1.38,2.59,1.38,4.43c0,12.45-0.03,51.14-0.03,56.7c0,13,2.92,13.53,24.17,13.53c22.25,0,23.89-1.78,23.89-11.12" transform="matrix(1,0,0,1,696,-4)" class="stroke_order_diagram--existing_path"></path><path id="pathSk93xdzq07j7" kvg:type="㇐" d="M22.25,51c2.75,0,22-2.75,24.25-2.75" transform="matrix(1,0,0,1,696,-4)" class="stroke_order_diagram--existing_path"></path><path id="kvg:09efd-s8" kvg:type="㇑" d="M20.37,48.75c1.09,0.5,1.74,2.25,1.96,3.25c0.67,3,2.42,24.75,3.42,34" transform="matrix(1,0,0,1,696,-4)" class="stroke_order_diagram--current_path"></path><path id="pathSk93xdzq07j9" kvg:type="㇑" d="M20.37,48.75c1.09,0.5,1.74,2.25,1.96,3.25c0.67,3,2.42,24.75,3.42,34" transform="matrix(1,0,0,1,696,-4)" class="stroke_order_diagram--current_path"></path><circle cx="20.37" cy="48.75" r="8" class="stroke_order_diagram--path_start" transform="matrix(1,0,0,1,696,-4)"></circle><line x1="850" x2="850" y1="1" y2="99" class="stroke_order_diagram--guide_line"></line><line x1="899" x2="899" y1="1" y2="99" class="stroke_order_diagram--bounding_box"></line><path id="pathSk93xdzq07jc" kvg:type="㇑" d="M22.22,18.58c0.66,0.7,0.76,1.15,1.05,2.06c0.98,3.12,2.23,9.37,3.19,13.47" transform="matrix(1,0,0,1,796,-4)" class="stroke_order_diagram--existing_path"></path><path id="pathSk93xdzq07jd" kvg:type="㇕" d="M23.54,20.19c9.21-1.44,52.24-5.09,58.08-6.04c2.15-0.35,3.44,0.93,3.13,2.14c-1.26,4.97-2.01,7.22-2.88,10.7" transform="matrix(1,0,0,1,796,-4)" class="stroke_order_diagram--existing_path"></path><path id="pathSk93xdzq07je" kvg:type="㇐" d="M26.75,32c2.75,0,17-1.75,19.25-1.75" transform="matrix(1,0,0,1,796,-4)" class="stroke_order_diagram--existing_path"></path><path id="pathSk93xdzq07jf" kvg:type="㇐" d="M61.5,28.5c5-0.5,19.75-1.25,22.75-1.25" transform="matrix(1,0,0,1,796,-4)" class="stroke_order_diagram--existing_path"></path><path id="pathSk93xdzq07jg" kvg:type="㇑" d="M59.37,18.25c1.09,0.5,1.74,2.25,1.96,3.25c0.22,1,0,61.25-0.22,67.5" transform="matrix(1,0,0,1,796,-4)" class="stroke_order_diagram--existing_path"></path><path id="pathSk93xdzq07jh" kvg:type="㇟" d="M45.49,20.37c0.74,1.19,1.38,2.59,1.38,4.43c0,12.45-0.03,51.14-0.03,56.7c0,13,2.92,13.53,24.17,13.53c22.25,0,23.89-1.78,23.89-11.12" transform="matrix(1,0,0,1,796,-4)" class="stroke_order_diagram--existing_path"></path><path id="pathSk93xdzq07ji" kvg:type="㇐" d="M22.25,51c2.75,0,22-2.75,24.25-2.75" transform="matrix(1,0,0,1,796,-4)" class="stroke_order_diagram--existing_path"></path><path id="pathSk93xdzq07jj" kvg:type="㇑" d="M20.37,48.75c1.09,0.5,1.74,2.25,1.96,3.25c0.67,3,2.42,24.75,3.42,34" transform="matrix(1,0,0,1,796,-4)" class="stroke_order_diagram--existing_path"></path><path id="kvg:09efd-s9" kvg:type="㇐" d="M24.25,64.5c2.75,0,20.5-2.75,22.75-2.75" transform="matrix(1,0,0,1,796,-4)" class="stroke_order_diagram--current_path"></path><path id="pathSk93xdzq07jl" kvg:type="㇐" d="M24.25,64.5c2.75,0,20.5-2.75,22.75-2.75" transform="matrix(1,0,0,1,796,-4)" class="stroke_order_diagram--current_path"></path><circle cx="24.25" cy="64.5" r="8" class="stroke_order_diagram--path_start" transform="matrix(1,0,0,1,796,-4)"></circle><line x1="950" x2="950" y1="1" y2="99" class="stroke_order_diagram--guide_line"></line><line x1="999" x2="999" y1="1" y2="99" class="stroke_order_diagram--bounding_box"></line><path id="pathSk93xdzq07jo" kvg:type="㇑" d="M22.22,18.58c0.66,0.7,0.76,1.15,1.05,2.06c0.98,3.12,2.23,9.37,3.19,13.47" transform="matrix(1,0,0,1,896,-4)" class="stroke_order_diagram--existing_path"></path><path id="pathSk93xdzq07jp" kvg:type="㇕" d="M23.54,20.19c9.21-1.44,52.24-5.09,58.08-6.04c2.15-0.35,3.44,0.93,3.13,2.14c-1.26,4.97-2.01,7.22-2.88,10.7" transform="matrix(1,0,0,1,896,-4)" class="stroke_order_diagram--existing_path"></path><path id="pathSk93xdzq07jq" kvg:type="㇐" d="M26.75,32c2.75,0,17-1.75,19.25-1.75" transform="matrix(1,0,0,1,896,-4)" class="stroke_order_diagram--existing_path"></path><path id="pathSk93xdzq07jr" kvg:type="㇐" d="M61.5,28.5c5-0.5,19.75-1.25,22.75-1.25" transform="matrix(1,0,0,1,896,-4)" class="stroke_order_diagram--existing_path"></path><path id="pathSk93xdzq07js" kvg:type="㇑" d="M59.37,18.25c1.09,0.5,1.74,2.25,1.96,3.25c0.22,1,0,61.25-0.22,67.5" transform="matrix(1,0,0,1,896,-4)" class="stroke_order_diagram--existing_path"></path><path id="pathSk93xdzq07jt" kvg:type="㇟" d="M45.49,20.37c0.74,1.19,1.38,2.59,1.38,4.43c0,12.45-0.03,51.14-0.03,56.7c0,13,2.92,13.53,24.17,13.53c22.25,0,23.89-1.78,23.89-11.12" transform="matrix(1,0,0,1,896,-4)" class="stroke_order_diagram--existing_path"></path><path id="pathSk93xdzq07ju" kvg:type="㇐" d="M22.25,51c2.75,0,22-2.75,24.25-2.75" transform="matrix(1,0,0,1,896,-4)" class="stroke_order_diagram--existing_path"></path><path id="pathSk93xdzq07jv" kvg:type="㇑" d="M20.37,48.75c1.09,0.5,1.74,2.25,1.96,3.25c0.67,3,2.42,24.75,3.42,34" transform="matrix(1,0,0,1,896,-4)" class="stroke_order_diagram--existing_path"></path><path id="pathSk93xdzq07jw" kvg:type="㇐" d="M24.25,64.5c2.75,0,20.5-2.75,22.75-2.75" transform="matrix(1,0,0,1,896,-4)" class="stroke_order_diagram--existing_path"></path><path id="kvg:09efd-s10" kvg:type="㇐" d="M26,80.75c2.75,0,18.5-2.75,20.75-2.75" transform="matrix(1,0,0,1,896,-4)" class="stroke_order_diagram--current_path"></path><path id="pathSk93xdzq07jy" kvg:type="㇐" d="M26,80.75c2.75,0,18.5-2.75,20.75-2.75" transform="matrix(1,0,0,1,896,-4)" class="stroke_order_diagram--current_path"></path><circle cx="26" cy="80.75" r="8" class="stroke_order_diagram--path_start" transform="matrix(1,0,0,1,896,-4)"></circle><line x1="1050" x2="1050" y1="1" y2="99" class="stroke_order_diagram--guide_line"></line><line x1="1099" x2="1099" y1="1" y2="99" class="stroke_order_diagram--bounding_box"></line><path id="pathSk93xdzq07k1" kvg:type="㇑" d="M22.22,18.58c0.66,0.7,0.76,1.15,1.05,2.06c0.98,3.12,2.23,9.37,3.19,13.47" transform="matrix(1,0,0,1,996,-4)" class="stroke_order_diagram--existing_path"></path><path id="pathSk93xdzq07k2" kvg:type="㇕" d="M23.54,20.19c9.21-1.44,52.24-5.09,58.08-6.04c2.15-0.35,3.44,0.93,3.13,2.14c-1.26,4.97-2.01,7.22-2.88,10.7" transform="matrix(1,0,0,1,996,-4)" class="stroke_order_diagram--existing_path"></path><path id="pathSk93xdzq07k3" kvg:type="㇐" d="M26.75,32c2.75,0,17-1.75,19.25-1.75" transform="matrix(1,0,0,1,996,-4)" class="stroke_order_diagram--existing_path"></path><path id="pathSk93xdzq07k4" kvg:type="㇐" d="M61.5,28.5c5-0.5,19.75-1.25,22.75-1.25" transform="matrix(1,0,0,1,996,-4)" class="stroke_order_diagram--existing_path"></path><path id="pathSk93xdzq07k5" kvg:type="㇑" d="M59.37,18.25c1.09,0.5,1.74,2.25,1.96,3.25c0.22,1,0,61.25-0.22,67.5" transform="matrix(1,0,0,1,996,-4)" class="stroke_order_diagram--existing_path"></path><path id="pathSk93xdzq07k6" kvg:type="㇟" d="M45.49,20.37c0.74,1.19,1.38,2.59,1.38,4.43c0,12.45-0.03,51.14-0.03,56.7c0,13,2.92,13.53,24.17,13.53c22.25,0,23.89-1.78,23.89-11.12" transform="matrix(1,0,0,1,996,-4)" class="stroke_order_diagram--existing_path"></path><path id="pathSk93xdzq07k7" kvg:type="㇐" d="M22.25,51c2.75,0,22-2.75,24.25-2.75" transform="matrix(1,0,0,1,996,-4)" class="stroke_order_diagram--existing_path"></path><path id="pathSk93xdzq07k8" kvg:type="㇑" d="M20.37,48.75c1.09,0.5,1.74,2.25,1.96,3.25c0.67,3,2.42,24.75,3.42,34" transform="matrix(1,0,0,1,996,-4)" class="stroke_order_diagram--existing_path"></path><path id="pathSk93xdzq07k9" kvg:type="㇐" d="M24.25,64.5c2.75,0,20.5-2.75,22.75-2.75" transform="matrix(1,0,0,1,996,-4)" class="stroke_order_diagram--existing_path"></path><path id="pathSk93xdzq07ka" kvg:type="㇐" d="M26,80.75c2.75,0,18.5-2.75,20.75-2.75" transform="matrix(1,0,0,1,996,-4)" class="stroke_order_diagram--existing_path"></path><path id="kvg:09efd-s11" kvg:type="㇕" d="M61.54,47.19c9.21-1.44,14.24-1.59,20.08-2.54c2.15-0.35,3.28,0.9,3.13,2.14c-0.76,6.72-2.51,24.97-3.38,31.7" transform="matrix(1,0,0,1,996,-4)" class="stroke_order_diagram--current_path"></path><path id="pathSk93xdzq07kc" kvg:type="㇕" d="M61.54,47.19c9.21-1.44,14.24-1.59,20.08-2.54c2.15-0.35,3.28,0.9,3.13,2.14c-0.76,6.72-2.51,24.97-3.38,31.7" transform="matrix(1,0,0,1,996,-4)" class="stroke_order_diagram--current_path"></path><circle cx="61.54" cy="47.19" r="8" class="stroke_order_diagram--path_start" transform="matrix(1,0,0,1,996,-4)"></circle><line x1="1150" x2="1150" y1="1" y2="99" class="stroke_order_diagram--guide_line"></line><line x1="1199" x2="1199" y1="1" y2="99" class="stroke_order_diagram--bounding_box"></line><path id="pathSk93xdzq07kf" kvg:type="㇑" d="M22.22,18.58c0.66,0.7,0.76,1.15,1.05,2.06c0.98,3.12,2.23,9.37,3.19,13.47" transform="matrix(1,0,0,1,1096,-4)" class="stroke_order_diagram--existing_path"></path><path id="pathSk93xdzq07kg" kvg:type="㇕" d="M23.54,20.19c9.21-1.44,52.24-5.09,58.08-6.04c2.15-0.35,3.44,0.93,3.13,2.14c-1.26,4.97-2.01,7.22-2.88,10.7" transform="matrix(1,0,0,1,1096,-4)" class="stroke_order_diagram--existing_path"></path><path id="pathSk93xdzq07kh" kvg:type="㇐" d="M26.75,32c2.75,0,17-1.75,19.25-1.75" transform="matrix(1,0,0,1,1096,-4)" class="stroke_order_diagram--existing_path"></path><path id="pathSk93xdzq07ki" kvg:type="㇐" d="M61.5,28.5c5-0.5,19.75-1.25,22.75-1.25" transform="matrix(1,0,0,1,1096,-4)" class="stroke_order_diagram--existing_path"></path><path id="pathSk93xdzq07kj" kvg:type="㇑" d="M59.37,18.25c1.09,0.5,1.74,2.25,1.96,3.25c0.22,1,0,61.25-0.22,67.5" transform="matrix(1,0,0,1,1096,-4)" class="stroke_order_diagram--existing_path"></path><path id="pathSk93xdzq07kk" kvg:type="㇟" d="M45.49,20.37c0.74,1.19,1.38,2.59,1.38,4.43c0,12.45-0.03,51.14-0.03,56.7c0,13,2.92,13.53,24.17,13.53c22.25,0,23.89-1.78,23.89-11.12" transform="matrix(1,0,0,1,1096,-4)" class="stroke_order_diagram--existing_path"></path><path id="pathSk93xdzq07kl" kvg:type="㇐" d="M22.25,51c2.75,0,22-2.75,24.25-2.75" transform="matrix(1,0,0,1,1096,-4)" class="stroke_order_diagram--existing_path"></path><path id="pathSk93xdzq07km" kvg:type="㇑" d="M20.37,48.75c1.09,0.5,1.74,2.25,1.96,3.25c0.67,3,2.42,24.75,3.42,34" transform="matrix(1,0,0,1,1096,-4)" class="stroke_order_diagram--existing_path"></path><path id="pathSk93xdzq07kn" kvg:type="㇐" d="M24.25,64.5c2.75,0,20.5-2.75,22.75-2.75" transform="matrix(1,0,0,1,1096,-4)" class="stroke_order_diagram--existing_path"></path><path id="pathSk93xdzq07ko" kvg:type="㇐" d="M26,80.75c2.75,0,18.5-2.75,20.75-2.75" transform="matrix(1,0,0,1,1096,-4)" class="stroke_order_diagram--existing_path"></path><path id="pathSk93xdzq07kp" kvg:type="㇕" d="M61.54,47.19c9.21-1.44,14.24-1.59,20.08-2.54c2.15-0.35,3.28,0.9,3.13,2.14c-0.76,6.72-2.51,24.97-3.38,31.7" transform="matrix(1,0,0,1,1096,-4)" class="stroke_order_diagram--existing_path"></path><path id="kvg:09efd-s12" kvg:type="㇐" d="M61.75,61.75c2.75,0,19.5-1.75,21.75-1.75" transform="matrix(1,0,0,1,1096,-4)" class="stroke_order_diagram--current_path"></path><path id="pathSk93xdzq07kr" kvg:type="㇐" d="M61.75,61.75c2.75,0,19.5-1.75,21.75-1.75" transform="matrix(1,0,0,1,1096,-4)" class="stroke_order_diagram--current_path"></path><circle cx="61.75" cy="61.75" r="8" class="stroke_order_diagram--path_start" transform="matrix(1,0,0,1,1096,-4)"></circle><line x1="1250" x2="1250" y1="1" y2="99" class="stroke_order_diagram--guide_line"></line><line x1="1299" x2="1299" y1="1" y2="99" class="stroke_order_diagram--bounding_box"></line><path id="pathSk93xdzq07ku" kvg:type="㇑" d="M22.22,18.58c0.66,0.7,0.76,1.15,1.05,2.06c0.98,3.12,2.23,9.37,3.19,13.47" transform="matrix(1,0,0,1,1196,-4)" class="stroke_order_diagram--existing_path"></path><path id="pathSk93xdzq07kv" kvg:type="㇕" d="M23.54,20.19c9.21-1.44,52.24-5.09,58.08-6.04c2.15-0.35,3.44,0.93,3.13,2.14c-1.26,4.97-2.01,7.22-2.88,10.7" transform="matrix(1,0,0,1,1196,-4)" class="stroke_order_diagram--existing_path"></path><path id="pathSk93xdzq07kw" kvg:type="㇐" d="M26.75,32c2.75,0,17-1.75,19.25-1.75" transform="matrix(1,0,0,1,1196,-4)" class="stroke_order_diagram--existing_path"></path><path id="pathSk93xdzq07kx" kvg:type="㇐" d="M61.5,28.5c5-0.5,19.75-1.25,22.75-1.25" transform="matrix(1,0,0,1,1196,-4)" class="stroke_order_diagram--existing_path"></path><path id="pathSk93xdzq07ky" kvg:type="㇑" d="M59.37,18.25c1.09,0.5,1.74,2.25,1.96,3.25c0.22,1,0,61.25-0.22,67.5" transform="matrix(1,0,0,1,1196,-4)" class="stroke_order_diagram--existing_path"></path><path id="pathSk93xdzq07kz" kvg:type="㇟" d="M45.49,20.37c0.74,1.19,1.38,2.59,1.38,4.43c0,12.45-0.03,51.14-0.03,56.7c0,13,2.92,13.53,24.17,13.53c22.25,0,23.89-1.78,23.89-11.12" transform="matrix(1,0,0,1,1196,-4)" class="stroke_order_diagram--existing_path"></path><path id="pathSk93xdzq07l0" kvg:type="㇐" d="M22.25,51c2.75,0,22-2.75,24.25-2.75" transform="matrix(1,0,0,1,1196,-4)" class="stroke_order_diagram--existing_path"></path><path id="pathSk93xdzq07l1" kvg:type="㇑" d="M20.37,48.75c1.09,0.5,1.74,2.25,1.96,3.25c0.67,3,2.42,24.75,3.42,34" transform="matrix(1,0,0,1,1196,-4)" class="stroke_order_diagram--existing_path"></path><path id="pathSk93xdzq07l2" kvg:type="㇐" d="M24.25,64.5c2.75,0,20.5-2.75,22.75-2.75" transform="matrix(1,0,0,1,1196,-4)" class="stroke_order_diagram--existing_path"></path><path id="pathSk93xdzq07l3" kvg:type="㇐" d="M26,80.75c2.75,0,18.5-2.75,20.75-2.75" transform="matrix(1,0,0,1,1196,-4)" class="stroke_order_diagram--existing_path"></path><path id="pathSk93xdzq07l4" kvg:type="㇕" d="M61.54,47.19c9.21-1.44,14.24-1.59,20.08-2.54c2.15-0.35,3.28,0.9,3.13,2.14c-0.76,6.72-2.51,24.97-3.38,31.7" transform="matrix(1,0,0,1,1196,-4)" class="stroke_order_diagram--existing_path"></path><path id="pathSk93xdzq07l5" kvg:type="㇐" d="M61.75,61.75c2.75,0,19.5-1.75,21.75-1.75" transform="matrix(1,0,0,1,1196,-4)" class="stroke_order_diagram--existing_path"></path><path id="kvg:09efd-s13" kvg:type="㇐" d="M62,77c2.75,0,17-1.75,19.25-1.75" transform="matrix(1,0,0,1,1196,-4)" class="stroke_order_diagram--current_path"></path><path id="pathSk93xdzq07l7" kvg:type="㇐" d="M62,77c2.75,0,17-1.75,19.25-1.75" transform="matrix(1,0,0,1,1196,-4)" class="stroke_order_diagram--current_path"></path><circle cx="62" cy="77" r="8" class="stroke_order_diagram--path_start" transform="matrix(1,0,0,1,1196,-4)"></circle></svg>