<?xml version="1.0" encoding="UTF-8"?>
<!DOCTYPE svg PUBLIC "-//W3C//DTD SVG 1.0//EN" "http://www.w3.org/TR/2001/REC-SVG-20010904/DTD/svg10.dtd" [
<!ATTLIST g
xmlns:kvg CDATA #FIXED "http://kanjivg.tagaini.net"
kvg:element CDATA #IMPLIED
kvg:variant CDATA #IMPLIED
kvg:partial CDATA #IMPLIED
kvg:original CDATA #IMPLIED
kvg:part CDATA #IMPLIED
kvg:number CDATA #IMPLIED
kvg:tradForm CDATA #IMPLIED
kvg:radicalForm CDATA #IMPLIED
kvg:position CDATA #IMPLIED
kvg:radical CDATA #IMPLIED
kvg:phon CDATA #IMPLIED >
<!ATTLIST path
xmlns:kvg CDATA #FIXED "http://kanjivg.tagaini.net"
kvg:type CDATA #IMPLIED >
]><svg style="width: 1200px; height: 100px;" xmlns="http://www.w3.org/2000/svg" xmlns:xlink="http://www.w3.org/1999/xlink" width="1200px" height="100px"><style>
.stroke_order_diagram--outer_container {
  width: 100%;
  overflow-x: auto;
  overflow-y: hidden;
}

.stroke_order_diagram--guide_line {
  fill: none;
  stroke: #ddd;
  stroke-width: 3;
  stroke-linecap: square;
  stroke-linejoin: square;
  stroke-dasharray:8, 8;
}

.stroke_order_diagram--bounding_box {
  fill: none;
  stroke: #ddd;
  stroke-width: 4;
  stroke-linecap: square;
  stroke-linejoin: square;
}

.stroke_order_diagram--current_path {
  fill: none;
  stroke: #000;
  stroke-width: 6;
  stroke-linecap: round;
  stroke-linejoin: round;
}

.stroke_order_diagram--existing_path {
  fill: none;
  stroke: #aaa;
  stroke-width: 6;
  stroke-linecap: round;
  stroke-linejoin:round;
}

.stroke_order_diagram--path_start {
  fill: rgba(255, 0, 0, 0.7);
  stroke:none
}</style><desc>Created with Snap</desc><defs></defs><line x1="1" x2="1199" y1="1" y2="1" class="stroke_order_diagram--bounding_box"></line><line x1="1" x2="1" y1="1" y2="99" class="stroke_order_diagram--bounding_box"></line><line x1="1" x2="1199" y1="99" y2="99" class="stroke_order_diagram--bounding_box"></line><line x1="0" x2="1200" y1="50" y2="50" class="stroke_order_diagram--guide_line"></line><line x1="50" x2="50" y1="1" y2="99" class="stroke_order_diagram--guide_line"></line><line x1="99" x2="99" y1="1" y2="99" class="stroke_order_diagram--bounding_box"></line><path id="kvg:09ef9-s1" kvg:type="㇑" d="M44.87,13.32c1.09,0.5,1.74,2.25,1.96,3.25c0.22,1-0.08,9-0.08,15.5" transform="matrix(1,0,0,1,-4,-4)" class="stroke_order_diagram--current_path"></path><path id="pathSk940yk7k7e0" kvg:type="㇑" d="M44.87,13.32c1.09,0.5,1.74,2.25,1.96,3.25c0.22,1-0.08,9-0.08,15.5" transform="matrix(1,0,0,1,-4,-4)" class="stroke_order_diagram--current_path"></path><circle cx="44.87" cy="13.32" r="8" class="stroke_order_diagram--path_start" transform="matrix(1,0,0,1,-4,-4)"></circle><line x1="150" x2="150" y1="1" y2="99" class="stroke_order_diagram--guide_line"></line><line x1="199" x2="199" y1="1" y2="99" class="stroke_order_diagram--bounding_box"></line><path id="pathSk940yk7k7e3" kvg:type="㇑" d="M44.87,13.32c1.09,0.5,1.74,2.25,1.96,3.25c0.22,1-0.08,9-0.08,15.5" transform="matrix(1,0,0,1,96,-4)" class="stroke_order_diagram--existing_path"></path><path id="kvg:09ef9-s2" kvg:type="㇑" d="M60.12,11.57c1.09,0.5,1.74,2.25,1.96,3.25c0.22,1-0.08,7.75-0.08,15.5" transform="matrix(1,0,0,1,96,-4)" class="stroke_order_diagram--current_path"></path><path id="pathSk940yk7k7e5" kvg:type="㇑" d="M60.12,11.57c1.09,0.5,1.74,2.25,1.96,3.25c0.22,1-0.08,7.75-0.08,15.5" transform="matrix(1,0,0,1,96,-4)" class="stroke_order_diagram--current_path"></path><circle cx="60.12" cy="11.57" r="8" class="stroke_order_diagram--path_start" transform="matrix(1,0,0,1,96,-4)"></circle><line x1="250" x2="250" y1="1" y2="99" class="stroke_order_diagram--guide_line"></line><line x1="299" x2="299" y1="1" y2="99" class="stroke_order_diagram--bounding_box"></line><path id="pathSk940yk7k7e8" kvg:type="㇑" d="M44.87,13.32c1.09,0.5,1.74,2.25,1.96,3.25c0.22,1-0.08,9-0.08,15.5" transform="matrix(1,0,0,1,196,-4)" class="stroke_order_diagram--existing_path"></path><path id="pathSk940yk7k7e9" kvg:type="㇑" d="M60.12,11.57c1.09,0.5,1.74,2.25,1.96,3.25c0.22,1-0.08,7.75-0.08,15.5" transform="matrix(1,0,0,1,196,-4)" class="stroke_order_diagram--existing_path"></path><path id="kvg:09ef9-s3" kvg:type="㇔" d="M28.02,20.9c2.57,1.74,6.65,7.17,7.29,9.88" transform="matrix(1,0,0,1,196,-4)" class="stroke_order_diagram--current_path"></path><path id="pathSk940yk7k7eb" kvg:type="㇔" d="M28.02,20.9c2.57,1.74,6.65,7.17,7.29,9.88" transform="matrix(1,0,0,1,196,-4)" class="stroke_order_diagram--current_path"></path><circle cx="28.02" cy="20.9" r="8" class="stroke_order_diagram--path_start" transform="matrix(1,0,0,1,196,-4)"></circle><line x1="350" x2="350" y1="1" y2="99" class="stroke_order_diagram--guide_line"></line><line x1="399" x2="399" y1="1" y2="99" class="stroke_order_diagram--bounding_box"></line><path id="pathSk940yk7k7ee" kvg:type="㇑" d="M44.87,13.32c1.09,0.5,1.74,2.25,1.96,3.25c0.22,1-0.08,9-0.08,15.5" transform="matrix(1,0,0,1,296,-4)" class="stroke_order_diagram--existing_path"></path><path id="pathSk940yk7k7ef" kvg:type="㇑" d="M60.12,11.57c1.09,0.5,1.74,2.25,1.96,3.25c0.22,1-0.08,7.75-0.08,15.5" transform="matrix(1,0,0,1,296,-4)" class="stroke_order_diagram--existing_path"></path><path id="pathSk940yk7k7eg" kvg:type="㇔" d="M28.02,20.9c2.57,1.74,6.65,7.17,7.29,9.88" transform="matrix(1,0,0,1,296,-4)" class="stroke_order_diagram--existing_path"></path><path id="kvg:09ef9-s4" kvg:type="㇒" d="M80.71,16.21c0.02,0.26,0.03,0.67-0.03,1.05c-0.4,2.21-2.68,7.06-5.8,10.03" transform="matrix(1,0,0,1,296,-4)" class="stroke_order_diagram--current_path"></path><path id="pathSk940yk7k7ei" kvg:type="㇒" d="M80.71,16.21c0.02,0.26,0.03,0.67-0.03,1.05c-0.4,2.21-2.68,7.06-5.8,10.03" transform="matrix(1,0,0,1,296,-4)" class="stroke_order_diagram--current_path"></path><circle cx="80.71" cy="16.21" r="8" class="stroke_order_diagram--path_start" transform="matrix(1,0,0,1,296,-4)"></circle><line x1="450" x2="450" y1="1" y2="99" class="stroke_order_diagram--guide_line"></line><line x1="499" x2="499" y1="1" y2="99" class="stroke_order_diagram--bounding_box"></line><path id="pathSk940yk7k7el" kvg:type="㇑" d="M44.87,13.32c1.09,0.5,1.74,2.25,1.96,3.25c0.22,1-0.08,9-0.08,15.5" transform="matrix(1,0,0,1,396,-4)" class="stroke_order_diagram--existing_path"></path><path id="pathSk940yk7k7em" kvg:type="㇑" d="M60.12,11.57c1.09,0.5,1.74,2.25,1.96,3.25c0.22,1-0.08,7.75-0.08,15.5" transform="matrix(1,0,0,1,396,-4)" class="stroke_order_diagram--existing_path"></path><path id="pathSk940yk7k7en" kvg:type="㇔" d="M28.02,20.9c2.57,1.74,6.65,7.17,7.29,9.88" transform="matrix(1,0,0,1,396,-4)" class="stroke_order_diagram--existing_path"></path><path id="pathSk940yk7k7eo" kvg:type="㇒" d="M80.71,16.21c0.02,0.26,0.03,0.67-0.03,1.05c-0.4,2.21-2.68,7.06-5.8,10.03" transform="matrix(1,0,0,1,396,-4)" class="stroke_order_diagram--existing_path"></path><path id="kvg:09ef9-s5" kvg:type="㇐" d="M13.25,34.71c1.54,0.59,4.36,0.73,5.89,0.59c17.11-1.48,52.86-4.98,70.48-5.21c2.56-0.03,4.1,0.28,5.38,0.58" transform="matrix(1,0,0,1,396,-4)" class="stroke_order_diagram--current_path"></path><path id="pathSk940yk7k7eq" kvg:type="㇐" d="M13.25,34.71c1.54,0.59,4.36,0.73,5.89,0.59c17.11-1.48,52.86-4.98,70.48-5.21c2.56-0.03,4.1,0.28,5.38,0.58" transform="matrix(1,0,0,1,396,-4)" class="stroke_order_diagram--current_path"></path><circle cx="13.25" cy="34.71" r="8" class="stroke_order_diagram--path_start" transform="matrix(1,0,0,1,396,-4)"></circle><line x1="550" x2="550" y1="1" y2="99" class="stroke_order_diagram--guide_line"></line><line x1="599" x2="599" y1="1" y2="99" class="stroke_order_diagram--bounding_box"></line><path id="pathSk940yk7k7et" kvg:type="㇑" d="M44.87,13.32c1.09,0.5,1.74,2.25,1.96,3.25c0.22,1-0.08,9-0.08,15.5" transform="matrix(1,0,0,1,496,-4)" class="stroke_order_diagram--existing_path"></path><path id="pathSk940yk7k7eu" kvg:type="㇑" d="M60.12,11.57c1.09,0.5,1.74,2.25,1.96,3.25c0.22,1-0.08,7.75-0.08,15.5" transform="matrix(1,0,0,1,496,-4)" class="stroke_order_diagram--existing_path"></path><path id="pathSk940yk7k7ev" kvg:type="㇔" d="M28.02,20.9c2.57,1.74,6.65,7.17,7.29,9.88" transform="matrix(1,0,0,1,496,-4)" class="stroke_order_diagram--existing_path"></path><path id="pathSk940yk7k7ew" kvg:type="㇒" d="M80.71,16.21c0.02,0.26,0.03,0.67-0.03,1.05c-0.4,2.21-2.68,7.06-5.8,10.03" transform="matrix(1,0,0,1,496,-4)" class="stroke_order_diagram--existing_path"></path><path id="pathSk940yk7k7ex" kvg:type="㇐" d="M13.25,34.71c1.54,0.59,4.36,0.73,5.89,0.59c17.11-1.48,52.86-4.98,70.48-5.21c2.56-0.03,4.1,0.28,5.38,0.58" transform="matrix(1,0,0,1,496,-4)" class="stroke_order_diagram--existing_path"></path><path id="kvg:09ef9-s6" kvg:type="㇒" d="M38.5,38.96c0.06,0.4,0.12,1.02-0.12,1.59c-1.43,3.36-9.61,10.72-20.82,15.23" transform="matrix(1,0,0,1,496,-4)" class="stroke_order_diagram--current_path"></path><path id="pathSk940yk7k7ez" kvg:type="㇒" d="M38.5,38.96c0.06,0.4,0.12,1.02-0.12,1.59c-1.43,3.36-9.61,10.72-20.82,15.23" transform="matrix(1,0,0,1,496,-4)" class="stroke_order_diagram--current_path"></path><circle cx="38.5" cy="38.96" r="8" class="stroke_order_diagram--path_start" transform="matrix(1,0,0,1,496,-4)"></circle><line x1="650" x2="650" y1="1" y2="99" class="stroke_order_diagram--guide_line"></line><line x1="699" x2="699" y1="1" y2="99" class="stroke_order_diagram--bounding_box"></line><path id="pathSk940yk7k7f2" kvg:type="㇑" d="M44.87,13.32c1.09,0.5,1.74,2.25,1.96,3.25c0.22,1-0.08,9-0.08,15.5" transform="matrix(1,0,0,1,596,-4)" class="stroke_order_diagram--existing_path"></path><path id="pathSk940yk7k7f3" kvg:type="㇑" d="M60.12,11.57c1.09,0.5,1.74,2.25,1.96,3.25c0.22,1-0.08,7.75-0.08,15.5" transform="matrix(1,0,0,1,596,-4)" class="stroke_order_diagram--existing_path"></path><path id="pathSk940yk7k7f4" kvg:type="㇔" d="M28.02,20.9c2.57,1.74,6.65,7.17,7.29,9.88" transform="matrix(1,0,0,1,596,-4)" class="stroke_order_diagram--existing_path"></path><path id="pathSk940yk7k7f5" kvg:type="㇒" d="M80.71,16.21c0.02,0.26,0.03,0.67-0.03,1.05c-0.4,2.21-2.68,7.06-5.8,10.03" transform="matrix(1,0,0,1,596,-4)" class="stroke_order_diagram--existing_path"></path><path id="pathSk940yk7k7f6" kvg:type="㇐" d="M13.25,34.71c1.54,0.59,4.36,0.73,5.89,0.59c17.11-1.48,52.86-4.98,70.48-5.21c2.56-0.03,4.1,0.28,5.38,0.58" transform="matrix(1,0,0,1,596,-4)" class="stroke_order_diagram--existing_path"></path><path id="pathSk940yk7k7f7" kvg:type="㇒" d="M38.5,38.96c0.06,0.4,0.12,1.02-0.12,1.59c-1.43,3.36-9.61,10.72-20.82,15.23" transform="matrix(1,0,0,1,596,-4)" class="stroke_order_diagram--existing_path"></path><path id="kvg:09ef9-s7" kvg:type="㇔" d="M70.02,36.65c6.99,1.88,18.05,7.71,19.79,10.63" transform="matrix(1,0,0,1,596,-4)" class="stroke_order_diagram--current_path"></path><path id="pathSk940yk7k7f9" kvg:type="㇔" d="M70.02,36.65c6.99,1.88,18.05,7.71,19.79,10.63" transform="matrix(1,0,0,1,596,-4)" class="stroke_order_diagram--current_path"></path><circle cx="70.02" cy="36.65" r="8" class="stroke_order_diagram--path_start" transform="matrix(1,0,0,1,596,-4)"></circle><line x1="750" x2="750" y1="1" y2="99" class="stroke_order_diagram--guide_line"></line><line x1="799" x2="799" y1="1" y2="99" class="stroke_order_diagram--bounding_box"></line><path id="pathSk940yk7k7fc" kvg:type="㇑" d="M44.87,13.32c1.09,0.5,1.74,2.25,1.96,3.25c0.22,1-0.08,9-0.08,15.5" transform="matrix(1,0,0,1,696,-4)" class="stroke_order_diagram--existing_path"></path><path id="pathSk940yk7k7fd" kvg:type="㇑" d="M60.12,11.57c1.09,0.5,1.74,2.25,1.96,3.25c0.22,1-0.08,7.75-0.08,15.5" transform="matrix(1,0,0,1,696,-4)" class="stroke_order_diagram--existing_path"></path><path id="pathSk940yk7k7fe" kvg:type="㇔" d="M28.02,20.9c2.57,1.74,6.65,7.17,7.29,9.88" transform="matrix(1,0,0,1,696,-4)" class="stroke_order_diagram--existing_path"></path><path id="pathSk940yk7k7ff" kvg:type="㇒" d="M80.71,16.21c0.02,0.26,0.03,0.67-0.03,1.05c-0.4,2.21-2.68,7.06-5.8,10.03" transform="matrix(1,0,0,1,696,-4)" class="stroke_order_diagram--existing_path"></path><path id="pathSk940yk7k7fg" kvg:type="㇐" d="M13.25,34.71c1.54,0.59,4.36,0.73,5.89,0.59c17.11-1.48,52.86-4.98,70.48-5.21c2.56-0.03,4.1,0.28,5.38,0.58" transform="matrix(1,0,0,1,696,-4)" class="stroke_order_diagram--existing_path"></path><path id="pathSk940yk7k7fh" kvg:type="㇒" d="M38.5,38.96c0.06,0.4,0.12,1.02-0.12,1.59c-1.43,3.36-9.61,10.72-20.82,15.23" transform="matrix(1,0,0,1,696,-4)" class="stroke_order_diagram--existing_path"></path><path id="pathSk940yk7k7fi" kvg:type="㇔" d="M70.02,36.65c6.99,1.88,18.05,7.71,19.79,10.63" transform="matrix(1,0,0,1,696,-4)" class="stroke_order_diagram--existing_path"></path><path id="kvg:09ef9-s8" kvg:type="㇑" d="M27.75,53.82c0.75,1.25,1,3.24,1,5.5c0,3.75,0.25,35.5,0.25,39.25" transform="matrix(1,0,0,1,696,-4)" class="stroke_order_diagram--current_path"></path><path id="pathSk940yk7k7fk" kvg:type="㇑" d="M27.75,53.82c0.75,1.25,1,3.24,1,5.5c0,3.75,0.25,35.5,0.25,39.25" transform="matrix(1,0,0,1,696,-4)" class="stroke_order_diagram--current_path"></path><circle cx="27.75" cy="53.82" r="8" class="stroke_order_diagram--path_start" transform="matrix(1,0,0,1,696,-4)"></circle><line x1="850" x2="850" y1="1" y2="99" class="stroke_order_diagram--guide_line"></line><line x1="899" x2="899" y1="1" y2="99" class="stroke_order_diagram--bounding_box"></line><path id="pathSk940yk7k7fn" kvg:type="㇑" d="M44.87,13.32c1.09,0.5,1.74,2.25,1.96,3.25c0.22,1-0.08,9-0.08,15.5" transform="matrix(1,0,0,1,796,-4)" class="stroke_order_diagram--existing_path"></path><path id="pathSk940yk7k7fo" kvg:type="㇑" d="M60.12,11.57c1.09,0.5,1.74,2.25,1.96,3.25c0.22,1-0.08,7.75-0.08,15.5" transform="matrix(1,0,0,1,796,-4)" class="stroke_order_diagram--existing_path"></path><path id="pathSk940yk7k7fp" kvg:type="㇔" d="M28.02,20.9c2.57,1.74,6.65,7.17,7.29,9.88" transform="matrix(1,0,0,1,796,-4)" class="stroke_order_diagram--existing_path"></path><path id="pathSk940yk7k7fq" kvg:type="㇒" d="M80.71,16.21c0.02,0.26,0.03,0.67-0.03,1.05c-0.4,2.21-2.68,7.06-5.8,10.03" transform="matrix(1,0,0,1,796,-4)" class="stroke_order_diagram--existing_path"></path><path id="pathSk940yk7k7fr" kvg:type="㇐" d="M13.25,34.71c1.54,0.59,4.36,0.73,5.89,0.59c17.11-1.48,52.86-4.98,70.48-5.21c2.56-0.03,4.1,0.28,5.38,0.58" transform="matrix(1,0,0,1,796,-4)" class="stroke_order_diagram--existing_path"></path><path id="pathSk940yk7k7fs" kvg:type="㇒" d="M38.5,38.96c0.06,0.4,0.12,1.02-0.12,1.59c-1.43,3.36-9.61,10.72-20.82,15.23" transform="matrix(1,0,0,1,796,-4)" class="stroke_order_diagram--existing_path"></path><path id="pathSk940yk7k7ft" kvg:type="㇔" d="M70.02,36.65c6.99,1.88,18.05,7.71,19.79,10.63" transform="matrix(1,0,0,1,796,-4)" class="stroke_order_diagram--existing_path"></path><path id="pathSk940yk7k7fu" kvg:type="㇑" d="M27.75,53.82c0.75,1.25,1,3.24,1,5.5c0,3.75,0.25,35.5,0.25,39.25" transform="matrix(1,0,0,1,796,-4)" class="stroke_order_diagram--existing_path"></path><path id="kvg:09ef9-s9" kvg:type="㇆a" d="M28.75,55.82c9.5-1,45.6-6.5,47.5-6.5c2.5,0,5,1.25,5,4c0,4-0.25,31.75-0.25,37.5c0,9.25-3.25,5.25-6.25,2" transform="matrix(1,0,0,1,796,-4)" class="stroke_order_diagram--current_path"></path><path id="pathSk940yk7k7fw" kvg:type="㇆a" d="M28.75,55.82c9.5-1,45.6-6.5,47.5-6.5c2.5,0,5,1.25,5,4c0,4-0.25,31.75-0.25,37.5c0,9.25-3.25,5.25-6.25,2" transform="matrix(1,0,0,1,796,-4)" class="stroke_order_diagram--current_path"></path><circle cx="28.75" cy="55.82" r="8" class="stroke_order_diagram--path_start" transform="matrix(1,0,0,1,796,-4)"></circle><line x1="950" x2="950" y1="1" y2="99" class="stroke_order_diagram--guide_line"></line><line x1="999" x2="999" y1="1" y2="99" class="stroke_order_diagram--bounding_box"></line><path id="pathSk940yk7k7fz" kvg:type="㇑" d="M44.87,13.32c1.09,0.5,1.74,2.25,1.96,3.25c0.22,1-0.08,9-0.08,15.5" transform="matrix(1,0,0,1,896,-4)" class="stroke_order_diagram--existing_path"></path><path id="pathSk940yk7k7g0" kvg:type="㇑" d="M60.12,11.57c1.09,0.5,1.74,2.25,1.96,3.25c0.22,1-0.08,7.75-0.08,15.5" transform="matrix(1,0,0,1,896,-4)" class="stroke_order_diagram--existing_path"></path><path id="pathSk940yk7k7g1" kvg:type="㇔" d="M28.02,20.9c2.57,1.74,6.65,7.17,7.29,9.88" transform="matrix(1,0,0,1,896,-4)" class="stroke_order_diagram--existing_path"></path><path id="pathSk940yk7k7g2" kvg:type="㇒" d="M80.71,16.21c0.02,0.26,0.03,0.67-0.03,1.05c-0.4,2.21-2.68,7.06-5.8,10.03" transform="matrix(1,0,0,1,896,-4)" class="stroke_order_diagram--existing_path"></path><path id="pathSk940yk7k7g3" kvg:type="㇐" d="M13.25,34.71c1.54,0.59,4.36,0.73,5.89,0.59c17.11-1.48,52.86-4.98,70.48-5.21c2.56-0.03,4.1,0.28,5.38,0.58" transform="matrix(1,0,0,1,896,-4)" class="stroke_order_diagram--existing_path"></path><path id="pathSk940yk7k7g4" kvg:type="㇒" d="M38.5,38.96c0.06,0.4,0.12,1.02-0.12,1.59c-1.43,3.36-9.61,10.72-20.82,15.23" transform="matrix(1,0,0,1,896,-4)" class="stroke_order_diagram--existing_path"></path><path id="pathSk940yk7k7g5" kvg:type="㇔" d="M70.02,36.65c6.99,1.88,18.05,7.71,19.79,10.63" transform="matrix(1,0,0,1,896,-4)" class="stroke_order_diagram--existing_path"></path><path id="pathSk940yk7k7g6" kvg:type="㇑" d="M27.75,53.82c0.75,1.25,1,3.24,1,5.5c0,3.75,0.25,35.5,0.25,39.25" transform="matrix(1,0,0,1,896,-4)" class="stroke_order_diagram--existing_path"></path><path id="pathSk940yk7k7g7" kvg:type="㇆a" d="M28.75,55.82c9.5-1,45.6-6.5,47.5-6.5c2.5,0,5,1.25,5,4c0,4-0.25,31.75-0.25,37.5c0,9.25-3.25,5.25-6.25,2" transform="matrix(1,0,0,1,896,-4)" class="stroke_order_diagram--existing_path"></path><path id="kvg:09ef9-s10" kvg:type="㇑" d="M53.5,35.32c0.75,1.25,1,3.24,1,5.5c0,3.75-0.25,53-0.25,56.75" transform="matrix(1,0,0,1,896,-4)" class="stroke_order_diagram--current_path"></path><path id="pathSk940yk7k7g9" kvg:type="㇑" d="M53.5,35.32c0.75,1.25,1,3.24,1,5.5c0,3.75-0.25,53-0.25,56.75" transform="matrix(1,0,0,1,896,-4)" class="stroke_order_diagram--current_path"></path><circle cx="53.5" cy="35.32" r="8" class="stroke_order_diagram--path_start" transform="matrix(1,0,0,1,896,-4)"></circle><line x1="1050" x2="1050" y1="1" y2="99" class="stroke_order_diagram--guide_line"></line><line x1="1099" x2="1099" y1="1" y2="99" class="stroke_order_diagram--bounding_box"></line><path id="pathSk940yk7k7gc" kvg:type="㇑" d="M44.87,13.32c1.09,0.5,1.74,2.25,1.96,3.25c0.22,1-0.08,9-0.08,15.5" transform="matrix(1,0,0,1,996,-4)" class="stroke_order_diagram--existing_path"></path><path id="pathSk940yk7k7gd" kvg:type="㇑" d="M60.12,11.57c1.09,0.5,1.74,2.25,1.96,3.25c0.22,1-0.08,7.75-0.08,15.5" transform="matrix(1,0,0,1,996,-4)" class="stroke_order_diagram--existing_path"></path><path id="pathSk940yk7k7ge" kvg:type="㇔" d="M28.02,20.9c2.57,1.74,6.65,7.17,7.29,9.88" transform="matrix(1,0,0,1,996,-4)" class="stroke_order_diagram--existing_path"></path><path id="pathSk940yk7k7gf" kvg:type="㇒" d="M80.71,16.21c0.02,0.26,0.03,0.67-0.03,1.05c-0.4,2.21-2.68,7.06-5.8,10.03" transform="matrix(1,0,0,1,996,-4)" class="stroke_order_diagram--existing_path"></path><path id="pathSk940yk7k7gg" kvg:type="㇐" d="M13.25,34.71c1.54,0.59,4.36,0.73,5.89,0.59c17.11-1.48,52.86-4.98,70.48-5.21c2.56-0.03,4.1,0.28,5.38,0.58" transform="matrix(1,0,0,1,996,-4)" class="stroke_order_diagram--existing_path"></path><path id="pathSk940yk7k7gh" kvg:type="㇒" d="M38.5,38.96c0.06,0.4,0.12,1.02-0.12,1.59c-1.43,3.36-9.61,10.72-20.82,15.23" transform="matrix(1,0,0,1,996,-4)" class="stroke_order_diagram--existing_path"></path><path id="pathSk940yk7k7gi" kvg:type="㇔" d="M70.02,36.65c6.99,1.88,18.05,7.71,19.79,10.63" transform="matrix(1,0,0,1,996,-4)" class="stroke_order_diagram--existing_path"></path><path id="pathSk940yk7k7gj" kvg:type="㇑" d="M27.75,53.82c0.75,1.25,1,3.24,1,5.5c0,3.75,0.25,35.5,0.25,39.25" transform="matrix(1,0,0,1,996,-4)" class="stroke_order_diagram--existing_path"></path><path id="pathSk940yk7k7gk" kvg:type="㇆a" d="M28.75,55.82c9.5-1,45.6-6.5,47.5-6.5c2.5,0,5,1.25,5,4c0,4-0.25,31.75-0.25,37.5c0,9.25-3.25,5.25-6.25,2" transform="matrix(1,0,0,1,996,-4)" class="stroke_order_diagram--existing_path"></path><path id="pathSk940yk7k7gl" kvg:type="㇑" d="M53.5,35.32c0.75,1.25,1,3.24,1,5.5c0,3.75-0.25,53-0.25,56.75" transform="matrix(1,0,0,1,996,-4)" class="stroke_order_diagram--existing_path"></path><path id="kvg:09ef9-s11" kvg:type="㇒" d="M42.2,63.71c0.02,0.64-0.03,1.64-0.03,2.56c0,6.29-0.91,16.29-6.26,24.51" transform="matrix(1,0,0,1,996,-4)" class="stroke_order_diagram--current_path"></path><path id="pathSk940yk7k7gn" kvg:type="㇒" d="M42.2,63.71c0.02,0.64-0.03,1.64-0.03,2.56c0,6.29-0.91,16.29-6.26,24.51" transform="matrix(1,0,0,1,996,-4)" class="stroke_order_diagram--current_path"></path><circle cx="42.2" cy="63.71" r="8" class="stroke_order_diagram--path_start" transform="matrix(1,0,0,1,996,-4)"></circle><line x1="1150" x2="1150" y1="1" y2="99" class="stroke_order_diagram--guide_line"></line><line x1="1199" x2="1199" y1="1" y2="99" class="stroke_order_diagram--bounding_box"></line><path id="pathSk940yk7k7gq" kvg:type="㇑" d="M44.87,13.32c1.09,0.5,1.74,2.25,1.96,3.25c0.22,1-0.08,9-0.08,15.5" transform="matrix(1,0,0,1,1096,-4)" class="stroke_order_diagram--existing_path"></path><path id="pathSk940yk7k7gr" kvg:type="㇑" d="M60.12,11.57c1.09,0.5,1.74,2.25,1.96,3.25c0.22,1-0.08,7.75-0.08,15.5" transform="matrix(1,0,0,1,1096,-4)" class="stroke_order_diagram--existing_path"></path><path id="pathSk940yk7k7gs" kvg:type="㇔" d="M28.02,20.9c2.57,1.74,6.65,7.17,7.29,9.88" transform="matrix(1,0,0,1,1096,-4)" class="stroke_order_diagram--existing_path"></path><path id="pathSk940yk7k7gt" kvg:type="㇒" d="M80.71,16.21c0.02,0.26,0.03,0.67-0.03,1.05c-0.4,2.21-2.68,7.06-5.8,10.03" transform="matrix(1,0,0,1,1096,-4)" class="stroke_order_diagram--existing_path"></path><path id="pathSk940yk7k7gu" kvg:type="㇐" d="M13.25,34.71c1.54,0.59,4.36,0.73,5.89,0.59c17.11-1.48,52.86-4.98,70.48-5.21c2.56-0.03,4.1,0.28,5.38,0.58" transform="matrix(1,0,0,1,1096,-4)" class="stroke_order_diagram--existing_path"></path><path id="pathSk940yk7k7gv" kvg:type="㇒" d="M38.5,38.96c0.06,0.4,0.12,1.02-0.12,1.59c-1.43,3.36-9.61,10.72-20.82,15.23" transform="matrix(1,0,0,1,1096,-4)" class="stroke_order_diagram--existing_path"></path><path id="pathSk940yk7k7gw" kvg:type="㇔" d="M70.02,36.65c6.99,1.88,18.05,7.71,19.79,10.63" transform="matrix(1,0,0,1,1096,-4)" class="stroke_order_diagram--existing_path"></path><path id="pathSk940yk7k7gx" kvg:type="㇑" d="M27.75,53.82c0.75,1.25,1,3.24,1,5.5c0,3.75,0.25,35.5,0.25,39.25" transform="matrix(1,0,0,1,1096,-4)" class="stroke_order_diagram--existing_path"></path><path id="pathSk940yk7k7gy" kvg:type="㇆a" d="M28.75,55.82c9.5-1,45.6-6.5,47.5-6.5c2.5,0,5,1.25,5,4c0,4-0.25,31.75-0.25,37.5c0,9.25-3.25,5.25-6.25,2" transform="matrix(1,0,0,1,1096,-4)" class="stroke_order_diagram--existing_path"></path><path id="pathSk940yk7k7gz" kvg:type="㇑" d="M53.5,35.32c0.75,1.25,1,3.24,1,5.5c0,3.75-0.25,53-0.25,56.75" transform="matrix(1,0,0,1,1096,-4)" class="stroke_order_diagram--existing_path"></path><path id="pathSk940yk7k7h0" kvg:type="㇒" d="M42.2,63.71c0.02,0.64-0.03,1.64-0.03,2.56c0,6.29-0.91,16.29-6.26,24.51" transform="matrix(1,0,0,1,1096,-4)" class="stroke_order_diagram--existing_path"></path><path id="kvg:09ef9-s12" kvg:type="㇑" d="M67.54,60.82c0.4,0.67,0.54,1.74,0.54,2.95c0,2.01,0.13,19.04,0.13,21.05" transform="matrix(1,0,0,1,1096,-4)" class="stroke_order_diagram--current_path"></path><path id="pathSk940yk7k7h2" kvg:type="㇑" d="M67.54,60.82c0.4,0.67,0.54,1.74,0.54,2.95c0,2.01,0.13,19.04,0.13,21.05" transform="matrix(1,0,0,1,1096,-4)" class="stroke_order_diagram--current_path"></path><circle cx="67.54" cy="60.82" r="8" class="stroke_order_diagram--path_start" transform="matrix(1,0,0,1,1096,-4)"></circle></svg>