<?xml version="1.0" encoding="UTF-8"?>
<!DOCTYPE svg PUBLIC "-//W3C//DTD SVG 1.0//EN" "http://www.w3.org/TR/2001/REC-SVG-20010904/DTD/svg10.dtd" [
<!ATTLIST g
xmlns:kvg CDATA #FIXED "http://kanjivg.tagaini.net"
kvg:element CDATA #IMPLIED
kvg:variant CDATA #IMPLIED
kvg:partial CDATA #IMPLIED
kvg:original CDATA #IMPLIED
kvg:part CDATA #IMPLIED
kvg:number CDATA #IMPLIED
kvg:tradForm CDATA #IMPLIED
kvg:radicalForm CDATA #IMPLIED
kvg:position CDATA #IMPLIED
kvg:radical CDATA #IMPLIED
kvg:phon CDATA #IMPLIED >
<!ATTLIST path
xmlns:kvg CDATA #FIXED "http://kanjivg.tagaini.net"
kvg:type CDATA #IMPLIED >
]><svg style="width: 1300px; height: 100px;" xmlns="http://www.w3.org/2000/svg" xmlns:xlink="http://www.w3.org/1999/xlink"><style>
.stroke_order_diagram--outer_container {
  width: 100%;
  overflow-x: auto;
  overflow-y: hidden;
}

.stroke_order_diagram--guide_line {
  fill: none;
  stroke: #ddd;
  stroke-width: 3;
  stroke-linecap: square;
  stroke-linejoin: square;
  stroke-dasharray:8, 8;
}

.stroke_order_diagram--bounding_box {
  fill: none;
  stroke: #ddd;
  stroke-width: 4;
  stroke-linecap: square;
  stroke-linejoin: square;
}

.stroke_order_diagram--current_path {
  fill: none;
  stroke: #000;
  stroke-width: 6;
  stroke-linecap: round;
  stroke-linejoin: round;
}

.stroke_order_diagram--existing_path {
  fill: none;
  stroke: #aaa;
  stroke-width: 6;
  stroke-linecap: round;
  stroke-linejoin:round;
}

.stroke_order_diagram--path_start {
  fill: rgba(255, 0, 0, 0.7);
  stroke:none
}</style><desc>Created with Snap</desc><defs></defs><line x1="1" x2="1299" y1="1" y2="1" class="stroke_order_diagram--bounding_box"></line><line x1="1" x2="1" y1="1" y2="99" class="stroke_order_diagram--bounding_box"></line><line x1="1" x2="1299" y1="99" y2="99" class="stroke_order_diagram--bounding_box"></line><line x1="0" x2="1300" y1="50" y2="50" class="stroke_order_diagram--guide_line"></line><line x1="50" x2="50" y1="1" y2="99" class="stroke_order_diagram--guide_line"></line><line x1="99" x2="99" y1="1" y2="99" class="stroke_order_diagram--bounding_box"></line><path id="kvg:09f0e-s1" kvg:type="㇑" d="M41.2,13.02c0.38,0.69,0.94,1.2,0.94,2.12s-0.26,27.26-0.26,27.72" transform="matrix(1,0,0,1,-4,-4)" class="stroke_order_diagram--current_path"></path><path id="pathSk93xdzq07lu" kvg:type="㇑" d="M41.2,13.02c0.38,0.69,0.94,1.2,0.94,2.12s-0.26,27.26-0.26,27.72" transform="matrix(1,0,0,1,-4,-4)" class="stroke_order_diagram--current_path"></path><circle cx="41.2" cy="13.02" r="8" class="stroke_order_diagram--path_start" transform="matrix(1,0,0,1,-4,-4)"></circle><line x1="150" x2="150" y1="1" y2="99" class="stroke_order_diagram--guide_line"></line><line x1="199" x2="199" y1="1" y2="99" class="stroke_order_diagram--bounding_box"></line><path id="pathSk93xdzq07lx" kvg:type="㇑" d="M41.2,13.02c0.38,0.69,0.94,1.2,0.94,2.12s-0.26,27.26-0.26,27.72" transform="matrix(1,0,0,1,96,-4)" class="stroke_order_diagram--existing_path"></path><path id="kvg:09f0e-s2" kvg:type="㇕a" d="M42.02,13.91c2.17-0.11,19.5-1.79,21.48-1.92c1.65-0.11,2.95,0.64,2.81,1.49c-0.18,1.08-0.39,16.4-0.39,26.5c0,1.04,0,3.55-1.01,2.44" transform="matrix(1,0,0,1,96,-4)" class="stroke_order_diagram--current_path"></path><path id="pathSk93xdzq07lz" kvg:type="㇕a" d="M42.02,13.91c2.17-0.11,19.5-1.79,21.48-1.92c1.65-0.11,2.95,0.64,2.81,1.49c-0.18,1.08-0.39,16.4-0.39,26.5c0,1.04,0,3.55-1.01,2.44" transform="matrix(1,0,0,1,96,-4)" class="stroke_order_diagram--current_path"></path><circle cx="42.02" cy="13.91" r="8" class="stroke_order_diagram--path_start" transform="matrix(1,0,0,1,96,-4)"></circle><line x1="250" x2="250" y1="1" y2="99" class="stroke_order_diagram--guide_line"></line><line x1="299" x2="299" y1="1" y2="99" class="stroke_order_diagram--bounding_box"></line><path id="pathSk93xdzq07m2" kvg:type="㇑" d="M41.2,13.02c0.38,0.69,0.94,1.2,0.94,2.12s-0.26,27.26-0.26,27.72" transform="matrix(1,0,0,1,196,-4)" class="stroke_order_diagram--existing_path"></path><path id="pathSk93xdzq07m3" kvg:type="㇕a" d="M42.02,13.91c2.17-0.11,19.5-1.79,21.48-1.92c1.65-0.11,2.95,0.64,2.81,1.49c-0.18,1.08-0.39,16.4-0.39,26.5c0,1.04,0,3.55-1.01,2.44" transform="matrix(1,0,0,1,196,-4)" class="stroke_order_diagram--existing_path"></path><path id="kvg:09f0e-s3" kvg:type="㇐a" d="M42.74,22.59c4.29-0.16,19.44-1.46,22.92-1.46" transform="matrix(1,0,0,1,196,-4)" class="stroke_order_diagram--current_path"></path><path id="pathSk93xdzq07m5" kvg:type="㇐a" d="M42.74,22.59c4.29-0.16,19.44-1.46,22.92-1.46" transform="matrix(1,0,0,1,196,-4)" class="stroke_order_diagram--current_path"></path><circle cx="42.74" cy="22.59" r="8" class="stroke_order_diagram--path_start" transform="matrix(1,0,0,1,196,-4)"></circle><line x1="350" x2="350" y1="1" y2="99" class="stroke_order_diagram--guide_line"></line><line x1="399" x2="399" y1="1" y2="99" class="stroke_order_diagram--bounding_box"></line><path id="pathSk93xdzq07m8" kvg:type="㇑" d="M41.2,13.02c0.38,0.69,0.94,1.2,0.94,2.12s-0.26,27.26-0.26,27.72" transform="matrix(1,0,0,1,296,-4)" class="stroke_order_diagram--existing_path"></path><path id="pathSk93xdzq07m9" kvg:type="㇕a" d="M42.02,13.91c2.17-0.11,19.5-1.79,21.48-1.92c1.65-0.11,2.95,0.64,2.81,1.49c-0.18,1.08-0.39,16.4-0.39,26.5c0,1.04,0,3.55-1.01,2.44" transform="matrix(1,0,0,1,296,-4)" class="stroke_order_diagram--existing_path"></path><path id="pathSk93xdzq07ma" kvg:type="㇐a" d="M42.74,22.59c4.29-0.16,19.44-1.46,22.92-1.46" transform="matrix(1,0,0,1,296,-4)" class="stroke_order_diagram--existing_path"></path><path id="kvg:09f0e-s4" kvg:type="㇐a" d="M42.92,31.84c5.76-0.39,16.9-1.38,22.49-1.38" transform="matrix(1,0,0,1,296,-4)" class="stroke_order_diagram--current_path"></path><path id="pathSk93xdzq07mc" kvg:type="㇐a" d="M42.92,31.84c5.76-0.39,16.9-1.38,22.49-1.38" transform="matrix(1,0,0,1,296,-4)" class="stroke_order_diagram--current_path"></path><circle cx="42.92" cy="31.84" r="8" class="stroke_order_diagram--path_start" transform="matrix(1,0,0,1,296,-4)"></circle><line x1="450" x2="450" y1="1" y2="99" class="stroke_order_diagram--guide_line"></line><line x1="499" x2="499" y1="1" y2="99" class="stroke_order_diagram--bounding_box"></line><path id="pathSk93xdzq07mf" kvg:type="㇑" d="M41.2,13.02c0.38,0.69,0.94,1.2,0.94,2.12s-0.26,27.26-0.26,27.72" transform="matrix(1,0,0,1,396,-4)" class="stroke_order_diagram--existing_path"></path><path id="pathSk93xdzq07mg" kvg:type="㇕a" d="M42.02,13.91c2.17-0.11,19.5-1.79,21.48-1.92c1.65-0.11,2.95,0.64,2.81,1.49c-0.18,1.08-0.39,16.4-0.39,26.5c0,1.04,0,3.55-1.01,2.44" transform="matrix(1,0,0,1,396,-4)" class="stroke_order_diagram--existing_path"></path><path id="pathSk93xdzq07mh" kvg:type="㇐a" d="M42.74,22.59c4.29-0.16,19.44-1.46,22.92-1.46" transform="matrix(1,0,0,1,396,-4)" class="stroke_order_diagram--existing_path"></path><path id="pathSk93xdzq07mi" kvg:type="㇐a" d="M42.92,31.84c5.76-0.39,16.9-1.38,22.49-1.38" transform="matrix(1,0,0,1,396,-4)" class="stroke_order_diagram--existing_path"></path><path id="kvg:09f0e-s5" kvg:type="㇐a" d="M42.34,41.8c4.95-0.2,15.99-1.03,21.58-1.03" transform="matrix(1,0,0,1,396,-4)" class="stroke_order_diagram--current_path"></path><path id="pathSk93xdzq07mk" kvg:type="㇐a" d="M42.34,41.8c4.95-0.2,15.99-1.03,21.58-1.03" transform="matrix(1,0,0,1,396,-4)" class="stroke_order_diagram--current_path"></path><circle cx="42.34" cy="41.8" r="8" class="stroke_order_diagram--path_start" transform="matrix(1,0,0,1,396,-4)"></circle><line x1="550" x2="550" y1="1" y2="99" class="stroke_order_diagram--guide_line"></line><line x1="599" x2="599" y1="1" y2="99" class="stroke_order_diagram--bounding_box"></line><path id="pathSk93xdzq07mn" kvg:type="㇑" d="M41.2,13.02c0.38,0.69,0.94,1.2,0.94,2.12s-0.26,27.26-0.26,27.72" transform="matrix(1,0,0,1,496,-4)" class="stroke_order_diagram--existing_path"></path><path id="pathSk93xdzq07mo" kvg:type="㇕a" d="M42.02,13.91c2.17-0.11,19.5-1.79,21.48-1.92c1.65-0.11,2.95,0.64,2.81,1.49c-0.18,1.08-0.39,16.4-0.39,26.5c0,1.04,0,3.55-1.01,2.44" transform="matrix(1,0,0,1,496,-4)" class="stroke_order_diagram--existing_path"></path><path id="pathSk93xdzq07mp" kvg:type="㇐a" d="M42.74,22.59c4.29-0.16,19.44-1.46,22.92-1.46" transform="matrix(1,0,0,1,496,-4)" class="stroke_order_diagram--existing_path"></path><path id="pathSk93xdzq07mq" kvg:type="㇐a" d="M42.92,31.84c5.76-0.39,16.9-1.38,22.49-1.38" transform="matrix(1,0,0,1,496,-4)" class="stroke_order_diagram--existing_path"></path><path id="pathSk93xdzq07mr" kvg:type="㇐a" d="M42.34,41.8c4.95-0.2,15.99-1.03,21.58-1.03" transform="matrix(1,0,0,1,496,-4)" class="stroke_order_diagram--existing_path"></path><path id="kvg:09f0e-s6" kvg:type="㇅" d="M23.37,25.75c1.09,0.5,1.74,2.25,1.96,3.25c0.22,1,0.13,17.26-0.22,23.5C25,54.5,25.5,55,27,54.75s16.25-1.75,17.75-2s3,1,3,2.75s0,41.25,0,43.25" transform="matrix(1,0,0,1,496,-4)" class="stroke_order_diagram--current_path"></path><path id="pathSk93xdzq07mt" kvg:type="㇅" d="M23.37,25.75c1.09,0.5,1.74,2.25,1.96,3.25c0.22,1,0.13,17.26-0.22,23.5C25,54.5,25.5,55,27,54.75s16.25-1.75,17.75-2s3,1,3,2.75s0,41.25,0,43.25" transform="matrix(1,0,0,1,496,-4)" class="stroke_order_diagram--current_path"></path><circle cx="23.37" cy="25.75" r="8" class="stroke_order_diagram--path_start" transform="matrix(1,0,0,1,496,-4)"></circle><line x1="650" x2="650" y1="1" y2="99" class="stroke_order_diagram--guide_line"></line><line x1="699" x2="699" y1="1" y2="99" class="stroke_order_diagram--bounding_box"></line><path id="pathSk93xdzq07mw" kvg:type="㇑" d="M41.2,13.02c0.38,0.69,0.94,1.2,0.94,2.12s-0.26,27.26-0.26,27.72" transform="matrix(1,0,0,1,596,-4)" class="stroke_order_diagram--existing_path"></path><path id="pathSk93xdzq07mx" kvg:type="㇕a" d="M42.02,13.91c2.17-0.11,19.5-1.79,21.48-1.92c1.65-0.11,2.95,0.64,2.81,1.49c-0.18,1.08-0.39,16.4-0.39,26.5c0,1.04,0,3.55-1.01,2.44" transform="matrix(1,0,0,1,596,-4)" class="stroke_order_diagram--existing_path"></path><path id="pathSk93xdzq07my" kvg:type="㇐a" d="M42.74,22.59c4.29-0.16,19.44-1.46,22.92-1.46" transform="matrix(1,0,0,1,596,-4)" class="stroke_order_diagram--existing_path"></path><path id="pathSk93xdzq07mz" kvg:type="㇐a" d="M42.92,31.84c5.76-0.39,16.9-1.38,22.49-1.38" transform="matrix(1,0,0,1,596,-4)" class="stroke_order_diagram--existing_path"></path><path id="pathSk93xdzq07n0" kvg:type="㇐a" d="M42.34,41.8c4.95-0.2,15.99-1.03,21.58-1.03" transform="matrix(1,0,0,1,596,-4)" class="stroke_order_diagram--existing_path"></path><path id="pathSk93xdzq07n1" kvg:type="㇅" d="M23.37,25.75c1.09,0.5,1.74,2.25,1.96,3.25c0.22,1,0.13,17.26-0.22,23.5C25,54.5,25.5,55,27,54.75s16.25-1.75,17.75-2s3,1,3,2.75s0,41.25,0,43.25" transform="matrix(1,0,0,1,596,-4)" class="stroke_order_diagram--existing_path"></path><path id="kvg:09f0e-s7" kvg:type="㇐" d="M15.25,66.89c0.94,0.38,2.66,0.45,3.6,0.38c5.37-0.38,20.9-2.02,28.61-1.88" transform="matrix(1,0,0,1,596,-4)" class="stroke_order_diagram--current_path"></path><path id="pathSk93xdzq07n3" kvg:type="㇐" d="M15.25,66.89c0.94,0.38,2.66,0.45,3.6,0.38c5.37-0.38,20.9-2.02,28.61-1.88" transform="matrix(1,0,0,1,596,-4)" class="stroke_order_diagram--current_path"></path><circle cx="15.25" cy="66.89" r="8" class="stroke_order_diagram--path_start" transform="matrix(1,0,0,1,596,-4)"></circle><line x1="750" x2="750" y1="1" y2="99" class="stroke_order_diagram--guide_line"></line><line x1="799" x2="799" y1="1" y2="99" class="stroke_order_diagram--bounding_box"></line><path id="pathSk93xdzq07n6" kvg:type="㇑" d="M41.2,13.02c0.38,0.69,0.94,1.2,0.94,2.12s-0.26,27.26-0.26,27.72" transform="matrix(1,0,0,1,696,-4)" class="stroke_order_diagram--existing_path"></path><path id="pathSk93xdzq07n7" kvg:type="㇕a" d="M42.02,13.91c2.17-0.11,19.5-1.79,21.48-1.92c1.65-0.11,2.95,0.64,2.81,1.49c-0.18,1.08-0.39,16.4-0.39,26.5c0,1.04,0,3.55-1.01,2.44" transform="matrix(1,0,0,1,696,-4)" class="stroke_order_diagram--existing_path"></path><path id="pathSk93xdzq07n8" kvg:type="㇐a" d="M42.74,22.59c4.29-0.16,19.44-1.46,22.92-1.46" transform="matrix(1,0,0,1,696,-4)" class="stroke_order_diagram--existing_path"></path><path id="pathSk93xdzq07n9" kvg:type="㇐a" d="M42.92,31.84c5.76-0.39,16.9-1.38,22.49-1.38" transform="matrix(1,0,0,1,696,-4)" class="stroke_order_diagram--existing_path"></path><path id="pathSk93xdzq07na" kvg:type="㇐a" d="M42.34,41.8c4.95-0.2,15.99-1.03,21.58-1.03" transform="matrix(1,0,0,1,696,-4)" class="stroke_order_diagram--existing_path"></path><path id="pathSk93xdzq07nb" kvg:type="㇅" d="M23.37,25.75c1.09,0.5,1.74,2.25,1.96,3.25c0.22,1,0.13,17.26-0.22,23.5C25,54.5,25.5,55,27,54.75s16.25-1.75,17.75-2s3,1,3,2.75s0,41.25,0,43.25" transform="matrix(1,0,0,1,696,-4)" class="stroke_order_diagram--existing_path"></path><path id="pathSk93xdzq07nc" kvg:type="㇐" d="M15.25,66.89c0.94,0.38,2.66,0.45,3.6,0.38c5.37-0.38,20.9-2.02,28.61-1.88" transform="matrix(1,0,0,1,696,-4)" class="stroke_order_diagram--existing_path"></path><path id="kvg:09f0e-s8" kvg:type="㇒" d="M29.52,69.14c0.04,0.58,0.02,1.49-0.07,2.33c-0.7,6.28-3.7,15.53-12.64,22.25" transform="matrix(1,0,0,1,696,-4)" class="stroke_order_diagram--current_path"></path><path id="pathSk93xdzq07ne" kvg:type="㇒" d="M29.52,69.14c0.04,0.58,0.02,1.49-0.07,2.33c-0.7,6.28-3.7,15.53-12.64,22.25" transform="matrix(1,0,0,1,696,-4)" class="stroke_order_diagram--current_path"></path><circle cx="29.52" cy="69.14" r="8" class="stroke_order_diagram--path_start" transform="matrix(1,0,0,1,696,-4)"></circle><line x1="850" x2="850" y1="1" y2="99" class="stroke_order_diagram--guide_line"></line><line x1="899" x2="899" y1="1" y2="99" class="stroke_order_diagram--bounding_box"></line><path id="pathSk93xdzq07nh" kvg:type="㇑" d="M41.2,13.02c0.38,0.69,0.94,1.2,0.94,2.12s-0.26,27.26-0.26,27.72" transform="matrix(1,0,0,1,796,-4)" class="stroke_order_diagram--existing_path"></path><path id="pathSk93xdzq07ni" kvg:type="㇕a" d="M42.02,13.91c2.17-0.11,19.5-1.79,21.48-1.92c1.65-0.11,2.95,0.64,2.81,1.49c-0.18,1.08-0.39,16.4-0.39,26.5c0,1.04,0,3.55-1.01,2.44" transform="matrix(1,0,0,1,796,-4)" class="stroke_order_diagram--existing_path"></path><path id="pathSk93xdzq07nj" kvg:type="㇐a" d="M42.74,22.59c4.29-0.16,19.44-1.46,22.92-1.46" transform="matrix(1,0,0,1,796,-4)" class="stroke_order_diagram--existing_path"></path><path id="pathSk93xdzq07nk" kvg:type="㇐a" d="M42.92,31.84c5.76-0.39,16.9-1.38,22.49-1.38" transform="matrix(1,0,0,1,796,-4)" class="stroke_order_diagram--existing_path"></path><path id="pathSk93xdzq07nl" kvg:type="㇐a" d="M42.34,41.8c4.95-0.2,15.99-1.03,21.58-1.03" transform="matrix(1,0,0,1,796,-4)" class="stroke_order_diagram--existing_path"></path><path id="pathSk93xdzq07nm" kvg:type="㇅" d="M23.37,25.75c1.09,0.5,1.74,2.25,1.96,3.25c0.22,1,0.13,17.26-0.22,23.5C25,54.5,25.5,55,27,54.75s16.25-1.75,17.75-2s3,1,3,2.75s0,41.25,0,43.25" transform="matrix(1,0,0,1,796,-4)" class="stroke_order_diagram--existing_path"></path><path id="pathSk93xdzq07nn" kvg:type="㇐" d="M15.25,66.89c0.94,0.38,2.66,0.45,3.6,0.38c5.37-0.38,20.9-2.02,28.61-1.88" transform="matrix(1,0,0,1,796,-4)" class="stroke_order_diagram--existing_path"></path><path id="pathSk93xdzq07no" kvg:type="㇒" d="M29.52,69.14c0.04,0.58,0.02,1.49-0.07,2.33c-0.7,6.28-3.7,15.53-12.64,22.25" transform="matrix(1,0,0,1,796,-4)" class="stroke_order_diagram--existing_path"></path><path id="kvg:09f0e-s9" kvg:type="㇑" d="M83.87,21c1.09,0.5,1.74,2.25,1.96,3.25c0.22,1,0,19.75-0.22,26" transform="matrix(1,0,0,1,796,-4)" class="stroke_order_diagram--current_path"></path><path id="pathSk93xdzq07nq" kvg:type="㇑" d="M83.87,21c1.09,0.5,1.74,2.25,1.96,3.25c0.22,1,0,19.75-0.22,26" transform="matrix(1,0,0,1,796,-4)" class="stroke_order_diagram--current_path"></path><circle cx="83.87" cy="21" r="8" class="stroke_order_diagram--path_start" transform="matrix(1,0,0,1,796,-4)"></circle><line x1="950" x2="950" y1="1" y2="99" class="stroke_order_diagram--guide_line"></line><line x1="999" x2="999" y1="1" y2="99" class="stroke_order_diagram--bounding_box"></line><path id="pathSk93xdzq07nt" kvg:type="㇑" d="M41.2,13.02c0.38,0.69,0.94,1.2,0.94,2.12s-0.26,27.26-0.26,27.72" transform="matrix(1,0,0,1,896,-4)" class="stroke_order_diagram--existing_path"></path><path id="pathSk93xdzq07nu" kvg:type="㇕a" d="M42.02,13.91c2.17-0.11,19.5-1.79,21.48-1.92c1.65-0.11,2.95,0.64,2.81,1.49c-0.18,1.08-0.39,16.4-0.39,26.5c0,1.04,0,3.55-1.01,2.44" transform="matrix(1,0,0,1,896,-4)" class="stroke_order_diagram--existing_path"></path><path id="pathSk93xdzq07nv" kvg:type="㇐a" d="M42.74,22.59c4.29-0.16,19.44-1.46,22.92-1.46" transform="matrix(1,0,0,1,896,-4)" class="stroke_order_diagram--existing_path"></path><path id="pathSk93xdzq07nw" kvg:type="㇐a" d="M42.92,31.84c5.76-0.39,16.9-1.38,22.49-1.38" transform="matrix(1,0,0,1,896,-4)" class="stroke_order_diagram--existing_path"></path><path id="pathSk93xdzq07nx" kvg:type="㇐a" d="M42.34,41.8c4.95-0.2,15.99-1.03,21.58-1.03" transform="matrix(1,0,0,1,896,-4)" class="stroke_order_diagram--existing_path"></path><path id="pathSk93xdzq07ny" kvg:type="㇅" d="M23.37,25.75c1.09,0.5,1.74,2.25,1.96,3.25c0.22,1,0.13,17.26-0.22,23.5C25,54.5,25.5,55,27,54.75s16.25-1.75,17.75-2s3,1,3,2.75s0,41.25,0,43.25" transform="matrix(1,0,0,1,896,-4)" class="stroke_order_diagram--existing_path"></path><path id="pathSk93xdzq07nz" kvg:type="㇐" d="M15.25,66.89c0.94,0.38,2.66,0.45,3.6,0.38c5.37-0.38,20.9-2.02,28.61-1.88" transform="matrix(1,0,0,1,896,-4)" class="stroke_order_diagram--existing_path"></path><path id="pathSk93xdzq07o0" kvg:type="㇒" d="M29.52,69.14c0.04,0.58,0.02,1.49-0.07,2.33c-0.7,6.28-3.7,15.53-12.64,22.25" transform="matrix(1,0,0,1,896,-4)" class="stroke_order_diagram--existing_path"></path><path id="pathSk93xdzq07o1" kvg:type="㇑" d="M83.87,21c1.09,0.5,1.74,2.25,1.96,3.25c0.22,1,0,19.75-0.22,26" transform="matrix(1,0,0,1,896,-4)" class="stroke_order_diagram--existing_path"></path><path id="kvg:09f0e-s10" kvg:type="㇐" d="M61.85,52.77c5.98-0.66,16.9-1.88,22.11-1.88c1.57,0,2.54,0.11,4.29,0.37" transform="matrix(1,0,0,1,896,-4)" class="stroke_order_diagram--current_path"></path><path id="pathSk93xdzq07o3" kvg:type="㇐" d="M61.85,52.77c5.98-0.66,16.9-1.88,22.11-1.88c1.57,0,2.54,0.11,4.29,0.37" transform="matrix(1,0,0,1,896,-4)" class="stroke_order_diagram--current_path"></path><circle cx="61.85" cy="52.77" r="8" class="stroke_order_diagram--path_start" transform="matrix(1,0,0,1,896,-4)"></circle><line x1="1050" x2="1050" y1="1" y2="99" class="stroke_order_diagram--guide_line"></line><line x1="1099" x2="1099" y1="1" y2="99" class="stroke_order_diagram--bounding_box"></line><path id="pathSk93xdzq07o6" kvg:type="㇑" d="M41.2,13.02c0.38,0.69,0.94,1.2,0.94,2.12s-0.26,27.26-0.26,27.72" transform="matrix(1,0,0,1,996,-4)" class="stroke_order_diagram--existing_path"></path><path id="pathSk93xdzq07o7" kvg:type="㇕a" d="M42.02,13.91c2.17-0.11,19.5-1.79,21.48-1.92c1.65-0.11,2.95,0.64,2.81,1.49c-0.18,1.08-0.39,16.4-0.39,26.5c0,1.04,0,3.55-1.01,2.44" transform="matrix(1,0,0,1,996,-4)" class="stroke_order_diagram--existing_path"></path><path id="pathSk93xdzq07o8" kvg:type="㇐a" d="M42.74,22.59c4.29-0.16,19.44-1.46,22.92-1.46" transform="matrix(1,0,0,1,996,-4)" class="stroke_order_diagram--existing_path"></path><path id="pathSk93xdzq07o9" kvg:type="㇐a" d="M42.92,31.84c5.76-0.39,16.9-1.38,22.49-1.38" transform="matrix(1,0,0,1,996,-4)" class="stroke_order_diagram--existing_path"></path><path id="pathSk93xdzq07oa" kvg:type="㇐a" d="M42.34,41.8c4.95-0.2,15.99-1.03,21.58-1.03" transform="matrix(1,0,0,1,996,-4)" class="stroke_order_diagram--existing_path"></path><path id="pathSk93xdzq07ob" kvg:type="㇅" d="M23.37,25.75c1.09,0.5,1.74,2.25,1.96,3.25c0.22,1,0.13,17.26-0.22,23.5C25,54.5,25.5,55,27,54.75s16.25-1.75,17.75-2s3,1,3,2.75s0,41.25,0,43.25" transform="matrix(1,0,0,1,996,-4)" class="stroke_order_diagram--existing_path"></path><path id="pathSk93xdzq07oc" kvg:type="㇐" d="M15.25,66.89c0.94,0.38,2.66,0.45,3.6,0.38c5.37-0.38,20.9-2.02,28.61-1.88" transform="matrix(1,0,0,1,996,-4)" class="stroke_order_diagram--existing_path"></path><path id="pathSk93xdzq07od" kvg:type="㇒" d="M29.52,69.14c0.04,0.58,0.02,1.49-0.07,2.33c-0.7,6.28-3.7,15.53-12.64,22.25" transform="matrix(1,0,0,1,996,-4)" class="stroke_order_diagram--existing_path"></path><path id="pathSk93xdzq07oe" kvg:type="㇑" d="M83.87,21c1.09,0.5,1.74,2.25,1.96,3.25c0.22,1,0,19.75-0.22,26" transform="matrix(1,0,0,1,996,-4)" class="stroke_order_diagram--existing_path"></path><path id="pathSk93xdzq07of" kvg:type="㇐" d="M61.85,52.77c5.98-0.66,16.9-1.88,22.11-1.88c1.57,0,2.54,0.11,4.29,0.37" transform="matrix(1,0,0,1,996,-4)" class="stroke_order_diagram--existing_path"></path><path id="kvg:09f0e-s11" kvg:type="㇑" d="M59.87,51.5c1.09,0.5,1.74,2.25,1.96,3.25c0.22,1,0,36.75-0.22,43" transform="matrix(1,0,0,1,996,-4)" class="stroke_order_diagram--current_path"></path><path id="pathSk93xdzq07oh" kvg:type="㇑" d="M59.87,51.5c1.09,0.5,1.74,2.25,1.96,3.25c0.22,1,0,36.75-0.22,43" transform="matrix(1,0,0,1,996,-4)" class="stroke_order_diagram--current_path"></path><circle cx="59.87" cy="51.5" r="8" class="stroke_order_diagram--path_start" transform="matrix(1,0,0,1,996,-4)"></circle><line x1="1150" x2="1150" y1="1" y2="99" class="stroke_order_diagram--guide_line"></line><line x1="1199" x2="1199" y1="1" y2="99" class="stroke_order_diagram--bounding_box"></line><path id="pathSk93xdzq07ok" kvg:type="㇑" d="M41.2,13.02c0.38,0.69,0.94,1.2,0.94,2.12s-0.26,27.26-0.26,27.72" transform="matrix(1,0,0,1,1096,-4)" class="stroke_order_diagram--existing_path"></path><path id="pathSk93xdzq07ol" kvg:type="㇕a" d="M42.02,13.91c2.17-0.11,19.5-1.79,21.48-1.92c1.65-0.11,2.95,0.64,2.81,1.49c-0.18,1.08-0.39,16.4-0.39,26.5c0,1.04,0,3.55-1.01,2.44" transform="matrix(1,0,0,1,1096,-4)" class="stroke_order_diagram--existing_path"></path><path id="pathSk93xdzq07om" kvg:type="㇐a" d="M42.74,22.59c4.29-0.16,19.44-1.46,22.92-1.46" transform="matrix(1,0,0,1,1096,-4)" class="stroke_order_diagram--existing_path"></path><path id="pathSk93xdzq07on" kvg:type="㇐a" d="M42.92,31.84c5.76-0.39,16.9-1.38,22.49-1.38" transform="matrix(1,0,0,1,1096,-4)" class="stroke_order_diagram--existing_path"></path><path id="pathSk93xdzq07oo" kvg:type="㇐a" d="M42.34,41.8c4.95-0.2,15.99-1.03,21.58-1.03" transform="matrix(1,0,0,1,1096,-4)" class="stroke_order_diagram--existing_path"></path><path id="pathSk93xdzq07op" kvg:type="㇅" d="M23.37,25.75c1.09,0.5,1.74,2.25,1.96,3.25c0.22,1,0.13,17.26-0.22,23.5C25,54.5,25.5,55,27,54.75s16.25-1.75,17.75-2s3,1,3,2.75s0,41.25,0,43.25" transform="matrix(1,0,0,1,1096,-4)" class="stroke_order_diagram--existing_path"></path><path id="pathSk93xdzq07oq" kvg:type="㇐" d="M15.25,66.89c0.94,0.38,2.66,0.45,3.6,0.38c5.37-0.38,20.9-2.02,28.61-1.88" transform="matrix(1,0,0,1,1096,-4)" class="stroke_order_diagram--existing_path"></path><path id="pathSk93xdzq07or" kvg:type="㇒" d="M29.52,69.14c0.04,0.58,0.02,1.49-0.07,2.33c-0.7,6.28-3.7,15.53-12.64,22.25" transform="matrix(1,0,0,1,1096,-4)" class="stroke_order_diagram--existing_path"></path><path id="pathSk93xdzq07os" kvg:type="㇑" d="M83.87,21c1.09,0.5,1.74,2.25,1.96,3.25c0.22,1,0,19.75-0.22,26" transform="matrix(1,0,0,1,1096,-4)" class="stroke_order_diagram--existing_path"></path><path id="pathSk93xdzq07ot" kvg:type="㇐" d="M61.85,52.77c5.98-0.66,16.9-1.88,22.11-1.88c1.57,0,2.54,0.11,4.29,0.37" transform="matrix(1,0,0,1,1096,-4)" class="stroke_order_diagram--existing_path"></path><path id="pathSk93xdzq07ou" kvg:type="㇑" d="M59.87,51.5c1.09,0.5,1.74,2.25,1.96,3.25c0.22,1,0,36.75-0.22,43" transform="matrix(1,0,0,1,1096,-4)" class="stroke_order_diagram--existing_path"></path><path id="kvg:09f0e-s12" kvg:type="㇐" d="M62.35,64.77c6.9-0.27,24.4-2.02,31.11-2.38c1.56-0.08,2.5,0.18,3.29,0.37" transform="matrix(1,0,0,1,1096,-4)" class="stroke_order_diagram--current_path"></path><path id="pathSk93xdzq07ow" kvg:type="㇐" d="M62.35,64.77c6.9-0.27,24.4-2.02,31.11-2.38c1.56-0.08,2.5,0.18,3.29,0.37" transform="matrix(1,0,0,1,1096,-4)" class="stroke_order_diagram--current_path"></path><circle cx="62.35" cy="64.77" r="8" class="stroke_order_diagram--path_start" transform="matrix(1,0,0,1,1096,-4)"></circle><line x1="1250" x2="1250" y1="1" y2="99" class="stroke_order_diagram--guide_line"></line><line x1="1299" x2="1299" y1="1" y2="99" class="stroke_order_diagram--bounding_box"></line><path id="pathSk93xdzq07oz" kvg:type="㇑" d="M41.2,13.02c0.38,0.69,0.94,1.2,0.94,2.12s-0.26,27.26-0.26,27.72" transform="matrix(1,0,0,1,1196,-4)" class="stroke_order_diagram--existing_path"></path><path id="pathSk93xdzq07p0" kvg:type="㇕a" d="M42.02,13.91c2.17-0.11,19.5-1.79,21.48-1.92c1.65-0.11,2.95,0.64,2.81,1.49c-0.18,1.08-0.39,16.4-0.39,26.5c0,1.04,0,3.55-1.01,2.44" transform="matrix(1,0,0,1,1196,-4)" class="stroke_order_diagram--existing_path"></path><path id="pathSk93xdzq07p1" kvg:type="㇐a" d="M42.74,22.59c4.29-0.16,19.44-1.46,22.92-1.46" transform="matrix(1,0,0,1,1196,-4)" class="stroke_order_diagram--existing_path"></path><path id="pathSk93xdzq07p2" kvg:type="㇐a" d="M42.92,31.84c5.76-0.39,16.9-1.38,22.49-1.38" transform="matrix(1,0,0,1,1196,-4)" class="stroke_order_diagram--existing_path"></path><path id="pathSk93xdzq07p3" kvg:type="㇐a" d="M42.34,41.8c4.95-0.2,15.99-1.03,21.58-1.03" transform="matrix(1,0,0,1,1196,-4)" class="stroke_order_diagram--existing_path"></path><path id="pathSk93xdzq07p4" kvg:type="㇅" d="M23.37,25.75c1.09,0.5,1.74,2.25,1.96,3.25c0.22,1,0.13,17.26-0.22,23.5C25,54.5,25.5,55,27,54.75s16.25-1.75,17.75-2s3,1,3,2.75s0,41.25,0,43.25" transform="matrix(1,0,0,1,1196,-4)" class="stroke_order_diagram--existing_path"></path><path id="pathSk93xdzq07p5" kvg:type="㇐" d="M15.25,66.89c0.94,0.38,2.66,0.45,3.6,0.38c5.37-0.38,20.9-2.02,28.61-1.88" transform="matrix(1,0,0,1,1196,-4)" class="stroke_order_diagram--existing_path"></path><path id="pathSk93xdzq07p6" kvg:type="㇒" d="M29.52,69.14c0.04,0.58,0.02,1.49-0.07,2.33c-0.7,6.28-3.7,15.53-12.64,22.25" transform="matrix(1,0,0,1,1196,-4)" class="stroke_order_diagram--existing_path"></path><path id="pathSk93xdzq07p7" kvg:type="㇑" d="M83.87,21c1.09,0.5,1.74,2.25,1.96,3.25c0.22,1,0,19.75-0.22,26" transform="matrix(1,0,0,1,1196,-4)" class="stroke_order_diagram--existing_path"></path><path id="pathSk93xdzq07p8" kvg:type="㇐" d="M61.85,52.77c5.98-0.66,16.9-1.88,22.11-1.88c1.57,0,2.54,0.11,4.29,0.37" transform="matrix(1,0,0,1,1196,-4)" class="stroke_order_diagram--existing_path"></path><path id="pathSk93xdzq07p9" kvg:type="㇑" d="M59.87,51.5c1.09,0.5,1.74,2.25,1.96,3.25c0.22,1,0,36.75-0.22,43" transform="matrix(1,0,0,1,1196,-4)" class="stroke_order_diagram--existing_path"></path><path id="pathSk93xdzq07pa" kvg:type="㇐" d="M62.35,64.77c6.9-0.27,24.4-2.02,31.11-2.38c1.56-0.08,2.5,0.18,3.29,0.37" transform="matrix(1,0,0,1,1196,-4)" class="stroke_order_diagram--existing_path"></path><path id="kvg:09f0e-s13" kvg:type="㇑" d="M81.12,65.5c1.09,0.5,1.74,2.25,1.96,3.25c0.22,1,0,23.25-0.22,29.5" transform="matrix(1,0,0,1,1196,-4)" class="stroke_order_diagram--current_path"></path><path id="pathSk93xdzq07pc" kvg:type="㇑" d="M81.12,65.5c1.09,0.5,1.74,2.25,1.96,3.25c0.22,1,0,23.25-0.22,29.5" transform="matrix(1,0,0,1,1196,-4)" class="stroke_order_diagram--current_path"></path><circle cx="81.12" cy="65.5" r="8" class="stroke_order_diagram--path_start" transform="matrix(1,0,0,1,1196,-4)"></circle></svg>