<?xml version="1.0" encoding="UTF-8"?>
<!DOCTYPE svg PUBLIC "-//W3C//DTD SVG 1.0//EN" "http://www.w3.org/TR/2001/REC-SVG-20010904/DTD/svg10.dtd" [
<!ATTLIST g
xmlns:kvg CDATA #FIXED "http://kanjivg.tagaini.net"
kvg:element CDATA #IMPLIED
kvg:variant CDATA #IMPLIED
kvg:partial CDATA #IMPLIED
kvg:original CDATA #IMPLIED
kvg:part CDATA #IMPLIED
kvg:number CDATA #IMPLIED
kvg:tradForm CDATA #IMPLIED
kvg:radicalForm CDATA #IMPLIED
kvg:position CDATA #IMPLIED
kvg:radical CDATA #IMPLIED
kvg:phon CDATA #IMPLIED >
<!ATTLIST path
xmlns:kvg CDATA #FIXED "http://kanjivg.tagaini.net"
kvg:type CDATA #IMPLIED >
]><svg style="width: 1300px; height: 100px;" xmlns="http://www.w3.org/2000/svg" xmlns:xlink="http://www.w3.org/1999/xlink" width="1300px" height="100px"><style>
.stroke_order_diagram--outer_container {
  width: 100%;
  overflow-x: auto;
  overflow-y: hidden;
}

.stroke_order_diagram--guide_line {
  fill: none;
  stroke: #ddd;
  stroke-width: 3;
  stroke-linecap: square;
  stroke-linejoin: square;
  stroke-dasharray:8, 8;
}

.stroke_order_diagram--bounding_box {
  fill: none;
  stroke: #ddd;
  stroke-width: 4;
  stroke-linecap: square;
  stroke-linejoin: square;
}

.stroke_order_diagram--current_path {
  fill: none;
  stroke: #000;
  stroke-width: 6;
  stroke-linecap: round;
  stroke-linejoin: round;
}

.stroke_order_diagram--existing_path {
  fill: none;
  stroke: #aaa;
  stroke-width: 6;
  stroke-linecap: round;
  stroke-linejoin:round;
}

.stroke_order_diagram--path_start {
  fill: rgba(255, 0, 0, 0.7);
  stroke:none
}</style><desc>Created with Snap</desc><defs></defs><line x1="1" x2="1299" y1="1" y2="1" class="stroke_order_diagram--bounding_box"></line><line x1="1" x2="1" y1="1" y2="99" class="stroke_order_diagram--bounding_box"></line><line x1="1" x2="1299" y1="99" y2="99" class="stroke_order_diagram--bounding_box"></line><line x1="0" x2="1300" y1="50" y2="50" class="stroke_order_diagram--guide_line"></line><line x1="50" x2="50" y1="1" y2="99" class="stroke_order_diagram--guide_line"></line><line x1="99" x2="99" y1="1" y2="99" class="stroke_order_diagram--bounding_box"></line><path id="kvg:09f13-s1" kvg:type="㇐" d="M11.62,28.41c2.23,0.69,4.89,0.11,7.14-0.17c8.72-1.07,19.42-2.82,27.12-3.49c2.17-0.19,4.35-0.36,6.51,0" transform="matrix(1,0,0,1,-4,-4)" class="stroke_order_diagram--current_path"></path><path id="pathSk940yk7k7pz" kvg:type="㇐" d="M11.62,28.41c2.23,0.69,4.89,0.11,7.14-0.17c8.72-1.07,19.42-2.82,27.12-3.49c2.17-0.19,4.35-0.36,6.51,0" transform="matrix(1,0,0,1,-4,-4)" class="stroke_order_diagram--current_path"></path><circle cx="11.62" cy="28.41" r="8" class="stroke_order_diagram--path_start" transform="matrix(1,0,0,1,-4,-4)"></circle><line x1="150" x2="150" y1="1" y2="99" class="stroke_order_diagram--guide_line"></line><line x1="199" x2="199" y1="1" y2="99" class="stroke_order_diagram--bounding_box"></line><path id="pathSk940yk7k7q2" kvg:type="㇐" d="M11.62,28.41c2.23,0.69,4.89,0.11,7.14-0.17c8.72-1.07,19.42-2.82,27.12-3.49c2.17-0.19,4.35-0.36,6.51,0" transform="matrix(1,0,0,1,96,-4)" class="stroke_order_diagram--existing_path"></path><path id="kvg:09f13-s2" kvg:type="㇑a" d="M31.68,12.01c1.03,1.03,1.15,2.37,1.15,3.94c0,4.05-0.02,17.05-0.02,22.64" transform="matrix(1,0,0,1,96,-4)" class="stroke_order_diagram--current_path"></path><path id="pathSk940yk7k7q4" kvg:type="㇑a" d="M31.68,12.01c1.03,1.03,1.15,2.37,1.15,3.94c0,4.05-0.02,17.05-0.02,22.64" transform="matrix(1,0,0,1,96,-4)" class="stroke_order_diagram--current_path"></path><circle cx="31.68" cy="12.01" r="8" class="stroke_order_diagram--path_start" transform="matrix(1,0,0,1,96,-4)"></circle><line x1="250" x2="250" y1="1" y2="99" class="stroke_order_diagram--guide_line"></line><line x1="299" x2="299" y1="1" y2="99" class="stroke_order_diagram--bounding_box"></line><path id="pathSk940yk7k7q7" kvg:type="㇐" d="M11.62,28.41c2.23,0.69,4.89,0.11,7.14-0.17c8.72-1.07,19.42-2.82,27.12-3.49c2.17-0.19,4.35-0.36,6.51,0" transform="matrix(1,0,0,1,196,-4)" class="stroke_order_diagram--existing_path"></path><path id="pathSk940yk7k7q8" kvg:type="㇑a" d="M31.68,12.01c1.03,1.03,1.15,2.37,1.15,3.94c0,4.05-0.02,17.05-0.02,22.64" transform="matrix(1,0,0,1,196,-4)" class="stroke_order_diagram--existing_path"></path><path id="kvg:09f13-s3" kvg:type="㇐" d="M15.43,41.18c1.83,0.51,4.12,0.25,5.96,0.05c6.5-0.72,14.49-2.1,20.37-2.79c1.86-0.22,3.79-0.37,5.66-0.09" transform="matrix(1,0,0,1,196,-4)" class="stroke_order_diagram--current_path"></path><path id="pathSk940yk7k7qa" kvg:type="㇐" d="M15.43,41.18c1.83,0.51,4.12,0.25,5.96,0.05c6.5-0.72,14.49-2.1,20.37-2.79c1.86-0.22,3.79-0.37,5.66-0.09" transform="matrix(1,0,0,1,196,-4)" class="stroke_order_diagram--current_path"></path><circle cx="15.43" cy="41.18" r="8" class="stroke_order_diagram--path_start" transform="matrix(1,0,0,1,196,-4)"></circle><line x1="350" x2="350" y1="1" y2="99" class="stroke_order_diagram--guide_line"></line><line x1="399" x2="399" y1="1" y2="99" class="stroke_order_diagram--bounding_box"></line><path id="pathSk940yk7k7qd" kvg:type="㇐" d="M11.62,28.41c2.23,0.69,4.89,0.11,7.14-0.17c8.72-1.07,19.42-2.82,27.12-3.49c2.17-0.19,4.35-0.36,6.51,0" transform="matrix(1,0,0,1,296,-4)" class="stroke_order_diagram--existing_path"></path><path id="pathSk940yk7k7qe" kvg:type="㇑a" d="M31.68,12.01c1.03,1.03,1.15,2.37,1.15,3.94c0,4.05-0.02,17.05-0.02,22.64" transform="matrix(1,0,0,1,296,-4)" class="stroke_order_diagram--existing_path"></path><path id="pathSk940yk7k7qf" kvg:type="㇐" d="M15.43,41.18c1.83,0.51,4.12,0.25,5.96,0.05c6.5-0.72,14.49-2.1,20.37-2.79c1.86-0.22,3.79-0.37,5.66-0.09" transform="matrix(1,0,0,1,296,-4)" class="stroke_order_diagram--existing_path"></path><path id="kvg:09f13-s4" kvg:type="㇑" d="M18.49,51.42c0.67,0.67,0.95,1.22,1.06,2.02c0.76,2.5,1.46,6.06,2.38,10.28c0.29,1.31,0.37,2.6,0.52,3.74" transform="matrix(1,0,0,1,296,-4)" class="stroke_order_diagram--current_path"></path><path id="pathSk940yk7k7qh" kvg:type="㇑" d="M18.49,51.42c0.67,0.67,0.95,1.22,1.06,2.02c0.76,2.5,1.46,6.06,2.38,10.28c0.29,1.31,0.37,2.6,0.52,3.74" transform="matrix(1,0,0,1,296,-4)" class="stroke_order_diagram--current_path"></path><circle cx="18.49" cy="51.42" r="8" class="stroke_order_diagram--path_start" transform="matrix(1,0,0,1,296,-4)"></circle><line x1="450" x2="450" y1="1" y2="99" class="stroke_order_diagram--guide_line"></line><line x1="499" x2="499" y1="1" y2="99" class="stroke_order_diagram--bounding_box"></line><path id="pathSk940yk7k7qk" kvg:type="㇐" d="M11.62,28.41c2.23,0.69,4.89,0.11,7.14-0.17c8.72-1.07,19.42-2.82,27.12-3.49c2.17-0.19,4.35-0.36,6.51,0" transform="matrix(1,0,0,1,396,-4)" class="stroke_order_diagram--existing_path"></path><path id="pathSk940yk7k7ql" kvg:type="㇑a" d="M31.68,12.01c1.03,1.03,1.15,2.37,1.15,3.94c0,4.05-0.02,17.05-0.02,22.64" transform="matrix(1,0,0,1,396,-4)" class="stroke_order_diagram--existing_path"></path><path id="pathSk940yk7k7qm" kvg:type="㇐" d="M15.43,41.18c1.83,0.51,4.12,0.25,5.96,0.05c6.5-0.72,14.49-2.1,20.37-2.79c1.86-0.22,3.79-0.37,5.66-0.09" transform="matrix(1,0,0,1,396,-4)" class="stroke_order_diagram--existing_path"></path><path id="pathSk940yk7k7qn" kvg:type="㇑" d="M18.49,51.42c0.67,0.67,0.95,1.22,1.06,2.02c0.76,2.5,1.46,6.06,2.38,10.28c0.29,1.31,0.37,2.6,0.52,3.74" transform="matrix(1,0,0,1,396,-4)" class="stroke_order_diagram--existing_path"></path><path id="kvg:09f13-s5" kvg:type="㇕b" d="M20.47,52.65c5.91-1.01,16.55-2.5,21.55-3.14c2.62-0.33,4.13,0.31,3.46,3.26c-0.63,2.77-1.2,4.65-2.64,9.09" transform="matrix(1,0,0,1,396,-4)" class="stroke_order_diagram--current_path"></path><path id="pathSk940yk7k7qp" kvg:type="㇕b" d="M20.47,52.65c5.91-1.01,16.55-2.5,21.55-3.14c2.62-0.33,4.13,0.31,3.46,3.26c-0.63,2.77-1.2,4.65-2.64,9.09" transform="matrix(1,0,0,1,396,-4)" class="stroke_order_diagram--current_path"></path><circle cx="20.47" cy="52.65" r="8" class="stroke_order_diagram--path_start" transform="matrix(1,0,0,1,396,-4)"></circle><line x1="550" x2="550" y1="1" y2="99" class="stroke_order_diagram--guide_line"></line><line x1="599" x2="599" y1="1" y2="99" class="stroke_order_diagram--bounding_box"></line><path id="pathSk940yk7k7qs" kvg:type="㇐" d="M11.62,28.41c2.23,0.69,4.89,0.11,7.14-0.17c8.72-1.07,19.42-2.82,27.12-3.49c2.17-0.19,4.35-0.36,6.51,0" transform="matrix(1,0,0,1,496,-4)" class="stroke_order_diagram--existing_path"></path><path id="pathSk940yk7k7qt" kvg:type="㇑a" d="M31.68,12.01c1.03,1.03,1.15,2.37,1.15,3.94c0,4.05-0.02,17.05-0.02,22.64" transform="matrix(1,0,0,1,496,-4)" class="stroke_order_diagram--existing_path"></path><path id="pathSk940yk7k7qu" kvg:type="㇐" d="M15.43,41.18c1.83,0.51,4.12,0.25,5.96,0.05c6.5-0.72,14.49-2.1,20.37-2.79c1.86-0.22,3.79-0.37,5.66-0.09" transform="matrix(1,0,0,1,496,-4)" class="stroke_order_diagram--existing_path"></path><path id="pathSk940yk7k7qv" kvg:type="㇑" d="M18.49,51.42c0.67,0.67,0.95,1.22,1.06,2.02c0.76,2.5,1.46,6.06,2.38,10.28c0.29,1.31,0.37,2.6,0.52,3.74" transform="matrix(1,0,0,1,496,-4)" class="stroke_order_diagram--existing_path"></path><path id="pathSk940yk7k7qw" kvg:type="㇕b" d="M20.47,52.65c5.91-1.01,16.55-2.5,21.55-3.14c2.62-0.33,4.13,0.31,3.46,3.26c-0.63,2.77-1.2,4.65-2.64,9.09" transform="matrix(1,0,0,1,496,-4)" class="stroke_order_diagram--existing_path"></path><path id="kvg:09f13-s6" kvg:type="㇐b" d="M22.72,65.88c3.26-0.35,12.32-1.89,18.56-2.63c1.65-0.2,3.1-0.35,4.19-0.45" transform="matrix(1,0,0,1,496,-4)" class="stroke_order_diagram--current_path"></path><path id="pathSk940yk7k7qy" kvg:type="㇐b" d="M22.72,65.88c3.26-0.35,12.32-1.89,18.56-2.63c1.65-0.2,3.1-0.35,4.19-0.45" transform="matrix(1,0,0,1,496,-4)" class="stroke_order_diagram--current_path"></path><circle cx="22.72" cy="65.88" r="8" class="stroke_order_diagram--path_start" transform="matrix(1,0,0,1,496,-4)"></circle><line x1="650" x2="650" y1="1" y2="99" class="stroke_order_diagram--guide_line"></line><line x1="699" x2="699" y1="1" y2="99" class="stroke_order_diagram--bounding_box"></line><path id="pathSk940yk7k7r1" kvg:type="㇐" d="M11.62,28.41c2.23,0.69,4.89,0.11,7.14-0.17c8.72-1.07,19.42-2.82,27.12-3.49c2.17-0.19,4.35-0.36,6.51,0" transform="matrix(1,0,0,1,596,-4)" class="stroke_order_diagram--existing_path"></path><path id="pathSk940yk7k7r2" kvg:type="㇑a" d="M31.68,12.01c1.03,1.03,1.15,2.37,1.15,3.94c0,4.05-0.02,17.05-0.02,22.64" transform="matrix(1,0,0,1,596,-4)" class="stroke_order_diagram--existing_path"></path><path id="pathSk940yk7k7r3" kvg:type="㇐" d="M15.43,41.18c1.83,0.51,4.12,0.25,5.96,0.05c6.5-0.72,14.49-2.1,20.37-2.79c1.86-0.22,3.79-0.37,5.66-0.09" transform="matrix(1,0,0,1,596,-4)" class="stroke_order_diagram--existing_path"></path><path id="pathSk940yk7k7r4" kvg:type="㇑" d="M18.49,51.42c0.67,0.67,0.95,1.22,1.06,2.02c0.76,2.5,1.46,6.06,2.38,10.28c0.29,1.31,0.37,2.6,0.52,3.74" transform="matrix(1,0,0,1,596,-4)" class="stroke_order_diagram--existing_path"></path><path id="pathSk940yk7k7r5" kvg:type="㇕b" d="M20.47,52.65c5.91-1.01,16.55-2.5,21.55-3.14c2.62-0.33,4.13,0.31,3.46,3.26c-0.63,2.77-1.2,4.65-2.64,9.09" transform="matrix(1,0,0,1,596,-4)" class="stroke_order_diagram--existing_path"></path><path id="pathSk940yk7k7r6" kvg:type="㇐b" d="M22.72,65.88c3.26-0.35,12.32-1.89,18.56-2.63c1.65-0.2,3.1-0.35,4.19-0.45" transform="matrix(1,0,0,1,596,-4)" class="stroke_order_diagram--existing_path"></path><path id="kvg:09f13-s7" kvg:type="㇔" d="M17.62,72.88c2.36,1.79,6.09,7.36,6.68,10.14" transform="matrix(1,0,0,1,596,-4)" class="stroke_order_diagram--current_path"></path><path id="pathSk940yk7k7r8" kvg:type="㇔" d="M17.62,72.88c2.36,1.79,6.09,7.36,6.68,10.14" transform="matrix(1,0,0,1,596,-4)" class="stroke_order_diagram--current_path"></path><circle cx="17.62" cy="72.88" r="8" class="stroke_order_diagram--path_start" transform="matrix(1,0,0,1,596,-4)"></circle><line x1="750" x2="750" y1="1" y2="99" class="stroke_order_diagram--guide_line"></line><line x1="799" x2="799" y1="1" y2="99" class="stroke_order_diagram--bounding_box"></line><path id="pathSk940yk7k7rb" kvg:type="㇐" d="M11.62,28.41c2.23,0.69,4.89,0.11,7.14-0.17c8.72-1.07,19.42-2.82,27.12-3.49c2.17-0.19,4.35-0.36,6.51,0" transform="matrix(1,0,0,1,696,-4)" class="stroke_order_diagram--existing_path"></path><path id="pathSk940yk7k7rc" kvg:type="㇑a" d="M31.68,12.01c1.03,1.03,1.15,2.37,1.15,3.94c0,4.05-0.02,17.05-0.02,22.64" transform="matrix(1,0,0,1,696,-4)" class="stroke_order_diagram--existing_path"></path><path id="pathSk940yk7k7rd" kvg:type="㇐" d="M15.43,41.18c1.83,0.51,4.12,0.25,5.96,0.05c6.5-0.72,14.49-2.1,20.37-2.79c1.86-0.22,3.79-0.37,5.66-0.09" transform="matrix(1,0,0,1,696,-4)" class="stroke_order_diagram--existing_path"></path><path id="pathSk940yk7k7re" kvg:type="㇑" d="M18.49,51.42c0.67,0.67,0.95,1.22,1.06,2.02c0.76,2.5,1.46,6.06,2.38,10.28c0.29,1.31,0.37,2.6,0.52,3.74" transform="matrix(1,0,0,1,696,-4)" class="stroke_order_diagram--existing_path"></path><path id="pathSk940yk7k7rf" kvg:type="㇕b" d="M20.47,52.65c5.91-1.01,16.55-2.5,21.55-3.14c2.62-0.33,4.13,0.31,3.46,3.26c-0.63,2.77-1.2,4.65-2.64,9.09" transform="matrix(1,0,0,1,696,-4)" class="stroke_order_diagram--existing_path"></path><path id="pathSk940yk7k7rg" kvg:type="㇐b" d="M22.72,65.88c3.26-0.35,12.32-1.89,18.56-2.63c1.65-0.2,3.1-0.35,4.19-0.45" transform="matrix(1,0,0,1,696,-4)" class="stroke_order_diagram--existing_path"></path><path id="pathSk940yk7k7rh" kvg:type="㇔" d="M17.62,72.88c2.36,1.79,6.09,7.36,6.68,10.14" transform="matrix(1,0,0,1,696,-4)" class="stroke_order_diagram--existing_path"></path><path id="kvg:09f13-s8" kvg:type="㇒" d="M44.54,67.14c0.11,0.8,0.02,1.58-0.29,2.31c-1.16,3.68-3.09,7.82-5.94,13.01" transform="matrix(1,0,0,1,696,-4)" class="stroke_order_diagram--current_path"></path><path id="pathSk940yk7k7rj" kvg:type="㇒" d="M44.54,67.14c0.11,0.8,0.02,1.58-0.29,2.31c-1.16,3.68-3.09,7.82-5.94,13.01" transform="matrix(1,0,0,1,696,-4)" class="stroke_order_diagram--current_path"></path><circle cx="44.54" cy="67.14" r="8" class="stroke_order_diagram--path_start" transform="matrix(1,0,0,1,696,-4)"></circle><line x1="850" x2="850" y1="1" y2="99" class="stroke_order_diagram--guide_line"></line><line x1="899" x2="899" y1="1" y2="99" class="stroke_order_diagram--bounding_box"></line><path id="pathSk940yk7k7rm" kvg:type="㇐" d="M11.62,28.41c2.23,0.69,4.89,0.11,7.14-0.17c8.72-1.07,19.42-2.82,27.12-3.49c2.17-0.19,4.35-0.36,6.51,0" transform="matrix(1,0,0,1,796,-4)" class="stroke_order_diagram--existing_path"></path><path id="pathSk940yk7k7rn" kvg:type="㇑a" d="M31.68,12.01c1.03,1.03,1.15,2.37,1.15,3.94c0,4.05-0.02,17.05-0.02,22.64" transform="matrix(1,0,0,1,796,-4)" class="stroke_order_diagram--existing_path"></path><path id="pathSk940yk7k7ro" kvg:type="㇐" d="M15.43,41.18c1.83,0.51,4.12,0.25,5.96,0.05c6.5-0.72,14.49-2.1,20.37-2.79c1.86-0.22,3.79-0.37,5.66-0.09" transform="matrix(1,0,0,1,796,-4)" class="stroke_order_diagram--existing_path"></path><path id="pathSk940yk7k7rp" kvg:type="㇑" d="M18.49,51.42c0.67,0.67,0.95,1.22,1.06,2.02c0.76,2.5,1.46,6.06,2.38,10.28c0.29,1.31,0.37,2.6,0.52,3.74" transform="matrix(1,0,0,1,796,-4)" class="stroke_order_diagram--existing_path"></path><path id="pathSk940yk7k7rq" kvg:type="㇕b" d="M20.47,52.65c5.91-1.01,16.55-2.5,21.55-3.14c2.62-0.33,4.13,0.31,3.46,3.26c-0.63,2.77-1.2,4.65-2.64,9.09" transform="matrix(1,0,0,1,796,-4)" class="stroke_order_diagram--existing_path"></path><path id="pathSk940yk7k7rr" kvg:type="㇐b" d="M22.72,65.88c3.26-0.35,12.32-1.89,18.56-2.63c1.65-0.2,3.1-0.35,4.19-0.45" transform="matrix(1,0,0,1,796,-4)" class="stroke_order_diagram--existing_path"></path><path id="pathSk940yk7k7rs" kvg:type="㇔" d="M17.62,72.88c2.36,1.79,6.09,7.36,6.68,10.14" transform="matrix(1,0,0,1,796,-4)" class="stroke_order_diagram--existing_path"></path><path id="pathSk940yk7k7rt" kvg:type="㇒" d="M44.54,67.14c0.11,0.8,0.02,1.58-0.29,2.31c-1.16,3.68-3.09,7.82-5.94,13.01" transform="matrix(1,0,0,1,796,-4)" class="stroke_order_diagram--existing_path"></path><path id="kvg:09f13-s9" kvg:type="㇀/㇐" d="M14.52,91.1c0.98,1.4,2.52,1.45,4.56,0.64C32.38,86.5,37.25,85,48.75,81" transform="matrix(1,0,0,1,796,-4)" class="stroke_order_diagram--current_path"></path><path id="pathSk940yk7k7rv" kvg:type="㇀/㇐" d="M14.52,91.1c0.98,1.4,2.52,1.45,4.56,0.64C32.38,86.5,37.25,85,48.75,81" transform="matrix(1,0,0,1,796,-4)" class="stroke_order_diagram--current_path"></path><circle cx="14.52" cy="91.1" r="8" class="stroke_order_diagram--path_start" transform="matrix(1,0,0,1,796,-4)"></circle><line x1="950" x2="950" y1="1" y2="99" class="stroke_order_diagram--guide_line"></line><line x1="999" x2="999" y1="1" y2="99" class="stroke_order_diagram--bounding_box"></line><path id="pathSk940yk7k7ry" kvg:type="㇐" d="M11.62,28.41c2.23,0.69,4.89,0.11,7.14-0.17c8.72-1.07,19.42-2.82,27.12-3.49c2.17-0.19,4.35-0.36,6.51,0" transform="matrix(1,0,0,1,896,-4)" class="stroke_order_diagram--existing_path"></path><path id="pathSk940yk7k7rz" kvg:type="㇑a" d="M31.68,12.01c1.03,1.03,1.15,2.37,1.15,3.94c0,4.05-0.02,17.05-0.02,22.64" transform="matrix(1,0,0,1,896,-4)" class="stroke_order_diagram--existing_path"></path><path id="pathSk940yk7k7s0" kvg:type="㇐" d="M15.43,41.18c1.83,0.51,4.12,0.25,5.96,0.05c6.5-0.72,14.49-2.1,20.37-2.79c1.86-0.22,3.79-0.37,5.66-0.09" transform="matrix(1,0,0,1,896,-4)" class="stroke_order_diagram--existing_path"></path><path id="pathSk940yk7k7s1" kvg:type="㇑" d="M18.49,51.42c0.67,0.67,0.95,1.22,1.06,2.02c0.76,2.5,1.46,6.06,2.38,10.28c0.29,1.31,0.37,2.6,0.52,3.74" transform="matrix(1,0,0,1,896,-4)" class="stroke_order_diagram--existing_path"></path><path id="pathSk940yk7k7s2" kvg:type="㇕b" d="M20.47,52.65c5.91-1.01,16.55-2.5,21.55-3.14c2.62-0.33,4.13,0.31,3.46,3.26c-0.63,2.77-1.2,4.65-2.64,9.09" transform="matrix(1,0,0,1,896,-4)" class="stroke_order_diagram--existing_path"></path><path id="pathSk940yk7k7s3" kvg:type="㇐b" d="M22.72,65.88c3.26-0.35,12.32-1.89,18.56-2.63c1.65-0.2,3.1-0.35,4.19-0.45" transform="matrix(1,0,0,1,896,-4)" class="stroke_order_diagram--existing_path"></path><path id="pathSk940yk7k7s4" kvg:type="㇔" d="M17.62,72.88c2.36,1.79,6.09,7.36,6.68,10.14" transform="matrix(1,0,0,1,896,-4)" class="stroke_order_diagram--existing_path"></path><path id="pathSk940yk7k7s5" kvg:type="㇒" d="M44.54,67.14c0.11,0.8,0.02,1.58-0.29,2.31c-1.16,3.68-3.09,7.82-5.94,13.01" transform="matrix(1,0,0,1,896,-4)" class="stroke_order_diagram--existing_path"></path><path id="pathSk940yk7k7s6" kvg:type="㇀/㇐" d="M14.52,91.1c0.98,1.4,2.52,1.45,4.56,0.64C32.38,86.5,37.25,85,48.75,81" transform="matrix(1,0,0,1,896,-4)" class="stroke_order_diagram--existing_path"></path><path id="kvg:09f13-s10" kvg:type="㇐" d="M53.35,39.09c1.78,0.56,4.34,0.43,6.14,0.13c9.5-1.59,18.36-2.56,25.13-3.43c2.02-0.26,4.27-0.3,6.27,0.08" transform="matrix(1,0,0,1,896,-4)" class="stroke_order_diagram--current_path"></path><path id="pathSk940yk7k7s8" kvg:type="㇐" d="M53.35,39.09c1.78,0.56,4.34,0.43,6.14,0.13c9.5-1.59,18.36-2.56,25.13-3.43c2.02-0.26,4.27-0.3,6.27,0.08" transform="matrix(1,0,0,1,896,-4)" class="stroke_order_diagram--current_path"></path><circle cx="53.35" cy="39.09" r="8" class="stroke_order_diagram--path_start" transform="matrix(1,0,0,1,896,-4)"></circle><line x1="1050" x2="1050" y1="1" y2="99" class="stroke_order_diagram--guide_line"></line><line x1="1099" x2="1099" y1="1" y2="99" class="stroke_order_diagram--bounding_box"></line><path id="pathSk940yk7k7sb" kvg:type="㇐" d="M11.62,28.41c2.23,0.69,4.89,0.11,7.14-0.17c8.72-1.07,19.42-2.82,27.12-3.49c2.17-0.19,4.35-0.36,6.51,0" transform="matrix(1,0,0,1,996,-4)" class="stroke_order_diagram--existing_path"></path><path id="pathSk940yk7k7sc" kvg:type="㇑a" d="M31.68,12.01c1.03,1.03,1.15,2.37,1.15,3.94c0,4.05-0.02,17.05-0.02,22.64" transform="matrix(1,0,0,1,996,-4)" class="stroke_order_diagram--existing_path"></path><path id="pathSk940yk7k7sd" kvg:type="㇐" d="M15.43,41.18c1.83,0.51,4.12,0.25,5.96,0.05c6.5-0.72,14.49-2.1,20.37-2.79c1.86-0.22,3.79-0.37,5.66-0.09" transform="matrix(1,0,0,1,996,-4)" class="stroke_order_diagram--existing_path"></path><path id="pathSk940yk7k7se" kvg:type="㇑" d="M18.49,51.42c0.67,0.67,0.95,1.22,1.06,2.02c0.76,2.5,1.46,6.06,2.38,10.28c0.29,1.31,0.37,2.6,0.52,3.74" transform="matrix(1,0,0,1,996,-4)" class="stroke_order_diagram--existing_path"></path><path id="pathSk940yk7k7sf" kvg:type="㇕b" d="M20.47,52.65c5.91-1.01,16.55-2.5,21.55-3.14c2.62-0.33,4.13,0.31,3.46,3.26c-0.63,2.77-1.2,4.65-2.64,9.09" transform="matrix(1,0,0,1,996,-4)" class="stroke_order_diagram--existing_path"></path><path id="pathSk940yk7k7sg" kvg:type="㇐b" d="M22.72,65.88c3.26-0.35,12.32-1.89,18.56-2.63c1.65-0.2,3.1-0.35,4.19-0.45" transform="matrix(1,0,0,1,996,-4)" class="stroke_order_diagram--existing_path"></path><path id="pathSk940yk7k7sh" kvg:type="㇔" d="M17.62,72.88c2.36,1.79,6.09,7.36,6.68,10.14" transform="matrix(1,0,0,1,996,-4)" class="stroke_order_diagram--existing_path"></path><path id="pathSk940yk7k7si" kvg:type="㇒" d="M44.54,67.14c0.11,0.8,0.02,1.58-0.29,2.31c-1.16,3.68-3.09,7.82-5.94,13.01" transform="matrix(1,0,0,1,996,-4)" class="stroke_order_diagram--existing_path"></path><path id="pathSk940yk7k7sj" kvg:type="㇀/㇐" d="M14.52,91.1c0.98,1.4,2.52,1.45,4.56,0.64C32.38,86.5,37.25,85,48.75,81" transform="matrix(1,0,0,1,996,-4)" class="stroke_order_diagram--existing_path"></path><path id="pathSk940yk7k7sk" kvg:type="㇐" d="M53.35,39.09c1.78,0.56,4.34,0.43,6.14,0.13c9.5-1.59,18.36-2.56,25.13-3.43c2.02-0.26,4.27-0.3,6.27,0.08" transform="matrix(1,0,0,1,996,-4)" class="stroke_order_diagram--existing_path"></path><path id="kvg:09f13-s11" kvg:type="㇑a" d="M70.97,14.63c1.07,1.07,1.34,2.62,1.34,4.22c0,5.65,0.04,28.03,0.04,35.03" transform="matrix(1,0,0,1,996,-4)" class="stroke_order_diagram--current_path"></path><path id="pathSk940yk7k7sm" kvg:type="㇑a" d="M70.97,14.63c1.07,1.07,1.34,2.62,1.34,4.22c0,5.65,0.04,28.03,0.04,35.03" transform="matrix(1,0,0,1,996,-4)" class="stroke_order_diagram--current_path"></path><circle cx="70.97" cy="14.63" r="8" class="stroke_order_diagram--path_start" transform="matrix(1,0,0,1,996,-4)"></circle><line x1="1150" x2="1150" y1="1" y2="99" class="stroke_order_diagram--guide_line"></line><line x1="1199" x2="1199" y1="1" y2="99" class="stroke_order_diagram--bounding_box"></line><path id="pathSk940yk7k7sp" kvg:type="㇐" d="M11.62,28.41c2.23,0.69,4.89,0.11,7.14-0.17c8.72-1.07,19.42-2.82,27.12-3.49c2.17-0.19,4.35-0.36,6.51,0" transform="matrix(1,0,0,1,1096,-4)" class="stroke_order_diagram--existing_path"></path><path id="pathSk940yk7k7sq" kvg:type="㇑a" d="M31.68,12.01c1.03,1.03,1.15,2.37,1.15,3.94c0,4.05-0.02,17.05-0.02,22.64" transform="matrix(1,0,0,1,1096,-4)" class="stroke_order_diagram--existing_path"></path><path id="pathSk940yk7k7sr" kvg:type="㇐" d="M15.43,41.18c1.83,0.51,4.12,0.25,5.96,0.05c6.5-0.72,14.49-2.1,20.37-2.79c1.86-0.22,3.79-0.37,5.66-0.09" transform="matrix(1,0,0,1,1096,-4)" class="stroke_order_diagram--existing_path"></path><path id="pathSk940yk7k7ss" kvg:type="㇑" d="M18.49,51.42c0.67,0.67,0.95,1.22,1.06,2.02c0.76,2.5,1.46,6.06,2.38,10.28c0.29,1.31,0.37,2.6,0.52,3.74" transform="matrix(1,0,0,1,1096,-4)" class="stroke_order_diagram--existing_path"></path><path id="pathSk940yk7k7st" kvg:type="㇕b" d="M20.47,52.65c5.91-1.01,16.55-2.5,21.55-3.14c2.62-0.33,4.13,0.31,3.46,3.26c-0.63,2.77-1.2,4.65-2.64,9.09" transform="matrix(1,0,0,1,1096,-4)" class="stroke_order_diagram--existing_path"></path><path id="pathSk940yk7k7su" kvg:type="㇐b" d="M22.72,65.88c3.26-0.35,12.32-1.89,18.56-2.63c1.65-0.2,3.1-0.35,4.19-0.45" transform="matrix(1,0,0,1,1096,-4)" class="stroke_order_diagram--existing_path"></path><path id="pathSk940yk7k7sv" kvg:type="㇔" d="M17.62,72.88c2.36,1.79,6.09,7.36,6.68,10.14" transform="matrix(1,0,0,1,1096,-4)" class="stroke_order_diagram--existing_path"></path><path id="pathSk940yk7k7sw" kvg:type="㇒" d="M44.54,67.14c0.11,0.8,0.02,1.58-0.29,2.31c-1.16,3.68-3.09,7.82-5.94,13.01" transform="matrix(1,0,0,1,1096,-4)" class="stroke_order_diagram--existing_path"></path><path id="pathSk940yk7k7sx" kvg:type="㇀/㇐" d="M14.52,91.1c0.98,1.4,2.52,1.45,4.56,0.64C32.38,86.5,37.25,85,48.75,81" transform="matrix(1,0,0,1,1096,-4)" class="stroke_order_diagram--existing_path"></path><path id="pathSk940yk7k7sy" kvg:type="㇐" d="M53.35,39.09c1.78,0.56,4.34,0.43,6.14,0.13c9.5-1.59,18.36-2.56,25.13-3.43c2.02-0.26,4.27-0.3,6.27,0.08" transform="matrix(1,0,0,1,1096,-4)" class="stroke_order_diagram--existing_path"></path><path id="pathSk940yk7k7sz" kvg:type="㇑a" d="M70.97,14.63c1.07,1.07,1.34,2.62,1.34,4.22c0,5.65,0.04,28.03,0.04,35.03" transform="matrix(1,0,0,1,1096,-4)" class="stroke_order_diagram--existing_path"></path><path id="kvg:09f13-s12" kvg:type="㇇" d="M56.86,56.96c1.21,0.37,2.31,0.39,4.78,0.12c3.68-0.4,15.91-3.16,20.17-4.25c2.24-0.57,4.36,0.57,2.91,3.37C75.5,74,62.38,87.25,47,94.53" transform="matrix(1,0,0,1,1096,-4)" class="stroke_order_diagram--current_path"></path><path id="pathSk940yk7k7t1" kvg:type="㇇" d="M56.86,56.96c1.21,0.37,2.31,0.39,4.78,0.12c3.68-0.4,15.91-3.16,20.17-4.25c2.24-0.57,4.36,0.57,2.91,3.37C75.5,74,62.38,87.25,47,94.53" transform="matrix(1,0,0,1,1096,-4)" class="stroke_order_diagram--current_path"></path><circle cx="56.86" cy="56.96" r="8" class="stroke_order_diagram--path_start" transform="matrix(1,0,0,1,1096,-4)"></circle><line x1="1250" x2="1250" y1="1" y2="99" class="stroke_order_diagram--guide_line"></line><line x1="1299" x2="1299" y1="1" y2="99" class="stroke_order_diagram--bounding_box"></line><path id="pathSk940yk7k7t4" kvg:type="㇐" d="M11.62,28.41c2.23,0.69,4.89,0.11,7.14-0.17c8.72-1.07,19.42-2.82,27.12-3.49c2.17-0.19,4.35-0.36,6.51,0" transform="matrix(1,0,0,1,1196,-4)" class="stroke_order_diagram--existing_path"></path><path id="pathSk940yk7k7t5" kvg:type="㇑a" d="M31.68,12.01c1.03,1.03,1.15,2.37,1.15,3.94c0,4.05-0.02,17.05-0.02,22.64" transform="matrix(1,0,0,1,1196,-4)" class="stroke_order_diagram--existing_path"></path><path id="pathSk940yk7k7t6" kvg:type="㇐" d="M15.43,41.18c1.83,0.51,4.12,0.25,5.96,0.05c6.5-0.72,14.49-2.1,20.37-2.79c1.86-0.22,3.79-0.37,5.66-0.09" transform="matrix(1,0,0,1,1196,-4)" class="stroke_order_diagram--existing_path"></path><path id="pathSk940yk7k7t7" kvg:type="㇑" d="M18.49,51.42c0.67,0.67,0.95,1.22,1.06,2.02c0.76,2.5,1.46,6.06,2.38,10.28c0.29,1.31,0.37,2.6,0.52,3.74" transform="matrix(1,0,0,1,1196,-4)" class="stroke_order_diagram--existing_path"></path><path id="pathSk940yk7k7t8" kvg:type="㇕b" d="M20.47,52.65c5.91-1.01,16.55-2.5,21.55-3.14c2.62-0.33,4.13,0.31,3.46,3.26c-0.63,2.77-1.2,4.65-2.64,9.09" transform="matrix(1,0,0,1,1196,-4)" class="stroke_order_diagram--existing_path"></path><path id="pathSk940yk7k7t9" kvg:type="㇐b" d="M22.72,65.88c3.26-0.35,12.32-1.89,18.56-2.63c1.65-0.2,3.1-0.35,4.19-0.45" transform="matrix(1,0,0,1,1196,-4)" class="stroke_order_diagram--existing_path"></path><path id="pathSk940yk7k7ta" kvg:type="㇔" d="M17.62,72.88c2.36,1.79,6.09,7.36,6.68,10.14" transform="matrix(1,0,0,1,1196,-4)" class="stroke_order_diagram--existing_path"></path><path id="pathSk940yk7k7tb" kvg:type="㇒" d="M44.54,67.14c0.11,0.8,0.02,1.58-0.29,2.31c-1.16,3.68-3.09,7.82-5.94,13.01" transform="matrix(1,0,0,1,1196,-4)" class="stroke_order_diagram--existing_path"></path><path id="pathSk940yk7k7tc" kvg:type="㇀/㇐" d="M14.52,91.1c0.98,1.4,2.52,1.45,4.56,0.64C32.38,86.5,37.25,85,48.75,81" transform="matrix(1,0,0,1,1196,-4)" class="stroke_order_diagram--existing_path"></path><path id="pathSk940yk7k7td" kvg:type="㇐" d="M53.35,39.09c1.78,0.56,4.34,0.43,6.14,0.13c9.5-1.59,18.36-2.56,25.13-3.43c2.02-0.26,4.27-0.3,6.27,0.08" transform="matrix(1,0,0,1,1196,-4)" class="stroke_order_diagram--existing_path"></path><path id="pathSk940yk7k7te" kvg:type="㇑a" d="M70.97,14.63c1.07,1.07,1.34,2.62,1.34,4.22c0,5.65,0.04,28.03,0.04,35.03" transform="matrix(1,0,0,1,1196,-4)" class="stroke_order_diagram--existing_path"></path><path id="pathSk940yk7k7tf" kvg:type="㇇" d="M56.86,56.96c1.21,0.37,2.31,0.39,4.78,0.12c3.68-0.4,15.91-3.16,20.17-4.25c2.24-0.57,4.36,0.57,2.91,3.37C75.5,74,62.38,87.25,47,94.53" transform="matrix(1,0,0,1,1196,-4)" class="stroke_order_diagram--existing_path"></path><path id="kvg:09f13-s13" kvg:type="㇏" d="M56.38,63.99c6.04,0.93,18.12,16.14,30.29,26.73c2.46,2.14,4.82,4.16,8.05,5.51" transform="matrix(1,0,0,1,1196,-4)" class="stroke_order_diagram--current_path"></path><path id="pathSk940yk7k7th" kvg:type="㇏" d="M56.38,63.99c6.04,0.93,18.12,16.14,30.29,26.73c2.46,2.14,4.82,4.16,8.05,5.51" transform="matrix(1,0,0,1,1196,-4)" class="stroke_order_diagram--current_path"></path><circle cx="56.38" cy="63.99" r="8" class="stroke_order_diagram--path_start" transform="matrix(1,0,0,1,1196,-4)"></circle></svg>