<?xml version="1.0" encoding="UTF-8"?>
<!DOCTYPE svg PUBLIC "-//W3C//DTD SVG 1.0//EN" "http://www.w3.org/TR/2001/REC-SVG-20010904/DTD/svg10.dtd" [
<!ATTLIST g
xmlns:kvg CDATA #FIXED "http://kanjivg.tagaini.net"
kvg:element CDATA #IMPLIED
kvg:variant CDATA #IMPLIED
kvg:partial CDATA #IMPLIED
kvg:original CDATA #IMPLIED
kvg:part CDATA #IMPLIED
kvg:number CDATA #IMPLIED
kvg:tradForm CDATA #IMPLIED
kvg:radicalForm CDATA #IMPLIED
kvg:position CDATA #IMPLIED
kvg:radical CDATA #IMPLIED
kvg:phon CDATA #IMPLIED >
<!ATTLIST path
xmlns:kvg CDATA #FIXED "http://kanjivg.tagaini.net"
kvg:type CDATA #IMPLIED >
]><svg style="width: 1300px; height: 100px;" xmlns="http://www.w3.org/2000/svg" xmlns:xlink="http://www.w3.org/1999/xlink" width="1300px" height="100px"><style>
.stroke_order_diagram--outer_container {
  width: 100%;
  overflow-x: auto;
  overflow-y: hidden;
}

.stroke_order_diagram--guide_line {
  fill: none;
  stroke: #ddd;
  stroke-width: 3;
  stroke-linecap: square;
  stroke-linejoin: square;
  stroke-dasharray:8, 8;
}

.stroke_order_diagram--bounding_box {
  fill: none;
  stroke: #ddd;
  stroke-width: 4;
  stroke-linecap: square;
  stroke-linejoin: square;
}

.stroke_order_diagram--current_path {
  fill: none;
  stroke: #000;
  stroke-width: 6;
  stroke-linecap: round;
  stroke-linejoin: round;
}

.stroke_order_diagram--existing_path {
  fill: none;
  stroke: #aaa;
  stroke-width: 6;
  stroke-linecap: round;
  stroke-linejoin:round;
}

.stroke_order_diagram--path_start {
  fill: rgba(255, 0, 0, 0.7);
  stroke:none
}</style><desc>Created with Snap</desc><defs></defs><line x1="1" x2="1299" y1="1" y2="1" class="stroke_order_diagram--bounding_box"></line><line x1="1" x2="1" y1="1" y2="99" class="stroke_order_diagram--bounding_box"></line><line x1="1" x2="1299" y1="99" y2="99" class="stroke_order_diagram--bounding_box"></line><line x1="0" x2="1300" y1="50" y2="50" class="stroke_order_diagram--guide_line"></line><line x1="50" x2="50" y1="1" y2="99" class="stroke_order_diagram--guide_line"></line><line x1="99" x2="99" y1="1" y2="99" class="stroke_order_diagram--bounding_box"></line><path id="kvg:09f20-s1" kvg:type="㇒" d="M44.34,13.21c-0.22,0.91-0.66,1.5-1.26,2c-4.45,3.67-8.2,6.04-14.95,9.17" transform="matrix(1,0,0,1,-4,-4)" class="stroke_order_diagram--current_path"></path><path id="pathSk940yk7k7u4" kvg:type="㇒" d="M44.34,13.21c-0.22,0.91-0.66,1.5-1.26,2c-4.45,3.67-8.2,6.04-14.95,9.17" transform="matrix(1,0,0,1,-4,-4)" class="stroke_order_diagram--current_path"></path><circle cx="44.34" cy="13.21" r="8" class="stroke_order_diagram--path_start" transform="matrix(1,0,0,1,-4,-4)"></circle><line x1="150" x2="150" y1="1" y2="99" class="stroke_order_diagram--guide_line"></line><line x1="199" x2="199" y1="1" y2="99" class="stroke_order_diagram--bounding_box"></line><path id="pathSk940yk7k7u7" kvg:type="㇒" d="M44.34,13.21c-0.22,0.91-0.66,1.5-1.26,2c-4.45,3.67-8.2,6.04-14.95,9.17" transform="matrix(1,0,0,1,96,-4)" class="stroke_order_diagram--existing_path"></path><path id="kvg:09f20-s2" kvg:type="㇑" d="M24.87,23.75c0.69,0.69,1.12,1.61,1.31,2.63c0.72,3.73,3.49,15.57,4.21,20.61" transform="matrix(1,0,0,1,96,-4)" class="stroke_order_diagram--current_path"></path><path id="pathSk940yk7k7u9" kvg:type="㇑" d="M24.87,23.75c0.69,0.69,1.12,1.61,1.31,2.63c0.72,3.73,3.49,15.57,4.21,20.61" transform="matrix(1,0,0,1,96,-4)" class="stroke_order_diagram--current_path"></path><circle cx="24.87" cy="23.75" r="8" class="stroke_order_diagram--path_start" transform="matrix(1,0,0,1,96,-4)"></circle><line x1="250" x2="250" y1="1" y2="99" class="stroke_order_diagram--guide_line"></line><line x1="299" x2="299" y1="1" y2="99" class="stroke_order_diagram--bounding_box"></line><path id="pathSk940yk7k7uc" kvg:type="㇒" d="M44.34,13.21c-0.22,0.91-0.66,1.5-1.26,2c-4.45,3.67-8.2,6.04-14.95,9.17" transform="matrix(1,0,0,1,196,-4)" class="stroke_order_diagram--existing_path"></path><path id="pathSk940yk7k7ud" kvg:type="㇑" d="M24.87,23.75c0.69,0.69,1.12,1.61,1.31,2.63c0.72,3.73,3.49,15.57,4.21,20.61" transform="matrix(1,0,0,1,196,-4)" class="stroke_order_diagram--existing_path"></path><path id="kvg:09f20-s3" kvg:type="㇕" d="M57.9,18.95c1.7,0.42,3.41,0.7,5.11,0.35c3.76-0.5,11.13-2.03,14.11-2.56c2.33-0.41,3.79,1.54,3.44,3.75C79.5,27.4,78.19,37.9,77.18,42.8" transform="matrix(1,0,0,1,196,-4)" class="stroke_order_diagram--current_path"></path><path id="pathSk940yk7k7uf" kvg:type="㇕" d="M57.9,18.95c1.7,0.42,3.41,0.7,5.11,0.35c3.76-0.5,11.13-2.03,14.11-2.56c2.33-0.41,3.79,1.54,3.44,3.75C79.5,27.4,78.19,37.9,77.18,42.8" transform="matrix(1,0,0,1,196,-4)" class="stroke_order_diagram--current_path"></path><circle cx="57.9" cy="18.95" r="8" class="stroke_order_diagram--path_start" transform="matrix(1,0,0,1,196,-4)"></circle><line x1="350" x2="350" y1="1" y2="99" class="stroke_order_diagram--guide_line"></line><line x1="399" x2="399" y1="1" y2="99" class="stroke_order_diagram--bounding_box"></line><path id="pathSk940yk7k7ui" kvg:type="㇒" d="M44.34,13.21c-0.22,0.91-0.66,1.5-1.26,2c-4.45,3.67-8.2,6.04-14.95,9.17" transform="matrix(1,0,0,1,296,-4)" class="stroke_order_diagram--existing_path"></path><path id="pathSk940yk7k7uj" kvg:type="㇑" d="M24.87,23.75c0.69,0.69,1.12,1.61,1.31,2.63c0.72,3.73,3.49,15.57,4.21,20.61" transform="matrix(1,0,0,1,296,-4)" class="stroke_order_diagram--existing_path"></path><path id="pathSk940yk7k7uk" kvg:type="㇕" d="M57.9,18.95c1.7,0.42,3.41,0.7,5.11,0.35c3.76-0.5,11.13-2.03,14.11-2.56c2.33-0.41,3.79,1.54,3.44,3.75C79.5,27.4,78.19,37.9,77.18,42.8" transform="matrix(1,0,0,1,296,-4)" class="stroke_order_diagram--existing_path"></path><path id="kvg:09f20-s4" kvg:type="㇐" d="M29.02,33.63c4.85-1.01,8.1-1.63,11.99-2.36c1.56-0.29,3.14-0.47,4.73-0.53" transform="matrix(1,0,0,1,296,-4)" class="stroke_order_diagram--current_path"></path><path id="pathSk940yk7k7um" kvg:type="㇐" d="M29.02,33.63c4.85-1.01,8.1-1.63,11.99-2.36c1.56-0.29,3.14-0.47,4.73-0.53" transform="matrix(1,0,0,1,296,-4)" class="stroke_order_diagram--current_path"></path><circle cx="29.02" cy="33.63" r="8" class="stroke_order_diagram--path_start" transform="matrix(1,0,0,1,296,-4)"></circle><line x1="450" x2="450" y1="1" y2="99" class="stroke_order_diagram--guide_line"></line><line x1="499" x2="499" y1="1" y2="99" class="stroke_order_diagram--bounding_box"></line><path id="pathSk940yk7k7up" kvg:type="㇒" d="M44.34,13.21c-0.22,0.91-0.66,1.5-1.26,2c-4.45,3.67-8.2,6.04-14.95,9.17" transform="matrix(1,0,0,1,396,-4)" class="stroke_order_diagram--existing_path"></path><path id="pathSk940yk7k7uq" kvg:type="㇑" d="M24.87,23.75c0.69,0.69,1.12,1.61,1.31,2.63c0.72,3.73,3.49,15.57,4.21,20.61" transform="matrix(1,0,0,1,396,-4)" class="stroke_order_diagram--existing_path"></path><path id="pathSk940yk7k7ur" kvg:type="㇕" d="M57.9,18.95c1.7,0.42,3.41,0.7,5.11,0.35c3.76-0.5,11.13-2.03,14.11-2.56c2.33-0.41,3.79,1.54,3.44,3.75C79.5,27.4,78.19,37.9,77.18,42.8" transform="matrix(1,0,0,1,396,-4)" class="stroke_order_diagram--existing_path"></path><path id="pathSk940yk7k7us" kvg:type="㇐" d="M29.02,33.63c4.85-1.01,8.1-1.63,11.99-2.36c1.56-0.29,3.14-0.47,4.73-0.53" transform="matrix(1,0,0,1,396,-4)" class="stroke_order_diagram--existing_path"></path><path id="kvg:09f20-s5" kvg:type="㇐" d="M57.78,29.54c2.16,0.44,4.29,0.33,6.48,0.04c5.49-0.71,13.19-1.39,14.29-1.47" transform="matrix(1,0,0,1,396,-4)" class="stroke_order_diagram--current_path"></path><path id="pathSk940yk7k7uu" kvg:type="㇐" d="M57.78,29.54c2.16,0.44,4.29,0.33,6.48,0.04c5.49-0.71,13.19-1.39,14.29-1.47" transform="matrix(1,0,0,1,396,-4)" class="stroke_order_diagram--current_path"></path><circle cx="57.78" cy="29.54" r="8" class="stroke_order_diagram--path_start" transform="matrix(1,0,0,1,396,-4)"></circle><line x1="550" x2="550" y1="1" y2="99" class="stroke_order_diagram--guide_line"></line><line x1="599" x2="599" y1="1" y2="99" class="stroke_order_diagram--bounding_box"></line><path id="pathSk940yk7k7ux" kvg:type="㇒" d="M44.34,13.21c-0.22,0.91-0.66,1.5-1.26,2c-4.45,3.67-8.2,6.04-14.95,9.17" transform="matrix(1,0,0,1,496,-4)" class="stroke_order_diagram--existing_path"></path><path id="pathSk940yk7k7uy" kvg:type="㇑" d="M24.87,23.75c0.69,0.69,1.12,1.61,1.31,2.63c0.72,3.73,3.49,15.57,4.21,20.61" transform="matrix(1,0,0,1,496,-4)" class="stroke_order_diagram--existing_path"></path><path id="pathSk940yk7k7uz" kvg:type="㇕" d="M57.9,18.95c1.7,0.42,3.41,0.7,5.11,0.35c3.76-0.5,11.13-2.03,14.11-2.56c2.33-0.41,3.79,1.54,3.44,3.75C79.5,27.4,78.19,37.9,77.18,42.8" transform="matrix(1,0,0,1,496,-4)" class="stroke_order_diagram--existing_path"></path><path id="pathSk940yk7k7v0" kvg:type="㇐" d="M29.02,33.63c4.85-1.01,8.1-1.63,11.99-2.36c1.56-0.29,3.14-0.47,4.73-0.53" transform="matrix(1,0,0,1,496,-4)" class="stroke_order_diagram--existing_path"></path><path id="pathSk940yk7k7v1" kvg:type="㇐" d="M57.78,29.54c2.16,0.44,4.29,0.33,6.48,0.04c5.49-0.71,13.19-1.39,14.29-1.47" transform="matrix(1,0,0,1,496,-4)" class="stroke_order_diagram--existing_path"></path><path id="kvg:09f20-s6" kvg:type="㇐" d="M31.08,44.57c16.05-2.2,28.8-3.7,46.16-4.84" transform="matrix(1,0,0,1,496,-4)" class="stroke_order_diagram--current_path"></path><path id="pathSk940yk7k7v3" kvg:type="㇐" d="M31.08,44.57c16.05-2.2,28.8-3.7,46.16-4.84" transform="matrix(1,0,0,1,496,-4)" class="stroke_order_diagram--current_path"></path><circle cx="31.08" cy="44.57" r="8" class="stroke_order_diagram--path_start" transform="matrix(1,0,0,1,496,-4)"></circle><line x1="650" x2="650" y1="1" y2="99" class="stroke_order_diagram--guide_line"></line><line x1="699" x2="699" y1="1" y2="99" class="stroke_order_diagram--bounding_box"></line><path id="pathSk940yk7k7v6" kvg:type="㇒" d="M44.34,13.21c-0.22,0.91-0.66,1.5-1.26,2c-4.45,3.67-8.2,6.04-14.95,9.17" transform="matrix(1,0,0,1,596,-4)" class="stroke_order_diagram--existing_path"></path><path id="pathSk940yk7k7v7" kvg:type="㇑" d="M24.87,23.75c0.69,0.69,1.12,1.61,1.31,2.63c0.72,3.73,3.49,15.57,4.21,20.61" transform="matrix(1,0,0,1,596,-4)" class="stroke_order_diagram--existing_path"></path><path id="pathSk940yk7k7v8" kvg:type="㇕" d="M57.9,18.95c1.7,0.42,3.41,0.7,5.11,0.35c3.76-0.5,11.13-2.03,14.11-2.56c2.33-0.41,3.79,1.54,3.44,3.75C79.5,27.4,78.19,37.9,77.18,42.8" transform="matrix(1,0,0,1,596,-4)" class="stroke_order_diagram--existing_path"></path><path id="pathSk940yk7k7v9" kvg:type="㇐" d="M29.02,33.63c4.85-1.01,8.1-1.63,11.99-2.36c1.56-0.29,3.14-0.47,4.73-0.53" transform="matrix(1,0,0,1,596,-4)" class="stroke_order_diagram--existing_path"></path><path id="pathSk940yk7k7va" kvg:type="㇐" d="M57.78,29.54c2.16,0.44,4.29,0.33,6.48,0.04c5.49-0.71,13.19-1.39,14.29-1.47" transform="matrix(1,0,0,1,596,-4)" class="stroke_order_diagram--existing_path"></path><path id="pathSk940yk7k7vb" kvg:type="㇐" d="M31.08,44.57c16.05-2.2,28.8-3.7,46.16-4.84" transform="matrix(1,0,0,1,596,-4)" class="stroke_order_diagram--existing_path"></path><path id="kvg:09f20-s7" kvg:type="㇙" d="M26.87,52.76c0.81,0.81,1.03,2.24,1.03,3.49c0,0.85-0.02,27.5-0.02,35.62c0,2.15,0.81,2.76,3.24,0.89c4.39-3.39,9.51-7.39,15.39-11.51" transform="matrix(1,0,0,1,596,-4)" class="stroke_order_diagram--current_path"></path><path id="pathSk940yk7k7vd" kvg:type="㇙" d="M26.87,52.76c0.81,0.81,1.03,2.24,1.03,3.49c0,0.85-0.02,27.5-0.02,35.62c0,2.15,0.81,2.76,3.24,0.89c4.39-3.39,9.51-7.39,15.39-11.51" transform="matrix(1,0,0,1,596,-4)" class="stroke_order_diagram--current_path"></path><circle cx="26.87" cy="52.76" r="8" class="stroke_order_diagram--path_start" transform="matrix(1,0,0,1,596,-4)"></circle><line x1="750" x2="750" y1="1" y2="99" class="stroke_order_diagram--guide_line"></line><line x1="799" x2="799" y1="1" y2="99" class="stroke_order_diagram--bounding_box"></line><path id="pathSk940yk7k7vg" kvg:type="㇒" d="M44.34,13.21c-0.22,0.91-0.66,1.5-1.26,2c-4.45,3.67-8.2,6.04-14.95,9.17" transform="matrix(1,0,0,1,696,-4)" class="stroke_order_diagram--existing_path"></path><path id="pathSk940yk7k7vh" kvg:type="㇑" d="M24.87,23.75c0.69,0.69,1.12,1.61,1.31,2.63c0.72,3.73,3.49,15.57,4.21,20.61" transform="matrix(1,0,0,1,696,-4)" class="stroke_order_diagram--existing_path"></path><path id="pathSk940yk7k7vi" kvg:type="㇕" d="M57.9,18.95c1.7,0.42,3.41,0.7,5.11,0.35c3.76-0.5,11.13-2.03,14.11-2.56c2.33-0.41,3.79,1.54,3.44,3.75C79.5,27.4,78.19,37.9,77.18,42.8" transform="matrix(1,0,0,1,696,-4)" class="stroke_order_diagram--existing_path"></path><path id="pathSk940yk7k7vj" kvg:type="㇐" d="M29.02,33.63c4.85-1.01,8.1-1.63,11.99-2.36c1.56-0.29,3.14-0.47,4.73-0.53" transform="matrix(1,0,0,1,696,-4)" class="stroke_order_diagram--existing_path"></path><path id="pathSk940yk7k7vk" kvg:type="㇐" d="M57.78,29.54c2.16,0.44,4.29,0.33,6.48,0.04c5.49-0.71,13.19-1.39,14.29-1.47" transform="matrix(1,0,0,1,696,-4)" class="stroke_order_diagram--existing_path"></path><path id="pathSk940yk7k7vl" kvg:type="㇐" d="M31.08,44.57c16.05-2.2,28.8-3.7,46.16-4.84" transform="matrix(1,0,0,1,696,-4)" class="stroke_order_diagram--existing_path"></path><path id="pathSk940yk7k7vm" kvg:type="㇙" d="M26.87,52.76c0.81,0.81,1.03,2.24,1.03,3.49c0,0.85-0.02,27.5-0.02,35.62c0,2.15,0.81,2.76,3.24,0.89c4.39-3.39,9.51-7.39,15.39-11.51" transform="matrix(1,0,0,1,696,-4)" class="stroke_order_diagram--existing_path"></path><path id="kvg:09f20-s8" kvg:type="㇔" d="M35.75,52.25c2.56,1.01,6.61,4.17,7.25,5.75" transform="matrix(1,0,0,1,696,-4)" class="stroke_order_diagram--current_path"></path><path id="pathSk940yk7k7vo" kvg:type="㇔" d="M35.75,52.25c2.56,1.01,6.61,4.17,7.25,5.75" transform="matrix(1,0,0,1,696,-4)" class="stroke_order_diagram--current_path"></path><circle cx="35.75" cy="52.25" r="8" class="stroke_order_diagram--path_start" transform="matrix(1,0,0,1,696,-4)"></circle><line x1="850" x2="850" y1="1" y2="99" class="stroke_order_diagram--guide_line"></line><line x1="899" x2="899" y1="1" y2="99" class="stroke_order_diagram--bounding_box"></line><path id="pathSk940yk7k7vr" kvg:type="㇒" d="M44.34,13.21c-0.22,0.91-0.66,1.5-1.26,2c-4.45,3.67-8.2,6.04-14.95,9.17" transform="matrix(1,0,0,1,796,-4)" class="stroke_order_diagram--existing_path"></path><path id="pathSk940yk7k7vs" kvg:type="㇑" d="M24.87,23.75c0.69,0.69,1.12,1.61,1.31,2.63c0.72,3.73,3.49,15.57,4.21,20.61" transform="matrix(1,0,0,1,796,-4)" class="stroke_order_diagram--existing_path"></path><path id="pathSk940yk7k7vt" kvg:type="㇕" d="M57.9,18.95c1.7,0.42,3.41,0.7,5.11,0.35c3.76-0.5,11.13-2.03,14.11-2.56c2.33-0.41,3.79,1.54,3.44,3.75C79.5,27.4,78.19,37.9,77.18,42.8" transform="matrix(1,0,0,1,796,-4)" class="stroke_order_diagram--existing_path"></path><path id="pathSk940yk7k7vu" kvg:type="㇐" d="M29.02,33.63c4.85-1.01,8.1-1.63,11.99-2.36c1.56-0.29,3.14-0.47,4.73-0.53" transform="matrix(1,0,0,1,796,-4)" class="stroke_order_diagram--existing_path"></path><path id="pathSk940yk7k7vv" kvg:type="㇐" d="M57.78,29.54c2.16,0.44,4.29,0.33,6.48,0.04c5.49-0.71,13.19-1.39,14.29-1.47" transform="matrix(1,0,0,1,796,-4)" class="stroke_order_diagram--existing_path"></path><path id="pathSk940yk7k7vw" kvg:type="㇐" d="M31.08,44.57c16.05-2.2,28.8-3.7,46.16-4.84" transform="matrix(1,0,0,1,796,-4)" class="stroke_order_diagram--existing_path"></path><path id="pathSk940yk7k7vx" kvg:type="㇙" d="M26.87,52.76c0.81,0.81,1.03,2.24,1.03,3.49c0,0.85-0.02,27.5-0.02,35.62c0,2.15,0.81,2.76,3.24,0.89c4.39-3.39,9.51-7.39,15.39-11.51" transform="matrix(1,0,0,1,796,-4)" class="stroke_order_diagram--existing_path"></path><path id="pathSk940yk7k7vy" kvg:type="㇔" d="M35.75,52.25c2.56,1.01,6.61,4.17,7.25,5.75" transform="matrix(1,0,0,1,796,-4)" class="stroke_order_diagram--existing_path"></path><path id="kvg:09f20-s9" kvg:type="㇔" d="M36.75,68.75c2.56,1.01,6.36,4.42,7,6" transform="matrix(1,0,0,1,796,-4)" class="stroke_order_diagram--current_path"></path><path id="pathSk940yk7k7w0" kvg:type="㇔" d="M36.75,68.75c2.56,1.01,6.36,4.42,7,6" transform="matrix(1,0,0,1,796,-4)" class="stroke_order_diagram--current_path"></path><circle cx="36.75" cy="68.75" r="8" class="stroke_order_diagram--path_start" transform="matrix(1,0,0,1,796,-4)"></circle><line x1="950" x2="950" y1="1" y2="99" class="stroke_order_diagram--guide_line"></line><line x1="999" x2="999" y1="1" y2="99" class="stroke_order_diagram--bounding_box"></line><path id="pathSk940yk7k7w3" kvg:type="㇒" d="M44.34,13.21c-0.22,0.91-0.66,1.5-1.26,2c-4.45,3.67-8.2,6.04-14.95,9.17" transform="matrix(1,0,0,1,896,-4)" class="stroke_order_diagram--existing_path"></path><path id="pathSk940yk7k7w4" kvg:type="㇑" d="M24.87,23.75c0.69,0.69,1.12,1.61,1.31,2.63c0.72,3.73,3.49,15.57,4.21,20.61" transform="matrix(1,0,0,1,896,-4)" class="stroke_order_diagram--existing_path"></path><path id="pathSk940yk7k7w5" kvg:type="㇕" d="M57.9,18.95c1.7,0.42,3.41,0.7,5.11,0.35c3.76-0.5,11.13-2.03,14.11-2.56c2.33-0.41,3.79,1.54,3.44,3.75C79.5,27.4,78.19,37.9,77.18,42.8" transform="matrix(1,0,0,1,896,-4)" class="stroke_order_diagram--existing_path"></path><path id="pathSk940yk7k7w6" kvg:type="㇐" d="M29.02,33.63c4.85-1.01,8.1-1.63,11.99-2.36c1.56-0.29,3.14-0.47,4.73-0.53" transform="matrix(1,0,0,1,896,-4)" class="stroke_order_diagram--existing_path"></path><path id="pathSk940yk7k7w7" kvg:type="㇐" d="M57.78,29.54c2.16,0.44,4.29,0.33,6.48,0.04c5.49-0.71,13.19-1.39,14.29-1.47" transform="matrix(1,0,0,1,896,-4)" class="stroke_order_diagram--existing_path"></path><path id="pathSk940yk7k7w8" kvg:type="㇐" d="M31.08,44.57c16.05-2.2,28.8-3.7,46.16-4.84" transform="matrix(1,0,0,1,896,-4)" class="stroke_order_diagram--existing_path"></path><path id="pathSk940yk7k7w9" kvg:type="㇙" d="M26.87,52.76c0.81,0.81,1.03,2.24,1.03,3.49c0,0.85-0.02,27.5-0.02,35.62c0,2.15,0.81,2.76,3.24,0.89c4.39-3.39,9.51-7.39,15.39-11.51" transform="matrix(1,0,0,1,896,-4)" class="stroke_order_diagram--existing_path"></path><path id="pathSk940yk7k7wa" kvg:type="㇔" d="M35.75,52.25c2.56,1.01,6.61,4.17,7.25,5.75" transform="matrix(1,0,0,1,896,-4)" class="stroke_order_diagram--existing_path"></path><path id="pathSk940yk7k7wb" kvg:type="㇔" d="M36.75,68.75c2.56,1.01,6.36,4.42,7,6" transform="matrix(1,0,0,1,896,-4)" class="stroke_order_diagram--existing_path"></path><path id="kvg:09f20-s10" kvg:type="㇙" d="M51.37,48.01c0.94,0.94,1.03,2.24,1.03,3.24c0,0.85-0.02,32.25-0.02,40.62c0,2.96,1.01,3.25,3.53,1.16c4.72-3.91,11.76-9.82,15.1-11.79" transform="matrix(1,0,0,1,896,-4)" class="stroke_order_diagram--current_path"></path><path id="pathSk940yk7k7wd" kvg:type="㇙" d="M51.37,48.01c0.94,0.94,1.03,2.24,1.03,3.24c0,0.85-0.02,32.25-0.02,40.62c0,2.96,1.01,3.25,3.53,1.16c4.72-3.91,11.76-9.82,15.1-11.79" transform="matrix(1,0,0,1,896,-4)" class="stroke_order_diagram--current_path"></path><circle cx="51.37" cy="48.01" r="8" class="stroke_order_diagram--path_start" transform="matrix(1,0,0,1,896,-4)"></circle><line x1="1050" x2="1050" y1="1" y2="99" class="stroke_order_diagram--guide_line"></line><line x1="1099" x2="1099" y1="1" y2="99" class="stroke_order_diagram--bounding_box"></line><path id="pathSk940yk7k7wg" kvg:type="㇒" d="M44.34,13.21c-0.22,0.91-0.66,1.5-1.26,2c-4.45,3.67-8.2,6.04-14.95,9.17" transform="matrix(1,0,0,1,996,-4)" class="stroke_order_diagram--existing_path"></path><path id="pathSk940yk7k7wh" kvg:type="㇑" d="M24.87,23.75c0.69,0.69,1.12,1.61,1.31,2.63c0.72,3.73,3.49,15.57,4.21,20.61" transform="matrix(1,0,0,1,996,-4)" class="stroke_order_diagram--existing_path"></path><path id="pathSk940yk7k7wi" kvg:type="㇕" d="M57.9,18.95c1.7,0.42,3.41,0.7,5.11,0.35c3.76-0.5,11.13-2.03,14.11-2.56c2.33-0.41,3.79,1.54,3.44,3.75C79.5,27.4,78.19,37.9,77.18,42.8" transform="matrix(1,0,0,1,996,-4)" class="stroke_order_diagram--existing_path"></path><path id="pathSk940yk7k7wj" kvg:type="㇐" d="M29.02,33.63c4.85-1.01,8.1-1.63,11.99-2.36c1.56-0.29,3.14-0.47,4.73-0.53" transform="matrix(1,0,0,1,996,-4)" class="stroke_order_diagram--existing_path"></path><path id="pathSk940yk7k7wk" kvg:type="㇐" d="M57.78,29.54c2.16,0.44,4.29,0.33,6.48,0.04c5.49-0.71,13.19-1.39,14.29-1.47" transform="matrix(1,0,0,1,996,-4)" class="stroke_order_diagram--existing_path"></path><path id="pathSk940yk7k7wl" kvg:type="㇐" d="M31.08,44.57c16.05-2.2,28.8-3.7,46.16-4.84" transform="matrix(1,0,0,1,996,-4)" class="stroke_order_diagram--existing_path"></path><path id="pathSk940yk7k7wm" kvg:type="㇙" d="M26.87,52.76c0.81,0.81,1.03,2.24,1.03,3.49c0,0.85-0.02,27.5-0.02,35.62c0,2.15,0.81,2.76,3.24,0.89c4.39-3.39,9.51-7.39,15.39-11.51" transform="matrix(1,0,0,1,996,-4)" class="stroke_order_diagram--existing_path"></path><path id="pathSk940yk7k7wn" kvg:type="㇔" d="M35.75,52.25c2.56,1.01,6.61,4.17,7.25,5.75" transform="matrix(1,0,0,1,996,-4)" class="stroke_order_diagram--existing_path"></path><path id="pathSk940yk7k7wo" kvg:type="㇔" d="M36.75,68.75c2.56,1.01,6.36,4.42,7,6" transform="matrix(1,0,0,1,996,-4)" class="stroke_order_diagram--existing_path"></path><path id="pathSk940yk7k7wp" kvg:type="㇙" d="M51.37,48.01c0.94,0.94,1.03,2.24,1.03,3.24c0,0.85-0.02,32.25-0.02,40.62c0,2.96,1.01,3.25,3.53,1.16c4.72-3.91,11.76-9.82,15.1-11.79" transform="matrix(1,0,0,1,996,-4)" class="stroke_order_diagram--existing_path"></path><path id="kvg:09f20-s11" kvg:type="㇔" d="M59.25,51.75c2.56,1.01,6.61,4.17,7.25,5.75" transform="matrix(1,0,0,1,996,-4)" class="stroke_order_diagram--current_path"></path><path id="pathSk940yk7k7wr" kvg:type="㇔" d="M59.25,51.75c2.56,1.01,6.61,4.17,7.25,5.75" transform="matrix(1,0,0,1,996,-4)" class="stroke_order_diagram--current_path"></path><circle cx="59.25" cy="51.75" r="8" class="stroke_order_diagram--path_start" transform="matrix(1,0,0,1,996,-4)"></circle><line x1="1150" x2="1150" y1="1" y2="99" class="stroke_order_diagram--guide_line"></line><line x1="1199" x2="1199" y1="1" y2="99" class="stroke_order_diagram--bounding_box"></line><path id="pathSk940yk7k7wu" kvg:type="㇒" d="M44.34,13.21c-0.22,0.91-0.66,1.5-1.26,2c-4.45,3.67-8.2,6.04-14.95,9.17" transform="matrix(1,0,0,1,1096,-4)" class="stroke_order_diagram--existing_path"></path><path id="pathSk940yk7k7wv" kvg:type="㇑" d="M24.87,23.75c0.69,0.69,1.12,1.61,1.31,2.63c0.72,3.73,3.49,15.57,4.21,20.61" transform="matrix(1,0,0,1,1096,-4)" class="stroke_order_diagram--existing_path"></path><path id="pathSk940yk7k7ww" kvg:type="㇕" d="M57.9,18.95c1.7,0.42,3.41,0.7,5.11,0.35c3.76-0.5,11.13-2.03,14.11-2.56c2.33-0.41,3.79,1.54,3.44,3.75C79.5,27.4,78.19,37.9,77.18,42.8" transform="matrix(1,0,0,1,1096,-4)" class="stroke_order_diagram--existing_path"></path><path id="pathSk940yk7k7wx" kvg:type="㇐" d="M29.02,33.63c4.85-1.01,8.1-1.63,11.99-2.36c1.56-0.29,3.14-0.47,4.73-0.53" transform="matrix(1,0,0,1,1096,-4)" class="stroke_order_diagram--existing_path"></path><path id="pathSk940yk7k7wy" kvg:type="㇐" d="M57.78,29.54c2.16,0.44,4.29,0.33,6.48,0.04c5.49-0.71,13.19-1.39,14.29-1.47" transform="matrix(1,0,0,1,1096,-4)" class="stroke_order_diagram--existing_path"></path><path id="pathSk940yk7k7wz" kvg:type="㇐" d="M31.08,44.57c16.05-2.2,28.8-3.7,46.16-4.84" transform="matrix(1,0,0,1,1096,-4)" class="stroke_order_diagram--existing_path"></path><path id="pathSk940yk7k7x0" kvg:type="㇙" d="M26.87,52.76c0.81,0.81,1.03,2.24,1.03,3.49c0,0.85-0.02,27.5-0.02,35.62c0,2.15,0.81,2.76,3.24,0.89c4.39-3.39,9.51-7.39,15.39-11.51" transform="matrix(1,0,0,1,1096,-4)" class="stroke_order_diagram--existing_path"></path><path id="pathSk940yk7k7x1" kvg:type="㇔" d="M35.75,52.25c2.56,1.01,6.61,4.17,7.25,5.75" transform="matrix(1,0,0,1,1096,-4)" class="stroke_order_diagram--existing_path"></path><path id="pathSk940yk7k7x2" kvg:type="㇔" d="M36.75,68.75c2.56,1.01,6.36,4.42,7,6" transform="matrix(1,0,0,1,1096,-4)" class="stroke_order_diagram--existing_path"></path><path id="pathSk940yk7k7x3" kvg:type="㇙" d="M51.37,48.01c0.94,0.94,1.03,2.24,1.03,3.24c0,0.85-0.02,32.25-0.02,40.62c0,2.96,1.01,3.25,3.53,1.16c4.72-3.91,11.76-9.82,15.1-11.79" transform="matrix(1,0,0,1,1096,-4)" class="stroke_order_diagram--existing_path"></path><path id="pathSk940yk7k7x4" kvg:type="㇔" d="M59.25,51.75c2.56,1.01,6.61,4.17,7.25,5.75" transform="matrix(1,0,0,1,1096,-4)" class="stroke_order_diagram--existing_path"></path><path id="kvg:09f20-s12" kvg:type="㇔" d="M59.5,67c2.82,1.32,7.04,5.69,7.75,7.75" transform="matrix(1,0,0,1,1096,-4)" class="stroke_order_diagram--current_path"></path><path id="pathSk940yk7k7x6" kvg:type="㇔" d="M59.5,67c2.82,1.32,7.04,5.69,7.75,7.75" transform="matrix(1,0,0,1,1096,-4)" class="stroke_order_diagram--current_path"></path><circle cx="59.5" cy="67" r="8" class="stroke_order_diagram--path_start" transform="matrix(1,0,0,1,1096,-4)"></circle><line x1="1250" x2="1250" y1="1" y2="99" class="stroke_order_diagram--guide_line"></line><line x1="1299" x2="1299" y1="1" y2="99" class="stroke_order_diagram--bounding_box"></line><path id="pathSk940yk7k7x9" kvg:type="㇒" d="M44.34,13.21c-0.22,0.91-0.66,1.5-1.26,2c-4.45,3.67-8.2,6.04-14.95,9.17" transform="matrix(1,0,0,1,1196,-4)" class="stroke_order_diagram--existing_path"></path><path id="pathSk940yk7k7xa" kvg:type="㇑" d="M24.87,23.75c0.69,0.69,1.12,1.61,1.31,2.63c0.72,3.73,3.49,15.57,4.21,20.61" transform="matrix(1,0,0,1,1196,-4)" class="stroke_order_diagram--existing_path"></path><path id="pathSk940yk7k7xb" kvg:type="㇕" d="M57.9,18.95c1.7,0.42,3.41,0.7,5.11,0.35c3.76-0.5,11.13-2.03,14.11-2.56c2.33-0.41,3.79,1.54,3.44,3.75C79.5,27.4,78.19,37.9,77.18,42.8" transform="matrix(1,0,0,1,1196,-4)" class="stroke_order_diagram--existing_path"></path><path id="pathSk940yk7k7xc" kvg:type="㇐" d="M29.02,33.63c4.85-1.01,8.1-1.63,11.99-2.36c1.56-0.29,3.14-0.47,4.73-0.53" transform="matrix(1,0,0,1,1196,-4)" class="stroke_order_diagram--existing_path"></path><path id="pathSk940yk7k7xd" kvg:type="㇐" d="M57.78,29.54c2.16,0.44,4.29,0.33,6.48,0.04c5.49-0.71,13.19-1.39,14.29-1.47" transform="matrix(1,0,0,1,1196,-4)" class="stroke_order_diagram--existing_path"></path><path id="pathSk940yk7k7xe" kvg:type="㇐" d="M31.08,44.57c16.05-2.2,28.8-3.7,46.16-4.84" transform="matrix(1,0,0,1,1196,-4)" class="stroke_order_diagram--existing_path"></path><path id="pathSk940yk7k7xf" kvg:type="㇙" d="M26.87,52.76c0.81,0.81,1.03,2.24,1.03,3.49c0,0.85-0.02,27.5-0.02,35.62c0,2.15,0.81,2.76,3.24,0.89c4.39-3.39,9.51-7.39,15.39-11.51" transform="matrix(1,0,0,1,1196,-4)" class="stroke_order_diagram--existing_path"></path><path id="pathSk940yk7k7xg" kvg:type="㇔" d="M35.75,52.25c2.56,1.01,6.61,4.17,7.25,5.75" transform="matrix(1,0,0,1,1196,-4)" class="stroke_order_diagram--existing_path"></path><path id="pathSk940yk7k7xh" kvg:type="㇔" d="M36.75,68.75c2.56,1.01,6.36,4.42,7,6" transform="matrix(1,0,0,1,1196,-4)" class="stroke_order_diagram--existing_path"></path><path id="pathSk940yk7k7xi" kvg:type="㇙" d="M51.37,48.01c0.94,0.94,1.03,2.24,1.03,3.24c0,0.85-0.02,32.25-0.02,40.62c0,2.96,1.01,3.25,3.53,1.16c4.72-3.91,11.76-9.82,15.1-11.79" transform="matrix(1,0,0,1,1196,-4)" class="stroke_order_diagram--existing_path"></path><path id="pathSk940yk7k7xj" kvg:type="㇔" d="M59.25,51.75c2.56,1.01,6.61,4.17,7.25,5.75" transform="matrix(1,0,0,1,1196,-4)" class="stroke_order_diagram--existing_path"></path><path id="pathSk940yk7k7xk" kvg:type="㇔" d="M59.5,67c2.82,1.32,7.04,5.69,7.75,7.75" transform="matrix(1,0,0,1,1196,-4)" class="stroke_order_diagram--existing_path"></path><path id="kvg:09f20-s13" kvg:type="㇂" d="M73,46.75c0.88,0.88,1.63,2.52,1.75,4.67c0.81,14.84,6.36,34.5,17.98,42.56c5.78,4.01,5.53,1.01,4.59-9" transform="matrix(1,0,0,1,1196,-4)" class="stroke_order_diagram--current_path"></path><path id="pathSk940yk7k7xm" kvg:type="㇂" d="M73,46.75c0.88,0.88,1.63,2.52,1.75,4.67c0.81,14.84,6.36,34.5,17.98,42.56c5.78,4.01,5.53,1.01,4.59-9" transform="matrix(1,0,0,1,1196,-4)" class="stroke_order_diagram--current_path"></path><circle cx="73" cy="46.75" r="8" class="stroke_order_diagram--path_start" transform="matrix(1,0,0,1,1196,-4)"></circle></svg>