<?xml version="1.0" encoding="UTF-8"?>
<!DOCTYPE svg PUBLIC "-//W3C//DTD SVG 1.0//EN" "http://www.w3.org/TR/2001/REC-SVG-20010904/DTD/svg10.dtd" [
<!ATTLIST g
xmlns:kvg CDATA #FIXED "http://kanjivg.tagaini.net"
kvg:element CDATA #IMPLIED
kvg:variant CDATA #IMPLIED
kvg:partial CDATA #IMPLIED
kvg:original CDATA #IMPLIED
kvg:part CDATA #IMPLIED
kvg:number CDATA #IMPLIED
kvg:tradForm CDATA #IMPLIED
kvg:radicalForm CDATA #IMPLIED
kvg:position CDATA #IMPLIED
kvg:radical CDATA #IMPLIED
kvg:phon CDATA #IMPLIED >
<!ATTLIST path
xmlns:kvg CDATA #FIXED "http://kanjivg.tagaini.net"
kvg:type CDATA #IMPLIED >
]><svg style="width: 1400px; height: 100px;" xmlns="http://www.w3.org/2000/svg" xmlns:xlink="http://www.w3.org/1999/xlink"><style>
.stroke_order_diagram--outer_container {
  width: 100%;
  overflow-x: auto;
  overflow-y: hidden;
}

.stroke_order_diagram--guide_line {
  fill: none;
  stroke: #ddd;
  stroke-width: 3;
  stroke-linecap: square;
  stroke-linejoin: square;
  stroke-dasharray:8, 8;
}

.stroke_order_diagram--bounding_box {
  fill: none;
  stroke: #ddd;
  stroke-width: 4;
  stroke-linecap: square;
  stroke-linejoin: square;
}

.stroke_order_diagram--current_path {
  fill: none;
  stroke: #000;
  stroke-width: 6;
  stroke-linecap: round;
  stroke-linejoin: round;
}

.stroke_order_diagram--existing_path {
  fill: none;
  stroke: #aaa;
  stroke-width: 6;
  stroke-linecap: round;
  stroke-linejoin:round;
}

.stroke_order_diagram--path_start {
  fill: rgba(255, 0, 0, 0.7);
  stroke:none
}</style><desc>Created with Snap</desc><defs></defs><line x1="1" x2="1399" y1="1" y2="1" class="stroke_order_diagram--bounding_box"></line><line x1="1" x2="1" y1="1" y2="99" class="stroke_order_diagram--bounding_box"></line><line x1="1" x2="1399" y1="99" y2="99" class="stroke_order_diagram--bounding_box"></line><line x1="0" x2="1400" y1="50" y2="50" class="stroke_order_diagram--guide_line"></line><line x1="50" x2="50" y1="1" y2="99" class="stroke_order_diagram--guide_line"></line><line x1="99" x2="99" y1="1" y2="99" class="stroke_order_diagram--bounding_box"></line><path id="kvg:09f3b-s1" kvg:type="㇒" d="M53.48,8.67c0.2,0.96-0.13,1.62-0.5,2.46c-0.98,2.24-1.73,3.24-3.89,5.82" transform="matrix(1,0,0,1,-4,-4)" class="stroke_order_diagram--current_path"></path><path id="pathSk93xdzq07ya" kvg:type="㇒" d="M53.48,8.67c0.2,0.96-0.13,1.62-0.5,2.46c-0.98,2.24-1.73,3.24-3.89,5.82" transform="matrix(1,0,0,1,-4,-4)" class="stroke_order_diagram--current_path"></path><circle cx="53.48" cy="8.67" r="8" class="stroke_order_diagram--path_start" transform="matrix(1,0,0,1,-4,-4)"></circle><line x1="150" x2="150" y1="1" y2="99" class="stroke_order_diagram--guide_line"></line><line x1="199" x2="199" y1="1" y2="99" class="stroke_order_diagram--bounding_box"></line><path id="pathSk93xdzq07yd" kvg:type="㇒" d="M53.48,8.67c0.2,0.96-0.13,1.62-0.5,2.46c-0.98,2.24-1.73,3.24-3.89,5.82" transform="matrix(1,0,0,1,96,-4)" class="stroke_order_diagram--existing_path"></path><path id="kvg:09f3b-s2" kvg:type="㇑" d="M39.25,18.65c0.8,0.8,1,1.6,1.09,2.78c0.06,0.77,1.2,20.72,1.2,21.1c0,0.39,0.15,1.7,0.3,2.47" transform="matrix(1,0,0,1,96,-4)" class="stroke_order_diagram--current_path"></path><path id="pathSk93xdzq07yf" kvg:type="㇑" d="M39.25,18.65c0.8,0.8,1,1.6,1.09,2.78c0.06,0.77,1.2,20.72,1.2,21.1c0,0.39,0.15,1.7,0.3,2.47" transform="matrix(1,0,0,1,96,-4)" class="stroke_order_diagram--current_path"></path><circle cx="39.25" cy="18.65" r="8" class="stroke_order_diagram--path_start" transform="matrix(1,0,0,1,96,-4)"></circle><line x1="250" x2="250" y1="1" y2="99" class="stroke_order_diagram--guide_line"></line><line x1="299" x2="299" y1="1" y2="99" class="stroke_order_diagram--bounding_box"></line><path id="pathSk93xdzq07yi" kvg:type="㇒" d="M53.48,8.67c0.2,0.96-0.13,1.62-0.5,2.46c-0.98,2.24-1.73,3.24-3.89,5.82" transform="matrix(1,0,0,1,196,-4)" class="stroke_order_diagram--existing_path"></path><path id="pathSk93xdzq07yj" kvg:type="㇑" d="M39.25,18.65c0.8,0.8,1,1.6,1.09,2.78c0.06,0.77,1.2,20.72,1.2,21.1c0,0.39,0.15,1.7,0.3,2.47" transform="matrix(1,0,0,1,196,-4)" class="stroke_order_diagram--existing_path"></path><path id="kvg:09f3b-s3" kvg:type="㇕a" d="M41.08,20.14c2.51-0.1,24.14-2.33,26.43-2.45c1.91-0.1,3.24,1.31,3.25,3.25c0,0.83-1,9.52-1.9,18.8c-0.11,1.15-0.22,2.31-0.33,3.47" transform="matrix(1,0,0,1,196,-4)" class="stroke_order_diagram--current_path"></path><path id="pathSk93xdzq07yl" kvg:type="㇕a" d="M41.08,20.14c2.51-0.1,24.14-2.33,26.43-2.45c1.91-0.1,3.24,1.31,3.25,3.25c0,0.83-1,9.52-1.9,18.8c-0.11,1.15-0.22,2.31-0.33,3.47" transform="matrix(1,0,0,1,196,-4)" class="stroke_order_diagram--current_path"></path><circle cx="41.08" cy="20.14" r="8" class="stroke_order_diagram--path_start" transform="matrix(1,0,0,1,196,-4)"></circle><line x1="350" x2="350" y1="1" y2="99" class="stroke_order_diagram--guide_line"></line><line x1="399" x2="399" y1="1" y2="99" class="stroke_order_diagram--bounding_box"></line><path id="pathSk93xdzq07yo" kvg:type="㇒" d="M53.48,8.67c0.2,0.96-0.13,1.62-0.5,2.46c-0.98,2.24-1.73,3.24-3.89,5.82" transform="matrix(1,0,0,1,296,-4)" class="stroke_order_diagram--existing_path"></path><path id="pathSk93xdzq07yp" kvg:type="㇑" d="M39.25,18.65c0.8,0.8,1,1.6,1.09,2.78c0.06,0.77,1.2,20.72,1.2,21.1c0,0.39,0.15,1.7,0.3,2.47" transform="matrix(1,0,0,1,296,-4)" class="stroke_order_diagram--existing_path"></path><path id="pathSk93xdzq07yq" kvg:type="㇕a" d="M41.08,20.14c2.51-0.1,24.14-2.33,26.43-2.45c1.91-0.1,3.24,1.31,3.25,3.25c0,0.83-1,9.52-1.9,18.8c-0.11,1.15-0.22,2.31-0.33,3.47" transform="matrix(1,0,0,1,296,-4)" class="stroke_order_diagram--existing_path"></path><path id="kvg:09f3b-s4" kvg:type="㇐a" d="M42.29,27.35c5.96-0.48,22.21-1.48,26.61-1.73" transform="matrix(1,0,0,1,296,-4)" class="stroke_order_diagram--current_path"></path><path id="pathSk93xdzq07ys" kvg:type="㇐a" d="M42.29,27.35c5.96-0.48,22.21-1.48,26.61-1.73" transform="matrix(1,0,0,1,296,-4)" class="stroke_order_diagram--current_path"></path><circle cx="42.29" cy="27.35" r="8" class="stroke_order_diagram--path_start" transform="matrix(1,0,0,1,296,-4)"></circle><line x1="450" x2="450" y1="1" y2="99" class="stroke_order_diagram--guide_line"></line><line x1="499" x2="499" y1="1" y2="99" class="stroke_order_diagram--bounding_box"></line><path id="pathSk93xdzq07yv" kvg:type="㇒" d="M53.48,8.67c0.2,0.96-0.13,1.62-0.5,2.46c-0.98,2.24-1.73,3.24-3.89,5.82" transform="matrix(1,0,0,1,396,-4)" class="stroke_order_diagram--existing_path"></path><path id="pathSk93xdzq07yw" kvg:type="㇑" d="M39.25,18.65c0.8,0.8,1,1.6,1.09,2.78c0.06,0.77,1.2,20.72,1.2,21.1c0,0.39,0.15,1.7,0.3,2.47" transform="matrix(1,0,0,1,396,-4)" class="stroke_order_diagram--existing_path"></path><path id="pathSk93xdzq07yx" kvg:type="㇕a" d="M41.08,20.14c2.51-0.1,24.14-2.33,26.43-2.45c1.91-0.1,3.24,1.31,3.25,3.25c0,0.83-1,9.52-1.9,18.8c-0.11,1.15-0.22,2.31-0.33,3.47" transform="matrix(1,0,0,1,396,-4)" class="stroke_order_diagram--existing_path"></path><path id="pathSk93xdzq07yy" kvg:type="㇐a" d="M42.29,27.35c5.96-0.48,22.21-1.48,26.61-1.73" transform="matrix(1,0,0,1,396,-4)" class="stroke_order_diagram--existing_path"></path><path id="kvg:09f3b-s5" kvg:type="㇐a" d="M42.24,35.13c6.65-0.32,19.65-1.66,26.1-1.66" transform="matrix(1,0,0,1,396,-4)" class="stroke_order_diagram--current_path"></path><path id="pathSk93xdzq07z0" kvg:type="㇐a" d="M42.24,35.13c6.65-0.32,19.65-1.66,26.1-1.66" transform="matrix(1,0,0,1,396,-4)" class="stroke_order_diagram--current_path"></path><circle cx="42.24" cy="35.13" r="8" class="stroke_order_diagram--path_start" transform="matrix(1,0,0,1,396,-4)"></circle><line x1="550" x2="550" y1="1" y2="99" class="stroke_order_diagram--guide_line"></line><line x1="599" x2="599" y1="1" y2="99" class="stroke_order_diagram--bounding_box"></line><path id="pathSk93xdzq07z3" kvg:type="㇒" d="M53.48,8.67c0.2,0.96-0.13,1.62-0.5,2.46c-0.98,2.24-1.73,3.24-3.89,5.82" transform="matrix(1,0,0,1,496,-4)" class="stroke_order_diagram--existing_path"></path><path id="pathSk93xdzq07z4" kvg:type="㇑" d="M39.25,18.65c0.8,0.8,1,1.6,1.09,2.78c0.06,0.77,1.2,20.72,1.2,21.1c0,0.39,0.15,1.7,0.3,2.47" transform="matrix(1,0,0,1,496,-4)" class="stroke_order_diagram--existing_path"></path><path id="pathSk93xdzq07z5" kvg:type="㇕a" d="M41.08,20.14c2.51-0.1,24.14-2.33,26.43-2.45c1.91-0.1,3.24,1.31,3.25,3.25c0,0.83-1,9.52-1.9,18.8c-0.11,1.15-0.22,2.31-0.33,3.47" transform="matrix(1,0,0,1,496,-4)" class="stroke_order_diagram--existing_path"></path><path id="pathSk93xdzq07z6" kvg:type="㇐a" d="M42.29,27.35c5.96-0.48,22.21-1.48,26.61-1.73" transform="matrix(1,0,0,1,496,-4)" class="stroke_order_diagram--existing_path"></path><path id="pathSk93xdzq07z7" kvg:type="㇐a" d="M42.24,35.13c6.65-0.32,19.65-1.66,26.1-1.66" transform="matrix(1,0,0,1,496,-4)" class="stroke_order_diagram--existing_path"></path><path id="kvg:09f3b-s6" kvg:type="㇐a" d="M42.73,43.01c6.52-0.26,18.36-1.36,24.82-1.36" transform="matrix(1,0,0,1,496,-4)" class="stroke_order_diagram--current_path"></path><path id="pathSk93xdzq07z9" kvg:type="㇐a" d="M42.73,43.01c6.52-0.26,18.36-1.36,24.82-1.36" transform="matrix(1,0,0,1,496,-4)" class="stroke_order_diagram--current_path"></path><circle cx="42.73" cy="43.01" r="8" class="stroke_order_diagram--path_start" transform="matrix(1,0,0,1,496,-4)"></circle><line x1="650" x2="650" y1="1" y2="99" class="stroke_order_diagram--guide_line"></line><line x1="699" x2="699" y1="1" y2="99" class="stroke_order_diagram--bounding_box"></line><path id="pathSk93xdzq07zc" kvg:type="㇒" d="M53.48,8.67c0.2,0.96-0.13,1.62-0.5,2.46c-0.98,2.24-1.73,3.24-3.89,5.82" transform="matrix(1,0,0,1,596,-4)" class="stroke_order_diagram--existing_path"></path><path id="pathSk93xdzq07zd" kvg:type="㇑" d="M39.25,18.65c0.8,0.8,1,1.6,1.09,2.78c0.06,0.77,1.2,20.72,1.2,21.1c0,0.39,0.15,1.7,0.3,2.47" transform="matrix(1,0,0,1,596,-4)" class="stroke_order_diagram--existing_path"></path><path id="pathSk93xdzq07ze" kvg:type="㇕a" d="M41.08,20.14c2.51-0.1,24.14-2.33,26.43-2.45c1.91-0.1,3.24,1.31,3.25,3.25c0,0.83-1,9.52-1.9,18.8c-0.11,1.15-0.22,2.31-0.33,3.47" transform="matrix(1,0,0,1,596,-4)" class="stroke_order_diagram--existing_path"></path><path id="pathSk93xdzq07zf" kvg:type="㇐a" d="M42.29,27.35c5.96-0.48,22.21-1.48,26.61-1.73" transform="matrix(1,0,0,1,596,-4)" class="stroke_order_diagram--existing_path"></path><path id="pathSk93xdzq07zg" kvg:type="㇐a" d="M42.24,35.13c6.65-0.32,19.65-1.66,26.1-1.66" transform="matrix(1,0,0,1,596,-4)" class="stroke_order_diagram--existing_path"></path><path id="pathSk93xdzq07zh" kvg:type="㇐a" d="M42.73,43.01c6.52-0.26,18.36-1.36,24.82-1.36" transform="matrix(1,0,0,1,596,-4)" class="stroke_order_diagram--existing_path"></path><path id="kvg:09f3b-s7" kvg:type="㇑" d="M31.74,50.9c0.68,0.68,1.13,1.47,1.28,2.14c0.8,3.7,1.5,8.38,2.49,13.83c0.16,0.91,0.34,1.83,0.52,2.78" transform="matrix(1,0,0,1,596,-4)" class="stroke_order_diagram--current_path"></path><path id="pathSk93xdzq07zj" kvg:type="㇑" d="M31.74,50.9c0.68,0.68,1.13,1.47,1.28,2.14c0.8,3.7,1.5,8.38,2.49,13.83c0.16,0.91,0.34,1.83,0.52,2.78" transform="matrix(1,0,0,1,596,-4)" class="stroke_order_diagram--current_path"></path><circle cx="31.74" cy="50.9" r="8" class="stroke_order_diagram--path_start" transform="matrix(1,0,0,1,596,-4)"></circle><line x1="750" x2="750" y1="1" y2="99" class="stroke_order_diagram--guide_line"></line><line x1="799" x2="799" y1="1" y2="99" class="stroke_order_diagram--bounding_box"></line><path id="pathSk93xdzq07zm" kvg:type="㇒" d="M53.48,8.67c0.2,0.96-0.13,1.62-0.5,2.46c-0.98,2.24-1.73,3.24-3.89,5.82" transform="matrix(1,0,0,1,696,-4)" class="stroke_order_diagram--existing_path"></path><path id="pathSk93xdzq07zn" kvg:type="㇑" d="M39.25,18.65c0.8,0.8,1,1.6,1.09,2.78c0.06,0.77,1.2,20.72,1.2,21.1c0,0.39,0.15,1.7,0.3,2.47" transform="matrix(1,0,0,1,696,-4)" class="stroke_order_diagram--existing_path"></path><path id="pathSk93xdzq07zo" kvg:type="㇕a" d="M41.08,20.14c2.51-0.1,24.14-2.33,26.43-2.45c1.91-0.1,3.24,1.31,3.25,3.25c0,0.83-1,9.52-1.9,18.8c-0.11,1.15-0.22,2.31-0.33,3.47" transform="matrix(1,0,0,1,696,-4)" class="stroke_order_diagram--existing_path"></path><path id="pathSk93xdzq07zp" kvg:type="㇐a" d="M42.29,27.35c5.96-0.48,22.21-1.48,26.61-1.73" transform="matrix(1,0,0,1,696,-4)" class="stroke_order_diagram--existing_path"></path><path id="pathSk93xdzq07zq" kvg:type="㇐a" d="M42.24,35.13c6.65-0.32,19.65-1.66,26.1-1.66" transform="matrix(1,0,0,1,696,-4)" class="stroke_order_diagram--existing_path"></path><path id="pathSk93xdzq07zr" kvg:type="㇐a" d="M42.73,43.01c6.52-0.26,18.36-1.36,24.82-1.36" transform="matrix(1,0,0,1,696,-4)" class="stroke_order_diagram--existing_path"></path><path id="pathSk93xdzq07zs" kvg:type="㇑" d="M31.74,50.9c0.68,0.68,1.13,1.47,1.28,2.14c0.8,3.7,1.5,8.38,2.49,13.83c0.16,0.91,0.34,1.83,0.52,2.78" transform="matrix(1,0,0,1,696,-4)" class="stroke_order_diagram--existing_path"></path><path id="kvg:09f3b-s8" kvg:type="㇕a" d="M33.83,52.08c13.42-1.2,32-2.59,40.87-3.24c3.26-0.24,4.55,1.41,4.05,4.41c-0.45,2.7-1.95,7.33-3.17,11.74c-0.21,0.76-0.42,1.52-0.6,2.26" transform="matrix(1,0,0,1,696,-4)" class="stroke_order_diagram--current_path"></path><path id="pathSk93xdzq07zu" kvg:type="㇕a" d="M33.83,52.08c13.42-1.2,32-2.59,40.87-3.24c3.26-0.24,4.55,1.41,4.05,4.41c-0.45,2.7-1.95,7.33-3.17,11.74c-0.21,0.76-0.42,1.52-0.6,2.26" transform="matrix(1,0,0,1,696,-4)" class="stroke_order_diagram--current_path"></path><circle cx="33.83" cy="52.08" r="8" class="stroke_order_diagram--path_start" transform="matrix(1,0,0,1,696,-4)"></circle><line x1="850" x2="850" y1="1" y2="99" class="stroke_order_diagram--guide_line"></line><line x1="899" x2="899" y1="1" y2="99" class="stroke_order_diagram--bounding_box"></line><path id="pathSk93xdzq07zx" kvg:type="㇒" d="M53.48,8.67c0.2,0.96-0.13,1.62-0.5,2.46c-0.98,2.24-1.73,3.24-3.89,5.82" transform="matrix(1,0,0,1,796,-4)" class="stroke_order_diagram--existing_path"></path><path id="pathSk93xdzq07zy" kvg:type="㇑" d="M39.25,18.65c0.8,0.8,1,1.6,1.09,2.78c0.06,0.77,1.2,20.72,1.2,21.1c0,0.39,0.15,1.7,0.3,2.47" transform="matrix(1,0,0,1,796,-4)" class="stroke_order_diagram--existing_path"></path><path id="pathSk93xdzq07zz" kvg:type="㇕a" d="M41.08,20.14c2.51-0.1,24.14-2.33,26.43-2.45c1.91-0.1,3.24,1.31,3.25,3.25c0,0.83-1,9.52-1.9,18.8c-0.11,1.15-0.22,2.31-0.33,3.47" transform="matrix(1,0,0,1,796,-4)" class="stroke_order_diagram--existing_path"></path><path id="pathSk93xdzq0800" kvg:type="㇐a" d="M42.29,27.35c5.96-0.48,22.21-1.48,26.61-1.73" transform="matrix(1,0,0,1,796,-4)" class="stroke_order_diagram--existing_path"></path><path id="pathSk93xdzq0801" kvg:type="㇐a" d="M42.24,35.13c6.65-0.32,19.65-1.66,26.1-1.66" transform="matrix(1,0,0,1,796,-4)" class="stroke_order_diagram--existing_path"></path><path id="pathSk93xdzq0802" kvg:type="㇐a" d="M42.73,43.01c6.52-0.26,18.36-1.36,24.82-1.36" transform="matrix(1,0,0,1,796,-4)" class="stroke_order_diagram--existing_path"></path><path id="pathSk93xdzq0803" kvg:type="㇑" d="M31.74,50.9c0.68,0.68,1.13,1.47,1.28,2.14c0.8,3.7,1.5,8.38,2.49,13.83c0.16,0.91,0.34,1.83,0.52,2.78" transform="matrix(1,0,0,1,796,-4)" class="stroke_order_diagram--existing_path"></path><path id="pathSk93xdzq0804" kvg:type="㇕a" d="M33.83,52.08c13.42-1.2,32-2.59,40.87-3.24c3.26-0.24,4.55,1.41,4.05,4.41c-0.45,2.7-1.95,7.33-3.17,11.74c-0.21,0.76-0.42,1.52-0.6,2.26" transform="matrix(1,0,0,1,796,-4)" class="stroke_order_diagram--existing_path"></path><path id="kvg:09f3b-s9" kvg:type="㇑a" d="M53.4,51.64c0.48,0.49,0.75,1.01,0.75,1.74c-0.01,4.19-0.04,11.68-0.04,13" transform="matrix(1,0,0,1,796,-4)" class="stroke_order_diagram--current_path"></path><path id="pathSk93xdzq0806" kvg:type="㇑a" d="M53.4,51.64c0.48,0.49,0.75,1.01,0.75,1.74c-0.01,4.19-0.04,11.68-0.04,13" transform="matrix(1,0,0,1,796,-4)" class="stroke_order_diagram--current_path"></path><circle cx="53.4" cy="51.64" r="8" class="stroke_order_diagram--path_start" transform="matrix(1,0,0,1,796,-4)"></circle><line x1="950" x2="950" y1="1" y2="99" class="stroke_order_diagram--guide_line"></line><line x1="999" x2="999" y1="1" y2="99" class="stroke_order_diagram--bounding_box"></line><path id="pathSk93xdzq0809" kvg:type="㇒" d="M53.48,8.67c0.2,0.96-0.13,1.62-0.5,2.46c-0.98,2.24-1.73,3.24-3.89,5.82" transform="matrix(1,0,0,1,896,-4)" class="stroke_order_diagram--existing_path"></path><path id="pathSk93xdzq080a" kvg:type="㇑" d="M39.25,18.65c0.8,0.8,1,1.6,1.09,2.78c0.06,0.77,1.2,20.72,1.2,21.1c0,0.39,0.15,1.7,0.3,2.47" transform="matrix(1,0,0,1,896,-4)" class="stroke_order_diagram--existing_path"></path><path id="pathSk93xdzq080b" kvg:type="㇕a" d="M41.08,20.14c2.51-0.1,24.14-2.33,26.43-2.45c1.91-0.1,3.24,1.31,3.25,3.25c0,0.83-1,9.52-1.9,18.8c-0.11,1.15-0.22,2.31-0.33,3.47" transform="matrix(1,0,0,1,896,-4)" class="stroke_order_diagram--existing_path"></path><path id="pathSk93xdzq080c" kvg:type="㇐a" d="M42.29,27.35c5.96-0.48,22.21-1.48,26.61-1.73" transform="matrix(1,0,0,1,896,-4)" class="stroke_order_diagram--existing_path"></path><path id="pathSk93xdzq080d" kvg:type="㇐a" d="M42.24,35.13c6.65-0.32,19.65-1.66,26.1-1.66" transform="matrix(1,0,0,1,896,-4)" class="stroke_order_diagram--existing_path"></path><path id="pathSk93xdzq080e" kvg:type="㇐a" d="M42.73,43.01c6.52-0.26,18.36-1.36,24.82-1.36" transform="matrix(1,0,0,1,896,-4)" class="stroke_order_diagram--existing_path"></path><path id="pathSk93xdzq080f" kvg:type="㇑" d="M31.74,50.9c0.68,0.68,1.13,1.47,1.28,2.14c0.8,3.7,1.5,8.38,2.49,13.83c0.16,0.91,0.34,1.83,0.52,2.78" transform="matrix(1,0,0,1,896,-4)" class="stroke_order_diagram--existing_path"></path><path id="pathSk93xdzq080g" kvg:type="㇕a" d="M33.83,52.08c13.42-1.2,32-2.59,40.87-3.24c3.26-0.24,4.55,1.41,4.05,4.41c-0.45,2.7-1.95,7.33-3.17,11.74c-0.21,0.76-0.42,1.52-0.6,2.26" transform="matrix(1,0,0,1,896,-4)" class="stroke_order_diagram--existing_path"></path><path id="pathSk93xdzq080h" kvg:type="㇑a" d="M53.4,51.64c0.48,0.49,0.75,1.01,0.75,1.74c-0.01,4.19-0.04,11.68-0.04,13" transform="matrix(1,0,0,1,896,-4)" class="stroke_order_diagram--existing_path"></path><path id="kvg:09f3b-s10" kvg:type="㇐a" d="M35.72,59.66c3.87-0.3,37.37-2.52,40.57-2.64" transform="matrix(1,0,0,1,896,-4)" class="stroke_order_diagram--current_path"></path><path id="pathSk93xdzq080j" kvg:type="㇐a" d="M35.72,59.66c3.87-0.3,37.37-2.52,40.57-2.64" transform="matrix(1,0,0,1,896,-4)" class="stroke_order_diagram--current_path"></path><circle cx="35.72" cy="59.66" r="8" class="stroke_order_diagram--path_start" transform="matrix(1,0,0,1,896,-4)"></circle><line x1="1050" x2="1050" y1="1" y2="99" class="stroke_order_diagram--guide_line"></line><line x1="1099" x2="1099" y1="1" y2="99" class="stroke_order_diagram--bounding_box"></line><path id="pathSk93xdzq080m" kvg:type="㇒" d="M53.48,8.67c0.2,0.96-0.13,1.62-0.5,2.46c-0.98,2.24-1.73,3.24-3.89,5.82" transform="matrix(1,0,0,1,996,-4)" class="stroke_order_diagram--existing_path"></path><path id="pathSk93xdzq080n" kvg:type="㇑" d="M39.25,18.65c0.8,0.8,1,1.6,1.09,2.78c0.06,0.77,1.2,20.72,1.2,21.1c0,0.39,0.15,1.7,0.3,2.47" transform="matrix(1,0,0,1,996,-4)" class="stroke_order_diagram--existing_path"></path><path id="pathSk93xdzq080o" kvg:type="㇕a" d="M41.08,20.14c2.51-0.1,24.14-2.33,26.43-2.45c1.91-0.1,3.24,1.31,3.25,3.25c0,0.83-1,9.52-1.9,18.8c-0.11,1.15-0.22,2.31-0.33,3.47" transform="matrix(1,0,0,1,996,-4)" class="stroke_order_diagram--existing_path"></path><path id="pathSk93xdzq080p" kvg:type="㇐a" d="M42.29,27.35c5.96-0.48,22.21-1.48,26.61-1.73" transform="matrix(1,0,0,1,996,-4)" class="stroke_order_diagram--existing_path"></path><path id="pathSk93xdzq080q" kvg:type="㇐a" d="M42.24,35.13c6.65-0.32,19.65-1.66,26.1-1.66" transform="matrix(1,0,0,1,996,-4)" class="stroke_order_diagram--existing_path"></path><path id="pathSk93xdzq080r" kvg:type="㇐a" d="M42.73,43.01c6.52-0.26,18.36-1.36,24.82-1.36" transform="matrix(1,0,0,1,996,-4)" class="stroke_order_diagram--existing_path"></path><path id="pathSk93xdzq080s" kvg:type="㇑" d="M31.74,50.9c0.68,0.68,1.13,1.47,1.28,2.14c0.8,3.7,1.5,8.38,2.49,13.83c0.16,0.91,0.34,1.83,0.52,2.78" transform="matrix(1,0,0,1,996,-4)" class="stroke_order_diagram--existing_path"></path><path id="pathSk93xdzq080t" kvg:type="㇕a" d="M33.83,52.08c13.42-1.2,32-2.59,40.87-3.24c3.26-0.24,4.55,1.41,4.05,4.41c-0.45,2.7-1.95,7.33-3.17,11.74c-0.21,0.76-0.42,1.52-0.6,2.26" transform="matrix(1,0,0,1,996,-4)" class="stroke_order_diagram--existing_path"></path><path id="pathSk93xdzq080u" kvg:type="㇑a" d="M53.4,51.64c0.48,0.49,0.75,1.01,0.75,1.74c-0.01,4.19-0.04,11.68-0.04,13" transform="matrix(1,0,0,1,996,-4)" class="stroke_order_diagram--existing_path"></path><path id="pathSk93xdzq080v" kvg:type="㇐a" d="M35.72,59.66c3.87-0.3,37.37-2.52,40.57-2.64" transform="matrix(1,0,0,1,996,-4)" class="stroke_order_diagram--existing_path"></path><path id="kvg:09f3b-s11" kvg:type="㇐a" d="M36.9,68.55c9.85-0.8,25.37-1.77,37.17-2.31" transform="matrix(1,0,0,1,996,-4)" class="stroke_order_diagram--current_path"></path><path id="pathSk93xdzq080x" kvg:type="㇐a" d="M36.9,68.55c9.85-0.8,25.37-1.77,37.17-2.31" transform="matrix(1,0,0,1,996,-4)" class="stroke_order_diagram--current_path"></path><circle cx="36.9" cy="68.55" r="8" class="stroke_order_diagram--path_start" transform="matrix(1,0,0,1,996,-4)"></circle><line x1="1150" x2="1150" y1="1" y2="99" class="stroke_order_diagram--guide_line"></line><line x1="1199" x2="1199" y1="1" y2="99" class="stroke_order_diagram--bounding_box"></line><path id="pathSk93xdzq0810" kvg:type="㇒" d="M53.48,8.67c0.2,0.96-0.13,1.62-0.5,2.46c-0.98,2.24-1.73,3.24-3.89,5.82" transform="matrix(1,0,0,1,1096,-4)" class="stroke_order_diagram--existing_path"></path><path id="pathSk93xdzq0811" kvg:type="㇑" d="M39.25,18.65c0.8,0.8,1,1.6,1.09,2.78c0.06,0.77,1.2,20.72,1.2,21.1c0,0.39,0.15,1.7,0.3,2.47" transform="matrix(1,0,0,1,1096,-4)" class="stroke_order_diagram--existing_path"></path><path id="pathSk93xdzq0812" kvg:type="㇕a" d="M41.08,20.14c2.51-0.1,24.14-2.33,26.43-2.45c1.91-0.1,3.24,1.31,3.25,3.25c0,0.83-1,9.52-1.9,18.8c-0.11,1.15-0.22,2.31-0.33,3.47" transform="matrix(1,0,0,1,1096,-4)" class="stroke_order_diagram--existing_path"></path><path id="pathSk93xdzq0813" kvg:type="㇐a" d="M42.29,27.35c5.96-0.48,22.21-1.48,26.61-1.73" transform="matrix(1,0,0,1,1096,-4)" class="stroke_order_diagram--existing_path"></path><path id="pathSk93xdzq0814" kvg:type="㇐a" d="M42.24,35.13c6.65-0.32,19.65-1.66,26.1-1.66" transform="matrix(1,0,0,1,1096,-4)" class="stroke_order_diagram--existing_path"></path><path id="pathSk93xdzq0815" kvg:type="㇐a" d="M42.73,43.01c6.52-0.26,18.36-1.36,24.82-1.36" transform="matrix(1,0,0,1,1096,-4)" class="stroke_order_diagram--existing_path"></path><path id="pathSk93xdzq0816" kvg:type="㇑" d="M31.74,50.9c0.68,0.68,1.13,1.47,1.28,2.14c0.8,3.7,1.5,8.38,2.49,13.83c0.16,0.91,0.34,1.83,0.52,2.78" transform="matrix(1,0,0,1,1096,-4)" class="stroke_order_diagram--existing_path"></path><path id="pathSk93xdzq0817" kvg:type="㇕a" d="M33.83,52.08c13.42-1.2,32-2.59,40.87-3.24c3.26-0.24,4.55,1.41,4.05,4.41c-0.45,2.7-1.95,7.33-3.17,11.74c-0.21,0.76-0.42,1.52-0.6,2.26" transform="matrix(1,0,0,1,1096,-4)" class="stroke_order_diagram--existing_path"></path><path id="pathSk93xdzq0818" kvg:type="㇑a" d="M53.4,51.64c0.48,0.49,0.75,1.01,0.75,1.74c-0.01,4.19-0.04,11.68-0.04,13" transform="matrix(1,0,0,1,1096,-4)" class="stroke_order_diagram--existing_path"></path><path id="pathSk93xdzq0819" kvg:type="㇐a" d="M35.72,59.66c3.87-0.3,37.37-2.52,40.57-2.64" transform="matrix(1,0,0,1,1096,-4)" class="stroke_order_diagram--existing_path"></path><path id="pathSk93xdzq081a" kvg:type="㇐a" d="M36.9,68.55c9.85-0.8,25.37-1.77,37.17-2.31" transform="matrix(1,0,0,1,1096,-4)" class="stroke_order_diagram--existing_path"></path><path id="kvg:09f3b-s12" kvg:type="㇐" d="M15.63,81.24c2.33,0.64,6.62,0.86,8.95,0.64c18.92-1.79,44.25-3.51,61.26-4.21c3.88-0.16,6.22,0.01,8.17,0.33" transform="matrix(1,0,0,1,1096,-4)" class="stroke_order_diagram--current_path"></path><path id="pathSk93xdzq081c" kvg:type="㇐" d="M15.63,81.24c2.33,0.64,6.62,0.86,8.95,0.64c18.92-1.79,44.25-3.51,61.26-4.21c3.88-0.16,6.22,0.01,8.17,0.33" transform="matrix(1,0,0,1,1096,-4)" class="stroke_order_diagram--current_path"></path><circle cx="15.63" cy="81.24" r="8" class="stroke_order_diagram--path_start" transform="matrix(1,0,0,1,1096,-4)"></circle><line x1="1250" x2="1250" y1="1" y2="99" class="stroke_order_diagram--guide_line"></line><line x1="1299" x2="1299" y1="1" y2="99" class="stroke_order_diagram--bounding_box"></line><path id="pathSk93xdzq081f" kvg:type="㇒" d="M53.48,8.67c0.2,0.96-0.13,1.62-0.5,2.46c-0.98,2.24-1.73,3.24-3.89,5.82" transform="matrix(1,0,0,1,1196,-4)" class="stroke_order_diagram--existing_path"></path><path id="pathSk93xdzq081g" kvg:type="㇑" d="M39.25,18.65c0.8,0.8,1,1.6,1.09,2.78c0.06,0.77,1.2,20.72,1.2,21.1c0,0.39,0.15,1.7,0.3,2.47" transform="matrix(1,0,0,1,1196,-4)" class="stroke_order_diagram--existing_path"></path><path id="pathSk93xdzq081h" kvg:type="㇕a" d="M41.08,20.14c2.51-0.1,24.14-2.33,26.43-2.45c1.91-0.1,3.24,1.31,3.25,3.25c0,0.83-1,9.52-1.9,18.8c-0.11,1.15-0.22,2.31-0.33,3.47" transform="matrix(1,0,0,1,1196,-4)" class="stroke_order_diagram--existing_path"></path><path id="pathSk93xdzq081i" kvg:type="㇐a" d="M42.29,27.35c5.96-0.48,22.21-1.48,26.61-1.73" transform="matrix(1,0,0,1,1196,-4)" class="stroke_order_diagram--existing_path"></path><path id="pathSk93xdzq081j" kvg:type="㇐a" d="M42.24,35.13c6.65-0.32,19.65-1.66,26.1-1.66" transform="matrix(1,0,0,1,1196,-4)" class="stroke_order_diagram--existing_path"></path><path id="pathSk93xdzq081k" kvg:type="㇐a" d="M42.73,43.01c6.52-0.26,18.36-1.36,24.82-1.36" transform="matrix(1,0,0,1,1196,-4)" class="stroke_order_diagram--existing_path"></path><path id="pathSk93xdzq081l" kvg:type="㇑" d="M31.74,50.9c0.68,0.68,1.13,1.47,1.28,2.14c0.8,3.7,1.5,8.38,2.49,13.83c0.16,0.91,0.34,1.83,0.52,2.78" transform="matrix(1,0,0,1,1196,-4)" class="stroke_order_diagram--existing_path"></path><path id="pathSk93xdzq081m" kvg:type="㇕a" d="M33.83,52.08c13.42-1.2,32-2.59,40.87-3.24c3.26-0.24,4.55,1.41,4.05,4.41c-0.45,2.7-1.95,7.33-3.17,11.74c-0.21,0.76-0.42,1.52-0.6,2.26" transform="matrix(1,0,0,1,1196,-4)" class="stroke_order_diagram--existing_path"></path><path id="pathSk93xdzq081n" kvg:type="㇑a" d="M53.4,51.64c0.48,0.49,0.75,1.01,0.75,1.74c-0.01,4.19-0.04,11.68-0.04,13" transform="matrix(1,0,0,1,1196,-4)" class="stroke_order_diagram--existing_path"></path><path id="pathSk93xdzq081o" kvg:type="㇐a" d="M35.72,59.66c3.87-0.3,37.37-2.52,40.57-2.64" transform="matrix(1,0,0,1,1196,-4)" class="stroke_order_diagram--existing_path"></path><path id="pathSk93xdzq081p" kvg:type="㇐a" d="M36.9,68.55c9.85-0.8,25.37-1.77,37.17-2.31" transform="matrix(1,0,0,1,1196,-4)" class="stroke_order_diagram--existing_path"></path><path id="pathSk93xdzq081q" kvg:type="㇐" d="M15.63,81.24c2.33,0.64,6.62,0.86,8.95,0.64c18.92-1.79,44.25-3.51,61.26-4.21c3.88-0.16,6.22,0.01,8.17,0.33" transform="matrix(1,0,0,1,1196,-4)" class="stroke_order_diagram--existing_path"></path><path id="kvg:09f3b-s13" kvg:type="㇒" d="M44.5,71.25c0.75,1,0.72,1.91,0.72,2.92C45.22,85.5,42.5,94.75,31,100" transform="matrix(1,0,0,1,1196,-4)" class="stroke_order_diagram--current_path"></path><path id="pathSk93xdzq081s" kvg:type="㇒" d="M44.5,71.25c0.75,1,0.72,1.91,0.72,2.92C45.22,85.5,42.5,94.75,31,100" transform="matrix(1,0,0,1,1196,-4)" class="stroke_order_diagram--current_path"></path><circle cx="44.5" cy="71.25" r="8" class="stroke_order_diagram--path_start" transform="matrix(1,0,0,1,1196,-4)"></circle><line x1="1350" x2="1350" y1="1" y2="99" class="stroke_order_diagram--guide_line"></line><line x1="1399" x2="1399" y1="1" y2="99" class="stroke_order_diagram--bounding_box"></line><path id="pathSk93xdzq081v" kvg:type="㇒" d="M53.48,8.67c0.2,0.96-0.13,1.62-0.5,2.46c-0.98,2.24-1.73,3.24-3.89,5.82" transform="matrix(1,0,0,1,1296,-4)" class="stroke_order_diagram--existing_path"></path><path id="pathSk93xdzq081w" kvg:type="㇑" d="M39.25,18.65c0.8,0.8,1,1.6,1.09,2.78c0.06,0.77,1.2,20.72,1.2,21.1c0,0.39,0.15,1.7,0.3,2.47" transform="matrix(1,0,0,1,1296,-4)" class="stroke_order_diagram--existing_path"></path><path id="pathSk93xdzq081x" kvg:type="㇕a" d="M41.08,20.14c2.51-0.1,24.14-2.33,26.43-2.45c1.91-0.1,3.24,1.31,3.25,3.25c0,0.83-1,9.52-1.9,18.8c-0.11,1.15-0.22,2.31-0.33,3.47" transform="matrix(1,0,0,1,1296,-4)" class="stroke_order_diagram--existing_path"></path><path id="pathSk93xdzq081y" kvg:type="㇐a" d="M42.29,27.35c5.96-0.48,22.21-1.48,26.61-1.73" transform="matrix(1,0,0,1,1296,-4)" class="stroke_order_diagram--existing_path"></path><path id="pathSk93xdzq081z" kvg:type="㇐a" d="M42.24,35.13c6.65-0.32,19.65-1.66,26.1-1.66" transform="matrix(1,0,0,1,1296,-4)" class="stroke_order_diagram--existing_path"></path><path id="pathSk93xdzq0820" kvg:type="㇐a" d="M42.73,43.01c6.52-0.26,18.36-1.36,24.82-1.36" transform="matrix(1,0,0,1,1296,-4)" class="stroke_order_diagram--existing_path"></path><path id="pathSk93xdzq0821" kvg:type="㇑" d="M31.74,50.9c0.68,0.68,1.13,1.47,1.28,2.14c0.8,3.7,1.5,8.38,2.49,13.83c0.16,0.91,0.34,1.83,0.52,2.78" transform="matrix(1,0,0,1,1296,-4)" class="stroke_order_diagram--existing_path"></path><path id="pathSk93xdzq0822" kvg:type="㇕a" d="M33.83,52.08c13.42-1.2,32-2.59,40.87-3.24c3.26-0.24,4.55,1.41,4.05,4.41c-0.45,2.7-1.95,7.33-3.17,11.74c-0.21,0.76-0.42,1.52-0.6,2.26" transform="matrix(1,0,0,1,1296,-4)" class="stroke_order_diagram--existing_path"></path><path id="pathSk93xdzq0823" kvg:type="㇑a" d="M53.4,51.64c0.48,0.49,0.75,1.01,0.75,1.74c-0.01,4.19-0.04,11.68-0.04,13" transform="matrix(1,0,0,1,1296,-4)" class="stroke_order_diagram--existing_path"></path><path id="pathSk93xdzq0824" kvg:type="㇐a" d="M35.72,59.66c3.87-0.3,37.37-2.52,40.57-2.64" transform="matrix(1,0,0,1,1296,-4)" class="stroke_order_diagram--existing_path"></path><path id="pathSk93xdzq0825" kvg:type="㇐a" d="M36.9,68.55c9.85-0.8,25.37-1.77,37.17-2.31" transform="matrix(1,0,0,1,1296,-4)" class="stroke_order_diagram--existing_path"></path><path id="pathSk93xdzq0826" kvg:type="㇐" d="M15.63,81.24c2.33,0.64,6.62,0.86,8.95,0.64c18.92-1.79,44.25-3.51,61.26-4.21c3.88-0.16,6.22,0.01,8.17,0.33" transform="matrix(1,0,0,1,1296,-4)" class="stroke_order_diagram--existing_path"></path><path id="pathSk93xdzq0827" kvg:type="㇒" d="M44.5,71.25c0.75,1,0.72,1.91,0.72,2.92C45.22,85.5,42.5,94.75,31,100" transform="matrix(1,0,0,1,1296,-4)" class="stroke_order_diagram--existing_path"></path><path id="kvg:09f3b-s14" kvg:type="㇑" d="M65.38,69.66c0.86,0.86,1.22,1.92,1.22,2.69c0,2.5-0.11,15.52-0.15,23.16c-0.01,1.63-0.01,3.01-0.01,4" transform="matrix(1,0,0,1,1296,-4)" class="stroke_order_diagram--current_path"></path><path id="pathSk93xdzq0829" kvg:type="㇑" d="M65.38,69.66c0.86,0.86,1.22,1.92,1.22,2.69c0,2.5-0.11,15.52-0.15,23.16c-0.01,1.63-0.01,3.01-0.01,4" transform="matrix(1,0,0,1,1296,-4)" class="stroke_order_diagram--current_path"></path><circle cx="65.38" cy="69.66" r="8" class="stroke_order_diagram--path_start" transform="matrix(1,0,0,1,1296,-4)"></circle></svg>