<?xml version="1.0" encoding="UTF-8"?>
<!DOCTYPE svg PUBLIC "-//W3C//DTD SVG 1.0//EN" "http://www.w3.org/TR/2001/REC-SVG-20010904/DTD/svg10.dtd" [
<!ATTLIST g
xmlns:kvg CDATA #FIXED "http://kanjivg.tagaini.net"
kvg:element CDATA #IMPLIED
kvg:variant CDATA #IMPLIED
kvg:partial CDATA #IMPLIED
kvg:original CDATA #IMPLIED
kvg:part CDATA #IMPLIED
kvg:number CDATA #IMPLIED
kvg:tradForm CDATA #IMPLIED
kvg:radicalForm CDATA #IMPLIED
kvg:position CDATA #IMPLIED
kvg:radical CDATA #IMPLIED
kvg:phon CDATA #IMPLIED >
<!ATTLIST path
xmlns:kvg CDATA #FIXED "http://kanjivg.tagaini.net"
kvg:type CDATA #IMPLIED >
]><svg style="width: 1400px; height: 100px;" xmlns="http://www.w3.org/2000/svg" xmlns:xlink="http://www.w3.org/1999/xlink" width="1400px" height="100px"><style>
.stroke_order_diagram--outer_container {
  width: 100%;
  overflow-x: auto;
  overflow-y: hidden;
}

.stroke_order_diagram--guide_line {
  fill: none;
  stroke: #ddd;
  stroke-width: 3;
  stroke-linecap: square;
  stroke-linejoin: square;
  stroke-dasharray:8, 8;
}

.stroke_order_diagram--bounding_box {
  fill: none;
  stroke: #ddd;
  stroke-width: 4;
  stroke-linecap: square;
  stroke-linejoin: square;
}

.stroke_order_diagram--current_path {
  fill: none;
  stroke: #000;
  stroke-width: 6;
  stroke-linecap: round;
  stroke-linejoin: round;
}

.stroke_order_diagram--existing_path {
  fill: none;
  stroke: #aaa;
  stroke-width: 6;
  stroke-linecap: round;
  stroke-linejoin:round;
}

.stroke_order_diagram--path_start {
  fill: rgba(255, 0, 0, 0.7);
  stroke:none
}</style><desc>Created with Snap</desc><defs></defs><line x1="1" x2="1399" y1="1" y2="1" class="stroke_order_diagram--bounding_box"></line><line x1="1" x2="1" y1="1" y2="99" class="stroke_order_diagram--bounding_box"></line><line x1="1" x2="1399" y1="99" y2="99" class="stroke_order_diagram--bounding_box"></line><line x1="0" x2="1400" y1="50" y2="50" class="stroke_order_diagram--guide_line"></line><line x1="50" x2="50" y1="1" y2="99" class="stroke_order_diagram--guide_line"></line><line x1="99" x2="99" y1="1" y2="99" class="stroke_order_diagram--bounding_box"></line><path id="kvg:09f4a-s1" kvg:type="㇑a" d="M51.82,10.25c0.78,0.42,2.07,2.05,2.07,2.89c0,3.09-0.25,4.5-0.1,7.12" transform="matrix(1,0,0,1,-4,-4)" class="stroke_order_diagram--current_path"></path><path id="pathSk940yk7k82x" kvg:type="㇑a" d="M51.82,10.25c0.78,0.42,2.07,2.05,2.07,2.89c0,3.09-0.25,4.5-0.1,7.12" transform="matrix(1,0,0,1,-4,-4)" class="stroke_order_diagram--current_path"></path><circle cx="51.82" cy="10.25" r="8" class="stroke_order_diagram--path_start" transform="matrix(1,0,0,1,-4,-4)"></circle><line x1="150" x2="150" y1="1" y2="99" class="stroke_order_diagram--guide_line"></line><line x1="199" x2="199" y1="1" y2="99" class="stroke_order_diagram--bounding_box"></line><path id="pathSk940yk7k830" kvg:type="㇑a" d="M51.82,10.25c0.78,0.42,2.07,2.05,2.07,2.89c0,3.09-0.25,4.5-0.1,7.12" transform="matrix(1,0,0,1,96,-4)" class="stroke_order_diagram--existing_path"></path><path id="kvg:09f4a-s2" kvg:type="㇐" d="M19.33,22.69c1.73,0.34,3.25,0.59,5.25,0.48c12.16-0.67,49.16-3.68,62.99-4.38c2.03-0.1,3.07,0.04,4.59,0.61" transform="matrix(1,0,0,1,96,-4)" class="stroke_order_diagram--current_path"></path><path id="pathSk940yk7k832" kvg:type="㇐" d="M19.33,22.69c1.73,0.34,3.25,0.59,5.25,0.48c12.16-0.67,49.16-3.68,62.99-4.38c2.03-0.1,3.07,0.04,4.59,0.61" transform="matrix(1,0,0,1,96,-4)" class="stroke_order_diagram--current_path"></path><circle cx="19.33" cy="22.69" r="8" class="stroke_order_diagram--path_start" transform="matrix(1,0,0,1,96,-4)"></circle><line x1="250" x2="250" y1="1" y2="99" class="stroke_order_diagram--guide_line"></line><line x1="299" x2="299" y1="1" y2="99" class="stroke_order_diagram--bounding_box"></line><path id="pathSk940yk7k835" kvg:type="㇑a" d="M51.82,10.25c0.78,0.42,2.07,2.05,2.07,2.89c0,3.09-0.25,4.5-0.1,7.12" transform="matrix(1,0,0,1,196,-4)" class="stroke_order_diagram--existing_path"></path><path id="pathSk940yk7k836" kvg:type="㇐" d="M19.33,22.69c1.73,0.34,3.25,0.59,5.25,0.48c12.16-0.67,49.16-3.68,62.99-4.38c2.03-0.1,3.07,0.04,4.59,0.61" transform="matrix(1,0,0,1,196,-4)" class="stroke_order_diagram--existing_path"></path><path id="kvg:09f4a-s3" kvg:type="㇔" d="M44.27,25.08c1.96,1.26,5.05,5.18,5.54,7.13" transform="matrix(1,0,0,1,196,-4)" class="stroke_order_diagram--current_path"></path><path id="pathSk940yk7k838" kvg:type="㇔" d="M44.27,25.08c1.96,1.26,5.05,5.18,5.54,7.13" transform="matrix(1,0,0,1,196,-4)" class="stroke_order_diagram--current_path"></path><circle cx="44.27" cy="25.08" r="8" class="stroke_order_diagram--path_start" transform="matrix(1,0,0,1,196,-4)"></circle><line x1="350" x2="350" y1="1" y2="99" class="stroke_order_diagram--guide_line"></line><line x1="399" x2="399" y1="1" y2="99" class="stroke_order_diagram--bounding_box"></line><path id="pathSk940yk7k83b" kvg:type="㇑a" d="M51.82,10.25c0.78,0.42,2.07,2.05,2.07,2.89c0,3.09-0.25,4.5-0.1,7.12" transform="matrix(1,0,0,1,296,-4)" class="stroke_order_diagram--existing_path"></path><path id="pathSk940yk7k83c" kvg:type="㇐" d="M19.33,22.69c1.73,0.34,3.25,0.59,5.25,0.48c12.16-0.67,49.16-3.68,62.99-4.38c2.03-0.1,3.07,0.04,4.59,0.61" transform="matrix(1,0,0,1,296,-4)" class="stroke_order_diagram--existing_path"></path><path id="pathSk940yk7k83d" kvg:type="㇔" d="M44.27,25.08c1.96,1.26,5.05,5.18,5.54,7.13" transform="matrix(1,0,0,1,296,-4)" class="stroke_order_diagram--existing_path"></path><path id="kvg:09f4a-s4" kvg:type="㇒" d="M62.78,23.64c0.02,0.3,0.04,0.76-0.04,1.19c-0.51,2.51-3.43,8.01-7.43,11.38" transform="matrix(1,0,0,1,296,-4)" class="stroke_order_diagram--current_path"></path><path id="pathSk940yk7k83f" kvg:type="㇒" d="M62.78,23.64c0.02,0.3,0.04,0.76-0.04,1.19c-0.51,2.51-3.43,8.01-7.43,11.38" transform="matrix(1,0,0,1,296,-4)" class="stroke_order_diagram--current_path"></path><circle cx="62.78" cy="23.64" r="8" class="stroke_order_diagram--path_start" transform="matrix(1,0,0,1,296,-4)"></circle><line x1="450" x2="450" y1="1" y2="99" class="stroke_order_diagram--guide_line"></line><line x1="499" x2="499" y1="1" y2="99" class="stroke_order_diagram--bounding_box"></line><path id="pathSk940yk7k83i" kvg:type="㇑a" d="M51.82,10.25c0.78,0.42,2.07,2.05,2.07,2.89c0,3.09-0.25,4.5-0.1,7.12" transform="matrix(1,0,0,1,396,-4)" class="stroke_order_diagram--existing_path"></path><path id="pathSk940yk7k83j" kvg:type="㇐" d="M19.33,22.69c1.73,0.34,3.25,0.59,5.25,0.48c12.16-0.67,49.16-3.68,62.99-4.38c2.03-0.1,3.07,0.04,4.59,0.61" transform="matrix(1,0,0,1,396,-4)" class="stroke_order_diagram--existing_path"></path><path id="pathSk940yk7k83k" kvg:type="㇔" d="M44.27,25.08c1.96,1.26,5.05,5.18,5.54,7.13" transform="matrix(1,0,0,1,396,-4)" class="stroke_order_diagram--existing_path"></path><path id="pathSk940yk7k83l" kvg:type="㇒" d="M62.78,23.64c0.02,0.3,0.04,0.76-0.04,1.19c-0.51,2.51-3.43,8.01-7.43,11.38" transform="matrix(1,0,0,1,396,-4)" class="stroke_order_diagram--existing_path"></path><path id="kvg:09f4a-s5" kvg:type="㇑" d="M52.81,36.33c0.42,0.4,0.72,0.86,0.76,2.17c0.17,6.28-0.01,14.11-0.01,16.25" transform="matrix(1,0,0,1,396,-4)" class="stroke_order_diagram--current_path"></path><path id="pathSk940yk7k83n" kvg:type="㇑" d="M52.81,36.33c0.42,0.4,0.72,0.86,0.76,2.17c0.17,6.28-0.01,14.11-0.01,16.25" transform="matrix(1,0,0,1,396,-4)" class="stroke_order_diagram--current_path"></path><circle cx="52.81" cy="36.33" r="8" class="stroke_order_diagram--path_start" transform="matrix(1,0,0,1,396,-4)"></circle><line x1="550" x2="550" y1="1" y2="99" class="stroke_order_diagram--guide_line"></line><line x1="599" x2="599" y1="1" y2="99" class="stroke_order_diagram--bounding_box"></line><path id="pathSk940yk7k83q" kvg:type="㇑a" d="M51.82,10.25c0.78,0.42,2.07,2.05,2.07,2.89c0,3.09-0.25,4.5-0.1,7.12" transform="matrix(1,0,0,1,496,-4)" class="stroke_order_diagram--existing_path"></path><path id="pathSk940yk7k83r" kvg:type="㇐" d="M19.33,22.69c1.73,0.34,3.25,0.59,5.25,0.48c12.16-0.67,49.16-3.68,62.99-4.38c2.03-0.1,3.07,0.04,4.59,0.61" transform="matrix(1,0,0,1,496,-4)" class="stroke_order_diagram--existing_path"></path><path id="pathSk940yk7k83s" kvg:type="㇔" d="M44.27,25.08c1.96,1.26,5.05,5.18,5.54,7.13" transform="matrix(1,0,0,1,496,-4)" class="stroke_order_diagram--existing_path"></path><path id="pathSk940yk7k83t" kvg:type="㇒" d="M62.78,23.64c0.02,0.3,0.04,0.76-0.04,1.19c-0.51,2.51-3.43,8.01-7.43,11.38" transform="matrix(1,0,0,1,496,-4)" class="stroke_order_diagram--existing_path"></path><path id="pathSk940yk7k83u" kvg:type="㇑" d="M52.81,36.33c0.42,0.4,0.72,0.86,0.76,2.17c0.17,6.28-0.01,14.11-0.01,16.25" transform="matrix(1,0,0,1,496,-4)" class="stroke_order_diagram--existing_path"></path><path id="kvg:09f4a-s6" kvg:type="㇆" d="M17.35,34.19c0.6,0.24,1.9,0.21,2.43,0.13c4.31-0.68,19.02-2.49,21.41-2.74c1.56-0.16,2.06,0.74,1.9,1.87c-0.9,6.3-2.76,12.55-5.49,17.34c-1.43,2.51-3.1,1.71-4.15-0.24" transform="matrix(1,0,0,1,496,-4)" class="stroke_order_diagram--current_path"></path><path id="pathSk940yk7k83w" kvg:type="㇆" d="M17.35,34.19c0.6,0.24,1.9,0.21,2.43,0.13c4.31-0.68,19.02-2.49,21.41-2.74c1.56-0.16,2.06,0.74,1.9,1.87c-0.9,6.3-2.76,12.55-5.49,17.34c-1.43,2.51-3.1,1.71-4.15-0.24" transform="matrix(1,0,0,1,496,-4)" class="stroke_order_diagram--current_path"></path><circle cx="17.35" cy="34.19" r="8" class="stroke_order_diagram--path_start" transform="matrix(1,0,0,1,496,-4)"></circle><line x1="650" x2="650" y1="1" y2="99" class="stroke_order_diagram--guide_line"></line><line x1="699" x2="699" y1="1" y2="99" class="stroke_order_diagram--bounding_box"></line><path id="pathSk940yk7k83z" kvg:type="㇑a" d="M51.82,10.25c0.78,0.42,2.07,2.05,2.07,2.89c0,3.09-0.25,4.5-0.1,7.12" transform="matrix(1,0,0,1,596,-4)" class="stroke_order_diagram--existing_path"></path><path id="pathSk940yk7k840" kvg:type="㇐" d="M19.33,22.69c1.73,0.34,3.25,0.59,5.25,0.48c12.16-0.67,49.16-3.68,62.99-4.38c2.03-0.1,3.07,0.04,4.59,0.61" transform="matrix(1,0,0,1,596,-4)" class="stroke_order_diagram--existing_path"></path><path id="pathSk940yk7k841" kvg:type="㇔" d="M44.27,25.08c1.96,1.26,5.05,5.18,5.54,7.13" transform="matrix(1,0,0,1,596,-4)" class="stroke_order_diagram--existing_path"></path><path id="pathSk940yk7k842" kvg:type="㇒" d="M62.78,23.64c0.02,0.3,0.04,0.76-0.04,1.19c-0.51,2.51-3.43,8.01-7.43,11.38" transform="matrix(1,0,0,1,596,-4)" class="stroke_order_diagram--existing_path"></path><path id="pathSk940yk7k843" kvg:type="㇑" d="M52.81,36.33c0.42,0.4,0.72,0.86,0.76,2.17c0.17,6.28-0.01,14.11-0.01,16.25" transform="matrix(1,0,0,1,596,-4)" class="stroke_order_diagram--existing_path"></path><path id="pathSk940yk7k844" kvg:type="㇆" d="M17.35,34.19c0.6,0.24,1.9,0.21,2.43,0.13c4.31-0.68,19.02-2.49,21.41-2.74c1.56-0.16,2.06,0.74,1.9,1.87c-0.9,6.3-2.76,12.55-5.49,17.34c-1.43,2.51-3.1,1.71-4.15-0.24" transform="matrix(1,0,0,1,596,-4)" class="stroke_order_diagram--existing_path"></path><path id="kvg:09f4a-s7" kvg:type="㇒" d="M27.97,36.02c0.03,0.42,0.08,1.08-0.07,1.68c-1.13,4.43-5.91,10.68-12.01,16.06" transform="matrix(1,0,0,1,596,-4)" class="stroke_order_diagram--current_path"></path><path id="pathSk940yk7k846" kvg:type="㇒" d="M27.97,36.02c0.03,0.42,0.08,1.08-0.07,1.68c-1.13,4.43-5.91,10.68-12.01,16.06" transform="matrix(1,0,0,1,596,-4)" class="stroke_order_diagram--current_path"></path><circle cx="27.97" cy="36.02" r="8" class="stroke_order_diagram--path_start" transform="matrix(1,0,0,1,596,-4)"></circle><line x1="750" x2="750" y1="1" y2="99" class="stroke_order_diagram--guide_line"></line><line x1="799" x2="799" y1="1" y2="99" class="stroke_order_diagram--bounding_box"></line><path id="pathSk940yk7k849" kvg:type="㇑a" d="M51.82,10.25c0.78,0.42,2.07,2.05,2.07,2.89c0,3.09-0.25,4.5-0.1,7.12" transform="matrix(1,0,0,1,696,-4)" class="stroke_order_diagram--existing_path"></path><path id="pathSk940yk7k84a" kvg:type="㇐" d="M19.33,22.69c1.73,0.34,3.25,0.59,5.25,0.48c12.16-0.67,49.16-3.68,62.99-4.38c2.03-0.1,3.07,0.04,4.59,0.61" transform="matrix(1,0,0,1,696,-4)" class="stroke_order_diagram--existing_path"></path><path id="pathSk940yk7k84b" kvg:type="㇔" d="M44.27,25.08c1.96,1.26,5.05,5.18,5.54,7.13" transform="matrix(1,0,0,1,696,-4)" class="stroke_order_diagram--existing_path"></path><path id="pathSk940yk7k84c" kvg:type="㇒" d="M62.78,23.64c0.02,0.3,0.04,0.76-0.04,1.19c-0.51,2.51-3.43,8.01-7.43,11.38" transform="matrix(1,0,0,1,696,-4)" class="stroke_order_diagram--existing_path"></path><path id="pathSk940yk7k84d" kvg:type="㇑" d="M52.81,36.33c0.42,0.4,0.72,0.86,0.76,2.17c0.17,6.28-0.01,14.11-0.01,16.25" transform="matrix(1,0,0,1,696,-4)" class="stroke_order_diagram--existing_path"></path><path id="pathSk940yk7k84e" kvg:type="㇆" d="M17.35,34.19c0.6,0.24,1.9,0.21,2.43,0.13c4.31-0.68,19.02-2.49,21.41-2.74c1.56-0.16,2.06,0.74,1.9,1.87c-0.9,6.3-2.76,12.55-5.49,17.34c-1.43,2.51-3.1,1.71-4.15-0.24" transform="matrix(1,0,0,1,696,-4)" class="stroke_order_diagram--existing_path"></path><path id="pathSk940yk7k84f" kvg:type="㇒" d="M27.97,36.02c0.03,0.42,0.08,1.08-0.07,1.68c-1.13,4.43-5.91,10.68-12.01,16.06" transform="matrix(1,0,0,1,696,-4)" class="stroke_order_diagram--existing_path"></path><path id="kvg:09f4a-s8" kvg:type="㇒" d="M80.96,23.39c0.04,0.22,0.08,0.56-0.07,0.87c-0.88,1.84-6.72,6.35-13.61,8.83" transform="matrix(1,0,0,1,696,-4)" class="stroke_order_diagram--current_path"></path><path id="pathSk940yk7k84h" kvg:type="㇒" d="M80.96,23.39c0.04,0.22,0.08,0.56-0.07,0.87c-0.88,1.84-6.72,6.35-13.61,8.83" transform="matrix(1,0,0,1,696,-4)" class="stroke_order_diagram--current_path"></path><circle cx="80.96" cy="23.39" r="8" class="stroke_order_diagram--path_start" transform="matrix(1,0,0,1,696,-4)"></circle><line x1="850" x2="850" y1="1" y2="99" class="stroke_order_diagram--guide_line"></line><line x1="899" x2="899" y1="1" y2="99" class="stroke_order_diagram--bounding_box"></line><path id="pathSk940yk7k84k" kvg:type="㇑a" d="M51.82,10.25c0.78,0.42,2.07,2.05,2.07,2.89c0,3.09-0.25,4.5-0.1,7.12" transform="matrix(1,0,0,1,796,-4)" class="stroke_order_diagram--existing_path"></path><path id="pathSk940yk7k84l" kvg:type="㇐" d="M19.33,22.69c1.73,0.34,3.25,0.59,5.25,0.48c12.16-0.67,49.16-3.68,62.99-4.38c2.03-0.1,3.07,0.04,4.59,0.61" transform="matrix(1,0,0,1,796,-4)" class="stroke_order_diagram--existing_path"></path><path id="pathSk940yk7k84m" kvg:type="㇔" d="M44.27,25.08c1.96,1.26,5.05,5.18,5.54,7.13" transform="matrix(1,0,0,1,796,-4)" class="stroke_order_diagram--existing_path"></path><path id="pathSk940yk7k84n" kvg:type="㇒" d="M62.78,23.64c0.02,0.3,0.04,0.76-0.04,1.19c-0.51,2.51-3.43,8.01-7.43,11.38" transform="matrix(1,0,0,1,796,-4)" class="stroke_order_diagram--existing_path"></path><path id="pathSk940yk7k84o" kvg:type="㇑" d="M52.81,36.33c0.42,0.4,0.72,0.86,0.76,2.17c0.17,6.28-0.01,14.11-0.01,16.25" transform="matrix(1,0,0,1,796,-4)" class="stroke_order_diagram--existing_path"></path><path id="pathSk940yk7k84p" kvg:type="㇆" d="M17.35,34.19c0.6,0.24,1.9,0.21,2.43,0.13c4.31-0.68,19.02-2.49,21.41-2.74c1.56-0.16,2.06,0.74,1.9,1.87c-0.9,6.3-2.76,12.55-5.49,17.34c-1.43,2.51-3.1,1.71-4.15-0.24" transform="matrix(1,0,0,1,796,-4)" class="stroke_order_diagram--existing_path"></path><path id="pathSk940yk7k84q" kvg:type="㇒" d="M27.97,36.02c0.03,0.42,0.08,1.08-0.07,1.68c-1.13,4.43-5.91,10.68-12.01,16.06" transform="matrix(1,0,0,1,796,-4)" class="stroke_order_diagram--existing_path"></path><path id="pathSk940yk7k84r" kvg:type="㇒" d="M80.96,23.39c0.04,0.22,0.08,0.56-0.07,0.87c-0.88,1.84-6.72,6.35-13.61,8.83" transform="matrix(1,0,0,1,796,-4)" class="stroke_order_diagram--existing_path"></path><path id="kvg:09f4a-s9" kvg:type="㇙" d="M65.75,31.77c0.41,0.61,0.71,1.43,0.71,2.34c0,0.92-0.1,13.82-0.1,15.25c0,1.43,0.1,1.83,1.42,0.81c1.32-1.02,8.29-5.56,9.1-6.17" transform="matrix(1,0,0,1,796,-4)" class="stroke_order_diagram--current_path"></path><path id="pathSk940yk7k84t" kvg:type="㇙" d="M65.75,31.77c0.41,0.61,0.71,1.43,0.71,2.34c0,0.92-0.1,13.82-0.1,15.25c0,1.43,0.1,1.83,1.42,0.81c1.32-1.02,8.29-5.56,9.1-6.17" transform="matrix(1,0,0,1,796,-4)" class="stroke_order_diagram--current_path"></path><circle cx="65.75" cy="31.77" r="8" class="stroke_order_diagram--path_start" transform="matrix(1,0,0,1,796,-4)"></circle><line x1="950" x2="950" y1="1" y2="99" class="stroke_order_diagram--guide_line"></line><line x1="999" x2="999" y1="1" y2="99" class="stroke_order_diagram--bounding_box"></line><path id="pathSk940yk7k84w" kvg:type="㇑a" d="M51.82,10.25c0.78,0.42,2.07,2.05,2.07,2.89c0,3.09-0.25,4.5-0.1,7.12" transform="matrix(1,0,0,1,896,-4)" class="stroke_order_diagram--existing_path"></path><path id="pathSk940yk7k84x" kvg:type="㇐" d="M19.33,22.69c1.73,0.34,3.25,0.59,5.25,0.48c12.16-0.67,49.16-3.68,62.99-4.38c2.03-0.1,3.07,0.04,4.59,0.61" transform="matrix(1,0,0,1,896,-4)" class="stroke_order_diagram--existing_path"></path><path id="pathSk940yk7k84y" kvg:type="㇔" d="M44.27,25.08c1.96,1.26,5.05,5.18,5.54,7.13" transform="matrix(1,0,0,1,896,-4)" class="stroke_order_diagram--existing_path"></path><path id="pathSk940yk7k84z" kvg:type="㇒" d="M62.78,23.64c0.02,0.3,0.04,0.76-0.04,1.19c-0.51,2.51-3.43,8.01-7.43,11.38" transform="matrix(1,0,0,1,896,-4)" class="stroke_order_diagram--existing_path"></path><path id="pathSk940yk7k850" kvg:type="㇑" d="M52.81,36.33c0.42,0.4,0.72,0.86,0.76,2.17c0.17,6.28-0.01,14.11-0.01,16.25" transform="matrix(1,0,0,1,896,-4)" class="stroke_order_diagram--existing_path"></path><path id="pathSk940yk7k851" kvg:type="㇆" d="M17.35,34.19c0.6,0.24,1.9,0.21,2.43,0.13c4.31-0.68,19.02-2.49,21.41-2.74c1.56-0.16,2.06,0.74,1.9,1.87c-0.9,6.3-2.76,12.55-5.49,17.34c-1.43,2.51-3.1,1.71-4.15-0.24" transform="matrix(1,0,0,1,896,-4)" class="stroke_order_diagram--existing_path"></path><path id="pathSk940yk7k852" kvg:type="㇒" d="M27.97,36.02c0.03,0.42,0.08,1.08-0.07,1.68c-1.13,4.43-5.91,10.68-12.01,16.06" transform="matrix(1,0,0,1,896,-4)" class="stroke_order_diagram--existing_path"></path><path id="pathSk940yk7k853" kvg:type="㇒" d="M80.96,23.39c0.04,0.22,0.08,0.56-0.07,0.87c-0.88,1.84-6.72,6.35-13.61,8.83" transform="matrix(1,0,0,1,896,-4)" class="stroke_order_diagram--existing_path"></path><path id="pathSk940yk7k854" kvg:type="㇙" d="M65.75,31.77c0.41,0.61,0.71,1.43,0.71,2.34c0,0.92-0.1,13.82-0.1,15.25c0,1.43,0.1,1.83,1.42,0.81c1.32-1.02,8.29-5.56,9.1-6.17" transform="matrix(1,0,0,1,896,-4)" class="stroke_order_diagram--existing_path"></path><path id="kvg:09f4a-s10" kvg:type="㇏" d="M75.12,30.36c2.38,4.89,6.63,11.89,12.31,17.08c1.37,1.25,3.27,2.07,5.06,2.81" transform="matrix(1,0,0,1,896,-4)" class="stroke_order_diagram--current_path"></path><path id="pathSk940yk7k856" kvg:type="㇏" d="M75.12,30.36c2.38,4.89,6.63,11.89,12.31,17.08c1.37,1.25,3.27,2.07,5.06,2.81" transform="matrix(1,0,0,1,896,-4)" class="stroke_order_diagram--current_path"></path><circle cx="75.12" cy="30.36" r="8" class="stroke_order_diagram--path_start" transform="matrix(1,0,0,1,896,-4)"></circle><line x1="1050" x2="1050" y1="1" y2="99" class="stroke_order_diagram--guide_line"></line><line x1="1099" x2="1099" y1="1" y2="99" class="stroke_order_diagram--bounding_box"></line><path id="pathSk940yk7k859" kvg:type="㇑a" d="M51.82,10.25c0.78,0.42,2.07,2.05,2.07,2.89c0,3.09-0.25,4.5-0.1,7.12" transform="matrix(1,0,0,1,996,-4)" class="stroke_order_diagram--existing_path"></path><path id="pathSk940yk7k85a" kvg:type="㇐" d="M19.33,22.69c1.73,0.34,3.25,0.59,5.25,0.48c12.16-0.67,49.16-3.68,62.99-4.38c2.03-0.1,3.07,0.04,4.59,0.61" transform="matrix(1,0,0,1,996,-4)" class="stroke_order_diagram--existing_path"></path><path id="pathSk940yk7k85b" kvg:type="㇔" d="M44.27,25.08c1.96,1.26,5.05,5.18,5.54,7.13" transform="matrix(1,0,0,1,996,-4)" class="stroke_order_diagram--existing_path"></path><path id="pathSk940yk7k85c" kvg:type="㇒" d="M62.78,23.64c0.02,0.3,0.04,0.76-0.04,1.19c-0.51,2.51-3.43,8.01-7.43,11.38" transform="matrix(1,0,0,1,996,-4)" class="stroke_order_diagram--existing_path"></path><path id="pathSk940yk7k85d" kvg:type="㇑" d="M52.81,36.33c0.42,0.4,0.72,0.86,0.76,2.17c0.17,6.28-0.01,14.11-0.01,16.25" transform="matrix(1,0,0,1,996,-4)" class="stroke_order_diagram--existing_path"></path><path id="pathSk940yk7k85e" kvg:type="㇆" d="M17.35,34.19c0.6,0.24,1.9,0.21,2.43,0.13c4.31-0.68,19.02-2.49,21.41-2.74c1.56-0.16,2.06,0.74,1.9,1.87c-0.9,6.3-2.76,12.55-5.49,17.34c-1.43,2.51-3.1,1.71-4.15-0.24" transform="matrix(1,0,0,1,996,-4)" class="stroke_order_diagram--existing_path"></path><path id="pathSk940yk7k85f" kvg:type="㇒" d="M27.97,36.02c0.03,0.42,0.08,1.08-0.07,1.68c-1.13,4.43-5.91,10.68-12.01,16.06" transform="matrix(1,0,0,1,996,-4)" class="stroke_order_diagram--existing_path"></path><path id="pathSk940yk7k85g" kvg:type="㇒" d="M80.96,23.39c0.04,0.22,0.08,0.56-0.07,0.87c-0.88,1.84-6.72,6.35-13.61,8.83" transform="matrix(1,0,0,1,996,-4)" class="stroke_order_diagram--existing_path"></path><path id="pathSk940yk7k85h" kvg:type="㇙" d="M65.75,31.77c0.41,0.61,0.71,1.43,0.71,2.34c0,0.92-0.1,13.82-0.1,15.25c0,1.43,0.1,1.83,1.42,0.81c1.32-1.02,8.29-5.56,9.1-6.17" transform="matrix(1,0,0,1,996,-4)" class="stroke_order_diagram--existing_path"></path><path id="pathSk940yk7k85i" kvg:type="㇏" d="M75.12,30.36c2.38,4.89,6.63,11.89,12.31,17.08c1.37,1.25,3.27,2.07,5.06,2.81" transform="matrix(1,0,0,1,996,-4)" class="stroke_order_diagram--existing_path"></path><path id="kvg:09f4a-s11" kvg:type="㇒" d="M30.18,55.82c0.79,0.56,1.07,1.98,1.07,2.59c0,3.29-0.15,13.84-0.24,15.11c-0.52,7.23-2.52,17.06-10.29,23.19" transform="matrix(1,0,0,1,996,-4)" class="stroke_order_diagram--current_path"></path><path id="pathSk940yk7k85k" kvg:type="㇒" d="M30.18,55.82c0.79,0.56,1.07,1.98,1.07,2.59c0,3.29-0.15,13.84-0.24,15.11c-0.52,7.23-2.52,17.06-10.29,23.19" transform="matrix(1,0,0,1,996,-4)" class="stroke_order_diagram--current_path"></path><circle cx="30.18" cy="55.82" r="8" class="stroke_order_diagram--path_start" transform="matrix(1,0,0,1,996,-4)"></circle><line x1="1150" x2="1150" y1="1" y2="99" class="stroke_order_diagram--guide_line"></line><line x1="1199" x2="1199" y1="1" y2="99" class="stroke_order_diagram--bounding_box"></line><path id="pathSk940yk7k85n" kvg:type="㇑a" d="M51.82,10.25c0.78,0.42,2.07,2.05,2.07,2.89c0,3.09-0.25,4.5-0.1,7.12" transform="matrix(1,0,0,1,1096,-4)" class="stroke_order_diagram--existing_path"></path><path id="pathSk940yk7k85o" kvg:type="㇐" d="M19.33,22.69c1.73,0.34,3.25,0.59,5.25,0.48c12.16-0.67,49.16-3.68,62.99-4.38c2.03-0.1,3.07,0.04,4.59,0.61" transform="matrix(1,0,0,1,1096,-4)" class="stroke_order_diagram--existing_path"></path><path id="pathSk940yk7k85p" kvg:type="㇔" d="M44.27,25.08c1.96,1.26,5.05,5.18,5.54,7.13" transform="matrix(1,0,0,1,1096,-4)" class="stroke_order_diagram--existing_path"></path><path id="pathSk940yk7k85q" kvg:type="㇒" d="M62.78,23.64c0.02,0.3,0.04,0.76-0.04,1.19c-0.51,2.51-3.43,8.01-7.43,11.38" transform="matrix(1,0,0,1,1096,-4)" class="stroke_order_diagram--existing_path"></path><path id="pathSk940yk7k85r" kvg:type="㇑" d="M52.81,36.33c0.42,0.4,0.72,0.86,0.76,2.17c0.17,6.28-0.01,14.11-0.01,16.25" transform="matrix(1,0,0,1,1096,-4)" class="stroke_order_diagram--existing_path"></path><path id="pathSk940yk7k85s" kvg:type="㇆" d="M17.35,34.19c0.6,0.24,1.9,0.21,2.43,0.13c4.31-0.68,19.02-2.49,21.41-2.74c1.56-0.16,2.06,0.74,1.9,1.87c-0.9,6.3-2.76,12.55-5.49,17.34c-1.43,2.51-3.1,1.71-4.15-0.24" transform="matrix(1,0,0,1,1096,-4)" class="stroke_order_diagram--existing_path"></path><path id="pathSk940yk7k85t" kvg:type="㇒" d="M27.97,36.02c0.03,0.42,0.08,1.08-0.07,1.68c-1.13,4.43-5.91,10.68-12.01,16.06" transform="matrix(1,0,0,1,1096,-4)" class="stroke_order_diagram--existing_path"></path><path id="pathSk940yk7k85u" kvg:type="㇒" d="M80.96,23.39c0.04,0.22,0.08,0.56-0.07,0.87c-0.88,1.84-6.72,6.35-13.61,8.83" transform="matrix(1,0,0,1,1096,-4)" class="stroke_order_diagram--existing_path"></path><path id="pathSk940yk7k85v" kvg:type="㇙" d="M65.75,31.77c0.41,0.61,0.71,1.43,0.71,2.34c0,0.92-0.1,13.82-0.1,15.25c0,1.43,0.1,1.83,1.42,0.81c1.32-1.02,8.29-5.56,9.1-6.17" transform="matrix(1,0,0,1,1096,-4)" class="stroke_order_diagram--existing_path"></path><path id="pathSk940yk7k85w" kvg:type="㇏" d="M75.12,30.36c2.38,4.89,6.63,11.89,12.31,17.08c1.37,1.25,3.27,2.07,5.06,2.81" transform="matrix(1,0,0,1,1096,-4)" class="stroke_order_diagram--existing_path"></path><path id="pathSk940yk7k85x" kvg:type="㇒" d="M30.18,55.82c0.79,0.56,1.07,1.98,1.07,2.59c0,3.29-0.15,13.84-0.24,15.11c-0.52,7.23-2.52,17.06-10.29,23.19" transform="matrix(1,0,0,1,1096,-4)" class="stroke_order_diagram--existing_path"></path><path id="kvg:09f4a-s12" kvg:type="㇐" d="M31.8,65.32c4.95-0.57,41.45-3.07,44.95-3.32" transform="matrix(1,0,0,1,1096,-4)" class="stroke_order_diagram--current_path"></path><path id="pathSk940yk7k85z" kvg:type="㇐" d="M31.8,65.32c4.95-0.57,41.45-3.07,44.95-3.32" transform="matrix(1,0,0,1,1096,-4)" class="stroke_order_diagram--current_path"></path><circle cx="31.8" cy="65.32" r="8" class="stroke_order_diagram--path_start" transform="matrix(1,0,0,1,1096,-4)"></circle><line x1="1250" x2="1250" y1="1" y2="99" class="stroke_order_diagram--guide_line"></line><line x1="1299" x2="1299" y1="1" y2="99" class="stroke_order_diagram--bounding_box"></line><path id="pathSk940yk7k862" kvg:type="㇑a" d="M51.82,10.25c0.78,0.42,2.07,2.05,2.07,2.89c0,3.09-0.25,4.5-0.1,7.12" transform="matrix(1,0,0,1,1196,-4)" class="stroke_order_diagram--existing_path"></path><path id="pathSk940yk7k863" kvg:type="㇐" d="M19.33,22.69c1.73,0.34,3.25,0.59,5.25,0.48c12.16-0.67,49.16-3.68,62.99-4.38c2.03-0.1,3.07,0.04,4.59,0.61" transform="matrix(1,0,0,1,1196,-4)" class="stroke_order_diagram--existing_path"></path><path id="pathSk940yk7k864" kvg:type="㇔" d="M44.27,25.08c1.96,1.26,5.05,5.18,5.54,7.13" transform="matrix(1,0,0,1,1196,-4)" class="stroke_order_diagram--existing_path"></path><path id="pathSk940yk7k865" kvg:type="㇒" d="M62.78,23.64c0.02,0.3,0.04,0.76-0.04,1.19c-0.51,2.51-3.43,8.01-7.43,11.38" transform="matrix(1,0,0,1,1196,-4)" class="stroke_order_diagram--existing_path"></path><path id="pathSk940yk7k866" kvg:type="㇑" d="M52.81,36.33c0.42,0.4,0.72,0.86,0.76,2.17c0.17,6.28-0.01,14.11-0.01,16.25" transform="matrix(1,0,0,1,1196,-4)" class="stroke_order_diagram--existing_path"></path><path id="pathSk940yk7k867" kvg:type="㇆" d="M17.35,34.19c0.6,0.24,1.9,0.21,2.43,0.13c4.31-0.68,19.02-2.49,21.41-2.74c1.56-0.16,2.06,0.74,1.9,1.87c-0.9,6.3-2.76,12.55-5.49,17.34c-1.43,2.51-3.1,1.71-4.15-0.24" transform="matrix(1,0,0,1,1196,-4)" class="stroke_order_diagram--existing_path"></path><path id="pathSk940yk7k868" kvg:type="㇒" d="M27.97,36.02c0.03,0.42,0.08,1.08-0.07,1.68c-1.13,4.43-5.91,10.68-12.01,16.06" transform="matrix(1,0,0,1,1196,-4)" class="stroke_order_diagram--existing_path"></path><path id="pathSk940yk7k869" kvg:type="㇒" d="M80.96,23.39c0.04,0.22,0.08,0.56-0.07,0.87c-0.88,1.84-6.72,6.35-13.61,8.83" transform="matrix(1,0,0,1,1196,-4)" class="stroke_order_diagram--existing_path"></path><path id="pathSk940yk7k86a" kvg:type="㇙" d="M65.75,31.77c0.41,0.61,0.71,1.43,0.71,2.34c0,0.92-0.1,13.82-0.1,15.25c0,1.43,0.1,1.83,1.42,0.81c1.32-1.02,8.29-5.56,9.1-6.17" transform="matrix(1,0,0,1,1196,-4)" class="stroke_order_diagram--existing_path"></path><path id="pathSk940yk7k86b" kvg:type="㇏" d="M75.12,30.36c2.38,4.89,6.63,11.89,12.31,17.08c1.37,1.25,3.27,2.07,5.06,2.81" transform="matrix(1,0,0,1,1196,-4)" class="stroke_order_diagram--existing_path"></path><path id="pathSk940yk7k86c" kvg:type="㇒" d="M30.18,55.82c0.79,0.56,1.07,1.98,1.07,2.59c0,3.29-0.15,13.84-0.24,15.11c-0.52,7.23-2.52,17.06-10.29,23.19" transform="matrix(1,0,0,1,1196,-4)" class="stroke_order_diagram--existing_path"></path><path id="pathSk940yk7k86d" kvg:type="㇐" d="M31.8,65.32c4.95-0.57,41.45-3.07,44.95-3.32" transform="matrix(1,0,0,1,1196,-4)" class="stroke_order_diagram--existing_path"></path><path id="kvg:09f4a-s13" kvg:type="㇐" d="M30.79,76.63c4.46-0.13,39.96-2.38,45.92-2.59" transform="matrix(1,0,0,1,1196,-4)" class="stroke_order_diagram--current_path"></path><path id="pathSk940yk7k86f" kvg:type="㇐" d="M30.79,76.63c4.46-0.13,39.96-2.38,45.92-2.59" transform="matrix(1,0,0,1,1196,-4)" class="stroke_order_diagram--current_path"></path><circle cx="30.79" cy="76.63" r="8" class="stroke_order_diagram--path_start" transform="matrix(1,0,0,1,1196,-4)"></circle><line x1="1350" x2="1350" y1="1" y2="99" class="stroke_order_diagram--guide_line"></line><line x1="1399" x2="1399" y1="1" y2="99" class="stroke_order_diagram--bounding_box"></line><path id="pathSk940yk7k86i" kvg:type="㇑a" d="M51.82,10.25c0.78,0.42,2.07,2.05,2.07,2.89c0,3.09-0.25,4.5-0.1,7.12" transform="matrix(1,0,0,1,1296,-4)" class="stroke_order_diagram--existing_path"></path><path id="pathSk940yk7k86j" kvg:type="㇐" d="M19.33,22.69c1.73,0.34,3.25,0.59,5.25,0.48c12.16-0.67,49.16-3.68,62.99-4.38c2.03-0.1,3.07,0.04,4.59,0.61" transform="matrix(1,0,0,1,1296,-4)" class="stroke_order_diagram--existing_path"></path><path id="pathSk940yk7k86k" kvg:type="㇔" d="M44.27,25.08c1.96,1.26,5.05,5.18,5.54,7.13" transform="matrix(1,0,0,1,1296,-4)" class="stroke_order_diagram--existing_path"></path><path id="pathSk940yk7k86l" kvg:type="㇒" d="M62.78,23.64c0.02,0.3,0.04,0.76-0.04,1.19c-0.51,2.51-3.43,8.01-7.43,11.38" transform="matrix(1,0,0,1,1296,-4)" class="stroke_order_diagram--existing_path"></path><path id="pathSk940yk7k86m" kvg:type="㇑" d="M52.81,36.33c0.42,0.4,0.72,0.86,0.76,2.17c0.17,6.28-0.01,14.11-0.01,16.25" transform="matrix(1,0,0,1,1296,-4)" class="stroke_order_diagram--existing_path"></path><path id="pathSk940yk7k86n" kvg:type="㇆" d="M17.35,34.19c0.6,0.24,1.9,0.21,2.43,0.13c4.31-0.68,19.02-2.49,21.41-2.74c1.56-0.16,2.06,0.74,1.9,1.87c-0.9,6.3-2.76,12.55-5.49,17.34c-1.43,2.51-3.1,1.71-4.15-0.24" transform="matrix(1,0,0,1,1296,-4)" class="stroke_order_diagram--existing_path"></path><path id="pathSk940yk7k86o" kvg:type="㇒" d="M27.97,36.02c0.03,0.42,0.08,1.08-0.07,1.68c-1.13,4.43-5.91,10.68-12.01,16.06" transform="matrix(1,0,0,1,1296,-4)" class="stroke_order_diagram--existing_path"></path><path id="pathSk940yk7k86p" kvg:type="㇒" d="M80.96,23.39c0.04,0.22,0.08,0.56-0.07,0.87c-0.88,1.84-6.72,6.35-13.61,8.83" transform="matrix(1,0,0,1,1296,-4)" class="stroke_order_diagram--existing_path"></path><path id="pathSk940yk7k86q" kvg:type="㇙" d="M65.75,31.77c0.41,0.61,0.71,1.43,0.71,2.34c0,0.92-0.1,13.82-0.1,15.25c0,1.43,0.1,1.83,1.42,0.81c1.32-1.02,8.29-5.56,9.1-6.17" transform="matrix(1,0,0,1,1296,-4)" class="stroke_order_diagram--existing_path"></path><path id="pathSk940yk7k86r" kvg:type="㇏" d="M75.12,30.36c2.38,4.89,6.63,11.89,12.31,17.08c1.37,1.25,3.27,2.07,5.06,2.81" transform="matrix(1,0,0,1,1296,-4)" class="stroke_order_diagram--existing_path"></path><path id="pathSk940yk7k86s" kvg:type="㇒" d="M30.18,55.82c0.79,0.56,1.07,1.98,1.07,2.59c0,3.29-0.15,13.84-0.24,15.11c-0.52,7.23-2.52,17.06-10.29,23.19" transform="matrix(1,0,0,1,1296,-4)" class="stroke_order_diagram--existing_path"></path><path id="pathSk940yk7k86t" kvg:type="㇐" d="M31.8,65.32c4.95-0.57,41.45-3.07,44.95-3.32" transform="matrix(1,0,0,1,1296,-4)" class="stroke_order_diagram--existing_path"></path><path id="pathSk940yk7k86u" kvg:type="㇐" d="M30.79,76.63c4.46-0.13,39.96-2.38,45.92-2.59" transform="matrix(1,0,0,1,1296,-4)" class="stroke_order_diagram--existing_path"></path><path id="kvg:09f4a-s14" kvg:type="㇑" d="M75.22,52.51c0.69,0.56,1.83,2.71,1.83,3.83c0,4.4-0.02,39.65-0.09,42.8" transform="matrix(1,0,0,1,1296,-4)" class="stroke_order_diagram--current_path"></path><path id="pathSk940yk7k86w" kvg:type="㇑" d="M75.22,52.51c0.69,0.56,1.83,2.71,1.83,3.83c0,4.4-0.02,39.65-0.09,42.8" transform="matrix(1,0,0,1,1296,-4)" class="stroke_order_diagram--current_path"></path><circle cx="75.22" cy="52.51" r="8" class="stroke_order_diagram--path_start" transform="matrix(1,0,0,1,1296,-4)"></circle></svg>