<?xml version="1.0" encoding="UTF-8"?>
<!DOCTYPE svg PUBLIC "-//W3C//DTD SVG 1.0//EN" "http://www.w3.org/TR/2001/REC-SVG-20010904/DTD/svg10.dtd" [
<!ATTLIST g
xmlns:kvg CDATA #FIXED "http://kanjivg.tagaini.net"
kvg:element CDATA #IMPLIED
kvg:variant CDATA #IMPLIED
kvg:partial CDATA #IMPLIED
kvg:original CDATA #IMPLIED
kvg:part CDATA #IMPLIED
kvg:number CDATA #IMPLIED
kvg:tradForm CDATA #IMPLIED
kvg:radicalForm CDATA #IMPLIED
kvg:position CDATA #IMPLIED
kvg:radical CDATA #IMPLIED
kvg:phon CDATA #IMPLIED >
<!ATTLIST path
xmlns:kvg CDATA #FIXED "http://kanjivg.tagaini.net"
kvg:type CDATA #IMPLIED >
]><svg style="width: 1500px; height: 100px;" xmlns="http://www.w3.org/2000/svg" xmlns:xlink="http://www.w3.org/1999/xlink" width="1500px" height="100px"><style>
.stroke_order_diagram--outer_container {
  width: 100%;
  overflow-x: auto;
  overflow-y: hidden;
}

.stroke_order_diagram--guide_line {
  fill: none;
  stroke: #ddd;
  stroke-width: 3;
  stroke-linecap: square;
  stroke-linejoin: square;
  stroke-dasharray:8, 8;
}

.stroke_order_diagram--bounding_box {
  fill: none;
  stroke: #ddd;
  stroke-width: 4;
  stroke-linecap: square;
  stroke-linejoin: square;
}

.stroke_order_diagram--current_path {
  fill: none;
  stroke: #000;
  stroke-width: 6;
  stroke-linecap: round;
  stroke-linejoin: round;
}

.stroke_order_diagram--existing_path {
  fill: none;
  stroke: #aaa;
  stroke-width: 6;
  stroke-linecap: round;
  stroke-linejoin:round;
}

.stroke_order_diagram--path_start {
  fill: rgba(255, 0, 0, 0.7);
  stroke:none
}</style><desc>Created with Snap</desc><defs></defs><line x1="1" x2="1499" y1="1" y2="1" class="stroke_order_diagram--bounding_box"></line><line x1="1" x2="1" y1="1" y2="99" class="stroke_order_diagram--bounding_box"></line><line x1="1" x2="1499" y1="99" y2="99" class="stroke_order_diagram--bounding_box"></line><line x1="0" x2="1500" y1="50" y2="50" class="stroke_order_diagram--guide_line"></line><line x1="50" x2="50" y1="1" y2="99" class="stroke_order_diagram--guide_line"></line><line x1="99" x2="99" y1="1" y2="99" class="stroke_order_diagram--bounding_box"></line><path id="kvg:09f52-s1" kvg:type="㇑a" d="M51.75,11c1.08,0.5,1.94,2.23,1.94,3.25c0,5.25,0.28,14.25,0.28,19.25" transform="matrix(1,0,0,1,-4,-4)" class="stroke_order_diagram--current_path"></path><path id="pathSk940vv9fo" kvg:type="㇑a" d="M51.75,11c1.08,0.5,1.94,2.23,1.94,3.25c0,5.25,0.28,14.25,0.28,19.25" transform="matrix(1,0,0,1,-4,-4)" class="stroke_order_diagram--current_path"></path><circle cx="51.75" cy="11" r="8" class="stroke_order_diagram--path_start" transform="matrix(1,0,0,1,-4,-4)"></circle><line x1="150" x2="150" y1="1" y2="99" class="stroke_order_diagram--guide_line"></line><line x1="199" x2="199" y1="1" y2="99" class="stroke_order_diagram--bounding_box"></line><path id="pathSk940vv9fr" kvg:type="㇑a" d="M51.75,11c1.08,0.5,1.94,2.23,1.94,3.25c0,5.25,0.28,14.25,0.28,19.25" transform="matrix(1,0,0,1,96,-4)" class="stroke_order_diagram--existing_path"></path><path id="kvg:09f52-s2" kvg:type="㇐b/㇔" d="M54.74,22.75c7.05-0.75,14.7-2,22.11-2.5c1.72-0.12,2.16-0.25,3.23,0" transform="matrix(1,0,0,1,96,-4)" class="stroke_order_diagram--current_path"></path><path id="pathSk940vv9ft" kvg:type="㇐b/㇔" d="M54.74,22.75c7.05-0.75,14.7-2,22.11-2.5c1.72-0.12,2.16-0.25,3.23,0" transform="matrix(1,0,0,1,96,-4)" class="stroke_order_diagram--current_path"></path><circle cx="54.74" cy="22.75" r="8" class="stroke_order_diagram--path_start" transform="matrix(1,0,0,1,96,-4)"></circle><line x1="250" x2="250" y1="1" y2="99" class="stroke_order_diagram--guide_line"></line><line x1="299" x2="299" y1="1" y2="99" class="stroke_order_diagram--bounding_box"></line><path id="pathSk940vv9fw" kvg:type="㇑a" d="M51.75,11c1.08,0.5,1.94,2.23,1.94,3.25c0,5.25,0.28,14.25,0.28,19.25" transform="matrix(1,0,0,1,196,-4)" class="stroke_order_diagram--existing_path"></path><path id="pathSk940vv9fx" kvg:type="㇐b/㇔" d="M54.74,22.75c7.05-0.75,14.7-2,22.11-2.5c1.72-0.12,2.16-0.25,3.23,0" transform="matrix(1,0,0,1,196,-4)" class="stroke_order_diagram--existing_path"></path><path id="kvg:09f52-s3" kvg:type="㇑a" d="M32.45,18c1.08,0.5,1.72,2.25,1.94,3.25c0.21,1,0,7.75-0.22,14" transform="matrix(1,0,0,1,196,-4)" class="stroke_order_diagram--current_path"></path><path id="pathSk940vv9fz" kvg:type="㇑a" d="M32.45,18c1.08,0.5,1.72,2.25,1.94,3.25c0.21,1,0,7.75-0.22,14" transform="matrix(1,0,0,1,196,-4)" class="stroke_order_diagram--current_path"></path><circle cx="32.45" cy="18" r="8" class="stroke_order_diagram--path_start" transform="matrix(1,0,0,1,196,-4)"></circle><line x1="350" x2="350" y1="1" y2="99" class="stroke_order_diagram--guide_line"></line><line x1="399" x2="399" y1="1" y2="99" class="stroke_order_diagram--bounding_box"></line><path id="pathSk940vv9f12" kvg:type="㇑a" d="M51.75,11c1.08,0.5,1.94,2.23,1.94,3.25c0,5.25,0.28,14.25,0.28,19.25" transform="matrix(1,0,0,1,296,-4)" class="stroke_order_diagram--existing_path"></path><path id="pathSk940vv9f13" kvg:type="㇐b/㇔" d="M54.74,22.75c7.05-0.75,14.7-2,22.11-2.5c1.72-0.12,2.16-0.25,3.23,0" transform="matrix(1,0,0,1,296,-4)" class="stroke_order_diagram--existing_path"></path><path id="pathSk940vv9f14" kvg:type="㇑a" d="M32.45,18c1.08,0.5,1.72,2.25,1.94,3.25c0.21,1,0,7.75-0.22,14" transform="matrix(1,0,0,1,296,-4)" class="stroke_order_diagram--existing_path"></path><path id="kvg:09f52-s4" kvg:type="㇐" d="M16.25,35.75c0.81,0.25,2.99,0.84,5.15,0.75C33.09,36,72,32,83.07,32c2.17,0,5.94,0.5,7.18,0.75" transform="matrix(1,0,0,1,296,-4)" class="stroke_order_diagram--current_path"></path><path id="pathSk940vv9f16" kvg:type="㇐" d="M16.25,35.75c0.81,0.25,2.99,0.84,5.15,0.75C33.09,36,72,32,83.07,32c2.17,0,5.94,0.5,7.18,0.75" transform="matrix(1,0,0,1,296,-4)" class="stroke_order_diagram--current_path"></path><circle cx="16.25" cy="35.75" r="8" class="stroke_order_diagram--path_start" transform="matrix(1,0,0,1,296,-4)"></circle><line x1="450" x2="450" y1="1" y2="99" class="stroke_order_diagram--guide_line"></line><line x1="499" x2="499" y1="1" y2="99" class="stroke_order_diagram--bounding_box"></line><path id="pathSk940vv9f19" kvg:type="㇑a" d="M51.75,11c1.08,0.5,1.94,2.23,1.94,3.25c0,5.25,0.28,14.25,0.28,19.25" transform="matrix(1,0,0,1,396,-4)" class="stroke_order_diagram--existing_path"></path><path id="pathSk940vv9f1a" kvg:type="㇐b/㇔" d="M54.74,22.75c7.05-0.75,14.7-2,22.11-2.5c1.72-0.12,2.16-0.25,3.23,0" transform="matrix(1,0,0,1,396,-4)" class="stroke_order_diagram--existing_path"></path><path id="pathSk940vv9f1b" kvg:type="㇑a" d="M32.45,18c1.08,0.5,1.72,2.25,1.94,3.25c0.21,1,0,7.75-0.22,14" transform="matrix(1,0,0,1,396,-4)" class="stroke_order_diagram--existing_path"></path><path id="pathSk940vv9f1c" kvg:type="㇐" d="M16.25,35.75c0.81,0.25,2.99,0.84,5.15,0.75C33.09,36,72,32,83.07,32c2.17,0,5.94,0.5,7.18,0.75" transform="matrix(1,0,0,1,396,-4)" class="stroke_order_diagram--existing_path"></path><path id="kvg:09f52-s5" kvg:type="㇒" d="M44.88,38.24c0.21,0.21-0.11,2.08-0.27,2.53c-1.77,4.92-6.36,12.97-12.89,17.6" transform="matrix(1,0,0,1,396,-4)" class="stroke_order_diagram--current_path"></path><path id="pathSk940vv9f1e" kvg:type="㇒" d="M44.88,38.24c0.21,0.21-0.11,2.08-0.27,2.53c-1.77,4.92-6.36,12.97-12.89,17.6" transform="matrix(1,0,0,1,396,-4)" class="stroke_order_diagram--current_path"></path><circle cx="44.88" cy="38.24" r="8" class="stroke_order_diagram--path_start" transform="matrix(1,0,0,1,396,-4)"></circle><line x1="550" x2="550" y1="1" y2="99" class="stroke_order_diagram--guide_line"></line><line x1="599" x2="599" y1="1" y2="99" class="stroke_order_diagram--bounding_box"></line><path id="pathSk940vv9f1h" kvg:type="㇑a" d="M51.75,11c1.08,0.5,1.94,2.23,1.94,3.25c0,5.25,0.28,14.25,0.28,19.25" transform="matrix(1,0,0,1,496,-4)" class="stroke_order_diagram--existing_path"></path><path id="pathSk940vv9f1i" kvg:type="㇐b/㇔" d="M54.74,22.75c7.05-0.75,14.7-2,22.11-2.5c1.72-0.12,2.16-0.25,3.23,0" transform="matrix(1,0,0,1,496,-4)" class="stroke_order_diagram--existing_path"></path><path id="pathSk940vv9f1j" kvg:type="㇑a" d="M32.45,18c1.08,0.5,1.72,2.25,1.94,3.25c0.21,1,0,7.75-0.22,14" transform="matrix(1,0,0,1,496,-4)" class="stroke_order_diagram--existing_path"></path><path id="pathSk940vv9f1k" kvg:type="㇐" d="M16.25,35.75c0.81,0.25,2.99,0.84,5.15,0.75C33.09,36,72,32,83.07,32c2.17,0,5.94,0.5,7.18,0.75" transform="matrix(1,0,0,1,496,-4)" class="stroke_order_diagram--existing_path"></path><path id="pathSk940vv9f1l" kvg:type="㇒" d="M44.88,38.24c0.21,0.21-0.11,2.08-0.27,2.53c-1.77,4.92-6.36,12.97-12.89,17.6" transform="matrix(1,0,0,1,496,-4)" class="stroke_order_diagram--existing_path"></path><path id="kvg:09f52-s6" kvg:type="㇔" d="M42.89,48.21c3.39,1.42,7.71,5.2,9.36,8.79" transform="matrix(1,0,0,1,496,-4)" class="stroke_order_diagram--current_path"></path><path id="pathSk940vv9f1n" kvg:type="㇔" d="M42.89,48.21c3.39,1.42,7.71,5.2,9.36,8.79" transform="matrix(1,0,0,1,496,-4)" class="stroke_order_diagram--current_path"></path><circle cx="42.89" cy="48.21" r="8" class="stroke_order_diagram--path_start" transform="matrix(1,0,0,1,496,-4)"></circle><line x1="650" x2="650" y1="1" y2="99" class="stroke_order_diagram--guide_line"></line><line x1="699" x2="699" y1="1" y2="99" class="stroke_order_diagram--bounding_box"></line><path id="pathSk940vv9f1q" kvg:type="㇑a" d="M51.75,11c1.08,0.5,1.94,2.23,1.94,3.25c0,5.25,0.28,14.25,0.28,19.25" transform="matrix(1,0,0,1,596,-4)" class="stroke_order_diagram--existing_path"></path><path id="pathSk940vv9f1r" kvg:type="㇐b/㇔" d="M54.74,22.75c7.05-0.75,14.7-2,22.11-2.5c1.72-0.12,2.16-0.25,3.23,0" transform="matrix(1,0,0,1,596,-4)" class="stroke_order_diagram--existing_path"></path><path id="pathSk940vv9f1s" kvg:type="㇑a" d="M32.45,18c1.08,0.5,1.72,2.25,1.94,3.25c0.21,1,0,7.75-0.22,14" transform="matrix(1,0,0,1,596,-4)" class="stroke_order_diagram--existing_path"></path><path id="pathSk940vv9f1t" kvg:type="㇐" d="M16.25,35.75c0.81,0.25,2.99,0.84,5.15,0.75C33.09,36,72,32,83.07,32c2.17,0,5.94,0.5,7.18,0.75" transform="matrix(1,0,0,1,596,-4)" class="stroke_order_diagram--existing_path"></path><path id="pathSk940vv9f1u" kvg:type="㇒" d="M44.88,38.24c0.21,0.21-0.11,2.08-0.27,2.53c-1.77,4.92-6.36,12.97-12.89,17.6" transform="matrix(1,0,0,1,596,-4)" class="stroke_order_diagram--existing_path"></path><path id="pathSk940vv9f1v" kvg:type="㇔" d="M42.89,48.21c3.39,1.42,7.71,5.2,9.36,8.79" transform="matrix(1,0,0,1,596,-4)" class="stroke_order_diagram--existing_path"></path><path id="kvg:09f52-s7" kvg:type="㇒" d="M68.39,37.74c0.18,0.19-0.09,1.93-0.22,2.35c-1.47,4.55-5.27,12.01-10.69,16.29" transform="matrix(1,0,0,1,596,-4)" class="stroke_order_diagram--current_path"></path><path id="pathSk940vv9f1x" kvg:type="㇒" d="M68.39,37.74c0.18,0.19-0.09,1.93-0.22,2.35c-1.47,4.55-5.27,12.01-10.69,16.29" transform="matrix(1,0,0,1,596,-4)" class="stroke_order_diagram--current_path"></path><circle cx="68.39" cy="37.74" r="8" class="stroke_order_diagram--path_start" transform="matrix(1,0,0,1,596,-4)"></circle><line x1="750" x2="750" y1="1" y2="99" class="stroke_order_diagram--guide_line"></line><line x1="799" x2="799" y1="1" y2="99" class="stroke_order_diagram--bounding_box"></line><path id="pathSk940vv9f20" kvg:type="㇑a" d="M51.75,11c1.08,0.5,1.94,2.23,1.94,3.25c0,5.25,0.28,14.25,0.28,19.25" transform="matrix(1,0,0,1,696,-4)" class="stroke_order_diagram--existing_path"></path><path id="pathSk940vv9f21" kvg:type="㇐b/㇔" d="M54.74,22.75c7.05-0.75,14.7-2,22.11-2.5c1.72-0.12,2.16-0.25,3.23,0" transform="matrix(1,0,0,1,696,-4)" class="stroke_order_diagram--existing_path"></path><path id="pathSk940vv9f22" kvg:type="㇑a" d="M32.45,18c1.08,0.5,1.72,2.25,1.94,3.25c0.21,1,0,7.75-0.22,14" transform="matrix(1,0,0,1,696,-4)" class="stroke_order_diagram--existing_path"></path><path id="pathSk940vv9f23" kvg:type="㇐" d="M16.25,35.75c0.81,0.25,2.99,0.84,5.15,0.75C33.09,36,72,32,83.07,32c2.17,0,5.94,0.5,7.18,0.75" transform="matrix(1,0,0,1,696,-4)" class="stroke_order_diagram--existing_path"></path><path id="pathSk940vv9f24" kvg:type="㇒" d="M44.88,38.24c0.21,0.21-0.11,2.08-0.27,2.53c-1.77,4.92-6.36,12.97-12.89,17.6" transform="matrix(1,0,0,1,696,-4)" class="stroke_order_diagram--existing_path"></path><path id="pathSk940vv9f25" kvg:type="㇔" d="M42.89,48.21c3.39,1.42,7.71,5.2,9.36,8.79" transform="matrix(1,0,0,1,696,-4)" class="stroke_order_diagram--existing_path"></path><path id="pathSk940vv9f26" kvg:type="㇒" d="M68.39,37.74c0.18,0.19-0.09,1.93-0.22,2.35c-1.47,4.55-5.27,12.01-10.69,16.29" transform="matrix(1,0,0,1,696,-4)" class="stroke_order_diagram--existing_path"></path><path id="kvg:09f52-s8" kvg:type="㇔" d="M66.39,47.71c3.39,1.42,7.71,5.2,9.36,8.79" transform="matrix(1,0,0,1,696,-4)" class="stroke_order_diagram--current_path"></path><path id="pathSk940vv9f28" kvg:type="㇔" d="M66.39,47.71c3.39,1.42,7.71,5.2,9.36,8.79" transform="matrix(1,0,0,1,696,-4)" class="stroke_order_diagram--current_path"></path><circle cx="66.39" cy="47.71" r="8" class="stroke_order_diagram--path_start" transform="matrix(1,0,0,1,696,-4)"></circle><line x1="850" x2="850" y1="1" y2="99" class="stroke_order_diagram--guide_line"></line><line x1="899" x2="899" y1="1" y2="99" class="stroke_order_diagram--bounding_box"></line><path id="pathSk940vv9f2b" kvg:type="㇑a" d="M51.75,11c1.08,0.5,1.94,2.23,1.94,3.25c0,5.25,0.28,14.25,0.28,19.25" transform="matrix(1,0,0,1,796,-4)" class="stroke_order_diagram--existing_path"></path><path id="pathSk940vv9f2c" kvg:type="㇐b/㇔" d="M54.74,22.75c7.05-0.75,14.7-2,22.11-2.5c1.72-0.12,2.16-0.25,3.23,0" transform="matrix(1,0,0,1,796,-4)" class="stroke_order_diagram--existing_path"></path><path id="pathSk940vv9f2d" kvg:type="㇑a" d="M32.45,18c1.08,0.5,1.72,2.25,1.94,3.25c0.21,1,0,7.75-0.22,14" transform="matrix(1,0,0,1,796,-4)" class="stroke_order_diagram--existing_path"></path><path id="pathSk940vv9f2e" kvg:type="㇐" d="M16.25,35.75c0.81,0.25,2.99,0.84,5.15,0.75C33.09,36,72,32,83.07,32c2.17,0,5.94,0.5,7.18,0.75" transform="matrix(1,0,0,1,796,-4)" class="stroke_order_diagram--existing_path"></path><path id="pathSk940vv9f2f" kvg:type="㇒" d="M44.88,38.24c0.21,0.21-0.11,2.08-0.27,2.53c-1.77,4.92-6.36,12.97-12.89,17.6" transform="matrix(1,0,0,1,796,-4)" class="stroke_order_diagram--existing_path"></path><path id="pathSk940vv9f2g" kvg:type="㇔" d="M42.89,48.21c3.39,1.42,7.71,5.2,9.36,8.79" transform="matrix(1,0,0,1,796,-4)" class="stroke_order_diagram--existing_path"></path><path id="pathSk940vv9f2h" kvg:type="㇒" d="M68.39,37.74c0.18,0.19-0.09,1.93-0.22,2.35c-1.47,4.55-5.27,12.01-10.69,16.29" transform="matrix(1,0,0,1,796,-4)" class="stroke_order_diagram--existing_path"></path><path id="pathSk940vv9f2i" kvg:type="㇔" d="M66.39,47.71c3.39,1.42,7.71,5.2,9.36,8.79" transform="matrix(1,0,0,1,796,-4)" class="stroke_order_diagram--existing_path"></path><path id="kvg:09f52-s9" kvg:type="㇐" d="M26.5,64c3.5,0,52.5-3.25,55.75-3.25" transform="matrix(1,0,0,1,796,-4)" class="stroke_order_diagram--current_path"></path><path id="pathSk940vv9f2k" kvg:type="㇐" d="M26.5,64c3.5,0,52.5-3.25,55.75-3.25" transform="matrix(1,0,0,1,796,-4)" class="stroke_order_diagram--current_path"></path><circle cx="26.5" cy="64" r="8" class="stroke_order_diagram--path_start" transform="matrix(1,0,0,1,796,-4)"></circle><line x1="950" x2="950" y1="1" y2="99" class="stroke_order_diagram--guide_line"></line><line x1="999" x2="999" y1="1" y2="99" class="stroke_order_diagram--bounding_box"></line><path id="pathSk940vv9f2n" kvg:type="㇑a" d="M51.75,11c1.08,0.5,1.94,2.23,1.94,3.25c0,5.25,0.28,14.25,0.28,19.25" transform="matrix(1,0,0,1,896,-4)" class="stroke_order_diagram--existing_path"></path><path id="pathSk940vv9f2o" kvg:type="㇐b/㇔" d="M54.74,22.75c7.05-0.75,14.7-2,22.11-2.5c1.72-0.12,2.16-0.25,3.23,0" transform="matrix(1,0,0,1,896,-4)" class="stroke_order_diagram--existing_path"></path><path id="pathSk940vv9f2p" kvg:type="㇑a" d="M32.45,18c1.08,0.5,1.72,2.25,1.94,3.25c0.21,1,0,7.75-0.22,14" transform="matrix(1,0,0,1,896,-4)" class="stroke_order_diagram--existing_path"></path><path id="pathSk940vv9f2q" kvg:type="㇐" d="M16.25,35.75c0.81,0.25,2.99,0.84,5.15,0.75C33.09,36,72,32,83.07,32c2.17,0,5.94,0.5,7.18,0.75" transform="matrix(1,0,0,1,896,-4)" class="stroke_order_diagram--existing_path"></path><path id="pathSk940vv9f2r" kvg:type="㇒" d="M44.88,38.24c0.21,0.21-0.11,2.08-0.27,2.53c-1.77,4.92-6.36,12.97-12.89,17.6" transform="matrix(1,0,0,1,896,-4)" class="stroke_order_diagram--existing_path"></path><path id="pathSk940vv9f2s" kvg:type="㇔" d="M42.89,48.21c3.39,1.42,7.71,5.2,9.36,8.79" transform="matrix(1,0,0,1,896,-4)" class="stroke_order_diagram--existing_path"></path><path id="pathSk940vv9f2t" kvg:type="㇒" d="M68.39,37.74c0.18,0.19-0.09,1.93-0.22,2.35c-1.47,4.55-5.27,12.01-10.69,16.29" transform="matrix(1,0,0,1,896,-4)" class="stroke_order_diagram--existing_path"></path><path id="pathSk940vv9f2u" kvg:type="㇔" d="M66.39,47.71c3.39,1.42,7.71,5.2,9.36,8.79" transform="matrix(1,0,0,1,896,-4)" class="stroke_order_diagram--existing_path"></path><path id="pathSk940vv9f2v" kvg:type="㇐" d="M26.5,64c3.5,0,52.5-3.25,55.75-3.25" transform="matrix(1,0,0,1,896,-4)" class="stroke_order_diagram--existing_path"></path><path id="kvg:09f52-s10" kvg:type="㇒" d="M44.88,68.24c0.21,0.21-0.11,2.08-0.27,2.54c-1.77,4.92-6.36,12.97-12.89,17.6" transform="matrix(1,0,0,1,896,-4)" class="stroke_order_diagram--current_path"></path><path id="pathSk940vv9f2x" kvg:type="㇒" d="M44.88,68.24c0.21,0.21-0.11,2.08-0.27,2.54c-1.77,4.92-6.36,12.97-12.89,17.6" transform="matrix(1,0,0,1,896,-4)" class="stroke_order_diagram--current_path"></path><circle cx="44.88" cy="68.24" r="8" class="stroke_order_diagram--path_start" transform="matrix(1,0,0,1,896,-4)"></circle><line x1="1050" x2="1050" y1="1" y2="99" class="stroke_order_diagram--guide_line"></line><line x1="1099" x2="1099" y1="1" y2="99" class="stroke_order_diagram--bounding_box"></line><path id="pathSk940vv9f30" kvg:type="㇑a" d="M51.75,11c1.08,0.5,1.94,2.23,1.94,3.25c0,5.25,0.28,14.25,0.28,19.25" transform="matrix(1,0,0,1,996,-4)" class="stroke_order_diagram--existing_path"></path><path id="pathSk940vv9f31" kvg:type="㇐b/㇔" d="M54.74,22.75c7.05-0.75,14.7-2,22.11-2.5c1.72-0.12,2.16-0.25,3.23,0" transform="matrix(1,0,0,1,996,-4)" class="stroke_order_diagram--existing_path"></path><path id="pathSk940vv9f32" kvg:type="㇑a" d="M32.45,18c1.08,0.5,1.72,2.25,1.94,3.25c0.21,1,0,7.75-0.22,14" transform="matrix(1,0,0,1,996,-4)" class="stroke_order_diagram--existing_path"></path><path id="pathSk940vv9f33" kvg:type="㇐" d="M16.25,35.75c0.81,0.25,2.99,0.84,5.15,0.75C33.09,36,72,32,83.07,32c2.17,0,5.94,0.5,7.18,0.75" transform="matrix(1,0,0,1,996,-4)" class="stroke_order_diagram--existing_path"></path><path id="pathSk940vv9f34" kvg:type="㇒" d="M44.88,38.24c0.21,0.21-0.11,2.08-0.27,2.53c-1.77,4.92-6.36,12.97-12.89,17.6" transform="matrix(1,0,0,1,996,-4)" class="stroke_order_diagram--existing_path"></path><path id="pathSk940vv9f35" kvg:type="㇔" d="M42.89,48.21c3.39,1.42,7.71,5.2,9.36,8.79" transform="matrix(1,0,0,1,996,-4)" class="stroke_order_diagram--existing_path"></path><path id="pathSk940vv9f36" kvg:type="㇒" d="M68.39,37.74c0.18,0.19-0.09,1.93-0.22,2.35c-1.47,4.55-5.27,12.01-10.69,16.29" transform="matrix(1,0,0,1,996,-4)" class="stroke_order_diagram--existing_path"></path><path id="pathSk940vv9f37" kvg:type="㇔" d="M66.39,47.71c3.39,1.42,7.71,5.2,9.36,8.79" transform="matrix(1,0,0,1,996,-4)" class="stroke_order_diagram--existing_path"></path><path id="pathSk940vv9f38" kvg:type="㇐" d="M26.5,64c3.5,0,52.5-3.25,55.75-3.25" transform="matrix(1,0,0,1,996,-4)" class="stroke_order_diagram--existing_path"></path><path id="pathSk940vv9f39" kvg:type="㇒" d="M44.88,68.24c0.21,0.21-0.11,2.08-0.27,2.54c-1.77,4.92-6.36,12.97-12.89,17.6" transform="matrix(1,0,0,1,996,-4)" class="stroke_order_diagram--existing_path"></path><path id="kvg:09f52-s11" kvg:type="㇔" d="M42.89,77.71c3.02,1.22,6.89,4.46,8.36,7.54" transform="matrix(1,0,0,1,996,-4)" class="stroke_order_diagram--current_path"></path><path id="pathSk940vv9f3b" kvg:type="㇔" d="M42.89,77.71c3.02,1.22,6.89,4.46,8.36,7.54" transform="matrix(1,0,0,1,996,-4)" class="stroke_order_diagram--current_path"></path><circle cx="42.89" cy="77.71" r="8" class="stroke_order_diagram--path_start" transform="matrix(1,0,0,1,996,-4)"></circle><line x1="1150" x2="1150" y1="1" y2="99" class="stroke_order_diagram--guide_line"></line><line x1="1199" x2="1199" y1="1" y2="99" class="stroke_order_diagram--bounding_box"></line><path id="pathSk940vv9f3e" kvg:type="㇑a" d="M51.75,11c1.08,0.5,1.94,2.23,1.94,3.25c0,5.25,0.28,14.25,0.28,19.25" transform="matrix(1,0,0,1,1096,-4)" class="stroke_order_diagram--existing_path"></path><path id="pathSk940vv9f3f" kvg:type="㇐b/㇔" d="M54.74,22.75c7.05-0.75,14.7-2,22.11-2.5c1.72-0.12,2.16-0.25,3.23,0" transform="matrix(1,0,0,1,1096,-4)" class="stroke_order_diagram--existing_path"></path><path id="pathSk940vv9f3g" kvg:type="㇑a" d="M32.45,18c1.08,0.5,1.72,2.25,1.94,3.25c0.21,1,0,7.75-0.22,14" transform="matrix(1,0,0,1,1096,-4)" class="stroke_order_diagram--existing_path"></path><path id="pathSk940vv9f3h" kvg:type="㇐" d="M16.25,35.75c0.81,0.25,2.99,0.84,5.15,0.75C33.09,36,72,32,83.07,32c2.17,0,5.94,0.5,7.18,0.75" transform="matrix(1,0,0,1,1096,-4)" class="stroke_order_diagram--existing_path"></path><path id="pathSk940vv9f3i" kvg:type="㇒" d="M44.88,38.24c0.21,0.21-0.11,2.08-0.27,2.53c-1.77,4.92-6.36,12.97-12.89,17.6" transform="matrix(1,0,0,1,1096,-4)" class="stroke_order_diagram--existing_path"></path><path id="pathSk940vv9f3j" kvg:type="㇔" d="M42.89,48.21c3.39,1.42,7.71,5.2,9.36,8.79" transform="matrix(1,0,0,1,1096,-4)" class="stroke_order_diagram--existing_path"></path><path id="pathSk940vv9f3k" kvg:type="㇒" d="M68.39,37.74c0.18,0.19-0.09,1.93-0.22,2.35c-1.47,4.55-5.27,12.01-10.69,16.29" transform="matrix(1,0,0,1,1096,-4)" class="stroke_order_diagram--existing_path"></path><path id="pathSk940vv9f3l" kvg:type="㇔" d="M66.39,47.71c3.39,1.42,7.71,5.2,9.36,8.79" transform="matrix(1,0,0,1,1096,-4)" class="stroke_order_diagram--existing_path"></path><path id="pathSk940vv9f3m" kvg:type="㇐" d="M26.5,64c3.5,0,52.5-3.25,55.75-3.25" transform="matrix(1,0,0,1,1096,-4)" class="stroke_order_diagram--existing_path"></path><path id="pathSk940vv9f3n" kvg:type="㇒" d="M44.88,68.24c0.21,0.21-0.11,2.08-0.27,2.54c-1.77,4.92-6.36,12.97-12.89,17.6" transform="matrix(1,0,0,1,1096,-4)" class="stroke_order_diagram--existing_path"></path><path id="pathSk940vv9f3o" kvg:type="㇔" d="M42.89,77.71c3.02,1.22,6.89,4.46,8.36,7.54" transform="matrix(1,0,0,1,1096,-4)" class="stroke_order_diagram--existing_path"></path><path id="kvg:09f52-s12" kvg:type="㇒" d="M66.89,66.24c0.18,0.21-0.09,2.11-0.23,2.57c-1.5,4.98-5.39,13.13-10.94,17.82" transform="matrix(1,0,0,1,1096,-4)" class="stroke_order_diagram--current_path"></path><path id="pathSk940vv9f3q" kvg:type="㇒" d="M66.89,66.24c0.18,0.21-0.09,2.11-0.23,2.57c-1.5,4.98-5.39,13.13-10.94,17.82" transform="matrix(1,0,0,1,1096,-4)" class="stroke_order_diagram--current_path"></path><circle cx="66.89" cy="66.24" r="8" class="stroke_order_diagram--path_start" transform="matrix(1,0,0,1,1096,-4)"></circle><line x1="1250" x2="1250" y1="1" y2="99" class="stroke_order_diagram--guide_line"></line><line x1="1299" x2="1299" y1="1" y2="99" class="stroke_order_diagram--bounding_box"></line><path id="pathSk940vv9f3t" kvg:type="㇑a" d="M51.75,11c1.08,0.5,1.94,2.23,1.94,3.25c0,5.25,0.28,14.25,0.28,19.25" transform="matrix(1,0,0,1,1196,-4)" class="stroke_order_diagram--existing_path"></path><path id="pathSk940vv9f3u" kvg:type="㇐b/㇔" d="M54.74,22.75c7.05-0.75,14.7-2,22.11-2.5c1.72-0.12,2.16-0.25,3.23,0" transform="matrix(1,0,0,1,1196,-4)" class="stroke_order_diagram--existing_path"></path><path id="pathSk940vv9f3v" kvg:type="㇑a" d="M32.45,18c1.08,0.5,1.72,2.25,1.94,3.25c0.21,1,0,7.75-0.22,14" transform="matrix(1,0,0,1,1196,-4)" class="stroke_order_diagram--existing_path"></path><path id="pathSk940vv9f3w" kvg:type="㇐" d="M16.25,35.75c0.81,0.25,2.99,0.84,5.15,0.75C33.09,36,72,32,83.07,32c2.17,0,5.94,0.5,7.18,0.75" transform="matrix(1,0,0,1,1196,-4)" class="stroke_order_diagram--existing_path"></path><path id="pathSk940vv9f3x" kvg:type="㇒" d="M44.88,38.24c0.21,0.21-0.11,2.08-0.27,2.53c-1.77,4.92-6.36,12.97-12.89,17.6" transform="matrix(1,0,0,1,1196,-4)" class="stroke_order_diagram--existing_path"></path><path id="pathSk940vv9f3y" kvg:type="㇔" d="M42.89,48.21c3.39,1.42,7.71,5.2,9.36,8.79" transform="matrix(1,0,0,1,1196,-4)" class="stroke_order_diagram--existing_path"></path><path id="pathSk940vv9f3z" kvg:type="㇒" d="M68.39,37.74c0.18,0.19-0.09,1.93-0.22,2.35c-1.47,4.55-5.27,12.01-10.69,16.29" transform="matrix(1,0,0,1,1196,-4)" class="stroke_order_diagram--existing_path"></path><path id="pathSk940vv9f40" kvg:type="㇔" d="M66.39,47.71c3.39,1.42,7.71,5.2,9.36,8.79" transform="matrix(1,0,0,1,1196,-4)" class="stroke_order_diagram--existing_path"></path><path id="pathSk940vv9f41" kvg:type="㇐" d="M26.5,64c3.5,0,52.5-3.25,55.75-3.25" transform="matrix(1,0,0,1,1196,-4)" class="stroke_order_diagram--existing_path"></path><path id="pathSk940vv9f42" kvg:type="㇒" d="M44.88,68.24c0.21,0.21-0.11,2.08-0.27,2.54c-1.77,4.92-6.36,12.97-12.89,17.6" transform="matrix(1,0,0,1,1196,-4)" class="stroke_order_diagram--existing_path"></path><path id="pathSk940vv9f43" kvg:type="㇔" d="M42.89,77.71c3.02,1.22,6.89,4.46,8.36,7.54" transform="matrix(1,0,0,1,1196,-4)" class="stroke_order_diagram--existing_path"></path><path id="pathSk940vv9f44" kvg:type="㇒" d="M66.89,66.24c0.18,0.21-0.09,2.11-0.23,2.57c-1.5,4.98-5.39,13.13-10.94,17.82" transform="matrix(1,0,0,1,1196,-4)" class="stroke_order_diagram--existing_path"></path><path id="kvg:09f52-s13" kvg:type="㇔" d="M65.64,75.96c3.66,1.62,8.33,5.94,10.11,10.04" transform="matrix(1,0,0,1,1196,-4)" class="stroke_order_diagram--current_path"></path><path id="pathSk940vv9f46" kvg:type="㇔" d="M65.64,75.96c3.66,1.62,8.33,5.94,10.11,10.04" transform="matrix(1,0,0,1,1196,-4)" class="stroke_order_diagram--current_path"></path><circle cx="65.64" cy="75.96" r="8" class="stroke_order_diagram--path_start" transform="matrix(1,0,0,1,1196,-4)"></circle><line x1="1350" x2="1350" y1="1" y2="99" class="stroke_order_diagram--guide_line"></line><line x1="1399" x2="1399" y1="1" y2="99" class="stroke_order_diagram--bounding_box"></line><path id="pathSk940vv9f49" kvg:type="㇑a" d="M51.75,11c1.08,0.5,1.94,2.23,1.94,3.25c0,5.25,0.28,14.25,0.28,19.25" transform="matrix(1,0,0,1,1296,-4)" class="stroke_order_diagram--existing_path"></path><path id="pathSk940vv9f4a" kvg:type="㇐b/㇔" d="M54.74,22.75c7.05-0.75,14.7-2,22.11-2.5c1.72-0.12,2.16-0.25,3.23,0" transform="matrix(1,0,0,1,1296,-4)" class="stroke_order_diagram--existing_path"></path><path id="pathSk940vv9f4b" kvg:type="㇑a" d="M32.45,18c1.08,0.5,1.72,2.25,1.94,3.25c0.21,1,0,7.75-0.22,14" transform="matrix(1,0,0,1,1296,-4)" class="stroke_order_diagram--existing_path"></path><path id="pathSk940vv9f4c" kvg:type="㇐" d="M16.25,35.75c0.81,0.25,2.99,0.84,5.15,0.75C33.09,36,72,32,83.07,32c2.17,0,5.94,0.5,7.18,0.75" transform="matrix(1,0,0,1,1296,-4)" class="stroke_order_diagram--existing_path"></path><path id="pathSk940vv9f4d" kvg:type="㇒" d="M44.88,38.24c0.21,0.21-0.11,2.08-0.27,2.53c-1.77,4.92-6.36,12.97-12.89,17.6" transform="matrix(1,0,0,1,1296,-4)" class="stroke_order_diagram--existing_path"></path><path id="pathSk940vv9f4e" kvg:type="㇔" d="M42.89,48.21c3.39,1.42,7.71,5.2,9.36,8.79" transform="matrix(1,0,0,1,1296,-4)" class="stroke_order_diagram--existing_path"></path><path id="pathSk940vv9f4f" kvg:type="㇒" d="M68.39,37.74c0.18,0.19-0.09,1.93-0.22,2.35c-1.47,4.55-5.27,12.01-10.69,16.29" transform="matrix(1,0,0,1,1296,-4)" class="stroke_order_diagram--existing_path"></path><path id="pathSk940vv9f4g" kvg:type="㇔" d="M66.39,47.71c3.39,1.42,7.71,5.2,9.36,8.79" transform="matrix(1,0,0,1,1296,-4)" class="stroke_order_diagram--existing_path"></path><path id="pathSk940vv9f4h" kvg:type="㇐" d="M26.5,64c3.5,0,52.5-3.25,55.75-3.25" transform="matrix(1,0,0,1,1296,-4)" class="stroke_order_diagram--existing_path"></path><path id="pathSk940vv9f4i" kvg:type="㇒" d="M44.88,68.24c0.21,0.21-0.11,2.08-0.27,2.54c-1.77,4.92-6.36,12.97-12.89,17.6" transform="matrix(1,0,0,1,1296,-4)" class="stroke_order_diagram--existing_path"></path><path id="pathSk940vv9f4j" kvg:type="㇔" d="M42.89,77.71c3.02,1.22,6.89,4.46,8.36,7.54" transform="matrix(1,0,0,1,1296,-4)" class="stroke_order_diagram--existing_path"></path><path id="pathSk940vv9f4k" kvg:type="㇒" d="M66.89,66.24c0.18,0.21-0.09,2.11-0.23,2.57c-1.5,4.98-5.39,13.13-10.94,17.82" transform="matrix(1,0,0,1,1296,-4)" class="stroke_order_diagram--existing_path"></path><path id="pathSk940vv9f4l" kvg:type="㇔" d="M65.64,75.96c3.66,1.62,8.33,5.94,10.11,10.04" transform="matrix(1,0,0,1,1296,-4)" class="stroke_order_diagram--existing_path"></path><path id="kvg:09f52-s14" kvg:type="㇗a" d="M23.81,42.88c0.76,0.45,2.19,1.87,2.01,4.25c-0.07,0.91-0.43,43.63-0.5,45s0.65,2.51,2.15,2.39c16.27-1.27,39.52-2.27,54.77-2.77" transform="matrix(1,0,0,1,1296,-4)" class="stroke_order_diagram--current_path"></path><path id="pathSk940vv9f4n" kvg:type="㇗a" d="M23.81,42.88c0.76,0.45,2.19,1.87,2.01,4.25c-0.07,0.91-0.43,43.63-0.5,45s0.65,2.51,2.15,2.39c16.27-1.27,39.52-2.27,54.77-2.77" transform="matrix(1,0,0,1,1296,-4)" class="stroke_order_diagram--current_path"></path><circle cx="23.81" cy="42.88" r="8" class="stroke_order_diagram--path_start" transform="matrix(1,0,0,1,1296,-4)"></circle><line x1="1450" x2="1450" y1="1" y2="99" class="stroke_order_diagram--guide_line"></line><line x1="1499" x2="1499" y1="1" y2="99" class="stroke_order_diagram--bounding_box"></line><path id="pathSk940vv9f4q" kvg:type="㇑a" d="M51.75,11c1.08,0.5,1.94,2.23,1.94,3.25c0,5.25,0.28,14.25,0.28,19.25" transform="matrix(1,0,0,1,1396,-4)" class="stroke_order_diagram--existing_path"></path><path id="pathSk940vv9f4r" kvg:type="㇐b/㇔" d="M54.74,22.75c7.05-0.75,14.7-2,22.11-2.5c1.72-0.12,2.16-0.25,3.23,0" transform="matrix(1,0,0,1,1396,-4)" class="stroke_order_diagram--existing_path"></path><path id="pathSk940vv9f4s" kvg:type="㇑a" d="M32.45,18c1.08,0.5,1.72,2.25,1.94,3.25c0.21,1,0,7.75-0.22,14" transform="matrix(1,0,0,1,1396,-4)" class="stroke_order_diagram--existing_path"></path><path id="pathSk940vv9f4t" kvg:type="㇐" d="M16.25,35.75c0.81,0.25,2.99,0.84,5.15,0.75C33.09,36,72,32,83.07,32c2.17,0,5.94,0.5,7.18,0.75" transform="matrix(1,0,0,1,1396,-4)" class="stroke_order_diagram--existing_path"></path><path id="pathSk940vv9f4u" kvg:type="㇒" d="M44.88,38.24c0.21,0.21-0.11,2.08-0.27,2.53c-1.77,4.92-6.36,12.97-12.89,17.6" transform="matrix(1,0,0,1,1396,-4)" class="stroke_order_diagram--existing_path"></path><path id="pathSk940vv9f4v" kvg:type="㇔" d="M42.89,48.21c3.39,1.42,7.71,5.2,9.36,8.79" transform="matrix(1,0,0,1,1396,-4)" class="stroke_order_diagram--existing_path"></path><path id="pathSk940vv9f4w" kvg:type="㇒" d="M68.39,37.74c0.18,0.19-0.09,1.93-0.22,2.35c-1.47,4.55-5.27,12.01-10.69,16.29" transform="matrix(1,0,0,1,1396,-4)" class="stroke_order_diagram--existing_path"></path><path id="pathSk940vv9f4x" kvg:type="㇔" d="M66.39,47.71c3.39,1.42,7.71,5.2,9.36,8.79" transform="matrix(1,0,0,1,1396,-4)" class="stroke_order_diagram--existing_path"></path><path id="pathSk940vv9f4y" kvg:type="㇐" d="M26.5,64c3.5,0,52.5-3.25,55.75-3.25" transform="matrix(1,0,0,1,1396,-4)" class="stroke_order_diagram--existing_path"></path><path id="pathSk940vv9f4z" kvg:type="㇒" d="M44.88,68.24c0.21,0.21-0.11,2.08-0.27,2.54c-1.77,4.92-6.36,12.97-12.89,17.6" transform="matrix(1,0,0,1,1396,-4)" class="stroke_order_diagram--existing_path"></path><path id="pathSk940vv9f50" kvg:type="㇔" d="M42.89,77.71c3.02,1.22,6.89,4.46,8.36,7.54" transform="matrix(1,0,0,1,1396,-4)" class="stroke_order_diagram--existing_path"></path><path id="pathSk940vv9f51" kvg:type="㇒" d="M66.89,66.24c0.18,0.21-0.09,2.11-0.23,2.57c-1.5,4.98-5.39,13.13-10.94,17.82" transform="matrix(1,0,0,1,1396,-4)" class="stroke_order_diagram--existing_path"></path><path id="pathSk940vv9f52" kvg:type="㇔" d="M65.64,75.96c3.66,1.62,8.33,5.94,10.11,10.04" transform="matrix(1,0,0,1,1396,-4)" class="stroke_order_diagram--existing_path"></path><path id="pathSk940vv9f53" kvg:type="㇗a" d="M23.81,42.88c0.76,0.45,2.19,1.87,2.01,4.25c-0.07,0.91-0.43,43.63-0.5,45s0.65,2.51,2.15,2.39c16.27-1.27,39.52-2.27,54.77-2.77" transform="matrix(1,0,0,1,1396,-4)" class="stroke_order_diagram--existing_path"></path><path id="kvg:09f52-s15" kvg:type="㇑" d="M81.79,38.38c0.47,0.45,1.48,3.35,1.57,4.25c0.09,0.9-0.2,31.87-0.16,52.75" transform="matrix(1,0,0,1,1396,-4)" class="stroke_order_diagram--current_path"></path><path id="pathSk940vv9f55" kvg:type="㇑" d="M81.79,38.38c0.47,0.45,1.48,3.35,1.57,4.25c0.09,0.9-0.2,31.87-0.16,52.75" transform="matrix(1,0,0,1,1396,-4)" class="stroke_order_diagram--current_path"></path><circle cx="81.79" cy="38.38" r="8" class="stroke_order_diagram--path_start" transform="matrix(1,0,0,1,1396,-4)"></circle></svg>