<?xml version="1.0" encoding="UTF-8"?>
<!DOCTYPE svg PUBLIC "-//W3C//DTD SVG 1.0//EN" "http://www.w3.org/TR/2001/REC-SVG-20010904/DTD/svg10.dtd" [
<!ATTLIST g
xmlns:kvg CDATA #FIXED "http://kanjivg.tagaini.net"
kvg:element CDATA #IMPLIED
kvg:variant CDATA #IMPLIED
kvg:partial CDATA #IMPLIED
kvg:original CDATA #IMPLIED
kvg:part CDATA #IMPLIED
kvg:number CDATA #IMPLIED
kvg:tradForm CDATA #IMPLIED
kvg:radicalForm CDATA #IMPLIED
kvg:position CDATA #IMPLIED
kvg:radical CDATA #IMPLIED
kvg:phon CDATA #IMPLIED >
<!ATTLIST path
xmlns:kvg CDATA #FIXED "http://kanjivg.tagaini.net"
kvg:type CDATA #IMPLIED >
]><svg style="width: 1600px; height: 100px;" xmlns="http://www.w3.org/2000/svg" xmlns:xlink="http://www.w3.org/1999/xlink" width="1600px" height="100px"><style>
.stroke_order_diagram--outer_container {
  width: 100%;
  overflow-x: auto;
  overflow-y: hidden;
}

.stroke_order_diagram--guide_line {
  fill: none;
  stroke: #ddd;
  stroke-width: 3;
  stroke-linecap: square;
  stroke-linejoin: square;
  stroke-dasharray:8, 8;
}

.stroke_order_diagram--bounding_box {
  fill: none;
  stroke: #ddd;
  stroke-width: 4;
  stroke-linecap: square;
  stroke-linejoin: square;
}

.stroke_order_diagram--current_path {
  fill: none;
  stroke: #000;
  stroke-width: 6;
  stroke-linecap: round;
  stroke-linejoin: round;
}

.stroke_order_diagram--existing_path {
  fill: none;
  stroke: #aaa;
  stroke-width: 6;
  stroke-linecap: round;
  stroke-linejoin:round;
}

.stroke_order_diagram--path_start {
  fill: rgba(255, 0, 0, 0.7);
  stroke:none
}</style><desc>Created with Snap</desc><defs></defs><line x1="1" x2="1599" y1="1" y2="1" class="stroke_order_diagram--bounding_box"></line><line x1="1" x2="1" y1="1" y2="99" class="stroke_order_diagram--bounding_box"></line><line x1="1" x2="1599" y1="99" y2="99" class="stroke_order_diagram--bounding_box"></line><line x1="0" x2="1600" y1="50" y2="50" class="stroke_order_diagram--guide_line"></line><line x1="50" x2="50" y1="1" y2="99" class="stroke_order_diagram--guide_line"></line><line x1="99" x2="99" y1="1" y2="99" class="stroke_order_diagram--bounding_box"></line><path id="kvg:09f8d-s1" kvg:type="㇑a" d="M30.62,12.25c0.61,0.62,1.53,2,1.53,3.58c0,2.17,0,3.42,0,6.85" transform="matrix(1,0,0,1,-4,-4)" class="stroke_order_diagram--current_path"></path><path id="pathSk940yk7k8cs" kvg:type="㇑a" d="M30.62,12.25c0.61,0.62,1.53,2,1.53,3.58c0,2.17,0,3.42,0,6.85" transform="matrix(1,0,0,1,-4,-4)" class="stroke_order_diagram--current_path"></path><circle cx="30.62" cy="12.25" r="8" class="stroke_order_diagram--path_start" transform="matrix(1,0,0,1,-4,-4)"></circle><line x1="150" x2="150" y1="1" y2="99" class="stroke_order_diagram--guide_line"></line><line x1="199" x2="199" y1="1" y2="99" class="stroke_order_diagram--bounding_box"></line><path id="pathSk940yk7k8cv" kvg:type="㇑a" d="M30.62,12.25c0.61,0.62,1.53,2,1.53,3.58c0,2.17,0,3.42,0,6.85" transform="matrix(1,0,0,1,96,-4)" class="stroke_order_diagram--existing_path"></path><path id="kvg:09f8d-s2" kvg:type="㇐" d="M14.6,24.83c0.66,0.3,2.94,0.35,3.6,0.3c3.74-0.26,25-3.69,30.65-3.91c1.1-0.04,1.77,0.14,2.32,0.3" transform="matrix(1,0,0,1,96,-4)" class="stroke_order_diagram--current_path"></path><path id="pathSk940yk7k8cx" kvg:type="㇐" d="M14.6,24.83c0.66,0.3,2.94,0.35,3.6,0.3c3.74-0.26,25-3.69,30.65-3.91c1.1-0.04,1.77,0.14,2.32,0.3" transform="matrix(1,0,0,1,96,-4)" class="stroke_order_diagram--current_path"></path><circle cx="14.6" cy="24.83" r="8" class="stroke_order_diagram--path_start" transform="matrix(1,0,0,1,96,-4)"></circle><line x1="250" x2="250" y1="1" y2="99" class="stroke_order_diagram--guide_line"></line><line x1="299" x2="299" y1="1" y2="99" class="stroke_order_diagram--bounding_box"></line><path id="pathSk940yk7k8d0" kvg:type="㇑a" d="M30.62,12.25c0.61,0.62,1.53,2,1.53,3.58c0,2.17,0,3.42,0,6.85" transform="matrix(1,0,0,1,196,-4)" class="stroke_order_diagram--existing_path"></path><path id="pathSk940yk7k8d1" kvg:type="㇐" d="M14.6,24.83c0.66,0.3,2.94,0.35,3.6,0.3c3.74-0.26,25-3.69,30.65-3.91c1.1-0.04,1.77,0.14,2.32,0.3" transform="matrix(1,0,0,1,196,-4)" class="stroke_order_diagram--existing_path"></path><path id="kvg:09f8d-s3" kvg:type="㇔" d="M22.32,28.77c2.25,3.98,3.28,8.05,3.48,10.67" transform="matrix(1,0,0,1,196,-4)" class="stroke_order_diagram--current_path"></path><path id="pathSk940yk7k8d3" kvg:type="㇔" d="M22.32,28.77c2.25,3.98,3.28,8.05,3.48,10.67" transform="matrix(1,0,0,1,196,-4)" class="stroke_order_diagram--current_path"></path><circle cx="22.32" cy="28.77" r="8" class="stroke_order_diagram--path_start" transform="matrix(1,0,0,1,196,-4)"></circle><line x1="350" x2="350" y1="1" y2="99" class="stroke_order_diagram--guide_line"></line><line x1="399" x2="399" y1="1" y2="99" class="stroke_order_diagram--bounding_box"></line><path id="pathSk940yk7k8d6" kvg:type="㇑a" d="M30.62,12.25c0.61,0.62,1.53,2,1.53,3.58c0,2.17,0,3.42,0,6.85" transform="matrix(1,0,0,1,296,-4)" class="stroke_order_diagram--existing_path"></path><path id="pathSk940yk7k8d7" kvg:type="㇐" d="M14.6,24.83c0.66,0.3,2.94,0.35,3.6,0.3c3.74-0.26,25-3.69,30.65-3.91c1.1-0.04,1.77,0.14,2.32,0.3" transform="matrix(1,0,0,1,296,-4)" class="stroke_order_diagram--existing_path"></path><path id="pathSk940yk7k8d8" kvg:type="㇔" d="M22.32,28.77c2.25,3.98,3.28,8.05,3.48,10.67" transform="matrix(1,0,0,1,296,-4)" class="stroke_order_diagram--existing_path"></path><path id="kvg:09f8d-s4" kvg:type="㇒" d="M42.57,25.18c0.53,0.45,0.59,1.67,0.53,2.04c-0.42,2.53-4.81,10.05-5.86,11.98" transform="matrix(1,0,0,1,296,-4)" class="stroke_order_diagram--current_path"></path><path id="pathSk940yk7k8da" kvg:type="㇒" d="M42.57,25.18c0.53,0.45,0.59,1.67,0.53,2.04c-0.42,2.53-4.81,10.05-5.86,11.98" transform="matrix(1,0,0,1,296,-4)" class="stroke_order_diagram--current_path"></path><circle cx="42.57" cy="25.18" r="8" class="stroke_order_diagram--path_start" transform="matrix(1,0,0,1,296,-4)"></circle><line x1="450" x2="450" y1="1" y2="99" class="stroke_order_diagram--guide_line"></line><line x1="499" x2="499" y1="1" y2="99" class="stroke_order_diagram--bounding_box"></line><path id="pathSk940yk7k8dd" kvg:type="㇑a" d="M30.62,12.25c0.61,0.62,1.53,2,1.53,3.58c0,2.17,0,3.42,0,6.85" transform="matrix(1,0,0,1,396,-4)" class="stroke_order_diagram--existing_path"></path><path id="pathSk940yk7k8de" kvg:type="㇐" d="M14.6,24.83c0.66,0.3,2.94,0.35,3.6,0.3c3.74-0.26,25-3.69,30.65-3.91c1.1-0.04,1.77,0.14,2.32,0.3" transform="matrix(1,0,0,1,396,-4)" class="stroke_order_diagram--existing_path"></path><path id="pathSk940yk7k8df" kvg:type="㇔" d="M22.32,28.77c2.25,3.98,3.28,8.05,3.48,10.67" transform="matrix(1,0,0,1,396,-4)" class="stroke_order_diagram--existing_path"></path><path id="pathSk940yk7k8dg" kvg:type="㇒" d="M42.57,25.18c0.53,0.45,0.59,1.67,0.53,2.04c-0.42,2.53-4.81,10.05-5.86,11.98" transform="matrix(1,0,0,1,396,-4)" class="stroke_order_diagram--existing_path"></path><path id="kvg:09f8d-s5" kvg:type="㇐" d="M10.75,42.71c0.8,0.42,1.72,0.47,2.52,0.42c9.48-0.63,28.09-3.94,38.15-4.81c1.33-0.11,2.13,0.2,2.79,0.41" transform="matrix(1,0,0,1,396,-4)" class="stroke_order_diagram--current_path"></path><path id="pathSk940yk7k8di" kvg:type="㇐" d="M10.75,42.71c0.8,0.42,1.72,0.47,2.52,0.42c9.48-0.63,28.09-3.94,38.15-4.81c1.33-0.11,2.13,0.2,2.79,0.41" transform="matrix(1,0,0,1,396,-4)" class="stroke_order_diagram--current_path"></path><circle cx="10.75" cy="42.71" r="8" class="stroke_order_diagram--path_start" transform="matrix(1,0,0,1,396,-4)"></circle><line x1="550" x2="550" y1="1" y2="99" class="stroke_order_diagram--guide_line"></line><line x1="599" x2="599" y1="1" y2="99" class="stroke_order_diagram--bounding_box"></line><path id="pathSk940yk7k8dl" kvg:type="㇑a" d="M30.62,12.25c0.61,0.62,1.53,2,1.53,3.58c0,2.17,0,3.42,0,6.85" transform="matrix(1,0,0,1,496,-4)" class="stroke_order_diagram--existing_path"></path><path id="pathSk940yk7k8dm" kvg:type="㇐" d="M14.6,24.83c0.66,0.3,2.94,0.35,3.6,0.3c3.74-0.26,25-3.69,30.65-3.91c1.1-0.04,1.77,0.14,2.32,0.3" transform="matrix(1,0,0,1,496,-4)" class="stroke_order_diagram--existing_path"></path><path id="pathSk940yk7k8dn" kvg:type="㇔" d="M22.32,28.77c2.25,3.98,3.28,8.05,3.48,10.67" transform="matrix(1,0,0,1,496,-4)" class="stroke_order_diagram--existing_path"></path><path id="pathSk940yk7k8do" kvg:type="㇒" d="M42.57,25.18c0.53,0.45,0.59,1.67,0.53,2.04c-0.42,2.53-4.81,10.05-5.86,11.98" transform="matrix(1,0,0,1,496,-4)" class="stroke_order_diagram--existing_path"></path><path id="pathSk940yk7k8dp" kvg:type="㇐" d="M10.75,42.71c0.8,0.42,1.72,0.47,2.52,0.42c9.48-0.63,28.09-3.94,38.15-4.81c1.33-0.11,2.13,0.2,2.79,0.41" transform="matrix(1,0,0,1,496,-4)" class="stroke_order_diagram--existing_path"></path><path id="kvg:09f8d-s6" kvg:type="㇒" d="M20.17,51.99c0.47,0.63,0.78,1.26,0.93,1.88c0.16,0.63,0.22,41.54,0.16,42.95" transform="matrix(1,0,0,1,496,-4)" class="stroke_order_diagram--current_path"></path><path id="pathSk940yk7k8dr" kvg:type="㇒" d="M20.17,51.99c0.47,0.63,0.78,1.26,0.93,1.88c0.16,0.63,0.22,41.54,0.16,42.95" transform="matrix(1,0,0,1,496,-4)" class="stroke_order_diagram--current_path"></path><circle cx="20.17" cy="51.99" r="8" class="stroke_order_diagram--path_start" transform="matrix(1,0,0,1,496,-4)"></circle><line x1="650" x2="650" y1="1" y2="99" class="stroke_order_diagram--guide_line"></line><line x1="699" x2="699" y1="1" y2="99" class="stroke_order_diagram--bounding_box"></line><path id="pathSk940yk7k8du" kvg:type="㇑a" d="M30.62,12.25c0.61,0.62,1.53,2,1.53,3.58c0,2.17,0,3.42,0,6.85" transform="matrix(1,0,0,1,596,-4)" class="stroke_order_diagram--existing_path"></path><path id="pathSk940yk7k8dv" kvg:type="㇐" d="M14.6,24.83c0.66,0.3,2.94,0.35,3.6,0.3c3.74-0.26,25-3.69,30.65-3.91c1.1-0.04,1.77,0.14,2.32,0.3" transform="matrix(1,0,0,1,596,-4)" class="stroke_order_diagram--existing_path"></path><path id="pathSk940yk7k8dw" kvg:type="㇔" d="M22.32,28.77c2.25,3.98,3.28,8.05,3.48,10.67" transform="matrix(1,0,0,1,596,-4)" class="stroke_order_diagram--existing_path"></path><path id="pathSk940yk7k8dx" kvg:type="㇒" d="M42.57,25.18c0.53,0.45,0.59,1.67,0.53,2.04c-0.42,2.53-4.81,10.05-5.86,11.98" transform="matrix(1,0,0,1,596,-4)" class="stroke_order_diagram--existing_path"></path><path id="pathSk940yk7k8dy" kvg:type="㇐" d="M10.75,42.71c0.8,0.42,1.72,0.47,2.52,0.42c9.48-0.63,28.09-3.94,38.15-4.81c1.33-0.11,2.13,0.2,2.79,0.41" transform="matrix(1,0,0,1,596,-4)" class="stroke_order_diagram--existing_path"></path><path id="pathSk940yk7k8dz" kvg:type="㇒" d="M20.17,51.99c0.47,0.63,0.78,1.26,0.93,1.88c0.16,0.63,0.22,41.54,0.16,42.95" transform="matrix(1,0,0,1,596,-4)" class="stroke_order_diagram--existing_path"></path><path id="kvg:09f8d-s7" kvg:type="㇕" d="M22.03,52.61c1.87-0.16,19-2.81,20.39-2.98c2.49-0.31,3.42,2.04,3.11,2.98c-0.3,0.91-0.47,23.41-0.47,36.12c0,11.27-3.38,6.33-6.79,2.91" transform="matrix(1,0,0,1,596,-4)" class="stroke_order_diagram--current_path"></path><path id="pathSk940yk7k8e1" kvg:type="㇕" d="M22.03,52.61c1.87-0.16,19-2.81,20.39-2.98c2.49-0.31,3.42,2.04,3.11,2.98c-0.3,0.91-0.47,23.41-0.47,36.12c0,11.27-3.38,6.33-6.79,2.91" transform="matrix(1,0,0,1,596,-4)" class="stroke_order_diagram--current_path"></path><circle cx="22.03" cy="52.61" r="8" class="stroke_order_diagram--path_start" transform="matrix(1,0,0,1,596,-4)"></circle><line x1="750" x2="750" y1="1" y2="99" class="stroke_order_diagram--guide_line"></line><line x1="799" x2="799" y1="1" y2="99" class="stroke_order_diagram--bounding_box"></line><path id="pathSk940yk7k8e4" kvg:type="㇑a" d="M30.62,12.25c0.61,0.62,1.53,2,1.53,3.58c0,2.17,0,3.42,0,6.85" transform="matrix(1,0,0,1,696,-4)" class="stroke_order_diagram--existing_path"></path><path id="pathSk940yk7k8e5" kvg:type="㇐" d="M14.6,24.83c0.66,0.3,2.94,0.35,3.6,0.3c3.74-0.26,25-3.69,30.65-3.91c1.1-0.04,1.77,0.14,2.32,0.3" transform="matrix(1,0,0,1,696,-4)" class="stroke_order_diagram--existing_path"></path><path id="pathSk940yk7k8e6" kvg:type="㇔" d="M22.32,28.77c2.25,3.98,3.28,8.05,3.48,10.67" transform="matrix(1,0,0,1,696,-4)" class="stroke_order_diagram--existing_path"></path><path id="pathSk940yk7k8e7" kvg:type="㇒" d="M42.57,25.18c0.53,0.45,0.59,1.67,0.53,2.04c-0.42,2.53-4.81,10.05-5.86,11.98" transform="matrix(1,0,0,1,696,-4)" class="stroke_order_diagram--existing_path"></path><path id="pathSk940yk7k8e8" kvg:type="㇐" d="M10.75,42.71c0.8,0.42,1.72,0.47,2.52,0.42c9.48-0.63,28.09-3.94,38.15-4.81c1.33-0.11,2.13,0.2,2.79,0.41" transform="matrix(1,0,0,1,696,-4)" class="stroke_order_diagram--existing_path"></path><path id="pathSk940yk7k8e9" kvg:type="㇒" d="M20.17,51.99c0.47,0.63,0.78,1.26,0.93,1.88c0.16,0.63,0.22,41.54,0.16,42.95" transform="matrix(1,0,0,1,696,-4)" class="stroke_order_diagram--existing_path"></path><path id="pathSk940yk7k8ea" kvg:type="㇕" d="M22.03,52.61c1.87-0.16,19-2.81,20.39-2.98c2.49-0.31,3.42,2.04,3.11,2.98c-0.3,0.91-0.47,23.41-0.47,36.12c0,11.27-3.38,6.33-6.79,2.91" transform="matrix(1,0,0,1,696,-4)" class="stroke_order_diagram--existing_path"></path><path id="kvg:09f8d-s8" kvg:type="㇐" d="M22.03,64.19c6.38-0.94,16.81-1.85,22.41-2.32" transform="matrix(1,0,0,1,696,-4)" class="stroke_order_diagram--current_path"></path><path id="pathSk940yk7k8ec" kvg:type="㇐" d="M22.03,64.19c6.38-0.94,16.81-1.85,22.41-2.32" transform="matrix(1,0,0,1,696,-4)" class="stroke_order_diagram--current_path"></path><circle cx="22.03" cy="64.19" r="8" class="stroke_order_diagram--path_start" transform="matrix(1,0,0,1,696,-4)"></circle><line x1="850" x2="850" y1="1" y2="99" class="stroke_order_diagram--guide_line"></line><line x1="899" x2="899" y1="1" y2="99" class="stroke_order_diagram--bounding_box"></line><path id="pathSk940yk7k8ef" kvg:type="㇑a" d="M30.62,12.25c0.61,0.62,1.53,2,1.53,3.58c0,2.17,0,3.42,0,6.85" transform="matrix(1,0,0,1,796,-4)" class="stroke_order_diagram--existing_path"></path><path id="pathSk940yk7k8eg" kvg:type="㇐" d="M14.6,24.83c0.66,0.3,2.94,0.35,3.6,0.3c3.74-0.26,25-3.69,30.65-3.91c1.1-0.04,1.77,0.14,2.32,0.3" transform="matrix(1,0,0,1,796,-4)" class="stroke_order_diagram--existing_path"></path><path id="pathSk940yk7k8eh" kvg:type="㇔" d="M22.32,28.77c2.25,3.98,3.28,8.05,3.48,10.67" transform="matrix(1,0,0,1,796,-4)" class="stroke_order_diagram--existing_path"></path><path id="pathSk940yk7k8ei" kvg:type="㇒" d="M42.57,25.18c0.53,0.45,0.59,1.67,0.53,2.04c-0.42,2.53-4.81,10.05-5.86,11.98" transform="matrix(1,0,0,1,796,-4)" class="stroke_order_diagram--existing_path"></path><path id="pathSk940yk7k8ej" kvg:type="㇐" d="M10.75,42.71c0.8,0.42,1.72,0.47,2.52,0.42c9.48-0.63,28.09-3.94,38.15-4.81c1.33-0.11,2.13,0.2,2.79,0.41" transform="matrix(1,0,0,1,796,-4)" class="stroke_order_diagram--existing_path"></path><path id="pathSk940yk7k8ek" kvg:type="㇒" d="M20.17,51.99c0.47,0.63,0.78,1.26,0.93,1.88c0.16,0.63,0.22,41.54,0.16,42.95" transform="matrix(1,0,0,1,796,-4)" class="stroke_order_diagram--existing_path"></path><path id="pathSk940yk7k8el" kvg:type="㇕" d="M22.03,52.61c1.87-0.16,19-2.81,20.39-2.98c2.49-0.31,3.42,2.04,3.11,2.98c-0.3,0.91-0.47,23.41-0.47,36.12c0,11.27-3.38,6.33-6.79,2.91" transform="matrix(1,0,0,1,796,-4)" class="stroke_order_diagram--existing_path"></path><path id="pathSk940yk7k8em" kvg:type="㇐" d="M22.03,64.19c6.38-0.94,16.81-1.85,22.41-2.32" transform="matrix(1,0,0,1,796,-4)" class="stroke_order_diagram--existing_path"></path><path id="kvg:09f8d-s9" kvg:type="㇐" d="M22.5,75.59c4.98-0.47,15.88-1.88,21.64-2.2" transform="matrix(1,0,0,1,796,-4)" class="stroke_order_diagram--current_path"></path><path id="pathSk940yk7k8eo" kvg:type="㇐" d="M22.5,75.59c4.98-0.47,15.88-1.88,21.64-2.2" transform="matrix(1,0,0,1,796,-4)" class="stroke_order_diagram--current_path"></path><circle cx="22.5" cy="75.59" r="8" class="stroke_order_diagram--path_start" transform="matrix(1,0,0,1,796,-4)"></circle><line x1="950" x2="950" y1="1" y2="99" class="stroke_order_diagram--guide_line"></line><line x1="999" x2="999" y1="1" y2="99" class="stroke_order_diagram--bounding_box"></line><path id="pathSk940yk7k8er" kvg:type="㇑a" d="M30.62,12.25c0.61,0.62,1.53,2,1.53,3.58c0,2.17,0,3.42,0,6.85" transform="matrix(1,0,0,1,896,-4)" class="stroke_order_diagram--existing_path"></path><path id="pathSk940yk7k8es" kvg:type="㇐" d="M14.6,24.83c0.66,0.3,2.94,0.35,3.6,0.3c3.74-0.26,25-3.69,30.65-3.91c1.1-0.04,1.77,0.14,2.32,0.3" transform="matrix(1,0,0,1,896,-4)" class="stroke_order_diagram--existing_path"></path><path id="pathSk940yk7k8et" kvg:type="㇔" d="M22.32,28.77c2.25,3.98,3.28,8.05,3.48,10.67" transform="matrix(1,0,0,1,896,-4)" class="stroke_order_diagram--existing_path"></path><path id="pathSk940yk7k8eu" kvg:type="㇒" d="M42.57,25.18c0.53,0.45,0.59,1.67,0.53,2.04c-0.42,2.53-4.81,10.05-5.86,11.98" transform="matrix(1,0,0,1,896,-4)" class="stroke_order_diagram--existing_path"></path><path id="pathSk940yk7k8ev" kvg:type="㇐" d="M10.75,42.71c0.8,0.42,1.72,0.47,2.52,0.42c9.48-0.63,28.09-3.94,38.15-4.81c1.33-0.11,2.13,0.2,2.79,0.41" transform="matrix(1,0,0,1,896,-4)" class="stroke_order_diagram--existing_path"></path><path id="pathSk940yk7k8ew" kvg:type="㇒" d="M20.17,51.99c0.47,0.63,0.78,1.26,0.93,1.88c0.16,0.63,0.22,41.54,0.16,42.95" transform="matrix(1,0,0,1,896,-4)" class="stroke_order_diagram--existing_path"></path><path id="pathSk940yk7k8ex" kvg:type="㇕" d="M22.03,52.61c1.87-0.16,19-2.81,20.39-2.98c2.49-0.31,3.42,2.04,3.11,2.98c-0.3,0.91-0.47,23.41-0.47,36.12c0,11.27-3.38,6.33-6.79,2.91" transform="matrix(1,0,0,1,896,-4)" class="stroke_order_diagram--existing_path"></path><path id="pathSk940yk7k8ey" kvg:type="㇐" d="M22.03,64.19c6.38-0.94,16.81-1.85,22.41-2.32" transform="matrix(1,0,0,1,896,-4)" class="stroke_order_diagram--existing_path"></path><path id="pathSk940yk7k8ez" kvg:type="㇐" d="M22.5,75.59c4.98-0.47,15.88-1.88,21.64-2.2" transform="matrix(1,0,0,1,896,-4)" class="stroke_order_diagram--existing_path"></path><path id="kvg:09f8d-s10" kvg:type="㇐" d="M66.25,23.25c4.76-0.52,14.5-2.5,19.89-3.47c1.23-0.22,1.99,0.14,2.61,0.3" transform="matrix(1,0,0,1,896,-4)" class="stroke_order_diagram--current_path"></path><path id="pathSk940yk7k8f1" kvg:type="㇐" d="M66.25,23.25c4.76-0.52,14.5-2.5,19.89-3.47c1.23-0.22,1.99,0.14,2.61,0.3" transform="matrix(1,0,0,1,896,-4)" class="stroke_order_diagram--current_path"></path><circle cx="66.25" cy="23.25" r="8" class="stroke_order_diagram--path_start" transform="matrix(1,0,0,1,896,-4)"></circle><line x1="1050" x2="1050" y1="1" y2="99" class="stroke_order_diagram--guide_line"></line><line x1="1099" x2="1099" y1="1" y2="99" class="stroke_order_diagram--bounding_box"></line><path id="pathSk940yk7k8f4" kvg:type="㇑a" d="M30.62,12.25c0.61,0.62,1.53,2,1.53,3.58c0,2.17,0,3.42,0,6.85" transform="matrix(1,0,0,1,996,-4)" class="stroke_order_diagram--existing_path"></path><path id="pathSk940yk7k8f5" kvg:type="㇐" d="M14.6,24.83c0.66,0.3,2.94,0.35,3.6,0.3c3.74-0.26,25-3.69,30.65-3.91c1.1-0.04,1.77,0.14,2.32,0.3" transform="matrix(1,0,0,1,996,-4)" class="stroke_order_diagram--existing_path"></path><path id="pathSk940yk7k8f6" kvg:type="㇔" d="M22.32,28.77c2.25,3.98,3.28,8.05,3.48,10.67" transform="matrix(1,0,0,1,996,-4)" class="stroke_order_diagram--existing_path"></path><path id="pathSk940yk7k8f7" kvg:type="㇒" d="M42.57,25.18c0.53,0.45,0.59,1.67,0.53,2.04c-0.42,2.53-4.81,10.05-5.86,11.98" transform="matrix(1,0,0,1,996,-4)" class="stroke_order_diagram--existing_path"></path><path id="pathSk940yk7k8f8" kvg:type="㇐" d="M10.75,42.71c0.8,0.42,1.72,0.47,2.52,0.42c9.48-0.63,28.09-3.94,38.15-4.81c1.33-0.11,2.13,0.2,2.79,0.41" transform="matrix(1,0,0,1,996,-4)" class="stroke_order_diagram--existing_path"></path><path id="pathSk940yk7k8f9" kvg:type="㇒" d="M20.17,51.99c0.47,0.63,0.78,1.26,0.93,1.88c0.16,0.63,0.22,41.54,0.16,42.95" transform="matrix(1,0,0,1,996,-4)" class="stroke_order_diagram--existing_path"></path><path id="pathSk940yk7k8fa" kvg:type="㇕" d="M22.03,52.61c1.87-0.16,19-2.81,20.39-2.98c2.49-0.31,3.42,2.04,3.11,2.98c-0.3,0.91-0.47,23.41-0.47,36.12c0,11.27-3.38,6.33-6.79,2.91" transform="matrix(1,0,0,1,996,-4)" class="stroke_order_diagram--existing_path"></path><path id="pathSk940yk7k8fb" kvg:type="㇐" d="M22.03,64.19c6.38-0.94,16.81-1.85,22.41-2.32" transform="matrix(1,0,0,1,996,-4)" class="stroke_order_diagram--existing_path"></path><path id="pathSk940yk7k8fc" kvg:type="㇐" d="M22.5,75.59c4.98-0.47,15.88-1.88,21.64-2.2" transform="matrix(1,0,0,1,996,-4)" class="stroke_order_diagram--existing_path"></path><path id="pathSk940yk7k8fd" kvg:type="㇐" d="M66.25,23.25c4.76-0.52,14.5-2.5,19.89-3.47c1.23-0.22,1.99,0.14,2.61,0.3" transform="matrix(1,0,0,1,996,-4)" class="stroke_order_diagram--existing_path"></path><path id="kvg:09f8d-s11" kvg:type="㇅" d="M63.14,12.49c1.39,1.06,1.79,3.65,1.81,5.13c0.05,3.13-0.2,12.88-0.34,17.21c-0.03,0.93,0.28,2.08,2.81,1.64c5.58-0.97,13.71-2.21,19.85-3.49c3.48-0.72,3.58,0.81,3.03,2.42c-1.05,3.1-1.72,8.43-2.8,13.85" transform="matrix(1,0,0,1,996,-4)" class="stroke_order_diagram--current_path"></path><path id="pathSk940yk7k8ff" kvg:type="㇅" d="M63.14,12.49c1.39,1.06,1.79,3.65,1.81,5.13c0.05,3.13-0.2,12.88-0.34,17.21c-0.03,0.93,0.28,2.08,2.81,1.64c5.58-0.97,13.71-2.21,19.85-3.49c3.48-0.72,3.58,0.81,3.03,2.42c-1.05,3.1-1.72,8.43-2.8,13.85" transform="matrix(1,0,0,1,996,-4)" class="stroke_order_diagram--current_path"></path><circle cx="63.14" cy="12.49" r="8" class="stroke_order_diagram--path_start" transform="matrix(1,0,0,1,996,-4)"></circle><line x1="1150" x2="1150" y1="1" y2="99" class="stroke_order_diagram--guide_line"></line><line x1="1199" x2="1199" y1="1" y2="99" class="stroke_order_diagram--bounding_box"></line><path id="pathSk940yk7k8fi" kvg:type="㇑a" d="M30.62,12.25c0.61,0.62,1.53,2,1.53,3.58c0,2.17,0,3.42,0,6.85" transform="matrix(1,0,0,1,1096,-4)" class="stroke_order_diagram--existing_path"></path><path id="pathSk940yk7k8fj" kvg:type="㇐" d="M14.6,24.83c0.66,0.3,2.94,0.35,3.6,0.3c3.74-0.26,25-3.69,30.65-3.91c1.1-0.04,1.77,0.14,2.32,0.3" transform="matrix(1,0,0,1,1096,-4)" class="stroke_order_diagram--existing_path"></path><path id="pathSk940yk7k8fk" kvg:type="㇔" d="M22.32,28.77c2.25,3.98,3.28,8.05,3.48,10.67" transform="matrix(1,0,0,1,1096,-4)" class="stroke_order_diagram--existing_path"></path><path id="pathSk940yk7k8fl" kvg:type="㇒" d="M42.57,25.18c0.53,0.45,0.59,1.67,0.53,2.04c-0.42,2.53-4.81,10.05-5.86,11.98" transform="matrix(1,0,0,1,1096,-4)" class="stroke_order_diagram--existing_path"></path><path id="pathSk940yk7k8fm" kvg:type="㇐" d="M10.75,42.71c0.8,0.42,1.72,0.47,2.52,0.42c9.48-0.63,28.09-3.94,38.15-4.81c1.33-0.11,2.13,0.2,2.79,0.41" transform="matrix(1,0,0,1,1096,-4)" class="stroke_order_diagram--existing_path"></path><path id="pathSk940yk7k8fn" kvg:type="㇒" d="M20.17,51.99c0.47,0.63,0.78,1.26,0.93,1.88c0.16,0.63,0.22,41.54,0.16,42.95" transform="matrix(1,0,0,1,1096,-4)" class="stroke_order_diagram--existing_path"></path><path id="pathSk940yk7k8fo" kvg:type="㇕" d="M22.03,52.61c1.87-0.16,19-2.81,20.39-2.98c2.49-0.31,3.42,2.04,3.11,2.98c-0.3,0.91-0.47,23.41-0.47,36.12c0,11.27-3.38,6.33-6.79,2.91" transform="matrix(1,0,0,1,1096,-4)" class="stroke_order_diagram--existing_path"></path><path id="pathSk940yk7k8fp" kvg:type="㇐" d="M22.03,64.19c6.38-0.94,16.81-1.85,22.41-2.32" transform="matrix(1,0,0,1,1096,-4)" class="stroke_order_diagram--existing_path"></path><path id="pathSk940yk7k8fq" kvg:type="㇐" d="M22.5,75.59c4.98-0.47,15.88-1.88,21.64-2.2" transform="matrix(1,0,0,1,1096,-4)" class="stroke_order_diagram--existing_path"></path><path id="pathSk940yk7k8fr" kvg:type="㇐" d="M66.25,23.25c4.76-0.52,14.5-2.5,19.89-3.47c1.23-0.22,1.99,0.14,2.61,0.3" transform="matrix(1,0,0,1,1096,-4)" class="stroke_order_diagram--existing_path"></path><path id="pathSk940yk7k8fs" kvg:type="㇅" d="M63.14,12.49c1.39,1.06,1.79,3.65,1.81,5.13c0.05,3.13-0.2,12.88-0.34,17.21c-0.03,0.93,0.28,2.08,2.81,1.64c5.58-0.97,13.71-2.21,19.85-3.49c3.48-0.72,3.58,0.81,3.03,2.42c-1.05,3.1-1.72,8.43-2.8,13.85" transform="matrix(1,0,0,1,1096,-4)" class="stroke_order_diagram--existing_path"></path><path id="kvg:09f8d-s12" kvg:type="㇐" d="M64.75,51.75c4.76-0.53,14.75-2.5,21.39-2.97" transform="matrix(1,0,0,1,1096,-4)" class="stroke_order_diagram--current_path"></path><path id="pathSk940yk7k8fu" kvg:type="㇐" d="M64.75,51.75c4.76-0.53,14.75-2.5,21.39-2.97" transform="matrix(1,0,0,1,1096,-4)" class="stroke_order_diagram--current_path"></path><circle cx="64.75" cy="51.75" r="8" class="stroke_order_diagram--path_start" transform="matrix(1,0,0,1,1096,-4)"></circle><line x1="1250" x2="1250" y1="1" y2="99" class="stroke_order_diagram--guide_line"></line><line x1="1299" x2="1299" y1="1" y2="99" class="stroke_order_diagram--bounding_box"></line><path id="pathSk940yk7k8fx" kvg:type="㇑a" d="M30.62,12.25c0.61,0.62,1.53,2,1.53,3.58c0,2.17,0,3.42,0,6.85" transform="matrix(1,0,0,1,1196,-4)" class="stroke_order_diagram--existing_path"></path><path id="pathSk940yk7k8fy" kvg:type="㇐" d="M14.6,24.83c0.66,0.3,2.94,0.35,3.6,0.3c3.74-0.26,25-3.69,30.65-3.91c1.1-0.04,1.77,0.14,2.32,0.3" transform="matrix(1,0,0,1,1196,-4)" class="stroke_order_diagram--existing_path"></path><path id="pathSk940yk7k8fz" kvg:type="㇔" d="M22.32,28.77c2.25,3.98,3.28,8.05,3.48,10.67" transform="matrix(1,0,0,1,1196,-4)" class="stroke_order_diagram--existing_path"></path><path id="pathSk940yk7k8g0" kvg:type="㇒" d="M42.57,25.18c0.53,0.45,0.59,1.67,0.53,2.04c-0.42,2.53-4.81,10.05-5.86,11.98" transform="matrix(1,0,0,1,1196,-4)" class="stroke_order_diagram--existing_path"></path><path id="pathSk940yk7k8g1" kvg:type="㇐" d="M10.75,42.71c0.8,0.42,1.72,0.47,2.52,0.42c9.48-0.63,28.09-3.94,38.15-4.81c1.33-0.11,2.13,0.2,2.79,0.41" transform="matrix(1,0,0,1,1196,-4)" class="stroke_order_diagram--existing_path"></path><path id="pathSk940yk7k8g2" kvg:type="㇒" d="M20.17,51.99c0.47,0.63,0.78,1.26,0.93,1.88c0.16,0.63,0.22,41.54,0.16,42.95" transform="matrix(1,0,0,1,1196,-4)" class="stroke_order_diagram--existing_path"></path><path id="pathSk940yk7k8g3" kvg:type="㇕" d="M22.03,52.61c1.87-0.16,19-2.81,20.39-2.98c2.49-0.31,3.42,2.04,3.11,2.98c-0.3,0.91-0.47,23.41-0.47,36.12c0,11.27-3.38,6.33-6.79,2.91" transform="matrix(1,0,0,1,1196,-4)" class="stroke_order_diagram--existing_path"></path><path id="pathSk940yk7k8g4" kvg:type="㇐" d="M22.03,64.19c6.38-0.94,16.81-1.85,22.41-2.32" transform="matrix(1,0,0,1,1196,-4)" class="stroke_order_diagram--existing_path"></path><path id="pathSk940yk7k8g5" kvg:type="㇐" d="M22.5,75.59c4.98-0.47,15.88-1.88,21.64-2.2" transform="matrix(1,0,0,1,1196,-4)" class="stroke_order_diagram--existing_path"></path><path id="pathSk940yk7k8g6" kvg:type="㇐" d="M66.25,23.25c4.76-0.52,14.5-2.5,19.89-3.47c1.23-0.22,1.99,0.14,2.61,0.3" transform="matrix(1,0,0,1,1196,-4)" class="stroke_order_diagram--existing_path"></path><path id="pathSk940yk7k8g7" kvg:type="㇅" d="M63.14,12.49c1.39,1.06,1.79,3.65,1.81,5.13c0.05,3.13-0.2,12.88-0.34,17.21c-0.03,0.93,0.28,2.08,2.81,1.64c5.58-0.97,13.71-2.21,19.85-3.49c3.48-0.72,3.58,0.81,3.03,2.42c-1.05,3.1-1.72,8.43-2.8,13.85" transform="matrix(1,0,0,1,1196,-4)" class="stroke_order_diagram--existing_path"></path><path id="pathSk940yk7k8g8" kvg:type="㇐" d="M64.75,51.75c4.76-0.53,14.75-2.5,21.39-2.97" transform="matrix(1,0,0,1,1196,-4)" class="stroke_order_diagram--existing_path"></path><path id="kvg:09f8d-s13" kvg:type="㇟" d="M62.99,49.37c0.74,1.19,1.33,2.59,1.38,4.43c0.2,8.19-0.53,24.64-0.53,30.2c0,13,8.9,11.53,17.67,11.53c14,0,14.89-2.78,14.89-9.12" transform="matrix(1,0,0,1,1196,-4)" class="stroke_order_diagram--current_path"></path><path id="pathSk940yk7k8ga" kvg:type="㇟" d="M62.99,49.37c0.74,1.19,1.33,2.59,1.38,4.43c0.2,8.19-0.53,24.64-0.53,30.2c0,13,8.9,11.53,17.67,11.53c14,0,14.89-2.78,14.89-9.12" transform="matrix(1,0,0,1,1196,-4)" class="stroke_order_diagram--current_path"></path><circle cx="62.99" cy="49.37" r="8" class="stroke_order_diagram--path_start" transform="matrix(1,0,0,1,1196,-4)"></circle><line x1="1350" x2="1350" y1="1" y2="99" class="stroke_order_diagram--guide_line"></line><line x1="1399" x2="1399" y1="1" y2="99" class="stroke_order_diagram--bounding_box"></line><path id="pathSk940yk7k8gd" kvg:type="㇑a" d="M30.62,12.25c0.61,0.62,1.53,2,1.53,3.58c0,2.17,0,3.42,0,6.85" transform="matrix(1,0,0,1,1296,-4)" class="stroke_order_diagram--existing_path"></path><path id="pathSk940yk7k8ge" kvg:type="㇐" d="M14.6,24.83c0.66,0.3,2.94,0.35,3.6,0.3c3.74-0.26,25-3.69,30.65-3.91c1.1-0.04,1.77,0.14,2.32,0.3" transform="matrix(1,0,0,1,1296,-4)" class="stroke_order_diagram--existing_path"></path><path id="pathSk940yk7k8gf" kvg:type="㇔" d="M22.32,28.77c2.25,3.98,3.28,8.05,3.48,10.67" transform="matrix(1,0,0,1,1296,-4)" class="stroke_order_diagram--existing_path"></path><path id="pathSk940yk7k8gg" kvg:type="㇒" d="M42.57,25.18c0.53,0.45,0.59,1.67,0.53,2.04c-0.42,2.53-4.81,10.05-5.86,11.98" transform="matrix(1,0,0,1,1296,-4)" class="stroke_order_diagram--existing_path"></path><path id="pathSk940yk7k8gh" kvg:type="㇐" d="M10.75,42.71c0.8,0.42,1.72,0.47,2.52,0.42c9.48-0.63,28.09-3.94,38.15-4.81c1.33-0.11,2.13,0.2,2.79,0.41" transform="matrix(1,0,0,1,1296,-4)" class="stroke_order_diagram--existing_path"></path><path id="pathSk940yk7k8gi" kvg:type="㇒" d="M20.17,51.99c0.47,0.63,0.78,1.26,0.93,1.88c0.16,0.63,0.22,41.54,0.16,42.95" transform="matrix(1,0,0,1,1296,-4)" class="stroke_order_diagram--existing_path"></path><path id="pathSk940yk7k8gj" kvg:type="㇕" d="M22.03,52.61c1.87-0.16,19-2.81,20.39-2.98c2.49-0.31,3.42,2.04,3.11,2.98c-0.3,0.91-0.47,23.41-0.47,36.12c0,11.27-3.38,6.33-6.79,2.91" transform="matrix(1,0,0,1,1296,-4)" class="stroke_order_diagram--existing_path"></path><path id="pathSk940yk7k8gk" kvg:type="㇐" d="M22.03,64.19c6.38-0.94,16.81-1.85,22.41-2.32" transform="matrix(1,0,0,1,1296,-4)" class="stroke_order_diagram--existing_path"></path><path id="pathSk940yk7k8gl" kvg:type="㇐" d="M22.5,75.59c4.98-0.47,15.88-1.88,21.64-2.2" transform="matrix(1,0,0,1,1296,-4)" class="stroke_order_diagram--existing_path"></path><path id="pathSk940yk7k8gm" kvg:type="㇐" d="M66.25,23.25c4.76-0.52,14.5-2.5,19.89-3.47c1.23-0.22,1.99,0.14,2.61,0.3" transform="matrix(1,0,0,1,1296,-4)" class="stroke_order_diagram--existing_path"></path><path id="pathSk940yk7k8gn" kvg:type="㇅" d="M63.14,12.49c1.39,1.06,1.79,3.65,1.81,5.13c0.05,3.13-0.2,12.88-0.34,17.21c-0.03,0.93,0.28,2.08,2.81,1.64c5.58-0.97,13.71-2.21,19.85-3.49c3.48-0.72,3.58,0.81,3.03,2.42c-1.05,3.1-1.72,8.43-2.8,13.85" transform="matrix(1,0,0,1,1296,-4)" class="stroke_order_diagram--existing_path"></path><path id="pathSk940yk7k8go" kvg:type="㇐" d="M64.75,51.75c4.76-0.53,14.75-2.5,21.39-2.97" transform="matrix(1,0,0,1,1296,-4)" class="stroke_order_diagram--existing_path"></path><path id="pathSk940yk7k8gp" kvg:type="㇟" d="M62.99,49.37c0.74,1.19,1.33,2.59,1.38,4.43c0.2,8.19-0.53,24.64-0.53,30.2c0,13,8.9,11.53,17.67,11.53c14,0,14.89-2.78,14.89-9.12" transform="matrix(1,0,0,1,1296,-4)" class="stroke_order_diagram--existing_path"></path><path id="kvg:09f8d-s14" kvg:type="㇐" d="M65,61.54c4.76-0.53,15.5-2,20.89-2.97c1.23-0.22,1.99,0.14,2.61,0.3" transform="matrix(1,0,0,1,1296,-4)" class="stroke_order_diagram--current_path"></path><path id="pathSk940yk7k8gr" kvg:type="㇐" d="M65,61.54c4.76-0.53,15.5-2,20.89-2.97c1.23-0.22,1.99,0.14,2.61,0.3" transform="matrix(1,0,0,1,1296,-4)" class="stroke_order_diagram--current_path"></path><circle cx="65" cy="61.54" r="8" class="stroke_order_diagram--path_start" transform="matrix(1,0,0,1,1296,-4)"></circle><line x1="1450" x2="1450" y1="1" y2="99" class="stroke_order_diagram--guide_line"></line><line x1="1499" x2="1499" y1="1" y2="99" class="stroke_order_diagram--bounding_box"></line><path id="pathSk940yk7k8gu" kvg:type="㇑a" d="M30.62,12.25c0.61,0.62,1.53,2,1.53,3.58c0,2.17,0,3.42,0,6.85" transform="matrix(1,0,0,1,1396,-4)" class="stroke_order_diagram--existing_path"></path><path id="pathSk940yk7k8gv" kvg:type="㇐" d="M14.6,24.83c0.66,0.3,2.94,0.35,3.6,0.3c3.74-0.26,25-3.69,30.65-3.91c1.1-0.04,1.77,0.14,2.32,0.3" transform="matrix(1,0,0,1,1396,-4)" class="stroke_order_diagram--existing_path"></path><path id="pathSk940yk7k8gw" kvg:type="㇔" d="M22.32,28.77c2.25,3.98,3.28,8.05,3.48,10.67" transform="matrix(1,0,0,1,1396,-4)" class="stroke_order_diagram--existing_path"></path><path id="pathSk940yk7k8gx" kvg:type="㇒" d="M42.57,25.18c0.53,0.45,0.59,1.67,0.53,2.04c-0.42,2.53-4.81,10.05-5.86,11.98" transform="matrix(1,0,0,1,1396,-4)" class="stroke_order_diagram--existing_path"></path><path id="pathSk940yk7k8gy" kvg:type="㇐" d="M10.75,42.71c0.8,0.42,1.72,0.47,2.52,0.42c9.48-0.63,28.09-3.94,38.15-4.81c1.33-0.11,2.13,0.2,2.79,0.41" transform="matrix(1,0,0,1,1396,-4)" class="stroke_order_diagram--existing_path"></path><path id="pathSk940yk7k8gz" kvg:type="㇒" d="M20.17,51.99c0.47,0.63,0.78,1.26,0.93,1.88c0.16,0.63,0.22,41.54,0.16,42.95" transform="matrix(1,0,0,1,1396,-4)" class="stroke_order_diagram--existing_path"></path><path id="pathSk940yk7k8h0" kvg:type="㇕" d="M22.03,52.61c1.87-0.16,19-2.81,20.39-2.98c2.49-0.31,3.42,2.04,3.11,2.98c-0.3,0.91-0.47,23.41-0.47,36.12c0,11.27-3.38,6.33-6.79,2.91" transform="matrix(1,0,0,1,1396,-4)" class="stroke_order_diagram--existing_path"></path><path id="pathSk940yk7k8h1" kvg:type="㇐" d="M22.03,64.19c6.38-0.94,16.81-1.85,22.41-2.32" transform="matrix(1,0,0,1,1396,-4)" class="stroke_order_diagram--existing_path"></path><path id="pathSk940yk7k8h2" kvg:type="㇐" d="M22.5,75.59c4.98-0.47,15.88-1.88,21.64-2.2" transform="matrix(1,0,0,1,1396,-4)" class="stroke_order_diagram--existing_path"></path><path id="pathSk940yk7k8h3" kvg:type="㇐" d="M66.25,23.25c4.76-0.52,14.5-2.5,19.89-3.47c1.23-0.22,1.99,0.14,2.61,0.3" transform="matrix(1,0,0,1,1396,-4)" class="stroke_order_diagram--existing_path"></path><path id="pathSk940yk7k8h4" kvg:type="㇅" d="M63.14,12.49c1.39,1.06,1.79,3.65,1.81,5.13c0.05,3.13-0.2,12.88-0.34,17.21c-0.03,0.93,0.28,2.08,2.81,1.64c5.58-0.97,13.71-2.21,19.85-3.49c3.48-0.72,3.58,0.81,3.03,2.42c-1.05,3.1-1.72,8.43-2.8,13.85" transform="matrix(1,0,0,1,1396,-4)" class="stroke_order_diagram--existing_path"></path><path id="pathSk940yk7k8h5" kvg:type="㇐" d="M64.75,51.75c4.76-0.53,14.75-2.5,21.39-2.97" transform="matrix(1,0,0,1,1396,-4)" class="stroke_order_diagram--existing_path"></path><path id="pathSk940yk7k8h6" kvg:type="㇟" d="M62.99,49.37c0.74,1.19,1.33,2.59,1.38,4.43c0.2,8.19-0.53,24.64-0.53,30.2c0,13,8.9,11.53,17.67,11.53c14,0,14.89-2.78,14.89-9.12" transform="matrix(1,0,0,1,1396,-4)" class="stroke_order_diagram--existing_path"></path><path id="pathSk940yk7k8h7" kvg:type="㇐" d="M65,61.54c4.76-0.53,15.5-2,20.89-2.97c1.23-0.22,1.99,0.14,2.61,0.3" transform="matrix(1,0,0,1,1396,-4)" class="stroke_order_diagram--existing_path"></path><path id="kvg:09f8d-s15" kvg:type="㇐" d="M64.75,71c4.76-0.53,17-1.5,22.39-2.47c1.23-0.22,1.99,0.14,2.61,0.3" transform="matrix(1,0,0,1,1396,-4)" class="stroke_order_diagram--current_path"></path><path id="pathSk940yk7k8h9" kvg:type="㇐" d="M64.75,71c4.76-0.53,17-1.5,22.39-2.47c1.23-0.22,1.99,0.14,2.61,0.3" transform="matrix(1,0,0,1,1396,-4)" class="stroke_order_diagram--current_path"></path><circle cx="64.75" cy="71" r="8" class="stroke_order_diagram--path_start" transform="matrix(1,0,0,1,1396,-4)"></circle><line x1="1550" x2="1550" y1="1" y2="99" class="stroke_order_diagram--guide_line"></line><line x1="1599" x2="1599" y1="1" y2="99" class="stroke_order_diagram--bounding_box"></line><path id="pathSk940yk7k8hc" kvg:type="㇑a" d="M30.62,12.25c0.61,0.62,1.53,2,1.53,3.58c0,2.17,0,3.42,0,6.85" transform="matrix(1,0,0,1,1496,-4)" class="stroke_order_diagram--existing_path"></path><path id="pathSk940yk7k8hd" kvg:type="㇐" d="M14.6,24.83c0.66,0.3,2.94,0.35,3.6,0.3c3.74-0.26,25-3.69,30.65-3.91c1.1-0.04,1.77,0.14,2.32,0.3" transform="matrix(1,0,0,1,1496,-4)" class="stroke_order_diagram--existing_path"></path><path id="pathSk940yk7k8he" kvg:type="㇔" d="M22.32,28.77c2.25,3.98,3.28,8.05,3.48,10.67" transform="matrix(1,0,0,1,1496,-4)" class="stroke_order_diagram--existing_path"></path><path id="pathSk940yk7k8hf" kvg:type="㇒" d="M42.57,25.18c0.53,0.45,0.59,1.67,0.53,2.04c-0.42,2.53-4.81,10.05-5.86,11.98" transform="matrix(1,0,0,1,1496,-4)" class="stroke_order_diagram--existing_path"></path><path id="pathSk940yk7k8hg" kvg:type="㇐" d="M10.75,42.71c0.8,0.42,1.72,0.47,2.52,0.42c9.48-0.63,28.09-3.94,38.15-4.81c1.33-0.11,2.13,0.2,2.79,0.41" transform="matrix(1,0,0,1,1496,-4)" class="stroke_order_diagram--existing_path"></path><path id="pathSk940yk7k8hh" kvg:type="㇒" d="M20.17,51.99c0.47,0.63,0.78,1.26,0.93,1.88c0.16,0.63,0.22,41.54,0.16,42.95" transform="matrix(1,0,0,1,1496,-4)" class="stroke_order_diagram--existing_path"></path><path id="pathSk940yk7k8hi" kvg:type="㇕" d="M22.03,52.61c1.87-0.16,19-2.81,20.39-2.98c2.49-0.31,3.42,2.04,3.11,2.98c-0.3,0.91-0.47,23.41-0.47,36.12c0,11.27-3.38,6.33-6.79,2.91" transform="matrix(1,0,0,1,1496,-4)" class="stroke_order_diagram--existing_path"></path><path id="pathSk940yk7k8hj" kvg:type="㇐" d="M22.03,64.19c6.38-0.94,16.81-1.85,22.41-2.32" transform="matrix(1,0,0,1,1496,-4)" class="stroke_order_diagram--existing_path"></path><path id="pathSk940yk7k8hk" kvg:type="㇐" d="M22.5,75.59c4.98-0.47,15.88-1.88,21.64-2.2" transform="matrix(1,0,0,1,1496,-4)" class="stroke_order_diagram--existing_path"></path><path id="pathSk940yk7k8hl" kvg:type="㇐" d="M66.25,23.25c4.76-0.52,14.5-2.5,19.89-3.47c1.23-0.22,1.99,0.14,2.61,0.3" transform="matrix(1,0,0,1,1496,-4)" class="stroke_order_diagram--existing_path"></path><path id="pathSk940yk7k8hm" kvg:type="㇅" d="M63.14,12.49c1.39,1.06,1.79,3.65,1.81,5.13c0.05,3.13-0.2,12.88-0.34,17.21c-0.03,0.93,0.28,2.08,2.81,1.64c5.58-0.97,13.71-2.21,19.85-3.49c3.48-0.72,3.58,0.81,3.03,2.42c-1.05,3.1-1.72,8.43-2.8,13.85" transform="matrix(1,0,0,1,1496,-4)" class="stroke_order_diagram--existing_path"></path><path id="pathSk940yk7k8hn" kvg:type="㇐" d="M64.75,51.75c4.76-0.53,14.75-2.5,21.39-2.97" transform="matrix(1,0,0,1,1496,-4)" class="stroke_order_diagram--existing_path"></path><path id="pathSk940yk7k8ho" kvg:type="㇟" d="M62.99,49.37c0.74,1.19,1.33,2.59,1.38,4.43c0.2,8.19-0.53,24.64-0.53,30.2c0,13,8.9,11.53,17.67,11.53c14,0,14.89-2.78,14.89-9.12" transform="matrix(1,0,0,1,1496,-4)" class="stroke_order_diagram--existing_path"></path><path id="pathSk940yk7k8hp" kvg:type="㇐" d="M65,61.54c4.76-0.53,15.5-2,20.89-2.97c1.23-0.22,1.99,0.14,2.61,0.3" transform="matrix(1,0,0,1,1496,-4)" class="stroke_order_diagram--existing_path"></path><path id="pathSk940yk7k8hq" kvg:type="㇐" d="M64.75,71c4.76-0.53,17-1.5,22.39-2.47c1.23-0.22,1.99,0.14,2.61,0.3" transform="matrix(1,0,0,1,1496,-4)" class="stroke_order_diagram--existing_path"></path><path id="kvg:09f8d-s16" kvg:type="㇐" d="M64.25,81c4.76-0.53,18.5-2,23.89-2.97c1.23-0.22,1.99,0.14,2.61,0.3" transform="matrix(1,0,0,1,1496,-4)" class="stroke_order_diagram--current_path"></path><path id="pathSk940yk7k8hs" kvg:type="㇐" d="M64.25,81c4.76-0.53,18.5-2,23.89-2.97c1.23-0.22,1.99,0.14,2.61,0.3" transform="matrix(1,0,0,1,1496,-4)" class="stroke_order_diagram--current_path"></path><circle cx="64.25" cy="81" r="8" class="stroke_order_diagram--path_start" transform="matrix(1,0,0,1,1496,-4)"></circle></svg>