<?xml version="1.0" encoding="UTF-8"?>
<!DOCTYPE svg PUBLIC "-//W3C//DTD SVG 1.0//EN" "http://www.w3.org/TR/2001/REC-SVG-20010904/DTD/svg10.dtd" [
<!ATTLIST g
xmlns:kvg CDATA #FIXED "http://kanjivg.tagaini.net"
kvg:element CDATA #IMPLIED
kvg:variant CDATA #IMPLIED
kvg:partial CDATA #IMPLIED
kvg:original CDATA #IMPLIED
kvg:part CDATA #IMPLIED
kvg:number CDATA #IMPLIED
kvg:tradForm CDATA #IMPLIED
kvg:radicalForm CDATA #IMPLIED
kvg:position CDATA #IMPLIED
kvg:radical CDATA #IMPLIED
kvg:phon CDATA #IMPLIED >
<!ATTLIST path
xmlns:kvg CDATA #FIXED "http://kanjivg.tagaini.net"
kvg:type CDATA #IMPLIED >
]><svg style="width: 1600px; height: 100px;" xmlns="http://www.w3.org/2000/svg" xmlns:xlink="http://www.w3.org/1999/xlink" width="1600px" height="100px"><style>
.stroke_order_diagram--outer_container {
  width: 100%;
  overflow-x: auto;
  overflow-y: hidden;
}

.stroke_order_diagram--guide_line {
  fill: none;
  stroke: #ddd;
  stroke-width: 3;
  stroke-linecap: square;
  stroke-linejoin: square;
  stroke-dasharray:8, 8;
}

.stroke_order_diagram--bounding_box {
  fill: none;
  stroke: #ddd;
  stroke-width: 4;
  stroke-linecap: square;
  stroke-linejoin: square;
}

.stroke_order_diagram--current_path {
  fill: none;
  stroke: #000;
  stroke-width: 6;
  stroke-linecap: round;
  stroke-linejoin: round;
}

.stroke_order_diagram--existing_path {
  fill: none;
  stroke: #aaa;
  stroke-width: 6;
  stroke-linecap: round;
  stroke-linejoin:round;
}

.stroke_order_diagram--path_start {
  fill: rgba(255, 0, 0, 0.7);
  stroke:none
}</style><desc>Created with Snap</desc><defs></defs><line x1="1" x2="1599" y1="1" y2="1" class="stroke_order_diagram--bounding_box"></line><line x1="1" x2="1" y1="1" y2="99" class="stroke_order_diagram--bounding_box"></line><line x1="1" x2="1599" y1="99" y2="99" class="stroke_order_diagram--bounding_box"></line><line x1="0" x2="1600" y1="50" y2="50" class="stroke_order_diagram--guide_line"></line><line x1="50" x2="50" y1="1" y2="99" class="stroke_order_diagram--guide_line"></line><line x1="99" x2="99" y1="1" y2="99" class="stroke_order_diagram--bounding_box"></line><path id="kvg:09f9c-s1" kvg:type="㇒" d="M42,11c0.07,0.45,0.14,1.16-0.13,1.8C40.3,16.59,31.31,24.91,19,30" transform="matrix(1,0,0,1,-4,-4)" class="stroke_order_diagram--current_path"></path><path id="pathSk940yk7k8ii" kvg:type="㇒" d="M42,11c0.07,0.45,0.14,1.16-0.13,1.8C40.3,16.59,31.31,24.91,19,30" transform="matrix(1,0,0,1,-4,-4)" class="stroke_order_diagram--current_path"></path><circle cx="42" cy="11" r="8" class="stroke_order_diagram--path_start" transform="matrix(1,0,0,1,-4,-4)"></circle><line x1="150" x2="150" y1="1" y2="99" class="stroke_order_diagram--guide_line"></line><line x1="199" x2="199" y1="1" y2="99" class="stroke_order_diagram--bounding_box"></line><path id="pathSk940yk7k8il" kvg:type="㇒" d="M42,11c0.07,0.45,0.14,1.16-0.13,1.8C40.3,16.59,31.31,24.91,19,30" transform="matrix(1,0,0,1,96,-4)" class="stroke_order_diagram--existing_path"></path><path id="kvg:09f9c-s2" kvg:type="㇇" d="M39,17.53c4.75-0.28,18.62-1.67,22.94-3.29c3.31-1.24,4.81,0.26,2.31,3.13C62.04,19.91,60,22,56,26.75" transform="matrix(1,0,0,1,96,-4)" class="stroke_order_diagram--current_path"></path><path id="pathSk940yk7k8in" kvg:type="㇇" d="M39,17.53c4.75-0.28,18.62-1.67,22.94-3.29c3.31-1.24,4.81,0.26,2.31,3.13C62.04,19.91,60,22,56,26.75" transform="matrix(1,0,0,1,96,-4)" class="stroke_order_diagram--current_path"></path><circle cx="39" cy="17.53" r="8" class="stroke_order_diagram--path_start" transform="matrix(1,0,0,1,96,-4)"></circle><line x1="250" x2="250" y1="1" y2="99" class="stroke_order_diagram--guide_line"></line><line x1="299" x2="299" y1="1" y2="99" class="stroke_order_diagram--bounding_box"></line><path id="pathSk940yk7k8iq" kvg:type="㇒" d="M42,11c0.07,0.45,0.14,1.16-0.13,1.8C40.3,16.59,31.31,24.91,19,30" transform="matrix(1,0,0,1,196,-4)" class="stroke_order_diagram--existing_path"></path><path id="pathSk940yk7k8ir" kvg:type="㇇" d="M39,17.53c4.75-0.28,18.62-1.67,22.94-3.29c3.31-1.24,4.81,0.26,2.31,3.13C62.04,19.91,60,22,56,26.75" transform="matrix(1,0,0,1,196,-4)" class="stroke_order_diagram--existing_path"></path><path id="kvg:09f9c-s3" kvg:type="㇑" d="M26.22,29.05c0.62,0.62,0.71,1.02,0.98,1.83c0.93,2.79,1.55,7.12,1.99,10.97" transform="matrix(1,0,0,1,196,-4)" class="stroke_order_diagram--current_path"></path><path id="pathSk940yk7k8it" kvg:type="㇑" d="M26.22,29.05c0.62,0.62,0.71,1.02,0.98,1.83c0.93,2.79,1.55,7.12,1.99,10.97" transform="matrix(1,0,0,1,196,-4)" class="stroke_order_diagram--current_path"></path><circle cx="26.22" cy="29.05" r="8" class="stroke_order_diagram--path_start" transform="matrix(1,0,0,1,196,-4)"></circle><line x1="350" x2="350" y1="1" y2="99" class="stroke_order_diagram--guide_line"></line><line x1="399" x2="399" y1="1" y2="99" class="stroke_order_diagram--bounding_box"></line><path id="pathSk940yk7k8iw" kvg:type="㇒" d="M42,11c0.07,0.45,0.14,1.16-0.13,1.8C40.3,16.59,31.31,24.91,19,30" transform="matrix(1,0,0,1,296,-4)" class="stroke_order_diagram--existing_path"></path><path id="pathSk940yk7k8ix" kvg:type="㇇" d="M39,17.53c4.75-0.28,18.62-1.67,22.94-3.29c3.31-1.24,4.81,0.26,2.31,3.13C62.04,19.91,60,22,56,26.75" transform="matrix(1,0,0,1,296,-4)" class="stroke_order_diagram--existing_path"></path><path id="pathSk940yk7k8iy" kvg:type="㇑" d="M26.22,29.05c0.62,0.62,0.71,1.02,0.98,1.83c0.93,2.79,1.55,7.12,1.99,10.97" transform="matrix(1,0,0,1,296,-4)" class="stroke_order_diagram--existing_path"></path><path id="kvg:09f9c-s4" kvg:type="㇕" d="M27.46,30.48c8.64-1.28,46.5-4.52,51.98-5.37c2.01-0.31,3.23,0.82,2.94,1.91c-1.18,4.41-1.88,5.41-2.71,8.51" transform="matrix(1,0,0,1,296,-4)" class="stroke_order_diagram--current_path"></path><path id="pathSk940yk7k8j0" kvg:type="㇕" d="M27.46,30.48c8.64-1.28,46.5-4.52,51.98-5.37c2.01-0.31,3.23,0.82,2.94,1.91c-1.18,4.41-1.88,5.41-2.71,8.51" transform="matrix(1,0,0,1,296,-4)" class="stroke_order_diagram--current_path"></path><circle cx="27.46" cy="30.48" r="8" class="stroke_order_diagram--path_start" transform="matrix(1,0,0,1,296,-4)"></circle><line x1="450" x2="450" y1="1" y2="99" class="stroke_order_diagram--guide_line"></line><line x1="499" x2="499" y1="1" y2="99" class="stroke_order_diagram--bounding_box"></line><path id="pathSk940yk7k8j3" kvg:type="㇒" d="M42,11c0.07,0.45,0.14,1.16-0.13,1.8C40.3,16.59,31.31,24.91,19,30" transform="matrix(1,0,0,1,396,-4)" class="stroke_order_diagram--existing_path"></path><path id="pathSk940yk7k8j4" kvg:type="㇇" d="M39,17.53c4.75-0.28,18.62-1.67,22.94-3.29c3.31-1.24,4.81,0.26,2.31,3.13C62.04,19.91,60,22,56,26.75" transform="matrix(1,0,0,1,396,-4)" class="stroke_order_diagram--existing_path"></path><path id="pathSk940yk7k8j5" kvg:type="㇑" d="M26.22,29.05c0.62,0.62,0.71,1.02,0.98,1.83c0.93,2.79,1.55,7.12,1.99,10.97" transform="matrix(1,0,0,1,396,-4)" class="stroke_order_diagram--existing_path"></path><path id="pathSk940yk7k8j6" kvg:type="㇕" d="M27.46,30.48c8.64-1.28,46.5-4.52,51.98-5.37c2.01-0.31,3.23,0.82,2.94,1.91c-1.18,4.41-1.88,5.41-2.71,8.51" transform="matrix(1,0,0,1,396,-4)" class="stroke_order_diagram--existing_path"></path><path id="kvg:09f9c-s5" kvg:type="㇐" d="M30.47,39.98c2.58,0,15.95-1.56,18.06-1.56" transform="matrix(1,0,0,1,396,-4)" class="stroke_order_diagram--current_path"></path><path id="pathSk940yk7k8j8" kvg:type="㇐" d="M30.47,39.98c2.58,0,15.95-1.56,18.06-1.56" transform="matrix(1,0,0,1,396,-4)" class="stroke_order_diagram--current_path"></path><circle cx="30.47" cy="39.98" r="8" class="stroke_order_diagram--path_start" transform="matrix(1,0,0,1,396,-4)"></circle><line x1="550" x2="550" y1="1" y2="99" class="stroke_order_diagram--guide_line"></line><line x1="599" x2="599" y1="1" y2="99" class="stroke_order_diagram--bounding_box"></line><path id="pathSk940yk7k8jb" kvg:type="㇒" d="M42,11c0.07,0.45,0.14,1.16-0.13,1.8C40.3,16.59,31.31,24.91,19,30" transform="matrix(1,0,0,1,496,-4)" class="stroke_order_diagram--existing_path"></path><path id="pathSk940yk7k8jc" kvg:type="㇇" d="M39,17.53c4.75-0.28,18.62-1.67,22.94-3.29c3.31-1.24,4.81,0.26,2.31,3.13C62.04,19.91,60,22,56,26.75" transform="matrix(1,0,0,1,496,-4)" class="stroke_order_diagram--existing_path"></path><path id="pathSk940yk7k8jd" kvg:type="㇑" d="M26.22,29.05c0.62,0.62,0.71,1.02,0.98,1.83c0.93,2.79,1.55,7.12,1.99,10.97" transform="matrix(1,0,0,1,496,-4)" class="stroke_order_diagram--existing_path"></path><path id="pathSk940yk7k8je" kvg:type="㇕" d="M27.46,30.48c8.64-1.28,46.5-4.52,51.98-5.37c2.01-0.31,3.23,0.82,2.94,1.91c-1.18,4.41-1.88,5.41-2.71,8.51" transform="matrix(1,0,0,1,496,-4)" class="stroke_order_diagram--existing_path"></path><path id="pathSk940yk7k8jf" kvg:type="㇐" d="M30.47,39.98c2.58,0,15.95-1.56,18.06-1.56" transform="matrix(1,0,0,1,496,-4)" class="stroke_order_diagram--existing_path"></path><path id="kvg:09f9c-s6" kvg:type="㇐" d="M60.57,37.87c4.69-0.44,18.53-2.11,21.34-2.11" transform="matrix(1,0,0,1,496,-4)" class="stroke_order_diagram--current_path"></path><path id="pathSk940yk7k8jh" kvg:type="㇐" d="M60.57,37.87c4.69-0.44,18.53-2.11,21.34-2.11" transform="matrix(1,0,0,1,496,-4)" class="stroke_order_diagram--current_path"></path><circle cx="60.57" cy="37.87" r="8" class="stroke_order_diagram--path_start" transform="matrix(1,0,0,1,496,-4)"></circle><line x1="650" x2="650" y1="1" y2="99" class="stroke_order_diagram--guide_line"></line><line x1="699" x2="699" y1="1" y2="99" class="stroke_order_diagram--bounding_box"></line><path id="pathSk940yk7k8jk" kvg:type="㇒" d="M42,11c0.07,0.45,0.14,1.16-0.13,1.8C40.3,16.59,31.31,24.91,19,30" transform="matrix(1,0,0,1,596,-4)" class="stroke_order_diagram--existing_path"></path><path id="pathSk940yk7k8jl" kvg:type="㇇" d="M39,17.53c4.75-0.28,18.62-1.67,22.94-3.29c3.31-1.24,4.81,0.26,2.31,3.13C62.04,19.91,60,22,56,26.75" transform="matrix(1,0,0,1,596,-4)" class="stroke_order_diagram--existing_path"></path><path id="pathSk940yk7k8jm" kvg:type="㇑" d="M26.22,29.05c0.62,0.62,0.71,1.02,0.98,1.83c0.93,2.79,1.55,7.12,1.99,10.97" transform="matrix(1,0,0,1,596,-4)" class="stroke_order_diagram--existing_path"></path><path id="pathSk940yk7k8jn" kvg:type="㇕" d="M27.46,30.48c8.64-1.28,46.5-4.52,51.98-5.37c2.01-0.31,3.23,0.82,2.94,1.91c-1.18,4.41-1.88,5.41-2.71,8.51" transform="matrix(1,0,0,1,596,-4)" class="stroke_order_diagram--existing_path"></path><path id="pathSk940yk7k8jo" kvg:type="㇐" d="M30.47,39.98c2.58,0,15.95-1.56,18.06-1.56" transform="matrix(1,0,0,1,596,-4)" class="stroke_order_diagram--existing_path"></path><path id="pathSk940yk7k8jp" kvg:type="㇐" d="M60.57,37.87c4.69-0.44,18.53-2.11,21.34-2.11" transform="matrix(1,0,0,1,596,-4)" class="stroke_order_diagram--existing_path"></path><path id="kvg:09f9c-s7" kvg:type="㇑" d="M60.41,27.65c0.2,0.89,0,58.44-0.2,63.99" transform="matrix(1,0,0,1,596,-4)" class="stroke_order_diagram--current_path"></path><path id="pathSk940yk7k8jr" kvg:type="㇑" d="M60.41,27.65c0.2,0.89,0,58.44-0.2,63.99" transform="matrix(1,0,0,1,596,-4)" class="stroke_order_diagram--current_path"></path><circle cx="60.41" cy="27.65" r="8" class="stroke_order_diagram--path_start" transform="matrix(1,0,0,1,596,-4)"></circle><line x1="750" x2="750" y1="1" y2="99" class="stroke_order_diagram--guide_line"></line><line x1="799" x2="799" y1="1" y2="99" class="stroke_order_diagram--bounding_box"></line><path id="pathSk940yk7k8ju" kvg:type="㇒" d="M42,11c0.07,0.45,0.14,1.16-0.13,1.8C40.3,16.59,31.31,24.91,19,30" transform="matrix(1,0,0,1,696,-4)" class="stroke_order_diagram--existing_path"></path><path id="pathSk940yk7k8jv" kvg:type="㇇" d="M39,17.53c4.75-0.28,18.62-1.67,22.94-3.29c3.31-1.24,4.81,0.26,2.31,3.13C62.04,19.91,60,22,56,26.75" transform="matrix(1,0,0,1,696,-4)" class="stroke_order_diagram--existing_path"></path><path id="pathSk940yk7k8jw" kvg:type="㇑" d="M26.22,29.05c0.62,0.62,0.71,1.02,0.98,1.83c0.93,2.79,1.55,7.12,1.99,10.97" transform="matrix(1,0,0,1,696,-4)" class="stroke_order_diagram--existing_path"></path><path id="pathSk940yk7k8jx" kvg:type="㇕" d="M27.46,30.48c8.64-1.28,46.5-4.52,51.98-5.37c2.01-0.31,3.23,0.82,2.94,1.91c-1.18,4.41-1.88,5.41-2.71,8.51" transform="matrix(1,0,0,1,696,-4)" class="stroke_order_diagram--existing_path"></path><path id="pathSk940yk7k8jy" kvg:type="㇐" d="M30.47,39.98c2.58,0,15.95-1.56,18.06-1.56" transform="matrix(1,0,0,1,696,-4)" class="stroke_order_diagram--existing_path"></path><path id="pathSk940yk7k8jz" kvg:type="㇐" d="M60.57,37.87c4.69-0.44,18.53-2.11,21.34-2.11" transform="matrix(1,0,0,1,696,-4)" class="stroke_order_diagram--existing_path"></path><path id="pathSk940yk7k8k0" kvg:type="㇑" d="M60.41,27.65c0.2,0.89,0,58.44-0.2,63.99" transform="matrix(1,0,0,1,696,-4)" class="stroke_order_diagram--existing_path"></path><path id="kvg:09f9c-s8" kvg:type="㇟" d="M49.34,28.58c0,11.07-0.03,51.45-0.03,56.4C49.31,96.53,52.05,97,71.98,97c20.87,0,22.41-1.58,22.41-9.89" transform="matrix(1,0,0,1,696,-4)" class="stroke_order_diagram--current_path"></path><path id="pathSk940yk7k8k2" kvg:type="㇟" d="M49.34,28.58c0,11.07-0.03,51.45-0.03,56.4C49.31,96.53,52.05,97,71.98,97c20.87,0,22.41-1.58,22.41-9.89" transform="matrix(1,0,0,1,696,-4)" class="stroke_order_diagram--current_path"></path><circle cx="49.34" cy="28.58" r="8" class="stroke_order_diagram--path_start" transform="matrix(1,0,0,1,696,-4)"></circle><line x1="850" x2="850" y1="1" y2="99" class="stroke_order_diagram--guide_line"></line><line x1="899" x2="899" y1="1" y2="99" class="stroke_order_diagram--bounding_box"></line><path id="pathSk940yk7k8k5" kvg:type="㇒" d="M42,11c0.07,0.45,0.14,1.16-0.13,1.8C40.3,16.59,31.31,24.91,19,30" transform="matrix(1,0,0,1,796,-4)" class="stroke_order_diagram--existing_path"></path><path id="pathSk940yk7k8k6" kvg:type="㇇" d="M39,17.53c4.75-0.28,18.62-1.67,22.94-3.29c3.31-1.24,4.81,0.26,2.31,3.13C62.04,19.91,60,22,56,26.75" transform="matrix(1,0,0,1,796,-4)" class="stroke_order_diagram--existing_path"></path><path id="pathSk940yk7k8k7" kvg:type="㇑" d="M26.22,29.05c0.62,0.62,0.71,1.02,0.98,1.83c0.93,2.79,1.55,7.12,1.99,10.97" transform="matrix(1,0,0,1,796,-4)" class="stroke_order_diagram--existing_path"></path><path id="pathSk940yk7k8k8" kvg:type="㇕" d="M27.46,30.48c8.64-1.28,46.5-4.52,51.98-5.37c2.01-0.31,3.23,0.82,2.94,1.91c-1.18,4.41-1.88,5.41-2.71,8.51" transform="matrix(1,0,0,1,796,-4)" class="stroke_order_diagram--existing_path"></path><path id="pathSk940yk7k8k9" kvg:type="㇐" d="M30.47,39.98c2.58,0,15.95-1.56,18.06-1.56" transform="matrix(1,0,0,1,796,-4)" class="stroke_order_diagram--existing_path"></path><path id="pathSk940yk7k8ka" kvg:type="㇐" d="M60.57,37.87c4.69-0.44,18.53-2.11,21.34-2.11" transform="matrix(1,0,0,1,796,-4)" class="stroke_order_diagram--existing_path"></path><path id="pathSk940yk7k8kb" kvg:type="㇑" d="M60.41,27.65c0.2,0.89,0,58.44-0.2,63.99" transform="matrix(1,0,0,1,796,-4)" class="stroke_order_diagram--existing_path"></path><path id="pathSk940yk7k8kc" kvg:type="㇟" d="M49.34,28.58c0,11.07-0.03,51.45-0.03,56.4C49.31,96.53,52.05,97,71.98,97c20.87,0,22.41-1.58,22.41-9.89" transform="matrix(1,0,0,1,796,-4)" class="stroke_order_diagram--existing_path"></path><path id="kvg:09f9c-s9" kvg:type="㇕" d="M20.94,47.92c1.56,0.58,1.76,1.04,3.14,0.8c5.66-0.97,8.16-1.72,15.01-2.47c1.15-0.13,2.34,1.26,2.04,2.78c-0.79,3.97-1.37,5.42-2.43,12.25" transform="matrix(1,0,0,1,796,-4)" class="stroke_order_diagram--current_path"></path><path id="pathSk940yk7k8ke" kvg:type="㇕" d="M20.94,47.92c1.56,0.58,1.76,1.04,3.14,0.8c5.66-0.97,8.16-1.72,15.01-2.47c1.15-0.13,2.34,1.26,2.04,2.78c-0.79,3.97-1.37,5.42-2.43,12.25" transform="matrix(1,0,0,1,796,-4)" class="stroke_order_diagram--current_path"></path><circle cx="20.94" cy="47.92" r="8" class="stroke_order_diagram--path_start" transform="matrix(1,0,0,1,796,-4)"></circle><line x1="950" x2="950" y1="1" y2="99" class="stroke_order_diagram--guide_line"></line><line x1="999" x2="999" y1="1" y2="99" class="stroke_order_diagram--bounding_box"></line><path id="pathSk940yk7k8kh" kvg:type="㇒" d="M42,11c0.07,0.45,0.14,1.16-0.13,1.8C40.3,16.59,31.31,24.91,19,30" transform="matrix(1,0,0,1,896,-4)" class="stroke_order_diagram--existing_path"></path><path id="pathSk940yk7k8ki" kvg:type="㇇" d="M39,17.53c4.75-0.28,18.62-1.67,22.94-3.29c3.31-1.24,4.81,0.26,2.31,3.13C62.04,19.91,60,22,56,26.75" transform="matrix(1,0,0,1,896,-4)" class="stroke_order_diagram--existing_path"></path><path id="pathSk940yk7k8kj" kvg:type="㇑" d="M26.22,29.05c0.62,0.62,0.71,1.02,0.98,1.83c0.93,2.79,1.55,7.12,1.99,10.97" transform="matrix(1,0,0,1,896,-4)" class="stroke_order_diagram--existing_path"></path><path id="pathSk940yk7k8kk" kvg:type="㇕" d="M27.46,30.48c8.64-1.28,46.5-4.52,51.98-5.37c2.01-0.31,3.23,0.82,2.94,1.91c-1.18,4.41-1.88,5.41-2.71,8.51" transform="matrix(1,0,0,1,896,-4)" class="stroke_order_diagram--existing_path"></path><path id="pathSk940yk7k8kl" kvg:type="㇐" d="M30.47,39.98c2.58,0,15.95-1.56,18.06-1.56" transform="matrix(1,0,0,1,896,-4)" class="stroke_order_diagram--existing_path"></path><path id="pathSk940yk7k8km" kvg:type="㇐" d="M60.57,37.87c4.69-0.44,18.53-2.11,21.34-2.11" transform="matrix(1,0,0,1,896,-4)" class="stroke_order_diagram--existing_path"></path><path id="pathSk940yk7k8kn" kvg:type="㇑" d="M60.41,27.65c0.2,0.89,0,58.44-0.2,63.99" transform="matrix(1,0,0,1,896,-4)" class="stroke_order_diagram--existing_path"></path><path id="pathSk940yk7k8ko" kvg:type="㇟" d="M49.34,28.58c0,11.07-0.03,51.45-0.03,56.4C49.31,96.53,52.05,97,71.98,97c20.87,0,22.41-1.58,22.41-9.89" transform="matrix(1,0,0,1,896,-4)" class="stroke_order_diagram--existing_path"></path><path id="pathSk940yk7k8kp" kvg:type="㇕" d="M20.94,47.92c1.56,0.58,1.76,1.04,3.14,0.8c5.66-0.97,8.16-1.72,15.01-2.47c1.15-0.13,2.34,1.26,2.04,2.78c-0.79,3.97-1.37,5.42-2.43,12.25" transform="matrix(1,0,0,1,896,-4)" class="stroke_order_diagram--existing_path"></path><path id="kvg:09f9c-s10" kvg:type="㇕" d="M16.69,55.17c1.56,0.58,1.75,0.9,3.14,0.8c8.5-0.61,57.83-7.47,64.51-7.47c1.97,0,3,1.73,3.04,3.28c0.12,4.72-1.87,21.92-2.93,28.75" transform="matrix(1,0,0,1,896,-4)" class="stroke_order_diagram--current_path"></path><path id="pathSk940yk7k8kr" kvg:type="㇕" d="M16.69,55.17c1.56,0.58,1.75,0.9,3.14,0.8c8.5-0.61,57.83-7.47,64.51-7.47c1.97,0,3,1.73,3.04,3.28c0.12,4.72-1.87,21.92-2.93,28.75" transform="matrix(1,0,0,1,896,-4)" class="stroke_order_diagram--current_path"></path><circle cx="16.69" cy="55.17" r="8" class="stroke_order_diagram--path_start" transform="matrix(1,0,0,1,896,-4)"></circle><line x1="1050" x2="1050" y1="1" y2="99" class="stroke_order_diagram--guide_line"></line><line x1="1099" x2="1099" y1="1" y2="99" class="stroke_order_diagram--bounding_box"></line><path id="pathSk940yk7k8ku" kvg:type="㇒" d="M42,11c0.07,0.45,0.14,1.16-0.13,1.8C40.3,16.59,31.31,24.91,19,30" transform="matrix(1,0,0,1,996,-4)" class="stroke_order_diagram--existing_path"></path><path id="pathSk940yk7k8kv" kvg:type="㇇" d="M39,17.53c4.75-0.28,18.62-1.67,22.94-3.29c3.31-1.24,4.81,0.26,2.31,3.13C62.04,19.91,60,22,56,26.75" transform="matrix(1,0,0,1,996,-4)" class="stroke_order_diagram--existing_path"></path><path id="pathSk940yk7k8kw" kvg:type="㇑" d="M26.22,29.05c0.62,0.62,0.71,1.02,0.98,1.83c0.93,2.79,1.55,7.12,1.99,10.97" transform="matrix(1,0,0,1,996,-4)" class="stroke_order_diagram--existing_path"></path><path id="pathSk940yk7k8kx" kvg:type="㇕" d="M27.46,30.48c8.64-1.28,46.5-4.52,51.98-5.37c2.01-0.31,3.23,0.82,2.94,1.91c-1.18,4.41-1.88,5.41-2.71,8.51" transform="matrix(1,0,0,1,996,-4)" class="stroke_order_diagram--existing_path"></path><path id="pathSk940yk7k8ky" kvg:type="㇐" d="M30.47,39.98c2.58,0,15.95-1.56,18.06-1.56" transform="matrix(1,0,0,1,996,-4)" class="stroke_order_diagram--existing_path"></path><path id="pathSk940yk7k8kz" kvg:type="㇐" d="M60.57,37.87c4.69-0.44,18.53-2.11,21.34-2.11" transform="matrix(1,0,0,1,996,-4)" class="stroke_order_diagram--existing_path"></path><path id="pathSk940yk7k8l0" kvg:type="㇑" d="M60.41,27.65c0.2,0.89,0,58.44-0.2,63.99" transform="matrix(1,0,0,1,996,-4)" class="stroke_order_diagram--existing_path"></path><path id="pathSk940yk7k8l1" kvg:type="㇟" d="M49.34,28.58c0,11.07-0.03,51.45-0.03,56.4C49.31,96.53,52.05,97,71.98,97c20.87,0,22.41-1.58,22.41-9.89" transform="matrix(1,0,0,1,996,-4)" class="stroke_order_diagram--existing_path"></path><path id="pathSk940yk7k8l2" kvg:type="㇕" d="M20.94,47.92c1.56,0.58,1.76,1.04,3.14,0.8c5.66-0.97,8.16-1.72,15.01-2.47c1.15-0.13,2.34,1.26,2.04,2.78c-0.79,3.97-1.37,5.42-2.43,12.25" transform="matrix(1,0,0,1,996,-4)" class="stroke_order_diagram--existing_path"></path><path id="pathSk940yk7k8l3" kvg:type="㇕" d="M16.69,55.17c1.56,0.58,1.75,0.9,3.14,0.8c8.5-0.61,57.83-7.47,64.51-7.47c1.97,0,3,1.73,3.04,3.28c0.12,4.72-1.87,21.92-2.93,28.75" transform="matrix(1,0,0,1,996,-4)" class="stroke_order_diagram--existing_path"></path><path id="kvg:09f9c-s11" kvg:type="㇐" d="M21.36,63.37c0.76,0.09,2.14,0.4,3.04,0.28c10.61-1.4,14.92-2.39,15.83-2.3" transform="matrix(1,0,0,1,996,-4)" class="stroke_order_diagram--current_path"></path><path id="pathSk940yk7k8l5" kvg:type="㇐" d="M21.36,63.37c0.76,0.09,2.14,0.4,3.04,0.28c10.61-1.4,14.92-2.39,15.83-2.3" transform="matrix(1,0,0,1,996,-4)" class="stroke_order_diagram--current_path"></path><circle cx="21.36" cy="63.37" r="8" class="stroke_order_diagram--path_start" transform="matrix(1,0,0,1,996,-4)"></circle><line x1="1150" x2="1150" y1="1" y2="99" class="stroke_order_diagram--guide_line"></line><line x1="1199" x2="1199" y1="1" y2="99" class="stroke_order_diagram--bounding_box"></line><path id="pathSk940yk7k8l8" kvg:type="㇒" d="M42,11c0.07,0.45,0.14,1.16-0.13,1.8C40.3,16.59,31.31,24.91,19,30" transform="matrix(1,0,0,1,1096,-4)" class="stroke_order_diagram--existing_path"></path><path id="pathSk940yk7k8l9" kvg:type="㇇" d="M39,17.53c4.75-0.28,18.62-1.67,22.94-3.29c3.31-1.24,4.81,0.26,2.31,3.13C62.04,19.91,60,22,56,26.75" transform="matrix(1,0,0,1,1096,-4)" class="stroke_order_diagram--existing_path"></path><path id="pathSk940yk7k8la" kvg:type="㇑" d="M26.22,29.05c0.62,0.62,0.71,1.02,0.98,1.83c0.93,2.79,1.55,7.12,1.99,10.97" transform="matrix(1,0,0,1,1096,-4)" class="stroke_order_diagram--existing_path"></path><path id="pathSk940yk7k8lb" kvg:type="㇕" d="M27.46,30.48c8.64-1.28,46.5-4.52,51.98-5.37c2.01-0.31,3.23,0.82,2.94,1.91c-1.18,4.41-1.88,5.41-2.71,8.51" transform="matrix(1,0,0,1,1096,-4)" class="stroke_order_diagram--existing_path"></path><path id="pathSk940yk7k8lc" kvg:type="㇐" d="M30.47,39.98c2.58,0,15.95-1.56,18.06-1.56" transform="matrix(1,0,0,1,1096,-4)" class="stroke_order_diagram--existing_path"></path><path id="pathSk940yk7k8ld" kvg:type="㇐" d="M60.57,37.87c4.69-0.44,18.53-2.11,21.34-2.11" transform="matrix(1,0,0,1,1096,-4)" class="stroke_order_diagram--existing_path"></path><path id="pathSk940yk7k8le" kvg:type="㇑" d="M60.41,27.65c0.2,0.89,0,58.44-0.2,63.99" transform="matrix(1,0,0,1,1096,-4)" class="stroke_order_diagram--existing_path"></path><path id="pathSk940yk7k8lf" kvg:type="㇟" d="M49.34,28.58c0,11.07-0.03,51.45-0.03,56.4C49.31,96.53,52.05,97,71.98,97c20.87,0,22.41-1.58,22.41-9.89" transform="matrix(1,0,0,1,1096,-4)" class="stroke_order_diagram--existing_path"></path><path id="pathSk940yk7k8lg" kvg:type="㇕" d="M20.94,47.92c1.56,0.58,1.76,1.04,3.14,0.8c5.66-0.97,8.16-1.72,15.01-2.47c1.15-0.13,2.34,1.26,2.04,2.78c-0.79,3.97-1.37,5.42-2.43,12.25" transform="matrix(1,0,0,1,1096,-4)" class="stroke_order_diagram--existing_path"></path><path id="pathSk940yk7k8lh" kvg:type="㇕" d="M16.69,55.17c1.56,0.58,1.75,0.9,3.14,0.8c8.5-0.61,57.83-7.47,64.51-7.47c1.97,0,3,1.73,3.04,3.28c0.12,4.72-1.87,21.92-2.93,28.75" transform="matrix(1,0,0,1,1096,-4)" class="stroke_order_diagram--existing_path"></path><path id="pathSk940yk7k8li" kvg:type="㇐" d="M21.36,63.37c0.76,0.09,2.14,0.4,3.04,0.28c10.61-1.4,14.92-2.39,15.83-2.3" transform="matrix(1,0,0,1,1096,-4)" class="stroke_order_diagram--existing_path"></path><path id="kvg:09f9c-s12" kvg:type="㇕" d="M19.94,72.92c1.52,0.15,2.26,0.48,3.64,0.3C29.25,72.5,33.5,71,39.1,70.25c1.96-0.26,2.34,0.76,2.04,2.28c-0.79,3.97-1.37,10.42-2.43,17.25" transform="matrix(1,0,0,1,1096,-4)" class="stroke_order_diagram--current_path"></path><path id="pathSk940yk7k8lk" kvg:type="㇕" d="M19.94,72.92c1.52,0.15,2.26,0.48,3.64,0.3C29.25,72.5,33.5,71,39.1,70.25c1.96-0.26,2.34,0.76,2.04,2.28c-0.79,3.97-1.37,10.42-2.43,17.25" transform="matrix(1,0,0,1,1096,-4)" class="stroke_order_diagram--current_path"></path><circle cx="19.94" cy="72.92" r="8" class="stroke_order_diagram--path_start" transform="matrix(1,0,0,1,1096,-4)"></circle><line x1="1250" x2="1250" y1="1" y2="99" class="stroke_order_diagram--guide_line"></line><line x1="1299" x2="1299" y1="1" y2="99" class="stroke_order_diagram--bounding_box"></line><path id="pathSk940yk7k8ln" kvg:type="㇒" d="M42,11c0.07,0.45,0.14,1.16-0.13,1.8C40.3,16.59,31.31,24.91,19,30" transform="matrix(1,0,0,1,1196,-4)" class="stroke_order_diagram--existing_path"></path><path id="pathSk940yk7k8lo" kvg:type="㇇" d="M39,17.53c4.75-0.28,18.62-1.67,22.94-3.29c3.31-1.24,4.81,0.26,2.31,3.13C62.04,19.91,60,22,56,26.75" transform="matrix(1,0,0,1,1196,-4)" class="stroke_order_diagram--existing_path"></path><path id="pathSk940yk7k8lp" kvg:type="㇑" d="M26.22,29.05c0.62,0.62,0.71,1.02,0.98,1.83c0.93,2.79,1.55,7.12,1.99,10.97" transform="matrix(1,0,0,1,1196,-4)" class="stroke_order_diagram--existing_path"></path><path id="pathSk940yk7k8lq" kvg:type="㇕" d="M27.46,30.48c8.64-1.28,46.5-4.52,51.98-5.37c2.01-0.31,3.23,0.82,2.94,1.91c-1.18,4.41-1.88,5.41-2.71,8.51" transform="matrix(1,0,0,1,1196,-4)" class="stroke_order_diagram--existing_path"></path><path id="pathSk940yk7k8lr" kvg:type="㇐" d="M30.47,39.98c2.58,0,15.95-1.56,18.06-1.56" transform="matrix(1,0,0,1,1196,-4)" class="stroke_order_diagram--existing_path"></path><path id="pathSk940yk7k8ls" kvg:type="㇐" d="M60.57,37.87c4.69-0.44,18.53-2.11,21.34-2.11" transform="matrix(1,0,0,1,1196,-4)" class="stroke_order_diagram--existing_path"></path><path id="pathSk940yk7k8lt" kvg:type="㇑" d="M60.41,27.65c0.2,0.89,0,58.44-0.2,63.99" transform="matrix(1,0,0,1,1196,-4)" class="stroke_order_diagram--existing_path"></path><path id="pathSk940yk7k8lu" kvg:type="㇟" d="M49.34,28.58c0,11.07-0.03,51.45-0.03,56.4C49.31,96.53,52.05,97,71.98,97c20.87,0,22.41-1.58,22.41-9.89" transform="matrix(1,0,0,1,1196,-4)" class="stroke_order_diagram--existing_path"></path><path id="pathSk940yk7k8lv" kvg:type="㇕" d="M20.94,47.92c1.56,0.58,1.76,1.04,3.14,0.8c5.66-0.97,8.16-1.72,15.01-2.47c1.15-0.13,2.34,1.26,2.04,2.78c-0.79,3.97-1.37,5.42-2.43,12.25" transform="matrix(1,0,0,1,1196,-4)" class="stroke_order_diagram--existing_path"></path><path id="pathSk940yk7k8lw" kvg:type="㇕" d="M16.69,55.17c1.56,0.58,1.75,0.9,3.14,0.8c8.5-0.61,57.83-7.47,64.51-7.47c1.97,0,3,1.73,3.04,3.28c0.12,4.72-1.87,21.92-2.93,28.75" transform="matrix(1,0,0,1,1196,-4)" class="stroke_order_diagram--existing_path"></path><path id="pathSk940yk7k8lx" kvg:type="㇐" d="M21.36,63.37c0.76,0.09,2.14,0.4,3.04,0.28c10.61-1.4,14.92-2.39,15.83-2.3" transform="matrix(1,0,0,1,1196,-4)" class="stroke_order_diagram--existing_path"></path><path id="pathSk940yk7k8ly" kvg:type="㇕" d="M19.94,72.92c1.52,0.15,2.26,0.48,3.64,0.3C29.25,72.5,33.5,71,39.1,70.25c1.96-0.26,2.34,0.76,2.04,2.28c-0.79,3.97-1.37,10.42-2.43,17.25" transform="matrix(1,0,0,1,1196,-4)" class="stroke_order_diagram--existing_path"></path><path id="kvg:09f9c-s13" kvg:type="㇐c" d="M15.92,81.58c1.33,0.42,3.44,0.94,4.95,0.8c13.21-1.21,51.39-4.63,64.18-5.8" transform="matrix(1,0,0,1,1196,-4)" class="stroke_order_diagram--current_path"></path><path id="pathSk940yk7k8m0" kvg:type="㇐c" d="M15.92,81.58c1.33,0.42,3.44,0.94,4.95,0.8c13.21-1.21,51.39-4.63,64.18-5.8" transform="matrix(1,0,0,1,1196,-4)" class="stroke_order_diagram--current_path"></path><circle cx="15.92" cy="81.58" r="8" class="stroke_order_diagram--path_start" transform="matrix(1,0,0,1,1196,-4)"></circle><line x1="1350" x2="1350" y1="1" y2="99" class="stroke_order_diagram--guide_line"></line><line x1="1399" x2="1399" y1="1" y2="99" class="stroke_order_diagram--bounding_box"></line><path id="pathSk940yk7k8m3" kvg:type="㇒" d="M42,11c0.07,0.45,0.14,1.16-0.13,1.8C40.3,16.59,31.31,24.91,19,30" transform="matrix(1,0,0,1,1296,-4)" class="stroke_order_diagram--existing_path"></path><path id="pathSk940yk7k8m4" kvg:type="㇇" d="M39,17.53c4.75-0.28,18.62-1.67,22.94-3.29c3.31-1.24,4.81,0.26,2.31,3.13C62.04,19.91,60,22,56,26.75" transform="matrix(1,0,0,1,1296,-4)" class="stroke_order_diagram--existing_path"></path><path id="pathSk940yk7k8m5" kvg:type="㇑" d="M26.22,29.05c0.62,0.62,0.71,1.02,0.98,1.83c0.93,2.79,1.55,7.12,1.99,10.97" transform="matrix(1,0,0,1,1296,-4)" class="stroke_order_diagram--existing_path"></path><path id="pathSk940yk7k8m6" kvg:type="㇕" d="M27.46,30.48c8.64-1.28,46.5-4.52,51.98-5.37c2.01-0.31,3.23,0.82,2.94,1.91c-1.18,4.41-1.88,5.41-2.71,8.51" transform="matrix(1,0,0,1,1296,-4)" class="stroke_order_diagram--existing_path"></path><path id="pathSk940yk7k8m7" kvg:type="㇐" d="M30.47,39.98c2.58,0,15.95-1.56,18.06-1.56" transform="matrix(1,0,0,1,1296,-4)" class="stroke_order_diagram--existing_path"></path><path id="pathSk940yk7k8m8" kvg:type="㇐" d="M60.57,37.87c4.69-0.44,18.53-2.11,21.34-2.11" transform="matrix(1,0,0,1,1296,-4)" class="stroke_order_diagram--existing_path"></path><path id="pathSk940yk7k8m9" kvg:type="㇑" d="M60.41,27.65c0.2,0.89,0,58.44-0.2,63.99" transform="matrix(1,0,0,1,1296,-4)" class="stroke_order_diagram--existing_path"></path><path id="pathSk940yk7k8ma" kvg:type="㇟" d="M49.34,28.58c0,11.07-0.03,51.45-0.03,56.4C49.31,96.53,52.05,97,71.98,97c20.87,0,22.41-1.58,22.41-9.89" transform="matrix(1,0,0,1,1296,-4)" class="stroke_order_diagram--existing_path"></path><path id="pathSk940yk7k8mb" kvg:type="㇕" d="M20.94,47.92c1.56,0.58,1.76,1.04,3.14,0.8c5.66-0.97,8.16-1.72,15.01-2.47c1.15-0.13,2.34,1.26,2.04,2.78c-0.79,3.97-1.37,5.42-2.43,12.25" transform="matrix(1,0,0,1,1296,-4)" class="stroke_order_diagram--existing_path"></path><path id="pathSk940yk7k8mc" kvg:type="㇕" d="M16.69,55.17c1.56,0.58,1.75,0.9,3.14,0.8c8.5-0.61,57.83-7.47,64.51-7.47c1.97,0,3,1.73,3.04,3.28c0.12,4.72-1.87,21.92-2.93,28.75" transform="matrix(1,0,0,1,1296,-4)" class="stroke_order_diagram--existing_path"></path><path id="pathSk940yk7k8md" kvg:type="㇐" d="M21.36,63.37c0.76,0.09,2.14,0.4,3.04,0.28c10.61-1.4,14.92-2.39,15.83-2.3" transform="matrix(1,0,0,1,1296,-4)" class="stroke_order_diagram--existing_path"></path><path id="pathSk940yk7k8me" kvg:type="㇕" d="M19.94,72.92c1.52,0.15,2.26,0.48,3.64,0.3C29.25,72.5,33.5,71,39.1,70.25c1.96-0.26,2.34,0.76,2.04,2.28c-0.79,3.97-1.37,10.42-2.43,17.25" transform="matrix(1,0,0,1,1296,-4)" class="stroke_order_diagram--existing_path"></path><path id="pathSk940yk7k8mf" kvg:type="㇐c" d="M15.92,81.58c1.33,0.42,3.44,0.94,4.95,0.8c13.21-1.21,51.39-4.63,64.18-5.8" transform="matrix(1,0,0,1,1296,-4)" class="stroke_order_diagram--existing_path"></path><path id="kvg:09f9c-s14" kvg:type="㇐c" d="M19.86,91.37c0.76,0.09,2.13,0.33,3.04,0.28c6.36-0.4,14.36-1.15,17.45-1.39" transform="matrix(1,0,0,1,1296,-4)" class="stroke_order_diagram--current_path"></path><path id="pathSk940yk7k8mh" kvg:type="㇐c" d="M19.86,91.37c0.76,0.09,2.13,0.33,3.04,0.28c6.36-0.4,14.36-1.15,17.45-1.39" transform="matrix(1,0,0,1,1296,-4)" class="stroke_order_diagram--current_path"></path><circle cx="19.86" cy="91.37" r="8" class="stroke_order_diagram--path_start" transform="matrix(1,0,0,1,1296,-4)"></circle><line x1="1450" x2="1450" y1="1" y2="99" class="stroke_order_diagram--guide_line"></line><line x1="1499" x2="1499" y1="1" y2="99" class="stroke_order_diagram--bounding_box"></line><path id="pathSk940yk7k8mk" kvg:type="㇒" d="M42,11c0.07,0.45,0.14,1.16-0.13,1.8C40.3,16.59,31.31,24.91,19,30" transform="matrix(1,0,0,1,1396,-4)" class="stroke_order_diagram--existing_path"></path><path id="pathSk940yk7k8ml" kvg:type="㇇" d="M39,17.53c4.75-0.28,18.62-1.67,22.94-3.29c3.31-1.24,4.81,0.26,2.31,3.13C62.04,19.91,60,22,56,26.75" transform="matrix(1,0,0,1,1396,-4)" class="stroke_order_diagram--existing_path"></path><path id="pathSk940yk7k8mm" kvg:type="㇑" d="M26.22,29.05c0.62,0.62,0.71,1.02,0.98,1.83c0.93,2.79,1.55,7.12,1.99,10.97" transform="matrix(1,0,0,1,1396,-4)" class="stroke_order_diagram--existing_path"></path><path id="pathSk940yk7k8mn" kvg:type="㇕" d="M27.46,30.48c8.64-1.28,46.5-4.52,51.98-5.37c2.01-0.31,3.23,0.82,2.94,1.91c-1.18,4.41-1.88,5.41-2.71,8.51" transform="matrix(1,0,0,1,1396,-4)" class="stroke_order_diagram--existing_path"></path><path id="pathSk940yk7k8mo" kvg:type="㇐" d="M30.47,39.98c2.58,0,15.95-1.56,18.06-1.56" transform="matrix(1,0,0,1,1396,-4)" class="stroke_order_diagram--existing_path"></path><path id="pathSk940yk7k8mp" kvg:type="㇐" d="M60.57,37.87c4.69-0.44,18.53-2.11,21.34-2.11" transform="matrix(1,0,0,1,1396,-4)" class="stroke_order_diagram--existing_path"></path><path id="pathSk940yk7k8mq" kvg:type="㇑" d="M60.41,27.65c0.2,0.89,0,58.44-0.2,63.99" transform="matrix(1,0,0,1,1396,-4)" class="stroke_order_diagram--existing_path"></path><path id="pathSk940yk7k8mr" kvg:type="㇟" d="M49.34,28.58c0,11.07-0.03,51.45-0.03,56.4C49.31,96.53,52.05,97,71.98,97c20.87,0,22.41-1.58,22.41-9.89" transform="matrix(1,0,0,1,1396,-4)" class="stroke_order_diagram--existing_path"></path><path id="pathSk940yk7k8ms" kvg:type="㇕" d="M20.94,47.92c1.56,0.58,1.76,1.04,3.14,0.8c5.66-0.97,8.16-1.72,15.01-2.47c1.15-0.13,2.34,1.26,2.04,2.78c-0.79,3.97-1.37,5.42-2.43,12.25" transform="matrix(1,0,0,1,1396,-4)" class="stroke_order_diagram--existing_path"></path><path id="pathSk940yk7k8mt" kvg:type="㇕" d="M16.69,55.17c1.56,0.58,1.75,0.9,3.14,0.8c8.5-0.61,57.83-7.47,64.51-7.47c1.97,0,3,1.73,3.04,3.28c0.12,4.72-1.87,21.92-2.93,28.75" transform="matrix(1,0,0,1,1396,-4)" class="stroke_order_diagram--existing_path"></path><path id="pathSk940yk7k8mu" kvg:type="㇐" d="M21.36,63.37c0.76,0.09,2.14,0.4,3.04,0.28c10.61-1.4,14.92-2.39,15.83-2.3" transform="matrix(1,0,0,1,1396,-4)" class="stroke_order_diagram--existing_path"></path><path id="pathSk940yk7k8mv" kvg:type="㇕" d="M19.94,72.92c1.52,0.15,2.26,0.48,3.64,0.3C29.25,72.5,33.5,71,39.1,70.25c1.96-0.26,2.34,0.76,2.04,2.28c-0.79,3.97-1.37,10.42-2.43,17.25" transform="matrix(1,0,0,1,1396,-4)" class="stroke_order_diagram--existing_path"></path><path id="pathSk940yk7k8mw" kvg:type="㇐c" d="M15.92,81.58c1.33,0.42,3.44,0.94,4.95,0.8c13.21-1.21,51.39-4.63,64.18-5.8" transform="matrix(1,0,0,1,1396,-4)" class="stroke_order_diagram--existing_path"></path><path id="pathSk940yk7k8mx" kvg:type="㇐c" d="M19.86,91.37c0.76,0.09,2.13,0.33,3.04,0.28c6.36-0.4,14.36-1.15,17.45-1.39" transform="matrix(1,0,0,1,1396,-4)" class="stroke_order_diagram--existing_path"></path><path id="kvg:09f9c-s15" kvg:type="㇒" d="M78.02,53.64c0.03,0.45,0.07,1.16-0.07,1.8c-0.8,3.81-5.38,12.16-11.65,17.27" transform="matrix(1,0,0,1,1396,-4)" class="stroke_order_diagram--current_path"></path><path id="pathSk940yk7k8mz" kvg:type="㇒" d="M78.02,53.64c0.03,0.45,0.07,1.16-0.07,1.8c-0.8,3.81-5.38,12.16-11.65,17.27" transform="matrix(1,0,0,1,1396,-4)" class="stroke_order_diagram--current_path"></path><circle cx="78.02" cy="53.64" r="8" class="stroke_order_diagram--path_start" transform="matrix(1,0,0,1,1396,-4)"></circle><line x1="1550" x2="1550" y1="1" y2="99" class="stroke_order_diagram--guide_line"></line><line x1="1599" x2="1599" y1="1" y2="99" class="stroke_order_diagram--bounding_box"></line><path id="pathSk940yk7k8n2" kvg:type="㇒" d="M42,11c0.07,0.45,0.14,1.16-0.13,1.8C40.3,16.59,31.31,24.91,19,30" transform="matrix(1,0,0,1,1496,-4)" class="stroke_order_diagram--existing_path"></path><path id="pathSk940yk7k8n3" kvg:type="㇇" d="M39,17.53c4.75-0.28,18.62-1.67,22.94-3.29c3.31-1.24,4.81,0.26,2.31,3.13C62.04,19.91,60,22,56,26.75" transform="matrix(1,0,0,1,1496,-4)" class="stroke_order_diagram--existing_path"></path><path id="pathSk940yk7k8n4" kvg:type="㇑" d="M26.22,29.05c0.62,0.62,0.71,1.02,0.98,1.83c0.93,2.79,1.55,7.12,1.99,10.97" transform="matrix(1,0,0,1,1496,-4)" class="stroke_order_diagram--existing_path"></path><path id="pathSk940yk7k8n5" kvg:type="㇕" d="M27.46,30.48c8.64-1.28,46.5-4.52,51.98-5.37c2.01-0.31,3.23,0.82,2.94,1.91c-1.18,4.41-1.88,5.41-2.71,8.51" transform="matrix(1,0,0,1,1496,-4)" class="stroke_order_diagram--existing_path"></path><path id="pathSk940yk7k8n6" kvg:type="㇐" d="M30.47,39.98c2.58,0,15.95-1.56,18.06-1.56" transform="matrix(1,0,0,1,1496,-4)" class="stroke_order_diagram--existing_path"></path><path id="pathSk940yk7k8n7" kvg:type="㇐" d="M60.57,37.87c4.69-0.44,18.53-2.11,21.34-2.11" transform="matrix(1,0,0,1,1496,-4)" class="stroke_order_diagram--existing_path"></path><path id="pathSk940yk7k8n8" kvg:type="㇑" d="M60.41,27.65c0.2,0.89,0,58.44-0.2,63.99" transform="matrix(1,0,0,1,1496,-4)" class="stroke_order_diagram--existing_path"></path><path id="pathSk940yk7k8n9" kvg:type="㇟" d="M49.34,28.58c0,11.07-0.03,51.45-0.03,56.4C49.31,96.53,52.05,97,71.98,97c20.87,0,22.41-1.58,22.41-9.89" transform="matrix(1,0,0,1,1496,-4)" class="stroke_order_diagram--existing_path"></path><path id="pathSk940yk7k8na" kvg:type="㇕" d="M20.94,47.92c1.56,0.58,1.76,1.04,3.14,0.8c5.66-0.97,8.16-1.72,15.01-2.47c1.15-0.13,2.34,1.26,2.04,2.78c-0.79,3.97-1.37,5.42-2.43,12.25" transform="matrix(1,0,0,1,1496,-4)" class="stroke_order_diagram--existing_path"></path><path id="pathSk940yk7k8nb" kvg:type="㇕" d="M16.69,55.17c1.56,0.58,1.75,0.9,3.14,0.8c8.5-0.61,57.83-7.47,64.51-7.47c1.97,0,3,1.73,3.04,3.28c0.12,4.72-1.87,21.92-2.93,28.75" transform="matrix(1,0,0,1,1496,-4)" class="stroke_order_diagram--existing_path"></path><path id="pathSk940yk7k8nc" kvg:type="㇐" d="M21.36,63.37c0.76,0.09,2.14,0.4,3.04,0.28c10.61-1.4,14.92-2.39,15.83-2.3" transform="matrix(1,0,0,1,1496,-4)" class="stroke_order_diagram--existing_path"></path><path id="pathSk940yk7k8nd" kvg:type="㇕" d="M19.94,72.92c1.52,0.15,2.26,0.48,3.64,0.3C29.25,72.5,33.5,71,39.1,70.25c1.96-0.26,2.34,0.76,2.04,2.28c-0.79,3.97-1.37,10.42-2.43,17.25" transform="matrix(1,0,0,1,1496,-4)" class="stroke_order_diagram--existing_path"></path><path id="pathSk940yk7k8ne" kvg:type="㇐c" d="M15.92,81.58c1.33,0.42,3.44,0.94,4.95,0.8c13.21-1.21,51.39-4.63,64.18-5.8" transform="matrix(1,0,0,1,1496,-4)" class="stroke_order_diagram--existing_path"></path><path id="pathSk940yk7k8nf" kvg:type="㇐c" d="M19.86,91.37c0.76,0.09,2.13,0.33,3.04,0.28c6.36-0.4,14.36-1.15,17.45-1.39" transform="matrix(1,0,0,1,1496,-4)" class="stroke_order_diagram--existing_path"></path><path id="pathSk940yk7k8ng" kvg:type="㇒" d="M78.02,53.64c0.03,0.45,0.07,1.16-0.07,1.8c-0.8,3.81-5.38,12.16-11.65,17.27" transform="matrix(1,0,0,1,1496,-4)" class="stroke_order_diagram--existing_path"></path><path id="kvg:09f9c-s16" kvg:type="㇔" d="M67.02,58.58C71.27,60.9,78,68.11,79.06,71.72" transform="matrix(1,0,0,1,1496,-4)" class="stroke_order_diagram--current_path"></path><path id="pathSk940yk7k8ni" kvg:type="㇔" d="M67.02,58.58C71.27,60.9,78,68.11,79.06,71.72" transform="matrix(1,0,0,1,1496,-4)" class="stroke_order_diagram--current_path"></path><circle cx="67.02" cy="58.58" r="8" class="stroke_order_diagram--path_start" transform="matrix(1,0,0,1,1496,-4)"></circle></svg>