<?xml version="1.0" encoding="UTF-8"?>
<!DOCTYPE svg PUBLIC "-//W3C//DTD SVG 1.0//EN" "http://www.w3.org/TR/2001/REC-SVG-20010904/DTD/svg10.dtd" [
<!ATTLIST g
xmlns:kvg CDATA #FIXED "http://kanjivg.tagaini.net"
kvg:element CDATA #IMPLIED
kvg:variant CDATA #IMPLIED
kvg:partial CDATA #IMPLIED
kvg:original CDATA #IMPLIED
kvg:part CDATA #IMPLIED
kvg:number CDATA #IMPLIED
kvg:tradForm CDATA #IMPLIED
kvg:radicalForm CDATA #IMPLIED
kvg:position CDATA #IMPLIED
kvg:radical CDATA #IMPLIED
kvg:phon CDATA #IMPLIED >
<!ATTLIST path
xmlns:kvg CDATA #FIXED "http://kanjivg.tagaini.net"
kvg:type CDATA #IMPLIED >
]><svg style="width: 1700px; height: 100px;" xmlns="http://www.w3.org/2000/svg" xmlns:xlink="http://www.w3.org/1999/xlink" width="1700px" height="100px"><style>
.stroke_order_diagram--outer_container {
  width: 100%;
  overflow-x: auto;
  overflow-y: hidden;
}

.stroke_order_diagram--guide_line {
  fill: none;
  stroke: #ddd;
  stroke-width: 3;
  stroke-linecap: square;
  stroke-linejoin: square;
  stroke-dasharray:8, 8;
}

.stroke_order_diagram--bounding_box {
  fill: none;
  stroke: #ddd;
  stroke-width: 4;
  stroke-linecap: square;
  stroke-linejoin: square;
}

.stroke_order_diagram--current_path {
  fill: none;
  stroke: #000;
  stroke-width: 6;
  stroke-linecap: round;
  stroke-linejoin: round;
}

.stroke_order_diagram--existing_path {
  fill: none;
  stroke: #aaa;
  stroke-width: 6;
  stroke-linecap: round;
  stroke-linejoin:round;
}

.stroke_order_diagram--path_start {
  fill: rgba(255, 0, 0, 0.7);
  stroke:none
}</style><desc>Created with Snap</desc><defs></defs><line x1="1" x2="1699" y1="1" y2="1" class="stroke_order_diagram--bounding_box"></line><line x1="1" x2="1" y1="1" y2="99" class="stroke_order_diagram--bounding_box"></line><line x1="1" x2="1699" y1="99" y2="99" class="stroke_order_diagram--bounding_box"></line><line x1="0" x2="1700" y1="50" y2="50" class="stroke_order_diagram--guide_line"></line><line x1="50" x2="50" y1="1" y2="99" class="stroke_order_diagram--guide_line"></line><line x1="99" x2="99" y1="1" y2="99" class="stroke_order_diagram--bounding_box"></line><path id="kvg:09fa0-s1" kvg:type="㇒" d="M50.25,9.75c0.11,0.78,0.41,2.1-0.21,3.12C45.5,20.25,32.25,33,11.5,42.75" transform="matrix(1,0,0,1,-4,-4)" class="stroke_order_diagram--current_path"></path><path id="pathSk940yk7k8o9" kvg:type="㇒" d="M50.25,9.75c0.11,0.78,0.41,2.1-0.21,3.12C45.5,20.25,32.25,33,11.5,42.75" transform="matrix(1,0,0,1,-4,-4)" class="stroke_order_diagram--current_path"></path><circle cx="50.25" cy="9.75" r="8" class="stroke_order_diagram--path_start" transform="matrix(1,0,0,1,-4,-4)"></circle><line x1="150" x2="150" y1="1" y2="99" class="stroke_order_diagram--guide_line"></line><line x1="199" x2="199" y1="1" y2="99" class="stroke_order_diagram--bounding_box"></line><path id="pathSk940yk7k8oc" kvg:type="㇒" d="M50.25,9.75c0.11,0.78,0.41,2.1-0.21,3.12C45.5,20.25,32.25,33,11.5,42.75" transform="matrix(1,0,0,1,96,-4)" class="stroke_order_diagram--existing_path"></path><path id="kvg:09fa0-s2" kvg:type="㇏" d="M51,12.38c5.83,4.4,30.9,19.21,37.33,22.43c2.18,1.09,4.98,1.56,7.17,1.87" transform="matrix(1,0,0,1,96,-4)" class="stroke_order_diagram--current_path"></path><path id="pathSk940yk7k8oe" kvg:type="㇏" d="M51,12.38c5.83,4.4,30.9,19.21,37.33,22.43c2.18,1.09,4.98,1.56,7.17,1.87" transform="matrix(1,0,0,1,96,-4)" class="stroke_order_diagram--current_path"></path><circle cx="51" cy="12.38" r="8" class="stroke_order_diagram--path_start" transform="matrix(1,0,0,1,96,-4)"></circle><line x1="250" x2="250" y1="1" y2="99" class="stroke_order_diagram--guide_line"></line><line x1="299" x2="299" y1="1" y2="99" class="stroke_order_diagram--bounding_box"></line><path id="pathSk940yk7k8oh" kvg:type="㇒" d="M50.25,9.75c0.11,0.78,0.41,2.1-0.21,3.12C45.5,20.25,32.25,33,11.5,42.75" transform="matrix(1,0,0,1,196,-4)" class="stroke_order_diagram--existing_path"></path><path id="pathSk940yk7k8oi" kvg:type="㇏" d="M51,12.38c5.83,4.4,30.9,19.21,37.33,22.43c2.18,1.09,4.98,1.56,7.17,1.87" transform="matrix(1,0,0,1,196,-4)" class="stroke_order_diagram--existing_path"></path><path id="kvg:09fa0-s3" kvg:type="㇐" d="M37.25,33.19c0.82,0.33,2.31,0.37,3.13,0.33c5.87-0.27,17.37-2.02,24.01-2.38c1.36-0.07,2.18,0.16,2.86,0.32" transform="matrix(1,0,0,1,196,-4)" class="stroke_order_diagram--current_path"></path><path id="pathSk940yk7k8ok" kvg:type="㇐" d="M37.25,33.19c0.82,0.33,2.31,0.37,3.13,0.33c5.87-0.27,17.37-2.02,24.01-2.38c1.36-0.07,2.18,0.16,2.86,0.32" transform="matrix(1,0,0,1,196,-4)" class="stroke_order_diagram--current_path"></path><circle cx="37.25" cy="33.19" r="8" class="stroke_order_diagram--path_start" transform="matrix(1,0,0,1,196,-4)"></circle><line x1="350" x2="350" y1="1" y2="99" class="stroke_order_diagram--guide_line"></line><line x1="399" x2="399" y1="1" y2="99" class="stroke_order_diagram--bounding_box"></line><path id="pathSk940yk7k8on" kvg:type="㇒" d="M50.25,9.75c0.11,0.78,0.41,2.1-0.21,3.12C45.5,20.25,32.25,33,11.5,42.75" transform="matrix(1,0,0,1,296,-4)" class="stroke_order_diagram--existing_path"></path><path id="pathSk940yk7k8oo" kvg:type="㇏" d="M51,12.38c5.83,4.4,30.9,19.21,37.33,22.43c2.18,1.09,4.98,1.56,7.17,1.87" transform="matrix(1,0,0,1,296,-4)" class="stroke_order_diagram--existing_path"></path><path id="pathSk940yk7k8op" kvg:type="㇐" d="M37.25,33.19c0.82,0.33,2.31,0.37,3.13,0.33c5.87-0.27,17.37-2.02,24.01-2.38c1.36-0.07,2.18,0.16,2.86,0.32" transform="matrix(1,0,0,1,296,-4)" class="stroke_order_diagram--existing_path"></path><path id="kvg:09fa0-s4" kvg:type="㇑" d="M23.39,42.34c0.27,0.29,0.58,0.53,0.67,0.92c0.77,3.4,1.75,10.55,2.52,15.55" transform="matrix(1,0,0,1,296,-4)" class="stroke_order_diagram--current_path"></path><path id="pathSk940yk7k8or" kvg:type="㇑" d="M23.39,42.34c0.27,0.29,0.58,0.53,0.67,0.92c0.77,3.4,1.75,10.55,2.52,15.55" transform="matrix(1,0,0,1,296,-4)" class="stroke_order_diagram--current_path"></path><circle cx="23.39" cy="42.34" r="8" class="stroke_order_diagram--path_start" transform="matrix(1,0,0,1,296,-4)"></circle><line x1="450" x2="450" y1="1" y2="99" class="stroke_order_diagram--guide_line"></line><line x1="499" x2="499" y1="1" y2="99" class="stroke_order_diagram--bounding_box"></line><path id="pathSk940yk7k8ou" kvg:type="㇒" d="M50.25,9.75c0.11,0.78,0.41,2.1-0.21,3.12C45.5,20.25,32.25,33,11.5,42.75" transform="matrix(1,0,0,1,396,-4)" class="stroke_order_diagram--existing_path"></path><path id="pathSk940yk7k8ov" kvg:type="㇏" d="M51,12.38c5.83,4.4,30.9,19.21,37.33,22.43c2.18,1.09,4.98,1.56,7.17,1.87" transform="matrix(1,0,0,1,396,-4)" class="stroke_order_diagram--existing_path"></path><path id="pathSk940yk7k8ow" kvg:type="㇐" d="M37.25,33.19c0.82,0.33,2.31,0.37,3.13,0.33c5.87-0.27,17.37-2.02,24.01-2.38c1.36-0.07,2.18,0.16,2.86,0.32" transform="matrix(1,0,0,1,396,-4)" class="stroke_order_diagram--existing_path"></path><path id="pathSk940yk7k8ox" kvg:type="㇑" d="M23.39,42.34c0.27,0.29,0.58,0.53,0.67,0.92c0.77,3.4,1.75,10.55,2.52,15.55" transform="matrix(1,0,0,1,396,-4)" class="stroke_order_diagram--existing_path"></path><path id="kvg:09fa0-s5" kvg:type="㇕b" d="M25.07,44.33c5-0.72,9.29-1.3,13.91-2.02c1.16-0.18,1.85,0.84,1.69,1.67c-0.69,3.44-1.29,5.03-2.51,10.75" transform="matrix(1,0,0,1,396,-4)" class="stroke_order_diagram--current_path"></path><path id="pathSk940yk7k8oz" kvg:type="㇕b" d="M25.07,44.33c5-0.72,9.29-1.3,13.91-2.02c1.16-0.18,1.85,0.84,1.69,1.67c-0.69,3.44-1.29,5.03-2.51,10.75" transform="matrix(1,0,0,1,396,-4)" class="stroke_order_diagram--current_path"></path><circle cx="25.07" cy="44.33" r="8" class="stroke_order_diagram--path_start" transform="matrix(1,0,0,1,396,-4)"></circle><line x1="550" x2="550" y1="1" y2="99" class="stroke_order_diagram--guide_line"></line><line x1="599" x2="599" y1="1" y2="99" class="stroke_order_diagram--bounding_box"></line><path id="pathSk940yk7k8p2" kvg:type="㇒" d="M50.25,9.75c0.11,0.78,0.41,2.1-0.21,3.12C45.5,20.25,32.25,33,11.5,42.75" transform="matrix(1,0,0,1,496,-4)" class="stroke_order_diagram--existing_path"></path><path id="pathSk940yk7k8p3" kvg:type="㇏" d="M51,12.38c5.83,4.4,30.9,19.21,37.33,22.43c2.18,1.09,4.98,1.56,7.17,1.87" transform="matrix(1,0,0,1,496,-4)" class="stroke_order_diagram--existing_path"></path><path id="pathSk940yk7k8p4" kvg:type="㇐" d="M37.25,33.19c0.82,0.33,2.31,0.37,3.13,0.33c5.87-0.27,17.37-2.02,24.01-2.38c1.36-0.07,2.18,0.16,2.86,0.32" transform="matrix(1,0,0,1,496,-4)" class="stroke_order_diagram--existing_path"></path><path id="pathSk940yk7k8p5" kvg:type="㇑" d="M23.39,42.34c0.27,0.29,0.58,0.53,0.67,0.92c0.77,3.4,1.75,10.55,2.52,15.55" transform="matrix(1,0,0,1,496,-4)" class="stroke_order_diagram--existing_path"></path><path id="pathSk940yk7k8p6" kvg:type="㇕b" d="M25.07,44.33c5-0.72,9.29-1.3,13.91-2.02c1.16-0.18,1.85,0.84,1.69,1.67c-0.69,3.44-1.29,5.03-2.51,10.75" transform="matrix(1,0,0,1,496,-4)" class="stroke_order_diagram--existing_path"></path><path id="kvg:09fa0-s6" kvg:type="㇐b" d="M27.14,57.02c3.73-0.44,7.06-1.19,12.18-1.87" transform="matrix(1,0,0,1,496,-4)" class="stroke_order_diagram--current_path"></path><path id="pathSk940yk7k8p8" kvg:type="㇐b" d="M27.14,57.02c3.73-0.44,7.06-1.19,12.18-1.87" transform="matrix(1,0,0,1,496,-4)" class="stroke_order_diagram--current_path"></path><circle cx="27.14" cy="57.02" r="8" class="stroke_order_diagram--path_start" transform="matrix(1,0,0,1,496,-4)"></circle><line x1="650" x2="650" y1="1" y2="99" class="stroke_order_diagram--guide_line"></line><line x1="699" x2="699" y1="1" y2="99" class="stroke_order_diagram--bounding_box"></line><path id="pathSk940yk7k8pb" kvg:type="㇒" d="M50.25,9.75c0.11,0.78,0.41,2.1-0.21,3.12C45.5,20.25,32.25,33,11.5,42.75" transform="matrix(1,0,0,1,596,-4)" class="stroke_order_diagram--existing_path"></path><path id="pathSk940yk7k8pc" kvg:type="㇏" d="M51,12.38c5.83,4.4,30.9,19.21,37.33,22.43c2.18,1.09,4.98,1.56,7.17,1.87" transform="matrix(1,0,0,1,596,-4)" class="stroke_order_diagram--existing_path"></path><path id="pathSk940yk7k8pd" kvg:type="㇐" d="M37.25,33.19c0.82,0.33,2.31,0.37,3.13,0.33c5.87-0.27,17.37-2.02,24.01-2.38c1.36-0.07,2.18,0.16,2.86,0.32" transform="matrix(1,0,0,1,596,-4)" class="stroke_order_diagram--existing_path"></path><path id="pathSk940yk7k8pe" kvg:type="㇑" d="M23.39,42.34c0.27,0.29,0.58,0.53,0.67,0.92c0.77,3.4,1.75,10.55,2.52,15.55" transform="matrix(1,0,0,1,596,-4)" class="stroke_order_diagram--existing_path"></path><path id="pathSk940yk7k8pf" kvg:type="㇕b" d="M25.07,44.33c5-0.72,9.29-1.3,13.91-2.02c1.16-0.18,1.85,0.84,1.69,1.67c-0.69,3.44-1.29,5.03-2.51,10.75" transform="matrix(1,0,0,1,596,-4)" class="stroke_order_diagram--existing_path"></path><path id="pathSk940yk7k8pg" kvg:type="㇐b" d="M27.14,57.02c3.73-0.44,7.06-1.19,12.18-1.87" transform="matrix(1,0,0,1,596,-4)" class="stroke_order_diagram--existing_path"></path><path id="kvg:09fa0-s7" kvg:type="㇑" d="M46.14,41.55c0.25,0.27,0.53,0.48,0.61,0.84c0.7,3.11,1.6,9.64,2.31,14.21" transform="matrix(1,0,0,1,596,-4)" class="stroke_order_diagram--current_path"></path><path id="pathSk940yk7k8pi" kvg:type="㇑" d="M46.14,41.55c0.25,0.27,0.53,0.48,0.61,0.84c0.7,3.11,1.6,9.64,2.31,14.21" transform="matrix(1,0,0,1,596,-4)" class="stroke_order_diagram--current_path"></path><circle cx="46.14" cy="41.55" r="8" class="stroke_order_diagram--path_start" transform="matrix(1,0,0,1,596,-4)"></circle><line x1="750" x2="750" y1="1" y2="99" class="stroke_order_diagram--guide_line"></line><line x1="799" x2="799" y1="1" y2="99" class="stroke_order_diagram--bounding_box"></line><path id="pathSk940yk7k8pl" kvg:type="㇒" d="M50.25,9.75c0.11,0.78,0.41,2.1-0.21,3.12C45.5,20.25,32.25,33,11.5,42.75" transform="matrix(1,0,0,1,696,-4)" class="stroke_order_diagram--existing_path"></path><path id="pathSk940yk7k8pm" kvg:type="㇏" d="M51,12.38c5.83,4.4,30.9,19.21,37.33,22.43c2.18,1.09,4.98,1.56,7.17,1.87" transform="matrix(1,0,0,1,696,-4)" class="stroke_order_diagram--existing_path"></path><path id="pathSk940yk7k8pn" kvg:type="㇐" d="M37.25,33.19c0.82,0.33,2.31,0.37,3.13,0.33c5.87-0.27,17.37-2.02,24.01-2.38c1.36-0.07,2.18,0.16,2.86,0.32" transform="matrix(1,0,0,1,696,-4)" class="stroke_order_diagram--existing_path"></path><path id="pathSk940yk7k8po" kvg:type="㇑" d="M23.39,42.34c0.27,0.29,0.58,0.53,0.67,0.92c0.77,3.4,1.75,10.55,2.52,15.55" transform="matrix(1,0,0,1,696,-4)" class="stroke_order_diagram--existing_path"></path><path id="pathSk940yk7k8pp" kvg:type="㇕b" d="M25.07,44.33c5-0.72,9.29-1.3,13.91-2.02c1.16-0.18,1.85,0.84,1.69,1.67c-0.69,3.44-1.29,5.03-2.51,10.75" transform="matrix(1,0,0,1,696,-4)" class="stroke_order_diagram--existing_path"></path><path id="pathSk940yk7k8pq" kvg:type="㇐b" d="M27.14,57.02c3.73-0.44,7.06-1.19,12.18-1.87" transform="matrix(1,0,0,1,696,-4)" class="stroke_order_diagram--existing_path"></path><path id="pathSk940yk7k8pr" kvg:type="㇑" d="M46.14,41.55c0.25,0.27,0.53,0.48,0.61,0.84c0.7,3.11,1.6,9.64,2.31,14.21" transform="matrix(1,0,0,1,696,-4)" class="stroke_order_diagram--existing_path"></path><path id="kvg:09fa0-s8" kvg:type="㇕b" d="M47.68,43.37c4.56-0.66,8.49-1.18,12.7-1.85c1.05-0.16,1.69,0.77,1.54,1.52c-0.63,3.14-1.18,4.6-2.29,9.82" transform="matrix(1,0,0,1,696,-4)" class="stroke_order_diagram--current_path"></path><path id="pathSk940yk7k8pt" kvg:type="㇕b" d="M47.68,43.37c4.56-0.66,8.49-1.18,12.7-1.85c1.05-0.16,1.69,0.77,1.54,1.52c-0.63,3.14-1.18,4.6-2.29,9.82" transform="matrix(1,0,0,1,696,-4)" class="stroke_order_diagram--current_path"></path><circle cx="47.68" cy="43.37" r="8" class="stroke_order_diagram--path_start" transform="matrix(1,0,0,1,696,-4)"></circle><line x1="850" x2="850" y1="1" y2="99" class="stroke_order_diagram--guide_line"></line><line x1="899" x2="899" y1="1" y2="99" class="stroke_order_diagram--bounding_box"></line><path id="pathSk940yk7k8pw" kvg:type="㇒" d="M50.25,9.75c0.11,0.78,0.41,2.1-0.21,3.12C45.5,20.25,32.25,33,11.5,42.75" transform="matrix(1,0,0,1,796,-4)" class="stroke_order_diagram--existing_path"></path><path id="pathSk940yk7k8px" kvg:type="㇏" d="M51,12.38c5.83,4.4,30.9,19.21,37.33,22.43c2.18,1.09,4.98,1.56,7.17,1.87" transform="matrix(1,0,0,1,796,-4)" class="stroke_order_diagram--existing_path"></path><path id="pathSk940yk7k8py" kvg:type="㇐" d="M37.25,33.19c0.82,0.33,2.31,0.37,3.13,0.33c5.87-0.27,17.37-2.02,24.01-2.38c1.36-0.07,2.18,0.16,2.86,0.32" transform="matrix(1,0,0,1,796,-4)" class="stroke_order_diagram--existing_path"></path><path id="pathSk940yk7k8pz" kvg:type="㇑" d="M23.39,42.34c0.27,0.29,0.58,0.53,0.67,0.92c0.77,3.4,1.75,10.55,2.52,15.55" transform="matrix(1,0,0,1,796,-4)" class="stroke_order_diagram--existing_path"></path><path id="pathSk940yk7k8q0" kvg:type="㇕b" d="M25.07,44.33c5-0.72,9.29-1.3,13.91-2.02c1.16-0.18,1.85,0.84,1.69,1.67c-0.69,3.44-1.29,5.03-2.51,10.75" transform="matrix(1,0,0,1,796,-4)" class="stroke_order_diagram--existing_path"></path><path id="pathSk940yk7k8q1" kvg:type="㇐b" d="M27.14,57.02c3.73-0.44,7.06-1.19,12.18-1.87" transform="matrix(1,0,0,1,796,-4)" class="stroke_order_diagram--existing_path"></path><path id="pathSk940yk7k8q2" kvg:type="㇑" d="M46.14,41.55c0.25,0.27,0.53,0.48,0.61,0.84c0.7,3.11,1.6,9.64,2.31,14.21" transform="matrix(1,0,0,1,796,-4)" class="stroke_order_diagram--existing_path"></path><path id="pathSk940yk7k8q3" kvg:type="㇕b" d="M47.68,43.37c4.56-0.66,8.49-1.18,12.7-1.85c1.05-0.16,1.69,0.77,1.54,1.52c-0.63,3.14-1.18,4.6-2.29,9.82" transform="matrix(1,0,0,1,796,-4)" class="stroke_order_diagram--existing_path"></path><path id="kvg:09fa0-s9" kvg:type="㇐b" d="M49.56,54.96c3.4-0.4,6.45-1.09,11.12-1.71" transform="matrix(1,0,0,1,796,-4)" class="stroke_order_diagram--current_path"></path><path id="pathSk940yk7k8q5" kvg:type="㇐b" d="M49.56,54.96c3.4-0.4,6.45-1.09,11.12-1.71" transform="matrix(1,0,0,1,796,-4)" class="stroke_order_diagram--current_path"></path><circle cx="49.56" cy="54.96" r="8" class="stroke_order_diagram--path_start" transform="matrix(1,0,0,1,796,-4)"></circle><line x1="950" x2="950" y1="1" y2="99" class="stroke_order_diagram--guide_line"></line><line x1="999" x2="999" y1="1" y2="99" class="stroke_order_diagram--bounding_box"></line><path id="pathSk940yk7k8q8" kvg:type="㇒" d="M50.25,9.75c0.11,0.78,0.41,2.1-0.21,3.12C45.5,20.25,32.25,33,11.5,42.75" transform="matrix(1,0,0,1,896,-4)" class="stroke_order_diagram--existing_path"></path><path id="pathSk940yk7k8q9" kvg:type="㇏" d="M51,12.38c5.83,4.4,30.9,19.21,37.33,22.43c2.18,1.09,4.98,1.56,7.17,1.87" transform="matrix(1,0,0,1,896,-4)" class="stroke_order_diagram--existing_path"></path><path id="pathSk940yk7k8qa" kvg:type="㇐" d="M37.25,33.19c0.82,0.33,2.31,0.37,3.13,0.33c5.87-0.27,17.37-2.02,24.01-2.38c1.36-0.07,2.18,0.16,2.86,0.32" transform="matrix(1,0,0,1,896,-4)" class="stroke_order_diagram--existing_path"></path><path id="pathSk940yk7k8qb" kvg:type="㇑" d="M23.39,42.34c0.27,0.29,0.58,0.53,0.67,0.92c0.77,3.4,1.75,10.55,2.52,15.55" transform="matrix(1,0,0,1,896,-4)" class="stroke_order_diagram--existing_path"></path><path id="pathSk940yk7k8qc" kvg:type="㇕b" d="M25.07,44.33c5-0.72,9.29-1.3,13.91-2.02c1.16-0.18,1.85,0.84,1.69,1.67c-0.69,3.44-1.29,5.03-2.51,10.75" transform="matrix(1,0,0,1,896,-4)" class="stroke_order_diagram--existing_path"></path><path id="pathSk940yk7k8qd" kvg:type="㇐b" d="M27.14,57.02c3.73-0.44,7.06-1.19,12.18-1.87" transform="matrix(1,0,0,1,896,-4)" class="stroke_order_diagram--existing_path"></path><path id="pathSk940yk7k8qe" kvg:type="㇑" d="M46.14,41.55c0.25,0.27,0.53,0.48,0.61,0.84c0.7,3.11,1.6,9.64,2.31,14.21" transform="matrix(1,0,0,1,896,-4)" class="stroke_order_diagram--existing_path"></path><path id="pathSk940yk7k8qf" kvg:type="㇕b" d="M47.68,43.37c4.56-0.66,8.49-1.18,12.7-1.85c1.05-0.16,1.69,0.77,1.54,1.52c-0.63,3.14-1.18,4.6-2.29,9.82" transform="matrix(1,0,0,1,896,-4)" class="stroke_order_diagram--existing_path"></path><path id="pathSk940yk7k8qg" kvg:type="㇐b" d="M49.56,54.96c3.4-0.4,6.45-1.09,11.12-1.71" transform="matrix(1,0,0,1,896,-4)" class="stroke_order_diagram--existing_path"></path><path id="kvg:09fa0-s10" kvg:type="㇑" d="M67.64,40.05c0.26,0.27,0.56,0.48,0.65,0.84c0.75,3.11,1.7,9.64,2.45,14.2" transform="matrix(1,0,0,1,896,-4)" class="stroke_order_diagram--current_path"></path><path id="pathSk940yk7k8qi" kvg:type="㇑" d="M67.64,40.05c0.26,0.27,0.56,0.48,0.65,0.84c0.75,3.11,1.7,9.64,2.45,14.2" transform="matrix(1,0,0,1,896,-4)" class="stroke_order_diagram--current_path"></path><circle cx="67.64" cy="40.05" r="8" class="stroke_order_diagram--path_start" transform="matrix(1,0,0,1,896,-4)"></circle><line x1="1050" x2="1050" y1="1" y2="99" class="stroke_order_diagram--guide_line"></line><line x1="1099" x2="1099" y1="1" y2="99" class="stroke_order_diagram--bounding_box"></line><path id="pathSk940yk7k8ql" kvg:type="㇒" d="M50.25,9.75c0.11,0.78,0.41,2.1-0.21,3.12C45.5,20.25,32.25,33,11.5,42.75" transform="matrix(1,0,0,1,996,-4)" class="stroke_order_diagram--existing_path"></path><path id="pathSk940yk7k8qm" kvg:type="㇏" d="M51,12.38c5.83,4.4,30.9,19.21,37.33,22.43c2.18,1.09,4.98,1.56,7.17,1.87" transform="matrix(1,0,0,1,996,-4)" class="stroke_order_diagram--existing_path"></path><path id="pathSk940yk7k8qn" kvg:type="㇐" d="M37.25,33.19c0.82,0.33,2.31,0.37,3.13,0.33c5.87-0.27,17.37-2.02,24.01-2.38c1.36-0.07,2.18,0.16,2.86,0.32" transform="matrix(1,0,0,1,996,-4)" class="stroke_order_diagram--existing_path"></path><path id="pathSk940yk7k8qo" kvg:type="㇑" d="M23.39,42.34c0.27,0.29,0.58,0.53,0.67,0.92c0.77,3.4,1.75,10.55,2.52,15.55" transform="matrix(1,0,0,1,996,-4)" class="stroke_order_diagram--existing_path"></path><path id="pathSk940yk7k8qp" kvg:type="㇕b" d="M25.07,44.33c5-0.72,9.29-1.3,13.91-2.02c1.16-0.18,1.85,0.84,1.69,1.67c-0.69,3.44-1.29,5.03-2.51,10.75" transform="matrix(1,0,0,1,996,-4)" class="stroke_order_diagram--existing_path"></path><path id="pathSk940yk7k8qq" kvg:type="㇐b" d="M27.14,57.02c3.73-0.44,7.06-1.19,12.18-1.87" transform="matrix(1,0,0,1,996,-4)" class="stroke_order_diagram--existing_path"></path><path id="pathSk940yk7k8qr" kvg:type="㇑" d="M46.14,41.55c0.25,0.27,0.53,0.48,0.61,0.84c0.7,3.11,1.6,9.64,2.31,14.21" transform="matrix(1,0,0,1,996,-4)" class="stroke_order_diagram--existing_path"></path><path id="pathSk940yk7k8qs" kvg:type="㇕b" d="M47.68,43.37c4.56-0.66,8.49-1.18,12.7-1.85c1.05-0.16,1.69,0.77,1.54,1.52c-0.63,3.14-1.18,4.6-2.29,9.82" transform="matrix(1,0,0,1,996,-4)" class="stroke_order_diagram--existing_path"></path><path id="pathSk940yk7k8qt" kvg:type="㇐b" d="M49.56,54.96c3.4-0.4,6.45-1.09,11.12-1.71" transform="matrix(1,0,0,1,996,-4)" class="stroke_order_diagram--existing_path"></path><path id="pathSk940yk7k8qu" kvg:type="㇑" d="M67.64,40.05c0.26,0.27,0.56,0.48,0.65,0.84c0.75,3.11,1.7,9.64,2.45,14.2" transform="matrix(1,0,0,1,996,-4)" class="stroke_order_diagram--existing_path"></path><path id="kvg:09fa0-s11" kvg:type="㇕b" d="M69.27,41.87c4.85-0.66,9.03-1.18,13.5-1.85c1.12-0.16,1.8,0.77,1.64,1.52c-0.67,3.14-1.25,4.6-2.44,9.82" transform="matrix(1,0,0,1,996,-4)" class="stroke_order_diagram--current_path"></path><path id="pathSk940yk7k8qw" kvg:type="㇕b" d="M69.27,41.87c4.85-0.66,9.03-1.18,13.5-1.85c1.12-0.16,1.8,0.77,1.64,1.52c-0.67,3.14-1.25,4.6-2.44,9.82" transform="matrix(1,0,0,1,996,-4)" class="stroke_order_diagram--current_path"></path><circle cx="69.27" cy="41.87" r="8" class="stroke_order_diagram--path_start" transform="matrix(1,0,0,1,996,-4)"></circle><line x1="1150" x2="1150" y1="1" y2="99" class="stroke_order_diagram--guide_line"></line><line x1="1199" x2="1199" y1="1" y2="99" class="stroke_order_diagram--bounding_box"></line><path id="pathSk940yk7k8qz" kvg:type="㇒" d="M50.25,9.75c0.11,0.78,0.41,2.1-0.21,3.12C45.5,20.25,32.25,33,11.5,42.75" transform="matrix(1,0,0,1,1096,-4)" class="stroke_order_diagram--existing_path"></path><path id="pathSk940yk7k8r0" kvg:type="㇏" d="M51,12.38c5.83,4.4,30.9,19.21,37.33,22.43c2.18,1.09,4.98,1.56,7.17,1.87" transform="matrix(1,0,0,1,1096,-4)" class="stroke_order_diagram--existing_path"></path><path id="pathSk940yk7k8r1" kvg:type="㇐" d="M37.25,33.19c0.82,0.33,2.31,0.37,3.13,0.33c5.87-0.27,17.37-2.02,24.01-2.38c1.36-0.07,2.18,0.16,2.86,0.32" transform="matrix(1,0,0,1,1096,-4)" class="stroke_order_diagram--existing_path"></path><path id="pathSk940yk7k8r2" kvg:type="㇑" d="M23.39,42.34c0.27,0.29,0.58,0.53,0.67,0.92c0.77,3.4,1.75,10.55,2.52,15.55" transform="matrix(1,0,0,1,1096,-4)" class="stroke_order_diagram--existing_path"></path><path id="pathSk940yk7k8r3" kvg:type="㇕b" d="M25.07,44.33c5-0.72,9.29-1.3,13.91-2.02c1.16-0.18,1.85,0.84,1.69,1.67c-0.69,3.44-1.29,5.03-2.51,10.75" transform="matrix(1,0,0,1,1096,-4)" class="stroke_order_diagram--existing_path"></path><path id="pathSk940yk7k8r4" kvg:type="㇐b" d="M27.14,57.02c3.73-0.44,7.06-1.19,12.18-1.87" transform="matrix(1,0,0,1,1096,-4)" class="stroke_order_diagram--existing_path"></path><path id="pathSk940yk7k8r5" kvg:type="㇑" d="M46.14,41.55c0.25,0.27,0.53,0.48,0.61,0.84c0.7,3.11,1.6,9.64,2.31,14.21" transform="matrix(1,0,0,1,1096,-4)" class="stroke_order_diagram--existing_path"></path><path id="pathSk940yk7k8r6" kvg:type="㇕b" d="M47.68,43.37c4.56-0.66,8.49-1.18,12.7-1.85c1.05-0.16,1.69,0.77,1.54,1.52c-0.63,3.14-1.18,4.6-2.29,9.82" transform="matrix(1,0,0,1,1096,-4)" class="stroke_order_diagram--existing_path"></path><path id="pathSk940yk7k8r7" kvg:type="㇐b" d="M49.56,54.96c3.4-0.4,6.45-1.09,11.12-1.71" transform="matrix(1,0,0,1,1096,-4)" class="stroke_order_diagram--existing_path"></path><path id="pathSk940yk7k8r8" kvg:type="㇑" d="M67.64,40.05c0.26,0.27,0.56,0.48,0.65,0.84c0.75,3.11,1.7,9.64,2.45,14.2" transform="matrix(1,0,0,1,1096,-4)" class="stroke_order_diagram--existing_path"></path><path id="pathSk940yk7k8r9" kvg:type="㇕b" d="M69.27,41.87c4.85-0.66,9.03-1.18,13.5-1.85c1.12-0.16,1.8,0.77,1.64,1.52c-0.67,3.14-1.25,4.6-2.44,9.82" transform="matrix(1,0,0,1,1096,-4)" class="stroke_order_diagram--existing_path"></path><path id="kvg:09fa0-s12" kvg:type="㇐b" d="M71.28,53.46c3.62-0.4,6.85-1.09,11.82-1.71" transform="matrix(1,0,0,1,1096,-4)" class="stroke_order_diagram--current_path"></path><path id="pathSk940yk7k8rb" kvg:type="㇐b" d="M71.28,53.46c3.62-0.4,6.85-1.09,11.82-1.71" transform="matrix(1,0,0,1,1096,-4)" class="stroke_order_diagram--current_path"></path><circle cx="71.28" cy="53.46" r="8" class="stroke_order_diagram--path_start" transform="matrix(1,0,0,1,1096,-4)"></circle><line x1="1250" x2="1250" y1="1" y2="99" class="stroke_order_diagram--guide_line"></line><line x1="1299" x2="1299" y1="1" y2="99" class="stroke_order_diagram--bounding_box"></line><path id="pathSk940yk7k8re" kvg:type="㇒" d="M50.25,9.75c0.11,0.78,0.41,2.1-0.21,3.12C45.5,20.25,32.25,33,11.5,42.75" transform="matrix(1,0,0,1,1196,-4)" class="stroke_order_diagram--existing_path"></path><path id="pathSk940yk7k8rf" kvg:type="㇏" d="M51,12.38c5.83,4.4,30.9,19.21,37.33,22.43c2.18,1.09,4.98,1.56,7.17,1.87" transform="matrix(1,0,0,1,1196,-4)" class="stroke_order_diagram--existing_path"></path><path id="pathSk940yk7k8rg" kvg:type="㇐" d="M37.25,33.19c0.82,0.33,2.31,0.37,3.13,0.33c5.87-0.27,17.37-2.02,24.01-2.38c1.36-0.07,2.18,0.16,2.86,0.32" transform="matrix(1,0,0,1,1196,-4)" class="stroke_order_diagram--existing_path"></path><path id="pathSk940yk7k8rh" kvg:type="㇑" d="M23.39,42.34c0.27,0.29,0.58,0.53,0.67,0.92c0.77,3.4,1.75,10.55,2.52,15.55" transform="matrix(1,0,0,1,1196,-4)" class="stroke_order_diagram--existing_path"></path><path id="pathSk940yk7k8ri" kvg:type="㇕b" d="M25.07,44.33c5-0.72,9.29-1.3,13.91-2.02c1.16-0.18,1.85,0.84,1.69,1.67c-0.69,3.44-1.29,5.03-2.51,10.75" transform="matrix(1,0,0,1,1196,-4)" class="stroke_order_diagram--existing_path"></path><path id="pathSk940yk7k8rj" kvg:type="㇐b" d="M27.14,57.02c3.73-0.44,7.06-1.19,12.18-1.87" transform="matrix(1,0,0,1,1196,-4)" class="stroke_order_diagram--existing_path"></path><path id="pathSk940yk7k8rk" kvg:type="㇑" d="M46.14,41.55c0.25,0.27,0.53,0.48,0.61,0.84c0.7,3.11,1.6,9.64,2.31,14.21" transform="matrix(1,0,0,1,1196,-4)" class="stroke_order_diagram--existing_path"></path><path id="pathSk940yk7k8rl" kvg:type="㇕b" d="M47.68,43.37c4.56-0.66,8.49-1.18,12.7-1.85c1.05-0.16,1.69,0.77,1.54,1.52c-0.63,3.14-1.18,4.6-2.29,9.82" transform="matrix(1,0,0,1,1196,-4)" class="stroke_order_diagram--existing_path"></path><path id="pathSk940yk7k8rm" kvg:type="㇐b" d="M49.56,54.96c3.4-0.4,6.45-1.09,11.12-1.71" transform="matrix(1,0,0,1,1196,-4)" class="stroke_order_diagram--existing_path"></path><path id="pathSk940yk7k8rn" kvg:type="㇑" d="M67.64,40.05c0.26,0.27,0.56,0.48,0.65,0.84c0.75,3.11,1.7,9.64,2.45,14.2" transform="matrix(1,0,0,1,1196,-4)" class="stroke_order_diagram--existing_path"></path><path id="pathSk940yk7k8ro" kvg:type="㇕b" d="M69.27,41.87c4.85-0.66,9.03-1.18,13.5-1.85c1.12-0.16,1.8,0.77,1.64,1.52c-0.67,3.14-1.25,4.6-2.44,9.82" transform="matrix(1,0,0,1,1196,-4)" class="stroke_order_diagram--existing_path"></path><path id="pathSk940yk7k8rp" kvg:type="㇐b" d="M71.28,53.46c3.62-0.4,6.85-1.09,11.82-1.71" transform="matrix(1,0,0,1,1196,-4)" class="stroke_order_diagram--existing_path"></path><path id="kvg:09fa0-s13" kvg:type="㇑" d="M23.82,63.97c0.53,0.67,1.17,1.73,1.26,2.94c0.49,6.55-0.27,26.44,0.4,33.09" transform="matrix(1,0,0,1,1196,-4)" class="stroke_order_diagram--current_path"></path><path id="pathSk940yk7k8rr" kvg:type="㇑" d="M23.82,63.97c0.53,0.67,1.17,1.73,1.26,2.94c0.49,6.55-0.27,26.44,0.4,33.09" transform="matrix(1,0,0,1,1196,-4)" class="stroke_order_diagram--current_path"></path><circle cx="23.82" cy="63.97" r="8" class="stroke_order_diagram--path_start" transform="matrix(1,0,0,1,1196,-4)"></circle><line x1="1350" x2="1350" y1="1" y2="99" class="stroke_order_diagram--guide_line"></line><line x1="1399" x2="1399" y1="1" y2="99" class="stroke_order_diagram--bounding_box"></line><path id="pathSk940yk7k8ru" kvg:type="㇒" d="M50.25,9.75c0.11,0.78,0.41,2.1-0.21,3.12C45.5,20.25,32.25,33,11.5,42.75" transform="matrix(1,0,0,1,1296,-4)" class="stroke_order_diagram--existing_path"></path><path id="pathSk940yk7k8rv" kvg:type="㇏" d="M51,12.38c5.83,4.4,30.9,19.21,37.33,22.43c2.18,1.09,4.98,1.56,7.17,1.87" transform="matrix(1,0,0,1,1296,-4)" class="stroke_order_diagram--existing_path"></path><path id="pathSk940yk7k8rw" kvg:type="㇐" d="M37.25,33.19c0.82,0.33,2.31,0.37,3.13,0.33c5.87-0.27,17.37-2.02,24.01-2.38c1.36-0.07,2.18,0.16,2.86,0.32" transform="matrix(1,0,0,1,1296,-4)" class="stroke_order_diagram--existing_path"></path><path id="pathSk940yk7k8rx" kvg:type="㇑" d="M23.39,42.34c0.27,0.29,0.58,0.53,0.67,0.92c0.77,3.4,1.75,10.55,2.52,15.55" transform="matrix(1,0,0,1,1296,-4)" class="stroke_order_diagram--existing_path"></path><path id="pathSk940yk7k8ry" kvg:type="㇕b" d="M25.07,44.33c5-0.72,9.29-1.3,13.91-2.02c1.16-0.18,1.85,0.84,1.69,1.67c-0.69,3.44-1.29,5.03-2.51,10.75" transform="matrix(1,0,0,1,1296,-4)" class="stroke_order_diagram--existing_path"></path><path id="pathSk940yk7k8rz" kvg:type="㇐b" d="M27.14,57.02c3.73-0.44,7.06-1.19,12.18-1.87" transform="matrix(1,0,0,1,1296,-4)" class="stroke_order_diagram--existing_path"></path><path id="pathSk940yk7k8s0" kvg:type="㇑" d="M46.14,41.55c0.25,0.27,0.53,0.48,0.61,0.84c0.7,3.11,1.6,9.64,2.31,14.21" transform="matrix(1,0,0,1,1296,-4)" class="stroke_order_diagram--existing_path"></path><path id="pathSk940yk7k8s1" kvg:type="㇕b" d="M47.68,43.37c4.56-0.66,8.49-1.18,12.7-1.85c1.05-0.16,1.69,0.77,1.54,1.52c-0.63,3.14-1.18,4.6-2.29,9.82" transform="matrix(1,0,0,1,1296,-4)" class="stroke_order_diagram--existing_path"></path><path id="pathSk940yk7k8s2" kvg:type="㇐b" d="M49.56,54.96c3.4-0.4,6.45-1.09,11.12-1.71" transform="matrix(1,0,0,1,1296,-4)" class="stroke_order_diagram--existing_path"></path><path id="pathSk940yk7k8s3" kvg:type="㇑" d="M67.64,40.05c0.26,0.27,0.56,0.48,0.65,0.84c0.75,3.11,1.7,9.64,2.45,14.2" transform="matrix(1,0,0,1,1296,-4)" class="stroke_order_diagram--existing_path"></path><path id="pathSk940yk7k8s4" kvg:type="㇕b" d="M69.27,41.87c4.85-0.66,9.03-1.18,13.5-1.85c1.12-0.16,1.8,0.77,1.64,1.52c-0.67,3.14-1.25,4.6-2.44,9.82" transform="matrix(1,0,0,1,1296,-4)" class="stroke_order_diagram--existing_path"></path><path id="pathSk940yk7k8s5" kvg:type="㇐b" d="M71.28,53.46c3.62-0.4,6.85-1.09,11.82-1.71" transform="matrix(1,0,0,1,1296,-4)" class="stroke_order_diagram--existing_path"></path><path id="pathSk940yk7k8s6" kvg:type="㇑" d="M23.82,63.97c0.53,0.67,1.17,1.73,1.26,2.94c0.49,6.55-0.27,26.44,0.4,33.09" transform="matrix(1,0,0,1,1296,-4)" class="stroke_order_diagram--existing_path"></path><path id="kvg:09fa0-s14" kvg:type="㇆a" d="M24.64,65c6.67-0.54,52.12-4.47,53.43-4.65c2.81-0.4,3.83,2.81,3.86,4.14c0.15,7.14-0.46,13.43-0.46,26.17c0,8.41-2.17,4.66-5.74,1.72" transform="matrix(1,0,0,1,1296,-4)" class="stroke_order_diagram--current_path"></path><path id="pathSk940yk7k8s8" kvg:type="㇆a" d="M24.64,65c6.67-0.54,52.12-4.47,53.43-4.65c2.81-0.4,3.83,2.81,3.86,4.14c0.15,7.14-0.46,13.43-0.46,26.17c0,8.41-2.17,4.66-5.74,1.72" transform="matrix(1,0,0,1,1296,-4)" class="stroke_order_diagram--current_path"></path><circle cx="24.64" cy="65" r="8" class="stroke_order_diagram--path_start" transform="matrix(1,0,0,1,1296,-4)"></circle><line x1="1450" x2="1450" y1="1" y2="99" class="stroke_order_diagram--guide_line"></line><line x1="1499" x2="1499" y1="1" y2="99" class="stroke_order_diagram--bounding_box"></line><path id="pathSk940yk7k8sb" kvg:type="㇒" d="M50.25,9.75c0.11,0.78,0.41,2.1-0.21,3.12C45.5,20.25,32.25,33,11.5,42.75" transform="matrix(1,0,0,1,1396,-4)" class="stroke_order_diagram--existing_path"></path><path id="pathSk940yk7k8sc" kvg:type="㇏" d="M51,12.38c5.83,4.4,30.9,19.21,37.33,22.43c2.18,1.09,4.98,1.56,7.17,1.87" transform="matrix(1,0,0,1,1396,-4)" class="stroke_order_diagram--existing_path"></path><path id="pathSk940yk7k8sd" kvg:type="㇐" d="M37.25,33.19c0.82,0.33,2.31,0.37,3.13,0.33c5.87-0.27,17.37-2.02,24.01-2.38c1.36-0.07,2.18,0.16,2.86,0.32" transform="matrix(1,0,0,1,1396,-4)" class="stroke_order_diagram--existing_path"></path><path id="pathSk940yk7k8se" kvg:type="㇑" d="M23.39,42.34c0.27,0.29,0.58,0.53,0.67,0.92c0.77,3.4,1.75,10.55,2.52,15.55" transform="matrix(1,0,0,1,1396,-4)" class="stroke_order_diagram--existing_path"></path><path id="pathSk940yk7k8sf" kvg:type="㇕b" d="M25.07,44.33c5-0.72,9.29-1.3,13.91-2.02c1.16-0.18,1.85,0.84,1.69,1.67c-0.69,3.44-1.29,5.03-2.51,10.75" transform="matrix(1,0,0,1,1396,-4)" class="stroke_order_diagram--existing_path"></path><path id="pathSk940yk7k8sg" kvg:type="㇐b" d="M27.14,57.02c3.73-0.44,7.06-1.19,12.18-1.87" transform="matrix(1,0,0,1,1396,-4)" class="stroke_order_diagram--existing_path"></path><path id="pathSk940yk7k8sh" kvg:type="㇑" d="M46.14,41.55c0.25,0.27,0.53,0.48,0.61,0.84c0.7,3.11,1.6,9.64,2.31,14.21" transform="matrix(1,0,0,1,1396,-4)" class="stroke_order_diagram--existing_path"></path><path id="pathSk940yk7k8si" kvg:type="㇕b" d="M47.68,43.37c4.56-0.66,8.49-1.18,12.7-1.85c1.05-0.16,1.69,0.77,1.54,1.52c-0.63,3.14-1.18,4.6-2.29,9.82" transform="matrix(1,0,0,1,1396,-4)" class="stroke_order_diagram--existing_path"></path><path id="pathSk940yk7k8sj" kvg:type="㇐b" d="M49.56,54.96c3.4-0.4,6.45-1.09,11.12-1.71" transform="matrix(1,0,0,1,1396,-4)" class="stroke_order_diagram--existing_path"></path><path id="pathSk940yk7k8sk" kvg:type="㇑" d="M67.64,40.05c0.26,0.27,0.56,0.48,0.65,0.84c0.75,3.11,1.7,9.64,2.45,14.2" transform="matrix(1,0,0,1,1396,-4)" class="stroke_order_diagram--existing_path"></path><path id="pathSk940yk7k8sl" kvg:type="㇕b" d="M69.27,41.87c4.85-0.66,9.03-1.18,13.5-1.85c1.12-0.16,1.8,0.77,1.64,1.52c-0.67,3.14-1.25,4.6-2.44,9.82" transform="matrix(1,0,0,1,1396,-4)" class="stroke_order_diagram--existing_path"></path><path id="pathSk940yk7k8sm" kvg:type="㇐b" d="M71.28,53.46c3.62-0.4,6.85-1.09,11.82-1.71" transform="matrix(1,0,0,1,1396,-4)" class="stroke_order_diagram--existing_path"></path><path id="pathSk940yk7k8sn" kvg:type="㇑" d="M23.82,63.97c0.53,0.67,1.17,1.73,1.26,2.94c0.49,6.55-0.27,26.44,0.4,33.09" transform="matrix(1,0,0,1,1396,-4)" class="stroke_order_diagram--existing_path"></path><path id="pathSk940yk7k8so" kvg:type="㇆a" d="M24.64,65c6.67-0.54,52.12-4.47,53.43-4.65c2.81-0.4,3.83,2.81,3.86,4.14c0.15,7.14-0.46,13.43-0.46,26.17c0,8.41-2.17,4.66-5.74,1.72" transform="matrix(1,0,0,1,1396,-4)" class="stroke_order_diagram--existing_path"></path><path id="kvg:09fa0-s15" kvg:type="㇑" d="M25.16,78.61c13.59-0.86,42.34-4.11,56.63-4.63" transform="matrix(1,0,0,1,1396,-4)" class="stroke_order_diagram--current_path"></path><path id="pathSk940yk7k8sq" kvg:type="㇑" d="M25.16,78.61c13.59-0.86,42.34-4.11,56.63-4.63" transform="matrix(1,0,0,1,1396,-4)" class="stroke_order_diagram--current_path"></path><circle cx="25.16" cy="78.61" r="8" class="stroke_order_diagram--path_start" transform="matrix(1,0,0,1,1396,-4)"></circle><line x1="1550" x2="1550" y1="1" y2="99" class="stroke_order_diagram--guide_line"></line><line x1="1599" x2="1599" y1="1" y2="99" class="stroke_order_diagram--bounding_box"></line><path id="pathSk940yk7k8st" kvg:type="㇒" d="M50.25,9.75c0.11,0.78,0.41,2.1-0.21,3.12C45.5,20.25,32.25,33,11.5,42.75" transform="matrix(1,0,0,1,1496,-4)" class="stroke_order_diagram--existing_path"></path><path id="pathSk940yk7k8su" kvg:type="㇏" d="M51,12.38c5.83,4.4,30.9,19.21,37.33,22.43c2.18,1.09,4.98,1.56,7.17,1.87" transform="matrix(1,0,0,1,1496,-4)" class="stroke_order_diagram--existing_path"></path><path id="pathSk940yk7k8sv" kvg:type="㇐" d="M37.25,33.19c0.82,0.33,2.31,0.37,3.13,0.33c5.87-0.27,17.37-2.02,24.01-2.38c1.36-0.07,2.18,0.16,2.86,0.32" transform="matrix(1,0,0,1,1496,-4)" class="stroke_order_diagram--existing_path"></path><path id="pathSk940yk7k8sw" kvg:type="㇑" d="M23.39,42.34c0.27,0.29,0.58,0.53,0.67,0.92c0.77,3.4,1.75,10.55,2.52,15.55" transform="matrix(1,0,0,1,1496,-4)" class="stroke_order_diagram--existing_path"></path><path id="pathSk940yk7k8sx" kvg:type="㇕b" d="M25.07,44.33c5-0.72,9.29-1.3,13.91-2.02c1.16-0.18,1.85,0.84,1.69,1.67c-0.69,3.44-1.29,5.03-2.51,10.75" transform="matrix(1,0,0,1,1496,-4)" class="stroke_order_diagram--existing_path"></path><path id="pathSk940yk7k8sy" kvg:type="㇐b" d="M27.14,57.02c3.73-0.44,7.06-1.19,12.18-1.87" transform="matrix(1,0,0,1,1496,-4)" class="stroke_order_diagram--existing_path"></path><path id="pathSk940yk7k8sz" kvg:type="㇑" d="M46.14,41.55c0.25,0.27,0.53,0.48,0.61,0.84c0.7,3.11,1.6,9.64,2.31,14.21" transform="matrix(1,0,0,1,1496,-4)" class="stroke_order_diagram--existing_path"></path><path id="pathSk940yk7k8t0" kvg:type="㇕b" d="M47.68,43.37c4.56-0.66,8.49-1.18,12.7-1.85c1.05-0.16,1.69,0.77,1.54,1.52c-0.63,3.14-1.18,4.6-2.29,9.82" transform="matrix(1,0,0,1,1496,-4)" class="stroke_order_diagram--existing_path"></path><path id="pathSk940yk7k8t1" kvg:type="㇐b" d="M49.56,54.96c3.4-0.4,6.45-1.09,11.12-1.71" transform="matrix(1,0,0,1,1496,-4)" class="stroke_order_diagram--existing_path"></path><path id="pathSk940yk7k8t2" kvg:type="㇑" d="M67.64,40.05c0.26,0.27,0.56,0.48,0.65,0.84c0.75,3.11,1.7,9.64,2.45,14.2" transform="matrix(1,0,0,1,1496,-4)" class="stroke_order_diagram--existing_path"></path><path id="pathSk940yk7k8t3" kvg:type="㇕b" d="M69.27,41.87c4.85-0.66,9.03-1.18,13.5-1.85c1.12-0.16,1.8,0.77,1.64,1.52c-0.67,3.14-1.25,4.6-2.44,9.82" transform="matrix(1,0,0,1,1496,-4)" class="stroke_order_diagram--existing_path"></path><path id="pathSk940yk7k8t4" kvg:type="㇐b" d="M71.28,53.46c3.62-0.4,6.85-1.09,11.82-1.71" transform="matrix(1,0,0,1,1496,-4)" class="stroke_order_diagram--existing_path"></path><path id="pathSk940yk7k8t5" kvg:type="㇑" d="M23.82,63.97c0.53,0.67,1.17,1.73,1.26,2.94c0.49,6.55-0.27,26.44,0.4,33.09" transform="matrix(1,0,0,1,1496,-4)" class="stroke_order_diagram--existing_path"></path><path id="pathSk940yk7k8t6" kvg:type="㇆a" d="M24.64,65c6.67-0.54,52.12-4.47,53.43-4.65c2.81-0.4,3.83,2.81,3.86,4.14c0.15,7.14-0.46,13.43-0.46,26.17c0,8.41-2.17,4.66-5.74,1.72" transform="matrix(1,0,0,1,1496,-4)" class="stroke_order_diagram--existing_path"></path><path id="pathSk940yk7k8t7" kvg:type="㇑" d="M25.16,78.61c13.59-0.86,42.34-4.11,56.63-4.63" transform="matrix(1,0,0,1,1496,-4)" class="stroke_order_diagram--existing_path"></path><path id="kvg:09fa0-s16" kvg:type="㇑" d="M42.78,63.59c0.78,0.84,1.33-0.68,1.39,2.1c0.32,13.35-0.02,26.28-0.02,30.83" transform="matrix(1,0,0,1,1496,-4)" class="stroke_order_diagram--current_path"></path><path id="pathSk940yk7k8t9" kvg:type="㇑" d="M42.78,63.59c0.78,0.84,1.33-0.68,1.39,2.1c0.32,13.35-0.02,26.28-0.02,30.83" transform="matrix(1,0,0,1,1496,-4)" class="stroke_order_diagram--current_path"></path><circle cx="42.78" cy="63.59" r="8" class="stroke_order_diagram--path_start" transform="matrix(1,0,0,1,1496,-4)"></circle><line x1="1650" x2="1650" y1="1" y2="99" class="stroke_order_diagram--guide_line"></line><line x1="1699" x2="1699" y1="1" y2="99" class="stroke_order_diagram--bounding_box"></line><path id="pathSk940yk7k8tc" kvg:type="㇒" d="M50.25,9.75c0.11,0.78,0.41,2.1-0.21,3.12C45.5,20.25,32.25,33,11.5,42.75" transform="matrix(1,0,0,1,1596,-4)" class="stroke_order_diagram--existing_path"></path><path id="pathSk940yk7k8td" kvg:type="㇏" d="M51,12.38c5.83,4.4,30.9,19.21,37.33,22.43c2.18,1.09,4.98,1.56,7.17,1.87" transform="matrix(1,0,0,1,1596,-4)" class="stroke_order_diagram--existing_path"></path><path id="pathSk940yk7k8te" kvg:type="㇐" d="M37.25,33.19c0.82,0.33,2.31,0.37,3.13,0.33c5.87-0.27,17.37-2.02,24.01-2.38c1.36-0.07,2.18,0.16,2.86,0.32" transform="matrix(1,0,0,1,1596,-4)" class="stroke_order_diagram--existing_path"></path><path id="pathSk940yk7k8tf" kvg:type="㇑" d="M23.39,42.34c0.27,0.29,0.58,0.53,0.67,0.92c0.77,3.4,1.75,10.55,2.52,15.55" transform="matrix(1,0,0,1,1596,-4)" class="stroke_order_diagram--existing_path"></path><path id="pathSk940yk7k8tg" kvg:type="㇕b" d="M25.07,44.33c5-0.72,9.29-1.3,13.91-2.02c1.16-0.18,1.85,0.84,1.69,1.67c-0.69,3.44-1.29,5.03-2.51,10.75" transform="matrix(1,0,0,1,1596,-4)" class="stroke_order_diagram--existing_path"></path><path id="pathSk940yk7k8th" kvg:type="㇐b" d="M27.14,57.02c3.73-0.44,7.06-1.19,12.18-1.87" transform="matrix(1,0,0,1,1596,-4)" class="stroke_order_diagram--existing_path"></path><path id="pathSk940yk7k8ti" kvg:type="㇑" d="M46.14,41.55c0.25,0.27,0.53,0.48,0.61,0.84c0.7,3.11,1.6,9.64,2.31,14.21" transform="matrix(1,0,0,1,1596,-4)" class="stroke_order_diagram--existing_path"></path><path id="pathSk940yk7k8tj" kvg:type="㇕b" d="M47.68,43.37c4.56-0.66,8.49-1.18,12.7-1.85c1.05-0.16,1.69,0.77,1.54,1.52c-0.63,3.14-1.18,4.6-2.29,9.82" transform="matrix(1,0,0,1,1596,-4)" class="stroke_order_diagram--existing_path"></path><path id="pathSk940yk7k8tk" kvg:type="㇐b" d="M49.56,54.96c3.4-0.4,6.45-1.09,11.12-1.71" transform="matrix(1,0,0,1,1596,-4)" class="stroke_order_diagram--existing_path"></path><path id="pathSk940yk7k8tl" kvg:type="㇑" d="M67.64,40.05c0.26,0.27,0.56,0.48,0.65,0.84c0.75,3.11,1.7,9.64,2.45,14.2" transform="matrix(1,0,0,1,1596,-4)" class="stroke_order_diagram--existing_path"></path><path id="pathSk940yk7k8tm" kvg:type="㇕b" d="M69.27,41.87c4.85-0.66,9.03-1.18,13.5-1.85c1.12-0.16,1.8,0.77,1.64,1.52c-0.67,3.14-1.25,4.6-2.44,9.82" transform="matrix(1,0,0,1,1596,-4)" class="stroke_order_diagram--existing_path"></path><path id="pathSk940yk7k8tn" kvg:type="㇐b" d="M71.28,53.46c3.62-0.4,6.85-1.09,11.82-1.71" transform="matrix(1,0,0,1,1596,-4)" class="stroke_order_diagram--existing_path"></path><path id="pathSk940yk7k8to" kvg:type="㇑" d="M23.82,63.97c0.53,0.67,1.17,1.73,1.26,2.94c0.49,6.55-0.27,26.44,0.4,33.09" transform="matrix(1,0,0,1,1596,-4)" class="stroke_order_diagram--existing_path"></path><path id="pathSk940yk7k8tp" kvg:type="㇆a" d="M24.64,65c6.67-0.54,52.12-4.47,53.43-4.65c2.81-0.4,3.83,2.81,3.86,4.14c0.15,7.14-0.46,13.43-0.46,26.17c0,8.41-2.17,4.66-5.74,1.72" transform="matrix(1,0,0,1,1596,-4)" class="stroke_order_diagram--existing_path"></path><path id="pathSk940yk7k8tq" kvg:type="㇑" d="M25.16,78.61c13.59-0.86,42.34-4.11,56.63-4.63" transform="matrix(1,0,0,1,1596,-4)" class="stroke_order_diagram--existing_path"></path><path id="pathSk940yk7k8tr" kvg:type="㇑" d="M42.78,63.59c0.78,0.84,1.33-0.68,1.39,2.1c0.32,13.35-0.02,26.28-0.02,30.83" transform="matrix(1,0,0,1,1596,-4)" class="stroke_order_diagram--existing_path"></path><path id="kvg:09fa0-s17" kvg:type="㇐" d="M60.59,61.92c0.78,0.84,1.33,0.82,1.39,3.6c0.32,13.35-0.02,26.4-0.02,30.95" transform="matrix(1,0,0,1,1596,-4)" class="stroke_order_diagram--current_path"></path><path id="pathSk940yk7k8tt" kvg:type="㇐" d="M60.59,61.92c0.78,0.84,1.33,0.82,1.39,3.6c0.32,13.35-0.02,26.4-0.02,30.95" transform="matrix(1,0,0,1,1596,-4)" class="stroke_order_diagram--current_path"></path><circle cx="60.59" cy="61.92" r="8" class="stroke_order_diagram--path_start" transform="matrix(1,0,0,1,1596,-4)"></circle></svg>